<svg width="350" height="200" viewBox="0 0 350 200" fill="none" xmlns="http://www.w3.org/2000/svg">
<g clip-path="url(#clip0_552_27551)">
<rect width="350" height="200" rx="20" fill="url(#paint0_linear_552_27551)"/>
<path opacity="0.5" d="M334.642 205.206C299.494 226.507 242.504 226.507 207.36 205.206C172.216 183.905 172.211 149.368 207.36 128.067C242.508 106.766 299.494 106.766 334.642 128.067C369.79 149.368 369.781 183.905 334.642 205.206Z" fill="#F0F0F0"/>
<path opacity="0.5" d="M272.524 188.771L213.614 154.769C213.508 154.733 213.417 154.665 213.352 154.575C213.287 154.484 213.252 154.376 213.252 154.264C213.252 154.153 213.287 154.044 213.352 153.954C213.417 153.864 213.508 153.796 213.614 153.76L244.647 135.841C244.917 135.703 245.217 135.632 245.52 135.632C245.824 135.632 246.123 135.703 246.394 135.841L305.305 169.847C305.41 169.883 305.501 169.951 305.566 170.041C305.631 170.132 305.666 170.24 305.666 170.352C305.666 170.463 305.631 170.572 305.566 170.662C305.501 170.752 305.41 170.82 305.305 170.856L274.271 188.771C274.001 188.909 273.701 188.98 273.398 188.98C273.094 188.98 272.795 188.909 272.524 188.771Z" fill="#ECCB55"/>
<path d="M300.687 113.6C300.928 113.433 301.126 113.212 301.266 112.955C301.407 112.698 301.485 112.412 301.494 112.119V101.333C301.479 101.036 301.387 100.747 301.226 100.496C301.066 100.244 300.842 100.039 300.578 99.9009L286.024 93.1786C285.748 93.0632 285.45 93.0079 285.151 93.0162C284.852 93.0246 284.558 93.0964 284.289 93.2271C284.048 93.3938 283.85 93.6146 283.71 93.8717C283.57 94.1288 283.492 94.4152 283.482 94.7079V105.493C283.498 105.791 283.59 106.079 283.751 106.33C283.911 106.582 284.134 106.787 284.398 106.926L298.936 113.648C299.214 113.766 299.515 113.823 299.817 113.814C300.119 113.806 300.416 113.733 300.687 113.6Z" fill="#455A64"/>
<path d="M298.231 102.221L301.233 100.49C301.403 100.741 301.498 101.035 301.508 101.337V112.123C301.498 112.416 301.42 112.702 301.28 112.959C301.14 113.216 300.942 113.437 300.701 113.604C300.432 113.734 300.138 113.806 299.839 113.815C299.539 113.823 299.242 113.768 298.966 113.652L298.244 113.317L298.231 102.221Z" fill="#263238"/>
<path d="M298.938 100.849L284.412 94.1228C284.315 94.0605 284.203 94.0272 284.089 94.0269C283.974 94.0265 283.862 94.0591 283.765 94.1208C283.669 94.1824 283.592 94.2706 283.544 94.3747C283.496 94.4788 283.48 94.5945 283.496 94.7079V105.493C283.511 105.791 283.604 106.079 283.765 106.33C283.925 106.582 284.148 106.787 284.412 106.926L298.938 113.648C299.034 113.71 299.146 113.744 299.26 113.744C299.375 113.744 299.487 113.712 299.584 113.65C299.68 113.589 299.757 113.5 299.805 113.396C299.853 113.292 299.87 113.176 299.853 113.063V102.278C299.838 101.98 299.745 101.693 299.585 101.442C299.424 101.192 299.201 100.987 298.938 100.849Z" fill="#37474F"/>
<path d="M295.742 130.575V155.273C295.747 155.387 295.78 155.498 295.837 155.597C295.894 155.696 295.973 155.78 296.069 155.842L296.952 156.35C297.053 156.402 297.165 156.429 297.279 156.429C297.393 156.429 297.505 156.402 297.606 156.35L298.49 155.842C298.584 155.779 298.663 155.695 298.72 155.596C298.777 155.497 298.81 155.387 298.816 155.273V130.575C298.816 130.281 298.7 129.998 298.491 129.79C298.283 129.582 298.001 129.465 297.707 129.465H296.851C296.557 129.465 296.275 129.582 296.067 129.79C295.859 129.998 295.742 130.281 295.742 130.575Z" fill="#263238"/>
<path d="M298.046 129.465C297.842 129.465 297.647 129.546 297.504 129.69C297.36 129.834 297.279 130.029 297.279 130.232V156.205C297.279 156.391 297.408 156.463 297.57 156.375L298.502 155.834C298.593 155.774 298.67 155.694 298.724 155.599C298.779 155.505 298.811 155.398 298.816 155.289V130.232C298.815 130.028 298.734 129.833 298.589 129.69C298.445 129.546 298.249 129.465 298.046 129.465Z" fill="#37474F"/>
<path d="M279.109 139.246V164.666C279.116 164.78 279.15 164.89 279.207 164.988C279.265 165.086 279.344 165.17 279.44 165.231L280.319 165.74C280.421 165.792 280.534 165.819 280.648 165.819C280.763 165.819 280.875 165.792 280.977 165.74L281.857 165.231C281.952 165.169 282.031 165.086 282.088 164.988C282.144 164.89 282.177 164.78 282.184 164.666V139.246C282.184 139.146 282.144 139.05 282.074 138.979C282.004 138.908 281.908 138.868 281.808 138.867H279.488C279.388 138.867 279.291 138.907 279.22 138.978C279.149 139.049 279.109 139.146 279.109 139.246Z" fill="#263238"/>
<path d="M281.808 138.867H281.025C280.925 138.867 280.828 138.907 280.757 138.978C280.686 139.049 280.646 139.146 280.646 139.246V165.57C280.646 165.776 280.791 165.861 280.973 165.756L281.853 165.248C281.948 165.186 282.027 165.102 282.083 165.004C282.14 164.906 282.173 164.796 282.179 164.683V139.262C282.182 139.212 282.174 139.161 282.156 139.114C282.138 139.067 282.112 139.023 282.077 138.986C282.042 138.95 282.001 138.92 281.955 138.9C281.908 138.879 281.859 138.868 281.808 138.867Z" fill="#37474F"/>
<path d="M298.816 130.062V130.401C298.802 130.712 298.723 131.016 298.584 131.294C298.445 131.572 298.249 131.818 298.009 132.015L281.466 143.539C281.217 143.701 280.929 143.795 280.633 143.811C280.336 143.826 280.04 143.763 279.775 143.628L258.991 131.592C258.732 131.426 258.516 131.201 258.362 130.935C258.207 130.669 258.119 130.37 258.103 130.062V129.711C258.119 129.414 258.212 129.125 258.372 128.874C258.533 128.623 258.756 128.418 259.019 128.279L279.469 118.797C279.756 118.683 280.064 118.631 280.373 118.645C280.682 118.659 280.984 118.738 281.26 118.877L297.941 128.517C298.2 128.686 298.415 128.914 298.567 129.183C298.719 129.452 298.805 129.754 298.816 130.062Z" fill="#37474F"/>
<path d="M297.941 128.533L281.26 118.894C280.985 118.754 280.682 118.675 280.373 118.661C280.065 118.647 279.756 118.699 279.469 118.813L259.02 128.295C258.515 128.529 258.495 128.945 258.979 129.223L279.776 141.231C280.04 141.367 280.335 141.431 280.632 141.416C280.929 141.401 281.217 141.308 281.466 141.147L298.01 129.631C298.112 129.576 298.196 129.493 298.252 129.392C298.308 129.291 298.334 129.175 298.327 129.06C298.32 128.944 298.28 128.833 298.211 128.74C298.143 128.647 298.049 128.575 297.941 128.533Z" fill="#455A64"/>
<path d="M292.206 119.523C293.953 122.166 294.547 126.383 292.864 129.671C292.057 131.257 284.391 140.029 278.826 139.307C269.259 138.056 260.362 125.329 260.362 125.329L273.206 118.401L292.206 119.523Z" fill="#263238"/>
<path d="M248.77 149.604C244.331 153.171 241.479 153.538 240.333 154.264C239.187 154.991 239.243 156.996 241.354 157.997C243.464 158.997 246.014 159.062 247.81 157.997C249.605 156.931 251.066 155.297 252.793 154.619C254.52 153.941 255.343 153.849 255.867 152.666C256.392 151.484 256.206 147.538 256.206 147.538L248.77 149.604Z" fill="#263238"/>
<path d="M252.047 143.297C251.958 144.972 251.954 146.457 250.384 148.107C249.878 148.639 249.339 149.139 248.77 149.604C246.172 151.734 244.078 153.377 243.706 153.667C243.335 153.958 244.703 155.507 246.781 155.2C248.859 154.894 251.171 152.509 252.834 151.137C253.568 150.528 254.274 149.983 254.831 149.564C255.578 149.007 256.095 148.196 256.284 147.284L256.824 144.709L252.047 143.297Z" fill="#FFA8A7" stroke="#FFA8A7" stroke-miterlimit="10"/>
<path d="M260.112 156.14C255.674 159.707 252.825 160.075 251.675 160.801C250.525 161.527 250.586 163.533 252.696 164.533C254.806 165.534 257.356 165.598 259.152 164.533C260.948 163.468 262.408 161.834 264.135 161.156C265.862 160.478 266.685 160.381 267.214 159.203C267.742 158.025 267.553 154.075 267.553 154.075L260.112 156.14Z" fill="#263238"/>
<path d="M263.393 149.834C263.304 151.508 263.296 152.993 261.726 154.644C261.219 155.175 260.68 155.675 260.112 156.141C257.518 158.271 255.419 159.913 255.052 160.204C254.685 160.494 256.045 162.044 258.127 161.737C260.209 161.43 262.517 159.046 264.179 157.674C264.914 157.065 265.62 156.52 266.177 156.1C266.923 155.543 267.439 154.732 267.629 153.82L268.17 151.246L263.393 149.834Z" fill="#FFA8A7" stroke="#FFA8A7" stroke-miterlimit="10"/>
<path d="M275.283 157.5V186.956C275.276 187.077 275.241 187.195 275.18 187.3C275.119 187.405 275.034 187.495 274.932 187.561L273.992 188.102C273.884 188.157 273.764 188.186 273.643 188.186C273.522 188.186 273.402 188.157 273.294 188.102L272.354 187.561C272.252 187.495 272.167 187.405 272.106 187.3C272.045 187.195 272.01 187.077 272.003 186.956V157.5C272.003 157.393 272.045 157.291 272.121 157.215C272.197 157.139 272.299 157.097 272.406 157.097H274.88C274.987 157.097 275.089 157.139 275.165 157.215C275.241 157.291 275.283 157.393 275.283 157.5Z" fill="white"/>
<path d="M272.408 157.097H273.243C273.35 157.097 273.453 157.139 273.528 157.215C273.604 157.291 273.646 157.393 273.646 157.5V187.912C273.646 188.134 273.489 188.227 273.295 188.114L272.355 187.573C272.253 187.507 272.169 187.417 272.108 187.312C272.047 187.207 272.011 187.089 272.004 186.968V157.5C272.004 157.393 272.047 157.291 272.122 157.215C272.198 157.139 272.301 157.097 272.408 157.097Z" fill="white"/>
<path opacity="0.6" d="M272.408 157.097H273.243C273.35 157.097 273.453 157.139 273.528 157.215C273.604 157.291 273.646 157.393 273.646 157.5V187.912C273.646 188.134 273.489 188.227 273.295 188.114L272.355 187.573C272.253 187.507 272.169 187.417 272.108 187.312C272.047 187.207 272.011 187.089 272.004 186.968V157.5C272.004 157.393 272.047 157.291 272.122 157.215C272.198 157.139 272.301 157.097 272.408 157.097Z" fill="white"/>
<path d="M217.918 124.414V153.869C217.911 153.99 217.876 154.108 217.815 154.213C217.754 154.319 217.669 154.408 217.567 154.474L216.627 155.015C216.519 155.07 216.399 155.099 216.278 155.099C216.156 155.099 216.037 155.07 215.929 155.015L214.989 154.474C214.887 154.408 214.802 154.319 214.741 154.213C214.68 154.108 214.644 153.99 214.638 153.869V124.414C214.638 124.306 214.68 124.204 214.756 124.128C214.831 124.053 214.934 124.01 215.041 124.01H217.514C217.621 124.01 217.724 124.053 217.8 124.128C217.875 124.204 217.918 124.306 217.918 124.414Z" fill="white"/>
<path d="M215.041 124.01H215.876C215.983 124.01 216.085 124.053 216.161 124.128C216.237 124.204 216.279 124.306 216.279 124.414V154.821C216.279 155.047 216.122 155.136 215.928 155.023L214.988 154.482C214.886 154.416 214.801 154.327 214.74 154.221C214.679 154.116 214.644 153.998 214.637 153.877V124.414C214.637 124.306 214.68 124.204 214.755 124.128C214.831 124.053 214.934 124.01 215.041 124.01Z" fill="white"/>
<path opacity="0.6" d="M215.041 124.01H215.876C215.983 124.01 216.085 124.053 216.161 124.128C216.237 124.204 216.279 124.306 216.279 124.414V154.821C216.279 155.047 216.122 155.136 215.928 155.023L214.988 154.482C214.886 154.416 214.801 154.327 214.74 154.221C214.679 154.116 214.644 153.998 214.637 153.877V124.414C214.637 124.306 214.68 124.204 214.755 124.128C214.831 124.053 214.934 124.01 215.041 124.01Z" fill="white"/>
<path d="M304.787 140.481V169.936C304.78 170.057 304.745 170.175 304.684 170.281C304.623 170.386 304.538 170.475 304.436 170.541L303.496 171.082C303.388 171.138 303.268 171.167 303.147 171.167C303.025 171.167 302.906 171.138 302.798 171.082L301.858 170.541C301.756 170.475 301.671 170.386 301.61 170.281C301.549 170.175 301.514 170.057 301.507 169.936V140.481C301.507 140.374 301.549 140.271 301.625 140.195C301.701 140.12 301.803 140.077 301.91 140.077H304.384C304.491 140.077 304.593 140.12 304.669 140.195C304.745 140.271 304.787 140.374 304.787 140.481Z" fill="white"/>
<path d="M301.91 140.077H302.741C302.848 140.077 302.951 140.12 303.026 140.195C303.102 140.271 303.145 140.374 303.145 140.481V170.892C303.145 171.114 302.991 171.207 302.798 171.094L301.857 170.553C301.755 170.487 301.671 170.398 301.61 170.293C301.549 170.188 301.513 170.07 301.506 169.948V140.493C301.505 140.439 301.514 140.385 301.533 140.335C301.553 140.284 301.583 140.238 301.62 140.2C301.658 140.161 301.703 140.13 301.753 140.109C301.802 140.088 301.856 140.077 301.91 140.077Z" fill="white"/>
<path opacity="0.6" d="M301.91 140.077H302.741C302.848 140.077 302.951 140.12 303.026 140.195C303.102 140.271 303.145 140.374 303.145 140.481V170.892C303.145 171.114 302.991 171.207 302.798 171.094L301.857 170.553C301.755 170.487 301.671 170.398 301.61 170.293C301.549 170.188 301.513 170.07 301.506 169.948V140.493C301.505 140.439 301.514 140.385 301.533 140.335C301.553 140.284 301.583 140.238 301.62 140.2C301.658 140.161 301.703 140.13 301.753 140.109C301.802 140.088 301.856 140.077 301.91 140.077Z" fill="white"/>
<path d="M306.426 140.206V139.928C306.412 139.686 306.341 139.45 306.22 139.24C306.099 139.03 305.93 138.851 305.728 138.717L246.482 104.513C246.265 104.404 246.025 104.347 245.782 104.347C245.539 104.347 245.299 104.404 245.082 104.513L213.698 122.634C213.495 122.767 213.325 122.946 213.204 123.156C213.083 123.366 213.013 123.602 213 123.844V124.123C213.014 124.365 213.084 124.601 213.205 124.811C213.327 125.021 213.495 125.2 213.698 125.333L272.948 159.538C273.164 159.647 273.403 159.705 273.646 159.705C273.888 159.705 274.127 159.647 274.344 159.538L305.728 141.417C305.931 141.284 306.1 141.105 306.221 140.895C306.343 140.685 306.413 140.449 306.426 140.206Z" fill="white"/>
<path opacity="0.6" d="M306.426 140.206V139.928C306.412 139.686 306.341 139.45 306.22 139.24C306.099 139.03 305.93 138.851 305.728 138.717L246.482 104.513C246.265 104.404 246.025 104.347 245.782 104.347C245.539 104.347 245.299 104.404 245.082 104.513L213.698 122.634C213.495 122.767 213.325 122.946 213.204 123.156C213.083 123.366 213.013 123.602 213 123.844V124.123C213.014 124.365 213.084 124.601 213.205 124.811C213.327 125.021 213.495 125.2 213.698 125.333L272.948 159.538C273.164 159.647 273.403 159.705 273.646 159.705C273.888 159.705 274.127 159.647 274.344 159.538L305.728 141.417C305.931 141.284 306.1 141.105 306.221 140.895C306.343 140.685 306.413 140.449 306.426 140.206Z" fill="white"/>
<path d="M273.646 120.197L305.728 138.717C305.93 138.851 306.099 139.03 306.22 139.24C306.341 139.45 306.412 139.686 306.426 139.928V140.206C306.413 140.449 306.343 140.685 306.221 140.895C306.1 141.105 305.931 141.284 305.728 141.417L274.323 159.538C274.108 159.65 273.868 159.707 273.625 159.703L273.646 120.197Z" fill="white"/>
<path d="M305.728 139.524L274.324 157.646C274.107 157.755 273.868 157.812 273.625 157.812C273.383 157.812 273.144 157.755 272.927 157.646L213.678 123.441C213.594 123.412 213.522 123.357 213.471 123.285C213.419 123.212 213.392 123.126 213.392 123.037C213.392 122.949 213.419 122.863 213.471 122.79C213.522 122.718 213.594 122.663 213.678 122.634L245.062 104.513C245.279 104.404 245.519 104.347 245.762 104.347C246.005 104.347 246.245 104.404 246.462 104.513L305.728 138.717C305.811 138.747 305.884 138.801 305.935 138.874C305.986 138.946 306.014 139.032 306.014 139.121C306.014 139.21 305.986 139.296 305.935 139.368C305.884 139.44 305.811 139.495 305.728 139.524Z" fill="white"/>
<path opacity="0.7" d="M305.728 139.524L274.324 157.646C274.107 157.755 273.868 157.812 273.625 157.812C273.383 157.812 273.144 157.755 272.927 157.646L213.678 123.441C213.594 123.412 213.522 123.357 213.471 123.285C213.419 123.212 213.392 123.126 213.392 123.037C213.392 122.949 213.419 122.863 213.471 122.79C213.522 122.718 213.594 122.663 213.678 122.634L245.062 104.513C245.279 104.404 245.519 104.347 245.762 104.347C246.005 104.347 246.245 104.404 246.462 104.513L305.728 138.717C305.811 138.747 305.884 138.801 305.935 138.874C305.986 138.946 306.014 139.032 306.014 139.121C306.014 139.21 305.986 139.296 305.935 139.368C305.884 139.44 305.811 139.495 305.728 139.524Z" fill="white"/>
<path d="M267.084 123.437V123.578C267.078 123.699 267.043 123.817 266.983 123.922C266.923 124.027 266.838 124.117 266.737 124.183L260.878 127.565C260.77 127.619 260.65 127.648 260.529 127.648C260.408 127.648 260.288 127.619 260.18 127.565L241.216 116.505C241.114 116.438 241.028 116.348 240.968 116.242C240.907 116.136 240.871 116.018 240.865 115.896V115.867C240.872 115.746 240.907 115.628 240.968 115.523C241.029 115.418 241.114 115.328 241.216 115.262L247.058 111.881C247.168 111.828 247.288 111.8 247.409 111.8C247.531 111.8 247.651 111.828 247.76 111.881L266.725 122.832C266.828 122.897 266.915 122.986 266.978 123.091C267.04 123.196 267.076 123.315 267.084 123.437Z" fill="#37474F"/>
<path d="M267.084 123.437V123.578C267.078 123.699 267.043 123.817 266.983 123.922C266.923 124.028 266.838 124.117 266.737 124.184L260.878 127.565C260.772 127.623 260.652 127.652 260.531 127.65V121.722H264.816L266.737 122.832C266.838 122.898 266.923 122.988 266.983 123.093C267.043 123.198 267.078 123.316 267.084 123.437Z" fill="#263238"/>
<path d="M241.213 115.666L260.177 126.621C260.285 126.675 260.405 126.704 260.526 126.704C260.647 126.704 260.767 126.675 260.875 126.621L266.734 123.239C266.776 123.225 266.812 123.197 266.838 123.161C266.863 123.125 266.877 123.082 266.877 123.037C266.877 122.993 266.863 122.95 266.838 122.914C266.812 122.878 266.776 122.85 266.734 122.836L247.77 111.885C247.66 111.832 247.54 111.804 247.419 111.804C247.297 111.804 247.177 111.832 247.068 111.885L241.225 115.266C241.019 115.375 241.019 115.557 241.213 115.666Z" fill="#455A64"/>
<path d="M258.184 121.682L258.781 122.025C258.809 122.025 258.809 122.065 258.781 122.077L258.139 122.452C258.125 122.459 258.109 122.462 258.093 122.462C258.077 122.462 258.061 122.459 258.047 122.452L257.449 122.105C257.421 122.105 257.421 122.065 257.449 122.053L258.091 121.682C258.105 121.674 258.121 121.67 258.137 121.67C258.154 121.67 258.169 121.674 258.184 121.682ZM257.127 122.981L256.525 122.638C256.501 122.638 256.501 122.598 256.525 122.586L257.171 122.21C257.201 122.198 257.234 122.198 257.264 122.21L257.861 122.557C257.889 122.557 257.889 122.594 257.861 122.61L257.219 122.981C257.207 122.987 257.193 122.99 257.179 122.99C257.165 122.99 257.151 122.987 257.139 122.981H257.127ZM255.194 121.867L254.181 121.282C254.153 121.282 254.153 121.242 254.181 121.23L254.823 120.855C254.837 120.849 254.853 120.845 254.869 120.845C254.885 120.845 254.901 120.849 254.915 120.855L255.928 121.44C255.952 121.44 255.952 121.48 255.928 121.492L255.283 121.867C255.258 121.876 255.231 121.876 255.206 121.867H255.194ZM256.251 122.477L255.654 122.134C255.626 122.134 255.626 122.093 255.654 122.077L256.295 121.706C256.31 121.7 256.326 121.697 256.342 121.697C256.358 121.697 256.373 121.7 256.388 121.706L256.989 122.053C257.014 122.053 257.014 122.089 256.989 122.105L256.344 122.477C256.331 122.482 256.317 122.485 256.303 122.485C256.289 122.485 256.276 122.482 256.263 122.477H256.251ZM253.903 121.121L253.305 120.778C253.3 120.775 253.296 120.771 253.293 120.766C253.29 120.761 253.289 120.755 253.289 120.75C253.289 120.744 253.29 120.738 253.293 120.733C253.296 120.728 253.3 120.724 253.305 120.721L253.951 120.35C253.965 120.344 253.98 120.341 253.995 120.341C254.011 120.341 254.026 120.344 254.04 120.35L254.641 120.697C254.665 120.697 254.665 120.734 254.641 120.75L253.995 121.121C253.983 121.127 253.969 121.13 253.955 121.13C253.941 121.13 253.927 121.127 253.915 121.121H253.903ZM253.027 120.617L252.43 120.274C252.425 120.271 252.421 120.267 252.418 120.262C252.415 120.257 252.413 120.251 252.413 120.245C252.413 120.24 252.415 120.234 252.418 120.229C252.421 120.224 252.425 120.22 252.43 120.217L253.075 119.846C253.09 119.84 253.106 119.837 253.122 119.837C253.138 119.837 253.154 119.84 253.168 119.846L253.765 120.193C253.79 120.193 253.79 120.229 253.765 120.245L253.12 120.617C253.107 120.622 253.093 120.625 253.079 120.625C253.066 120.625 253.052 120.622 253.039 120.617H253.027ZM255.561 119.103L256.158 119.446C256.163 119.449 256.167 119.453 256.17 119.458C256.173 119.463 256.175 119.469 256.175 119.475C256.175 119.48 256.173 119.486 256.17 119.491C256.167 119.496 256.163 119.5 256.158 119.503L255.513 119.874C255.499 119.88 255.483 119.883 255.468 119.883C255.453 119.883 255.438 119.88 255.424 119.874L254.823 119.527C254.798 119.527 254.798 119.491 254.823 119.475L255.468 119.103C255.484 119.093 255.502 119.088 255.521 119.088C255.539 119.088 255.557 119.093 255.573 119.103H255.561ZM254.685 118.599L255.283 118.942C255.311 118.942 255.311 118.982 255.283 118.994L254.641 119.37C254.626 119.376 254.611 119.379 254.595 119.379C254.579 119.379 254.563 119.376 254.548 119.37L253.951 119.023C253.923 119.023 253.923 118.982 253.951 118.97L254.593 118.599C254.608 118.589 254.626 118.584 254.645 118.584C254.664 118.584 254.682 118.589 254.697 118.599H254.685ZM253.81 118.091L254.411 118.438C254.435 118.438 254.435 118.478 254.411 118.49L253.765 118.861C253.751 118.869 253.735 118.873 253.719 118.873C253.703 118.873 253.687 118.869 253.673 118.861L253.075 118.518C253.051 118.518 253.051 118.478 253.075 118.466L253.721 118.091C253.737 118.083 253.754 118.079 253.771 118.079C253.789 118.079 253.806 118.083 253.822 118.091H253.81ZM252.938 117.586L253.535 117.933C253.56 117.933 253.56 117.97 253.535 117.986L252.89 118.357C252.876 118.365 252.86 118.369 252.843 118.369C252.827 118.369 252.811 118.365 252.797 118.357L252.2 118.014C252.176 118.014 252.176 117.974 252.2 117.962L252.845 117.586C252.86 117.58 252.876 117.577 252.892 117.577C252.908 117.577 252.924 117.58 252.938 117.586ZM257.32 121.185L257.921 121.533C257.946 121.533 257.946 121.573 257.921 121.585L257.276 121.956C257.262 121.964 257.246 121.968 257.229 121.968C257.213 121.968 257.197 121.964 257.183 121.956L256.57 121.589C256.546 121.589 256.546 121.549 256.57 121.537L257.215 121.161C257.233 121.156 257.253 121.156 257.271 121.16C257.289 121.164 257.306 121.173 257.32 121.185ZM256.449 119.62L257.78 120.378C257.808 120.378 257.808 120.415 257.78 120.431L256.219 121.335C256.204 121.343 256.188 121.347 256.172 121.347C256.156 121.347 256.14 121.343 256.126 121.335L255.436 120.931C255.408 120.931 255.408 120.895 255.436 120.879L256.263 120.399C256.287 120.399 256.287 120.362 256.263 120.346L255.71 120.027C255.686 120.027 255.686 119.991 255.71 119.975L256.356 119.604C256.37 119.597 256.387 119.593 256.403 119.594C256.419 119.595 256.435 119.599 256.449 119.608V119.62ZM252.168 120.124L251.566 119.777C251.542 119.777 251.542 119.741 251.566 119.725L252.212 119.354C252.226 119.346 252.242 119.342 252.258 119.342C252.275 119.342 252.291 119.346 252.305 119.354L252.902 119.701C252.93 119.701 252.93 119.737 252.902 119.753L252.26 120.124C252.245 120.13 252.229 120.132 252.212 120.13C252.196 120.128 252.181 120.122 252.168 120.112V120.124ZM251.292 119.62L250.695 119.273C250.667 119.273 250.667 119.237 250.695 119.22L251.336 118.849C251.351 118.841 251.367 118.837 251.383 118.837C251.399 118.837 251.415 118.841 251.429 118.849L252.03 119.192C252.035 119.195 252.04 119.199 252.043 119.204C252.045 119.209 252.047 119.215 252.047 119.22C252.047 119.226 252.045 119.232 252.043 119.237C252.04 119.242 252.035 119.246 252.03 119.249L251.385 119.62C251.37 119.626 251.353 119.628 251.337 119.626C251.321 119.624 251.305 119.618 251.292 119.608V119.62ZM246.736 114.064C246.75 114.058 246.766 114.055 246.781 114.055C246.796 114.055 246.811 114.058 246.825 114.064L247.426 114.411C247.451 114.411 247.451 114.451 247.426 114.463L246.781 114.834C246.767 114.842 246.751 114.846 246.734 114.846C246.718 114.846 246.702 114.842 246.688 114.834L246.091 114.491C246.067 114.491 246.067 114.451 246.091 114.439L246.736 114.064ZM244.295 115.581L243.698 115.234C243.67 115.234 243.67 115.198 243.698 115.181L244.34 114.81C244.354 114.802 244.37 114.798 244.386 114.798C244.402 114.798 244.418 114.802 244.432 114.81L245.034 115.153C245.039 115.156 245.043 115.16 245.046 115.165C245.049 115.17 245.05 115.176 245.05 115.181C245.05 115.187 245.049 115.193 245.046 115.198C245.043 115.203 245.039 115.207 245.034 115.21L244.388 115.581C244.357 115.589 244.323 115.585 244.295 115.569V115.581ZM245.582 114.463C245.597 114.457 245.613 114.454 245.629 114.454C245.645 114.454 245.661 114.457 245.675 114.463L246.276 114.81C246.301 114.81 246.301 114.847 246.276 114.863L245.631 115.234C245.617 115.242 245.601 115.246 245.584 115.246C245.568 115.246 245.552 115.242 245.538 115.234L244.941 114.891C244.913 114.891 244.913 114.851 244.941 114.834L245.582 114.463ZM248.209 113.801L248.806 114.144C248.831 114.144 248.831 114.185 248.806 114.197L248.161 114.568C248.147 114.576 248.131 114.58 248.114 114.58C248.098 114.58 248.082 114.576 248.068 114.568L247.471 114.225C247.447 114.225 247.447 114.185 247.471 114.173L248.116 113.801C248.13 113.792 248.145 113.786 248.161 113.783C248.177 113.781 248.194 113.783 248.209 113.789V113.801ZM247.241 113.293C247.271 113.281 247.304 113.281 247.334 113.293L247.931 113.64C247.959 113.64 247.959 113.68 247.931 113.693L247.289 114.064C247.275 114.072 247.259 114.076 247.243 114.076C247.227 114.076 247.211 114.072 247.196 114.064L246.595 113.721C246.571 113.721 246.571 113.68 246.595 113.668L247.241 113.293ZM245.171 116.085L244.57 115.738C244.545 115.738 244.545 115.702 244.57 115.686L245.215 115.315C245.229 115.307 245.245 115.303 245.262 115.303C245.278 115.303 245.294 115.307 245.308 115.315L245.905 115.662C245.934 115.662 245.934 115.698 245.905 115.714L245.264 116.085C245.248 116.091 245.232 116.093 245.216 116.091C245.2 116.089 245.184 116.083 245.171 116.073V116.085ZM249.545 118.611L248.944 118.264C248.919 118.264 248.919 118.224 248.944 118.212L249.589 117.84C249.603 117.833 249.619 117.829 249.636 117.829C249.652 117.829 249.668 117.833 249.682 117.84L250.279 118.183C250.303 118.183 250.303 118.224 250.279 118.236L249.634 118.611C249.619 118.615 249.603 118.616 249.588 118.614C249.573 118.612 249.558 118.607 249.545 118.599V118.611ZM246.046 116.594L245.445 116.247C245.421 116.247 245.421 116.21 245.445 116.194L246.091 115.823C246.105 115.815 246.121 115.811 246.137 115.811C246.153 115.811 246.169 115.815 246.184 115.823L246.781 116.17C246.805 116.17 246.805 116.206 246.781 116.222L246.135 116.594C246.12 116.599 246.104 116.601 246.089 116.598C246.073 116.595 246.058 116.588 246.046 116.578V116.594ZM250.416 119.12L249.819 118.773C249.795 118.773 249.795 118.736 249.819 118.72L250.465 118.349C250.478 118.341 250.494 118.337 250.509 118.337C250.525 118.337 250.54 118.341 250.554 118.349L251.155 118.692C251.16 118.695 251.164 118.699 251.167 118.704C251.17 118.709 251.171 118.714 251.171 118.72C251.171 118.726 251.17 118.732 251.167 118.737C251.164 118.741 251.16 118.746 251.155 118.748L250.509 119.12C250.493 119.123 250.477 119.124 250.461 119.121C250.445 119.118 250.43 119.112 250.416 119.103V119.12ZM248.669 118.107L248.068 117.764C248.044 117.764 248.044 117.723 248.068 117.711L248.714 117.336C248.743 117.324 248.777 117.324 248.806 117.336L249.404 117.683C249.432 117.683 249.432 117.723 249.404 117.736L248.762 118.107C248.746 118.112 248.73 118.114 248.714 118.111C248.697 118.108 248.682 118.101 248.669 118.091V118.107ZM247.794 117.602L247.196 117.259C247.168 117.259 247.168 117.219 247.196 117.207L247.838 116.832C247.853 116.826 247.868 116.823 247.884 116.823C247.9 116.823 247.916 116.826 247.931 116.832L248.532 117.179C248.556 117.179 248.556 117.215 248.532 117.231L247.886 117.602C247.871 117.608 247.854 117.609 247.838 117.606C247.822 117.604 247.806 117.597 247.794 117.586V117.602ZM246.918 117.098L246.321 116.755C246.316 116.752 246.312 116.748 246.309 116.743C246.306 116.738 246.304 116.733 246.304 116.727C246.304 116.721 246.306 116.715 246.309 116.71C246.312 116.705 246.316 116.701 246.321 116.699L246.966 116.327C246.981 116.321 246.997 116.318 247.013 116.318C247.029 116.318 247.045 116.321 247.059 116.327L247.656 116.674C247.681 116.674 247.681 116.711 247.656 116.727L247.011 117.098C246.995 117.103 246.979 117.105 246.962 117.102C246.946 117.099 246.931 117.092 246.918 117.082V117.098ZM251.199 116.594L251.796 116.941C251.825 116.941 251.825 116.977 251.796 116.993L251.155 117.364C251.141 117.372 251.125 117.376 251.108 117.376C251.092 117.376 251.076 117.372 251.062 117.364L250.465 117.017C250.437 117.017 250.437 116.981 250.465 116.965L251.106 116.594C251.119 116.583 251.134 116.576 251.151 116.574C251.167 116.571 251.184 116.572 251.199 116.578V116.594ZM259.071 124.099L258.474 123.752C258.446 123.752 258.446 123.715 258.474 123.699L259.116 123.328C259.13 123.32 259.146 123.316 259.162 123.316C259.178 123.316 259.194 123.32 259.209 123.328L259.806 123.675C259.834 123.675 259.834 123.711 259.806 123.728L259.164 124.099C259.15 124.107 259.134 124.111 259.118 124.111C259.102 124.111 259.086 124.107 259.071 124.099ZM258.01 123.485L257.413 123.142C257.389 123.142 257.389 123.102 257.413 123.09L258.059 122.715C258.073 122.709 258.089 122.706 258.105 122.706C258.121 122.706 258.137 122.709 258.151 122.715L258.749 123.062C258.773 123.062 258.773 123.102 258.749 123.114L258.103 123.485C258.089 123.493 258.073 123.497 258.057 123.497C258.04 123.497 258.024 123.493 258.01 123.485ZM259.947 124.603L259.346 124.256C259.322 124.256 259.322 124.22 259.346 124.204L259.991 123.832C260.006 123.825 260.022 123.821 260.038 123.821C260.054 123.821 260.07 123.825 260.084 123.832L260.681 124.179C260.706 124.179 260.706 124.216 260.681 124.232L260.036 124.603C260.022 124.611 260.007 124.615 259.991 124.615C259.976 124.615 259.96 124.611 259.947 124.603ZM255.295 120.007L255.896 120.35C255.92 120.35 255.92 120.391 255.896 120.403L255.25 120.778C255.236 120.784 255.22 120.787 255.204 120.787C255.188 120.787 255.172 120.784 255.157 120.778L254.56 120.431C254.536 120.431 254.536 120.391 254.56 120.378L255.206 120.007C255.219 119.999 255.235 119.995 255.25 119.995C255.266 119.995 255.281 119.999 255.295 120.007ZM260.911 125.107C260.897 125.115 260.881 125.119 260.865 125.119C260.849 125.119 260.833 125.115 260.819 125.107L260.221 124.765C260.216 124.762 260.212 124.758 260.209 124.753C260.206 124.748 260.205 124.742 260.205 124.736C260.205 124.731 260.206 124.725 260.209 124.72C260.212 124.715 260.216 124.711 260.221 124.708L260.867 124.337C260.882 124.331 260.897 124.328 260.913 124.328C260.929 124.328 260.945 124.331 260.96 124.337L261.557 124.684C261.581 124.684 261.581 124.72 261.557 124.736L260.911 125.107ZM252.075 117.082L252.672 117.429C252.7 117.429 252.7 117.465 252.672 117.481L252.03 117.853C252.016 117.86 252 117.864 251.984 117.864C251.968 117.864 251.952 117.86 251.938 117.853L251.336 117.51C251.331 117.507 251.327 117.503 251.324 117.498C251.321 117.493 251.32 117.487 251.32 117.481C251.32 117.476 251.321 117.47 251.324 117.465C251.327 117.46 251.331 117.456 251.336 117.453L251.982 117.082C252.012 117.07 252.045 117.07 252.075 117.082ZM262.8 123.276L263.397 123.619C263.402 123.621 263.406 123.625 263.409 123.63C263.412 123.635 263.414 123.641 263.414 123.647C263.414 123.653 263.412 123.658 263.409 123.663C263.406 123.668 263.402 123.672 263.397 123.675L262.751 124.046C262.737 124.052 262.722 124.055 262.707 124.055C262.692 124.055 262.677 124.052 262.663 124.046L262.061 123.699C262.037 123.699 262.037 123.663 262.061 123.647L262.707 123.276C262.721 123.268 262.737 123.264 262.753 123.264C262.77 123.264 262.785 123.268 262.8 123.276ZM261.004 123.3L261.601 123.647C261.63 123.647 261.63 123.683 261.601 123.699L260.96 124.071C260.946 124.078 260.93 124.082 260.913 124.082C260.897 124.082 260.881 124.078 260.867 124.071L260.266 123.728C260.242 123.728 260.242 123.687 260.266 123.675L260.911 123.3C260.927 123.293 260.943 123.29 260.96 123.29C260.976 123.29 260.993 123.293 261.008 123.3H261.004ZM261.815 124.575C261.801 124.583 261.785 124.587 261.769 124.587C261.753 124.587 261.737 124.583 261.722 124.575L261.125 124.232C261.101 124.232 261.101 124.192 261.125 124.179L261.771 123.804C261.786 123.798 261.801 123.795 261.817 123.795C261.833 123.795 261.849 123.798 261.864 123.804L262.461 124.151C262.485 124.151 262.485 124.192 262.461 124.204L261.815 124.575ZM262.001 124.684L263.566 123.78C263.581 123.772 263.597 123.768 263.613 123.768C263.629 123.768 263.645 123.772 263.659 123.78L264.256 124.123C264.261 124.126 264.266 124.13 264.269 124.135C264.271 124.14 264.273 124.145 264.273 124.151C264.273 124.157 264.271 124.163 264.269 124.168C264.266 124.173 264.261 124.177 264.256 124.179L262.691 125.083C262.676 125.089 262.66 125.093 262.644 125.093C262.628 125.093 262.613 125.089 262.598 125.083L262.001 124.736C261.993 124.72 261.993 124.696 262.017 124.684H262.001ZM259.983 123.566L259.386 123.223C259.358 123.223 259.358 123.183 259.386 123.167L260.028 122.795C260.042 122.789 260.058 122.786 260.074 122.786C260.09 122.786 260.106 122.789 260.12 122.795L260.722 123.142C260.746 123.142 260.746 123.179 260.722 123.195L260.076 123.566C260.063 123.573 260.048 123.576 260.034 123.576C260.019 123.576 260.005 123.573 259.991 123.566H259.983ZM253.402 119.765L252.801 119.422C252.777 119.422 252.777 119.382 252.801 119.37L253.447 118.994C253.476 118.983 253.51 118.983 253.539 118.994L254.137 119.342C254.165 119.342 254.165 119.382 254.137 119.394L253.495 119.765C253.482 119.772 253.467 119.775 253.453 119.775C253.438 119.775 253.424 119.772 253.41 119.765H253.402ZM261.815 122.771C261.829 122.763 261.845 122.759 261.862 122.759C261.878 122.759 261.894 122.763 261.908 122.771L262.505 123.114C262.533 123.114 262.533 123.155 262.505 123.167L261.864 123.542C261.849 123.548 261.833 123.551 261.817 123.551C261.801 123.551 261.786 123.548 261.771 123.542L261.174 123.195C261.145 123.195 261.145 123.155 261.174 123.142L261.815 122.771ZM254.266 120.274L253.669 119.927C253.644 119.927 253.644 119.886 253.669 119.874L254.314 119.503C254.328 119.495 254.344 119.491 254.361 119.491C254.377 119.491 254.393 119.495 254.407 119.503L255.004 119.846C255.028 119.846 255.028 119.886 255.004 119.898L254.359 120.274C254.334 120.282 254.307 120.282 254.282 120.274H254.266ZM247.592 114.556C247.607 114.55 247.622 114.547 247.638 114.547C247.654 114.547 247.67 114.55 247.685 114.556L248.282 114.903C248.31 114.903 248.31 114.943 248.282 114.955L247.64 115.327C247.626 115.334 247.61 115.339 247.594 115.339C247.578 115.339 247.562 115.334 247.547 115.327L246.95 114.984C246.922 114.984 246.922 114.943 246.95 114.931L247.592 114.556ZM246.381 115.726L245.78 115.383C245.775 115.38 245.771 115.376 245.768 115.371C245.765 115.366 245.764 115.361 245.764 115.355C245.764 115.349 245.765 115.344 245.768 115.339C245.771 115.334 245.775 115.329 245.78 115.327L246.426 114.955C246.44 114.949 246.456 114.946 246.472 114.946C246.488 114.946 246.504 114.949 246.519 114.955L247.116 115.302C247.144 115.302 247.144 115.339 247.116 115.355L246.474 115.726C246.455 115.733 246.433 115.733 246.414 115.726H246.381ZM248.544 115.064L249.141 115.407C249.17 115.407 249.17 115.448 249.141 115.46L248.5 115.835C248.485 115.841 248.469 115.844 248.453 115.844C248.437 115.844 248.422 115.841 248.407 115.835L247.806 115.488C247.782 115.488 247.782 115.448 247.806 115.436L248.451 115.064C248.469 115.05 248.491 115.042 248.514 115.042C248.537 115.042 248.559 115.05 248.576 115.064H248.544ZM249.42 115.569L250.017 115.912C250.022 115.915 250.026 115.919 250.029 115.924C250.032 115.929 250.034 115.934 250.034 115.94C250.034 115.946 250.032 115.951 250.029 115.956C250.026 115.961 250.022 115.965 250.017 115.968L249.371 116.339C249.357 116.346 249.341 116.349 249.325 116.349C249.309 116.349 249.293 116.346 249.278 116.339L248.681 115.992C248.657 115.992 248.657 115.956 248.681 115.94L249.327 115.569C249.344 115.554 249.367 115.546 249.389 115.546C249.412 115.546 249.435 115.554 249.452 115.569H249.42ZM250.291 116.073L250.892 116.42C250.917 116.42 250.917 116.456 250.892 116.473L250.247 116.844C250.233 116.852 250.217 116.856 250.2 116.856C250.184 116.856 250.168 116.852 250.154 116.844L249.557 116.497C249.533 116.497 249.533 116.461 249.557 116.444L250.203 116.073C250.219 116.058 250.241 116.049 250.263 116.049C250.285 116.049 250.307 116.058 250.324 116.073H250.291ZM247.257 116.231L246.656 115.888C246.632 115.888 246.632 115.847 246.656 115.835L247.301 115.46C247.316 115.454 247.332 115.451 247.348 115.451C247.364 115.451 247.379 115.454 247.394 115.46L247.991 115.807C248.016 115.807 248.016 115.847 247.991 115.859L247.346 116.231C247.327 116.237 247.308 116.237 247.289 116.231H247.257ZM248.161 116.747L247.564 116.4C247.539 116.4 247.539 116.36 247.564 116.348L248.209 115.976C248.223 115.969 248.239 115.964 248.256 115.964C248.272 115.964 248.288 115.969 248.302 115.976L248.899 116.319C248.923 116.319 248.923 116.36 248.899 116.372L248.254 116.747C248.239 116.753 248.223 116.756 248.207 116.756C248.191 116.756 248.176 116.753 248.161 116.747ZM251.659 118.765L251.062 118.417C251.038 118.417 251.038 118.381 251.062 118.365L251.708 117.994C251.721 117.986 251.736 117.982 251.752 117.982C251.768 117.982 251.783 117.986 251.796 117.994L252.398 118.341C252.422 118.341 252.422 118.377 252.398 118.393L251.752 118.765C251.738 118.772 251.722 118.776 251.706 118.776C251.689 118.776 251.673 118.772 251.659 118.765ZM250.788 118.26L250.186 117.913C250.162 117.913 250.162 117.877 250.186 117.861L250.832 117.489C250.846 117.482 250.862 117.478 250.878 117.478C250.895 117.478 250.911 117.482 250.925 117.489L251.522 117.836C251.546 117.836 251.546 117.873 251.522 117.889L250.876 118.26C250.862 118.267 250.846 118.269 250.831 118.268C250.815 118.267 250.8 118.261 250.788 118.252V118.26ZM252.535 119.269L251.938 118.926C251.909 118.926 251.909 118.886 251.938 118.869L252.579 118.498C252.594 118.492 252.61 118.489 252.626 118.489C252.641 118.489 252.657 118.492 252.672 118.498L253.273 118.845C253.297 118.845 253.297 118.882 253.273 118.898L252.628 119.269C252.613 119.275 252.596 119.278 252.58 119.277C252.564 119.275 252.548 119.27 252.535 119.261V119.269ZM249.036 117.251L248.439 116.904C248.411 116.904 248.411 116.868 248.439 116.852L249.081 116.481C249.095 116.473 249.111 116.469 249.127 116.469C249.143 116.469 249.159 116.473 249.174 116.481L249.775 116.824C249.78 116.826 249.784 116.831 249.787 116.836C249.79 116.84 249.791 116.846 249.791 116.852C249.791 116.858 249.79 116.863 249.787 116.868C249.784 116.873 249.78 116.877 249.775 116.88L249.129 117.251C249.098 117.261 249.065 117.258 249.036 117.243V117.251ZM249.912 117.756L249.311 117.409C249.287 117.409 249.287 117.372 249.311 117.356L249.956 116.985C249.971 116.977 249.987 116.973 250.003 116.973C250.019 116.973 250.035 116.977 250.049 116.985L250.646 117.328C250.675 117.328 250.675 117.368 250.646 117.385L250.005 117.756C249.99 117.761 249.974 117.762 249.958 117.761C249.942 117.76 249.926 117.755 249.912 117.748V117.756ZM249.081 114.302L249.682 114.645C249.706 114.645 249.706 114.685 249.682 114.697L249.036 115.072C249.022 115.079 249.006 115.082 248.99 115.082C248.974 115.082 248.958 115.079 248.944 115.072L248.346 114.725C248.322 114.725 248.322 114.685 248.346 114.673L248.992 114.302C249.005 114.293 249.02 114.287 249.035 114.286C249.051 114.284 249.067 114.287 249.081 114.294V114.302ZM244.158 114.705L243.513 115.081C243.498 115.087 243.482 115.09 243.466 115.09C243.45 115.09 243.434 115.087 243.42 115.081L242.823 114.734C242.798 114.734 242.798 114.693 242.823 114.681L243.468 114.31C243.482 114.302 243.498 114.298 243.515 114.298C243.531 114.298 243.547 114.302 243.561 114.31L244.158 114.653C244.182 114.653 244.182 114.677 244.158 114.689V114.705ZM245.401 114.362L244.755 114.734C244.741 114.741 244.725 114.745 244.709 114.745C244.693 114.745 244.677 114.741 244.662 114.734L243.743 114.201C243.718 114.201 243.718 114.165 243.743 114.148L244.388 113.777C244.402 113.769 244.418 113.765 244.434 113.765C244.451 113.765 244.467 113.769 244.481 113.777L245.401 114.31C245.425 114.326 245.425 114.326 245.401 114.346V114.362ZM243.178 115.432L242.532 115.803C242.519 115.811 242.503 115.815 242.488 115.815C242.472 115.815 242.457 115.811 242.443 115.803L241.705 115.379C241.681 115.379 241.681 115.339 241.705 115.327L242.35 114.955C242.365 114.948 242.381 114.944 242.397 114.944C242.413 114.944 242.429 114.948 242.443 114.955L243.178 115.359C243.202 115.379 243.202 115.399 243.178 115.415V115.432ZM243.743 115.758C243.757 115.751 243.773 115.747 243.789 115.747C243.805 115.747 243.821 115.751 243.835 115.758L244.432 116.101C244.461 116.101 244.461 116.142 244.432 116.158L243.791 116.529C243.776 116.535 243.76 116.538 243.745 116.538C243.729 116.538 243.713 116.535 243.698 116.529L243.097 116.182C243.073 116.182 243.073 116.146 243.097 116.13L243.743 115.758ZM246.567 113.963L245.921 114.334C245.907 114.342 245.891 114.346 245.875 114.346C245.859 114.346 245.843 114.342 245.829 114.334L244.679 113.672C244.674 113.67 244.669 113.665 244.666 113.661C244.664 113.656 244.662 113.65 244.662 113.644C244.662 113.638 244.664 113.633 244.666 113.628C244.669 113.623 244.674 113.619 244.679 113.616L245.324 113.245C245.354 113.233 245.387 113.233 245.417 113.245L246.567 113.91C246.575 113.923 246.575 113.923 246.551 113.947L246.567 113.963ZM247.071 113.192L246.43 113.563C246.416 113.571 246.4 113.575 246.383 113.575C246.367 113.575 246.351 113.571 246.337 113.563L245.599 113.16C245.574 113.16 245.574 113.12 245.599 113.107L246.244 112.732C246.274 112.72 246.307 112.72 246.337 112.732L247.055 113.116C247.083 113.136 247.083 113.16 247.055 113.176L247.071 113.192ZM250.263 119.511C250.277 119.505 250.292 119.502 250.307 119.502C250.323 119.502 250.338 119.505 250.352 119.511L250.953 119.858C250.977 119.858 250.977 119.894 250.953 119.91L250.307 120.282C250.293 120.289 250.277 120.293 250.261 120.293C250.245 120.293 250.229 120.289 250.215 120.282L249.617 119.939C249.612 119.936 249.608 119.932 249.605 119.927C249.602 119.922 249.601 119.916 249.601 119.91C249.601 119.905 249.602 119.899 249.605 119.894C249.608 119.889 249.612 119.885 249.617 119.882L250.263 119.511ZM248.512 118.502C248.526 118.494 248.542 118.49 248.558 118.49C248.574 118.49 248.59 118.494 248.605 118.502L249.202 118.849C249.23 118.849 249.23 118.886 249.202 118.902L248.56 119.273C248.546 119.281 248.53 119.285 248.514 119.285C248.498 119.285 248.482 119.281 248.467 119.273L247.866 118.926C247.842 118.926 247.842 118.89 247.866 118.873L248.512 118.502ZM244.634 116.263C244.648 116.255 244.664 116.251 244.681 116.251C244.697 116.251 244.713 116.255 244.727 116.263L245.324 116.61C245.348 116.61 245.348 116.646 245.324 116.662L244.679 117.033C244.664 117.041 244.648 117.045 244.632 117.045C244.616 117.045 244.6 117.041 244.586 117.033L243.989 116.686C243.964 116.686 243.964 116.65 243.989 116.634L244.634 116.263ZM249.387 119.007C249.402 118.999 249.418 118.995 249.434 118.995C249.45 118.995 249.466 118.999 249.48 119.007L250.077 119.354C250.102 119.354 250.102 119.39 250.077 119.406L249.432 119.777C249.418 119.785 249.402 119.789 249.385 119.789C249.369 119.789 249.353 119.785 249.339 119.777L248.742 119.43C248.718 119.43 248.718 119.394 248.742 119.378L249.387 119.007ZM247.636 117.998C247.65 117.99 247.666 117.986 247.683 117.986C247.699 117.986 247.715 117.99 247.729 117.998L248.326 118.341C248.354 118.341 248.354 118.381 248.326 118.397L247.685 118.769C247.67 118.775 247.654 118.778 247.638 118.778C247.622 118.778 247.607 118.775 247.592 118.769L246.995 118.422C246.966 118.422 246.966 118.385 246.995 118.369L247.636 117.998ZM247.535 113.156C247.521 113.162 247.505 113.165 247.489 113.165C247.473 113.165 247.457 113.162 247.443 113.156L246.523 112.623C246.494 112.623 246.494 112.587 246.523 112.571L247.164 112.2C247.178 112.192 247.194 112.188 247.211 112.188C247.227 112.188 247.243 112.192 247.257 112.2L248.161 112.712C248.189 112.712 248.189 112.752 248.161 112.769L247.535 113.156ZM246.381 117.288C246.396 117.282 246.412 117.278 246.428 117.278C246.444 117.278 246.459 117.282 246.474 117.288L247.071 117.635C247.1 117.635 247.1 117.671 247.071 117.687L246.43 118.058C246.416 118.066 246.4 118.07 246.383 118.07C246.367 118.07 246.351 118.066 246.337 118.058L245.74 117.715C245.712 117.715 245.712 117.675 245.74 117.659L246.381 117.288ZM245.51 116.783C245.523 116.776 245.539 116.771 245.554 116.771C245.57 116.771 245.585 116.776 245.599 116.783L246.2 117.13C246.224 117.13 246.224 117.167 246.2 117.183L245.554 117.554C245.54 117.562 245.524 117.566 245.508 117.566C245.492 117.566 245.476 117.562 245.461 117.554L244.864 117.207C244.84 117.207 244.84 117.171 244.864 117.155L245.51 116.783ZM263.72 122.477C263.705 122.484 263.69 122.489 263.673 122.489C263.657 122.489 263.641 122.484 263.627 122.477L262.154 121.625C262.13 121.625 262.13 121.589 262.154 121.573L262.8 121.202C262.814 121.194 262.83 121.19 262.846 121.19C262.862 121.19 262.878 121.194 262.893 121.202L264.365 122.053C264.39 122.053 264.39 122.089 264.365 122.105L263.72 122.477ZM261.787 121.363C261.757 121.375 261.724 121.375 261.694 121.363L261.097 121.016C261.069 121.016 261.069 120.976 261.097 120.964L261.739 120.592C261.753 120.585 261.769 120.581 261.785 120.581C261.801 120.581 261.817 120.585 261.831 120.592L262.433 120.935C262.457 120.935 262.457 120.976 262.433 120.988L261.787 121.363ZM249.956 114.798L250.554 115.141C250.582 115.141 250.582 115.181 250.554 115.198L249.912 115.569C249.897 115.575 249.882 115.578 249.866 115.578C249.85 115.578 249.834 115.575 249.819 115.569L249.222 115.222C249.194 115.222 249.194 115.185 249.222 115.169L249.864 114.798C249.878 114.79 249.894 114.786 249.91 114.786C249.926 114.786 249.942 114.79 249.956 114.798ZM260.044 120.35C260.03 120.358 260.015 120.362 259.999 120.362C259.984 120.362 259.969 120.358 259.955 120.35L259.354 120.007C259.349 120.004 259.345 120 259.342 119.995C259.339 119.99 259.337 119.985 259.337 119.979C259.337 119.973 259.339 119.968 259.342 119.963C259.345 119.958 259.349 119.954 259.354 119.951L259.999 119.58C260.029 119.568 260.062 119.568 260.092 119.58L260.689 119.927C260.714 119.927 260.714 119.963 260.689 119.979L260.044 120.35ZM264.603 122.981C264.589 122.989 264.573 122.993 264.557 122.993C264.541 122.993 264.525 122.989 264.511 122.981L263.913 122.638C263.885 122.638 263.885 122.598 263.913 122.586L264.555 122.21C264.57 122.204 264.585 122.201 264.601 122.201C264.617 122.201 264.633 122.204 264.648 122.21L265.245 122.557C265.273 122.557 265.273 122.594 265.245 122.61L264.603 122.981ZM266.121 123.114L264.555 124.018C264.541 124.026 264.526 124.03 264.511 124.03C264.495 124.03 264.48 124.026 264.466 124.018L263.865 123.675C263.86 123.672 263.856 123.668 263.853 123.663C263.85 123.658 263.848 123.653 263.848 123.647C263.848 123.641 263.85 123.635 263.853 123.63C263.856 123.625 263.86 123.621 263.865 123.619L265.431 122.715C265.46 122.703 265.494 122.703 265.523 122.715L266.121 123.062C266.141 123.078 266.141 123.102 266.112 123.114H266.121ZM256.776 118.466C256.761 118.472 256.746 118.475 256.731 118.475C256.716 118.475 256.701 118.472 256.687 118.466L255.948 118.038C255.924 118.038 255.924 118.002 255.948 117.986L256.594 117.615C256.608 117.607 256.624 117.603 256.64 117.603C256.657 117.603 256.672 117.607 256.687 117.615L257.421 118.018C257.445 118.018 257.445 118.058 257.421 118.07L256.776 118.466ZM258.991 119.741C258.976 119.747 258.96 119.75 258.944 119.75C258.928 119.75 258.913 119.747 258.898 119.741L257.978 119.208C257.954 119.208 257.954 119.172 257.978 119.156L258.624 118.785C258.638 118.777 258.654 118.773 258.67 118.773C258.686 118.773 258.702 118.777 258.716 118.785L259.636 119.313C259.641 119.316 259.646 119.32 259.648 119.325C259.651 119.33 259.653 119.336 259.653 119.342C259.653 119.347 259.651 119.353 259.648 119.358C259.646 119.363 259.641 119.367 259.636 119.37L258.991 119.741ZM254.758 117.296C254.744 117.304 254.728 117.308 254.712 117.308C254.695 117.308 254.679 117.304 254.665 117.296L249.71 114.451C249.686 114.451 249.686 114.415 249.71 114.399L250.356 114.027C250.37 114.02 250.386 114.016 250.402 114.016C250.418 114.016 250.434 114.02 250.449 114.027L255.371 116.872C255.4 116.872 255.4 116.908 255.371 116.925L254.758 117.296ZM249.553 114.294C249.539 114.3 249.524 114.303 249.508 114.303C249.493 114.303 249.478 114.3 249.464 114.294L248.726 113.866C248.701 113.866 248.701 113.83 248.726 113.814L249.371 113.442C249.386 113.435 249.401 113.431 249.418 113.431C249.434 113.431 249.45 113.435 249.464 113.442L250.198 113.866C250.227 113.866 250.227 113.906 250.198 113.918L249.553 114.294ZM255.763 117.881C255.748 117.887 255.732 117.89 255.716 117.89C255.7 117.89 255.685 117.887 255.67 117.881L254.932 117.453C254.907 117.453 254.907 117.417 254.932 117.401L255.577 117.029C255.591 117.022 255.607 117.018 255.624 117.018C255.64 117.018 255.656 117.022 255.67 117.029L256.404 117.453C256.433 117.453 256.433 117.493 256.404 117.51L255.763 117.881ZM248.536 113.709C248.521 113.715 248.506 113.718 248.49 113.718C248.474 113.718 248.458 113.715 248.443 113.709L247.705 113.281C247.681 113.281 247.681 113.245 247.705 113.229L248.35 112.857C248.365 112.85 248.381 112.845 248.397 112.845C248.413 112.845 248.429 112.85 248.443 112.857L249.178 113.261C249.206 113.261 249.206 113.301 249.178 113.317L248.536 113.709ZM257.78 119.051C257.766 119.057 257.751 119.06 257.736 119.06C257.721 119.06 257.705 119.057 257.691 119.051L256.953 118.623C256.929 118.623 256.929 118.587 256.953 118.571L257.599 118.2C257.613 118.192 257.629 118.188 257.645 118.188C257.661 118.188 257.677 118.192 257.691 118.2L258.426 118.623C258.45 118.623 258.45 118.664 258.426 118.676L257.78 119.051ZM260.911 120.855C260.897 120.862 260.881 120.866 260.865 120.866C260.849 120.866 260.833 120.862 260.819 120.855L260.221 120.512C260.197 120.512 260.197 120.471 260.221 120.459L260.867 120.084C260.882 120.078 260.897 120.075 260.913 120.075C260.929 120.075 260.945 120.078 260.96 120.084L261.557 120.431C261.581 120.431 261.581 120.471 261.557 120.483L260.911 120.855ZM262.844 122.239L263.445 122.586C263.47 122.586 263.47 122.622 263.445 122.638L262.8 123.009C262.785 123.017 262.77 123.021 262.753 123.021C262.737 123.021 262.721 123.017 262.707 123.009L262.11 122.662C262.082 122.662 262.082 122.626 262.11 122.61L262.751 122.239C262.766 122.231 262.781 122.227 262.798 122.227C262.814 122.227 262.83 122.231 262.844 122.239ZM259.071 122.186L259.669 122.529C259.674 122.532 259.678 122.536 259.681 122.541C259.684 122.546 259.685 122.552 259.685 122.557C259.685 122.563 259.684 122.569 259.681 122.574C259.678 122.579 259.674 122.583 259.669 122.586L259.023 122.957C259.009 122.963 258.994 122.966 258.979 122.966C258.963 122.966 258.948 122.963 258.934 122.957L258.333 122.61C258.309 122.61 258.309 122.574 258.333 122.557L258.979 122.186C258.993 122.178 259.009 122.174 259.025 122.174C259.041 122.174 259.057 122.178 259.071 122.186ZM256.953 118.837L258.704 119.846C258.728 119.846 258.728 119.886 258.704 119.898L258.059 120.274C258.029 120.285 257.996 120.285 257.966 120.274L256.219 119.261C256.19 119.261 256.19 119.224 256.219 119.208L256.86 118.837C256.874 118.829 256.89 118.825 256.907 118.825C256.923 118.825 256.939 118.829 256.953 118.837ZM261.88 121.734C261.894 121.726 261.91 121.722 261.926 121.722C261.942 121.722 261.958 121.726 261.973 121.734L262.57 122.077C262.575 122.08 262.579 122.084 262.582 122.089C262.585 122.094 262.586 122.1 262.586 122.105C262.586 122.111 262.585 122.117 262.582 122.122C262.579 122.127 262.575 122.131 262.57 122.134L261.924 122.505C261.909 122.511 261.894 122.514 261.878 122.514C261.862 122.514 261.846 122.511 261.831 122.505L261.234 122.158C261.21 122.158 261.21 122.122 261.234 122.105L261.88 121.734ZM261.049 122.263L261.65 122.61C261.674 122.61 261.674 122.65 261.65 122.662L261.004 123.034C260.99 123.041 260.974 123.045 260.958 123.045C260.942 123.045 260.926 123.041 260.911 123.034L260.314 122.691C260.29 122.691 260.29 122.65 260.314 122.638L260.96 122.263C260.974 122.257 260.989 122.254 261.004 122.254C261.019 122.254 261.035 122.257 261.049 122.263ZM256.077 118.333L256.679 118.676C256.684 118.679 256.688 118.683 256.691 118.688C256.694 118.693 256.695 118.698 256.695 118.704C256.695 118.71 256.694 118.715 256.691 118.72C256.688 118.725 256.684 118.729 256.679 118.732L256.033 119.103C256.003 119.115 255.97 119.115 255.94 119.103L255.359 118.765C255.335 118.765 255.335 118.728 255.359 118.712L256.005 118.341C256.016 118.334 256.028 118.33 256.04 118.329C256.053 118.328 256.065 118.329 256.077 118.333ZM259.947 120.617C259.961 120.611 259.976 120.607 259.991 120.607C260.007 120.607 260.022 120.611 260.036 120.617L260.637 120.964C260.661 120.964 260.661 121 260.637 121.016L259.991 121.387C259.977 121.395 259.961 121.399 259.945 121.399C259.929 121.399 259.913 121.395 259.899 121.387L259.301 121.044C259.296 121.041 259.292 121.037 259.289 121.032C259.286 121.027 259.285 121.022 259.285 121.016C259.285 121.01 259.286 121.005 259.289 121C259.292 120.995 259.296 120.991 259.301 120.988L259.947 120.617ZM251.708 115.807L252.305 116.154C252.329 116.154 252.329 116.19 252.305 116.206L251.659 116.578C251.645 116.585 251.629 116.589 251.613 116.589C251.597 116.589 251.581 116.585 251.566 116.578L250.969 116.231C250.945 116.231 250.945 116.194 250.969 116.178L251.615 115.807C251.629 115.799 251.645 115.795 251.661 115.795C251.677 115.795 251.693 115.799 251.708 115.807ZM252.579 116.311L253.18 116.658C253.205 116.658 253.205 116.695 253.18 116.711L252.535 117.082C252.52 117.09 252.505 117.094 252.488 117.094C252.472 117.094 252.456 117.09 252.442 117.082L251.845 116.739C251.84 116.736 251.836 116.732 251.833 116.727C251.83 116.722 251.828 116.716 251.828 116.711C251.828 116.705 251.83 116.699 251.833 116.694C251.836 116.689 251.84 116.685 251.845 116.682L252.49 116.311C252.504 116.305 252.519 116.302 252.535 116.302C252.55 116.302 252.565 116.305 252.579 116.311ZM250.832 115.302L251.429 115.649C251.457 115.649 251.457 115.686 251.429 115.702L250.788 116.073C250.773 116.081 250.757 116.085 250.741 116.085C250.725 116.085 250.709 116.081 250.695 116.073L250.094 115.726C250.069 115.726 250.069 115.69 250.094 115.674L250.739 115.302C250.753 115.295 250.769 115.291 250.786 115.291C250.802 115.291 250.818 115.295 250.832 115.302ZM254.33 117.32L254.927 117.667C254.952 117.667 254.952 117.707 254.927 117.719L254.282 118.091C254.268 118.098 254.253 118.103 254.237 118.103C254.222 118.103 254.207 118.098 254.193 118.091L253.592 117.748C253.568 117.748 253.568 117.707 253.592 117.695L254.237 117.32C254.267 117.308 254.301 117.308 254.33 117.32ZM253.455 116.816L254.052 117.163C254.08 117.163 254.08 117.199 254.052 117.215L253.41 117.586C253.396 117.594 253.38 117.598 253.364 117.598C253.348 117.598 253.332 117.594 253.318 117.586L252.72 117.243C252.692 117.243 252.692 117.203 252.72 117.191L253.362 116.816C253.377 116.81 253.392 116.806 253.408 116.806C253.424 116.806 253.44 116.81 253.455 116.816ZM255.206 117.828L255.803 118.171C255.827 118.171 255.827 118.212 255.803 118.224L255.157 118.599C255.143 118.605 255.127 118.608 255.111 118.608C255.095 118.608 255.079 118.605 255.065 118.599L254.467 118.252C254.443 118.252 254.443 118.212 254.467 118.2L255.113 117.828C255.127 117.821 255.143 117.817 255.159 117.817C255.176 117.817 255.192 117.821 255.206 117.828ZM255.206 122.352C255.219 122.344 255.235 122.34 255.25 122.34C255.266 122.34 255.281 122.344 255.295 122.352L255.896 122.699C255.92 122.699 255.92 122.735 255.896 122.751L255.25 123.122C255.236 123.13 255.22 123.134 255.204 123.134C255.188 123.134 255.172 123.13 255.157 123.122L254.56 122.775C254.536 122.775 254.536 122.739 254.56 122.723L255.206 122.352ZM256.953 123.36C256.983 123.348 257.016 123.348 257.046 123.36L257.643 123.707C257.667 123.707 257.667 123.744 257.643 123.76L256.997 124.131C256.984 124.139 256.969 124.143 256.953 124.143C256.937 124.143 256.922 124.139 256.909 124.131L256.307 123.788C256.283 123.788 256.283 123.748 256.307 123.736L256.953 123.36ZM254.129 121.746C254.143 121.74 254.159 121.737 254.175 121.737C254.191 121.737 254.207 121.74 254.221 121.746L254.819 122.093C254.843 122.093 254.843 122.13 254.819 122.146L254.173 122.517C254.159 122.525 254.143 122.529 254.127 122.529C254.11 122.529 254.094 122.525 254.08 122.517L253.483 122.174C253.478 122.171 253.474 122.167 253.471 122.162C253.468 122.157 253.466 122.152 253.466 122.146C253.466 122.14 253.468 122.134 253.471 122.129C253.474 122.124 253.478 122.12 253.483 122.118L254.129 121.746ZM256.069 122.868C256.084 122.862 256.1 122.859 256.116 122.859C256.132 122.859 256.147 122.862 256.162 122.868L256.759 123.215C256.788 123.215 256.788 123.251 256.759 123.268L256.118 123.639C256.104 123.647 256.088 123.651 256.071 123.651C256.055 123.651 256.039 123.647 256.025 123.639L255.428 123.296C255.4 123.296 255.4 123.255 255.428 123.239L256.069 122.868ZM252.377 120.738C252.392 120.73 252.408 120.726 252.424 120.726C252.44 120.726 252.456 120.73 252.47 120.738L253.067 121.085C253.096 121.085 253.096 121.121 253.067 121.137L252.426 121.508C252.412 121.516 252.396 121.52 252.379 121.52C252.363 121.52 252.347 121.516 252.333 121.508L251.736 121.161C251.708 121.161 251.708 121.125 251.736 121.109L252.377 120.738ZM253.253 121.242C253.267 121.234 253.283 121.23 253.299 121.23C253.316 121.23 253.332 121.234 253.346 121.242L253.943 121.589C253.971 121.589 253.971 121.625 253.943 121.641L253.301 122.013C253.287 122.02 253.271 122.025 253.255 122.025C253.239 122.025 253.223 122.02 253.209 122.013L252.607 121.666C252.583 121.666 252.583 121.629 252.607 121.613L253.253 121.242ZM261.726 124.853C261.741 124.847 261.757 124.844 261.773 124.844C261.789 124.844 261.805 124.847 261.819 124.853L262.42 125.2C262.445 125.2 262.445 125.237 262.42 125.253L261.775 125.624C261.761 125.632 261.745 125.636 261.728 125.636C261.712 125.636 261.696 125.632 261.682 125.624L261.085 125.281C261.057 125.281 261.057 125.241 261.085 125.229L261.726 124.853ZM263.708 122.755L264.305 123.102C264.333 123.102 264.333 123.138 264.305 123.155L263.663 123.526C263.649 123.534 263.633 123.538 263.617 123.538C263.601 123.538 263.585 123.534 263.57 123.526L262.969 123.179C262.945 123.179 262.945 123.142 262.969 123.126L263.615 122.755C263.629 122.743 263.647 122.736 263.665 122.733C263.684 122.731 263.703 122.735 263.72 122.743L263.708 122.755ZM251.49 120.233C251.503 120.225 251.518 120.221 251.534 120.221C251.55 120.221 251.565 120.225 251.578 120.233L252.18 120.576C252.185 120.579 252.189 120.583 252.192 120.588C252.195 120.593 252.196 120.599 252.196 120.604C252.196 120.61 252.195 120.616 252.192 120.621C252.189 120.626 252.185 120.63 252.18 120.633L251.534 121.004C251.519 121.01 251.504 121.013 251.488 121.013C251.472 121.013 251.456 121.01 251.441 121.004L250.844 120.657C250.82 120.657 250.82 120.621 250.844 120.604L251.49 120.233Z" fill="#E0E0E0"/>
<path d="M260.386 125.624C260.4 125.616 260.416 125.612 260.432 125.612C260.448 125.612 260.464 125.616 260.478 125.624L261.076 125.971C261.1 125.971 261.1 126.007 261.076 126.023L260.906 126.12C260.892 126.128 260.876 126.132 260.86 126.132C260.844 126.132 260.828 126.128 260.813 126.12L260.212 125.777C260.188 125.777 260.188 125.737 260.212 125.725L260.386 125.624Z" fill="#E0E0E0"/>
<path d="M259.511 125.12C259.526 125.112 259.542 125.108 259.558 125.108C259.574 125.108 259.59 125.112 259.604 125.12L260.201 125.467C260.23 125.467 260.23 125.503 260.201 125.519L260.032 125.616C260.018 125.624 260.002 125.628 259.986 125.628C259.969 125.628 259.953 125.624 259.939 125.616L259.342 125.273C259.314 125.273 259.314 125.233 259.342 125.216L259.511 125.12Z" fill="#E0E0E0"/>
<path d="M258.639 124.615C258.653 124.607 258.668 124.603 258.683 124.603C258.699 124.603 258.714 124.607 258.728 124.615L259.329 124.958C259.334 124.961 259.338 124.965 259.341 124.97C259.344 124.975 259.346 124.981 259.346 124.986C259.346 124.992 259.344 124.998 259.341 125.003C259.338 125.008 259.334 125.012 259.329 125.015L259.156 125.111C259.141 125.119 259.125 125.123 259.109 125.123C259.093 125.123 259.077 125.119 259.063 125.111L258.466 124.764C258.441 124.764 258.441 124.728 258.466 124.712L258.639 124.615Z" fill="#E0E0E0"/>
<path d="M257.78 124.111C257.794 124.103 257.81 124.099 257.827 124.099C257.843 124.099 257.859 124.103 257.873 124.111L258.47 124.454C258.494 124.454 258.494 124.494 258.47 124.506L258.297 124.607C258.283 124.615 258.268 124.619 258.252 124.619C258.237 124.619 258.221 124.615 258.208 124.607L257.607 124.26C257.582 124.26 257.582 124.224 257.607 124.208L257.78 124.111Z" fill="#E0E0E0"/>
<path d="M291.323 136.079L270.692 124.183C270.584 124.128 270.464 124.099 270.343 124.099C270.222 124.099 270.102 124.128 269.994 124.183L257.582 131.35C257.48 131.416 257.395 131.505 257.334 131.61C257.273 131.715 257.238 131.833 257.231 131.955V132.08C257.237 132.201 257.272 132.32 257.333 132.425C257.394 132.53 257.48 132.62 257.582 132.685L278.209 144.588C278.317 144.644 278.437 144.673 278.558 144.673C278.68 144.673 278.799 144.644 278.907 144.588L291.323 137.422C291.425 137.356 291.509 137.267 291.57 137.162C291.63 137.056 291.664 136.938 291.67 136.817V136.676C291.663 136.556 291.627 136.44 291.567 136.336C291.507 136.232 291.423 136.144 291.323 136.079Z" fill="#37474F"/>
<path d="M291.674 136.684V136.825C291.668 136.946 291.633 137.064 291.573 137.169C291.512 137.274 291.428 137.364 291.327 137.43L278.907 144.588C278.801 144.647 278.681 144.676 278.56 144.673V135.598H290.488L291.323 136.079C291.425 136.145 291.51 136.234 291.571 136.339C291.632 136.444 291.667 136.562 291.674 136.684Z" fill="#263238"/>
<path d="M291.322 136.079L270.691 124.183C270.583 124.128 270.464 124.099 270.342 124.099C270.221 124.099 270.101 124.128 269.993 124.183L257.581 131.35C257.388 131.459 257.388 131.64 257.581 131.753L278.188 143.652C278.297 143.704 278.416 143.732 278.537 143.732C278.658 143.732 278.777 143.704 278.886 143.652L291.302 136.482C291.516 136.373 291.516 136.192 291.322 136.079Z" fill="#455A64"/>
<path d="M273.993 127.968C273.884 127.914 273.764 127.885 273.642 127.885C273.52 127.885 273.4 127.914 273.291 127.968C271.753 128.844 265.685 132.362 264.16 133.246C263.966 133.355 263.966 133.537 264.16 133.65C266.177 134.808 276.212 140.602 278.209 141.76C278.318 141.814 278.437 141.843 278.558 141.843C278.68 141.843 278.799 141.814 278.907 141.76L288.043 136.482C288.084 136.467 288.121 136.44 288.146 136.404C288.172 136.368 288.186 136.325 288.186 136.28C288.186 136.236 288.172 136.193 288.146 136.157C288.121 136.121 288.084 136.093 288.043 136.079L273.993 127.968Z" fill="#E0E0E0"/>
<path d="M267.464 128.578C268.077 128.933 268.077 129.51 267.464 129.861C267.119 130.036 266.739 130.127 266.352 130.127C265.966 130.127 265.585 130.036 265.241 129.861C264.627 129.51 264.627 128.933 265.241 128.578C265.586 128.404 265.966 128.314 266.352 128.314C266.738 128.314 267.119 128.404 267.464 128.578Z" fill="#E0E0E0"/>
<path d="M264.01 129.913L265.006 130.494C265.297 130.66 265.349 130.898 265.123 131.031C264.973 131.094 264.81 131.122 264.648 131.11C264.485 131.099 264.327 131.05 264.187 130.966L263.191 130.385C262.9 130.22 262.852 129.982 263.078 129.849C263.227 129.785 263.389 129.758 263.551 129.769C263.713 129.78 263.87 129.83 264.01 129.913Z" fill="#E0E0E0"/>
<path d="M262.848 130.587L263.833 131.168C264.124 131.337 264.172 131.571 263.946 131.709C263.796 131.77 263.634 131.796 263.472 131.784C263.31 131.772 263.153 131.723 263.014 131.64L262.017 131.059C261.727 130.894 261.674 130.656 261.9 130.522C262.052 130.458 262.217 130.43 262.382 130.441C262.547 130.452 262.707 130.502 262.848 130.587Z" fill="#E0E0E0"/>
<path d="M261.682 131.273L262.678 131.854C262.969 132.023 263.021 132.258 262.795 132.395C262.645 132.456 262.482 132.482 262.32 132.471C262.157 132.46 262 132.412 261.859 132.33L260.862 131.745C260.576 131.58 260.523 131.342 260.749 131.208C260.899 131.147 261.061 131.12 261.223 131.132C261.385 131.143 261.542 131.191 261.682 131.273Z" fill="#E0E0E0"/>
<path d="M270.692 126.064L271.688 126.649C271.979 126.814 272.027 127.052 271.801 127.186C271.652 127.248 271.49 127.275 271.328 127.264C271.166 127.253 271.009 127.204 270.869 127.121L269.873 126.54C269.582 126.37 269.53 126.136 269.756 125.999C269.906 125.938 270.069 125.912 270.231 125.923C270.394 125.934 270.551 125.982 270.692 126.064Z" fill="#E0E0E0"/>
<path d="M269.539 126.742L270.536 127.323C270.826 127.488 270.879 127.726 270.653 127.859C270.502 127.922 270.339 127.949 270.177 127.937C270.014 127.926 269.857 127.877 269.716 127.795L268.72 127.214C268.429 127.048 268.381 126.81 268.607 126.673C268.757 126.611 268.919 126.585 269.081 126.597C269.243 126.609 269.4 126.659 269.539 126.742Z" fill="#E0E0E0"/>
<path d="M268.375 127.415L269.372 127.997C269.663 128.162 269.711 128.4 269.485 128.537C269.335 128.599 269.173 128.625 269.011 128.613C268.849 128.601 268.692 128.552 268.553 128.469L267.556 127.888C267.266 127.722 267.213 127.484 267.439 127.351C267.589 127.287 267.752 127.26 267.915 127.271C268.078 127.282 268.235 127.332 268.375 127.415Z" fill="#E0E0E0"/>
<path d="M247.769 131.35L247.87 131.293C247.972 131.227 248.056 131.138 248.117 131.032C248.178 130.927 248.214 130.809 248.221 130.688V110.695C248.214 110.573 248.178 110.455 248.117 110.35C248.056 110.245 247.972 110.156 247.87 110.089L220.771 94.3529C220.663 94.2973 220.543 94.2683 220.422 94.2683C220.3 94.2683 220.181 94.2973 220.073 94.3529L219.907 94.4497C219.805 94.5157 219.72 94.605 219.659 94.7102C219.598 94.8154 219.563 94.9335 219.556 95.055V115.064C219.562 115.186 219.597 115.304 219.658 115.41C219.719 115.515 219.805 115.604 219.907 115.67L247.071 131.354C247.179 131.409 247.299 131.437 247.42 131.436C247.542 131.435 247.661 131.406 247.769 131.35Z" fill="#E0E0E0"/>
<path d="M240.866 114.52L248.096 110.331C248.16 110.435 248.196 110.553 248.201 110.674V130.688C248.194 130.809 248.159 130.927 248.098 131.032C248.037 131.138 247.952 131.227 247.85 131.293L247.749 131.35C247.641 131.405 247.522 131.434 247.4 131.434C247.279 131.434 247.159 131.405 247.051 131.35L240.845 127.767L240.866 114.52Z" fill="#37474F"/>
<path d="M219.907 115.666L247.071 131.35C247.265 131.463 247.422 131.37 247.422 131.148V111.138C247.416 111.017 247.381 110.898 247.32 110.793C247.259 110.688 247.173 110.599 247.071 110.533L219.907 94.8491C219.714 94.7361 219.556 94.8491 219.556 95.0509V115.06C219.562 115.182 219.597 115.3 219.658 115.406C219.719 115.511 219.805 115.6 219.907 115.666Z" fill="#455A64"/>
<path d="M232.666 123.982L233.09 125.543L233.57 127.238L235.854 125.918C235.797 125.811 235.712 125.722 235.607 125.66L233.267 124.304L232.666 123.982Z" fill="#E0E0E0"/>
<path d="M227.804 125.487C227.796 125.6 227.818 125.713 227.867 125.815C227.917 125.917 227.993 126.004 228.087 126.068L232.327 128.517C232.436 128.575 232.559 128.603 232.682 128.598L233.086 125.547L233.251 124.337L234.312 116.436L229.471 113.64C229.402 113.747 229.356 113.866 229.333 113.991L227.804 125.487Z" fill="#37474F"/>
<path d="M229.475 113.624L234.317 116.42L234.959 116.017C234.909 115.904 234.826 115.81 234.721 115.746L230.484 113.301C230.379 113.247 230.262 113.219 230.143 113.219C230.025 113.219 229.908 113.247 229.802 113.301L229.738 113.342C229.631 113.415 229.541 113.512 229.475 113.624Z" fill="#E0E0E0"/>
<path d="M232.683 128.598C232.797 128.597 232.909 128.569 233.01 128.517L235.596 127.024C235.698 126.958 235.783 126.869 235.844 126.763C235.905 126.658 235.94 126.54 235.947 126.419V126.278C235.943 126.156 235.907 126.038 235.842 125.935L233.571 127.238L233.914 124.68L233.966 124.296L235.019 116.344C235.029 116.235 235.008 116.126 234.959 116.029L234.317 116.432L233.256 124.333L233.09 125.543L232.683 128.598Z" fill="#263238"/>
<path d="M235.534 109.52C235.308 109.387 235.131 109.52 235.131 109.787V112.563C235.135 112.709 235.174 112.853 235.244 112.982C235.314 113.111 235.413 113.222 235.534 113.305C235.764 113.438 235.938 113.305 235.938 113.039V110.259C235.933 110.113 235.894 109.97 235.824 109.841C235.754 109.713 235.654 109.603 235.534 109.52Z" fill="#37474F"/>
<path d="M234.034 108.677C233.808 108.548 233.631 108.677 233.631 108.947V111.723C233.635 111.87 233.675 112.013 233.745 112.142C233.815 112.271 233.914 112.382 234.034 112.466C234.26 112.595 234.438 112.466 234.438 112.196V109.403C234.43 109.259 234.39 109.119 234.32 108.993C234.25 108.868 234.152 108.759 234.034 108.677Z" fill="#37474F"/>
<path d="M232.528 107.806C232.302 107.676 232.125 107.806 232.125 108.072V110.848C232.128 110.995 232.167 111.139 232.237 111.268C232.307 111.397 232.407 111.507 232.528 111.59C232.754 111.723 232.932 111.59 232.932 111.324V108.548C232.928 108.401 232.889 108.257 232.819 108.128C232.749 107.999 232.649 107.888 232.528 107.806Z" fill="#37474F"/>
<path d="M231.028 106.946C230.802 106.817 230.625 106.946 230.625 107.216V109.992C230.629 110.139 230.668 110.283 230.738 110.412C230.808 110.541 230.907 110.651 231.028 110.735C231.254 110.864 231.432 110.735 231.432 110.469V107.688C231.427 107.542 231.388 107.398 231.318 107.27C231.248 107.141 231.148 107.03 231.028 106.946Z" fill="#37474F"/>
<path d="M273.661 106.938C273.661 106.938 264.784 111.082 262.742 111.679C260.701 112.276 259.079 112.43 257.255 112.978C255.262 113.58 251.267 115.476 250.698 116.206C250.129 116.937 251.025 117.913 252.663 118.071C254.301 118.228 257.223 117.372 257.731 117.368C258.239 117.364 257.856 117.562 257.255 118.317C256.654 119.071 256.448 119.999 256.94 120.391C257.255 120.641 257.727 119.939 258.627 119.535C259.401 119.184 260.305 118.252 261.157 117.227C262.008 116.202 262.642 115.746 265.002 115.129C267.677 114.427 274.488 112.756 274.488 112.756L273.661 106.938Z" fill="#FFA8A7" stroke="#FFA8A7" stroke-miterlimit="10"/>
<path d="M276.922 91.2096C275.502 90.9877 273.803 91.246 273.109 92.1175C272.415 92.9891 271.616 94.3408 272.346 97.484L276.922 91.2096Z" fill="#FFA8A7" stroke="#FFA8A7" stroke-miterlimit="10"/>
<path d="M276.923 91.2096C275.457 92.6605 274.188 94.2979 273.15 96.0798C271.677 98.521 271.334 99.5257 271.459 101.729C271.584 104.025 272.52 105.925 272.916 107.757C273.424 110.109 273.36 114.112 273.206 118.409C273.206 118.409 277.302 123.51 283.673 123.324C290.044 123.138 292.207 119.531 292.207 119.531L288.39 112.627L290.29 105.364L288.366 93.4248L282.624 91.9843L276.923 91.2096Z" fill="#FFEEB1"/>
<path d="M287.009 99.2312C286.894 102.337 287.231 105.443 288.009 108.451L285.83 115.073L288.389 112.619L290.289 105.356L287.009 99.2312Z" fill="white"/>
<path opacity="0.2" d="M287.009 99.2312C286.894 102.337 287.231 105.443 288.009 108.451L285.83 115.073L288.389 112.619L290.289 105.356L287.009 99.2312Z" fill="black"/>
<path d="M279.097 88.6757L281.518 88.5425C282.594 88.4827 283.647 88.2115 284.619 87.7443C285.59 87.2771 286.459 86.6231 287.178 85.8197C287.896 85.0164 288.449 84.0793 288.805 83.0621C289.161 82.0449 289.313 80.9675 289.253 79.8915C289.112 77.3979 287.987 75.0621 286.125 73.3975C284.263 71.7329 281.816 70.8758 279.323 71.0146C276.829 71.1561 274.493 72.2819 272.828 74.1446C271.164 76.0073 270.307 78.4545 270.446 80.9487C270.568 83.1204 271.549 85.1545 273.171 86.6035C274.793 88.0526 276.925 88.7979 279.097 88.6757Z" fill="#263238"/>
<path d="M273.225 75.1585C272.628 75.562 271.119 77.644 271.559 83.2284C271.93 87.9574 273.201 89.0509 273.98 89.3455C274.759 89.64 276.244 89.3455 277.676 89.0307L277.801 91.3387C277.801 91.3387 276.328 93.3038 277.135 94.3367C277.737 95.0993 279.508 95.4181 281.005 94.8088C282.221 94.3413 283.226 93.4461 283.829 92.291L283.446 85.4315C283.446 85.4315 284.495 86.6824 286.028 85.5324C287.562 84.3824 287.481 81.7597 286.501 80.872C285.52 79.9843 283.539 80.3918 283.24 81.7113C282.924 79.7077 281.937 77.871 280.44 76.5021C277.954 74.1497 274.379 74.7832 273.225 75.1585Z" fill="#FFA8A7" stroke="#FFA8A7" stroke-miterlimit="10"/>
<path d="M276.618 79.6252L277.954 80.1498C278.023 79.9674 278.02 79.7653 277.945 79.5852C277.87 79.405 277.729 79.2605 277.551 79.1814C277.46 79.1459 277.364 79.1293 277.267 79.1326C277.171 79.136 277.075 79.1592 276.988 79.2008C276.901 79.2424 276.823 79.3016 276.759 79.3746C276.696 79.4476 276.648 79.5329 276.618 79.6252Z" fill="#263238"/>
<path d="M276.446 81.7516C276.445 81.9125 276.508 82.0673 276.62 82.1822C276.733 82.2971 276.886 82.3628 277.047 82.365C277.209 82.3597 277.361 82.2911 277.472 82.174C277.583 82.0569 277.644 81.9008 277.64 81.7395C277.642 81.5786 277.579 81.4238 277.466 81.3089C277.354 81.194 277.2 81.1283 277.039 81.1262C276.878 81.1315 276.725 81.2001 276.614 81.3172C276.503 81.4342 276.443 81.5903 276.446 81.7516Z" fill="#263238"/>
<path d="M272.906 79.6655L271.696 80.5007C271.587 80.3364 271.545 80.1361 271.581 79.942C271.616 79.7478 271.725 79.575 271.885 79.4597C271.965 79.4026 272.055 79.3624 272.151 79.3418C272.246 79.3212 272.345 79.3205 272.441 79.3398C272.537 79.3591 272.627 79.398 272.707 79.4541C272.788 79.5101 272.855 79.5821 272.906 79.6655Z" fill="#263238"/>
<path d="M276.511 85.7704L275.155 86.2909C275.185 86.3819 275.233 86.4659 275.296 86.5379C275.359 86.6099 275.436 86.6684 275.522 86.7099C275.609 86.7513 275.703 86.7749 275.798 86.7792C275.894 86.7835 275.989 86.7683 276.079 86.7347C276.262 86.6617 276.41 86.5201 276.49 86.3401C276.571 86.1601 276.578 85.9557 276.511 85.7704Z" fill="#F28F8F" stroke="#F28F8F" stroke-miterlimit="10"/>
<path d="M272.052 81.562C272.057 81.6791 272.096 81.7922 272.165 81.8873C272.233 81.9823 272.328 82.0551 272.438 82.0965C272.548 82.1378 272.667 82.146 272.782 82.12C272.896 82.094 273 82.0349 273.081 81.9501C273.162 81.8653 273.216 81.7585 273.237 81.6431C273.257 81.5277 273.244 81.4088 273.197 81.3012C273.151 81.1935 273.074 81.1019 272.976 81.0378C272.877 80.9737 272.763 80.9399 272.645 80.9406C272.566 80.9421 272.487 80.9595 272.414 80.9916C272.341 81.0237 272.275 81.07 272.219 81.1278C272.164 81.1855 272.121 81.2536 272.092 81.3282C272.064 81.4027 272.05 81.4821 272.052 81.562Z" fill="#263238"/>
<path d="M274.92 81.0616L275.025 84.6487L273.109 84.1686L274.92 81.0616Z" fill="#F28F8F" stroke="#F28F8F" stroke-miterlimit="10"/>
<path d="M277.684 89.0227C278.894 88.8209 281.251 87.9534 281.719 87.1141C281.719 87.1141 281.719 87.671 280.98 88.4659C280.242 89.2607 277.712 89.9467 277.712 89.9467L277.684 89.0227Z" fill="#F28F8F" stroke="#F28F8F" stroke-miterlimit="10"/>
<path d="M287.353 71.9143C285.444 72.9432 286.409 74.6057 287.51 76.6514C288.612 78.6971 289.427 80.3515 291.335 79.3266C293.244 78.3017 293.901 75.8081 292.8 73.7623C291.698 71.7166 289.253 70.8894 287.353 71.9143Z" fill="#263238"/>
<path d="M284.628 81.7637L284.479 79.1086L282.91 79.1974L283.144 83.422C283.35 83.4107 283.552 83.3588 283.738 83.2693C283.925 83.1798 284.092 83.0545 284.23 82.9005C284.367 82.7465 284.474 82.5668 284.542 82.3718C284.611 82.1767 284.64 81.9701 284.628 81.7637Z" fill="#263238"/>
<path d="M273.226 75.1584C273.226 75.1584 273.771 83.0347 284.561 80.525C284.561 80.525 284.363 76.2277 280.655 74.4443C276.208 72.3057 273.226 75.1584 273.226 75.1584Z" fill="white"/>
<path d="M273.226 75.1585C276.165 78.349 280.229 80.2731 284.56 80.525C284.56 80.525 285.294 76.3165 281.501 74.1013C277.709 71.8861 273.791 73.5727 273.226 75.1585Z" fill="#263238"/>
<path d="M275.486 134.456C275.508 134.456 275.529 134.449 275.547 134.436C275.564 134.423 275.577 134.405 275.583 134.384L275.829 133.436C275.835 133.41 275.831 133.383 275.818 133.36C275.804 133.338 275.782 133.321 275.757 133.315C275.744 133.311 275.731 133.31 275.717 133.312C275.704 133.313 275.692 133.318 275.68 133.325C275.669 133.332 275.659 133.341 275.652 133.351C275.644 133.362 275.638 133.374 275.636 133.387L275.385 134.331C275.379 134.358 275.383 134.385 275.397 134.408C275.41 134.432 275.432 134.449 275.458 134.456H275.486Z" fill="#263238"/>
<path d="M277.256 131.999L275.961 133.799C275.918 133.855 275.86 133.898 275.792 133.92C275.725 133.941 275.653 133.942 275.585 133.921C275.518 133.901 275.458 133.859 275.415 133.804C275.371 133.748 275.347 133.68 275.343 133.609L275.279 131.378L277.256 131.999Z" fill="#37474F"/>
<path d="M279.004 119.124C279.05 119.027 279.124 118.946 279.217 118.893C279.31 118.839 279.417 118.816 279.524 118.825C280.182 118.801 281.138 119.358 280.932 119.89L277.257 131.995C277.064 132.101 276.848 132.158 276.628 132.162C276.408 132.167 276.191 132.118 275.994 132.019C275.684 131.901 275.429 131.67 275.279 131.374L279.004 119.124Z" fill="#455A64"/>
<path d="M279.92 118.155C279.936 118.1 279.963 118.048 280 118.003C280.036 117.958 280.081 117.921 280.132 117.894C280.182 117.866 280.238 117.849 280.296 117.843C280.353 117.837 280.411 117.842 280.467 117.859C280.522 117.875 280.573 117.902 280.618 117.939C280.663 117.975 280.7 118.02 280.728 118.071C280.756 118.121 280.773 118.177 280.779 118.234C280.785 118.292 280.78 118.35 280.763 118.405L280.469 119.374C280.454 119.41 280.43 119.441 280.4 119.465C280.369 119.489 280.333 119.505 280.295 119.511C280.189 119.53 280.079 119.524 279.975 119.493C279.872 119.463 279.776 119.408 279.698 119.333C279.668 119.308 279.645 119.276 279.632 119.239C279.619 119.202 279.617 119.162 279.625 119.124L279.92 118.155Z" fill="#37474F"/>
<path d="M288.366 93.4087C290.823 93.9413 292.139 95.3576 292.841 98.4242C293.543 101.491 296.678 115.645 297.029 117.046C297.38 118.446 296.876 119.249 295.245 120.931C293.777 122.444 286.534 127.706 285.965 128.485C285.396 129.264 283.274 130.692 282.136 131.309C280.998 131.927 279.695 132.08 278.359 132.08C277.439 132.08 275.938 131.148 274.8 131.035C273.662 130.922 273.348 129.865 274.038 129.465C274.728 129.066 278.569 127.589 278.569 127.589L278.896 126.379C278.896 126.379 279.19 125.898 280.732 125.866C282.273 125.834 282.681 126.411 284.629 124.631C286.647 122.783 291.533 116.743 291.533 116.743L287.853 104.255C287.853 104.255 285.578 96.2574 288.366 93.4087Z" fill="#FFA8A7" stroke="#FFA8A7" stroke-miterlimit="10"/>
</g>
<defs>
<linearGradient id="paint0_linear_552_27551" x1="0" y1="0" x2="350" y2="200" gradientUnits="userSpaceOnUse">
<stop stop-color="#FFEC3D"/>
<stop offset="1" stop-color="#F0C93A"/>
</linearGradient>
<clipPath id="clip0_552_27551">
<rect width="350" height="200" rx="20" fill="white"/>
</clipPath>
</defs>
</svg>
