<svg width="350" height="200" viewBox="0 0 350 200" fill="none" xmlns="http://www.w3.org/2000/svg">
<g clip-path="url(#clip0_552_26235)">
<rect width="350" height="200" rx="20" fill="url(#paint0_linear_552_26235)"/>
<path opacity="0.5" d="M275 229.378C319.183 229.378 355 208.698 355 183.189C355 157.679 319.183 137 275 137C230.817 137 195 157.679 195 183.189C195 208.698 230.817 229.378 275 229.378Z" fill="#F0F0F0"/>
<path d="M329.688 160.783C329.688 160.783 328.806 160.082 328.358 160.177C328.148 160.219 328.302 160.793 328.06 161.878C327.961 162.269 327.767 162.63 327.497 162.928L327.336 162.974H327.29L326.863 163.093C323.135 164.143 314.695 166.418 310.47 166.863C307.246 167.213 305.948 166.355 305.059 163.506C303.658 158.955 302.703 147.824 302.44 144.421C300.13 149.907 297.928 155.469 295.884 161.035C300.62 165.053 303.707 176.881 305.388 181.481L305.762 182.451L305.951 182.934C305.951 182.934 306.879 184.033 305.577 185.429C304.274 186.826 302.731 186.858 302.027 186.077C298.261 180.788 291.68 171.981 288.54 166.744C286.307 163.012 285.97 162.316 286.408 159.676C287.808 151.093 290.651 139.657 293.433 130.857L293.486 130.731L313.369 131.96C314.618 141.589 313.257 158.213 313.257 158.213L326.314 157.594L327.203 157.506C327.479 157.639 327.927 158.287 328.137 158.857C328.347 159.428 329.24 159.823 329.688 160.783Z" fill="#FFA8A7"/>
<path d="M326.863 163.107L327.29 162.988H327.335L327.496 162.943C327.767 162.644 327.96 162.283 328.06 161.892C328.301 160.807 328.147 160.233 328.357 160.191C328.805 160.104 329.688 160.797 329.688 160.797C329.239 159.838 328.361 159.477 328.151 158.903C327.941 158.329 327.493 157.685 327.216 157.552L326.327 157.639L313.256 158.245C313.256 158.245 314.88 163.688 311.996 166.671C316.484 165.946 323.544 164.028 326.863 163.107Z" fill="#37474F"/>
<path d="M314.565 166.187C316.316 163.124 315.731 160.107 314.887 158.161L313.256 158.241C313.256 158.241 314.88 163.684 311.996 166.667C312.784 166.541 313.652 166.376 314.565 166.187Z" fill="#F1C7FF"/>
<path d="M305.757 182.465L305.406 181.495C303.936 177.497 301.426 168.116 297.705 163.058C296.484 166.38 291.482 168.239 289.199 167.826C292.532 173.129 298.511 181.145 302.028 186.091C302.729 186.872 304.272 186.844 305.578 185.443C306.884 184.043 305.953 182.948 305.953 182.948L305.757 182.465Z" fill="#37474F"/>
<path d="M297.705 163.058C296.484 166.38 291.482 168.239 289.199 167.826C289.612 168.484 290.064 169.18 290.547 169.905C294.649 169.985 297.506 167.615 299.032 165.12C298.63 164.407 298.187 163.719 297.705 163.058Z" fill="#F1C7FF"/>
<path d="M307.426 184.323C307.65 184.603 308.052 185.184 308.003 185.51C307.954 185.835 307.377 187.484 307.303 189.189C307.24 190.701 307.905 193.579 306.449 195.626C305.168 197.422 303.999 197.846 302.948 198.045C302.538 198.147 302.109 198.15 301.697 198.053C301.286 197.955 300.903 197.761 300.582 197.485C300.582 197.485 299.647 196.648 300.064 196.004C300.481 195.36 307.426 184.323 307.426 184.323Z" fill="#37474F"/>
<path d="M307.507 184.46C307.454 184.039 307.268 183.646 306.975 183.34C306.541 182.871 306.068 182.468 305.897 181.824C305.837 181.597 305.785 181.17 305.504 181.093C305.48 181.093 305.228 181.093 305.228 181.093L305.441 181.726C305.322 181.989 305.091 182.601 304.979 182.871C304.727 183.571 305.046 184.302 304.542 184.915C304.507 184.138 304.475 183.238 303.961 183.249C303.611 183.249 302.995 183.721 302.295 183.823C301.594 183.924 301.041 183.784 300.768 183.886C300.495 183.987 300.649 184.334 300.824 185.139C301.049 186.041 301.177 186.965 301.206 187.894C301.146 188.636 301.069 189.403 300.961 190.134C300.544 192.956 299.519 194.405 299.753 195.924C299.995 197.499 302.473 198.052 304.258 196.687C307.297 194.366 306.67 192.028 306.618 190.302C306.554 189.187 306.657 188.069 306.922 186.984C307.202 185.969 307.507 185.447 307.507 184.46Z" fill="#F1C7FF"/>
<path opacity="0.4" d="M307.507 184.46C307.454 184.039 307.268 183.646 306.975 183.34C306.541 182.871 306.068 182.468 305.897 181.824C305.837 181.597 305.785 181.17 305.504 181.093C305.48 181.093 305.228 181.093 305.228 181.093L305.441 181.726C305.322 181.989 305.091 182.601 304.979 182.871C304.727 183.571 305.046 184.302 304.542 184.915C304.507 184.138 304.475 183.238 303.961 183.249C303.611 183.249 302.995 183.721 302.295 183.823C301.594 183.924 301.041 183.784 300.768 183.886C300.495 183.987 300.649 184.334 300.824 185.139C301.049 186.041 301.177 186.965 301.206 187.894C301.146 188.636 301.069 189.403 300.961 190.134C300.544 192.956 299.519 194.405 299.753 195.924C299.995 197.499 302.473 198.052 304.258 196.687C307.297 194.366 306.67 192.028 306.618 190.302C306.554 189.187 306.657 188.069 306.922 186.984C307.202 185.969 307.507 185.447 307.507 184.46Z" fill="black"/>
<path opacity="0.15" d="M305.909 181.824C305.907 181.831 305.907 181.838 305.909 181.845V181.883C305.847 182.272 305.762 182.657 305.653 183.035C305.555 183.49 305.492 183.952 305.426 184.414C305.38 184.736 305.356 185.058 305.342 185.384C305.328 185.709 305.314 185.972 305.317 186.266C305.338 187.666 305.541 188.783 305.195 190.578C304.848 192.374 304.341 192.546 303.98 192.329C303.62 192.112 303.952 191.646 304.295 190.067C304.645 188.415 304.358 186.609 304.537 184.911C304.661 184.768 304.747 184.596 304.789 184.411C304.911 183.917 304.789 183.381 304.974 182.877C305.076 182.608 305.324 181.995 305.436 181.733L305.223 181.099H305.303H305.401H305.447H305.499C305.674 181.145 305.758 181.33 305.814 181.519C305.863 181.624 305.884 181.74 305.909 181.824Z" fill="black"/>
<path opacity="0.15" d="M304.917 193.897C303.983 194.44 303.419 194.317 303.44 193.393C303.488 192.74 303.68 192.105 304 191.534L301.55 191.636C301.55 191.636 301.707 193.319 301.217 193.736C300.916 193.984 300.493 193.596 300.248 193.099C299.898 194.208 299.617 195.063 299.754 195.938C299.996 197.513 302.474 198.066 304.259 196.701C306.804 194.755 306.776 192.801 306.671 191.205C306.716 192.157 305.852 193.354 304.917 193.897Z" fill="black"/>
<path opacity="0.15" d="M300.855 185.198C301.057 186.081 301.175 186.982 301.205 187.887C301.146 188.629 301.069 189.396 300.96 190.127C300.887 190.61 300.799 191.051 300.701 191.461C300.72 191.688 300.797 191.906 300.925 192.094C301.237 192.367 301.373 192.339 301.548 191.629C301.741 190.831 301.748 186.448 300.848 185.198H300.855Z" fill="black"/>
<path d="M300.938 191.849C300.96 191.892 300.996 191.927 301.039 191.949C301.083 191.97 301.132 191.977 301.18 191.968C302.249 191.797 303.337 191.78 304.411 191.919C304.44 191.924 304.47 191.923 304.499 191.916C304.528 191.91 304.555 191.897 304.579 191.88C304.603 191.863 304.623 191.841 304.639 191.816C304.655 191.791 304.665 191.763 304.67 191.734C304.675 191.704 304.674 191.675 304.667 191.646C304.66 191.617 304.648 191.59 304.631 191.566C304.614 191.542 304.592 191.521 304.567 191.506C304.542 191.49 304.514 191.479 304.484 191.475C303.36 191.325 302.219 191.342 301.099 191.524C301.041 191.535 300.989 191.568 300.955 191.618C300.921 191.667 300.907 191.727 300.917 191.786C300.92 191.808 300.927 191.83 300.938 191.849Z" fill="#E0E0E0"/>
<path d="M301.027 190.677C301.051 190.727 301.093 190.766 301.144 190.786C301.195 190.806 301.253 190.806 301.304 190.785C302.381 190.423 303.545 190.405 304.633 190.733C304.689 190.753 304.752 190.75 304.806 190.724C304.861 190.699 304.903 190.653 304.923 190.596C304.942 190.54 304.938 190.478 304.912 190.424C304.886 190.37 304.84 190.329 304.783 190.309C303.598 189.938 302.324 189.956 301.15 190.362C301.093 190.382 301.047 190.424 301.022 190.479C300.996 190.533 300.993 190.596 301.013 190.652C301.017 190.661 301.021 190.669 301.027 190.677Z" fill="#E0E0E0"/>
<path d="M301.006 189.581C301.032 189.634 301.078 189.674 301.134 189.693C301.189 189.712 301.25 189.708 301.303 189.682C302.398 189.209 303.623 189.125 304.772 189.444C304.83 189.462 304.892 189.457 304.946 189.429C304.999 189.402 305.04 189.355 305.059 189.297C305.077 189.24 305.071 189.179 305.044 189.126C305.016 189.072 304.969 189.032 304.912 189.014C303.652 188.655 302.307 188.746 301.107 189.273C301.054 189.299 301.013 189.346 300.993 189.402C300.974 189.458 300.977 189.52 301.002 189.574L301.006 189.581Z" fill="#E0E0E0"/>
<path d="M300.992 188.419C301.007 188.445 301.026 188.468 301.049 188.486C301.073 188.504 301.1 188.518 301.128 188.525C301.157 188.533 301.187 188.535 301.216 188.531C301.246 188.528 301.274 188.518 301.3 188.503C302.875 187.593 304.737 188.153 304.755 188.153C304.812 188.17 304.873 188.164 304.926 188.136C304.979 188.109 305.019 188.062 305.039 188.006C305.048 187.978 305.051 187.948 305.049 187.918C305.046 187.889 305.038 187.86 305.024 187.833C305.011 187.807 304.992 187.784 304.969 187.765C304.946 187.745 304.92 187.731 304.892 187.722C304.807 187.694 302.826 187.089 301.076 188.097C301.048 188.111 301.024 188.132 301.004 188.156C300.984 188.181 300.97 188.209 300.962 188.239C300.954 188.27 300.953 188.301 300.958 188.332C300.963 188.363 300.975 188.393 300.992 188.419Z" fill="#E0E0E0"/>
<path d="M301.001 187.19V187.208C301.033 187.258 301.084 187.293 301.142 187.307C301.201 187.32 301.262 187.309 301.313 187.278C302.814 186.326 304.813 186.928 304.831 186.928C304.887 186.941 304.946 186.932 304.996 186.903C305.046 186.874 305.083 186.828 305.1 186.773C305.117 186.718 305.112 186.658 305.087 186.606C305.061 186.555 305.017 186.514 304.964 186.494C304.873 186.466 302.748 185.832 301.075 186.896C301.027 186.926 300.993 186.974 300.979 187.029C300.966 187.083 300.973 187.141 301.001 187.19Z" fill="#E0E0E0"/>
<path d="M300.926 186.129C300.959 186.18 301.009 186.215 301.068 186.228C301.126 186.241 301.187 186.231 301.238 186.199C301.764 185.915 302.341 185.738 302.936 185.678C303.53 185.618 304.131 185.676 304.703 185.849C304.731 185.86 304.76 185.865 304.79 185.865C304.82 185.864 304.849 185.858 304.876 185.846C304.903 185.834 304.928 185.817 304.948 185.796C304.969 185.774 304.985 185.749 304.996 185.722C305.006 185.694 305.012 185.665 305.011 185.635C305.01 185.605 305.004 185.576 304.992 185.549C304.98 185.522 304.963 185.497 304.942 185.477C304.921 185.456 304.895 185.44 304.868 185.429C304.23 185.23 303.56 185.161 302.895 185.227C302.23 185.292 301.586 185.491 301 185.811C300.973 185.826 300.949 185.846 300.931 185.871C300.912 185.896 300.899 185.924 300.892 185.954C300.885 185.984 300.885 186.015 300.891 186.045C300.897 186.075 300.909 186.104 300.926 186.129Z" fill="#E0E0E0"/>
<path d="M332.911 170.959C333.423 171.172 334.753 171.19 335.456 170.651C336.923 169.534 337.084 166.45 336.506 164.794C335.806 162.778 334.627 161.801 334.175 160.594C333.724 159.386 333.734 157.615 333.167 156.565C332.938 156.162 332.626 155.814 332.251 155.543C331.876 155.272 331.447 155.084 330.993 154.993C330.703 154.929 330.401 154.932 330.112 155.001C329.822 155.071 329.553 155.206 329.323 155.396L328.879 155.746L332.911 170.959Z" fill="#263238"/>
<path d="M335.787 165.326C335.283 163.065 332.906 161.661 332.815 159.424C332.724 157.187 331.254 154.327 328.499 155.969C327.713 156.437 326.982 156.992 326.318 157.621L327.207 157.534C327.484 157.667 327.932 158.315 328.142 158.885C328.352 159.456 329.231 159.82 329.679 160.779C329.679 160.779 328.797 160.079 328.349 160.173C328.139 160.215 328.293 160.789 328.051 161.875C327.952 162.265 327.758 162.626 327.488 162.925L327.33 162.967H327.284L326.857 163.086C327.225 163.278 328.233 163.436 328.881 163.919C329.136 164.187 329.352 164.49 329.521 164.818C329.781 165.36 329.992 165.923 330.151 166.502C330.421 167.363 330.697 168.224 330.999 169.075C331.134 169.515 331.328 169.934 331.576 170.321C332.353 171.431 333.876 171.35 334.811 170.472C335.276 170.06 335.62 169.529 335.805 168.935C336.211 167.738 336.032 166.411 335.787 165.326Z" fill="#F1C7FF"/>
<path opacity="0.4" d="M335.787 165.326C335.283 163.065 332.906 161.661 332.815 159.424C332.724 157.187 331.254 154.327 328.499 155.969C327.713 156.437 326.982 156.992 326.318 157.621L327.207 157.534C327.484 157.667 327.932 158.315 328.142 158.885C328.352 159.456 329.231 159.82 329.679 160.779C329.679 160.779 328.797 160.079 328.349 160.173C328.139 160.215 328.293 160.789 328.051 161.875C327.952 162.265 327.758 162.626 327.488 162.925L327.33 162.967H327.284L326.857 163.086C327.225 163.278 328.233 163.436 328.881 163.919C329.136 164.187 329.352 164.49 329.521 164.818C329.781 165.36 329.992 165.923 330.151 166.502C330.421 167.363 330.697 168.224 330.999 169.075C331.134 169.515 331.328 169.934 331.576 170.321C332.353 171.431 333.876 171.35 334.811 170.472C335.276 170.06 335.62 169.529 335.805 168.935C336.211 167.738 336.032 166.411 335.787 165.326Z" fill="black"/>
<path opacity="0.15" d="M330.673 166.821C330.576 166.327 330.439 165.843 330.264 165.371C330.085 164.898 329.795 164.475 329.416 164.139C329.022 163.83 328.562 163.616 328.072 163.513C328.363 163.614 328.636 163.758 328.884 163.94C329.14 164.208 329.355 164.511 329.525 164.839C329.784 165.381 329.995 165.944 330.155 166.523C330.32 167.038 330.484 167.552 330.656 168.067C330.707 168.017 330.75 167.959 330.782 167.895C330.844 167.696 330.844 167.482 330.782 167.283L330.673 166.821Z" fill="black"/>
<path opacity="0.15" d="M335.733 166.334C335.715 166.779 335.535 167.201 335.225 167.521C335.021 167.668 334.776 167.747 334.525 167.747C334.274 167.747 334.029 167.668 333.825 167.521C333.515 167.32 333.265 167.039 333.1 166.709C332.988 166.436 332.964 166.124 332.698 166.254C332.01 166.595 331.402 167.08 330.916 167.675C330.887 167.704 330.865 167.74 330.853 167.78C330.841 167.859 330.86 167.939 330.906 168.004C331.057 168.333 331.092 168.703 331.004 169.054V169.096C331.139 169.536 331.333 169.955 331.581 170.342C332.358 171.452 333.881 171.372 334.816 170.493C335.281 170.081 335.625 169.55 335.81 168.956C336.108 167.799 336.108 166.585 335.81 165.428C335.799 165.736 335.775 166.037 335.733 166.334Z" fill="black"/>
<path opacity="0.15" d="M332.362 161.672C332.091 161.275 331.763 160.921 331.389 160.621C331.207 160.478 331.004 160.397 330.822 160.271C330.62 160.127 330.433 159.964 330.261 159.785C329.561 159.085 329.071 158.234 328.462 157.467C328.266 157.212 328.019 157 327.738 156.844C327.627 156.787 327.509 156.743 327.388 156.715C327.002 157.009 326.638 157.32 326.316 157.621L327.206 157.534C327.482 157.667 327.93 158.315 328.14 158.885C328.35 159.456 329.19 159.809 329.659 160.74C330.107 161.122 330.587 161.468 331 161.864C331.343 162.17 331.624 162.538 331.83 162.949C332.338 164.002 332.715 165.113 332.953 166.257C332.978 166.48 333.064 166.693 333.202 166.87C333.239 166.91 333.284 166.943 333.334 166.965C333.385 166.987 333.439 166.999 333.494 166.999C333.549 166.999 333.604 166.987 333.654 166.965C333.704 166.943 333.749 166.91 333.786 166.87C333.831 166.793 333.855 166.706 333.856 166.618C333.906 165.631 333.735 164.646 333.356 163.733C333.113 163.007 332.779 162.314 332.362 161.672Z" fill="black"/>
<path d="M330.425 168.351C330.475 168.375 330.531 168.38 330.585 168.366C330.638 168.352 330.684 168.319 330.716 168.274C331.369 167.344 332.297 166.642 333.369 166.264C333.426 166.247 333.474 166.207 333.503 166.154C333.531 166.1 333.537 166.038 333.519 165.981C333.511 165.952 333.497 165.926 333.478 165.903C333.46 165.88 333.437 165.861 333.411 165.847C333.385 165.833 333.356 165.825 333.327 165.822C333.297 165.819 333.268 165.822 333.239 165.83C332.064 166.234 331.048 167.002 330.337 168.022C330.305 168.072 330.294 168.133 330.305 168.192C330.317 168.251 330.351 168.303 330.4 168.337L330.425 168.351Z" fill="#E0E0E0"/>
<path d="M330.127 166.88C330.147 166.897 330.169 166.91 330.193 166.919C330.288 166.954 330.337 166.919 330.386 166.831C330.5 166.667 330.628 166.513 330.767 166.369C331.022 166.106 331.305 165.871 331.611 165.669C332.023 165.393 332.47 165.174 332.941 165.018L333.088 164.973C333.146 164.958 333.195 164.921 333.226 164.87C333.257 164.819 333.266 164.758 333.253 164.7C333.245 164.671 333.232 164.643 333.214 164.619C333.196 164.596 333.174 164.575 333.148 164.56C333.123 164.545 333.094 164.535 333.065 164.53C333.035 164.526 333.005 164.528 332.976 164.535C332.653 164.619 332.34 164.736 332.041 164.885C331.391 165.197 330.808 165.634 330.326 166.17C330.197 166.313 330.011 166.495 330.043 166.705C330.048 166.772 330.078 166.835 330.127 166.88Z" fill="#E0E0E0"/>
<path d="M329.708 165.704C329.852 165.816 329.971 165.585 330.058 165.484C330.172 165.328 330.297 165.182 330.433 165.046C330.683 164.801 330.959 164.582 331.255 164.395C331.626 164.159 332.025 163.971 332.442 163.835H332.495C332.547 163.815 332.59 163.776 332.616 163.726C332.642 163.676 332.648 163.619 332.634 163.564C332.619 163.51 332.585 163.463 332.538 163.432C332.491 163.401 332.435 163.389 332.379 163.397C332.056 163.49 331.744 163.616 331.448 163.775C330.816 164.092 330.257 164.537 329.806 165.081C329.748 165.135 329.701 165.2 329.669 165.272C329.636 165.344 329.619 165.422 329.617 165.501C329.62 165.57 329.646 165.635 329.691 165.687C329.696 165.693 329.702 165.699 329.708 165.704Z" fill="#E0E0E0"/>
<path d="M329.208 164.598C329.236 164.617 329.269 164.629 329.302 164.633C329.4 164.633 329.432 164.532 329.477 164.462C329.526 164.382 329.578 164.305 329.635 164.231C329.741 164.084 329.858 163.946 329.985 163.818C330.222 163.583 330.481 163.372 330.759 163.187C331.087 162.966 331.439 162.782 331.809 162.638H331.826C331.854 162.628 331.88 162.613 331.903 162.594C331.925 162.574 331.943 162.55 331.956 162.524C331.969 162.497 331.977 162.468 331.979 162.438C331.98 162.409 331.976 162.379 331.966 162.351C331.946 162.294 331.905 162.248 331.851 162.222C331.798 162.196 331.736 162.192 331.679 162.211C331.355 162.331 331.043 162.482 330.748 162.662C330.137 163.015 329.608 163.492 329.194 164.063C329.124 164.145 329.073 164.242 329.047 164.346C329.038 164.394 329.045 164.443 329.068 164.486C329.089 164.517 329.115 164.544 329.145 164.567L329.208 164.598Z" fill="#E0E0E0"/>
<path d="M330.237 160.796C330.204 160.79 330.171 160.79 330.139 160.796C330.041 160.814 330.037 160.929 330.013 161.006C329.988 161.083 329.95 161.181 329.915 161.269C329.843 161.436 329.762 161.599 329.669 161.756C329.5 162.043 329.3 162.312 329.074 162.557C328.812 162.854 328.516 163.12 328.192 163.348C328.168 163.365 328.147 163.386 328.13 163.41C328.114 163.435 328.102 163.462 328.096 163.491C328.09 163.52 328.09 163.55 328.096 163.579C328.102 163.608 328.113 163.635 328.129 163.66C328.146 163.684 328.167 163.706 328.191 163.722C328.216 163.739 328.243 163.75 328.272 163.756C328.301 163.762 328.331 163.762 328.36 163.756C328.389 163.75 328.416 163.739 328.441 163.723C328.725 163.528 328.989 163.305 329.228 163.058C329.736 162.563 330.132 161.967 330.391 161.308C330.439 161.211 330.464 161.104 330.464 160.996C330.46 160.948 330.441 160.902 330.408 160.866C330.382 160.839 330.349 160.819 330.314 160.807L330.237 160.796Z" fill="#E0E0E0"/>
<path d="M312.933 129.866C313.752 132.789 314.424 136.241 314.295 141.929C314.165 147.617 314.312 152.721 314.312 152.721C314.312 152.721 313.57 155.052 308.831 155.63C304.091 156.207 302.229 154.674 302.229 154.674L301.504 147.743L299.516 152.994C299.516 152.994 297.307 153.547 293.53 152.294C289.753 151.041 288.279 148.254 288.279 148.254C288.279 148.254 291.633 134.252 293.089 131.007L312.933 129.866Z" fill="#455A64"/>
<path d="M301.498 147.743L301.061 143.287C301.061 143.287 296.86 143.462 295.082 139.643C295.082 139.643 295.453 143.144 300.228 144.544L300.802 147.652L299.51 152.994L301.498 147.743Z" fill="#37474F"/>
<path d="M311.374 155.052C311.77 147.256 311.052 135.554 309.789 131.746L308.875 132.691C310.307 138.211 310.625 149.987 310.373 155.353C310.712 155.271 311.046 155.17 311.374 155.052Z" fill="#F1C7FF"/>
<path d="M310.881 132.464C312.306 137.942 312.369 149.332 312.085 154.751C312.443 154.583 312.784 154.382 313.104 154.149C313.489 146.368 313.037 135.246 311.798 131.522L310.881 132.464Z" fill="#F1C7FF"/>
<path d="M280.712 93.6119C281.235 95.1781 282.023 96.6428 283.043 97.9419C287.67 103.48 292.358 106.392 294.745 111.314C297.486 110.964 301.046 106.217 298.844 103.497C296.446 102.643 287.509 93.1673 286.68 91.7881C285.924 90.3494 283.386 83.737 282.791 81.2377C282.701 80.8184 282.766 80.3809 282.973 80.0055C283.554 78.9063 283.48 77.7302 283.743 76.6205C283.949 75.7524 284.321 75.3499 284.149 75.2203C283.932 75.085 283.672 75.0364 283.421 75.0845C283.17 75.1325 282.946 75.2735 282.794 75.4794C282.405 76.0302 282.067 76.6161 281.786 77.2296C281.705 76.2268 281.698 75.2195 281.765 74.2157C281.912 71.9019 281.38 70.1831 278.818 71.6533C277.211 72.574 276.311 74.9403 277.169 79.1689C277.418 80.3835 277.869 83.2224 278.303 84.9692C279.112 88.1966 279.584 90.6854 280.712 93.6119Z" fill="#FFA8A7"/>
<path d="M300.284 103.505C299.199 102.99 297.897 102.573 296.465 101.404C294.97 100.186 293.115 98.8069 293.115 98.8069C293.115 98.8069 289.856 101.457 289.933 105.37C291.134 106.577 292.176 107.932 293.034 109.403C293.682 110.539 294.189 111.75 294.547 113.008C294.547 113.008 298.149 113.708 298.807 109.83C299.153 107.69 299.647 105.577 300.284 103.505Z" fill="#F1C7FF"/>
<path d="M294.551 121.923C294.418 120.779 294.453 118.654 294.428 118.073C291.407 115.493 292.552 112.728 293.508 110.498C295.422 106.045 297.358 103.476 299.262 103.462L304.513 103.616C307.226 103.665 310.359 103.815 311.055 103.934C312.83 104.239 313.656 106.035 313.856 107.901C314.062 109.938 314.538 110.095 314.206 113.501C314.206 113.501 312.984 117.002 311.892 120.103C311.892 120.103 311.497 122.389 311.892 123.453C312.62 125.424 313.667 129.996 314.031 133.318C314.031 133.318 312.102 136.051 303.375 136.048C297.029 136.048 292.174 132.726 292.174 132.726L294.551 121.923Z" fill="#F1C7FF"/>
<path d="M313.007 110.376C313.007 110.673 312.982 110.992 312.958 111.359L293.604 110.309C293.751 109.959 293.894 109.654 294.041 109.346L313.007 110.376Z" fill="#455A64"/>
<path d="M299.279 103.472L304.529 103.626C307.242 103.675 310.375 103.826 311.072 103.945C312.847 104.25 312.706 105.86 312.892 107.718C312.984 108.247 313.032 108.782 313.036 109.318L294.521 108.401C296.097 105.258 297.707 103.486 299.279 103.472Z" fill="#455A64"/>
<path opacity="0.1" d="M310.094 123.359C310.066 123.033 310.048 122.704 310.048 122.379C310.064 121.289 310.208 120.206 310.479 119.151C310.976 117.152 312.03 114.951 311.606 113.837C311.183 112.724 310.132 110.841 310.619 107.207L313.475 106.238C313.668 106.778 313.792 107.34 313.843 107.911C314.05 109.948 314.526 110.106 314.193 113.512C314.193 113.512 312.971 117.012 311.879 120.114C311.879 120.114 311.484 122.4 311.879 123.464C312.607 125.434 313.654 130.006 314.018 133.328C314.018 133.328 312.089 136.062 303.363 136.058H303.104C306.604 135.281 310.006 132.908 310.521 129.113C310.794 127.202 310.255 125.284 310.094 123.359Z" fill="black"/>
<path opacity="0.1" d="M308.305 116.187C307.927 117.002 307.322 117.691 306.562 118.171C305.802 118.651 304.919 118.902 304.02 118.892C303.154 118.912 302.299 118.702 301.539 118.285C300.78 117.867 300.145 117.257 299.697 116.516C299.697 116.516 300.019 119.936 304.069 119.715C308.119 119.494 308.305 116.187 308.305 116.187Z" fill="black"/>
<path d="M294.584 89.415C294.499 88.8186 294.493 88.2137 294.566 87.6158C294.727 86.2474 295.386 84.9862 296.418 84.0733C298.28 82.5016 300.64 83.0232 302.859 83.1282C306.877 83.3102 310.886 84.8784 312.013 88.4419C312.713 90.6717 312.422 93.3426 311.446 96.4405C310.602 99.1394 309.524 100.739 307.294 101.079L303.177 100.379C301.333 100.711 299.558 99.9795 298.196 98.7543C297.83 98.4234 297.49 98.0653 297.178 97.6832C296.884 97.3025 296.677 96.8632 296.569 96.395C296.234 95.3197 295.975 94.2226 295.791 93.1115C295.664 92.5844 295.469 92.0761 295.21 91.5993C294.902 90.9036 294.691 90.1685 294.584 89.415Z" fill="#263238"/>
<path d="M297.731 86.7085C296.702 87.2686 295.368 89.7539 295.298 95.0676C295.242 99.5728 296.66 100.735 297.381 101.081C298.102 101.428 299.52 101.284 300.903 101.106L300.805 103.805C300.805 103.805 300.623 106.689 301.729 106.878C304.743 106.689 307.284 103.941 307.284 103.941V98.1936C307.647 98.3192 308.038 98.3371 308.411 98.2452C308.784 98.1532 309.122 97.9554 309.384 97.6755C310.435 96.5834 310.785 95.0711 309.952 94.1435C309.731 93.9239 309.461 93.7597 309.165 93.6643C308.868 93.569 308.553 93.5454 308.246 93.5952C307.939 93.6451 307.647 93.7671 307.396 93.9512C307.145 94.1354 306.941 94.3764 306.801 94.6546C306.801 94.6546 305.992 94.6931 305.24 93.1669C303.887 93.2675 302.538 92.9153 301.407 92.1657C298.582 90.391 297.948 87.6186 297.731 86.7085Z" fill="#FFA8A7"/>
<path d="M301.165 93.8637C301.16 93.9747 301.187 94.0848 301.244 94.1802C301.301 94.2756 301.385 94.3522 301.485 94.4004C301.585 94.4487 301.697 94.4664 301.807 94.4514C301.918 94.4365 302.021 94.3895 302.105 94.3163C302.188 94.2431 302.249 94.1469 302.278 94.0398C302.307 93.9326 302.305 93.8191 302.27 93.7135C302.236 93.6078 302.171 93.5146 302.084 93.4455C301.997 93.3764 301.891 93.3343 301.781 93.3246C301.705 93.3189 301.628 93.3284 301.556 93.3525C301.484 93.3766 301.417 93.4149 301.36 93.465C301.302 93.5152 301.256 93.5763 301.222 93.6447C301.189 93.7132 301.169 93.7876 301.165 93.8637Z" fill="#263238"/>
<g style="mix-blend-mode:multiply" opacity="0.5">
<path d="M300.324 97.6021L298.539 98.1026C298.567 98.2221 298.618 98.3347 298.69 98.4338C298.763 98.5329 298.854 98.6165 298.959 98.6796C299.064 98.7426 299.181 98.7838 299.303 98.8008C299.424 98.8177 299.548 98.8101 299.666 98.7782C299.906 98.705 300.109 98.5417 300.232 98.3225C300.354 98.1033 300.388 97.8451 300.324 97.6021Z" fill="#FFA8A7"/>
</g>
<path d="M296.109 91.9178L297.282 91.1652C297.237 91.0867 297.176 91.0183 297.103 90.964C297.031 90.9097 296.948 90.8708 296.86 90.8495C296.772 90.8282 296.68 90.8251 296.591 90.8402C296.502 90.8554 296.416 90.8885 296.34 90.9377C296.184 91.0404 296.072 91.1993 296.029 91.3816C295.986 91.564 296.015 91.7559 296.109 91.9178Z" fill="#263238"/>
<path d="M302.021 91.9038L303.303 92.4359C303.342 92.3535 303.364 92.264 303.367 92.1728C303.371 92.0817 303.356 91.9907 303.323 91.9056C303.29 91.8204 303.241 91.7429 303.177 91.6775C303.113 91.6122 303.037 91.5606 302.953 91.5257C302.778 91.4588 302.585 91.4606 302.412 91.5308C302.239 91.601 302.1 91.7344 302.021 91.9038Z" fill="#263238"/>
<path d="M296.364 93.5666C296.349 93.7183 296.394 93.87 296.489 93.9887C296.585 94.1074 296.724 94.1834 296.875 94.2002C297.028 94.2089 297.178 94.1573 297.294 94.0565C297.409 93.9557 297.48 93.8137 297.492 93.6611C297.504 93.5841 297.5 93.5054 297.48 93.4299C297.461 93.3545 297.426 93.2838 297.378 93.2225C297.33 93.1611 297.269 93.1104 297.201 93.0734C297.132 93.0363 297.057 93.0139 296.979 93.0074C296.901 93.0008 296.823 93.0104 296.749 93.0355C296.675 93.0606 296.607 93.1006 296.55 93.1531C296.492 93.2055 296.446 93.2694 296.414 93.3405C296.382 93.4117 296.365 93.4886 296.364 93.5666Z" fill="#263238"/>
<g style="mix-blend-mode:multiply" opacity="0.5">
<path d="M299.092 93.3389L298.879 96.7413L297.107 96.1218L299.092 93.3389Z" fill="#FFA8A7"/>
</g>
<g style="mix-blend-mode:multiply" opacity="0.5">
<path d="M300.901 101.107C302.353 100.967 305.36 100.221 305.868 99.0588C305.66 99.6486 305.276 100.16 304.769 100.526C303.852 101.254 300.869 102.006 300.869 102.006L300.901 101.107Z" fill="#FFA8A7"/>
</g>
<path d="M306.803 94.6545L306.716 97.0243C306.289 97.0079 305.886 96.8229 305.595 96.5099C305.305 96.1969 305.15 95.7814 305.165 95.3546L305.242 93.1667L306.803 94.6545Z" fill="#263238"/>
<path d="M311.616 136.51C311.143 136.618 310.195 136.716 310.055 136.132C309.915 135.547 310.702 135.509 311.287 135.012C311.917 134.448 312.579 133.922 313.272 133.436C314.154 132.859 315.243 132.855 315.684 132.166C316.139 131.606 318.782 124.013 319.478 121.741C317.157 118.514 314.826 115.314 313.104 112.861C313.104 112.861 310.779 107.729 311.168 104.298C312.733 103.948 315.183 104.396 317.752 107.631C320.039 110.44 322.143 113.392 324.053 116.47C326.227 120.04 326.427 119.97 325.247 123.278C324.116 126.453 321.47 132.197 319.996 134.69C318.75 136.811 318.354 137.542 317.269 139.006C316.286 140.332 314.276 141.711 313.223 141.953C311.658 142.303 309.551 141.872 309.551 140.322C309.551 138.771 312.512 137.472 313.086 135.95C312.615 136.183 312.123 136.371 311.616 136.51Z" fill="#FFA8A7"/>
<path d="M311.053 103.946C311.053 103.946 314.406 103.903 315.372 104.646C316.674 105.626 318.295 107.824 319.223 109.035C320.15 110.246 321.673 112.095 321.673 112.095C321.673 112.095 319.972 116.495 315.834 117.177L311.896 112.21C310.923 111.174 310.062 107.866 311.053 103.946Z" fill="#F1C7FF"/>
<path d="M314.816 88.0495C314.701 87.9374 314.582 87.8324 314.466 87.7274C313.826 87.1266 312.985 86.7848 312.107 86.7683C311.407 86.7998 309.986 87.6049 309.611 86.5863C309.541 86.3462 309.541 86.0912 309.611 85.8512C310.021 84.1534 311.711 83.5548 313.294 83.6143C316.245 83.7229 318.131 86.3517 320.452 87.7869C321.3 88.2602 322.254 88.5119 323.224 88.5185C324.216 88.5644 325.209 88.4796 326.179 88.2665C327.201 88.039 328.195 87.6679 329.235 87.5419C330.274 87.4159 331.416 87.5664 332.196 88.2665C332.613 88.6781 332.907 89.1979 333.045 89.7674C333.183 90.3369 333.159 90.9336 332.977 91.4904C332.594 92.6067 331.856 93.5669 330.877 94.2243C329.893 94.9213 328.781 95.4155 327.605 95.6782C326.429 95.9408 325.212 95.9666 324.026 95.754C321.64 95.3071 319.487 94.0344 317.946 92.159C316.843 90.8323 316.045 89.2396 314.816 88.0495Z" fill="#263238"/>
<path d="M309.985 85.6307C309.824 85.5847 309.674 85.5075 309.542 85.4035C309.411 85.2995 309.302 85.1706 309.221 85.0243C309.14 84.8781 309.088 84.7172 309.069 84.551C309.05 84.3848 309.064 84.2164 309.11 84.0555C309.156 83.8946 309.233 83.7443 309.337 83.6133C309.441 83.4822 309.57 83.373 309.716 83.2917C309.862 83.2104 310.023 83.1588 310.189 83.1397C310.356 83.1206 310.524 83.1344 310.685 83.1804L309.985 85.6307Z" fill="#263238"/>
<path d="M303.655 151.426C303.645 151.411 303.638 151.393 303.634 151.375C303.631 151.357 303.633 151.338 303.638 151.321C303.648 151.285 303.67 151.254 303.701 151.233L304.901 150.481L304.992 150.428C305.023 150.414 305.057 150.408 305.09 150.411L305.486 150.453C305.523 150.457 305.557 150.476 305.58 150.504C305.604 150.533 305.615 150.57 305.612 150.607L305.262 153.904C305.257 153.94 305.238 153.973 305.209 153.996C305.181 154.019 305.144 154.03 305.108 154.027L304.695 153.985C304.658 153.98 304.624 153.961 304.6 153.932C304.589 153.918 304.581 153.902 304.576 153.884C304.571 153.867 304.57 153.849 304.572 153.831L304.838 151.31L304.054 151.8C304.024 151.818 303.988 151.824 303.953 151.818C303.916 151.807 303.884 151.783 303.862 151.751L303.655 151.426Z" fill="#F1C7FF"/>
<path d="M308.87 152.16C308.87 152.223 308.87 152.297 308.87 152.374L308.842 152.616L308.817 152.854C308.817 152.934 308.8 153.004 308.789 153.067C308.761 153.253 308.711 153.435 308.642 153.61C308.579 153.766 308.484 153.907 308.362 154.023C308.233 154.138 308.078 154.222 307.911 154.268C307.702 154.323 307.484 154.336 307.27 154.306C307.054 154.288 306.842 154.23 306.647 154.135C306.492 154.051 306.36 153.931 306.262 153.785C306.167 153.646 306.102 153.488 306.073 153.323C306.041 153.138 306.03 152.95 306.041 152.763C306.041 152.633 306.062 152.486 306.08 152.321C306.097 152.157 306.115 152.01 306.136 151.88C306.164 151.693 306.215 151.51 306.286 151.334C306.349 151.176 306.445 151.033 306.566 150.914C306.694 150.796 306.847 150.708 307.015 150.659C307.224 150.6 307.443 150.586 307.659 150.617C307.874 150.635 308.084 150.693 308.278 150.788C308.435 150.871 308.568 150.991 308.667 151.138C308.762 151.277 308.827 151.435 308.856 151.6C308.882 151.786 308.887 151.974 308.87 152.16ZM306.717 152.826C306.701 153.028 306.741 153.232 306.833 153.414C306.888 153.491 306.961 153.555 307.045 153.599C307.13 153.644 307.224 153.668 307.319 153.669C307.413 153.689 307.509 153.685 307.601 153.66C307.693 153.634 307.778 153.587 307.848 153.522C307.979 153.365 308.062 153.173 308.086 152.969C308.107 152.84 308.124 152.7 308.142 152.542C308.159 152.384 308.17 152.241 308.177 152.111C308.194 151.908 308.154 151.705 308.061 151.523C308.006 151.446 307.933 151.382 307.848 151.338C307.764 151.293 307.67 151.269 307.575 151.268C307.481 151.248 307.384 151.252 307.292 151.278C307.2 151.304 307.115 151.352 307.046 151.418C306.915 151.575 306.832 151.766 306.808 151.968C306.787 152.094 306.77 152.237 306.752 152.395C306.735 152.553 306.724 152.696 306.717 152.826Z" fill="#F1C7FF"/>
<path d="M263.781 163.019C264.975 160.615 265.493 158.546 265.367 157.107C264.768 150.4 263.967 141.645 263.288 136.622C262.836 133.293 261.947 129.621 260.561 123.32C260.561 122.05 260.368 120.002 260.368 120.002L246.037 120.415C243.214 126.095 241.534 132.273 241.091 138.6C240.647 144.12 239.631 149.802 239.453 152.798C236.012 154.247 234.202 156.256 232.592 157.723C229.743 160.328 222.609 168.004 221.121 168.603L221.03 168.69C220.375 169.39 219.465 172.516 218.776 174.403C218.314 175.67 218.002 177.693 218.807 179.304C219.574 180.84 220.501 181.26 220.953 179.622C221.033 179.034 221.103 178.453 221.18 177.91C221.425 176.234 223.256 172.772 226.547 170.615C228.171 169.565 237.167 163.88 244.91 159.942C247.151 158.801 248.267 157.216 249.317 154.933C250.686 151.954 253.028 145.92 253.028 145.92L255.611 158.945C254.032 161.451 253.07 163.604 252.002 168.568C251.013 172.953 249.727 177.267 248.152 181.477C248.057 181.757 247.966 182.037 247.872 182.318C247.754 182.762 247.613 183.201 247.448 183.63C247.176 184.139 247.005 184.695 246.944 185.268C246.906 185.836 247.01 186.403 247.245 186.921C247.382 187.215 247.56 187.491 247.686 187.792C247.938 188.491 248.009 189.243 247.893 189.977C247.816 190.715 247.665 191.447 247.662 192.185C247.648 193.273 248.001 194.333 248.663 195.196C248.996 195.621 249.413 195.973 249.888 196.231C250.363 196.488 250.886 196.644 251.425 196.691C251.832 196.737 252.244 196.65 252.597 196.442C252.847 196.243 253.04 195.982 253.156 195.684C253.272 195.386 253.306 195.063 253.255 194.748C253.149 194.12 252.967 193.508 252.713 192.924C252.475 192.25 252.296 191.557 252.181 190.852C251.973 189.485 251.895 188.102 251.95 186.721C251.978 185.429 251.901 184.012 252.569 182.871C252.576 182.846 260.361 169.926 263.781 163.019Z" fill="#FFA8A7"/>
<path d="M252.572 182.856C252.572 182.856 259.09 172.04 262.818 164.913C260.648 165.34 255.761 163.597 254.158 161.577C253.353 163.299 252.702 165.34 252.005 168.578C251.016 172.964 249.73 177.277 248.155 181.488C248.06 181.768 247.969 182.048 247.875 182.328C247.757 182.773 247.616 183.211 247.451 183.64C247.18 184.146 247.009 184.698 246.947 185.268C246.909 185.835 247.013 186.403 247.248 186.92C247.385 187.214 247.563 187.491 247.689 187.792C247.941 188.491 248.013 189.242 247.896 189.976C247.819 190.715 247.668 191.447 247.665 192.185C247.651 193.272 248.004 194.333 248.666 195.196C248.999 195.621 249.416 195.973 249.891 196.23C250.366 196.488 250.889 196.644 251.428 196.69C251.835 196.737 252.247 196.65 252.6 196.442C252.85 196.243 253.043 195.982 253.159 195.684C253.275 195.386 253.309 195.063 253.258 194.747C253.152 194.12 252.97 193.507 252.716 192.924C252.478 192.25 252.299 191.557 252.184 190.851C251.976 189.485 251.898 188.102 251.953 186.721C251.981 185.429 251.904 184.011 252.572 182.856Z" fill="#37474F"/>
<path d="M254.159 161.577C253.872 162.193 253.603 162.855 253.344 163.59C254.453 164.681 255.774 165.535 257.226 166.097C258.677 166.659 260.228 166.919 261.783 166.859C262.133 166.191 262.484 165.536 262.834 164.913C260.649 165.34 255.763 163.597 254.159 161.577Z" fill="#F1C7FF"/>
<path d="M246.13 184.355C245.906 184.635 245.503 185.216 245.548 185.538C245.594 185.86 246.179 187.512 246.249 189.22C246.312 190.733 245.65 193.607 247.106 195.654C248.387 197.454 249.557 197.874 250.607 198.073C251.017 198.175 251.446 198.178 251.858 198.081C252.27 197.983 252.652 197.789 252.973 197.513C252.973 197.513 253.904 196.68 253.491 196.036C253.078 195.392 246.13 184.355 246.13 184.355Z" fill="#37474F"/>
<path d="M246.037 184.499C246.089 184.079 246.276 183.687 246.569 183.382C247.003 182.909 247.476 182.507 247.647 181.866C247.707 181.635 247.759 181.208 248.039 181.131H248.316L248.102 181.765C248.221 182.027 248.452 182.636 248.561 182.906C248.816 183.606 248.498 184.338 249.002 184.95C249.037 184.173 249.069 183.277 249.583 183.284C249.933 183.284 250.549 183.76 251.249 183.861C251.949 183.963 252.502 183.819 252.776 183.921C253.049 184.023 252.895 184.373 252.72 185.174C252.494 186.082 252.366 187.011 252.338 187.947C252.394 188.689 252.474 189.455 252.583 190.19C253 193.008 254.022 194.461 253.791 195.977C253.549 197.552 251.067 198.105 249.282 196.74C246.247 194.419 246.874 192.084 246.926 190.355C246.99 189.241 246.887 188.124 246.622 187.04C246.356 186 246.062 185.475 246.037 184.499Z" fill="#F1C7FF"/>
<path opacity="0.4" d="M246.037 184.499C246.089 184.079 246.276 183.687 246.569 183.382C247.003 182.909 247.476 182.507 247.647 181.866C247.707 181.635 247.759 181.208 248.039 181.131H248.316L248.102 181.765C248.221 182.027 248.452 182.636 248.561 182.906C248.816 183.606 248.498 184.338 249.002 184.95C249.037 184.173 249.069 183.277 249.583 183.284C249.933 183.284 250.549 183.76 251.249 183.861C251.949 183.963 252.502 183.819 252.776 183.921C253.049 184.023 252.895 184.373 252.72 185.174C252.494 186.082 252.366 187.011 252.338 187.947C252.394 188.689 252.474 189.455 252.583 190.19C253 193.008 254.022 194.461 253.791 195.977C253.549 197.552 251.067 198.105 249.282 196.74C246.247 194.419 246.874 192.084 246.926 190.355C246.99 189.241 246.887 188.124 246.622 187.04C246.356 186 246.062 185.475 246.037 184.499Z" fill="black"/>
<path opacity="0.15" d="M247.643 181.855C247.643 181.855 247.643 181.855 247.643 181.876C247.644 181.888 247.644 181.9 247.643 181.911C247.705 182.301 247.791 182.687 247.902 183.066C248 183.522 248.063 183.984 248.129 184.442C248.175 184.764 248.196 185.086 248.213 185.412C248.231 185.737 248.241 186 248.238 186.297C248.217 187.698 248.01 188.814 248.36 190.607C248.71 192.399 249.214 192.574 249.575 192.357C249.935 192.14 249.603 191.657 249.26 190.092C248.91 188.44 249.197 186.633 249.018 184.936C248.894 184.794 248.807 184.623 248.766 184.439C248.644 183.945 248.766 183.406 248.577 182.902C248.479 182.632 248.227 182.023 248.119 181.761L248.332 181.127H248.056C247.881 181.176 247.797 181.362 247.741 181.547C247.688 181.656 247.664 181.768 247.643 181.855Z" fill="black"/>
<path opacity="0.15" d="M248.636 193.929C249.571 194.471 250.134 194.345 250.113 193.421C250.064 192.768 249.873 192.134 249.553 191.562L252.004 191.667C252.004 191.667 251.846 193.347 252.354 193.768C252.655 194.016 253.078 193.627 253.323 193.13C253.673 194.237 253.95 195.091 253.817 195.966C253.575 197.541 251.094 198.094 249.308 196.729C246.767 194.786 246.795 192.833 246.9 191.233C246.833 192.199 247.702 193.386 248.636 193.929Z" fill="black"/>
<path opacity="0.15" d="M252.7 185.237C252.498 186.119 252.38 187.018 252.35 187.922C252.406 188.664 252.486 189.431 252.595 190.166C252.665 190.645 252.756 191.086 252.854 191.496C252.835 191.723 252.758 191.941 252.63 192.13C252.318 192.406 252.182 192.375 252.007 191.667C251.814 190.869 251.807 186.483 252.707 185.237H252.7Z" fill="black"/>
<path d="M252.612 191.867C252.59 191.91 252.554 191.944 252.511 191.965C252.467 191.987 252.419 191.994 252.371 191.986C251.302 191.815 250.214 191.798 249.14 191.937C249.082 191.943 249.025 191.926 248.979 191.891C248.934 191.856 248.903 191.804 248.894 191.747C248.884 191.69 248.897 191.632 248.929 191.584C248.961 191.536 249.01 191.502 249.066 191.489C250.191 191.34 251.332 191.358 252.451 191.541C252.51 191.553 252.562 191.586 252.596 191.635C252.63 191.685 252.644 191.745 252.633 191.804C252.63 191.826 252.623 191.847 252.612 191.867Z" fill="#E0E0E0"/>
<path d="M252.545 190.708C252.52 190.757 252.478 190.795 252.427 190.815C252.376 190.835 252.32 190.835 252.268 190.817C251.191 190.452 250.027 190.434 248.939 190.764C248.911 190.778 248.879 190.785 248.848 190.786C248.816 190.786 248.784 190.78 248.755 190.768C248.726 190.756 248.699 190.737 248.677 190.714C248.655 190.691 248.639 190.664 248.628 190.634C248.618 190.604 248.613 190.572 248.616 190.54C248.618 190.509 248.628 190.478 248.643 190.45C248.658 190.422 248.679 190.397 248.704 190.378C248.729 190.359 248.758 190.345 248.789 190.337C249.975 189.97 251.247 189.988 252.422 190.39C252.478 190.411 252.524 190.453 252.549 190.507C252.575 190.562 252.578 190.623 252.559 190.68L252.545 190.708Z" fill="#E0E0E0"/>
<path d="M252.547 189.609C252.521 189.662 252.475 189.702 252.419 189.721C252.364 189.74 252.303 189.736 252.25 189.711C251.153 189.239 249.928 189.155 248.777 189.473C248.748 189.486 248.716 189.493 248.684 189.493C248.652 189.493 248.62 189.487 248.59 189.474C248.561 189.461 248.535 189.441 248.513 189.417C248.492 189.393 248.475 189.365 248.466 189.334C248.456 189.304 248.453 189.271 248.457 189.239C248.46 189.207 248.471 189.176 248.487 189.149C248.504 189.121 248.526 189.097 248.553 189.079C248.579 189.06 248.609 189.048 248.641 189.042C249.9 188.685 251.244 188.776 252.442 189.301C252.469 189.314 252.494 189.332 252.514 189.354C252.534 189.376 252.55 189.402 252.56 189.431C252.57 189.459 252.574 189.489 252.573 189.519C252.571 189.549 252.564 189.578 252.551 189.606L252.547 189.609Z" fill="#E0E0E0"/>
<path d="M252.566 188.45C252.534 188.502 252.484 188.539 252.426 188.554C252.368 188.569 252.306 188.561 252.254 188.531C250.682 187.624 248.82 188.181 248.803 188.181C248.773 188.194 248.742 188.201 248.709 188.201C248.677 188.202 248.645 188.195 248.616 188.182C248.586 188.169 248.56 188.15 248.538 188.126C248.517 188.102 248.501 188.073 248.491 188.043C248.481 188.012 248.478 187.98 248.482 187.948C248.486 187.916 248.496 187.885 248.513 187.857C248.529 187.829 248.552 187.806 248.578 187.787C248.604 187.769 248.634 187.756 248.666 187.75C248.75 187.726 250.731 187.117 252.482 188.125C252.51 188.14 252.534 188.16 252.554 188.185C252.573 188.21 252.588 188.238 252.595 188.269C252.603 188.3 252.605 188.332 252.6 188.363C252.595 188.394 252.583 188.424 252.566 188.45Z" fill="#E0E0E0"/>
<path d="M252.549 187.218V187.236C252.516 187.286 252.466 187.321 252.407 187.335C252.349 187.348 252.288 187.337 252.237 187.306C250.739 186.357 248.737 186.956 248.737 186.956C248.679 186.973 248.617 186.967 248.564 186.939C248.511 186.911 248.471 186.863 248.453 186.805C248.444 186.777 248.442 186.747 248.444 186.718C248.447 186.688 248.456 186.66 248.47 186.634C248.484 186.608 248.503 186.585 248.526 186.566C248.549 186.548 248.575 186.534 248.604 186.525C248.695 186.497 250.816 185.864 252.493 186.924C252.537 186.958 252.567 187.006 252.577 187.061C252.587 187.115 252.577 187.171 252.549 187.218Z" fill="#E0E0E0"/>
<path d="M252.628 186.161C252.596 186.212 252.545 186.248 252.487 186.262C252.429 186.276 252.367 186.266 252.316 186.235C251.79 185.952 251.213 185.775 250.618 185.715C250.024 185.655 249.423 185.713 248.851 185.885C248.795 185.906 248.733 185.905 248.678 185.881C248.623 185.857 248.58 185.813 248.559 185.757C248.537 185.701 248.538 185.639 248.562 185.584C248.586 185.529 248.631 185.486 248.686 185.465C249.321 185.268 249.989 185.201 250.65 185.267C251.311 185.332 251.953 185.529 252.537 185.846C252.564 185.86 252.588 185.88 252.607 185.904C252.626 185.927 252.641 185.955 252.649 185.984C252.658 186.014 252.66 186.044 252.657 186.075C252.653 186.105 252.643 186.135 252.628 186.161Z" fill="#E0E0E0"/>
<path d="M242.176 161.395C240.581 160.915 239.208 159.884 238.301 158.486C237.094 156.736 237.342 153.893 237.342 153.876C235.2 155.15 233.842 156.606 232.592 157.727C229.743 160.331 222.609 168.007 221.121 168.606L221.03 168.694C220.375 169.394 219.465 172.52 218.776 174.406C218.314 175.674 218.002 177.697 218.807 179.307C219.574 180.844 220.501 181.264 220.953 179.626C221.033 179.037 221.103 178.456 221.18 177.914C221.425 176.237 223.256 172.775 226.547 170.619C227.982 169.681 235.179 165.141 242.176 161.378V161.395Z" fill="#37474F"/>
<path d="M242.18 161.395C240.584 160.915 239.211 159.884 238.305 158.486C237.097 156.736 237.346 153.893 237.346 153.876C236.64 154.295 235.963 154.763 235.322 155.276C235.361 157.453 235.875 160.702 240.013 162.571C240.734 162.169 241.459 161.773 242.18 161.385V161.395Z" fill="#F1C7FF"/>
<path d="M219.329 168.97C218.979 169.096 218.353 169.394 218.23 169.698C218.108 170.003 217.775 171.718 216.97 173.227C216.27 174.56 214.233 176.706 214.45 179.209C214.646 181.407 215.444 182.36 216.235 183.06C216.537 183.356 216.907 183.577 217.312 183.701C217.717 183.826 218.146 183.852 218.563 183.777C218.563 183.777 219.788 183.529 219.756 182.766C219.725 182.003 219.329 168.97 219.329 168.97Z" fill="#37474F"/>
<path d="M219.182 169.037C219.437 168.697 219.798 168.451 220.207 168.337C220.817 168.148 221.433 168.043 221.902 167.573C222.07 167.405 222.332 167.066 222.602 167.139C222.626 167.139 222.85 167.265 222.85 167.265L222.346 167.706C222.318 167.994 222.217 168.641 222.164 168.925C222.035 169.642 221.384 170.125 221.51 170.909C221.933 170.258 222.413 169.509 222.854 169.765C223.144 169.943 223.445 170.664 223.998 171.105C224.552 171.547 225.101 171.704 225.283 171.932C225.465 172.159 225.157 172.38 224.583 172.982C223.92 173.648 223.333 174.385 222.833 175.18C222.507 175.849 222.189 176.549 221.909 177.235C220.859 179.878 220.988 181.649 220.022 182.836C219.056 184.022 216.595 183.291 215.748 181.211C214.306 177.672 216.028 175.961 216.945 174.511C217.559 173.582 218.031 172.566 218.345 171.498C218.688 170.496 218.702 169.901 219.182 169.037Z" fill="#F1C7FF"/>
<path opacity="0.4" d="M219.182 169.037C219.437 168.697 219.798 168.451 220.207 168.337C220.817 168.148 221.433 168.043 221.902 167.573C222.07 167.405 222.332 167.066 222.602 167.139C222.626 167.139 222.85 167.265 222.85 167.265L222.346 167.706C222.318 167.994 222.217 168.641 222.164 168.925C222.035 169.642 221.384 170.125 221.51 170.909C221.933 170.258 222.413 169.509 222.854 169.765C223.144 169.943 223.445 170.664 223.998 171.105C224.552 171.547 225.101 171.704 225.283 171.932C225.465 172.159 225.157 172.38 224.583 172.982C223.92 173.648 223.333 174.385 222.833 175.18C222.507 175.849 222.189 176.549 221.909 177.235C220.859 179.878 220.988 181.649 220.022 182.836C219.056 184.022 216.595 183.291 215.748 181.211C214.306 177.672 216.028 175.961 216.945 174.511C217.559 173.582 218.031 172.566 218.345 171.498C218.688 170.496 218.702 169.901 219.182 169.037Z" fill="black"/>
<path opacity="0.15" d="M221.905 167.581L221.873 167.609C221.735 167.976 221.618 168.351 221.523 168.732C221.38 169.173 221.201 169.604 221.023 170.034C220.9 170.335 220.757 170.626 220.606 170.913C220.455 171.2 220.333 171.435 220.179 171.687C219.447 172.894 218.709 173.745 218.103 175.467C217.498 177.189 217.844 177.599 218.271 177.567C218.698 177.536 218.642 176.99 219.143 175.467C219.671 173.86 220.841 172.453 221.548 170.899C221.514 170.713 221.526 170.522 221.583 170.342C221.726 169.856 222.101 169.453 222.195 168.925C222.248 168.641 222.349 167.994 222.377 167.707L222.881 167.266L222.846 167.248L222.811 167.227L222.724 167.181L222.682 167.164C222.666 167.154 222.65 167.146 222.633 167.139C222.542 167.131 222.45 167.145 222.366 167.18C222.281 167.216 222.207 167.271 222.15 167.343C222.045 167.43 221.968 167.518 221.905 167.581Z" fill="black"/>
<path opacity="0.15" d="M216.649 178.495C217.177 179.437 217.727 179.615 218.179 178.807C218.466 178.218 218.623 177.575 218.637 176.92L220.692 178.243C220.692 178.243 219.701 179.615 219.922 180.21C220.055 180.578 220.622 180.459 221.077 180.154C220.814 181.281 220.625 182.164 220.069 182.85C219.061 184.085 216.642 183.305 215.795 181.225C214.587 178.261 215.599 176.591 216.495 175.275C215.977 176.097 216.117 177.553 216.649 178.495Z" fill="black"/>
<path opacity="0.15" d="M224.545 173.055C223.919 173.71 223.359 174.425 222.872 175.19C222.547 175.859 222.228 176.559 221.948 177.245C221.766 177.697 221.623 178.124 221.5 178.526C221.368 178.712 221.191 178.862 220.985 178.96C220.576 179.038 220.474 178.943 220.684 178.243C220.919 177.459 223.135 173.671 224.535 173.055H224.545Z" fill="black"/>
<path d="M221.124 178.73C221.085 178.758 221.038 178.774 220.989 178.774C220.941 178.774 220.893 178.758 220.854 178.73C220.019 178.041 219.089 177.475 218.093 177.049C218.037 177.028 217.992 176.984 217.968 176.93C217.944 176.875 217.943 176.813 217.965 176.757C217.987 176.701 218.03 176.657 218.084 176.633C218.139 176.609 218.201 176.607 218.257 176.629C219.302 177.067 220.276 177.657 221.148 178.38C221.194 178.419 221.221 178.474 221.226 178.534C221.231 178.593 221.212 178.652 221.173 178.698C221.158 178.711 221.142 178.722 221.124 178.73Z" fill="#E0E0E0"/>
<path d="M221.631 177.686C221.585 177.716 221.53 177.728 221.475 177.719C221.421 177.711 221.372 177.683 221.337 177.641C220.592 176.782 219.597 176.177 218.491 175.912C218.432 175.899 218.381 175.863 218.348 175.812C218.316 175.761 218.305 175.699 218.318 175.64C218.331 175.581 218.367 175.53 218.418 175.497C218.468 175.465 218.53 175.454 218.589 175.467C219.798 175.75 220.886 176.411 221.694 177.354C221.732 177.4 221.751 177.459 221.745 177.519C221.74 177.578 221.712 177.634 221.666 177.672L221.631 177.686Z" fill="#E0E0E0"/>
<path d="M222.202 176.752C222.152 176.783 222.092 176.793 222.034 176.781C221.977 176.768 221.926 176.734 221.894 176.685C221.186 175.724 220.173 175.033 219.02 174.725C218.961 174.711 218.911 174.674 218.879 174.623C218.848 174.572 218.838 174.51 218.852 174.452C218.858 174.423 218.871 174.396 218.888 174.372C218.905 174.348 218.927 174.328 218.952 174.312C218.977 174.296 219.004 174.286 219.034 174.281C219.063 174.276 219.093 174.277 219.121 174.284C220.39 174.612 221.504 175.372 222.272 176.433C222.305 176.483 222.318 176.544 222.307 176.603C222.296 176.662 222.262 176.714 222.212 176.748L222.202 176.752Z" fill="#E0E0E0"/>
<path d="M222.79 175.747C222.764 175.762 222.735 175.772 222.705 175.776C222.676 175.78 222.645 175.778 222.617 175.77C222.588 175.762 222.56 175.749 222.537 175.73C222.513 175.712 222.493 175.689 222.478 175.663C221.582 174.081 219.678 173.629 219.678 173.622C219.649 173.616 219.622 173.604 219.598 173.587C219.574 173.569 219.553 173.548 219.538 173.523C219.522 173.498 219.512 173.47 219.507 173.441C219.502 173.411 219.503 173.382 219.51 173.353C219.516 173.324 219.528 173.296 219.545 173.272C219.562 173.248 219.584 173.227 219.609 173.212C219.634 173.196 219.662 173.185 219.691 173.181C219.721 173.176 219.751 173.178 219.779 173.185C219.863 173.185 221.88 173.682 222.881 175.439C222.895 175.465 222.905 175.494 222.908 175.524C222.911 175.554 222.909 175.584 222.9 175.612C222.892 175.641 222.878 175.668 222.859 175.691C222.84 175.714 222.816 175.733 222.79 175.747Z" fill="#E0E0E0"/>
<path d="M223.422 174.697H223.404C223.351 174.724 223.289 174.729 223.232 174.711C223.175 174.692 223.127 174.652 223.1 174.599C222.288 173.02 220.264 172.523 220.247 172.499C220.218 172.493 220.19 172.481 220.166 172.464C220.142 172.447 220.121 172.425 220.106 172.4C220.09 172.375 220.08 172.347 220.075 172.317C220.07 172.288 220.072 172.258 220.079 172.229C220.086 172.201 220.098 172.173 220.115 172.149C220.132 172.125 220.154 172.105 220.179 172.089C220.204 172.074 220.232 172.063 220.261 172.058C220.29 172.054 220.32 172.055 220.348 172.061C220.439 172.082 222.592 172.611 223.499 174.375C223.516 174.401 223.527 174.43 223.533 174.461C223.538 174.491 223.537 174.523 223.53 174.553C223.523 174.583 223.509 174.611 223.491 174.636C223.472 174.661 223.449 174.682 223.422 174.697Z" fill="#E0E0E0"/>
<path d="M224.026 173.818C223.972 173.845 223.91 173.85 223.853 173.832C223.796 173.814 223.749 173.773 223.721 173.72C223.096 172.693 222.089 171.956 220.921 171.669C220.862 171.659 220.809 171.626 220.775 171.578C220.74 171.529 220.726 171.469 220.735 171.41C220.745 171.351 220.778 171.298 220.827 171.264C220.875 171.229 220.936 171.215 220.994 171.224C221.646 171.374 222.261 171.654 222.802 172.047C223.343 172.44 223.8 172.937 224.145 173.51C224.158 173.538 224.166 173.569 224.167 173.599C224.168 173.63 224.163 173.661 224.152 173.69C224.14 173.719 224.124 173.745 224.102 173.767C224.08 173.789 224.054 173.807 224.026 173.818Z" fill="#E0E0E0"/>
<path d="M244.387 124.486C243.06 127.216 241.786 130.493 240.886 136.115C239.987 141.736 239.266 147.134 239.266 147.134C239.266 147.134 239.266 149.157 243.816 150.568C248.367 151.979 251.717 150.4 251.717 150.4L252.767 147.355L253.443 149.62C253.443 149.62 255.518 150.554 259.453 150.008C263.387 149.462 265.327 146.963 265.327 146.963C265.327 146.963 262.803 129.751 261.147 126.415L244.387 124.486Z" fill="#455A64"/>
<path d="M252.807 147.355L254.644 141.443C254.644 141.443 257.795 140.714 260.217 137.273C260.217 137.273 260.217 140.802 255.316 142.601L253.752 146.889L253.503 149.609L252.807 147.355Z" fill="#37474F"/>
<path d="M244.469 147.085C244.462 147.07 244.459 147.053 244.459 147.036C244.459 147.02 244.462 147.003 244.469 146.987C244.473 146.971 244.48 146.955 244.49 146.942C244.5 146.929 244.514 146.918 244.529 146.91L245.649 146.242L245.733 146.196C245.763 146.188 245.794 146.188 245.824 146.196L246.174 146.245C246.191 146.246 246.207 146.251 246.222 146.259C246.237 146.268 246.249 146.28 246.258 146.294C246.269 146.307 246.277 146.321 246.282 146.337C246.287 146.352 246.288 146.369 246.286 146.385L245.897 149.399C245.897 149.416 245.892 149.433 245.883 149.447C245.875 149.462 245.863 149.474 245.848 149.483C245.836 149.494 245.821 149.501 245.806 149.506C245.79 149.51 245.773 149.51 245.757 149.508L245.376 149.459C245.359 149.457 245.343 149.452 245.328 149.443C245.314 149.435 245.301 149.423 245.292 149.41C245.272 149.383 245.263 149.349 245.267 149.315L245.568 147.001L244.833 147.435C244.818 147.442 244.802 147.446 244.786 147.446C244.77 147.446 244.754 147.442 244.739 147.435C244.705 147.427 244.676 147.405 244.658 147.376L244.469 147.085Z" fill="#F1C7FF"/>
<path d="M248.04 149.808C248.006 149.804 247.976 149.786 247.956 149.759C247.936 149.732 247.927 149.698 247.931 149.665L248.005 149.098L246.552 148.909C246.535 148.907 246.519 148.902 246.504 148.893C246.49 148.885 246.477 148.873 246.468 148.86C246.457 148.847 246.449 148.831 246.445 148.815C246.441 148.799 246.44 148.782 246.443 148.765L246.485 148.433C246.49 148.392 246.506 148.353 246.531 148.321L246.618 148.226L248.281 146.623C248.307 146.592 248.339 146.568 248.375 146.553C248.412 146.537 248.451 146.53 248.491 146.532L248.841 146.577C248.875 146.583 248.905 146.6 248.926 146.627C248.946 146.654 248.956 146.687 248.953 146.721L248.708 148.594L249.111 148.646C249.144 148.651 249.174 148.669 249.195 148.696C249.216 148.722 249.226 148.756 249.223 148.79L249.181 149.122C249.176 149.156 249.158 149.186 249.132 149.206C249.104 149.226 249.071 149.235 249.037 149.231L248.635 149.178L248.561 149.745C248.559 149.762 248.553 149.778 248.544 149.793C248.535 149.807 248.523 149.82 248.509 149.829C248.496 149.84 248.482 149.848 248.466 149.853C248.45 149.857 248.434 149.859 248.418 149.857L248.04 149.808ZM248.082 148.513L248.211 147.509L247.294 148.408L248.082 148.513Z" fill="#F1C7FF"/>
<path d="M247.88 127.983L247.148 126.894C245.202 130.465 243.14 142.198 242.178 149.941C242.465 150.071 242.78 150.201 243.123 150.323C243.774 145.104 245.454 133.237 247.88 127.983Z" fill="#F1C7FF"/>
<path d="M240.311 148.793C240.593 149.04 240.897 149.259 241.221 149.448C241.896 144.085 243.559 132.569 245.939 127.395L245.194 126.317C243.307 129.8 241.298 141.05 240.311 148.793Z" fill="#F1C7FF"/>
<path d="M274.691 92.4705C274.228 93.9531 273.484 95.3328 272.5 96.5346C267.974 102.16 263.15 105.524 260.763 110.446C258.022 110.095 254.462 105.349 256.667 102.625C259.061 101.771 267.998 92.2955 268.831 90.9198C269.584 89.4811 272.122 82.8687 272.717 80.3693C272.807 79.949 272.743 79.5101 272.535 79.1337C271.954 78.0345 272.027 76.8583 271.765 75.7452C271.558 74.8806 271.187 74.4745 271.359 74.345C271.575 74.2093 271.835 74.1602 272.086 74.2075C272.337 74.2549 272.561 74.3952 272.713 74.6005C273.103 75.1515 273.44 75.7375 273.721 76.3508C273.802 75.3468 273.809 74.3383 273.742 73.3334C273.595 71.023 274.127 69.3043 276.69 70.7745C278.3 71.6951 279.196 74.0615 278.339 78.2865C278.093 79.5047 277.411 81.9936 276.973 83.7403C276.165 86.9783 275.818 89.5406 274.691 92.4705Z" fill="#FFA8A7"/>
<path d="M255.221 102.633C256.306 102.118 257.608 101.702 259.04 100.532C260.534 99.3143 262.393 97.9351 262.393 97.9351C262.393 97.9351 265.649 100.585 265.572 104.498C264.371 105.709 263.329 107.066 262.47 108.538C261.823 109.673 261.317 110.883 260.962 112.14C260.962 112.14 257.356 112.84 256.698 108.962C256.351 106.821 255.857 104.706 255.221 102.633Z" fill="#F1C7FF"/>
<path d="M260.479 121.286C260.612 120.138 260.577 118.017 260.598 117.436C263.623 114.856 262.944 111.856 261.998 109.63C260.084 105.177 258.148 102.608 256.247 102.594L250.996 102.744C248.284 102.793 245.151 102.947 244.454 103.066C242.679 103.371 241.853 105.167 241.654 107.032C241.451 109.07 240.971 109.227 241.304 112.633C241.304 112.633 242.525 116.134 243.617 119.232C243.617 119.232 244.013 121.521 243.617 122.585C242.889 124.556 241.843 129.124 241.479 132.449C241.479 132.449 243.407 135.183 252.134 135.18C255.933 135.178 259.645 134.041 262.793 131.914L260.479 121.286Z" fill="#F1C7FF"/>
<path d="M242.506 109.504C242.506 109.801 242.527 110.123 242.555 110.491L261.906 109.441C261.759 109.091 261.615 108.786 261.472 108.475L242.506 109.504Z" fill="#455A64"/>
<path d="M256.235 102.604L250.985 102.755C248.272 102.804 245.139 102.958 244.442 103.077C242.668 103.382 242.808 104.992 242.622 106.847C242.532 107.377 242.484 107.913 242.479 108.45L260.996 107.533C259.414 104.39 257.821 102.615 256.235 102.604Z" fill="#455A64"/>
<path opacity="0.1" d="M245.939 122.54C245.19 121.91 245.522 120.289 245.029 118.29C244.535 116.291 243.478 114.09 243.901 112.977C244.325 111.863 245.358 109.651 245.232 106.459L242.043 105.387C241.85 105.927 241.727 106.49 241.675 107.061C241.472 109.098 240.993 109.255 241.325 112.661C241.325 112.661 242.547 116.162 243.639 119.26C243.639 119.26 244.035 121.549 243.639 122.613C242.911 124.584 241.864 129.152 241.5 132.478C241.5 132.478 243.429 135.212 252.156 135.208H252.415C255.982 124.311 246.656 123.138 245.939 122.54Z" fill="black"/>
<path opacity="0.1" d="M247.203 115.315C247.581 116.133 248.188 116.824 248.95 117.304C249.712 117.785 250.597 118.035 251.498 118.024C252.364 118.043 253.22 117.834 253.979 117.416C254.738 116.999 255.374 116.389 255.821 115.647C255.821 115.647 255.499 119.067 251.449 118.843C247.399 118.619 247.203 115.315 247.203 115.315Z" fill="black"/>
<path d="M261.564 88.6345C262.105 87.1933 262.28 85.6408 262.075 84.1153C261.535 84.2823 260.986 84.4179 260.43 84.5214C260.618 84.0836 260.831 83.657 261.067 83.2437C261.306 82.8278 261.427 82.3546 261.417 81.875C261.405 81.6363 261.323 81.4065 261.181 81.2142C261.039 81.0218 260.844 80.8755 260.619 80.7934C260.203 80.7332 259.779 80.8068 259.408 81.0034C257.242 81.7907 254.96 82.2153 252.656 82.2601C248.637 82.4421 244.629 84.0103 243.502 87.5738C242.802 89.8036 243.435 92.8035 244.492 95.4114C245.55 98.0192 247.188 99.962 248.22 100.207L252.337 99.507C254.182 99.836 255.957 99.1079 257.318 97.8827C257.684 97.5518 258.025 97.1938 258.337 96.8116C258.629 96.4306 258.837 95.9913 258.946 95.5234C259.28 94.448 259.54 93.3509 259.723 92.24C259.751 92.0188 259.804 91.8015 259.881 91.5924C259.993 91.3649 260.133 91.1521 260.297 90.9588C260.829 90.2486 261.255 89.4658 261.564 88.6345Z" fill="#263238"/>
<path d="M257.774 85.8406C258.803 86.3972 260.137 88.886 260.207 94.1997C260.263 98.7013 258.845 99.867 258.124 100.214C257.403 100.56 255.985 100.417 254.602 100.235L254.7 102.937C254.7 102.937 254.882 105.821 253.78 106.01C250.762 105.821 248.221 103.073 248.221 103.073V97.3257C247.858 97.4504 247.467 97.4678 247.094 97.376C246.722 97.2841 246.384 97.0867 246.121 96.8076C245.07 95.7154 244.72 94.1997 245.554 93.2756C245.774 93.0559 246.044 92.8917 246.34 92.7964C246.637 92.7011 246.952 92.6774 247.259 92.7273C247.567 92.7772 247.858 92.8992 248.109 93.0833C248.36 93.2675 248.564 93.5085 248.704 93.7867C248.704 93.7867 249.513 93.8252 250.265 92.299C251.625 92.403 252.98 92.0494 254.116 91.2943C256.923 89.5196 257.557 86.7507 257.774 85.8406Z" fill="#FFA8A7"/>
<path d="M254.346 92.9918C254.354 93.0673 254.347 93.1436 254.326 93.2165C254.304 93.2893 254.269 93.3571 254.221 93.416C254.173 93.4749 254.114 93.5238 254.047 93.5597C253.98 93.5957 253.907 93.618 253.831 93.6254C253.715 93.6397 253.597 93.6188 253.493 93.5655C253.388 93.5122 253.302 93.4289 253.245 93.3263C253.189 93.2237 253.164 93.1065 253.174 92.9897C253.185 92.873 253.23 92.762 253.303 92.6709C253.377 92.5799 253.477 92.5131 253.589 92.479C253.701 92.4449 253.821 92.4451 253.933 92.4796C254.045 92.5141 254.144 92.5813 254.218 92.6726C254.291 92.7638 254.336 92.875 254.346 92.9918Z" fill="#263238"/>
<g style="mix-blend-mode:multiply" opacity="0.5">
<path d="M255.18 96.7344L256.965 97.2349C256.938 97.3539 256.886 97.4661 256.814 97.5648C256.742 97.6635 256.651 97.7467 256.546 97.8095C256.441 97.8722 256.325 97.9131 256.204 97.9299C256.083 97.9467 255.96 97.9389 255.842 97.907C255.601 97.8361 255.397 97.6739 255.273 97.4549C255.15 97.236 255.116 96.9775 255.18 96.7344Z" fill="#F28F8F"/>
</g>
<path d="M259.399 91.0352L258.227 90.2826C258.271 90.2034 258.332 90.1342 258.404 90.0793C258.476 90.0245 258.559 89.9852 258.648 89.9638C258.736 89.9425 258.828 89.9396 258.918 89.9553C259.007 89.971 259.092 90.0049 259.168 90.0551C259.326 90.1572 259.437 90.3162 259.48 90.4988C259.524 90.6814 259.494 90.8736 259.399 91.0352Z" fill="#263238"/>
<path d="M253.486 91.0357L252.197 91.5817C252.158 91.4995 252.135 91.4099 252.131 91.3186C252.128 91.2273 252.143 91.1362 252.175 91.0509C252.208 90.9656 252.258 90.888 252.322 90.8227C252.386 90.7575 252.463 90.7061 252.547 90.6716C252.721 90.6008 252.915 90.599 253.089 90.6667C253.264 90.7345 253.405 90.8665 253.486 91.0357Z" fill="#263238"/>
<path d="M259.143 92.6982C259.148 92.8092 259.121 92.9193 259.064 93.0147C259.007 93.1101 258.923 93.1867 258.823 93.2349C258.723 93.2831 258.611 93.3009 258.501 93.2859C258.39 93.2709 258.287 93.2239 258.203 93.1508C258.12 93.0776 258.059 92.9814 258.03 92.8742C258.001 92.7671 258.003 92.6536 258.038 92.548C258.072 92.4423 258.137 92.3491 258.224 92.28C258.311 92.2108 258.417 92.1688 258.527 92.1591C258.603 92.1534 258.68 92.1629 258.752 92.187C258.824 92.2111 258.891 92.2493 258.948 92.2995C259.006 92.3497 259.052 92.4108 259.086 92.4792C259.119 92.5477 259.139 92.6221 259.143 92.6982Z" fill="#263238"/>
<g style="mix-blend-mode:multiply" opacity="0.5">
<path d="M256.416 92.4709L256.626 95.8734L258.401 95.2538L256.416 92.4709Z" fill="#F28F8F"/>
</g>
<g style="mix-blend-mode:multiply" opacity="0.5">
<path d="M254.602 100.235C253.149 100.098 250.142 99.3493 249.635 98.1907C249.842 98.7796 250.226 99.2904 250.734 99.6539C251.651 100.385 254.633 101.138 254.633 101.138L254.602 100.235Z" fill="#F28F8F"/>
</g>
<path d="M248.715 93.7865L248.802 96.1529C249.014 96.1456 249.222 96.0967 249.415 96.0087C249.607 95.9208 249.781 95.7956 249.925 95.6405C250.069 95.4853 250.181 95.3032 250.255 95.1045C250.328 94.9059 250.361 94.6947 250.353 94.4831L250.276 92.2988L248.715 93.7865Z" fill="#263238"/>
<path d="M244.243 141.432C249.172 141.432 253.169 137.436 253.169 132.506C253.169 127.576 249.172 123.58 244.243 123.58C239.313 123.58 235.316 127.576 235.316 132.506C235.316 137.436 239.313 141.432 244.243 141.432Z" fill="#F5F5F5"/>
<path d="M245.806 128.158C244.555 128.254 243.334 128.597 242.215 129.166C242.103 130.368 242.103 131.577 242.215 132.779C243.229 133.296 244.311 133.669 245.428 133.885C245.428 133.885 247.137 132.485 247.606 131.186C247.26 130.046 246.643 129.007 245.806 128.158Z" fill="#455A64"/>
<path d="M239.827 127.651L239.575 127.15C239.558 127.171 239.544 127.196 239.526 127.22L239.484 127.273L239.722 127.749L242.173 129.222L242.439 129.422C242.446 129.405 242.455 129.388 242.467 129.373C242.484 129.351 242.504 129.331 242.526 129.313L242.25 129.107L239.827 127.651Z" fill="#455A64"/>
<path d="M244.922 124.199C244.715 124.174 244.494 124.15 244.246 124.132C242.944 124.042 241.649 124.376 240.553 125.085L240.049 125.375C240.072 125.417 240.088 125.462 240.098 125.508L240.626 125.2C241.697 124.508 242.963 124.182 244.235 124.269C244.55 124.293 244.83 124.325 245.076 124.36C245.012 124.319 244.96 124.264 244.922 124.199Z" fill="#455A64"/>
<path d="M246.667 125.375L246.548 125.767L245.743 128.134L245.551 128.634C245.596 128.643 245.641 128.656 245.684 128.673L245.873 128.179L246.681 125.809L246.8 125.414C246.755 125.406 246.71 125.393 246.667 125.375Z" fill="#455A64"/>
<path d="M250.968 131.263C250.878 131.339 250.783 131.409 250.684 131.473C249.666 131.298 248.639 131.182 247.607 131.123H247.558C247.495 131.123 247.432 131.129 247.369 131.14C247.373 131.186 247.373 131.231 247.369 131.277C247.446 131.268 247.523 131.268 247.6 131.277C248.634 131.334 249.664 131.451 250.684 131.627H250.712H250.733C250.83 131.568 250.921 131.502 251.006 131.427C250.987 131.374 250.974 131.319 250.968 131.263Z" fill="#455A64"/>
<path d="M249.681 126.306C250.227 126.828 251.246 127.804 251.662 129.156C251.696 129.262 251.721 129.371 251.736 129.481C251.778 129.462 251.821 129.447 251.865 129.436C251.85 129.328 251.827 129.221 251.795 129.117C251.368 127.717 250.332 126.737 249.776 126.205C249.709 126.145 249.653 126.089 249.604 126.04C249.494 125.934 249.377 125.834 249.254 125.743C249.246 125.765 249.236 125.786 249.222 125.806C249.207 125.823 249.19 125.839 249.17 125.851C249.283 125.941 249.39 126.037 249.492 126.138L249.681 126.306Z" fill="#455A64"/>
<path d="M245.501 133.885C245.501 133.829 245.571 133.647 245.662 133.402C245.61 133.429 245.553 133.447 245.494 133.454C245.414 133.682 245.368 133.839 245.361 133.867L246.236 137.189H246.257C246.282 137.207 246.565 137.406 246.891 137.623H246.923L247.07 137.588C246.811 137.42 246.544 137.238 246.369 137.105L245.501 133.885Z" fill="#455A64"/>
<path d="M251.686 134.336C251.62 134.501 251.546 134.686 251.462 134.847C250.928 135.887 250.19 136.808 249.292 137.557C249.166 137.623 248.942 137.732 248.711 137.833C248.753 137.861 248.789 137.895 248.819 137.935C249.085 137.819 249.313 137.7 249.366 137.669C250.287 136.909 251.043 135.969 251.588 134.907C251.665 134.746 251.732 134.585 251.795 134.431C251.756 134.403 251.719 134.372 251.686 134.336Z" fill="#455A64"/>
<path d="M242.601 132.478C242.475 132.544 242.335 132.625 242.177 132.719C241.238 133.344 240.353 134.047 239.531 134.82C239.496 134.876 239.384 135.072 239.258 135.334C239.292 135.373 239.324 135.414 239.352 135.457C239.461 135.233 239.566 135.033 239.643 134.897C240.456 134.125 241.332 133.423 242.261 132.796C242.433 132.691 242.587 132.607 242.72 132.537C242.678 132.521 242.638 132.501 242.601 132.478Z" fill="#455A64"/>
<path d="M244.565 139.139C244.33 139.139 244.064 139.114 243.77 139.09C242.582 139.003 241.441 138.583 240.48 137.879H240.462C240.317 137.845 240.175 137.801 240.035 137.749C240.035 137.798 240.035 137.844 240.035 137.893C240.228 137.959 240.385 137.998 240.431 138.012C241.412 138.726 242.574 139.153 243.784 139.244L244.53 139.289C244.531 139.237 244.543 139.186 244.565 139.139Z" fill="#455A64"/>
<path d="M236.99 133.741C237.037 133.731 237.086 133.731 237.134 133.741C237.091 133.586 237.057 133.428 237.032 133.269C236.938 132.094 236.996 130.911 237.204 129.751C237.245 129.538 237.298 129.328 237.361 129.121C237.328 129.124 237.296 129.124 237.263 129.121H237.214C237.158 129.314 237.109 129.514 237.067 129.719C236.856 130.895 236.798 132.092 236.896 133.283C236.92 133.444 236.952 133.598 236.99 133.741Z" fill="#455A64"/>
<path d="M244.242 124.199C245.133 124.562 245.941 125.103 246.616 125.788C247.606 125.715 248.601 125.817 249.556 126.089C249.528 125.795 249.475 125.503 249.398 125.218C248.093 124.292 246.562 123.736 244.967 123.607C244.712 123.788 244.47 123.986 244.242 124.199Z" fill="#455A64"/>
<path d="M252.898 130.321C252.556 129.881 252.164 129.483 251.728 129.135C251.472 129.972 251.127 130.779 250.699 131.543C251.054 132.634 251.329 133.749 251.522 134.879C252.011 134.781 252.49 134.639 252.954 134.455C253.256 133.092 253.237 131.676 252.898 130.321Z" fill="#455A64"/>
<path d="M238.315 138.534C238.315 138.534 239.754 138.404 240.44 137.935C240.44 137.935 239.988 136.58 239.582 134.886C238.663 134.428 237.787 133.889 236.964 133.276C236.964 133.276 236.404 133.857 236.264 135.702C236.756 136.77 237.453 137.732 238.315 138.534Z" fill="#455A64"/>
<path d="M236.445 128.193C236.551 128.756 236.791 129.286 237.145 129.737C237.823 128.83 238.736 128.125 239.785 127.699C239.995 126.829 240.267 125.975 240.6 125.144C240.16 125.092 239.717 125.076 239.274 125.095C238.098 125.888 237.128 126.95 236.445 128.193Z" fill="#455A64"/>
<path d="M249.32 137.616C248.298 137.584 247.283 137.433 246.296 137.165C245.522 137.915 244.673 138.584 243.762 139.16C243.762 139.16 244.402 140.455 245.183 140.931C246.328 140.809 247.442 140.488 248.477 139.983C248.904 139.254 249.19 138.451 249.32 137.616Z" fill="#455A64"/>
<path opacity="0.1" d="M251.93 137.046C250.435 139.164 244.677 140.501 241.005 135.737C237.333 130.972 239.454 125.498 242.125 123.835C240.695 124.184 239.373 124.882 238.277 125.866C237.182 126.85 236.347 128.09 235.847 129.475C235.347 130.859 235.197 132.347 235.411 133.803C235.625 135.26 236.196 136.641 237.073 137.824C237.95 139.007 239.107 139.954 240.439 140.581C241.771 141.209 243.237 141.497 244.708 141.42C246.178 141.344 247.607 140.905 248.866 140.142C250.126 139.379 251.177 138.317 251.926 137.049L251.93 137.046Z" fill="black"/>
<path d="M241.555 136.09C242.014 136.237 242.956 136.416 243.141 135.845C243.327 135.275 242.55 135.17 242.007 134.627C241.426 134.008 240.808 133.424 240.159 132.877C239.329 132.226 238.244 132.135 237.862 131.41C237.453 130.815 235.524 122.284 235.016 119.964C237.603 116.943 239.952 114.394 241.877 112.091C241.877 112.091 244.583 106.742 244.482 103.287C242.952 102.797 241.188 102.986 238.359 105.997C235.681 108.881 233.171 111.916 230.84 115.087C228.39 118.462 228.184 118.367 229.09 121.77C230.233 125.803 231.66 129.749 233.361 133.58C234.411 135.8 234.761 136.559 235.717 138.107C236.588 139.507 238.475 141.054 239.504 141.383C241.037 141.866 243.173 141.607 243.299 140.063C243.425 138.52 240.586 136.976 240.148 135.411C240.595 135.681 241.066 135.909 241.555 136.09Z" fill="#FFA8A7"/>
<path d="M244.892 103.021C244.892 103.021 242.063 102.78 240.726 103.76C239.389 104.74 238.626 105.391 236.13 108.066C235.22 109.049 234.1 110.446 234.1 110.446C234.1 110.446 235.5 114.647 239.648 115.315L243.61 111.339C244.584 110.288 245.893 106.942 244.892 103.021Z" fill="#F1C7FF"/>
<path d="M288.188 82.19C288.096 82.1908 288.005 82.1666 287.926 82.12L285.388 80.6533C285.267 80.5836 285.179 80.4689 285.143 80.3344C285.107 80.1998 285.126 80.0564 285.195 79.9357C285.265 79.815 285.38 79.7269 285.514 79.6908C285.649 79.6547 285.792 79.6735 285.913 79.7432L288.451 81.2099C288.551 81.2676 288.629 81.3568 288.674 81.4637C288.718 81.5705 288.726 81.689 288.696 81.8008C288.666 81.9125 288.6 82.0113 288.508 82.0817C288.416 82.152 288.304 82.1901 288.188 82.19Z" fill="white"/>
<path d="M289.923 76.3333H286.72C286.581 76.3333 286.448 76.278 286.349 76.1796C286.251 76.0811 286.195 75.9475 286.195 75.8083C286.195 75.669 286.251 75.5355 286.349 75.437C286.448 75.3385 286.581 75.2832 286.72 75.2832H289.923C290.063 75.2832 290.196 75.3385 290.295 75.437C290.393 75.5355 290.448 75.669 290.448 75.8083C290.448 75.9475 290.393 76.0811 290.295 76.1796C290.196 76.278 290.063 76.3333 289.923 76.3333Z" fill="white"/>
<path d="M285.311 72.1328C285.195 72.133 285.083 72.0949 284.991 72.0245C284.899 71.9541 284.833 71.8554 284.803 71.7436C284.773 71.6319 284.781 71.5134 284.825 71.4065C284.87 71.2996 284.948 71.2104 285.048 71.1527L288.321 69.2624C288.381 69.228 288.447 69.2056 288.515 69.1966C288.584 69.1876 288.653 69.1922 288.72 69.2101C288.787 69.228 288.849 69.2588 288.904 69.3008C288.958 69.3428 289.004 69.3952 289.039 69.455C289.073 69.5147 289.096 69.5807 289.105 69.6491C289.114 69.7175 289.109 69.787 289.091 69.8536C289.073 69.9203 289.042 69.9827 289 70.0375C288.958 70.0922 288.906 70.1381 288.846 70.1726L285.573 72.0628C285.494 72.1091 285.403 72.1333 285.311 72.1328Z" fill="white"/>
<path d="M282.272 69.0275C282.18 69.0282 282.089 69.0041 282.009 68.9575C281.893 68.888 281.809 68.7765 281.773 68.646C281.737 68.5156 281.753 68.3764 281.817 68.2574L283.623 65.1314C283.655 65.0668 283.7 65.0095 283.754 64.9628C283.809 64.9162 283.873 64.8814 283.942 64.8605C284.011 64.8396 284.083 64.8331 284.155 64.8414C284.226 64.8496 284.295 64.8725 284.358 64.9086C284.42 64.9447 284.474 64.9932 284.517 65.051C284.56 65.1089 284.59 65.175 284.606 65.2451C284.622 65.3153 284.624 65.388 284.611 65.4588C284.598 65.5295 284.57 65.5968 284.53 65.6565L282.727 68.7824C282.679 68.859 282.612 68.9219 282.532 68.9648C282.452 69.0078 282.363 69.0293 282.272 69.0275Z" fill="white"/>
<path d="M267.916 82.19C267.801 82.1901 267.688 82.152 267.596 82.0817C267.504 82.0113 267.438 81.9125 267.409 81.8008C267.379 81.689 267.386 81.5705 267.431 81.4637C267.475 81.3568 267.553 81.2676 267.654 81.2099L270.192 79.7432C270.312 79.6735 270.456 79.6547 270.59 79.6908C270.725 79.7269 270.84 79.815 270.909 79.9357C270.979 80.0564 270.998 80.1998 270.962 80.3344C270.925 80.4689 270.837 80.5837 270.717 80.6533L268.179 82.12C268.099 82.1663 268.008 82.1904 267.916 82.19Z" fill="white"/>
<path d="M269.376 76.3333H266.174C266.034 76.3333 265.901 76.278 265.802 76.1796C265.704 76.0811 265.648 75.9475 265.648 75.8083C265.648 75.669 265.704 75.5355 265.802 75.437C265.901 75.3385 266.034 75.2832 266.174 75.2832H269.376C269.516 75.2832 269.649 75.3385 269.748 75.437C269.846 75.5355 269.902 75.669 269.902 75.8083C269.902 75.9475 269.846 76.0811 269.748 76.1796C269.649 76.278 269.516 76.3333 269.376 76.3333Z" fill="white"/>
<path d="M270.79 72.133C270.698 72.1334 270.607 72.1093 270.527 72.063L267.247 70.1867C267.187 70.1522 267.135 70.1063 267.093 70.0516C267.051 69.9969 267.02 69.9344 267.002 69.8678C266.984 69.8012 266.98 69.7317 266.989 69.6633C266.998 69.5949 267.02 69.5289 267.055 69.4691C267.089 69.4094 267.135 69.357 267.19 69.315C267.245 69.2729 267.307 69.2421 267.374 69.2242C267.44 69.2064 267.51 69.2018 267.578 69.2108C267.647 69.2198 267.713 69.2421 267.772 69.2766L271.049 71.1669C271.149 71.2246 271.227 71.3138 271.272 71.4207C271.316 71.5275 271.324 71.646 271.294 71.7578C271.264 71.8695 271.198 71.9683 271.106 72.0387C271.014 72.109 270.902 72.1471 270.786 72.147L270.79 72.133Z" fill="white"/>
<path d="M273.834 69.0274C273.741 69.0275 273.651 69.0033 273.571 68.9572C273.491 68.9111 273.425 68.8448 273.379 68.7649L271.572 65.639C271.538 65.5792 271.515 65.5133 271.506 65.4448C271.497 65.3764 271.502 65.3069 271.52 65.2403C271.556 65.1057 271.644 64.991 271.765 64.9214C271.885 64.8517 272.029 64.8329 272.163 64.869C272.298 64.9051 272.413 64.9932 272.482 65.1139L274.289 68.2398C274.353 68.3589 274.369 68.4981 274.333 68.6285C274.297 68.759 274.212 68.8705 274.096 68.9399C274.018 68.9924 273.927 69.0226 273.834 69.0274Z" fill="white"/>
<path d="M278.05 68.3347C277.911 68.3347 277.778 68.2794 277.679 68.181C277.581 68.0825 277.525 67.9489 277.525 67.8097V63.5251C277.525 63.3858 277.581 63.2523 277.679 63.1538C277.778 63.0553 277.911 63 278.05 63C278.19 63 278.323 63.0553 278.422 63.1538C278.52 63.2523 278.576 63.3858 278.576 63.5251V67.8097C278.576 67.9489 278.52 68.0825 278.422 68.181C278.323 68.2794 278.19 68.3347 278.05 68.3347Z" fill="white"/>
</g>
<defs>
<linearGradient id="paint0_linear_552_26235" x1="0" y1="0" x2="350" y2="200" gradientUnits="userSpaceOnUse">
<stop stop-color="#CD76EA"/>
<stop offset="1" stop-color="#8930A7"/>
</linearGradient>
<clipPath id="clip0_552_26235">
<rect width="350" height="200" rx="20" fill="white"/>
</clipPath>
</defs>
</svg>
