<svg width="350" height="200" viewBox="0 0 350 200" fill="none" xmlns="http://www.w3.org/2000/svg">
<g clip-path="url(#clip0_552_26230)">
<rect width="350" height="200" rx="20" fill="url(#paint0_linear_552_26230)"/>
<path d="M192.709 166.871L212.241 166.79L231.773 166.759L270.834 166.701L309.895 166.759L329.427 166.79L348.959 166.871L329.427 166.956L309.895 166.987L270.834 167.041L231.773 166.983L212.241 166.956L192.709 166.871Z" fill="#263238"/>
<path opacity="0.5" d="M257.5 212C308.586 212 350 200.807 350 187C350 173.193 308.586 162 257.5 162C206.414 162 165 173.193 165 187C165 200.807 206.414 212 257.5 212Z" fill="white"/>
<path d="M237.757 192.397C249.359 192.397 258.764 190.027 258.764 187.103C258.764 184.179 249.359 181.809 237.757 181.809C226.155 181.809 216.75 184.179 216.75 187.103C216.75 190.027 226.155 192.397 237.757 192.397Z" fill="#EBEBEB"/>
<path d="M291.587 141.097C294.822 145.293 300.656 147.064 305.801 147.553C311.044 148.059 316.974 147.777 321.813 145.558C323.933 144.59 325.89 143.139 327.182 141.209C328.565 139.139 328.796 136.924 327.46 134.895C326.387 133.261 323.957 132.037 324.001 130.573C324.045 129.108 325.309 127.994 325.7 126.597C326.359 124.219 325.092 122.367 323.434 120.749C319.505 116.913 320.773 112.064 318.438 107.374C317.11 104.71 313.267 99.749 306.015 101.713C303.256 102.464 301.302 104.839 300.102 107.323C298.696 110.249 299.491 114.184 297.795 116.984C296.344 119.363 294.329 119.702 292.936 122.203C292.331 123.291 292.015 124.582 293.126 127.226C293.531 128.187 293.942 129.642 293.503 130.753C292.895 132.292 290.989 132.945 290.316 134.549C289.385 136.754 290.16 139.235 291.587 141.097Z" fill="#263238"/>
<path d="M325.56 141.776C328.037 141.46 329.209 138.161 327.704 136.407C326.753 135.293 325.281 134.746 324.326 133.638C322.756 131.817 324.265 130.267 325.203 128.541C327.242 124.834 324.717 122.21 322.039 119.794C320.001 117.959 319.661 115.92 319.6 113.314C319.6 113.273 319.668 113.27 319.671 113.314C319.803 115.237 320.011 117.127 321.326 118.669C322.393 119.923 323.84 120.803 324.873 122.102C326.603 124.28 326.746 126.587 325.397 128.969C325.013 129.649 324.292 130.42 324.119 131.174C323.715 132.955 325.057 133.923 326.331 134.844C327.306 135.551 328.39 136.336 328.727 137.546C329.237 139.37 327.507 141.773 325.59 141.912C325.492 141.929 325.461 141.776 325.56 141.776Z" fill="#263238"/>
<path d="M324.16 143.56C325.699 142.707 327.367 141.943 328.305 140.4C329.695 138.113 328.111 136.322 326.627 134.623C325.988 133.896 325.464 133.176 325.529 132.18C325.624 130.688 326.773 129.462 327.004 127.994C327.551 124.477 324.068 122.217 322.359 119.594C320.612 116.875 320.116 113.78 319.545 110.701C319.545 110.688 319.549 110.675 319.557 110.665C319.565 110.655 319.576 110.648 319.589 110.646C319.602 110.644 319.615 110.646 319.626 110.652C319.637 110.658 319.646 110.668 319.65 110.681C320.405 114.612 321.465 118.33 324.183 121.412C326.083 123.569 328.101 125.904 327.099 128.918C326.851 129.659 326.382 130.325 326.151 131.066C325.695 132.537 326.076 133.509 327.038 134.596C327.999 135.684 329.046 136.72 329.182 138.171C329.447 140.991 326.538 142.768 324.268 143.785C324.239 143.794 324.208 143.793 324.18 143.781C324.152 143.769 324.129 143.747 324.116 143.72C324.102 143.693 324.1 143.661 324.108 143.632C324.116 143.603 324.134 143.577 324.16 143.56Z" fill="#263238"/>
<path d="M289.677 133.648C290.941 131.969 292.905 131.164 292.45 128.718C292.134 127.018 291.234 125.659 291.618 123.896C291.934 122.431 292.919 121.31 294.074 120.365C295.542 119.166 297.153 118.204 298.237 116.627C299.42 114.901 299.977 112.859 300.551 110.888C300.551 110.85 300.629 110.867 300.622 110.888C300.007 113.572 299.263 116.325 297.15 118.292C296.045 119.312 294.71 120.09 293.616 121.13C291.648 123.002 291.624 125.099 292.413 127.501C292.773 128.602 293.092 129.71 292.559 130.818C292.025 131.925 290.935 132.595 290.16 133.512C286.87 137.42 291.713 142.541 295.78 143.343C295.964 143.377 295.937 143.655 295.746 143.621C292.705 143.115 289.524 140.342 288.903 137.383C288.757 136.741 288.751 136.076 288.885 135.431C289.019 134.787 289.289 134.179 289.677 133.648Z" fill="#263238"/>
<path d="M289.774 135.772C289.836 133.998 290.984 133.033 291.881 131.654C293.291 129.486 291.902 127.301 291.769 124.983C291.674 123.369 292.364 122.013 293.4 120.854C294.79 119.291 296.557 118.19 297.709 116.389C298.915 114.471 299.518 112.235 299.439 109.97C299.439 109.93 299.503 109.936 299.503 109.97C299.618 111.502 299.405 113.04 298.877 114.482C298.35 115.924 297.521 117.237 296.445 118.333C295.052 119.75 293.186 120.892 292.388 122.815C291.545 124.854 292.571 126.733 292.823 128.775C292.913 129.379 292.878 129.995 292.719 130.584C292.561 131.173 292.282 131.724 291.902 132.201C291.338 132.955 290.651 133.638 290.328 134.552C289.893 135.789 290.148 137.179 290.648 138.368C292.231 142.126 296.207 144.532 300.013 145.191C300.149 145.215 300.135 145.429 300.013 145.409C296.545 144.863 293.432 142.973 291.348 140.149C290.423 138.895 289.72 137.359 289.774 135.772Z" fill="#263238"/>
<path d="M307.021 128.626C305.155 128.177 301.308 133.043 297.921 140.437C292.484 152.28 289.619 166.871 289.619 166.871H307.33C307.33 166.871 311.846 129.778 307.021 128.626Z" fill="#EB9481"/>
<path d="M287.464 167.629H280.236V168.757H287.464V167.629Z" fill="#455A64"/>
<path d="M287.464 167.629H280.236V168.373H287.464V167.629Z" fill="#263238"/>
<path d="M296.038 164.598C295.599 165.25 294.98 165.762 294.256 166.07C293.533 166.379 292.736 166.472 291.96 166.338C291.71 166.289 291.465 166.218 291.226 166.127C290.868 165.985 290.527 165.805 290.207 165.59L291.128 164.231C291.298 164.35 291.479 164.453 291.668 164.54C293.391 165.318 294.478 163.962 294.692 163.653C295.685 162.26 296.052 159.083 295.032 157.859C294.964 157.768 294.675 157.625 293.51 157.859C293.296 157.907 293.051 157.961 292.776 158.036C292.563 158.109 292.341 158.157 292.117 158.179L292.086 157.363L292.008 156.548C292.083 156.548 292.198 156.5 292.348 156.456C292.886 156.3 293.436 156.186 293.992 156.116C294.849 156.028 295.746 156.116 296.296 156.796C297.941 158.814 297.278 162.844 296.038 164.598Z" fill="#455A64"/>
<path d="M291.134 164.227C291.305 164.346 291.485 164.45 291.674 164.537L291.223 166.127C290.865 165.985 290.523 165.805 290.203 165.59L291.134 164.227Z" fill="#263238"/>
<path d="M294.005 156.126L293.52 157.87C293.305 157.917 293.061 157.972 292.786 158.046C292.572 158.12 292.351 158.168 292.126 158.189L292.096 157.374L292.018 156.558C292.092 156.558 292.208 156.51 292.357 156.466C292.897 156.31 293.448 156.196 294.005 156.126Z" fill="#263238"/>
<path d="M274.232 154.01C274.232 154.01 275.099 161.373 276.611 164.476C278.123 167.578 280.199 167.918 281.497 167.918H286.221C287.519 167.918 289.619 167.578 291.107 164.476C292.596 161.373 293.469 154.01 293.469 154.01H274.232Z" fill="#455A64"/>
<path d="M275.65 158.818C275.558 158.818 275.469 158.79 275.393 158.74C275.317 158.689 275.258 158.617 275.223 158.532C275.188 158.448 275.179 158.355 275.196 158.265C275.214 158.176 275.258 158.093 275.323 158.029C275.387 157.964 275.47 157.92 275.559 157.902C275.649 157.884 275.742 157.894 275.826 157.928C275.911 157.963 275.983 158.023 276.034 158.099C276.085 158.175 276.112 158.264 276.112 158.355C276.112 158.478 276.063 158.596 275.976 158.682C275.89 158.769 275.772 158.818 275.65 158.818ZM275.65 157.978C275.575 157.978 275.502 158 275.44 158.042C275.378 158.083 275.33 158.142 275.301 158.211C275.273 158.28 275.265 158.356 275.28 158.429C275.294 158.502 275.33 158.569 275.383 158.622C275.436 158.675 275.503 158.711 275.576 158.725C275.649 158.74 275.725 158.732 275.794 158.704C275.863 158.675 275.922 158.627 275.963 158.565C276.005 158.503 276.027 158.43 276.027 158.355C276.027 158.255 275.987 158.159 275.916 158.089C275.846 158.018 275.75 157.978 275.65 157.978Z" fill="#E0E2FF"/>
<path d="M289.348 156.439C289.255 156.44 289.165 156.413 289.088 156.362C289.011 156.311 288.951 156.239 288.915 156.153C288.879 156.068 288.87 155.974 288.888 155.884C288.906 155.793 288.95 155.71 289.015 155.644C289.081 155.579 289.164 155.535 289.254 155.517C289.345 155.499 289.439 155.508 289.524 155.544C289.609 155.58 289.682 155.64 289.733 155.717C289.784 155.794 289.811 155.885 289.81 155.977C289.81 156.1 289.761 156.217 289.675 156.304C289.588 156.39 289.47 156.439 289.348 156.439ZM289.348 155.596C289.272 155.596 289.199 155.617 289.135 155.659C289.072 155.7 289.023 155.759 288.994 155.829C288.964 155.898 288.956 155.975 288.971 156.049C288.985 156.123 289.021 156.191 289.074 156.245C289.127 156.298 289.195 156.335 289.269 156.35C289.343 156.365 289.42 156.358 289.489 156.329C289.559 156.3 289.619 156.251 289.661 156.189C289.703 156.126 289.725 156.052 289.725 155.977C289.725 155.877 289.685 155.78 289.615 155.709C289.544 155.638 289.448 155.597 289.348 155.596Z" fill="#E0E2FF"/>
<path d="M288.664 163.225C288.572 163.226 288.482 163.199 288.405 163.148C288.328 163.097 288.267 163.025 288.232 162.94C288.196 162.855 288.186 162.761 288.204 162.671C288.221 162.58 288.265 162.497 288.33 162.432C288.395 162.366 288.478 162.321 288.569 162.303C288.659 162.285 288.753 162.294 288.838 162.329C288.923 162.364 288.996 162.424 289.048 162.5C289.099 162.577 289.126 162.667 289.126 162.759C289.127 162.82 289.115 162.881 289.092 162.937C289.069 162.994 289.035 163.045 288.992 163.088C288.949 163.132 288.898 163.166 288.842 163.19C288.786 163.213 288.725 163.225 288.664 163.225ZM288.664 162.382C288.589 162.382 288.515 162.403 288.452 162.445C288.388 162.487 288.339 162.546 288.31 162.616C288.281 162.685 288.273 162.762 288.287 162.836C288.302 162.91 288.338 162.979 288.392 163.032C288.445 163.085 288.513 163.122 288.587 163.136C288.662 163.151 288.738 163.143 288.808 163.114C288.878 163.085 288.937 163.035 288.979 162.972C289.02 162.909 289.042 162.835 289.041 162.759C289.041 162.659 289.002 162.563 288.931 162.493C288.86 162.422 288.764 162.382 288.664 162.382Z" fill="#E0E2FF"/>
<path d="M292.439 155.226C292.347 155.226 292.258 155.199 292.182 155.148C292.106 155.097 292.047 155.025 292.012 154.941C291.977 154.856 291.968 154.763 291.985 154.674C292.003 154.584 292.047 154.502 292.112 154.437C292.177 154.372 292.259 154.328 292.349 154.311C292.438 154.293 292.531 154.302 292.616 154.337C292.7 154.372 292.772 154.431 292.823 154.507C292.874 154.583 292.901 154.672 292.901 154.764C292.9 154.886 292.851 155.003 292.764 155.09C292.678 155.176 292.561 155.225 292.439 155.226ZM292.439 154.387C292.364 154.387 292.291 154.409 292.229 154.45C292.167 154.492 292.119 154.551 292.09 154.62C292.062 154.688 292.054 154.764 292.069 154.837C292.083 154.911 292.119 154.978 292.172 155.031C292.225 155.083 292.292 155.119 292.365 155.134C292.438 155.148 292.514 155.141 292.583 155.112C292.652 155.084 292.711 155.035 292.752 154.973C292.794 154.911 292.816 154.838 292.816 154.764C292.816 154.664 292.776 154.568 292.705 154.497C292.635 154.426 292.539 154.387 292.439 154.387Z" fill="#E0E2FF"/>
<path d="M285.993 158.108C285.902 158.106 285.814 158.077 285.739 158.025C285.664 157.973 285.607 157.9 285.573 157.815C285.54 157.731 285.532 157.638 285.551 157.549C285.57 157.46 285.615 157.379 285.68 157.315C285.745 157.252 285.827 157.209 285.917 157.192C286.006 157.174 286.098 157.184 286.182 157.219C286.266 157.255 286.338 157.314 286.388 157.39C286.438 157.465 286.465 157.554 286.465 157.645C286.465 157.707 286.453 157.768 286.429 157.825C286.405 157.881 286.37 157.933 286.326 157.976C286.282 158.019 286.23 158.053 286.173 158.075C286.116 158.098 286.054 158.109 285.993 158.108ZM285.993 157.268C285.918 157.268 285.845 157.29 285.783 157.332C285.721 157.373 285.673 157.432 285.644 157.501C285.616 157.57 285.608 157.646 285.623 157.719C285.638 157.792 285.673 157.859 285.726 157.912C285.779 157.965 285.846 158.001 285.919 158.015C285.993 158.03 286.068 158.022 286.137 157.994C286.206 157.965 286.265 157.917 286.307 157.855C286.348 157.793 286.37 157.72 286.37 157.645C286.369 157.546 286.329 157.45 286.259 157.38C286.188 157.309 286.093 157.269 285.993 157.268Z" fill="#E0E2FF"/>
<path d="M280.961 163.031C280.869 163.032 280.778 163.005 280.701 162.954C280.624 162.903 280.564 162.831 280.528 162.745C280.493 162.66 280.483 162.566 280.501 162.476C280.519 162.385 280.563 162.302 280.629 162.236C280.694 162.171 280.777 162.127 280.868 162.109C280.958 162.091 281.052 162.101 281.137 162.136C281.223 162.172 281.295 162.232 281.346 162.309C281.397 162.386 281.424 162.477 281.423 162.569C281.423 162.63 281.411 162.69 281.388 162.746C281.365 162.802 281.331 162.853 281.288 162.896C281.245 162.939 281.194 162.973 281.138 162.996C281.082 163.019 281.022 163.031 280.961 163.031ZM280.961 162.188C280.886 162.188 280.812 162.21 280.749 162.251C280.686 162.292 280.636 162.352 280.607 162.421C280.578 162.49 280.57 162.567 280.584 162.641C280.598 162.715 280.634 162.783 280.687 162.837C280.74 162.89 280.808 162.927 280.882 162.942C280.956 162.957 281.033 162.95 281.103 162.921C281.172 162.892 281.232 162.843 281.274 162.781C281.316 162.718 281.338 162.644 281.338 162.569C281.339 162.519 281.329 162.47 281.311 162.424C281.292 162.377 281.264 162.335 281.229 162.3C281.194 162.265 281.152 162.237 281.106 162.217C281.06 162.198 281.011 162.188 280.961 162.188Z" fill="#E0E2FF"/>
<path d="M284.036 155.226C283.945 155.226 283.856 155.199 283.78 155.148C283.704 155.097 283.644 155.025 283.609 154.941C283.574 154.856 283.565 154.763 283.583 154.674C283.601 154.584 283.645 154.502 283.71 154.437C283.774 154.372 283.857 154.328 283.946 154.311C284.036 154.293 284.129 154.302 284.213 154.337C284.298 154.372 284.37 154.431 284.421 154.507C284.471 154.583 284.498 154.672 284.498 154.764C284.498 154.886 284.45 155.004 284.363 155.091C284.276 155.177 284.159 155.226 284.036 155.226ZM284.036 154.387C283.962 154.387 283.889 154.409 283.827 154.45C283.765 154.492 283.716 154.551 283.688 154.62C283.659 154.688 283.652 154.764 283.666 154.837C283.681 154.911 283.717 154.978 283.77 155.031C283.822 155.083 283.89 155.119 283.963 155.134C284.036 155.148 284.112 155.141 284.181 155.112C284.25 155.084 284.309 155.035 284.35 154.973C284.391 154.911 284.414 154.838 284.414 154.764C284.414 154.664 284.374 154.568 284.303 154.497C284.232 154.426 284.136 154.387 284.036 154.387Z" fill="#E0E2FF"/>
<path d="M284.611 161.176C284.519 161.176 284.43 161.149 284.354 161.098C284.278 161.047 284.219 160.975 284.184 160.891C284.149 160.806 284.139 160.713 284.157 160.624C284.175 160.534 284.219 160.452 284.284 160.387C284.348 160.322 284.431 160.278 284.52 160.261C284.61 160.243 284.703 160.252 284.787 160.287C284.872 160.322 284.944 160.381 284.995 160.457C285.046 160.533 285.073 160.622 285.073 160.714C285.073 160.836 285.024 160.954 284.937 161.041C284.851 161.127 284.733 161.176 284.611 161.176ZM284.611 160.337C284.536 160.337 284.463 160.359 284.401 160.4C284.339 160.442 284.291 160.501 284.262 160.57C284.234 160.638 284.226 160.714 284.241 160.787C284.255 160.861 284.291 160.928 284.344 160.981C284.397 161.033 284.464 161.069 284.537 161.084C284.61 161.098 284.686 161.091 284.755 161.062C284.824 161.034 284.883 160.985 284.924 160.923C284.966 160.861 284.988 160.788 284.988 160.714C284.988 160.614 284.948 160.518 284.877 160.447C284.807 160.376 284.711 160.337 284.611 160.337Z" fill="#E0E2FF"/>
<path d="M289.184 166.715C289.092 166.713 289.004 166.684 288.929 166.632C288.854 166.58 288.796 166.507 288.762 166.422C288.728 166.337 288.72 166.244 288.738 166.155C288.757 166.065 288.801 165.983 288.866 165.919C288.931 165.855 289.013 165.811 289.103 165.793C289.192 165.775 289.285 165.784 289.37 165.818C289.454 165.853 289.527 165.911 289.578 165.987C289.63 166.062 289.658 166.151 289.66 166.242C289.661 166.305 289.65 166.367 289.626 166.426C289.603 166.484 289.568 166.536 289.523 166.581C289.479 166.625 289.426 166.66 289.367 166.683C289.309 166.706 289.246 166.717 289.184 166.715ZM289.184 165.872C289.108 165.871 289.034 165.893 288.971 165.934C288.908 165.976 288.859 166.035 288.83 166.104C288.8 166.174 288.792 166.251 288.807 166.325C288.821 166.399 288.857 166.467 288.91 166.52C288.963 166.574 289.031 166.611 289.105 166.626C289.179 166.64 289.256 166.633 289.325 166.604C289.395 166.576 289.455 166.527 289.497 166.464C289.539 166.402 289.561 166.328 289.561 166.253C289.561 166.152 289.521 166.056 289.451 165.985C289.38 165.913 289.284 165.873 289.184 165.872Z" fill="#E0E2FF"/>
<path d="M277.943 155.919C277.852 155.918 277.763 155.891 277.687 155.84C277.612 155.788 277.553 155.716 277.519 155.632C277.484 155.547 277.475 155.454 277.494 155.365C277.512 155.275 277.556 155.193 277.621 155.129C277.686 155.065 277.768 155.021 277.858 155.004C277.947 154.986 278.04 154.995 278.124 155.03C278.208 155.065 278.28 155.125 278.331 155.201C278.382 155.277 278.409 155.366 278.409 155.457C278.409 155.518 278.397 155.578 278.373 155.635C278.35 155.691 278.315 155.742 278.272 155.785C278.229 155.828 278.177 155.862 278.121 155.885C278.065 155.908 278.004 155.92 277.943 155.919ZM277.943 155.08C277.869 155.08 277.796 155.103 277.734 155.145C277.673 155.187 277.625 155.246 277.597 155.315C277.569 155.384 277.562 155.46 277.577 155.533C277.592 155.606 277.628 155.672 277.681 155.725C277.734 155.777 277.801 155.813 277.874 155.827C277.947 155.841 278.023 155.834 278.092 155.805C278.16 155.776 278.219 155.728 278.26 155.666C278.302 155.604 278.324 155.531 278.324 155.457C278.324 155.407 278.314 155.358 278.295 155.312C278.275 155.266 278.247 155.224 278.212 155.189C278.177 155.154 278.135 155.126 278.088 155.108C278.042 155.089 277.993 155.079 277.943 155.08Z" fill="#E0E2FF"/>
<path d="M290.856 159.915C290.764 159.915 290.674 159.888 290.597 159.837C290.521 159.785 290.461 159.712 290.426 159.627C290.391 159.542 290.382 159.448 290.4 159.358C290.418 159.267 290.463 159.184 290.528 159.119C290.594 159.054 290.677 159.01 290.767 158.993C290.858 158.975 290.952 158.985 291.037 159.021C291.122 159.056 291.194 159.117 291.245 159.194C291.296 159.271 291.322 159.361 291.322 159.453C291.322 159.514 291.31 159.574 291.286 159.631C291.263 159.687 291.228 159.738 291.185 159.781C291.142 159.824 291.091 159.858 291.034 159.881C290.978 159.904 290.917 159.916 290.856 159.915ZM290.856 159.072C290.78 159.07 290.705 159.09 290.64 159.13C290.576 159.171 290.525 159.23 290.494 159.299C290.464 159.369 290.455 159.446 290.468 159.521C290.482 159.596 290.518 159.665 290.571 159.719C290.624 159.774 290.693 159.811 290.767 159.826C290.842 159.841 290.919 159.833 290.99 159.804C291.06 159.774 291.12 159.725 291.161 159.661C291.203 159.597 291.224 159.522 291.223 159.446C291.221 159.349 291.182 159.256 291.114 159.186C291.046 159.117 290.954 159.076 290.856 159.072Z" fill="#E0E2FF"/>
<path d="M281.368 158.529C281.277 158.529 281.188 158.502 281.112 158.451C281.036 158.4 280.976 158.328 280.941 158.243C280.906 158.159 280.897 158.066 280.915 157.976C280.933 157.887 280.977 157.804 281.042 157.74C281.106 157.675 281.189 157.631 281.278 157.613C281.368 157.596 281.461 157.605 281.545 157.64C281.63 157.675 281.702 157.734 281.753 157.81C281.803 157.886 281.831 157.975 281.831 158.067C281.831 158.127 281.819 158.187 281.795 158.243C281.772 158.3 281.738 158.35 281.695 158.393C281.652 158.436 281.601 158.47 281.545 158.494C281.489 158.517 281.429 158.529 281.368 158.529ZM281.368 157.689C281.294 157.689 281.221 157.712 281.159 157.753C281.097 157.794 281.048 157.853 281.02 157.922C280.991 157.991 280.984 158.067 280.998 158.14C281.013 158.213 281.049 158.281 281.102 158.333C281.154 158.386 281.222 158.422 281.295 158.437C281.368 158.451 281.444 158.444 281.513 158.415C281.582 158.387 281.641 158.338 281.682 158.276C281.723 158.214 281.746 158.141 281.746 158.067C281.746 158.017 281.736 157.968 281.717 157.922C281.698 157.877 281.67 157.835 281.635 157.8C281.6 157.765 281.558 157.737 281.513 157.718C281.467 157.699 281.418 157.689 281.368 157.689Z" fill="#E0E2FF"/>
<path d="M284.609 166.018C284.517 166.019 284.426 165.992 284.349 165.941C284.272 165.889 284.211 165.816 284.176 165.731C284.141 165.645 284.131 165.551 284.15 165.46C284.168 165.369 284.213 165.286 284.279 165.221C284.345 165.156 284.429 165.112 284.52 165.095C284.611 165.078 284.706 165.089 284.791 165.125C284.876 165.162 284.948 165.223 284.998 165.301C285.048 165.379 285.074 165.47 285.072 165.563C285.07 165.684 285.02 165.8 284.934 165.885C284.847 165.97 284.731 166.018 284.609 166.018ZM284.609 165.175C284.534 165.175 284.46 165.197 284.397 165.238C284.334 165.28 284.284 165.339 284.255 165.409C284.226 165.479 284.218 165.555 284.233 165.629C284.247 165.704 284.284 165.772 284.337 165.825C284.39 165.879 284.459 165.915 284.533 165.929C284.607 165.944 284.684 165.936 284.753 165.907C284.823 165.878 284.882 165.828 284.924 165.765C284.965 165.702 284.987 165.628 284.987 165.553C284.987 165.453 284.947 165.357 284.876 165.286C284.805 165.215 284.709 165.175 284.609 165.175Z" fill="#E0E2FF"/>
<path d="M280.715 167.69C280.623 167.691 280.532 167.664 280.455 167.613C280.378 167.563 280.318 167.49 280.283 167.405C280.247 167.32 280.237 167.226 280.255 167.136C280.272 167.045 280.316 166.962 280.381 166.897C280.446 166.831 280.529 166.786 280.62 166.768C280.71 166.75 280.804 166.759 280.889 166.794C280.974 166.829 281.047 166.889 281.098 166.966C281.15 167.042 281.177 167.132 281.177 167.225C281.177 167.347 281.129 167.465 281.042 167.553C280.955 167.64 280.838 167.689 280.715 167.69ZM280.715 166.847C280.639 166.847 280.565 166.869 280.502 166.91C280.439 166.952 280.39 167.011 280.361 167.081C280.331 167.15 280.324 167.227 280.338 167.301C280.353 167.376 280.389 167.444 280.443 167.497C280.496 167.55 280.564 167.587 280.638 167.601C280.712 167.616 280.789 167.608 280.859 167.579C280.929 167.55 280.988 167.5 281.029 167.437C281.071 167.374 281.093 167.3 281.092 167.225C281.091 167.125 281.051 167.029 280.981 166.959C280.91 166.888 280.815 166.848 280.715 166.847Z" fill="#E0E2FF"/>
<path d="M277.943 160.755C277.852 160.754 277.763 160.726 277.687 160.675C277.612 160.624 277.553 160.551 277.519 160.467C277.484 160.382 277.475 160.29 277.494 160.2C277.512 160.111 277.556 160.029 277.621 159.964C277.686 159.9 277.768 159.857 277.858 159.839C277.947 159.821 278.04 159.831 278.124 159.866C278.208 159.901 278.28 159.96 278.331 160.036C278.382 160.112 278.409 160.201 278.409 160.292C278.409 160.353 278.397 160.414 278.373 160.47C278.35 160.526 278.315 160.577 278.272 160.62C278.229 160.663 278.177 160.697 278.121 160.72C278.065 160.743 278.004 160.755 277.943 160.755ZM277.943 159.915C277.869 159.916 277.796 159.939 277.734 159.98C277.673 160.022 277.625 160.081 277.597 160.15C277.569 160.219 277.562 160.295 277.577 160.368C277.592 160.441 277.628 160.508 277.681 160.56C277.734 160.613 277.801 160.648 277.874 160.663C277.947 160.677 278.023 160.669 278.092 160.641C278.16 160.612 278.219 160.564 278.26 160.502C278.302 160.44 278.324 160.367 278.324 160.292C278.324 160.243 278.314 160.193 278.295 160.147C278.275 160.101 278.247 160.06 278.212 160.025C278.177 159.989 278.135 159.962 278.088 159.943C278.042 159.924 277.993 159.915 277.943 159.915Z" fill="#E0E2FF"/>
<path d="M277.525 164.931C277.433 164.931 277.344 164.904 277.268 164.853C277.192 164.802 277.133 164.73 277.098 164.646C277.063 164.561 277.054 164.468 277.071 164.379C277.089 164.289 277.133 164.207 277.198 164.142C277.262 164.077 277.345 164.033 277.434 164.015C277.524 163.998 277.617 164.007 277.701 164.042C277.786 164.077 277.858 164.136 277.909 164.212C277.96 164.288 277.987 164.377 277.987 164.469C277.987 164.591 277.938 164.709 277.851 164.796C277.765 164.882 277.647 164.931 277.525 164.931ZM277.525 164.092C277.45 164.092 277.377 164.114 277.315 164.155C277.253 164.197 277.205 164.255 277.176 164.324C277.148 164.393 277.14 164.469 277.155 164.542C277.169 164.615 277.205 164.683 277.258 164.735C277.311 164.788 277.378 164.824 277.451 164.839C277.524 164.853 277.6 164.846 277.669 164.817C277.738 164.789 277.797 164.74 277.838 164.678C277.88 164.616 277.902 164.543 277.902 164.469C277.902 164.369 277.862 164.273 277.791 164.202C277.721 164.131 277.625 164.092 277.525 164.092Z" fill="#E0E2FF"/>
<path d="M300.154 155.814L299.855 166.871H335.898C335.898 166.871 329.129 137.987 318.993 129.492C313.447 124.851 309.138 126.838 306.209 129.91C305.495 130.685 297.68 143.302 297.34 147.845C297.061 151.855 300.154 155.814 300.154 155.814Z" fill="#EB9481"/>
<path d="M300.152 155.814L299.853 166.871H335.893C335.893 166.871 332.495 152.402 326.926 140.937C326.178 142.351 324.272 145.246 321.2 145.266C317.122 145.297 314.17 138.667 314.17 138.667C314.17 138.667 308.828 141.984 305.447 141.457C302.066 140.93 302.229 136.387 302.229 136.387C299.959 140.444 297.539 145.351 297.356 147.838C297.06 151.855 300.152 155.814 300.152 155.814Z" fill="#E0E2FF"/>
<path d="M314.153 139.948C314.007 138.833 313.962 137.707 314.017 136.584C314.056 135.456 314.182 134.332 314.394 133.224C314.589 132.09 314.978 130.998 315.542 129.995C315.84 129.463 316.31 129.047 316.875 128.816C317.164 128.719 317.474 128.704 317.772 128.772C317.911 128.82 318.05 128.867 318.179 128.922L318.543 129.142L318.145 129.017C318.009 128.993 317.877 128.976 317.744 128.959C317.487 128.947 317.232 129.004 317.004 129.122C316.561 129.388 316.212 129.784 316.005 130.257C315.77 130.741 315.582 131.247 315.441 131.766C315.288 132.286 315.162 132.819 315.06 133.356C314.958 133.893 314.859 134.437 314.778 134.984C314.696 135.531 314.622 136.078 314.543 136.628C314.408 137.729 314.268 138.834 314.153 139.948Z" fill="#E0E2FF"/>
<path d="M301.814 137.131C302.187 136.092 302.63 135.081 303.143 134.104C303.652 133.119 304.219 132.166 304.842 131.249C305.158 130.794 305.484 130.345 305.834 129.91C306.189 129.478 306.569 129.067 306.973 128.68C307.378 128.281 307.835 127.938 308.332 127.661C308.576 127.509 308.851 127.414 309.136 127.381C309.422 127.348 309.711 127.379 309.983 127.471C309.719 127.448 309.452 127.479 309.199 127.56C308.946 127.641 308.711 127.771 308.509 127.943C308.085 128.267 307.696 128.635 307.35 129.04C306.647 129.86 305.996 130.723 305.399 131.623C304.781 132.517 304.2 133.438 303.609 134.341C303.017 135.245 302.436 136.217 301.814 137.131Z" fill="#E0E2FF"/>
<path d="M335.894 166.871H321.415L321.201 145.266C324.259 145.246 326.179 142.351 326.927 140.937C332.503 152.402 335.894 166.871 335.894 166.871Z" fill="#263238"/>
<path d="M314.364 128.085C314.183 128.707 310.965 132.632 308.098 132.343C307.163 132.248 307.455 127.127 307.455 127.127L307.391 126.747L306.49 121.388L312.923 117.728L313.85 117.246C313.85 117.246 314 118.731 314.17 120.579C314.17 120.664 314.187 120.749 314.194 120.841C314.2 120.933 314.217 121.045 314.224 121.14C314.255 121.418 314.282 121.7 314.306 121.979C314.323 122.193 314.34 122.4 314.35 122.628C314.36 122.856 314.377 123.073 314.394 123.308C314.493 124.899 314.483 126.495 314.364 128.085Z" fill="#EB9481"/>
<path d="M314.17 120.576C313.555 122.034 312.63 123.342 311.46 124.407C310.289 125.473 308.901 126.271 307.391 126.747L306.49 121.388L312.923 117.728L313.85 117.246C313.85 117.246 313.99 118.727 314.17 120.576Z" fill="#263238"/>
<path d="M299.593 113.148C298.754 122.662 304.35 124.225 306.389 124.405C308.248 124.565 314.602 124.881 316.42 115.516C318.238 106.151 314.082 102.76 309.848 102.162C305.614 101.564 300.432 103.647 299.593 113.148Z" fill="#EB9481"/>
<path d="M301.166 111.408C301.384 111.388 301.601 111.356 301.815 111.313C302.05 111.312 302.278 111.234 302.464 111.092C302.514 111.035 302.544 110.964 302.549 110.889C302.554 110.814 302.533 110.739 302.492 110.677C302.39 110.567 302.261 110.485 302.118 110.442C301.974 110.398 301.822 110.394 301.676 110.429C301.37 110.452 301.084 110.589 300.874 110.813C300.83 110.867 300.802 110.933 300.793 111.002C300.785 111.072 300.797 111.142 300.828 111.205C300.859 111.267 300.907 111.32 300.967 111.356C301.027 111.392 301.096 111.41 301.166 111.408Z" fill="#263238"/>
<path d="M307.738 112.04C307.517 111.999 307.32 111.924 307.106 111.863C306.873 111.832 306.656 111.724 306.491 111.557C306.45 111.495 306.431 111.421 306.436 111.346C306.442 111.272 306.472 111.202 306.521 111.146C306.635 111.049 306.773 110.984 306.921 110.959C307.069 110.934 307.221 110.949 307.361 111.003C307.661 111.066 307.927 111.239 308.105 111.489C308.143 111.548 308.163 111.617 308.163 111.688C308.162 111.758 308.141 111.827 308.102 111.885C308.063 111.944 308.008 111.99 307.943 112.017C307.878 112.045 307.807 112.052 307.738 112.04Z" fill="#263238"/>
<path d="M306.313 114.361C306.313 114.334 306.361 114.395 306.357 114.422C306.279 115.068 306.3 115.819 306.867 116.084C306.867 116.084 306.867 116.124 306.867 116.121C306.15 115.951 306.136 114.959 306.313 114.361Z" fill="#263238"/>
<path d="M306.952 113.735C307.999 113.735 307.893 115.842 306.925 115.829C305.956 115.815 306.072 113.722 306.952 113.735Z" fill="#263238"/>
<path d="M307.357 113.865C307.533 113.994 307.697 114.204 307.921 114.245C308.145 114.286 308.38 114.072 308.556 113.871C308.577 113.848 308.594 113.871 308.59 113.895C308.59 114.296 308.403 114.7 307.968 114.741C307.533 114.782 307.309 114.401 307.231 113.997C307.214 113.912 307.285 113.814 307.357 113.865Z" fill="#263238"/>
<path d="M302.263 113.861C302.263 113.837 302.212 113.892 302.212 113.915C302.212 114.568 302.089 115.309 301.491 115.502C301.474 115.502 301.474 115.54 301.491 115.536C302.215 115.465 302.361 114.48 302.263 113.861Z" fill="#263238"/>
<path d="M301.712 113.161C300.672 113.035 300.503 115.129 301.468 115.241C302.433 115.353 302.586 113.263 301.712 113.161Z" fill="#263238"/>
<path d="M301.268 113.263C301.091 113.358 300.928 113.549 300.714 113.545C300.5 113.542 300.333 113.301 300.204 113.073C300.204 113.049 300.173 113.073 300.17 113.093C300.126 113.491 300.224 113.919 300.605 114.024C300.985 114.13 301.234 113.804 301.359 113.413C301.383 113.341 301.335 113.233 301.268 113.263Z" fill="#263238"/>
<path d="M305.747 119.319C305.59 119.471 305.434 119.679 305.2 119.699C304.958 119.693 304.721 119.636 304.503 119.533C304.498 119.53 304.493 119.53 304.488 119.531C304.483 119.532 304.478 119.534 304.475 119.538C304.471 119.542 304.469 119.547 304.469 119.552C304.468 119.557 304.47 119.562 304.472 119.567C304.566 119.694 304.691 119.795 304.837 119.857C304.982 119.92 305.141 119.943 305.298 119.923C305.43 119.888 305.55 119.815 305.641 119.713C305.732 119.611 305.791 119.485 305.811 119.349C305.835 119.312 305.77 119.298 305.747 119.319Z" fill="#263238"/>
<path d="M303.18 116.811C303.18 116.811 302.969 117.919 302.942 118.377C302.942 118.418 304.522 118.595 305.395 117.637C305.433 117.596 305.375 117.541 305.331 117.569C304.733 117.945 304.03 118.118 303.326 118.061C303.299 117.932 303.7 116.383 303.628 116.362C303.272 116.371 302.919 116.428 302.578 116.532C302.918 114.521 303.598 112.58 303.9 110.572C303.905 110.556 303.903 110.539 303.895 110.525C303.887 110.511 303.873 110.5 303.858 110.496C303.842 110.491 303.825 110.493 303.81 110.501C303.796 110.509 303.786 110.522 303.781 110.538C302.942 112.519 302.493 114.826 302.082 116.896C302.031 117.161 302.993 116.875 303.18 116.811Z" fill="#263238"/>
<path d="M315.508 116.25C313.194 115.992 313.061 108.808 313.055 107.928C313.027 108.482 312.888 111.425 312.654 111.527C312.406 111.502 312.163 111.437 311.937 111.333C311.964 110.981 311.964 110.628 311.937 110.276C311.937 110.11 311.848 110.616 311.712 111.251L311.291 111.099C311.374 110.351 311.357 109.596 311.24 108.852C311.192 108.57 311.023 109.811 310.676 110.891C309.106 110.337 306.84 109.597 304.682 109.359C304.104 109.294 303.605 109.264 303.163 109.25C303.224 108.383 303.394 107.469 303.316 107.663C303.102 108.174 302.94 108.704 302.83 109.247C302.592 109.247 302.368 109.247 302.167 109.247C302.201 108.016 302.932 106.107 302.711 106.392C302.061 107.27 301.583 108.263 301.301 109.318C300.455 109.413 300.21 109.559 300.203 109.342C300.203 108.948 300.93 105.556 303.791 103.249C306.897 100.738 312.735 100.49 315.685 104.948C315.685 104.948 318.237 106.902 318.447 109.76C318.658 112.617 316.847 116.4 315.508 116.25Z" fill="#263238"/>
<path d="M314.857 116.114C314.857 116.114 316.943 113.141 318.292 113.885C319.641 114.629 318.068 118.941 316.481 119.529C316.284 119.618 316.071 119.666 315.855 119.67C315.639 119.675 315.424 119.636 315.223 119.556C315.022 119.475 314.84 119.356 314.687 119.203C314.533 119.051 314.412 118.869 314.33 118.669L314.857 116.114Z" fill="#EB9481"/>
<path d="M317.809 115.108C317.814 115.11 317.818 115.113 317.82 115.117C317.823 115.121 317.824 115.126 317.824 115.13C317.824 115.135 317.823 115.14 317.82 115.144C317.818 115.148 317.814 115.151 317.809 115.153C316.695 115.601 316.11 116.631 315.696 117.701C316.036 117.29 316.477 117.066 317.028 117.46C317.058 117.48 317.028 117.524 316.997 117.518C316.803 117.454 316.593 117.452 316.398 117.513C316.202 117.574 316.031 117.694 315.907 117.857C315.7 118.131 315.525 118.426 315.383 118.738C315.329 118.836 315.149 118.785 315.19 118.67C315.191 118.661 315.191 118.651 315.19 118.642C315.183 117.232 316.287 115.251 317.809 115.108Z" fill="#263238"/>
<path d="M324.159 133.988C336.005 146.469 345.737 172.42 340.039 174.856C334.829 177.082 318.328 175.026 311.542 173.409C309.548 172.933 313.561 157.489 315.695 157.995C318.271 158.607 324.87 159.555 325.124 159.538C325.692 159.497 319.348 141.352 317.418 134.732C314.726 125.486 319.711 129.299 324.159 133.988Z" fill="#EB9481"/>
<path d="M295.16 154.448C294.239 155.875 295.364 157.227 295.364 157.227C294.599 157.588 293.984 158.206 293.628 158.974C293.064 160.357 294.987 161.845 294.987 161.845C294.272 162.386 293.737 163.13 293.451 163.979C293.043 165.355 294.766 167.136 294.766 167.136C294.386 167.993 294.326 168.957 294.596 169.855C295.425 172.233 299.17 173.079 301.545 173.647C303.921 174.214 311.186 173.592 312.582 173.613L316.341 158.427C316.341 158.427 306.411 152.861 303.526 152.592C301.093 152.351 296.19 152.844 295.16 154.448Z" fill="#EB9481"/>
<path d="M295.532 157.01C298.176 156.629 300.785 157.051 303.416 157.326C303.427 157.326 303.439 157.331 303.447 157.339C303.455 157.347 303.46 157.358 303.46 157.37C303.46 157.382 303.455 157.393 303.447 157.401C303.439 157.41 303.427 157.414 303.416 157.414C300.802 157.112 298.162 157.333 295.542 157.136C295.528 157.134 295.514 157.127 295.504 157.116C295.494 157.105 295.488 157.091 295.487 157.077C295.485 157.062 295.489 157.047 295.497 157.035C295.506 157.023 295.518 157.014 295.532 157.01Z" fill="#263238"/>
<path d="M295.083 161.658C295.692 161.63 296.302 161.681 296.898 161.811C297.533 161.91 298.169 162.022 298.804 162.151C300.075 162.389 301.338 162.66 302.593 162.963C302.647 162.963 302.64 163.065 302.593 163.055C301.325 162.817 300.058 162.6 298.784 162.42C298.145 162.327 297.506 162.239 296.867 162.158C296.259 162.121 295.657 162.016 295.073 161.845C295.048 161.844 295.025 161.833 295.008 161.814C294.992 161.796 294.983 161.772 294.985 161.747C294.986 161.722 294.997 161.699 295.015 161.682C295.034 161.666 295.058 161.657 295.083 161.658Z" fill="#263238"/>
<path d="M294.818 167.146C295.338 167.065 295.936 167.265 296.442 167.371C297.02 167.493 297.594 167.609 298.172 167.711C299.327 167.942 300.483 168.169 301.645 168.36C301.703 168.36 301.693 168.458 301.645 168.448C300.462 168.264 299.266 168.108 298.097 167.897L296.361 167.598C295.825 167.554 295.302 167.414 294.815 167.187C294.81 167.181 294.808 167.174 294.809 167.166C294.809 167.159 294.813 167.152 294.818 167.146Z" fill="#263238"/>
<path d="M298.468 152.936C297.262 153.065 295.879 153.299 295.07 154.295C294.699 154.721 294.509 155.274 294.54 155.838C294.597 156.365 294.852 156.851 295.254 157.197C294.77 157.342 294.336 157.62 294.003 158C293.669 158.38 293.449 158.846 293.368 159.344C293.344 159.594 293.372 159.847 293.449 160.086C293.526 160.325 293.651 160.545 293.816 160.734C293.976 160.935 294.156 161.111 294.34 161.295C294.523 161.478 294.717 161.635 294.9 161.794C294.695 161.951 294.501 162.121 294.319 162.304C294.116 162.492 293.932 162.699 293.769 162.923C293.438 163.368 293.245 163.901 293.215 164.455C293.229 165.006 293.409 165.54 293.731 165.988C293.991 166.447 294.361 166.835 294.809 167.116C294.836 167.116 294.863 167.095 294.843 167.075C294.49 166.741 294.194 166.352 293.966 165.923C293.69 165.467 293.546 164.944 293.548 164.411C293.6 163.906 293.782 163.422 294.075 163.008C294.219 162.784 294.375 162.568 294.543 162.362C294.683 162.192 295.046 161.845 295.012 161.822C294.978 161.798 294.628 161.397 294.496 161.217C294.363 161.037 294.227 160.84 294.105 160.643C293.847 160.265 293.739 159.804 293.803 159.351C293.89 158.93 294.089 158.54 294.38 158.223C294.669 157.883 295.033 157.642 295.335 157.326C295.355 157.291 295.361 157.25 295.352 157.21C294.71 156.16 294.815 155.172 295.543 154.434C295.911 154.07 296.34 153.772 296.81 153.554C297.348 153.322 297.904 153.134 298.472 152.99C298.512 152.99 298.506 152.932 298.468 152.936Z" fill="#263238"/>
<path d="M321.75 148.144C321.573 147.448 321.376 146.758 321.172 146.065C320.765 144.675 320.343 143.282 319.813 141.929C319.518 141.165 319.191 140.414 318.875 139.656C318.875 139.656 318.855 139.656 318.858 139.656C319.147 140.614 319.412 141.579 319.701 142.538C319.405 141.98 319.072 141.447 318.79 140.886C318.79 140.856 318.733 140.886 318.746 140.913C319.038 141.494 319.276 142.099 319.552 142.687C319.708 143.027 319.891 143.346 320.058 143.666C320.058 143.707 320.082 143.747 320.095 143.785C320.557 145.161 321.006 146.544 321.475 147.917C321.737 148.688 322.022 149.459 322.236 150.244C322.239 150.25 322.244 150.255 322.25 150.257C322.256 150.26 322.263 150.26 322.269 150.258C322.275 150.256 322.28 150.251 322.284 150.246C322.287 150.24 322.288 150.234 322.287 150.227C322.083 149.548 321.927 148.841 321.75 148.144Z" fill="#263238"/>
<path d="M335.14 164.047C334.391 163.431 333.588 162.884 332.741 162.413C331.92 161.911 331.062 161.472 330.175 161.101C327.34 159.966 324.357 159.248 321.316 158.967C321.309 158.967 321.302 158.97 321.297 158.975C321.292 158.98 321.289 158.987 321.289 158.994C321.289 159.002 321.292 159.009 321.297 159.014C321.302 159.019 321.309 159.022 321.316 159.022C321.833 159.117 327.351 160.439 329.669 161.339C330.552 161.679 331.402 162.11 332.248 162.542C332.733 162.787 333.211 163.042 333.682 163.307C334.154 163.575 334.606 163.874 335.082 164.129C335.093 164.134 335.105 164.135 335.116 164.132C335.127 164.128 335.137 164.121 335.144 164.112C335.151 164.102 335.154 164.091 335.153 164.079C335.153 164.067 335.148 164.056 335.14 164.047Z" fill="#263238"/>
<path d="M220.668 133.39C223.098 137.76 239.748 154.458 249.188 154.873C259.984 155.352 280.189 148.953 281.83 147.553C286.322 143.713 281.021 132.337 277.548 132.551C273.219 132.816 252.698 139.513 249.416 139.16C244.291 138.606 232.857 131.005 224.671 127.114C219.91 124.847 218.799 130.026 220.668 133.39Z" fill="#EB9481"/>
<path d="M280.062 148.382C281.027 147.958 288.649 145.294 291.901 142.018C293.624 140.285 297.824 134.98 296.899 133.801C296.053 132.724 294.548 133.896 294.548 133.896C294.548 133.896 296.383 131.518 295.194 130.019C294.004 128.521 291.561 130.641 291.561 130.641C291.561 130.641 293.26 128.048 291.976 126.655C290.691 125.262 288.578 127.787 288.578 127.787C288.578 127.787 290.249 125.49 288.7 124.79C286.838 123.947 284.231 128.527 282.016 130.084C281.513 130.424 271.309 136.51 271.309 136.51L280.062 148.382Z" fill="#EB9481"/>
<path d="M288.477 127.766C286.554 131.134 285.13 132.276 281.762 134.07C281.694 134.104 281.732 134.209 281.803 134.178C285.266 132.724 287.257 131.552 288.643 127.851C288.711 127.671 288.569 127.607 288.477 127.766Z" fill="#263238"/>
<path d="M291.456 130.607C289.156 133.93 287.62 135.181 284.229 137.318C284.181 137.349 284.229 137.434 284.28 137.407C287.78 135.589 289.74 134.372 291.606 130.75C291.691 130.587 291.562 130.454 291.456 130.607Z" fill="#263238"/>
<path d="M294.383 133.995C291.919 137.053 290.305 138.494 286.74 140.145C286.722 140.152 286.708 140.166 286.7 140.183C286.692 140.201 286.691 140.221 286.698 140.239C286.705 140.257 286.718 140.271 286.736 140.279C286.753 140.287 286.773 140.288 286.791 140.281C290.587 138.949 292.623 137.162 294.468 134.08C294.593 133.869 294.536 133.801 294.383 133.995Z" fill="#263238"/>
<path d="M268.227 136C268.227 136 271.173 132.136 272.841 130.726C274.51 129.316 282.665 126.342 283.409 128.065C284.367 130.308 280.008 132.941 277.687 133.961C277.687 133.961 279.906 139.112 277.18 141.688C274.455 144.264 268.227 136 268.227 136Z" fill="#EB9481"/>
<path d="M283.471 128.779C282.88 131.439 279.764 132.574 277.596 133.726C277.563 133.742 277.534 133.765 277.512 133.794C277.49 133.823 277.476 133.856 277.47 133.892C277.464 133.928 277.467 133.965 277.478 133.999C277.489 134.033 277.509 134.065 277.534 134.09C278.319 136.312 278.785 139.673 277.334 141.695C277.324 141.707 277.319 141.722 277.321 141.737C277.322 141.752 277.329 141.767 277.341 141.776C277.353 141.786 277.368 141.791 277.383 141.79C277.398 141.789 277.412 141.781 277.422 141.77C279.271 139.812 279.084 136.472 278.068 134.097C280.307 132.948 283.386 131.671 283.505 128.782L283.471 128.779Z" fill="#263238"/>
<path d="M220.614 134.64C222.476 137.42 237.55 153.873 247.479 155.239C254.173 156.16 265.747 154.835 270.124 153.863L264.086 135.14C264.086 135.14 253.783 138.936 249.814 138.616C245.845 138.297 230.03 128.82 224.165 126.638C221.674 125.707 220.169 126.298 219.476 127.589C218.531 129.312 219.061 132.32 220.614 134.64Z" fill="#E1E2FF"/>
<path d="M266.757 153.503C265.768 150.734 262.129 139.231 261.507 136.706C261.463 136.53 261.565 136.458 261.633 136.635C264.789 144.862 266.03 150.689 266.862 153.459C266.879 153.527 266.777 153.571 266.757 153.503Z" fill="#263238"/>
<path d="M219.383 129.078C220.326 129.091 221.256 128.856 222.081 128.398C221.611 128.385 221.142 128.44 220.688 128.561C220.231 128.672 219.792 128.846 219.383 129.078Z" fill="#263238"/>
<path d="M227.373 131.735C227.032 132.059 226.739 132.43 226.503 132.836C226.256 133.236 226.068 133.67 225.945 134.124C226.62 133.469 227.112 132.649 227.373 131.745V131.735Z" fill="#263238"/>
<path d="M231.131 141.804C230.807 141.463 230.436 141.17 230.03 140.934C229.63 140.687 229.196 140.5 228.742 140.376C229.397 141.051 230.217 141.543 231.121 141.804H231.131Z" fill="#263238"/>
<path d="M236.852 150.132C229.186 144.641 221.901 136.506 220.623 134.627C219.07 132.32 218.54 129.312 219.474 127.576C220.154 126.285 221.673 125.693 224.164 126.625C224.667 126.811 225.241 127.053 225.863 127.335C228.51 132.986 233.209 142.677 236.852 150.132Z" fill="#263238"/>
<path d="M236.058 166.773L199.158 166.871C199.158 166.871 203.348 139.534 216.9 126.516C218.575 124.905 222.51 125.095 225.119 126.264C226.051 126.679 229.517 131.134 230.628 135.439C231.739 139.744 236.153 166.64 236.058 166.773Z" fill="#E1E2FF"/>
<path d="M209.917 147.607C209.903 148.55 210.138 149.479 210.596 150.302C210.609 149.832 210.554 149.363 210.433 148.909C210.321 148.453 210.147 148.016 209.917 147.607Z" fill="#263238"/>
<path d="M215.643 143.17C216.112 143.178 216.581 143.122 217.036 143.003C217.493 142.895 217.933 142.721 218.341 142.487C217.397 142.472 216.466 142.706 215.643 143.166V143.17Z" fill="#263238"/>
<path d="M209.105 157.577C210.048 157.588 210.978 157.354 211.804 156.898C211.334 156.886 210.864 156.942 210.41 157.064C209.953 157.173 209.514 157.346 209.105 157.577Z" fill="#263238"/>
<path d="M226.055 163.409C226.525 163.418 226.993 163.362 227.448 163.242C227.906 163.134 228.345 162.96 228.753 162.726C227.809 162.711 226.879 162.945 226.055 163.405V163.409Z" fill="#263238"/>
<path d="M208.648 165.862C209.118 165.872 209.587 165.816 210.042 165.695C210.506 165.589 210.953 165.415 211.367 165.179C210.424 165.168 209.494 165.402 208.669 165.858L208.648 165.862Z" fill="#263238"/>
<path d="M219.346 128.368C219.816 128.376 220.284 128.32 220.739 128.201C221.197 128.093 221.636 127.919 222.044 127.685C221.1 127.67 220.17 127.904 219.346 128.364V128.368Z" fill="#263238"/>
<path d="M215.105 131.303C214.43 131.958 213.938 132.778 213.678 133.682C214.351 133.026 214.843 132.206 215.105 131.303Z" fill="#263238"/>
<path d="M204.844 149.901C204.503 150.224 204.212 150.595 203.977 151.002C203.729 151.402 203.542 151.836 203.42 152.29C203.76 151.967 204.052 151.596 204.286 151.189C204.532 150.788 204.719 150.354 204.844 149.901Z" fill="#263238"/>
<path d="M217.576 159.953C217.237 160.279 216.946 160.65 216.71 161.057C216.463 161.457 216.275 161.891 216.152 162.345C216.826 161.69 217.317 160.87 217.576 159.966V159.953Z" fill="#263238"/>
<path d="M228.178 131.966C227.503 132.621 227.012 133.441 226.754 134.345C227.094 134.022 227.386 133.651 227.62 133.244C227.865 132.846 228.053 132.416 228.178 131.966Z" fill="#263238"/>
<path d="M204.334 161.244C204.008 160.903 203.637 160.61 203.229 160.374C202.829 160.127 202.396 159.941 201.941 159.82C202.599 160.491 203.418 160.981 204.32 161.244H204.334Z" fill="#263238"/>
<path d="M211.517 140.757C211.192 140.416 210.82 140.123 210.413 139.887C210.012 139.641 209.579 139.453 209.125 139.33C209.781 140.003 210.601 140.495 211.504 140.757H211.517Z" fill="#263238"/>
<path d="M231.018 137.213C231.358 138.168 231.623 139.163 231.861 140.162V140.047C231.861 139.479 231.834 138.902 231.861 138.348C231.861 138.321 231.908 138.307 231.915 138.348C232.011 138.916 232.05 139.492 232.031 140.067C232.031 140.339 232.031 140.611 232.01 140.883C232.105 141.331 232.194 141.78 232.269 142.242C232.411 143.095 232.829 146.269 232.877 146.901C232.877 147.033 232.738 147.06 232.693 146.924C232.496 146.289 231.905 143.023 231.725 142.184C231.374 140.556 231.113 138.91 230.943 137.254C230.95 137.182 231.008 137.179 231.018 137.213Z" fill="#263238"/>
<path d="M224.4 133.189C222.16 133.495 218.722 129.791 217.498 126.923C217.413 126.726 217.889 124.793 218.355 122.418C218.633 120.973 218.905 119.359 219.034 117.868C219.061 117.562 220.054 118.224 220.054 118.224L221.936 118.877L228.182 121.048C228.182 121.048 226.958 124.086 226.724 126.685C226.705 126.891 226.705 127.098 226.724 127.304C226.724 127.335 226.724 127.369 226.724 127.409C226.812 128.582 226.568 132.89 224.4 133.189Z" fill="#EB9481"/>
<path d="M226.73 127.297C226.73 127.328 226.73 127.362 226.73 127.403C226.408 127.412 226.085 127.397 225.765 127.358C219.482 126.611 219.469 118.523 219.469 118.523L221.946 118.863L228.181 121.048C228.181 121.048 226.958 124.086 226.724 126.686C226.708 126.889 226.71 127.094 226.73 127.297Z" fill="#263238"/>
<path d="M218.331 106.307C217.094 109.563 218.195 119.285 220.414 121.599C223.632 124.932 229.221 125.612 232.137 121.67C234.964 117.851 233.302 105.21 230.778 103.086C227.098 99.9429 220.162 101.503 218.331 106.307Z" fill="#EB9481"/>
<path d="M227.056 113.168C227.056 113.144 227.008 113.205 227.012 113.233C227.103 113.885 227.1 114.65 226.529 114.932C226.512 114.932 226.529 114.976 226.529 114.969C227.253 114.785 227.249 113.773 227.056 113.168Z" fill="#263238"/>
<path d="M226.398 112.553C225.338 112.587 225.484 114.707 226.466 114.677C227.448 114.646 227.288 112.519 226.398 112.553Z" fill="#263238"/>
<path d="M231.077 112.801C231.077 112.777 231.131 112.828 231.131 112.855C231.155 113.515 231.294 114.266 231.906 114.442V114.48C231.175 114.429 231.002 113.43 231.077 112.801Z" fill="#263238"/>
<path d="M231.624 112.074C232.674 111.921 232.905 114.035 231.929 114.177C230.954 114.32 230.737 112.213 231.624 112.074Z" fill="#263238"/>
<path d="M225.494 111.636C225.767 111.538 226.035 111.424 226.296 111.296C226.596 111.214 226.86 111.035 227.047 110.786C227.09 110.697 227.103 110.596 227.082 110.498C227.062 110.401 227.01 110.314 226.935 110.249C226.767 110.143 226.574 110.084 226.376 110.077C226.177 110.07 225.981 110.117 225.806 110.212C225.424 110.35 225.105 110.625 224.913 110.983C224.875 111.067 224.863 111.161 224.877 111.252C224.891 111.343 224.931 111.428 224.992 111.497C225.054 111.566 225.134 111.616 225.223 111.64C225.312 111.665 225.406 111.663 225.494 111.636Z" fill="#263238"/>
<path d="M232.367 110.949C232.079 110.911 231.793 110.858 231.511 110.789C231.199 110.772 230.902 110.652 230.665 110.45C230.604 110.371 230.57 110.274 230.57 110.174C230.57 110.075 230.604 109.978 230.665 109.899C230.804 109.758 230.979 109.657 231.171 109.607C231.363 109.557 231.565 109.559 231.755 109.614C232.152 109.67 232.515 109.87 232.775 110.174C232.832 110.247 232.867 110.335 232.876 110.427C232.884 110.52 232.866 110.612 232.823 110.694C232.78 110.776 232.714 110.844 232.633 110.889C232.552 110.934 232.46 110.955 232.367 110.949Z" fill="#263238"/>
<path d="M226.906 119.094C227.073 119.237 227.246 119.434 227.484 119.434C227.723 119.41 227.954 119.337 228.164 119.22C228.184 119.22 228.208 119.22 228.194 119.251C228.11 119.387 227.99 119.497 227.847 119.57C227.705 119.643 227.545 119.676 227.385 119.665C227.249 119.64 227.123 119.575 227.024 119.478C226.925 119.381 226.857 119.257 226.828 119.122C226.832 119.091 226.882 119.074 226.906 119.094Z" fill="#263238"/>
<path d="M227.46 117.076C227.644 117.325 227.878 117.534 228.147 117.687C228.417 117.841 228.715 117.937 229.023 117.969C229.292 118.002 229.565 117.995 229.832 117.949C229.883 117.946 229.933 117.937 229.981 117.922L230.124 117.891C230.159 117.882 230.19 117.862 230.212 117.834C230.234 117.806 230.246 117.771 230.246 117.735C230.248 117.714 230.248 117.692 230.246 117.67V117.613C230.226 117.106 230.124 116.342 230.124 116.342C230.314 116.42 231.286 116.78 231.252 116.515C230.97 114.337 230.658 111.911 229.917 109.804C229.912 109.79 229.902 109.778 229.89 109.771C229.877 109.763 229.862 109.761 229.847 109.764C229.832 109.767 229.819 109.775 229.81 109.786C229.801 109.798 229.797 109.813 229.798 109.828C229.985 111.934 230.542 113.99 230.766 116.104C230.421 115.97 230.058 115.887 229.689 115.856C229.618 115.883 229.913 117.334 229.903 117.555C229.904 117.563 229.904 117.571 229.903 117.579C229.061 117.749 228.401 117.535 227.525 117.021C227.467 116.97 227.416 117.028 227.46 117.076Z" fill="#263238"/>
<path d="M229.513 117.715C229.257 118.097 228.906 118.406 228.494 118.612C228.27 118.719 228.018 118.752 227.774 118.707C227.24 118.605 227.193 118.126 227.26 117.708C227.298 117.485 227.362 117.267 227.451 117.059C228.05 117.494 228.773 117.724 229.513 117.715Z" fill="#263238"/>
<path d="M228.508 118.612C228.284 118.719 228.031 118.752 227.787 118.707C227.254 118.605 227.206 118.126 227.274 117.708C227.842 117.725 228.423 118.068 228.508 118.612Z" fill="#FF99BA"/>
<path d="M218.163 105.499C219.862 100.741 227.722 100.741 229.866 102.192C230.469 102.584 230.989 103.093 231.394 103.687C231.799 104.281 232.083 104.95 232.228 105.655C232.228 105.655 231.721 104.432 230.868 104.435C230.016 104.438 230.168 105.295 228.908 105.672C227.766 106.012 226.155 104.853 224.225 105.183C223.391 105.305 222.618 105.694 222.021 106.291C221.425 106.888 221.037 107.661 220.916 108.496C220.661 110.072 220.858 116.437 219.556 116.756C218.255 117.076 216.804 109.345 218.163 105.499Z" fill="#263238"/>
<path d="M220.655 114.436C220.655 114.436 218.616 111.224 217.186 111.931C215.755 112.638 217.155 117.222 218.783 117.919C218.986 118.02 219.207 118.08 219.434 118.095C219.66 118.11 219.887 118.079 220.102 118.005C220.316 117.931 220.513 117.814 220.682 117.662C220.851 117.51 220.987 117.326 221.083 117.12L220.655 114.436Z" fill="#EB9481"/>
<path d="M217.624 113.233C217.62 113.234 217.616 113.237 217.613 113.241C217.611 113.245 217.609 113.25 217.609 113.255C217.609 113.26 217.611 113.264 217.613 113.268C217.616 113.272 217.62 113.275 217.624 113.277C218.763 113.8 219.323 114.908 219.697 116.043C219.357 115.598 218.912 115.339 218.318 115.723C218.287 115.744 218.318 115.791 218.345 115.788C218.552 115.732 218.772 115.742 218.973 115.816C219.175 115.89 219.348 116.025 219.469 116.203C219.67 116.5 219.837 116.817 219.969 117.151C220.02 117.256 220.21 117.212 220.176 117.089C220.175 117.08 220.175 117.071 220.176 117.062C220.258 115.588 219.204 113.46 217.624 113.233Z" fill="#263238"/>
<path d="M210.93 135.66C207.416 142.011 199.339 166.365 204.844 170.969C211.674 176.691 232.708 176.161 237.326 176.246C239.334 176.284 241.713 162.165 240.14 160.704C238.566 159.242 216.2 160.024 215.215 158.77C214.811 158.25 219.041 140.441 217.699 132.778C216.316 124.912 212.513 132.778 210.93 135.66Z" fill="#EB9481"/>
<path d="M218.436 129.815C221.198 136.272 215.235 157.523 215.982 158.108C216.73 158.692 234.165 158.984 234.165 158.984L232.174 178.207C228.65 178.17 205.397 176.009 202.271 169.967C199.145 163.925 205.669 142.877 209.886 134.834C212.975 128.996 216.536 125.364 218.436 129.815Z" fill="#E1E2FF"/>
<path d="M211.746 157.01C213.146 157.204 214.522 157.438 215.908 157.618C215.901 157.588 215.901 157.557 215.908 157.526L215.929 157.391C215.092 156.96 214.21 156.623 213.298 156.388C213.241 156.368 213.248 156.266 213.298 156.273C214.225 156.334 215.134 156.548 215.99 156.908C217.032 150.599 218.15 144.3 219.344 138.011C219.344 137.991 219.384 137.994 219.384 138.011C219.183 139.695 218.969 141.375 218.742 143.054C219.011 142.215 219.34 141.379 219.599 140.57C219.604 140.562 219.611 140.556 219.62 140.552C219.629 140.549 219.639 140.549 219.648 140.551C219.657 140.554 219.666 140.56 219.671 140.567C219.677 140.575 219.68 140.584 219.68 140.594C219.449 141.953 219.204 143.54 218.545 144.774C218.543 144.786 218.538 144.798 218.531 144.809C218.524 144.819 218.515 144.828 218.504 144.835C217.92 148.967 217.254 153.085 216.465 157.183C216.707 157.338 216.923 157.528 217.108 157.747C219.17 158.305 233.857 158.512 234.098 158.74C234.339 158.967 234.163 160.32 234.03 161.57C234.03 161.679 233.847 161.754 233.853 161.645C233.908 160.823 233.993 159.266 233.83 159.212C233.602 159.141 218.678 159.586 211.681 157.146C211.596 157.119 211.667 157 211.746 157.01Z" fill="#263238"/>
<path d="M226.906 173.98C226.566 174.304 226.274 174.676 226.04 175.084C225.792 175.484 225.604 175.918 225.482 176.372C225.824 176.049 226.116 175.676 226.349 175.268C226.595 174.867 226.783 174.434 226.906 173.98Z" fill="#263238"/>
<path d="M235.589 160.007C235.589 160.007 239.697 160.129 240.713 160.225C241.729 160.32 251.927 158.159 255.172 160.163C257.466 161.584 262.648 167.979 262.138 172.281C261.826 174.88 258.941 175.078 258.941 175.078C258.941 175.078 258.523 176.661 257.276 177.154C256.834 177.338 256.357 177.424 255.879 177.408C255.4 177.391 254.931 177.272 254.503 177.059C254.359 177.533 254.092 177.96 253.728 178.296C253.364 178.632 252.917 178.866 252.433 178.972C250.395 179.43 249.487 178.224 249.487 178.224C248.65 179.126 247.514 179.695 246.29 179.825C243.344 180.066 239.354 178.425 238.885 177.239C238.117 175.302 241.488 175.224 243.799 175.428C243.799 175.428 242.963 175.366 242.796 174.204C242.796 174.204 241.481 177.283 234.383 175.954L235.589 160.007Z" fill="#EB9481"/>
<path d="M245.926 165.329C247.591 167.028 248.777 169.382 249.664 171.574C250.551 173.766 250.975 176.151 249.637 178.221C249.625 178.237 249.608 178.248 249.588 178.253C249.569 178.257 249.548 178.255 249.531 178.246C249.513 178.237 249.499 178.222 249.491 178.204C249.483 178.186 249.482 178.165 249.487 178.146C250.666 175.767 249.912 173.311 248.909 171.01C248.05 169.046 247.17 167.109 245.77 165.464C245.688 165.38 245.838 165.24 245.926 165.329Z" fill="#263238"/>
<path d="M250.422 164.414C253.164 167.398 256.538 172.865 254.568 177.021C254.564 177.032 254.555 177.042 254.544 177.047C254.533 177.052 254.521 177.052 254.51 177.048C254.499 177.044 254.489 177.036 254.484 177.025C254.479 177.014 254.479 177.002 254.483 176.991C255.56 172.413 252.784 168.108 250.3 164.516C250.245 164.442 250.357 164.343 250.422 164.414Z" fill="#263238"/>
<path d="M254.554 163.262C256.157 164.652 257.371 166.643 258.312 168.526C259.331 170.565 259.746 172.825 259.063 175.043C259.059 175.054 259.051 175.063 259.041 175.068C259.031 175.073 259.019 175.075 259.008 175.072C258.997 175.07 258.987 175.064 258.981 175.055C258.974 175.046 258.97 175.034 258.971 175.023C259.409 170.517 257.32 166.701 254.424 163.378C254.36 163.303 254.482 163.201 254.554 163.262Z" fill="#263238"/>
<path d="M238.871 176.359C238.871 176.382 238.871 176.406 238.902 176.386C239.972 175.288 241.797 175.288 243.533 175.543C243.544 175.549 243.556 175.552 243.569 175.552C243.581 175.552 243.594 175.549 243.605 175.543C244.668 175.706 245.691 175.961 246.479 176.117C246.505 176.122 246.531 176.117 246.554 176.103C246.576 176.09 246.593 176.069 246.601 176.044C246.609 176.02 246.608 175.993 246.598 175.969C246.588 175.945 246.57 175.925 246.547 175.913C245.592 175.464 244.571 175.168 243.523 175.037C243.332 174.724 243.201 174.378 243.139 174.017C243.096 173.454 243.227 172.892 243.516 172.407C243.516 172.379 243.492 172.359 243.472 172.379C243.245 172.591 243.067 172.849 242.95 173.136C242.833 173.423 242.779 173.731 242.792 174.041C242.792 174.061 242.792 174.085 242.792 174.109C242.688 174.325 242.548 174.523 242.378 174.693C242.27 174.791 242.157 174.882 242.038 174.965C240.76 175.02 239.541 175.397 238.871 176.359ZM243.044 174.999C242.867 174.999 242.687 174.979 242.507 174.972C242.557 174.916 242.603 174.857 242.646 174.795C242.739 174.662 242.809 174.514 242.854 174.357C242.887 174.578 242.951 174.793 243.044 174.996V174.999Z" fill="#263238"/>
<path d="M226.771 126.451L224.79 131.993L217.739 125.347L215.9 127.64C215.9 127.64 222.962 138.358 222.982 137.858L225.051 133.067L228.426 136.217L227.845 128.007L226.771 126.451Z" fill="#E1E2FF"/>
<path d="M228.357 132.143C228.218 130.784 228.113 129.424 227.909 128.065C227.909 128.017 227.827 128.001 227.817 128.065C227.596 129.384 228.157 134.552 228.204 135.796C228.062 135.656 225.082 133.03 225.054 133.077C224.596 133.845 223.077 137.335 222.975 137.651C221.86 135.952 217.14 129.248 215.839 127.647C215.832 127.636 215.821 127.629 215.809 127.626C215.796 127.623 215.783 127.625 215.773 127.632C215.762 127.639 215.754 127.649 215.751 127.662C215.748 127.674 215.751 127.687 215.757 127.698C216.756 129.502 222.859 138.348 222.941 138.32C223.749 136.671 224.47 134.981 225.102 133.257C225.612 133.835 228.633 136.812 228.636 136.611C228.622 135.118 228.529 133.626 228.357 132.143Z" fill="#263238"/>
<path d="M241.982 185.295H234.754V186.424H241.982V185.295Z" fill="#455A64"/>
<path d="M241.982 185.295H234.754V186.04H241.982V185.295Z" fill="#263238"/>
<path d="M226.176 182.261C226.615 182.914 227.234 183.426 227.957 183.735C228.681 184.045 229.479 184.138 230.254 184.004C230.504 183.955 230.75 183.885 230.988 183.793C231.346 183.651 231.688 183.471 232.007 183.257L231.086 181.897C230.917 182.017 230.736 182.121 230.546 182.207C228.827 182.985 227.736 181.629 227.522 181.32C226.53 179.926 226.163 176.746 227.182 175.526C227.25 175.434 227.522 175.291 228.704 175.526C228.919 175.574 229.163 175.628 229.438 175.703C229.652 175.776 229.873 175.824 230.098 175.845L230.128 175.03L230.206 174.214C230.132 174.214 230.016 174.167 229.867 174.123C229.329 173.964 228.779 173.851 228.222 173.783C227.366 173.691 226.468 173.783 225.918 174.462C224.28 176.477 224.936 180.514 226.176 182.261Z" fill="#455A64"/>
<path d="M231.075 181.894C230.905 182.014 230.725 182.117 230.535 182.203L230.974 183.794C231.331 183.651 231.673 183.471 231.993 183.257L231.075 181.894Z" fill="#263238"/>
<path d="M228.209 173.793L228.695 175.536C228.909 175.584 229.154 175.638 229.429 175.713C229.642 175.786 229.864 175.834 230.088 175.856L230.119 175.04L230.197 174.225C230.122 174.225 230.007 174.177 229.857 174.133C229.318 173.974 228.767 173.861 228.209 173.793Z" fill="#263238"/>
<path d="M247.978 171.679C247.978 171.679 247.112 179.043 245.599 182.145C244.087 185.248 242.011 185.588 240.713 185.588H236.003C234.705 185.588 232.605 185.248 231.117 182.145C229.629 179.043 228.738 171.679 228.738 171.679H247.978Z" fill="#455A64"/>
<path d="M246.566 176.484C246.474 176.484 246.385 176.457 246.309 176.406C246.233 176.356 246.174 176.283 246.139 176.199C246.104 176.115 246.095 176.022 246.112 175.932C246.13 175.842 246.174 175.76 246.239 175.695C246.304 175.631 246.386 175.587 246.475 175.569C246.565 175.551 246.658 175.56 246.743 175.595C246.827 175.63 246.899 175.689 246.95 175.765C247.001 175.841 247.028 175.931 247.028 176.022C247.028 176.145 246.979 176.262 246.892 176.349C246.806 176.436 246.688 176.484 246.566 176.484ZM246.566 175.645C246.491 175.645 246.418 175.667 246.356 175.709C246.294 175.75 246.246 175.809 246.217 175.878C246.189 175.947 246.181 176.023 246.196 176.096C246.21 176.169 246.246 176.236 246.299 176.289C246.352 176.342 246.419 176.378 246.492 176.392C246.565 176.407 246.641 176.399 246.71 176.371C246.779 176.342 246.838 176.294 246.879 176.232C246.921 176.17 246.943 176.097 246.943 176.022C246.943 175.922 246.903 175.826 246.832 175.755C246.762 175.685 246.666 175.645 246.566 175.645Z" fill="#455A64"/>
<path d="M232.867 174.106C232.775 174.106 232.685 174.08 232.608 174.029C232.531 173.978 232.471 173.906 232.435 173.821C232.399 173.736 232.389 173.642 232.407 173.551C232.425 173.461 232.469 173.378 232.534 173.312C232.599 173.247 232.681 173.202 232.772 173.184C232.862 173.166 232.956 173.175 233.041 173.21C233.127 173.245 233.2 173.304 233.251 173.381C233.302 173.458 233.33 173.548 233.33 173.64C233.33 173.701 233.318 173.762 233.295 173.818C233.272 173.874 233.238 173.926 233.195 173.969C233.152 174.012 233.101 174.047 233.045 174.07C232.989 174.094 232.928 174.106 232.867 174.106ZM232.867 173.263C232.792 173.262 232.718 173.284 232.655 173.326C232.592 173.367 232.542 173.427 232.513 173.496C232.484 173.566 232.476 173.643 232.491 173.717C232.505 173.791 232.541 173.859 232.595 173.913C232.648 173.966 232.716 174.002 232.791 174.017C232.865 174.031 232.942 174.024 233.011 173.994C233.081 173.965 233.14 173.916 233.182 173.853C233.223 173.79 233.245 173.716 233.245 173.64C233.245 173.591 233.235 173.542 233.216 173.496C233.197 173.45 233.169 173.408 233.134 173.373C233.099 173.338 233.057 173.311 233.012 173.292C232.966 173.273 232.917 173.263 232.867 173.263Z" fill="#455A64"/>
<path d="M233.551 180.892C233.459 180.892 233.368 180.865 233.291 180.815C233.214 180.764 233.154 180.691 233.118 180.606C233.083 180.521 233.073 180.428 233.091 180.337C233.108 180.247 233.152 180.163 233.217 180.098C233.282 180.033 233.365 179.988 233.455 179.97C233.546 179.951 233.64 179.96 233.725 179.996C233.81 180.031 233.883 180.09 233.934 180.167C233.986 180.244 234.013 180.334 234.013 180.426C234.014 180.487 234.002 180.547 233.979 180.604C233.956 180.66 233.922 180.712 233.879 180.755C233.836 180.798 233.785 180.833 233.729 180.856C233.672 180.879 233.612 180.892 233.551 180.892ZM233.551 180.049C233.475 180.048 233.401 180.07 233.338 180.112C233.275 180.153 233.226 180.212 233.197 180.282C233.167 180.352 233.16 180.429 233.174 180.503C233.189 180.577 233.225 180.645 233.278 180.698C233.332 180.752 233.4 180.788 233.474 180.803C233.548 180.817 233.625 180.81 233.695 180.78C233.764 180.751 233.824 180.702 233.865 180.639C233.907 180.576 233.929 180.502 233.928 180.426C233.928 180.326 233.888 180.23 233.818 180.159C233.747 180.089 233.651 180.049 233.551 180.049Z" fill="#455A64"/>
<path d="M229.774 172.893C229.682 172.893 229.592 172.865 229.515 172.814C229.438 172.762 229.379 172.69 229.344 172.604C229.309 172.519 229.3 172.425 229.318 172.335C229.336 172.244 229.381 172.162 229.446 172.097C229.512 172.032 229.595 171.988 229.685 171.97C229.776 171.952 229.87 171.962 229.955 171.998C230.04 172.034 230.112 172.094 230.163 172.171C230.214 172.248 230.24 172.338 230.24 172.43C230.24 172.491 230.228 172.552 230.204 172.608C230.181 172.664 230.146 172.715 230.103 172.758C230.06 172.801 230.008 172.835 229.952 172.858C229.896 172.881 229.835 172.893 229.774 172.893ZM229.774 172.05C229.699 172.05 229.625 172.072 229.563 172.114C229.5 172.156 229.451 172.215 229.423 172.285C229.394 172.354 229.386 172.431 229.401 172.505C229.416 172.578 229.452 172.646 229.505 172.699C229.558 172.753 229.626 172.789 229.7 172.804C229.774 172.818 229.85 172.811 229.92 172.782C229.989 172.753 230.049 172.704 230.091 172.642C230.132 172.579 230.155 172.506 230.155 172.43C230.155 172.329 230.115 172.233 230.043 172.161C229.972 172.09 229.875 172.05 229.774 172.05Z" fill="#455A64"/>
<path d="M236.224 175.774C236.132 175.774 236.043 175.747 235.967 175.696C235.891 175.645 235.832 175.573 235.797 175.489C235.762 175.404 235.753 175.311 235.771 175.222C235.788 175.132 235.832 175.05 235.897 174.985C235.962 174.921 236.044 174.877 236.134 174.859C236.223 174.841 236.316 174.85 236.401 174.885C236.485 174.92 236.557 174.979 236.608 175.055C236.659 175.131 236.686 175.221 236.686 175.312C236.686 175.373 236.674 175.433 236.651 175.489C236.628 175.545 236.594 175.596 236.551 175.639C236.508 175.682 236.457 175.716 236.401 175.739C236.345 175.762 236.285 175.774 236.224 175.774ZM236.224 174.935C236.149 174.935 236.076 174.957 236.014 174.998C235.952 175.04 235.904 175.099 235.875 175.168C235.847 175.237 235.839 175.312 235.854 175.386C235.868 175.459 235.904 175.526 235.957 175.579C236.01 175.631 236.077 175.667 236.15 175.682C236.223 175.696 236.299 175.689 236.368 175.66C236.437 175.632 236.496 175.584 236.537 175.522C236.579 175.46 236.601 175.387 236.601 175.312C236.6 175.212 236.56 175.117 236.49 175.046C236.419 174.976 236.324 174.936 236.224 174.935Z" fill="#455A64"/>
<path d="M241.27 180.698C241.178 180.698 241.088 180.671 241.012 180.619C240.935 180.568 240.875 180.496 240.84 180.411C240.805 180.325 240.796 180.232 240.814 180.142C240.832 180.051 240.876 179.968 240.941 179.903C241.006 179.838 241.089 179.794 241.179 179.776C241.27 179.758 241.363 179.767 241.448 179.802C241.533 179.838 241.606 179.897 241.657 179.974C241.708 180.05 241.736 180.14 241.736 180.232C241.736 180.294 241.724 180.354 241.701 180.411C241.678 180.468 241.644 180.519 241.6 180.563C241.557 180.606 241.506 180.64 241.449 180.663C241.392 180.687 241.331 180.698 241.27 180.698ZM241.27 179.855C241.195 179.855 241.121 179.878 241.058 179.92C240.996 179.962 240.947 180.021 240.918 180.091C240.89 180.161 240.882 180.237 240.897 180.311C240.912 180.385 240.949 180.453 241.002 180.506C241.056 180.559 241.124 180.595 241.198 180.609C241.272 180.624 241.349 180.616 241.418 180.586C241.488 180.557 241.547 180.508 241.588 180.445C241.63 180.382 241.651 180.308 241.651 180.232C241.651 180.183 241.641 180.133 241.622 180.087C241.603 180.041 241.575 180 241.539 179.964C241.504 179.929 241.462 179.902 241.416 179.883C241.369 179.864 241.32 179.855 241.27 179.855Z" fill="#455A64"/>
<path d="M238.178 172.892C238.086 172.893 237.995 172.866 237.918 172.815C237.841 172.765 237.781 172.692 237.745 172.607C237.709 172.521 237.7 172.428 237.718 172.337C237.736 172.246 237.78 172.163 237.845 172.098C237.911 172.032 237.994 171.988 238.085 171.97C238.175 171.952 238.269 171.962 238.354 171.998C238.439 172.033 238.512 172.093 238.563 172.17C238.614 172.248 238.641 172.338 238.64 172.43C238.64 172.553 238.591 172.67 238.505 172.757C238.418 172.844 238.3 172.892 238.178 172.892ZM238.178 172.05C238.102 172.049 238.029 172.071 237.966 172.112C237.903 172.154 237.853 172.213 237.824 172.282C237.795 172.352 237.787 172.428 237.801 172.502C237.815 172.577 237.851 172.645 237.904 172.698C237.957 172.752 238.025 172.788 238.099 172.803C238.173 172.818 238.25 172.811 238.319 172.782C238.389 172.754 238.449 172.705 238.491 172.642C238.533 172.579 238.555 172.506 238.555 172.43C238.555 172.33 238.515 172.234 238.445 172.162C238.374 172.091 238.278 172.051 238.178 172.05Z" fill="#455A64"/>
<path d="M237.603 178.842C237.512 178.842 237.423 178.814 237.347 178.763C237.272 178.712 237.213 178.639 237.179 178.555C237.144 178.47 237.136 178.378 237.154 178.288C237.172 178.199 237.216 178.117 237.281 178.052C237.346 177.988 237.428 177.944 237.518 177.927C237.607 177.909 237.7 177.919 237.784 177.954C237.869 177.989 237.941 178.048 237.991 178.124C238.042 178.2 238.069 178.289 238.069 178.38C238.069 178.441 238.057 178.502 238.033 178.558C238.01 178.614 237.976 178.665 237.932 178.708C237.889 178.751 237.838 178.785 237.781 178.808C237.725 178.831 237.664 178.843 237.603 178.842ZM237.603 178.003C237.529 178.004 237.456 178.027 237.395 178.068C237.333 178.11 237.285 178.169 237.257 178.238C237.229 178.307 237.222 178.383 237.237 178.456C237.252 178.529 237.288 178.596 237.341 178.648C237.394 178.701 237.461 178.736 237.534 178.751C237.607 178.765 237.683 178.757 237.752 178.728C237.821 178.7 237.879 178.651 237.921 178.59C237.962 178.528 237.984 178.455 237.984 178.38C237.984 178.331 237.974 178.281 237.955 178.235C237.936 178.189 237.908 178.147 237.872 178.112C237.837 178.077 237.795 178.05 237.749 178.031C237.703 178.012 237.653 178.003 237.603 178.003Z" fill="#455A64"/>
<path d="M233.016 184.381C232.924 184.382 232.833 184.355 232.756 184.305C232.679 184.254 232.619 184.181 232.583 184.096C232.548 184.011 232.538 183.918 232.555 183.827C232.573 183.737 232.617 183.653 232.682 183.588C232.747 183.523 232.83 183.478 232.92 183.46C233.011 183.441 233.105 183.45 233.19 183.486C233.275 183.521 233.348 183.58 233.399 183.657C233.451 183.734 233.478 183.824 233.478 183.916C233.478 183.977 233.467 184.037 233.444 184.094C233.421 184.15 233.387 184.202 233.344 184.245C233.301 184.288 233.25 184.323 233.193 184.346C233.137 184.369 233.077 184.381 233.016 184.381ZM233.016 183.539C232.94 183.538 232.866 183.56 232.803 183.602C232.74 183.643 232.691 183.702 232.661 183.772C232.632 183.842 232.624 183.919 232.639 183.993C232.654 184.067 232.69 184.135 232.743 184.188C232.797 184.242 232.865 184.278 232.939 184.293C233.013 184.307 233.09 184.3 233.16 184.27C233.229 184.241 233.289 184.192 233.33 184.129C233.372 184.066 233.394 183.992 233.393 183.916C233.393 183.866 233.383 183.817 233.364 183.772C233.345 183.726 233.318 183.684 233.283 183.649C233.247 183.614 233.206 183.586 233.16 183.567C233.114 183.549 233.065 183.539 233.016 183.539Z" fill="#455A64"/>
<path d="M244.271 173.586C244.179 173.586 244.09 173.559 244.014 173.508C243.938 173.457 243.879 173.385 243.844 173.3C243.809 173.216 243.8 173.123 243.817 173.033C243.835 172.944 243.879 172.861 243.944 172.797C244.009 172.732 244.091 172.688 244.181 172.67C244.27 172.652 244.363 172.662 244.448 172.697C244.532 172.732 244.604 172.791 244.655 172.867C244.706 172.943 244.733 173.032 244.733 173.124C244.732 173.246 244.683 173.363 244.597 173.449C244.51 173.536 244.393 173.585 244.271 173.586ZM244.271 172.746C244.196 172.746 244.123 172.768 244.061 172.81C243.999 172.851 243.951 172.91 243.922 172.979C243.894 173.048 243.886 173.124 243.901 173.197C243.915 173.27 243.951 173.337 244.004 173.39C244.057 173.443 244.124 173.479 244.197 173.493C244.27 173.508 244.346 173.501 244.415 173.472C244.484 173.443 244.543 173.395 244.584 173.333C244.626 173.271 244.648 173.198 244.648 173.124C244.648 173.023 244.608 172.928 244.537 172.857C244.467 172.786 244.371 172.746 244.271 172.746Z" fill="#455A64"/>
<path d="M231.358 177.582C231.265 177.583 231.175 177.556 231.098 177.505C231.021 177.454 230.961 177.382 230.925 177.297C230.889 177.212 230.88 177.118 230.897 177.028C230.915 176.937 230.959 176.854 231.024 176.788C231.089 176.723 231.172 176.678 231.262 176.66C231.353 176.642 231.446 176.651 231.532 176.686C231.617 176.721 231.69 176.781 231.741 176.857C231.792 176.934 231.82 177.024 231.82 177.116C231.82 177.239 231.771 177.357 231.685 177.444C231.598 177.532 231.48 177.581 231.358 177.582ZM231.358 176.739C231.282 176.739 231.208 176.76 231.145 176.802C231.082 176.843 231.032 176.903 231.003 176.973C230.974 177.042 230.966 177.119 230.981 177.193C230.995 177.267 231.032 177.335 231.085 177.389C231.139 177.442 231.207 177.479 231.281 177.493C231.355 177.508 231.432 177.5 231.501 177.471C231.571 177.442 231.631 177.392 231.672 177.329C231.714 177.266 231.735 177.192 231.735 177.116C231.734 177.017 231.694 176.921 231.623 176.851C231.553 176.78 231.457 176.74 231.358 176.739Z" fill="#455A64"/>
<path d="M240.836 176.195C240.744 176.196 240.653 176.169 240.576 176.118C240.499 176.068 240.439 175.995 240.403 175.91C240.368 175.824 240.358 175.731 240.376 175.64C240.394 175.549 240.438 175.466 240.504 175.401C240.569 175.335 240.652 175.291 240.743 175.273C240.833 175.255 240.927 175.265 241.012 175.3C241.098 175.336 241.17 175.396 241.221 175.473C241.272 175.55 241.299 175.641 241.298 175.733C241.298 175.856 241.25 175.973 241.163 176.06C241.076 176.147 240.959 176.195 240.836 176.195ZM240.836 175.353C240.761 175.352 240.687 175.374 240.624 175.415C240.561 175.457 240.511 175.516 240.482 175.585C240.453 175.655 240.445 175.731 240.459 175.805C240.473 175.88 240.509 175.948 240.562 176.001C240.615 176.055 240.683 176.091 240.757 176.106C240.831 176.121 240.908 176.114 240.978 176.085C241.047 176.057 241.107 176.008 241.149 175.945C241.191 175.882 241.213 175.809 241.213 175.733C241.213 175.633 241.174 175.537 241.103 175.465C241.032 175.394 240.936 175.354 240.836 175.353Z" fill="#455A64"/>
<path d="M237.604 183.685C237.512 183.685 237.422 183.657 237.346 183.606C237.269 183.555 237.209 183.482 237.174 183.397C237.139 183.312 237.13 183.219 237.148 183.128C237.166 183.038 237.21 182.955 237.275 182.89C237.34 182.825 237.423 182.781 237.513 182.763C237.604 182.745 237.697 182.754 237.782 182.789C237.867 182.824 237.94 182.884 237.991 182.961C238.042 183.037 238.07 183.127 238.07 183.219C238.07 183.343 238.021 183.461 237.933 183.548C237.846 183.636 237.728 183.685 237.604 183.685ZM237.604 182.842C237.529 182.842 237.455 182.864 237.392 182.906C237.33 182.948 237.281 183.008 237.252 183.078C237.224 183.147 237.216 183.224 237.231 183.298C237.246 183.372 237.283 183.44 237.336 183.493C237.39 183.546 237.458 183.582 237.532 183.596C237.606 183.611 237.683 183.603 237.752 183.573C237.822 183.544 237.881 183.495 237.922 183.432C237.964 183.369 237.985 183.295 237.985 183.219C237.985 183.169 237.975 183.12 237.956 183.074C237.937 183.028 237.909 182.986 237.873 182.951C237.838 182.916 237.796 182.888 237.75 182.87C237.703 182.851 237.654 182.842 237.604 182.842Z" fill="#455A64"/>
<path d="M241.499 185.357C241.407 185.357 241.317 185.329 241.24 185.278C241.164 185.227 241.104 185.154 241.069 185.069C241.033 184.984 241.024 184.891 241.042 184.8C241.06 184.71 241.104 184.627 241.17 184.562C241.235 184.497 241.318 184.452 241.408 184.434C241.498 184.417 241.592 184.426 241.677 184.461C241.762 184.496 241.835 184.556 241.886 184.632C241.937 184.709 241.964 184.799 241.964 184.891C241.964 185.015 241.915 185.133 241.828 185.22C241.741 185.308 241.622 185.357 241.499 185.357ZM241.499 184.514C241.423 184.514 241.35 184.536 241.287 184.578C241.224 184.62 241.176 184.68 241.147 184.75C241.118 184.819 241.111 184.896 241.126 184.97C241.141 185.044 241.177 185.112 241.231 185.165C241.284 185.218 241.353 185.254 241.427 185.268C241.501 185.282 241.577 185.274 241.647 185.245C241.716 185.216 241.775 185.166 241.817 185.103C241.858 185.04 241.88 184.966 241.879 184.891C241.879 184.841 241.869 184.792 241.85 184.746C241.831 184.7 241.803 184.658 241.768 184.623C241.732 184.588 241.69 184.56 241.644 184.542C241.598 184.523 241.549 184.513 241.499 184.514Z" fill="#455A64"/>
<path d="M244.271 178.421C244.179 178.421 244.09 178.394 244.014 178.343C243.938 178.292 243.879 178.22 243.844 178.136C243.809 178.051 243.8 177.958 243.817 177.869C243.835 177.779 243.879 177.697 243.944 177.632C244.009 177.568 244.091 177.524 244.181 177.506C244.27 177.488 244.363 177.497 244.448 177.532C244.532 177.567 244.604 177.626 244.655 177.702C244.706 177.778 244.733 177.868 244.733 177.959C244.732 178.081 244.683 178.198 244.597 178.285C244.51 178.371 244.393 178.42 244.271 178.421ZM244.271 177.582C244.196 177.582 244.123 177.604 244.061 177.645C243.999 177.687 243.951 177.746 243.922 177.815C243.894 177.884 243.886 177.959 243.901 178.033C243.915 178.106 243.951 178.173 244.004 178.226C244.057 178.278 244.124 178.314 244.197 178.329C244.27 178.343 244.346 178.336 244.415 178.307C244.484 178.279 244.543 178.231 244.584 178.169C244.626 178.106 244.648 178.034 244.648 177.959C244.647 177.859 244.607 177.764 244.536 177.693C244.466 177.623 244.37 177.583 244.271 177.582Z" fill="#455A64"/>
<path d="M244.688 182.597C244.596 182.597 244.506 182.57 244.429 182.519C244.353 182.467 244.293 182.394 244.258 182.309C244.223 182.224 244.214 182.13 244.232 182.04C244.25 181.949 244.295 181.866 244.36 181.801C244.426 181.736 244.509 181.692 244.599 181.675C244.69 181.657 244.784 181.667 244.869 181.703C244.954 181.738 245.026 181.799 245.077 181.876C245.128 181.953 245.154 182.043 245.154 182.135C245.154 182.196 245.142 182.257 245.118 182.313C245.095 182.369 245.06 182.42 245.017 182.463C244.974 182.506 244.923 182.54 244.866 182.563C244.81 182.586 244.749 182.598 244.688 182.597ZM244.688 181.755C244.613 181.755 244.539 181.777 244.477 181.819C244.414 181.861 244.365 181.92 244.337 181.99C244.308 182.059 244.3 182.136 244.315 182.209C244.33 182.283 244.366 182.351 244.419 182.404C244.472 182.458 244.54 182.494 244.614 182.508C244.688 182.523 244.764 182.516 244.834 182.487C244.903 182.458 244.963 182.409 245.005 182.347C245.046 182.284 245.069 182.21 245.069 182.135C245.069 182.034 245.029 181.937 244.957 181.866C244.886 181.795 244.789 181.755 244.688 181.755Z" fill="#455A64"/>
<path d="M240.56 111.619C239.726 110.382 239.276 108.927 239.265 107.436C239.265 102.141 245.083 97.8462 252.253 97.8462C259.423 97.8462 265.234 102.141 265.234 107.436C265.234 112.73 259.423 117.028 252.253 117.028C248.773 117.028 245.623 116.009 243.296 114.374L238.82 115.509L240.56 111.619Z" fill="white"/>
<path d="M256.922 107.436C256.922 107.704 257.002 107.967 257.151 108.191C257.3 108.414 257.513 108.589 257.761 108.691C258.009 108.794 258.283 108.821 258.546 108.769C258.81 108.716 259.052 108.587 259.242 108.397C259.432 108.207 259.562 107.964 259.614 107.701C259.667 107.437 259.64 107.164 259.537 106.915C259.434 106.667 259.26 106.455 259.036 106.305C258.813 106.156 258.55 106.076 258.281 106.076C257.921 106.076 257.575 106.22 257.32 106.475C257.065 106.729 256.922 107.075 256.922 107.436Z" fill="#6267DA"/>
<path d="M250.904 107.436C250.904 107.704 250.984 107.967 251.133 108.191C251.283 108.414 251.495 108.589 251.743 108.691C251.992 108.794 252.265 108.821 252.529 108.769C252.792 108.716 253.035 108.587 253.225 108.397C253.415 108.207 253.544 107.964 253.597 107.701C253.649 107.437 253.622 107.164 253.519 106.915C253.416 106.667 253.242 106.455 253.019 106.305C252.795 106.156 252.532 106.076 252.264 106.076C251.903 106.076 251.557 106.22 251.302 106.475C251.047 106.729 250.904 107.075 250.904 107.436Z" fill="#6267DA"/>
<path d="M244.887 107.436C244.887 107.704 244.966 107.967 245.116 108.191C245.265 108.414 245.477 108.589 245.726 108.691C245.974 108.794 246.247 108.821 246.511 108.769C246.775 108.716 247.017 108.587 247.207 108.397C247.397 108.207 247.527 107.964 247.579 107.701C247.632 107.437 247.605 107.164 247.502 106.915C247.399 106.667 247.225 106.455 247.001 106.305C246.778 106.156 246.515 106.076 246.246 106.076C245.885 106.076 245.54 106.22 245.285 106.475C245.03 106.729 244.887 107.075 244.887 107.436Z" fill="#6267DA"/>
<path d="M297 96.7724C297.834 95.5359 298.284 94.0807 298.294 92.5894C298.294 87.2952 292.477 83 285.307 83C278.137 83 272.326 87.2952 272.326 92.5894C272.326 97.8835 278.137 102.182 285.307 102.182C288.783 102.182 291.936 101.163 294.264 99.5282L298.736 100.66L297 96.7724Z" fill="white"/>
<path d="M280.634 92.5895C280.634 92.8583 280.555 93.1211 280.405 93.3446C280.256 93.5681 280.044 93.7423 279.795 93.8452C279.547 93.9481 279.274 93.975 279.01 93.9226C278.746 93.8701 278.504 93.7407 278.314 93.5506C278.124 93.3605 277.995 93.1183 277.942 92.8546C277.89 92.591 277.917 92.3177 278.019 92.0693C278.122 91.8209 278.297 91.6086 278.52 91.4593C278.744 91.3099 279.006 91.2302 279.275 91.2302C279.636 91.2302 279.981 91.3734 280.236 91.6283C280.491 91.8832 280.634 92.229 280.634 92.5895Z" fill="#6267DA"/>
<path d="M286.652 92.5895C286.652 92.8583 286.572 93.1211 286.423 93.3446C286.274 93.5681 286.061 93.7423 285.813 93.8452C285.565 93.9481 285.291 93.975 285.028 93.9226C284.764 93.8701 284.522 93.7407 284.332 93.5506C284.142 93.3605 284.012 93.1183 283.96 92.8546C283.907 92.591 283.934 92.3177 284.037 92.0693C284.14 91.8209 284.314 91.6086 284.538 91.4593C284.761 91.3099 285.024 91.2302 285.293 91.2302C285.653 91.2302 285.999 91.3734 286.254 91.6283C286.509 91.8832 286.652 92.229 286.652 92.5895Z" fill="#6267DA"/>
<path d="M292.67 92.5895C292.67 92.8583 292.59 93.1211 292.441 93.3446C292.291 93.5681 292.079 93.7423 291.831 93.8452C291.582 93.9481 291.309 93.975 291.045 93.9226C290.782 93.8701 290.539 93.7407 290.349 93.5506C290.159 93.3605 290.03 93.1183 289.977 92.8546C289.925 92.591 289.952 92.3177 290.055 92.0693C290.158 91.8209 290.332 91.6086 290.555 91.4593C290.779 91.3099 291.042 91.2302 291.31 91.2302C291.671 91.2302 292.017 91.3734 292.272 91.6283C292.526 91.8832 292.67 92.229 292.67 92.5895Z" fill="#6267DA"/>
</g>
<defs>
<linearGradient id="paint0_linear_552_26230" x1="0" y1="0" x2="350" y2="200" gradientUnits="userSpaceOnUse">
<stop stop-color="#8287F8"/>
<stop offset="1" stop-color="#555AD3"/>
</linearGradient>
<clipPath id="clip0_552_26230">
<rect width="350" height="200" rx="20" fill="white"/>
</clipPath>
</defs>
</svg>
