<svg width="350" height="200" viewBox="0 0 350 200" fill="none" xmlns="http://www.w3.org/2000/svg">
<g clip-path="url(#clip0_552_28999)">
<rect width="350" height="200" rx="20" fill="url(#paint0_linear_552_28999)"/>
<path opacity="0.5" d="M262.5 217C313.586 217 355 202.449 355 184.5C355 166.551 313.586 152 262.5 152C211.414 152 170 166.551 170 184.5C170 202.449 211.414 217 262.5 217Z" fill="white"/>
<path d="M206.154 189.26L223.261 189.182L240.368 189.152L274.578 189.097L308.788 189.152L325.894 189.182L343.001 189.26L325.894 189.341L308.788 189.367L274.578 189.423L240.368 189.367L223.261 189.338L206.154 189.26Z" fill="#263238"/>
<path d="M315.188 62.1313H259.054C258.301 62.1382 257.557 62.2932 256.864 62.5877C256.171 62.8822 255.543 63.3104 255.016 63.8477C254.488 64.385 254.072 65.021 253.791 65.7192C253.509 66.4175 253.368 67.1644 253.375 67.9172V183.474C253.362 184.994 253.953 186.457 255.018 187.542C256.082 188.626 257.534 189.244 259.054 189.26H315.188C316.709 189.245 318.162 188.628 319.228 187.543C320.294 186.458 320.885 184.995 320.873 183.474V67.9172C320.88 67.1639 320.739 66.4167 320.457 65.7182C320.175 65.0197 319.758 64.3837 319.23 63.8464C318.702 63.309 318.073 62.881 317.38 62.5868C316.686 62.2925 315.942 62.1377 315.188 62.1313ZM317.322 179.9C317.322 182.943 315.042 185.403 312.234 185.403H262.015C259.2 185.403 256.92 182.943 256.92 179.9V72.2956C256.92 66.1058 259.2 65.7801 262.015 65.7801H272.075C272.661 65.7801 273.14 66.4316 273.14 67.2689V67.624C273.14 69.5526 274.196 69.5591 275.489 69.5591H298.753C300.056 69.5591 301.112 69.5591 301.112 67.624V67.2852C301.112 66.4609 301.584 65.7964 302.177 65.7964H312.234C315.045 65.7964 317.322 66.6206 317.322 72.3119V179.9Z" fill="#263238"/>
<path d="M317.324 72.2956V179.9C317.324 182.943 315.044 185.403 312.236 185.403H262.017C259.202 185.403 256.922 182.943 256.922 179.9V72.2956C256.922 66.1058 259.202 65.78 262.017 65.78H272.077C272.663 65.78 273.142 66.4316 273.142 67.2688V67.6239C273.142 69.5525 274.198 69.5591 275.491 69.5591H298.755C300.058 69.5591 301.114 69.5591 301.114 67.6239V67.2851C301.114 66.4609 301.586 65.7963 302.179 65.7963H312.236C315.047 65.7963 317.324 66.6205 317.324 72.2956Z" fill="#B5E1EC"/>
<path d="M317.324 72.2989V82.0722H256.922V72.2989C256.922 66.1091 259.202 65.7833 262.017 65.7833H272.077C272.663 65.7833 273.142 66.4349 273.142 67.2721V67.6272C273.142 69.5558 274.198 69.5624 275.491 69.5624H298.755C300.058 69.5624 301.114 69.5624 301.114 67.6272V67.2884C301.114 66.4642 301.586 65.7996 302.179 65.7996H312.236C315.047 65.7996 317.324 66.6238 317.324 72.2989Z" fill="#B5E1EC"/>
<path d="M290.296 67.0735H283.95C283.846 67.0726 283.746 67.0307 283.673 66.9569C283.6 66.883 283.559 66.7832 283.559 66.6793C283.559 66.6279 283.569 66.5771 283.588 66.5297C283.608 66.4822 283.637 66.4391 283.673 66.4028C283.709 66.3665 283.752 66.3377 283.8 66.3181C283.847 66.2984 283.898 66.2883 283.95 66.2883H290.296C290.347 66.2883 290.398 66.2984 290.445 66.3181C290.493 66.3377 290.536 66.3665 290.572 66.4028C290.608 66.4391 290.637 66.4822 290.657 66.5297C290.677 66.5771 290.687 66.6279 290.687 66.6793C290.687 66.7309 290.677 66.7821 290.658 66.8299C290.638 66.8777 290.61 66.9212 290.573 66.9578C290.537 66.9945 290.494 67.0235 290.446 67.0434C290.398 67.0632 290.347 67.0735 290.296 67.0735Z" fill="#B5E1EC"/>
<path d="M266.103 74.9996H260.861V78.3226H266.103V74.9996Z" fill="#B5E1EC"/>
<path d="M266.107 74.9996C265.895 75.2016 265.68 75.3971 265.455 75.5958L264.804 76.179L264.152 76.7784L264.133 76.7979L263.501 77.3224L263.471 77.3452L263.442 77.3224L262.849 76.7947H262.83C262.602 76.5959 262.374 76.3972 262.149 76.1952L261.497 75.6121C261.286 75.4134 261.07 75.2179 260.846 75.0159C261.07 75.1918 261.292 75.371 261.497 75.5502C261.703 75.7294 261.94 75.9118 262.149 76.0975C262.357 76.2832 262.641 76.508 262.885 76.7165L263.432 77.1856L263.983 76.7165L264.716 76.0975L265.368 75.5535L266.107 74.9996Z" fill="#B5E1EC"/>
<path d="M262.936 76.7751L262.851 76.8436C262.721 76.9543 262.584 77.0618 262.447 77.1693C262.31 77.2768 262.121 77.4169 261.939 77.5375C261.757 77.658 261.594 77.7753 261.418 77.8893C261.242 78.0033 261.059 78.1141 260.877 78.2151C261.033 78.075 261.203 77.9447 261.366 77.8176C261.529 77.6906 261.691 77.57 261.877 77.4495C262.063 77.329 262.222 77.2117 262.398 77.0977C262.574 76.9836 262.685 76.9185 262.832 76.8338C262.864 76.8134 262.898 76.7949 262.933 76.7784L262.936 76.7751Z" fill="#B5E1EC"/>
<path d="M266.108 78.2183C265.922 78.1173 265.743 78.0065 265.567 77.8925C265.391 77.7785 265.215 77.6612 265.042 77.5406C264.87 77.4201 264.7 77.2996 264.534 77.1725C264.368 77.0455 264.264 76.964 264.134 76.8467L264.049 76.7783L264.15 76.837C264.298 76.9217 264.441 77.0096 264.58 77.1008C264.759 77.2149 264.932 77.3321 265.104 77.4527C265.277 77.5732 265.446 77.6938 265.613 77.8208C265.779 77.9479 265.932 78.0782 266.108 78.2183Z" fill="#B5E1EC"/>
<path d="M267.228 74.9997C267.228 75.2221 267.162 75.4395 267.039 75.6244C266.915 75.8093 266.739 75.9534 266.534 76.0384C266.328 76.1233 266.102 76.1454 265.884 76.1018C265.666 76.0581 265.466 75.9508 265.309 75.7933C265.151 75.6357 265.045 75.4352 265.002 75.2169C264.959 74.9987 264.981 74.7726 265.067 74.5673C265.153 74.362 265.297 74.1867 265.482 74.0636C265.668 73.9405 265.885 73.8751 266.108 73.8757C266.405 73.8766 266.69 73.9954 266.9 74.2061C267.11 74.4168 267.228 74.7022 267.228 74.9997Z" fill="#455A64"/>
<path d="M266.474 75.2244C266.473 75.248 266.463 75.2704 266.446 75.2868C266.429 75.3032 266.407 75.3124 266.383 75.3124V75.4362C266.379 75.457 266.368 75.4758 266.351 75.4893C266.335 75.5028 266.315 75.5102 266.293 75.5102C266.272 75.5102 266.252 75.5028 266.235 75.4893C266.219 75.4758 266.208 75.457 266.204 75.4362V75.3124H265.696C265.685 75.3132 265.675 75.3119 265.666 75.3085C265.656 75.3051 265.647 75.2998 265.64 75.2928C265.632 75.2849 265.625 75.2753 265.62 75.2647C265.616 75.254 265.613 75.2425 265.613 75.2309C265.613 75.2193 265.616 75.2078 265.62 75.1972C265.625 75.1865 265.632 75.1769 265.64 75.169L266.207 74.4132H266.233H266.285V75.0648C266.306 75.0397 266.337 75.0241 266.369 75.0213C266.402 75.0186 266.434 75.0289 266.459 75.0501C266.485 75.0713 266.5 75.1015 266.503 75.1342C266.506 75.1669 266.495 75.1993 266.474 75.2244ZM266.187 74.7357L265.862 75.1364H266.187V74.7357Z" fill="#B5E1EC"/>
<path d="M270.341 68.1192L270.243 68.217L270.188 68.2724C269.939 68.0243 269.602 67.885 269.251 67.885C268.9 67.885 268.563 68.0243 268.315 68.2724L268.262 68.217C268.23 68.1844 268.197 68.1551 268.168 68.1225L268.292 68.0117C268.378 67.9404 268.474 67.8802 268.575 67.8326C268.694 67.7724 268.822 67.7296 268.953 67.7055C269.015 67.7055 269.077 67.7055 269.139 67.6794H269.305H269.432C269.55 67.6926 269.666 67.7211 269.777 67.7641C269.858 67.7933 269.937 67.8293 270.012 67.8717C270.091 67.9178 270.166 67.9701 270.237 68.028L270.338 68.1225L270.341 68.1192Z" fill="#B5E1EC"/>
<path d="M268.62 68.5786L268.467 68.4255C268.631 68.2497 268.851 68.1348 269.089 68.0997C269.261 68.0757 269.435 68.0927 269.599 68.1493C269.763 68.2059 269.911 68.3006 270.031 68.4255L269.877 68.5786C269.71 68.413 269.484 68.3205 269.249 68.3212C269.132 68.3203 269.016 68.3426 268.908 68.3868C268.8 68.431 268.702 68.4962 268.62 68.5786Z" fill="#B5E1EC"/>
<path d="M269.725 68.7317C269.673 68.7806 269.621 68.8327 269.572 68.8848C269.53 68.8416 269.479 68.8075 269.423 68.7846C269.367 68.7616 269.307 68.7503 269.246 68.7513C269.186 68.7499 269.126 68.761 269.07 68.784C269.014 68.807 268.963 68.8413 268.921 68.8848L268.768 68.7317C268.83 68.6681 268.905 68.6175 268.987 68.583C269.069 68.5485 269.157 68.5308 269.246 68.5308C269.336 68.5308 269.424 68.5485 269.506 68.583C269.588 68.6175 269.663 68.6681 269.725 68.7317Z" fill="#B5E1EC"/>
<path d="M269.386 69.0216C269.386 69.0496 269.378 69.0771 269.363 69.1007C269.348 69.1242 269.326 69.1426 269.301 69.1536C269.275 69.1647 269.246 69.1677 269.219 69.1624C269.192 69.1571 269.166 69.1437 269.147 69.1239C269.127 69.1041 269.113 69.0789 269.108 69.0514C269.103 69.0239 269.106 68.9955 269.117 68.9698C269.128 68.944 269.146 68.9222 269.17 68.9071C269.193 68.8919 269.221 68.8842 269.249 68.8848C269.285 68.8848 269.32 68.8992 269.346 68.9249C269.371 68.9505 269.386 68.9853 269.386 69.0216Z" fill="#B5E1EC"/>
<path d="M260.861 68.4124C260.861 68.3332 260.885 68.2557 260.929 68.1898C260.973 68.1239 261.035 68.0725 261.109 68.0422C261.182 68.0119 261.262 68.004 261.34 68.0194C261.418 68.0349 261.489 68.073 261.545 68.1291C261.601 68.1851 261.64 68.2565 261.655 68.3343C261.671 68.412 261.663 68.4925 261.632 68.5658C261.602 68.639 261.551 68.7016 261.485 68.7456C261.419 68.7896 261.341 68.8131 261.262 68.8131C261.209 68.8131 261.157 68.8028 261.109 68.7826C261.06 68.7625 261.016 68.733 260.979 68.6958C260.941 68.6586 260.912 68.6144 260.892 68.5658C260.872 68.5172 260.861 68.465 260.861 68.4124Z" fill="#B5E1EC"/>
<path d="M262.123 68.4124C262.123 68.3332 262.147 68.2557 262.191 68.1898C262.235 68.1239 262.297 68.0725 262.37 68.0422C262.444 68.0119 262.524 68.004 262.602 68.0194C262.68 68.0349 262.751 68.073 262.807 68.1291C262.863 68.1851 262.901 68.2565 262.917 68.3343C262.932 68.412 262.924 68.4925 262.894 68.5658C262.864 68.639 262.812 68.7016 262.746 68.7456C262.68 68.7896 262.603 68.8131 262.524 68.8131C262.417 68.8131 262.316 68.7709 262.24 68.6958C262.165 68.6206 262.123 68.5187 262.123 68.4124Z" fill="#B5E1EC"/>
<path d="M263.383 68.4124C263.383 68.3332 263.406 68.2557 263.45 68.1898C263.494 68.1239 263.557 68.0725 263.63 68.0422C263.703 68.0119 263.784 68.004 263.862 68.0194C263.939 68.0349 264.011 68.073 264.067 68.1291C264.123 68.1851 264.161 68.2565 264.177 68.3343C264.192 68.412 264.184 68.4925 264.154 68.5658C264.123 68.639 264.072 68.7016 264.006 68.7456C263.94 68.7896 263.863 68.8131 263.784 68.8131C263.677 68.8131 263.575 68.7709 263.5 68.6958C263.425 68.6206 263.383 68.5187 263.383 68.4124Z" fill="#B5E1EC"/>
<path d="M264.645 68.4124C264.645 68.3332 264.668 68.2557 264.712 68.1898C264.756 68.1239 264.819 68.0725 264.892 68.0422C264.965 68.0119 265.046 68.004 265.123 68.0194C265.201 68.0349 265.273 68.073 265.329 68.1291C265.385 68.1851 265.423 68.2565 265.438 68.3343C265.454 68.412 265.446 68.4925 265.415 68.5658C265.385 68.639 265.334 68.7016 265.268 68.7456C265.202 68.7896 265.124 68.8131 265.045 68.8131C264.993 68.8131 264.941 68.8028 264.892 68.7826C264.843 68.7625 264.799 68.733 264.762 68.6958C264.725 68.6586 264.695 68.6144 264.675 68.5658C264.655 68.5172 264.645 68.465 264.645 68.4124Z" fill="#B5E1EC"/>
<path d="M265.904 68.4124C265.904 68.3332 265.928 68.2557 265.972 68.1898C266.016 68.1239 266.078 68.0725 266.152 68.0422C266.225 68.0119 266.305 68.004 266.383 68.0194C266.461 68.0349 266.532 68.073 266.588 68.1291C266.644 68.1851 266.683 68.2565 266.698 68.3343C266.713 68.412 266.706 68.4925 266.675 68.5658C266.645 68.639 266.594 68.7016 266.528 68.7456C266.462 68.7896 266.384 68.8131 266.305 68.8131C266.252 68.8131 266.2 68.8028 266.152 68.7826C266.103 68.7625 266.059 68.733 266.022 68.6958C265.984 68.6586 265.955 68.6144 265.935 68.5658C265.915 68.5172 265.904 68.465 265.904 68.4124Z" fill="#B5E1EC"/>
<path d="M312.791 69.2887H309.533V67.7771H312.791V69.2887ZM309.699 69.1226H312.631V67.9432H309.699V69.1226Z" fill="#B5E1EC"/>
<path d="M311.904 68.0344H309.803V69.0313H311.904V68.0344Z" fill="#B5E1EC"/>
<path d="M313.085 68.1289H312.795V68.9368H313.085V68.1289Z" fill="#B5E1EC"/>
<path d="M281.926 75.6447C281.925 75.6189 281.93 75.5933 281.94 75.5694C281.949 75.5455 281.964 75.5238 281.982 75.5055C282 75.4873 282.022 75.4729 282.046 75.4632C282.07 75.4536 282.095 75.4488 282.121 75.4492C282.147 75.4488 282.173 75.4536 282.197 75.4632C282.221 75.4728 282.243 75.4871 282.262 75.5053C282.28 75.5235 282.295 75.5452 282.305 75.5692C282.315 75.5931 282.32 75.6188 282.32 75.6447V77.733C282.32 77.7589 282.315 77.7846 282.305 77.8085C282.295 77.8324 282.28 77.8541 282.262 77.8723C282.243 77.8905 282.221 77.9049 282.197 77.9145C282.173 77.9241 282.147 77.9289 282.121 77.9284C282.095 77.9289 282.07 77.9241 282.046 77.9144C282.022 77.9048 282 77.8904 281.982 77.8722C281.964 77.8539 281.949 77.8322 281.94 77.8083C281.93 77.7844 281.925 77.7587 281.926 77.733V75.6447Z" fill="#B5E1EC"/>
<path d="M283.373 77.7329C283.373 77.7842 283.353 77.8335 283.317 77.87C283.281 77.9066 283.232 77.9276 283.181 77.9284C283.155 77.9284 283.13 77.9233 283.107 77.9135C283.083 77.9036 283.062 77.8892 283.044 77.871C283.026 77.8528 283.012 77.8312 283.002 77.8075C282.993 77.7838 282.988 77.7585 282.989 77.7329V75.674C282.986 75.6428 282.992 75.6114 283.005 75.5829C283.018 75.5545 283.038 75.5298 283.064 75.5111C283.106 75.4822 283.157 75.4705 283.207 75.4783C283.258 75.4862 283.303 75.5131 283.334 75.5535L284.478 77.1368V75.674C284.478 75.6236 284.499 75.5756 284.535 75.5402C284.571 75.5049 284.619 75.4851 284.67 75.4851C284.721 75.485 284.769 75.5047 284.806 75.54C284.842 75.5753 284.864 75.6233 284.865 75.674V77.7329C284.865 77.7848 284.845 77.8345 284.808 77.8712C284.771 77.9078 284.722 77.9284 284.67 77.9284C284.642 77.9275 284.614 77.9207 284.589 77.9083C284.564 77.896 284.541 77.8784 284.523 77.8567V77.8372L283.373 76.2637V77.7329Z" fill="#B5E1EC"/>
<path d="M285.715 77.7329V75.6447C285.715 75.5928 285.735 75.5431 285.772 75.5065C285.809 75.4698 285.858 75.4492 285.91 75.4492H286.412C286.59 75.4492 286.761 75.5198 286.888 75.6456C287.014 75.7713 287.086 75.942 287.086 76.1203C287.087 76.2665 287.039 76.4088 286.95 76.5243C287.09 76.6112 287.198 76.7413 287.257 76.8949C287.317 77.0486 287.325 77.2175 287.28 77.3761C287.235 77.5347 287.14 77.6743 287.008 77.774C286.877 77.8736 286.717 77.9278 286.552 77.9284H285.923C285.897 77.9302 285.87 77.9264 285.845 77.9174C285.819 77.9084 285.796 77.8943 285.777 77.876C285.757 77.8576 285.741 77.8355 285.731 77.8109C285.72 77.7863 285.715 77.7597 285.715 77.7329ZM286.109 76.4103H286.412C286.487 76.4086 286.559 76.3772 286.612 76.3229C286.664 76.2686 286.693 76.1958 286.692 76.1203C286.692 76.0837 286.685 76.0474 286.671 76.0136C286.657 75.9798 286.636 75.9491 286.61 75.9234C286.584 75.8976 286.553 75.8773 286.519 75.8635C286.485 75.8498 286.449 75.843 286.412 75.8434H286.109V76.4103ZM286.109 77.5342H286.552C286.643 77.5256 286.728 77.4833 286.79 77.4155C286.851 77.3477 286.886 77.2593 286.886 77.1677C286.886 77.0761 286.851 76.9877 286.79 76.9199C286.728 76.8521 286.643 76.8098 286.552 76.8012H286.109V77.5342Z" fill="#B5E1EC"/>
<path d="M289.775 75.7554C290.005 75.9976 290.133 76.3189 290.133 76.6529C290.133 76.987 290.005 77.3083 289.775 77.5505C289.667 77.668 289.536 77.7622 289.391 77.8272C289.245 77.8922 289.087 77.9266 288.928 77.9284C288.765 77.9272 288.605 77.8931 288.456 77.8282C288.307 77.7632 288.173 77.6687 288.061 77.5505C287.835 77.3064 287.709 76.9858 287.709 76.6529C287.709 76.32 287.835 75.9994 288.061 75.7554C288.173 75.6389 288.308 75.5464 288.457 75.4837C288.606 75.421 288.766 75.3893 288.928 75.3905C289.087 75.39 289.244 75.4221 289.389 75.4849C289.535 75.5477 289.666 75.6397 289.775 75.7554ZM289.729 76.6513C289.729 76.4221 289.643 76.2012 289.488 76.0323C289.418 75.9536 289.331 75.8907 289.235 75.8474C289.138 75.8042 289.034 75.7818 288.928 75.7815C288.82 75.7809 288.713 75.803 288.615 75.8462C288.516 75.8894 288.427 75.9528 288.354 76.0323C288.199 76.2012 288.113 76.4221 288.113 76.6513C288.112 76.8808 288.198 77.1021 288.354 77.2703C288.427 77.3502 288.516 77.4141 288.614 77.4579C288.713 77.5017 288.82 77.5243 288.928 77.5244C289.034 77.5235 289.138 77.5004 289.235 77.4567C289.331 77.4129 289.418 77.3494 289.488 77.2703C289.644 77.1021 289.731 76.8808 289.729 76.6513Z" fill="#B5E1EC"/>
<path d="M292.429 75.7848L291.755 76.6937L292.429 77.6124C292.459 77.6541 292.471 77.7057 292.463 77.7563C292.455 77.8068 292.428 77.8523 292.387 77.8828C292.354 77.9077 292.314 77.9214 292.273 77.9219C292.242 77.921 292.212 77.9133 292.184 77.8992C292.156 77.8851 292.132 77.865 292.113 77.8405L291.517 77.0195L290.918 77.8372C290.899 77.8614 290.876 77.8812 290.849 77.8953C290.822 77.9093 290.792 77.9173 290.761 77.9186C290.72 77.9192 290.68 77.9054 290.647 77.8796C290.606 77.8495 290.578 77.8043 290.569 77.7537C290.561 77.7031 290.572 77.6512 290.602 77.6092L291.276 76.6905L290.602 75.775C290.572 75.7335 290.561 75.6821 290.569 75.632C290.578 75.582 290.606 75.5374 290.647 75.5079C290.667 75.4913 290.69 75.4792 290.715 75.4724C290.74 75.4655 290.766 75.464 290.792 75.468C290.818 75.472 290.842 75.4814 290.864 75.4956C290.885 75.5098 290.904 75.5284 290.918 75.5502L291.517 76.3679L292.11 75.5535C292.124 75.5316 292.143 75.5129 292.165 75.4987C292.187 75.4845 292.212 75.4751 292.237 75.4711C292.263 75.4671 292.29 75.4686 292.315 75.4755C292.34 75.4824 292.364 75.4945 292.384 75.5111C292.405 75.5258 292.423 75.5446 292.437 75.5664C292.451 75.5882 292.461 75.6127 292.465 75.6382C292.469 75.6638 292.468 75.69 292.462 75.7152C292.456 75.7403 292.445 75.764 292.429 75.7848Z" fill="#B5E1EC"/>
<path d="M309.005 77.9088L308.595 78.2346L307.836 77.2312L307.559 76.8631C307.615 76.8408 307.669 76.8113 307.718 76.7751C307.81 76.7034 307.882 76.6091 307.927 76.5015L308.223 76.8891L309.005 77.9088Z" fill="#B5E1EC"/>
<path d="M308.197 75.5436C308.067 75.374 307.891 75.2452 307.69 75.1724C307.489 75.0996 307.271 75.0857 307.063 75.1326C306.854 75.1794 306.663 75.2849 306.513 75.4366C306.362 75.5884 306.258 75.7801 306.213 75.989C306.168 76.198 306.183 76.4155 306.258 76.6159C306.332 76.8164 306.462 76.9914 306.633 77.1202C306.803 77.2491 307.007 77.3265 307.22 77.3432C307.433 77.36 307.647 77.3155 307.836 77.2149C307.891 77.1863 307.943 77.1524 307.992 77.1139C308.082 77.0469 308.16 76.9654 308.223 76.8728C308.361 76.6775 308.433 76.4431 308.429 76.2039C308.424 75.9648 308.343 75.7334 308.197 75.5436ZM307.718 76.7588C307.669 76.7949 307.615 76.8245 307.559 76.8467C307.415 76.9039 307.257 76.9098 307.11 76.8632C306.962 76.8167 306.836 76.7207 306.752 76.5914C306.667 76.4622 306.63 76.3078 306.647 76.1544C306.664 76.0011 306.733 75.8582 306.843 75.7501C306.953 75.6419 307.097 75.5753 307.251 75.5614C307.404 75.5475 307.558 75.5872 307.686 75.6738C307.814 75.7604 307.907 75.8885 307.951 76.0364C307.995 76.1843 307.986 76.3429 307.927 76.4851C307.882 76.5928 307.81 76.687 307.718 76.7588Z" fill="#B5E1EC"/>
<path d="M303.435 75.1722H300.457V78.1499H303.435V75.1722Z" fill="#B5E1EC"/>
<path d="M302.109 75.7261H301.783V77.5993H302.109V75.7261Z" fill="#B5E1EC"/>
<path d="M301.008 76.4982V76.824H302.881V76.4982H301.008Z" fill="#B5E1EC"/>
<path d="M312.79 75.3645C312.79 75.4154 312.775 75.4652 312.747 75.5075C312.718 75.5499 312.678 75.5828 312.631 75.6023C312.584 75.6218 312.532 75.6269 312.483 75.617C312.433 75.607 312.387 75.5825 312.351 75.5465C312.315 75.5105 312.29 75.4647 312.28 75.4148C312.27 75.3648 312.276 75.3131 312.295 75.2661C312.314 75.219 312.347 75.1788 312.39 75.1506C312.432 75.1223 312.482 75.1072 312.533 75.1072C312.567 75.1072 312.6 75.1138 312.631 75.1268C312.662 75.1397 312.691 75.1587 312.715 75.1826C312.739 75.2065 312.758 75.2348 312.771 75.2661C312.783 75.2973 312.79 75.3307 312.79 75.3645Z" fill="#B5E1EC"/>
<path d="M312.79 76.6936C312.79 76.7619 312.763 76.8274 312.715 76.8756C312.666 76.9239 312.601 76.951 312.533 76.951C312.465 76.951 312.399 76.9239 312.351 76.8756C312.303 76.8274 312.275 76.7619 312.275 76.6936C312.275 76.6598 312.282 76.6264 312.295 76.5952C312.308 76.5639 312.327 76.5356 312.351 76.5117C312.375 76.4878 312.403 76.4688 312.434 76.4559C312.465 76.4429 312.499 76.4363 312.533 76.4363C312.567 76.4363 312.6 76.4429 312.631 76.4559C312.662 76.4688 312.691 76.4878 312.715 76.5117C312.739 76.5356 312.758 76.5639 312.771 76.5952C312.783 76.6264 312.79 76.6598 312.79 76.6936Z" fill="#B5E1EC"/>
<path d="M312.79 78.0359C312.79 78.0697 312.783 78.1032 312.771 78.1344C312.758 78.1656 312.739 78.194 312.715 78.2179C312.691 78.2418 312.662 78.2608 312.631 78.2737C312.6 78.2866 312.567 78.2933 312.533 78.2933C312.499 78.2933 312.465 78.2866 312.434 78.2737C312.403 78.2608 312.375 78.2418 312.351 78.2179C312.327 78.194 312.308 78.1656 312.295 78.1344C312.282 78.1032 312.275 78.0697 312.275 78.0359C312.275 77.9677 312.303 77.9022 312.351 77.8539C312.399 77.8057 312.465 77.7786 312.533 77.7786C312.601 77.7786 312.666 77.8057 312.715 77.8539C312.763 77.9022 312.79 77.9677 312.79 78.0359Z" fill="#B5E1EC"/>
<path d="M317.321 82.0592H256.922V91.3862H317.321V82.0592Z" fill="white"/>
<path d="M266.759 88.5259C266.57 88.6428 266.363 88.7286 266.147 88.78C265.63 88.904 265.086 88.8287 264.623 88.5693C264.159 88.3098 263.811 87.8852 263.646 87.3801C263.482 86.8751 263.514 86.3267 263.737 85.8443C263.959 85.3619 264.354 84.9809 264.845 84.7774C265.336 84.5738 265.885 84.5627 266.383 84.7462C266.882 84.9296 267.293 85.2942 267.534 85.7672C267.776 86.2402 267.83 86.7868 267.686 87.2981C267.543 87.8095 267.212 88.2478 266.759 88.5259Z" fill="#B5E1EC"/>
<path d="M266.274 86.467C266.274 86.5959 266.236 86.7218 266.164 86.829C266.092 86.9361 265.991 87.0196 265.872 87.0689C265.753 87.1183 265.622 87.1312 265.495 87.106C265.369 87.0809 265.253 87.0188 265.162 86.9277C265.07 86.8366 265.008 86.7205 264.983 86.5941C264.958 86.4677 264.971 86.3367 265.02 86.2176C265.07 86.0986 265.153 85.9968 265.26 85.9252C265.367 85.8536 265.493 85.8154 265.622 85.8154C265.795 85.8154 265.961 85.8841 266.083 86.0063C266.205 86.1285 266.274 86.2942 266.274 86.467Z" fill="#B5E1EC"/>
<path d="M266.759 88.2588V88.526C266.57 88.6429 266.363 88.7287 266.146 88.7801C265.872 88.8488 265.586 88.8617 265.306 88.818C265.026 88.7744 264.758 88.6751 264.518 88.526V88.2588C264.518 87.9633 264.635 87.6799 264.844 87.471C265.053 87.262 265.336 87.1447 265.632 87.1447C265.927 87.1447 266.211 87.262 266.42 87.471C266.629 87.6799 266.746 87.9633 266.746 88.2588H266.759Z" fill="#B5E1EC"/>
<path d="M278.929 88.1252H276.127L277.27 86.7243L276.127 85.3235H278.929L280.072 86.7243L278.929 88.1252Z" fill="#B5E1EC"/>
<path d="M271.73 85.3235L272.186 86.2454L273.203 86.392L272.467 87.112L272.643 88.1252L271.73 87.6463L270.821 88.1252L270.994 87.112L270.258 86.392L271.274 86.2454L271.73 85.3235Z" fill="#B5E1EC"/>
<path d="M298.612 86.1543H282.082V87.2945H298.612V86.1543Z" fill="#263238"/>
<path d="M311.906 86.1543H305.426V87.2945H311.906V86.1543Z" fill="#455A64"/>
<path d="M266.759 97.8693C266.57 97.9862 266.363 98.072 266.147 98.1234C265.63 98.2473 265.086 98.1721 264.623 97.9126C264.159 97.6532 263.811 97.2286 263.646 96.7235C263.482 96.2185 263.514 95.67 263.737 95.1876C263.959 94.7052 264.354 94.3243 264.845 94.1208C265.336 93.9172 265.885 93.9061 266.383 94.0895C266.882 94.273 267.293 94.6376 267.534 95.1106C267.776 95.5836 267.83 96.1302 267.686 96.6415C267.543 97.1528 267.212 97.5912 266.759 97.8693Z" fill="#455A64"/>
<path d="M266.274 95.8104C266.274 95.9392 266.236 96.0652 266.164 96.1724C266.092 96.2795 265.991 96.363 265.872 96.4123C265.753 96.4616 265.622 96.4746 265.495 96.4494C265.369 96.4243 265.253 96.3622 265.162 96.2711C265.07 96.18 265.008 96.0639 264.983 95.9375C264.958 95.8111 264.971 95.6801 265.02 95.561C265.07 95.442 265.153 95.3402 265.26 95.2686C265.367 95.197 265.493 95.1588 265.622 95.1588C265.795 95.1588 265.961 95.2275 266.083 95.3497C266.205 95.4718 266.274 95.6376 266.274 95.8104Z" fill="#B5E1EC"/>
<path d="M266.759 97.5858V97.8692C266.57 97.9861 266.363 98.0719 266.146 98.1233C265.872 98.193 265.586 98.2064 265.306 98.1627C265.026 98.119 264.758 98.0192 264.518 97.8692V97.6021C264.518 97.3066 264.635 97.0232 264.844 96.8142C265.053 96.6053 265.336 96.4879 265.632 96.4879C265.927 96.4879 266.211 96.6053 266.42 96.8142C266.629 97.0232 266.746 97.3066 266.746 97.6021L266.759 97.5858Z" fill="#B5E1EC"/>
<path d="M278.929 97.4523H276.127L277.27 96.0515L276.127 94.6506H278.929L280.072 96.0515L278.929 97.4523Z" fill="#B5E1EC"/>
<path d="M278.969 97.5434H275.955L277.167 96.0612L275.955 94.5789H278.969L280.177 96.0612L278.969 97.5434ZM276.3 97.3806H278.907L279.982 96.0612L278.907 94.758H276.3L277.375 96.0612L276.3 97.3806Z" fill="white"/>
<path d="M271.73 94.6506L272.186 95.5726L273.203 95.7192L272.467 96.4392L272.643 97.4523L271.73 96.9734L270.821 97.4523L270.994 96.4392L270.258 95.7192L271.274 95.5726L271.73 94.6506Z" fill="#B5E1EC"/>
<path d="M298.612 95.4813H282.082V96.6215H298.612V95.4813Z" fill="#263238"/>
<path d="M311.906 95.4813H305.426V96.6215H311.906V95.4813Z" fill="#455A64"/>
<path d="M317.321 100.713H256.922V110.04H317.321V100.713Z" fill="white"/>
<path d="M266.759 107.18C266.569 107.297 266.362 107.383 266.146 107.437C265.627 107.565 265.079 107.492 264.611 107.233C264.144 106.974 263.791 106.549 263.623 106.041C263.455 105.534 263.485 104.982 263.706 104.495C263.927 104.009 264.324 103.623 264.817 103.416C265.31 103.209 265.862 103.196 266.365 103.378C266.867 103.56 267.282 103.926 267.527 104.401C267.772 104.876 267.829 105.426 267.687 105.941C267.544 106.456 267.213 106.898 266.759 107.18Z" fill="#B5E1EC"/>
<path d="M266.274 105.137C266.274 105.266 266.236 105.392 266.164 105.499C266.092 105.607 265.991 105.69 265.872 105.739C265.753 105.789 265.622 105.802 265.495 105.776C265.369 105.751 265.253 105.689 265.162 105.598C265.07 105.507 265.008 105.391 264.983 105.265C264.958 105.138 264.971 105.007 265.02 104.888C265.07 104.769 265.153 104.667 265.26 104.596C265.367 104.524 265.493 104.486 265.622 104.486C265.795 104.486 265.961 104.554 266.083 104.677C266.205 104.799 266.274 104.965 266.274 105.137Z" fill="#B5E1EC"/>
<path d="M266.759 106.913V107.18C266.569 107.297 266.363 107.383 266.146 107.437C265.872 107.506 265.586 107.519 265.306 107.475C265.026 107.431 264.758 107.33 264.518 107.18V106.913C264.518 106.617 264.635 106.334 264.844 106.125C265.053 105.916 265.336 105.799 265.632 105.799C265.927 105.799 266.211 105.916 266.42 106.125C266.629 106.334 266.746 106.617 266.746 106.913H266.759Z" fill="#B5E1EC"/>
<path d="M278.929 106.779H276.127L277.27 105.379L276.127 103.978H278.929L280.072 105.379L278.929 106.779Z" fill="#B5E1EC"/>
<path d="M271.73 103.978L272.186 104.9L273.203 105.046L272.467 105.766L272.643 106.779L271.73 106.3L270.821 106.779L270.994 105.766L270.258 105.046L271.274 104.9L271.73 103.978Z" fill="#B5E1EC"/>
<path d="M298.612 104.808H282.082V105.949H298.612V104.808Z" fill="#DBDBDB"/>
<path d="M311.906 104.808H305.426V105.949H311.906V104.808Z" fill="#C7C7C7"/>
<path d="M266.759 116.507C266.569 116.624 266.362 116.71 266.146 116.764C265.627 116.892 265.079 116.819 264.611 116.56C264.144 116.301 263.791 115.876 263.623 115.368C263.455 114.861 263.485 114.309 263.706 113.822C263.927 113.336 264.324 112.95 264.817 112.743C265.31 112.536 265.862 112.523 266.365 112.705C266.867 112.888 267.282 113.253 267.527 113.728C267.772 114.203 267.829 114.753 267.687 115.268C267.544 115.783 267.213 116.225 266.759 116.507Z" fill="#A6A6A6"/>
<path d="M266.274 114.464C266.274 114.593 266.236 114.719 266.164 114.826C266.092 114.934 265.991 115.017 265.872 115.066C265.753 115.116 265.622 115.129 265.495 115.103C265.369 115.078 265.253 115.016 265.162 114.925C265.07 114.834 265.008 114.718 264.983 114.592C264.958 114.465 264.971 114.334 265.02 114.215C265.07 114.096 265.153 113.994 265.26 113.923C265.367 113.851 265.493 113.813 265.622 113.813C265.795 113.813 265.961 113.882 266.083 114.004C266.205 114.126 266.274 114.292 266.274 114.464Z" fill="#B5E1EC"/>
<path d="M266.759 116.243V116.507C266.569 116.624 266.363 116.711 266.146 116.764C265.872 116.833 265.586 116.846 265.306 116.802C265.026 116.758 264.758 116.657 264.518 116.507V116.243C264.518 115.948 264.635 115.664 264.844 115.455C265.053 115.246 265.336 115.129 265.632 115.129C265.927 115.129 266.211 115.246 266.42 115.455C266.629 115.664 266.746 115.948 266.746 116.243H266.759Z" fill="#B5E1EC"/>
<path d="M278.929 116.106H276.127L277.27 114.706L276.127 113.305H278.929L280.072 114.706L278.929 116.106Z" fill="#B5E1EC"/>
<path d="M278.969 116.188H275.955L277.167 114.705L275.955 113.223H278.969L280.177 114.705L278.969 116.188ZM276.3 116.025H278.907L279.982 114.722L278.907 113.402H276.3L277.375 114.722L276.3 116.025Z" fill="white"/>
<path d="M271.73 113.305L272.186 114.227L273.203 114.376L272.467 115.093L272.643 116.106L271.73 115.627L270.821 116.106L270.994 115.093L270.258 114.376L271.274 114.227L271.73 113.305Z" fill="#B5E1EC"/>
<path d="M298.612 114.135H282.082V115.276H298.612V114.135Z" fill="#DBDBDB"/>
<path d="M311.906 114.135H305.426V115.276H311.906V114.135Z" fill="#C7C7C7"/>
<path d="M317.321 119.371H256.922V128.698H317.321V119.371Z" fill="white"/>
<path d="M266.759 125.834C266.569 125.951 266.362 126.037 266.146 126.091C265.627 126.219 265.079 126.146 264.611 125.887C264.144 125.628 263.791 125.203 263.623 124.695C263.455 124.188 263.485 123.636 263.706 123.149C263.927 122.663 264.324 122.277 264.817 122.07C265.31 121.863 265.862 121.85 266.365 122.032C266.867 122.215 267.282 122.58 267.527 123.055C267.772 123.53 267.829 124.08 267.687 124.595C267.544 125.11 267.213 125.552 266.759 125.834Z" fill="#37474F"/>
<path d="M266.274 123.791C266.274 123.92 266.236 124.046 266.164 124.153C266.092 124.261 265.991 124.344 265.872 124.393C265.753 124.443 265.622 124.456 265.495 124.43C265.369 124.405 265.253 124.343 265.162 124.252C265.07 124.161 265.008 124.045 264.983 123.919C264.958 123.792 264.971 123.661 265.02 123.542C265.07 123.423 265.153 123.321 265.26 123.25C265.367 123.178 265.493 123.14 265.622 123.14C265.795 123.14 265.961 123.209 266.083 123.331C266.205 123.453 266.274 123.619 266.274 123.791Z" fill="#B5E1EC"/>
<path d="M266.759 125.56V125.824C266.569 125.941 266.363 126.028 266.146 126.082C265.872 126.151 265.586 126.163 265.306 126.119C265.026 126.075 264.758 125.975 264.518 125.824V125.56C264.518 125.265 264.635 124.982 264.844 124.773C265.053 124.564 265.336 124.446 265.632 124.446C265.927 124.446 266.211 124.564 266.42 124.773C266.629 124.982 266.746 125.265 266.746 125.56H266.759Z" fill="#B5E1EC"/>
<path d="M278.929 125.433H276.127L277.27 124.033L276.127 122.632H278.929L280.072 124.033L278.929 125.433Z" fill="#B5E1EC"/>
<path d="M271.73 122.632L272.186 123.554L273.203 123.704L272.467 124.42L272.643 125.433L271.73 124.955L270.821 125.433L270.994 124.42L270.258 123.704L271.274 123.554L271.73 122.632Z" fill="#B5E1EC"/>
<path d="M298.612 123.462H282.082V124.603H298.612V123.462Z" fill="#DBDBDB"/>
<path d="M311.906 123.462H305.426V124.603H311.906V123.462Z" fill="#C7C7C7"/>
<path d="M317.326 175.333V179.894C317.339 180.837 317.114 181.767 316.671 182.6C316.227 183.432 315.581 184.138 314.791 184.653H259.461C258.671 184.139 258.024 183.432 257.581 182.6C257.138 181.768 256.913 180.837 256.926 179.894V175.333H317.326Z" fill="white"/>
<path d="M266.759 181.8C266.569 181.916 266.362 182.003 266.146 182.057C265.627 182.184 265.079 182.112 264.611 181.853C264.144 181.594 263.791 181.168 263.623 180.661C263.455 180.153 263.485 179.601 263.706 179.115C263.927 178.628 264.324 178.243 264.817 178.036C265.31 177.829 265.862 177.815 266.365 177.998C266.867 178.18 267.282 178.545 267.527 179.02C267.772 179.495 267.829 180.045 267.687 180.56C267.544 181.076 267.213 181.518 266.759 181.8Z" fill="#B5E1EC"/>
<path d="M266.274 179.757C266.274 179.886 266.236 180.012 266.164 180.119C266.092 180.226 265.991 180.31 265.872 180.359C265.753 180.408 265.622 180.421 265.495 180.396C265.369 180.371 265.253 180.309 265.162 180.218C265.07 180.127 265.008 180.01 264.983 179.884C264.958 179.758 264.971 179.627 265.02 179.508C265.07 179.389 265.153 179.287 265.26 179.215C265.367 179.144 265.493 179.105 265.622 179.105C265.795 179.105 265.961 179.174 266.083 179.296C266.205 179.418 266.274 179.584 266.274 179.757Z" fill="#B5E1EC"/>
<path d="M266.759 181.532V181.8C266.569 181.916 266.363 182.003 266.146 182.057C265.872 182.125 265.586 182.137 265.306 182.093C265.026 182.049 264.758 181.949 264.518 181.8V181.532C264.518 181.237 264.635 180.953 264.844 180.745C265.053 180.536 265.336 180.418 265.632 180.418C265.927 180.418 266.211 180.536 266.42 180.745C266.629 180.953 266.746 181.237 266.746 181.532H266.759Z" fill="#B5E1EC"/>
<path d="M278.929 181.399H276.127L277.27 179.998L276.127 178.597H278.929L280.072 179.998L278.929 181.399Z" fill="#B5E1EC"/>
<path d="M271.73 178.597L272.186 179.519L273.203 179.666L272.467 180.386L272.643 181.399L271.73 180.92L270.821 181.399L270.994 180.386L270.258 179.666L271.274 179.519L271.73 178.597Z" fill="#B5E1EC"/>
<path d="M298.612 179.428H282.082V180.568H298.612V179.428Z" fill="#DBDBDB"/>
<path d="M311.906 179.428H305.426V180.568H311.906V179.428Z" fill="#C7C7C7"/>
<path d="M266.759 135.161C266.474 135.337 266.152 135.442 265.818 135.469C265.485 135.497 265.15 135.444 264.841 135.317C264.531 135.19 264.256 134.992 264.038 134.738C263.82 134.485 263.665 134.183 263.586 133.858C263.493 133.478 263.507 133.08 263.627 132.707C263.747 132.335 263.967 132.002 264.264 131.747C264.56 131.492 264.922 131.324 265.308 131.262C265.694 131.199 266.09 131.245 266.452 131.394C266.814 131.542 267.128 131.788 267.358 132.104C267.589 132.42 267.728 132.793 267.76 133.183C267.792 133.573 267.715 133.964 267.538 134.313C267.362 134.662 267.092 134.956 266.759 135.161Z" fill="#263238"/>
<path d="M266.274 133.118C266.274 133.247 266.236 133.373 266.164 133.48C266.092 133.588 265.991 133.671 265.872 133.72C265.753 133.77 265.622 133.783 265.495 133.758C265.369 133.732 265.253 133.67 265.162 133.579C265.07 133.488 265.008 133.372 264.983 133.246C264.958 133.119 264.971 132.988 265.02 132.869C265.07 132.75 265.153 132.648 265.26 132.577C265.367 132.505 265.493 132.467 265.622 132.467C265.795 132.467 265.961 132.536 266.083 132.658C266.205 132.78 266.274 132.946 266.274 133.118Z" fill="#B5E1EC"/>
<path d="M266.758 134.897V135.161C266.423 135.369 266.037 135.479 265.643 135.479C265.25 135.479 264.864 135.369 264.529 135.161V134.897C264.529 134.602 264.647 134.318 264.856 134.109C265.065 133.9 265.348 133.783 265.643 133.783C265.939 133.783 266.222 133.9 266.431 134.109C266.64 134.318 266.758 134.602 266.758 134.897Z" fill="#B5E1EC"/>
<path d="M278.929 134.76H276.127L277.27 133.36L276.127 131.959H278.929L280.072 133.36L278.929 134.76Z" fill="#B5E1EC"/>
<path d="M278.969 134.842H275.955L277.167 133.36L275.955 131.877H278.969L280.177 133.36L278.969 134.842ZM276.3 134.679H278.907L279.982 133.36L278.907 132.04H276.3L277.375 133.36L276.3 134.679Z" fill="white"/>
<path d="M271.73 131.959L272.186 132.881L273.203 133.031L272.467 133.747L272.643 134.76L271.73 134.282L270.821 134.76L270.994 133.747L270.258 133.031L271.274 132.881L271.73 131.959Z" fill="#B5E1EC"/>
<path d="M272.75 134.91L271.73 134.376L270.711 134.91L270.906 133.777L270.082 132.972L271.222 132.809L271.73 131.776L272.239 132.809L273.379 132.972L272.555 133.777L272.75 134.91ZM271.73 134.19L272.532 134.614L272.379 133.718L273.03 133.086L272.131 132.956L271.73 132.144L271.32 132.956L270.424 133.086L271.076 133.718L270.923 134.614L271.73 134.19Z" fill="white"/>
<path d="M298.612 132.789H282.082V133.93H298.612V132.789Z" fill="#DBDBDB"/>
<path d="M311.906 132.789H305.426V133.93H311.906V132.789Z" fill="#C7C7C7"/>
<path d="M317.321 138.025H256.922V147.352H317.321V138.025Z" fill="white"/>
<path d="M266.759 144.491C266.569 144.607 266.363 144.693 266.147 144.746C265.74 144.844 265.313 144.82 264.92 144.676C264.526 144.533 264.185 144.276 263.937 143.938C263.69 143.6 263.549 143.196 263.531 142.778C263.513 142.359 263.62 141.945 263.838 141.587C264.055 141.23 264.374 140.945 264.753 140.768C265.133 140.591 265.556 140.531 265.97 140.595C266.384 140.659 266.77 140.844 267.078 141.127C267.387 141.41 267.604 141.778 267.704 142.185C267.809 142.62 267.775 143.077 267.605 143.491C267.436 143.905 267.139 144.256 266.759 144.491Z" fill="#B5E1EC"/>
<path d="M266.274 142.446C266.274 142.574 266.236 142.7 266.164 142.807C266.092 142.915 265.991 142.998 265.872 143.047C265.753 143.097 265.622 143.11 265.495 143.085C265.369 143.059 265.253 142.997 265.162 142.906C265.07 142.815 265.008 142.699 264.983 142.573C264.958 142.446 264.971 142.315 265.02 142.196C265.07 142.077 265.153 141.975 265.26 141.904C265.367 141.832 265.493 141.794 265.622 141.794C265.795 141.794 265.961 141.863 266.083 141.985C266.205 142.107 266.274 142.273 266.274 142.446Z" fill="#B5E1EC"/>
<path d="M266.759 144.224V144.491C266.569 144.607 266.362 144.693 266.146 144.746C265.872 144.814 265.586 144.827 265.306 144.783C265.026 144.739 264.758 144.639 264.518 144.488V144.224C264.518 143.929 264.635 143.645 264.844 143.436C265.053 143.227 265.336 143.11 265.632 143.11C265.927 143.11 266.211 143.227 266.42 143.436C266.629 143.645 266.746 143.929 266.746 144.224H266.759Z" fill="#B5E1EC"/>
<path d="M278.929 144.091H276.127L277.27 142.687L276.127 141.286H278.929L280.072 142.687L278.929 144.091Z" fill="#B5E1EC"/>
<path d="M271.73 141.286L272.186 142.211L273.203 142.358L272.467 143.074L272.643 144.091L271.73 143.612L270.821 144.091L270.994 143.074L270.258 142.358L271.274 142.211L271.73 141.286Z" fill="#B5E1EC"/>
<path d="M298.612 142.12H282.082V143.26H298.612V142.12Z" fill="#263238"/>
<path d="M311.906 142.12H305.426V143.26H311.906V142.12Z" fill="#455A64"/>
<path d="M266.759 153.818C266.57 153.935 266.363 154.021 266.147 154.073C265.74 154.171 265.313 154.147 264.92 154.004C264.526 153.86 264.185 153.603 263.937 153.265C263.69 152.927 263.549 152.523 263.531 152.105C263.513 151.686 263.62 151.272 263.838 150.914C264.055 150.557 264.374 150.272 264.753 150.095C265.133 149.918 265.556 149.858 265.97 149.922C266.384 149.986 266.77 150.171 267.078 150.454C267.387 150.737 267.604 151.105 267.704 151.512C267.809 151.947 267.775 152.404 267.605 152.818C267.436 153.233 267.139 153.583 266.759 153.818Z" fill="#B5E1EC"/>
<path d="M266.274 151.773C266.274 151.901 266.236 152.027 266.164 152.135C266.092 152.242 265.991 152.325 265.872 152.374C265.753 152.424 265.622 152.437 265.495 152.412C265.369 152.386 265.253 152.324 265.162 152.233C265.07 152.142 265.008 152.026 264.983 151.9C264.958 151.773 264.971 151.642 265.02 151.523C265.07 151.404 265.153 151.302 265.26 151.231C265.367 151.159 265.493 151.121 265.622 151.121C265.795 151.121 265.961 151.19 266.083 151.312C266.205 151.434 266.274 151.6 266.274 151.773Z" fill="#B5E1EC"/>
<path d="M266.759 153.551V153.818C266.57 153.935 266.363 154.021 266.146 154.073C265.872 154.142 265.586 154.154 265.306 154.11C265.026 154.066 264.758 153.966 264.518 153.815V153.551C264.518 153.256 264.635 152.972 264.844 152.763C265.053 152.555 265.336 152.437 265.632 152.437C265.927 152.437 266.211 152.555 266.42 152.763C266.629 152.972 266.746 153.256 266.746 153.551H266.759Z" fill="#B5E1EC"/>
<path d="M278.929 153.418H276.127L277.27 152.017L276.127 150.616H278.929L280.072 152.017L278.929 153.418Z" fill="#B5E1EC"/>
<path d="M278.969 153.499H275.955L277.167 152.017L275.955 150.535H278.969L280.177 152.017L278.969 153.499ZM276.3 153.336H278.907L279.982 152.017L278.907 150.714H276.3L277.375 152.017L276.3 153.336Z" fill="white"/>
<path d="M271.73 150.616L272.186 151.538L273.203 151.685L272.467 152.401L272.643 153.418L271.73 152.939L270.821 153.418L270.994 152.401L270.258 151.685L271.274 151.538L271.73 150.616Z" fill="#B5E1EC"/>
<path d="M272.75 153.577L271.73 153.043L270.711 153.577L270.906 152.444L270.082 151.623L271.222 151.457L271.73 150.424L272.239 151.457L273.379 151.623L272.555 152.424L272.75 153.577ZM270.434 151.756L271.085 152.388L270.932 153.281L271.734 152.857L272.535 153.281L272.382 152.388L273.034 151.756L272.134 151.623L271.734 150.812L271.32 151.623L270.434 151.756Z" fill="white"/>
<path d="M298.612 151.447H282.082V152.587H298.612V151.447Z" fill="#DBDBDB"/>
<path d="M311.906 151.447H305.426V152.587H311.906V151.447Z" fill="#C7C7C7"/>
<path d="M317.321 156.679H256.922V166.006H317.321V156.679Z" fill="white"/>
<path d="M266.759 163.146C266.57 163.262 266.363 163.348 266.147 163.4C265.63 163.524 265.086 163.448 264.623 163.189C264.159 162.929 263.811 162.505 263.646 162C263.482 161.495 263.514 160.946 263.737 160.464C263.959 159.981 264.354 159.601 264.845 159.397C265.336 159.193 265.885 159.182 266.383 159.366C266.882 159.549 267.293 159.914 267.534 160.387C267.776 160.86 267.83 161.406 267.686 161.918C267.543 162.429 267.212 162.867 266.759 163.146Z" fill="#455A64"/>
<path d="M266.274 161.1C266.274 161.228 266.236 161.354 266.164 161.462C266.092 161.569 265.991 161.652 265.872 161.702C265.753 161.751 265.622 161.764 265.495 161.739C265.369 161.713 265.253 161.651 265.162 161.56C265.07 161.469 265.008 161.353 264.983 161.227C264.958 161.1 264.971 160.969 265.02 160.85C265.07 160.731 265.153 160.629 265.26 160.558C265.367 160.486 265.493 160.448 265.622 160.448C265.795 160.448 265.961 160.517 266.083 160.639C266.205 160.761 266.274 160.927 266.274 161.1Z" fill="#B5E1EC"/>
<path d="M266.759 162.878V163.145C266.57 163.262 266.363 163.348 266.146 163.4C265.872 163.468 265.586 163.481 265.306 163.438C265.026 163.394 264.758 163.295 264.518 163.145V162.878C264.518 162.583 264.635 162.299 264.844 162.09C265.053 161.882 265.336 161.764 265.632 161.764C265.927 161.764 266.211 161.882 266.42 162.09C266.629 162.299 266.746 162.583 266.746 162.878H266.759Z" fill="#B5E1EC"/>
<path d="M278.929 162.745H276.127L277.27 161.344L276.127 159.943H278.929L280.072 161.344L278.929 162.745Z" fill="#B5E1EC"/>
<path d="M271.73 159.943L272.186 160.865L273.203 161.012L272.467 161.728L272.643 162.745L271.73 162.266L270.821 162.745L270.994 161.728L270.258 161.012L271.274 160.865L271.73 159.943Z" fill="#B5E1EC"/>
<path d="M298.612 160.774H282.082V161.914H298.612V160.774Z" fill="#DBDBDB"/>
<path d="M311.906 160.774H305.426V161.914H311.906V160.774Z" fill="#C7C7C7"/>
<path d="M266.759 172.473C266.57 172.589 266.363 172.675 266.147 172.727C265.63 172.851 265.086 172.775 264.623 172.516C264.159 172.256 263.811 171.832 263.646 171.327C263.482 170.822 263.514 170.273 263.737 169.791C263.959 169.309 264.354 168.928 264.845 168.724C265.336 168.521 265.885 168.509 266.383 168.693C266.882 168.876 267.293 169.241 267.534 169.714C267.776 170.187 267.83 170.733 267.686 171.245C267.543 171.756 267.212 172.194 266.759 172.473Z" fill="#A6A6A6"/>
<path d="M266.274 170.43C266.274 170.559 266.236 170.685 266.164 170.792C266.092 170.899 265.991 170.983 265.872 171.032C265.753 171.081 265.622 171.094 265.495 171.069C265.369 171.044 265.253 170.982 265.162 170.891C265.07 170.799 265.008 170.683 264.983 170.557C264.958 170.431 264.971 170.3 265.02 170.181C265.07 170.061 265.153 169.96 265.26 169.888C265.367 169.817 265.493 169.778 265.622 169.778C265.795 169.778 265.961 169.847 266.083 169.969C266.205 170.091 266.274 170.257 266.274 170.43Z" fill="#B5E1EC"/>
<path d="M266.759 172.205V172.473C266.57 172.59 266.363 172.675 266.146 172.727C265.872 172.796 265.586 172.81 265.306 172.766C265.026 172.722 264.758 172.623 264.518 172.473V172.205C264.518 171.91 264.635 171.627 264.844 171.418C265.053 171.209 265.336 171.091 265.632 171.091C265.927 171.091 266.211 171.209 266.42 171.418C266.629 171.627 266.746 171.91 266.746 172.205H266.759Z" fill="#B5E1EC"/>
<path d="M278.929 172.072H276.127L277.27 170.671L276.127 169.27H278.929L280.072 170.671L278.929 172.072Z" fill="#B5E1EC"/>
<path d="M278.969 172.147H275.955L277.167 170.664L275.955 169.182H278.969L280.177 170.664L278.969 172.147ZM276.3 171.984H278.907L279.982 170.681L278.907 169.361H276.3L277.375 170.681L276.3 171.984Z" fill="white"/>
<path d="M271.73 169.27L272.186 170.192L273.203 170.339L272.467 171.059L272.643 172.072L271.73 171.593L270.821 172.072L270.994 171.059L270.258 170.339L271.274 170.192L271.73 169.27Z" fill="#B5E1EC"/>
<path d="M272.75 172.222L271.73 171.684L270.711 172.222L270.906 171.085L270.082 170.283L271.222 170.117L271.73 169.084L272.239 170.117L273.379 170.283L272.555 171.085L272.75 172.222ZM271.73 171.495L272.532 171.915L272.379 171.023L273.03 170.391L272.131 170.261L271.73 169.446L271.33 170.261L270.434 170.391L271.085 171.023L270.932 171.915L271.73 171.495Z" fill="white"/>
<path d="M298.612 170.101H282.082V171.241H298.612V170.101Z" fill="#DBDBDB"/>
<path d="M311.906 170.101H305.426V171.241H311.906V170.101Z" fill="#C7C7C7"/>
<path d="M266.344 189.322H239.897C236.734 178.226 234.189 169.775 234.189 169.775H259.265C259.265 169.775 262.363 178.144 266.344 189.322Z" fill="#37474F"/>
<path d="M243.771 189.322H243.227C241.66 184.093 240.031 178.897 238.435 173.662C238.412 173.593 238.519 173.561 238.546 173.629C238.871 174.535 239.197 175.44 239.523 176.349C241.048 180.637 242.445 184.969 243.771 189.322Z" fill="#263238"/>
<path d="M258.691 169.785C258.662 170.309 257.264 175.108 256.541 182.288C256.277 184.937 255.977 187.429 255.658 189.322H220.562C217.089 178.591 222.243 169.775 222.243 169.775C222.243 169.775 258.694 169.762 258.691 169.785Z" fill="#37474F"/>
<path d="M251.678 181.669C251.802 183.471 251.844 185.276 251.821 187.077C251.764 187.824 251.758 188.574 251.802 189.322H251.192C251.046 188.178 251.192 186.755 251.192 185.631C251.173 180.975 250.58 176.372 249.863 171.779C249.863 171.758 249.869 171.738 249.882 171.722C249.895 171.705 249.913 171.694 249.933 171.69C249.953 171.685 249.974 171.688 249.992 171.698C250.011 171.708 250.025 171.724 250.033 171.743C250.92 174.986 251.472 178.313 251.678 181.669Z" fill="#263238"/>
<path d="M256.031 183.995C255.998 184.953 255.738 187.504 254.985 189.322H254.461C255.48 186.836 255.422 181.985 255.347 180.852C255.135 177.529 254.878 174.408 254.314 170.909C254.294 170.798 254.477 170.792 254.5 170.893C255.493 175.115 256.168 179.662 256.031 183.995Z" fill="#263238"/>
<path d="M222.729 174.444C221.712 178.838 222.208 183.565 223.178 187.914C223.279 188.387 223.394 188.856 223.504 189.322H222.977C221.54 183.259 221.1 176.985 223.628 171.104C223.661 171.033 223.768 171.104 223.739 171.166C223.319 172.231 222.982 173.327 222.729 174.444Z" fill="#263238"/>
<path d="M280.995 105.688L275.229 124.042C274.997 124.576 275.248 125.039 275.783 125.068L285.387 125.616C285.681 125.611 285.967 125.523 286.213 125.362C286.459 125.2 286.654 124.972 286.774 124.704L292.528 106.362C292.759 105.825 292.508 105.365 291.974 105.336L282.396 104.789C282.101 104.79 281.812 104.875 281.564 105.034C281.316 105.193 281.119 105.42 280.995 105.688Z" fill="#37474F"/>
<path d="M282.134 105.756L276.381 124.098C276.15 124.632 276.401 125.091 276.938 125.124L286.539 125.671C286.833 125.666 287.12 125.578 287.366 125.416C287.613 125.255 287.808 125.027 287.93 124.759L293.68 106.414C293.911 105.88 293.664 105.437 293.126 105.392L283.522 104.841C283.228 104.847 282.941 104.936 282.696 105.098C282.45 105.26 282.256 105.488 282.134 105.756Z" fill="#455A64"/>
<path d="M284.719 106.757C284.706 106.918 284.646 107.072 284.545 107.199C284.445 107.326 284.31 107.42 284.156 107.47C284.002 107.52 283.836 107.523 283.681 107.479C283.525 107.435 283.386 107.345 283.281 107.222C283.176 107.099 283.11 106.948 283.091 106.787C283.073 106.626 283.102 106.464 283.176 106.32C283.249 106.175 283.364 106.057 283.505 105.978C283.647 105.899 283.808 105.864 283.969 105.877C284.185 105.894 284.386 105.997 284.526 106.162C284.667 106.327 284.736 106.541 284.719 106.757Z" fill="#263238"/>
<path d="M248.427 132.112C253.095 144.039 264.299 159.865 269.342 160.262C271.739 160.455 275.988 161.311 279.32 158.761C286.592 153.196 293.097 142.061 294.704 135.549C295.277 133.233 284.207 127.404 282.396 129.199C278.161 133.408 272.997 141.875 272.297 141.778C269.729 141.413 260.184 132.33 253.528 125.948C245.449 118.195 246.56 127.359 248.427 132.112Z" fill="#EB9481"/>
<path d="M295.785 123.456C294.892 118.615 293.921 117.51 295.335 113.031C296.263 110.099 294.784 108.232 292.507 110.493C288.78 114.187 288.621 120.674 289.214 122.938L295.785 123.456Z" fill="#EB9481"/>
<path d="M294.013 137.556C294.013 137.556 296.574 131.063 296.134 125.828C295.828 122.198 294.284 114.373 284.488 109.649C282.165 108.529 278.06 108.581 281.191 111.79C283.412 114.07 285.514 114.842 286.566 116.403C286.566 116.403 281.354 117.087 280.318 119.459C279.418 121.532 278.666 123.667 278.066 125.847C278.44 126.049 278.826 126.226 279.223 126.378C279.223 126.378 278.327 128.629 279.816 132.004L294.013 137.556Z" fill="#EB9481"/>
<path d="M295.289 122.394C293.917 121.065 290.963 118.299 287.757 116.875C284.2 115.295 276.915 113.21 275.775 115.849C274.941 117.784 277.651 118.827 277.651 118.827C277.651 118.827 274.459 118.599 274.087 120.511C273.762 122.254 275.892 122.935 275.892 122.935C275.892 122.935 273.938 123.13 273.938 124.873C273.938 126.968 278.039 126.215 279.87 128.343C280.274 128.818 295.289 122.394 295.289 122.394Z" fill="#EB9481"/>
<path d="M286.716 120.915C285.221 119.876 281.22 118.39 277.718 118.778C277.637 118.778 277.601 118.849 277.676 118.856C280.758 119.186 283.79 119.888 286.703 120.947C286.723 120.957 286.732 120.925 286.716 120.915Z" fill="#263238"/>
<path d="M285.003 124.463C283.621 123.697 279.432 122.351 275.881 122.863C275.803 122.863 275.77 122.941 275.845 122.948C278.934 123.117 281.995 123.636 284.967 124.495C284.971 124.5 284.977 124.503 284.984 124.503C284.99 124.503 284.996 124.501 285.001 124.497C285.006 124.492 285.009 124.486 285.009 124.48C285.009 124.474 285.007 124.467 285.003 124.463Z" fill="#263238"/>
<path d="M262.999 133.083L261.22 135.243L260.852 135.692L253.727 144.299C253.727 144.299 247.28 133.77 245.977 127.782C245.199 124.199 245.759 122.065 247.326 121.677C247.443 121.65 247.561 121.632 247.681 121.625C248.694 121.537 250.056 122.071 251.685 123.273C256.272 126.662 262.999 133.083 262.999 133.083Z" fill="#B5E1EC"/>
<path d="M262.6 132.728C262.436 133.267 262.235 133.795 261.998 134.308L262.975 133.135C262.978 133.121 262.978 133.106 262.975 133.092C262.946 133.034 262.812 132.907 262.6 132.728ZM251.658 123.28C251.024 123.683 250.444 124.163 249.931 124.71C248.37 126.343 247.498 128.514 247.494 130.773C247.499 131.379 247.538 131.985 247.611 132.587C247.772 132.959 247.935 133.33 248.1 133.702C248.071 133.461 248.038 133.223 248.006 132.978C247.778 131.678 247.761 130.349 247.953 129.043C248.159 128.013 248.551 127.029 249.11 126.14C249.799 125.029 250.716 124.077 251.801 123.348C251.759 123.322 251.723 123.293 251.684 123.264L251.658 123.28Z" fill="#B5E1EC"/>
<path d="M252.343 140.719C252.727 139.813 256.686 134.376 259.983 130.923C259.992 130.912 260.006 130.905 260.021 130.904C260.036 130.903 260.051 130.908 260.062 130.918C260.074 130.928 260.08 130.942 260.081 130.957C260.082 130.972 260.077 130.986 260.067 130.998C259.741 131.421 253.226 140.155 252.457 140.817C252.395 140.872 252.317 140.784 252.343 140.719Z" fill="#263238"/>
<path opacity="0.05" d="M258.288 138.797L253.728 144.296C253.728 144.296 247.28 133.77 245.977 127.782C245.078 123.651 245.954 121.456 248.095 121.622L258.288 138.797Z" fill="black"/>
<path d="M259.591 171.231C258.679 172.209 220.11 176.33 219.888 176.063C219.299 175.343 222.847 136.363 238.647 122.084C241.432 119.569 246.351 120.286 248.632 121.579C249.769 122.231 251.75 127.613 253.688 133.904C255.154 138.709 260.151 170.599 259.591 171.231Z" fill="#B5E1EC"/>
<path d="M259.592 171.231C259.39 171.45 257.311 171.827 254.207 172.277L253.855 172.326C252.284 172.551 250.473 172.792 248.518 173.036L248.095 173.091C242.514 173.792 235.859 174.541 230.412 175.115L230.236 175.131C224.372 175.75 219.964 176.154 219.889 176.063C219.814 175.971 219.814 174.346 220.071 171.785C220.071 171.678 220.094 171.564 220.104 171.459C220.72 165.54 222.427 154.786 225.9 144.384C225.955 144.214 226.014 144.058 226.069 143.879C227.108 140.778 228.334 137.742 229.741 134.79C229.783 134.702 229.822 134.617 229.868 134.529C231.244 131.632 232.903 128.878 234.819 126.306C234.885 126.222 234.947 126.14 235.015 126.062C236.104 124.632 237.32 123.303 238.647 122.091C239.02 121.759 239.432 121.475 239.876 121.247C239.977 121.195 240.081 121.146 240.185 121.1C241.574 120.517 243.088 120.293 244.586 120.449L244.958 120.488C246.242 120.614 247.49 120.988 248.632 121.589C249.079 121.847 249.659 122.83 250.313 124.326C250.346 124.391 250.375 124.463 250.405 124.534C251.382 126.815 252.552 130.216 253.689 133.913C254.089 135.216 254.757 138.539 255.497 142.683L255.545 142.963C255.803 144.394 256.067 145.925 256.331 147.502C256.37 147.726 256.409 147.948 256.445 148.173C256.982 151.391 257.52 154.773 257.999 157.926C258.015 158.054 258.034 158.184 258.057 158.308C258.461 161.005 258.82 163.52 259.096 165.602C259.116 165.768 259.136 165.928 259.158 166.09C259.526 169.081 259.715 171.078 259.592 171.231Z" fill="#B5E1EC"/>
<path d="M247.042 167.452C246.384 166.534 245.548 165.758 244.582 165.172C243.545 164.569 242.401 164.172 241.213 164.002C239.969 163.787 238.663 163.677 237.496 163.136C236.382 162.631 235.6 161.728 234.822 160.819C234.616 160.582 234.405 160.344 234.19 160.116C234.434 159.95 234.681 159.79 234.936 159.624C236.398 158.725 238.014 158.047 239.366 156.979C240.59 156.03 241.446 154.686 241.79 153.177C242.119 151.689 242.005 150.138 241.464 148.714C240.89 147.276 239.943 146.018 238.721 145.068C237.469 144.109 236.036 143.411 234.509 143.015C232.982 142.618 231.391 142.532 229.831 142.762C228.525 142.936 227.253 143.307 226.058 143.863C226.003 144.032 225.944 144.188 225.889 144.368C226.468 144.076 227.069 143.831 227.687 143.635C230.668 142.655 233.913 142.883 236.727 144.27C238.085 144.945 239.259 145.937 240.151 147.163C241.01 148.375 241.493 149.812 241.542 151.297C241.61 152.764 241.19 154.212 240.347 155.415C239.369 156.741 237.881 157.542 236.467 158.308C235.594 158.783 234.747 159.285 233.922 159.842C233.446 159.348 232.874 158.956 232.241 158.689C231.19 158.305 230.039 158.298 228.984 158.669C226.687 159.441 225.322 161.666 225.058 164.002C224.929 165.305 225.08 166.62 225.501 167.86C224.544 168.841 223.473 169.705 222.312 170.433C221.614 170.864 220.866 171.206 220.083 171.45C220.083 171.56 220.061 171.674 220.051 171.775C220.191 171.736 220.331 171.694 220.468 171.645C222.465 170.971 224.126 169.674 225.628 168.218C226.046 169.348 226.593 170.427 227.257 171.433C228.117 172.76 229.11 173.996 230.222 175.121L230.398 175.105C229.755 174.427 229.153 173.711 228.596 172.961C227.428 171.463 226.501 169.791 225.85 168.006C226.407 167.452 226.944 166.876 227.479 166.306C228.508 165.185 229.521 164.025 230.619 162.979C231.643 161.995 232.746 161.099 233.919 160.298C234.62 161.044 235.222 161.888 235.985 162.579C236.884 163.326 237.965 163.822 239.119 164.015C240.314 164.266 241.546 164.367 242.722 164.729C243.769 165.059 244.731 165.615 245.54 166.358C246.355 167.084 247.009 167.973 247.458 168.968C247.907 169.963 248.141 171.042 248.146 172.134C248.144 172.455 248.119 172.777 248.071 173.095L248.494 173.039C248.729 171.061 248.21 169.066 247.042 167.452ZM232.124 161.162C230.889 162.179 229.732 163.286 228.661 164.475C227.684 165.524 226.742 166.622 225.729 167.648C225.551 167.069 225.426 166.474 225.358 165.872C225.104 163.592 225.798 160.986 227.759 159.624C228.655 158.993 229.733 158.674 230.828 158.715C231.901 158.789 232.907 159.262 233.649 160.041C233.131 160.396 232.619 160.764 232.124 161.162ZM257.981 157.904C256.854 158.806 255.782 159.79 254.521 160.51C252.707 161.546 250.211 162.097 248.56 160.451C247.872 159.783 247.457 158.883 247.397 157.926C247.337 156.969 247.635 156.024 248.234 155.275C248.885 154.363 249.69 153.597 250.322 152.668C250.84 151.892 251.292 151.074 251.674 150.222C252.483 150.465 253.35 150.434 254.14 150.134C255.104 149.747 255.908 149.044 256.421 148.14C256.385 147.915 256.346 147.694 256.307 147.469C256.051 147.97 255.722 148.429 255.329 148.831C254.967 149.216 254.524 149.516 254.031 149.708C253.539 149.9 253.009 149.98 252.482 149.942C252.269 149.92 252.057 149.882 251.85 149.828C251.899 149.727 251.944 149.622 251.99 149.502C252.906 147.41 253.671 145.198 255.111 143.387C255.239 143.224 255.375 143.067 255.518 142.918L255.469 142.638C254.114 144.045 253.241 145.876 252.469 147.645C252.166 148.339 251.87 149.036 251.547 149.727C250.824 149.469 250.169 149.05 249.631 148.502C247.862 146.7 247.729 143.918 247.911 141.546C248.029 140.1 248.237 138.66 248.309 137.214C248.324 135.785 248.215 134.358 247.983 132.949C247.756 131.648 247.738 130.32 247.931 129.014C248.137 127.984 248.529 127 249.087 126.111C249.448 125.52 249.876 124.973 250.364 124.482C250.335 124.41 250.306 124.339 250.273 124.274C250.149 124.391 250.029 124.511 249.908 124.638C248.339 126.293 247.473 128.492 247.494 130.773C247.494 132.258 247.791 133.721 247.905 135.2C247.982 136.724 247.909 138.252 247.687 139.761C247.384 142.397 247.113 145.299 248.488 147.697C249.137 148.825 250.159 149.691 251.378 150.147C251.225 150.473 251.068 150.799 250.899 151.098C250.599 151.655 250.264 152.191 249.895 152.704C249.547 153.18 249.156 153.623 248.771 154.069C248.064 154.894 247.344 155.793 247.143 156.881C246.969 157.815 247.114 158.781 247.553 159.624C247.977 160.479 248.689 161.157 249.563 161.539C250.621 161.947 251.788 161.979 252.866 161.627C254.906 161.031 256.45 159.595 258.056 158.298C258.017 158.174 257.997 158.044 257.981 157.917V157.904ZM259.141 166.068C258.115 165.253 257.02 164.439 255.678 164.331C255.022 164.256 254.36 164.419 253.814 164.791C253.315 165.168 252.944 165.688 252.749 166.283C252.305 167.592 252.357 169.02 252.896 170.293C253.207 171.033 253.648 171.71 254.199 172.293L253.847 172.342C253.481 171.946 253.163 171.509 252.899 171.039C252.525 170.369 252.277 169.636 252.166 168.876C251.964 167.557 252.166 166.071 253.033 165.012C253.974 163.865 255.509 163.748 256.828 164.23C257.65 164.563 258.413 165.025 259.089 165.599C259.099 165.758 259.118 165.921 259.141 166.081V166.068ZM244.605 120.98C244.722 120.817 244.829 120.654 244.93 120.478L244.559 120.439C243.803 121.599 242.905 122.66 241.884 123.596L241.682 123.788C241.477 123.068 241.155 122.387 240.728 121.772C240.556 121.531 240.365 121.305 240.158 121.094C240.054 121.14 239.949 121.189 239.848 121.241C240.531 121.935 241.037 122.783 241.324 123.713C241.357 123.821 241.386 123.928 241.415 124.039C240.533 124.914 239.5 125.622 238.366 126.131C237.297 126.564 235.994 126.652 234.988 126.059C234.919 126.137 234.857 126.219 234.792 126.303C235.625 126.781 236.606 126.933 237.545 126.73C239.04 126.447 240.317 125.459 241.435 124.479L241.51 124.414C241.979 126.427 241.803 128.551 242.119 130.604C242.481 132.939 243.601 135.301 243.025 137.692C242.835 138.63 242.325 139.472 241.581 140.074C241.134 140.38 240.619 140.573 240.081 140.638C239.543 140.702 238.997 140.636 238.49 140.445C236.183 139.706 234.838 137.513 232.929 136.165C231.95 135.53 230.916 134.985 229.84 134.536C229.795 134.624 229.756 134.708 229.713 134.796C230.365 135.106 231.016 135.396 231.609 135.725C232.076 135.971 232.522 136.253 232.945 136.569C233.439 136.957 233.909 137.374 234.352 137.819C235.235 138.68 236.102 139.595 237.177 140.224C238.154 140.794 239.324 141.155 240.458 140.937C240.944 140.83 241.402 140.62 241.801 140.323C242.2 140.025 242.532 139.646 242.774 139.211C243.27 138.33 243.526 137.335 243.517 136.324C243.517 135.021 243.162 133.718 242.846 132.457C242.667 131.787 242.525 131.107 242.419 130.421C242.334 129.815 242.285 129.209 242.249 128.6C242.213 127.393 242.113 126.19 241.95 124.994C241.904 124.717 241.849 124.443 241.783 124.169C242.84 123.215 243.786 122.145 244.605 120.98Z" fill="#B5E1EC"/>
<path d="M234.893 127.515C228.544 140.732 220.044 173.577 218.796 178.405C217.946 181.682 235.059 185.002 235.512 182.725C236.033 180.119 242.578 141.677 241.927 127.831C241.571 120.254 237.089 122.954 234.893 127.515Z" fill="#EB9481"/>
<path d="M235.724 181.21C235.522 183.699 234.096 188.761 232.897 189.586C231.698 190.41 225.12 190.592 221.82 190.768C218.52 190.944 217.81 190.065 217.803 188.915C217.797 187.765 224.733 187.191 224.733 187.191C224.733 187.191 215.611 190.335 213.301 190.889C210.991 191.443 205.697 193.081 204.831 191.192C204.414 190.338 205.837 189.38 205.837 189.38C205.837 189.38 203.619 190.156 203.202 189.055C202.726 187.8 204.482 187.005 204.482 187.005C204.482 187.005 203.088 187.364 203.003 186.325C202.808 184.008 211.558 182.415 211.558 182.415C211.558 182.415 204.984 186.054 204.668 184.171C204.231 181.565 217.904 177.962 219.282 176.743C220.284 175.816 221.213 174.813 222.061 173.743L235.724 181.21Z" fill="#EB9481"/>
<path d="M217.891 189.488C217.86 189.327 217.868 189.161 217.914 189.004C217.961 188.847 218.045 188.703 218.159 188.586C218.385 188.355 218.648 188.165 218.937 188.022C219.534 187.727 220.157 187.489 220.797 187.308C222.084 186.908 223.404 186.605 224.707 186.191C223.33 186.241 221.966 186.468 220.648 186.865C219.975 187.057 219.332 187.342 218.739 187.712C218.432 187.903 218.168 188.154 217.963 188.452C217.863 188.604 217.804 188.779 217.792 188.961C217.779 189.142 217.813 189.324 217.891 189.488Z" fill="#263238"/>
<path d="M205.838 189.38C206.779 189.097 207.705 188.778 208.627 188.458C209.549 188.139 210.467 187.807 211.386 187.481L214.132 186.458C215.048 186.132 215.96 185.781 216.885 185.452C215.916 185.61 214.958 185.834 214.018 186.119C213.073 186.387 212.148 186.712 211.226 187.045C210.304 187.377 209.395 187.742 208.499 188.136C207.604 188.53 206.708 188.918 205.838 189.38Z" fill="#263238"/>
<path d="M214.526 183.246C213.631 183.352 212.745 183.522 211.874 183.754C211.001 183.979 210.139 184.249 209.294 184.565C208.448 184.877 207.62 185.237 206.815 185.644C206.006 186.042 205.227 186.497 204.482 187.005C205.32 186.68 206.131 186.295 206.962 185.969C207.792 185.644 208.62 185.318 209.457 184.992C210.294 184.666 211.135 184.383 211.975 184.086C212.816 183.79 213.673 183.526 214.526 183.246Z" fill="#263238"/>
<path d="M213.048 181.106C211.603 181.294 210.189 181.67 208.842 182.226C207.484 182.756 206.201 183.462 205.027 184.328C206.373 183.767 207.679 183.184 209.015 182.66C210.351 182.135 211.703 181.624 213.048 181.106Z" fill="#263238"/>
<path d="M242.257 142.7L227.004 142.774C227.004 142.774 231.145 130.515 235.086 125.45C239.028 120.384 242.192 121.052 242.544 127.013C242.895 132.975 242.257 142.7 242.257 142.7Z" fill="#B5E1EC"/>
<path d="M242.542 127.013C242.562 127.284 242.575 127.567 242.585 127.851C242.585 127.978 242.585 128.105 242.604 128.235C242.819 134.207 242.259 142.7 242.259 142.7L238.115 142.722H237.701L227.006 142.781C227.006 142.781 228.762 137.569 231.068 132.558C231.147 132.392 231.221 132.232 231.306 132.056C232.482 129.541 233.792 127.114 235.082 125.456C239.027 120.384 242.187 121.055 242.542 127.013Z" fill="#B5E1EC"/>
<path d="M229.896 142.762L232.995 142.742C231.965 142.621 230.924 142.628 229.896 142.762ZM242.429 130.408C242.344 129.802 242.296 129.196 242.26 128.587C242.223 127.38 242.123 126.177 241.96 124.981C241.914 124.704 241.859 124.43 241.794 124.156C241.853 124.098 241.914 124.046 241.976 123.984C241.931 123.866 241.885 123.756 241.836 123.658C241.791 123.707 241.739 123.749 241.693 123.798C241.605 123.485 241.496 123.178 241.367 122.879C241.19 122.647 240.968 122.453 240.716 122.306C240.989 122.75 241.208 123.226 241.367 123.723C241.4 123.831 241.429 123.938 241.458 124.049C240.576 124.924 239.543 125.632 238.409 126.14C237.253 126.613 235.819 126.675 234.786 125.906C234.725 125.99 234.666 126.072 234.607 126.16C235.038 126.455 235.525 126.659 236.038 126.759C236.55 126.859 237.078 126.852 237.588 126.74C239.083 126.456 240.36 125.469 241.478 124.489L241.553 124.423C242.022 126.437 241.846 128.561 242.162 130.613C242.283 131.376 242.488 132.144 242.677 132.913C242.677 132.48 242.677 132.047 242.677 131.61C242.563 131.2 242.485 130.805 242.429 130.408ZM241.592 140.058C241.144 140.363 240.63 140.557 240.092 140.622C239.553 140.686 239.008 140.62 238.5 140.429C236.194 139.689 234.848 137.497 232.939 136.148C232.053 135.568 231.117 135.068 230.141 134.656C230.098 134.744 230.063 134.835 230.024 134.927C230.564 135.184 231.108 135.435 231.62 135.712C232.086 135.958 232.533 136.24 232.956 136.555C233.449 136.944 233.919 137.361 234.363 137.806C235.246 138.667 236.112 139.582 237.187 140.211C238.165 140.781 239.334 141.142 240.468 140.924C241.241 140.76 241.932 140.332 242.423 139.712C242.423 139.52 242.442 139.318 242.449 139.11C242.226 139.477 241.935 139.799 241.592 140.058Z" fill="#B5E1EC"/>
<path d="M228.968 139.243C229.946 138.943 236.986 138.478 241.977 138.81C241.992 138.81 242.007 138.816 242.018 138.827C242.029 138.838 242.035 138.853 242.035 138.869C242.035 138.884 242.029 138.899 242.018 138.91C242.007 138.921 241.992 138.927 241.977 138.927C241.426 138.96 230.011 139.579 228.968 139.403C228.867 139.4 228.884 139.279 228.968 139.243Z" fill="#263238"/>
<path d="M243.223 133.454C243.223 133.444 243.219 133.434 243.212 133.426C243.205 133.419 243.195 133.415 243.184 133.415C243.174 133.415 243.164 133.419 243.157 133.426C243.149 133.434 243.145 133.444 243.145 133.454C243.006 133.973 242.897 134.499 242.819 135.031C242.797 135.151 242.78 135.275 242.758 135.396C242.715 134.093 242.653 132.825 242.585 131.548C242.585 131.49 242.487 131.49 242.49 131.548C242.529 135.976 242.412 140.018 242.142 142.579L240.819 142.69C240.801 142.694 240.784 142.704 240.772 142.718C240.76 142.733 240.754 142.751 240.754 142.77C240.754 142.788 240.76 142.807 240.772 142.821C240.784 142.836 240.801 142.846 240.819 142.85L242.5 142.908C242.572 142.908 242.852 139.22 242.784 136.314C242.875 135.894 242.973 135.477 243.041 135.054C243.143 134.526 243.204 133.991 243.223 133.454Z" fill="#263238"/>
<path d="M229.065 142.778C228.377 142.82 227.69 142.856 227.006 142.876H226.869L226.911 142.742C227.179 141.902 227.452 141.064 227.752 140.237C228.052 139.409 228.355 138.579 228.68 137.761C229.006 136.943 229.332 136.132 229.713 135.324C230.094 134.516 230.459 133.724 230.886 132.952L229.909 135.415L228.97 137.878L228.032 140.344L227.097 142.827L227.006 142.696C227.69 142.7 228.377 142.736 229.065 142.778Z" fill="#263238"/>
<path d="M247.692 128.333C245.373 129.098 240.994 125.837 239.134 123.049C239.007 122.856 239.134 114.751 239.004 113.145C238.975 112.819 249.321 114.715 249.321 114.715C249.321 114.715 248.621 118.175 248.882 120.977C248.908 121.211 249.934 127.593 247.692 128.333Z" fill="#EB9481"/>
<path d="M249.326 114.712C249.326 114.761 249.277 114.963 249.225 115.289C249.133 115.842 248.997 116.738 248.915 117.755C248.815 118.823 248.807 119.898 248.892 120.967C248.896 121.041 248.904 121.115 248.918 121.188V121.224C248.941 121.355 248.961 121.531 248.984 121.739C248.662 121.811 248.335 121.858 248.006 121.879C242.497 122.231 240.06 115.647 239.324 113.099L239.5 113.116C239.771 113.135 240.129 113.178 240.559 113.233L240.885 113.279C241.572 113.376 242.393 113.507 243.247 113.643C243.527 113.689 243.807 113.731 244.094 113.784C244.706 113.891 245.325 113.995 245.898 114.09C246.146 114.139 246.39 114.181 246.618 114.22C246.846 114.259 247.123 114.308 247.355 114.347L247.68 114.406L247.84 114.438L248.697 114.591L249.107 114.663C249.166 114.673 249.223 114.686 249.28 114.702C249.296 114.702 249.303 114.702 249.309 114.702L249.326 114.712Z" fill="#263238"/>
<path d="M237.025 101.336C236.048 104.961 238.283 115.266 240.912 117.494C244.73 120.723 250.806 120.843 253.513 116.302C256.119 111.901 252.982 98.5176 250.06 96.5108C245.753 93.556 238.472 95.9798 237.025 101.336Z" fill="#EB9481"/>
<path d="M238.52 111.422C240.361 110.829 239.546 106.04 239.546 106.04C239.546 106.04 241.742 104.737 241.713 100.254C241.713 100.254 244.085 104.251 251.757 101.899C251.75 100.467 251.294 99.0739 250.453 97.9149C251.469 99.1261 252.385 100.418 253.19 101.779C253.19 101.779 253.897 94.9372 247.922 93.6341C245.544 93.1161 242.211 93.9045 237.546 97.348C237.546 97.348 236.018 94.4584 235.5 94.9666C234.982 95.4748 236.631 98.1331 236.631 98.1331C236.631 98.1331 234.259 97.8399 233.966 98.3775C233.712 98.8401 235.979 99.029 235.979 99.029C235.979 99.029 232.721 100.739 234.024 104.6C235.194 108.131 237.608 111.718 238.52 111.422Z" fill="#263238"/>
<path d="M236.592 98.8466C235.594 98.991 234.684 99.4949 234.033 100.264C233.381 101.032 233.033 102.012 233.054 103.02C233.089 104.17 233.588 105.33 234.135 106.326C234.752 107.385 235.502 108.359 236.367 109.226C236.412 109.275 236.484 109.193 236.435 109.144C235.672 108.321 235.04 107.385 234.562 106.369C234.05 105.422 233.694 104.399 233.506 103.339C233.381 102.352 233.631 101.355 234.206 100.544C234.782 99.7326 235.642 99.1676 236.614 98.9606C236.628 98.956 236.639 98.9467 236.646 98.9343C236.653 98.922 236.656 98.9075 236.653 98.8936C236.65 98.8796 236.642 98.8672 236.631 98.8585C236.62 98.8499 236.606 98.8456 236.592 98.8466Z" fill="#263238"/>
<path d="M243.247 93.3442C241.966 93.8844 240.761 94.5909 239.664 95.4455C238.581 96.2074 237.638 97.1495 236.875 98.2309C236.839 98.2862 236.911 98.3514 236.956 98.2993C238.667 96.4651 240.895 95.0773 243.146 93.9827C245.241 92.9565 247.857 92.4907 249.864 93.9827C249.867 93.9868 249.87 93.9902 249.875 93.9926C249.879 93.995 249.884 93.9964 249.889 93.9965C249.894 93.9967 249.899 93.9956 249.904 93.9935C249.909 93.9914 249.913 93.9882 249.916 93.9843C249.919 93.9804 249.921 93.9757 249.922 93.9708C249.923 93.9658 249.923 93.9607 249.922 93.9558C249.921 93.9509 249.918 93.9464 249.915 93.9426C249.912 93.9388 249.907 93.9358 249.903 93.9338C248.052 92.331 245.388 92.4776 243.247 93.3442Z" fill="#263238"/>
<path d="M239.643 109.776C239.643 109.776 237.245 106.457 235.733 107.317C234.222 108.177 236.059 113.011 237.857 113.65C238.082 113.748 238.325 113.799 238.57 113.801C238.816 113.802 239.059 113.754 239.285 113.66C239.511 113.565 239.716 113.426 239.888 113.25C240.059 113.074 240.193 112.866 240.281 112.637L239.643 109.776Z" fill="#EB9481"/>
<path d="M236.295 108.688C236.265 108.688 236.262 108.727 236.295 108.737C237.555 109.226 238.233 110.366 238.712 111.575C238.334 111.119 237.823 110.871 237.207 111.324C237.174 111.347 237.207 111.399 237.239 111.389C237.459 111.316 237.696 111.312 237.917 111.378C238.139 111.445 238.335 111.578 238.477 111.76C238.713 112.064 238.916 112.392 239.083 112.738C239.142 112.849 239.344 112.787 239.302 112.656C239.301 112.648 239.301 112.639 239.302 112.63C239.292 111.04 238.015 108.825 236.295 108.688Z" fill="#263238"/>
<path d="M247.768 107.252C247.768 107.229 247.722 107.294 247.726 107.323C247.872 108.008 247.921 108.819 247.338 109.157C247.334 109.159 247.331 109.162 247.329 109.165C247.327 109.168 247.326 109.172 247.326 109.175C247.326 109.179 247.327 109.183 247.329 109.186C247.331 109.189 247.334 109.192 247.338 109.193C248.09 108.946 248.016 107.88 247.768 107.252Z" fill="#263238"/>
<path d="M247.026 106.642C245.905 106.756 246.212 108.995 247.251 108.89C248.29 108.786 247.968 106.548 247.026 106.642Z" fill="#263238"/>
<path d="M251.713 106.444C251.713 106.418 251.772 106.47 251.775 106.499C251.85 107.193 252.052 107.978 252.71 108.128C252.73 108.128 252.733 108.167 252.71 108.167C251.928 108.161 251.671 107.115 251.713 106.444Z" fill="#263238"/>
<path d="M252.234 105.636C253.338 105.398 253.733 107.623 252.71 107.841C251.687 108.06 251.309 105.835 252.234 105.636Z" fill="#263238"/>
<path d="M245.977 106.014C246.26 105.886 246.535 105.744 246.802 105.587C247.114 105.479 247.381 105.271 247.561 104.994C247.6 104.897 247.606 104.789 247.579 104.688C247.551 104.587 247.491 104.497 247.408 104.434C247.222 104.333 247.012 104.284 246.801 104.292C246.589 104.299 246.384 104.363 246.205 104.476C245.81 104.649 245.493 104.962 245.316 105.356C245.281 105.448 245.274 105.548 245.295 105.644C245.316 105.741 245.364 105.829 245.434 105.899C245.504 105.968 245.592 106.016 245.689 106.036C245.785 106.057 245.885 106.049 245.977 106.014Z" fill="#263238"/>
<path d="M252.776 104.411C252.467 104.39 252.159 104.353 251.854 104.3C251.525 104.307 251.202 104.205 250.936 104.01C250.864 103.933 250.82 103.834 250.811 103.729C250.801 103.624 250.827 103.519 250.884 103.43C251.022 103.271 251.2 103.152 251.4 103.085C251.6 103.018 251.814 103.006 252.021 103.049C252.453 103.07 252.861 103.254 253.164 103.564C253.23 103.638 253.273 103.729 253.288 103.827C253.303 103.924 253.289 104.024 253.247 104.114C253.206 104.204 253.14 104.28 253.056 104.333C252.972 104.385 252.875 104.413 252.776 104.411Z" fill="#263238"/>
<path d="M247.899 113.419C248.087 113.559 248.283 113.744 248.55 113.744C248.807 113.705 249.053 113.61 249.27 113.468C249.293 113.468 249.319 113.468 249.306 113.5C249.225 113.65 249.106 113.775 248.96 113.863C248.815 113.95 248.648 113.997 248.478 113.999C248.332 113.981 248.194 113.92 248.082 113.824C247.97 113.727 247.889 113.6 247.85 113.458C247.82 113.419 247.863 113.399 247.899 113.419Z" fill="#263238"/>
<path d="M248.342 111.242C248.556 111.493 248.819 111.696 249.115 111.839C249.411 111.983 249.733 112.064 250.062 112.076C250.349 112.091 250.636 112.065 250.916 111.998C250.97 111.989 251.023 111.976 251.075 111.959L251.225 111.914C251.261 111.902 251.292 111.878 251.313 111.847C251.334 111.816 251.344 111.779 251.342 111.741L251.326 111.669V111.607C251.264 111.073 251.101 110.268 251.101 110.268C251.31 110.34 252.365 110.65 252.313 110.373C251.857 108.092 251.352 105.538 250.417 103.355C250.412 103.338 250.401 103.324 250.386 103.316C250.371 103.307 250.353 103.305 250.336 103.31C250.319 103.314 250.305 103.326 250.296 103.341C250.288 103.356 250.285 103.374 250.29 103.391C250.642 105.61 251.378 107.75 251.766 109.972C251.39 109.854 251 109.792 250.606 109.786C250.535 109.819 250.948 111.337 250.958 111.578C250.959 111.587 250.959 111.595 250.958 111.604C250.078 111.842 249.365 111.663 248.41 111.181C248.342 111.138 248.293 111.194 248.342 111.242Z" fill="#263238"/>
<path d="M250.564 111.77C250.324 112.191 249.98 112.544 249.564 112.793C249.333 112.923 249.068 112.976 248.805 112.946C248.231 112.878 248.153 112.373 248.189 111.923C248.213 111.684 248.266 111.449 248.345 111.223C249.008 111.637 249.785 111.829 250.564 111.77Z" fill="#263238"/>
<path d="M249.564 112.793C249.333 112.923 249.068 112.976 248.805 112.946C248.231 112.878 248.153 112.373 248.189 111.923C248.792 111.904 249.433 112.223 249.564 112.793Z" fill="#FF9ABB"/>
</g>
<defs>
<linearGradient id="paint0_linear_552_28999" x1="0" y1="0" x2="350" y2="200" gradientUnits="userSpaceOnUse">
<stop stop-color="#3DA2B9"/>
<stop offset="1" stop-color="#2A8AA0"/>
</linearGradient>
<clipPath id="clip0_552_28999">
<rect width="350" height="200" rx="20" fill="white"/>
</clipPath>
</defs>
</svg>
