<svg width="350" height="200" viewBox="0 0 350 200" fill="none" xmlns="http://www.w3.org/2000/svg">
<g clip-path="url(#clip0_552_26877)">
<rect width="350" height="200" rx="20" fill="url(#paint0_linear_552_26877)"/>
<path opacity="0.5" d="M268.5 220C319.586 220 361 203.658 361 183.5C361 163.342 319.586 147 268.5 147C217.414 147 176 163.342 176 183.5C176 203.658 217.414 220 268.5 220Z" fill="white"/>
<path d="M349 167.48H189V167.56H349V167.48Z" fill="#DAFFFD"/>
<path d="M332.968 172.629H322.369V172.709H332.968V172.629Z" fill="#DAFFFD"/>
<path d="M294.99 173.499H292.209V173.579H294.99V173.499Z" fill="#DAFFFD"/>
<path d="M322.049 169.659H315.908V169.739H322.049V169.659Z" fill="#DAFFFD"/>
<path d="M219.608 170.197H205.787V170.277H219.608V170.197Z" fill="#DAFFFD"/>
<path d="M224.485 170.197H222.459V170.277H224.485V170.197Z" fill="#DAFFFD"/>
<path d="M261.048 171.547H231.07V171.627H261.048V171.547Z" fill="#DAFFFD"/>
<path d="M266.258 78.2254L267.416 77.6174L268.575 78.2254L268.354 76.9358L269.291 76.0206L267.995 75.8318L267.416 74.6606L266.837 75.8318L265.541 76.0206L266.479 76.9358L266.258 78.2254Z" fill="#3F706D"/>
<path d="M321.621 138.673H312.156V121.665C312.96 121.573 313.702 121.188 314.241 120.585C314.78 119.982 315.079 119.201 315.08 118.392V118.04C315.081 117.606 314.996 117.176 314.83 116.774C314.664 116.373 314.42 116.009 314.113 115.702C313.806 115.394 313.442 115.151 313.04 114.985C312.639 114.819 312.209 114.734 311.775 114.734V110.443L313.695 109.777C310.884 103.805 308.96 97.4546 307.986 90.9263L306.904 83.6687L305.8 90.9263C304.827 97.4544 302.905 103.805 300.095 109.777L302.015 110.443V114.728C301.138 114.728 300.297 115.076 299.677 115.696C299.058 116.316 298.709 117.157 298.709 118.033V118.392C298.709 118.43 298.709 118.465 298.709 118.501H281.672V107.953H281.612C284.85 105.829 286.847 102.923 286.847 99.7135C286.847 95.1183 282.748 91.1375 276.77 89.1951C275.002 88.612 273.377 87.6617 272.001 86.4065C270.626 85.1514 269.531 83.6197 268.789 81.9119C269.893 81.8754 270.936 81.4021 271.69 80.5961C272.445 79.7902 272.848 78.7176 272.812 77.6143C272.775 76.511 272.302 75.4674 271.496 74.713C270.69 73.9587 269.617 73.5554 268.514 73.5919C268.352 73.5933 268.189 73.6029 268.028 73.6207C268.634 73.6987 269.206 73.945 269.679 74.3316C270.152 74.7182 270.508 75.2296 270.705 75.8079C270.903 76.3863 270.934 77.0083 270.796 77.6036C270.658 78.1989 270.356 78.7435 269.924 79.1758C269.492 79.6081 268.947 79.9108 268.352 80.0494C267.757 80.1881 267.135 80.1572 266.556 79.9603C265.978 79.7634 265.466 79.4084 265.079 78.9355C264.692 78.4626 264.445 77.8907 264.367 77.2847C264.347 77.445 264.336 77.6063 264.335 77.7679C264.336 78.8204 264.734 79.8337 265.451 80.6051C266.167 81.3764 267.148 81.8488 268.197 81.9279C267.454 83.6339 266.359 85.1637 264.984 86.4172C263.608 87.6706 261.984 88.6194 260.216 89.2015C254.236 91.1439 250.136 95.1247 250.136 99.7199C250.136 102.92 252.136 105.835 255.375 107.96H255.311V118.501H238.28C238.28 118.465 238.28 118.43 238.28 118.392V118.04C238.281 117.606 238.196 117.176 238.03 116.774C237.864 116.373 237.62 116.009 237.313 115.702C237.006 115.394 236.642 115.151 236.24 114.985C235.839 114.819 235.409 114.734 234.975 114.734V110.443L236.895 109.777C234.084 103.805 232.16 97.4546 231.186 90.9263L230.104 83.6687L229 90.9263C228.027 97.4544 226.105 103.805 223.295 109.777L225.215 110.443V114.728C224.338 114.728 223.497 115.076 222.877 115.696C222.258 116.316 221.909 117.157 221.909 118.033V118.392C221.91 119.2 222.206 119.98 222.743 120.584C223.279 121.189 224.019 121.576 224.821 121.672V138.68H215.362C214.832 138.68 214.325 138.89 213.95 139.265C213.576 139.639 213.365 140.147 213.365 140.677V142.129C213.365 142.392 213.417 142.651 213.517 142.893C213.618 143.135 213.765 143.355 213.95 143.54C214.136 143.725 214.356 143.872 214.598 143.972C214.84 144.072 215.1 144.124 215.362 144.123V167.845H321.621V144.117C321.883 144.117 322.143 144.066 322.385 143.966C322.627 143.866 322.848 143.719 323.033 143.534C323.218 143.349 323.366 143.129 323.466 142.887C323.566 142.645 323.618 142.385 323.618 142.123V140.67C323.618 140.141 323.408 139.633 323.033 139.258C322.659 138.884 322.151 138.673 321.621 138.673Z" fill="#3F706D"/>
<path d="M312.156 121.666H224.828V138.674H312.156V121.666Z" fill="#DAFFFD"/>
<path d="M278.043 151.608C278.043 149.217 275.912 147.144 272.799 146.136C271.814 145.811 270.915 145.268 270.17 144.548C269.424 143.828 268.85 142.949 268.491 141.976C268.133 142.949 267.559 143.828 266.813 144.548C266.067 145.268 265.169 145.811 264.184 146.136C261.074 147.144 258.939 149.217 258.939 151.608C258.949 152.493 259.231 153.355 259.746 154.075V167.835H277.24V154.075C277.753 153.354 278.033 152.493 278.043 151.608Z" fill="#47C9C1"/>
<path d="M285.575 150.737C284.743 150.739 283.946 151.071 283.358 151.66C282.77 152.249 282.439 153.047 282.439 153.88V167.838H288.727V153.88C288.727 153.466 288.645 153.057 288.486 152.675C288.328 152.294 288.095 151.947 287.803 151.655C287.51 151.363 287.163 151.132 286.78 150.975C286.398 150.817 285.989 150.736 285.575 150.737Z" fill="#47C9C1"/>
<path d="M295.521 150.738C296.355 150.738 297.155 151.069 297.745 151.659C298.335 152.249 298.666 153.049 298.666 153.883V167.842H292.375V153.88C292.376 153.046 292.708 152.247 293.297 151.658C293.887 151.069 294.687 150.738 295.521 150.738Z" fill="#47C9C1"/>
<path d="M305.464 150.738C306.298 150.738 307.098 151.069 307.688 151.659C308.278 152.249 308.61 153.049 308.61 153.883V167.842H302.318V153.88C302.319 153.046 302.651 152.247 303.241 151.658C303.831 151.069 304.63 150.738 305.464 150.738Z" fill="#47C9C1"/>
<path d="M315.4 150.738C314.567 150.738 313.768 151.069 313.178 151.658C312.589 152.247 312.258 153.047 312.258 153.88V167.838H318.546V153.88C318.545 153.046 318.213 152.247 317.623 151.658C317.034 151.069 316.234 150.738 315.4 150.738Z" fill="#47C9C1"/>
<path d="M221.577 150.737C220.745 150.739 219.947 151.071 219.36 151.66C218.772 152.249 218.441 153.047 218.441 153.88V167.838H224.729V153.88C224.729 153.466 224.647 153.057 224.488 152.675C224.33 152.294 224.097 151.947 223.805 151.655C223.512 151.363 223.165 151.132 222.782 150.975C222.4 150.817 221.991 150.736 221.577 150.737Z" fill="#47C9C1"/>
<path d="M231.521 150.738C232.355 150.738 233.155 151.069 233.745 151.659C234.335 152.249 234.666 153.049 234.666 153.883V167.842H228.375V153.88C228.376 153.046 228.708 152.247 229.297 151.658C229.887 151.069 230.687 150.738 231.521 150.738Z" fill="#47C9C1"/>
<path d="M241.464 150.738C241.877 150.738 242.286 150.819 242.668 150.977C243.049 151.135 243.396 151.367 243.688 151.659C243.98 151.951 244.212 152.298 244.37 152.679C244.528 153.061 244.61 153.47 244.61 153.883V167.842H238.318V153.88C238.319 153.046 238.651 152.247 239.241 151.658C239.831 151.069 240.63 150.738 241.464 150.738Z" fill="#47C9C1"/>
<path d="M251.4 150.738C250.567 150.738 249.768 151.069 249.178 151.658C248.589 152.247 248.258 153.047 248.258 153.88V167.838H254.546V153.88C254.545 153.046 254.213 152.247 253.623 151.658C253.034 151.069 252.234 150.738 251.4 150.738Z" fill="#47C9C1"/>
<path d="M239.321 127.765L236.248 130.838L239.321 133.911L242.394 130.838L239.321 127.765Z" fill="#47C9C1"/>
<path d="M258.766 127.765L255.693 130.838L258.766 133.91L261.839 130.838L258.766 127.765Z" fill="#47C9C1"/>
<path d="M278.215 127.766L275.143 130.838L278.215 133.911L281.288 130.838L278.215 127.766Z" fill="#47C9C1"/>
<path d="M297.665 127.766L294.592 130.839L297.665 133.912L300.737 130.839L297.665 127.766Z" fill="#47C9C1"/>
<path d="M255.311 118.494H281.672V107.954H255.375L255.311 118.494Z" fill="#DAFFFD"/>
<path d="M234.962 110.443H225.221V114.728H234.962V110.443Z" fill="#47C9C1"/>
<path d="M311.76 110.443H302.02V114.728H311.76V110.443Z" fill="#47C9C1"/>
<path d="M324.06 175.067C324.06 175.067 322.38 171.403 324.3 167.79C326.22 164.177 326.773 163.329 325.551 162.587C324.328 161.845 323.765 165.467 323.765 165.467C323.765 165.467 322.735 162.971 323.586 160.347C324.437 157.723 324.972 153.477 323.81 153.022C322.648 152.568 323.586 158.331 322.578 160.296C322.064 158.917 321.732 157.476 321.592 156.011C321.452 153.912 321.669 150.571 320.751 149.701C319.832 148.83 319.247 149.435 320.149 154.065C320.692 156.834 320.99 159.645 321.042 162.465C321.042 162.465 319.052 156.385 317.714 156.209C316.376 156.033 316.376 158.001 317.522 159.707C318.668 161.413 320.876 164.472 321.237 166.046C321.237 166.046 319.048 161.473 317.077 162.875C315.106 164.277 318.792 167.035 320.431 168.037C322.069 169.038 323.212 175.291 323.212 175.291L324.06 175.067Z" fill="#DAFFFD"/>
<path d="M324.06 175.067C324.06 175.067 322.38 171.403 324.3 167.79C326.22 164.177 326.773 163.329 325.551 162.587C324.328 161.845 323.765 165.467 323.765 165.467C323.765 165.467 322.735 162.971 323.586 160.347C324.437 157.723 324.972 153.477 323.81 153.022C322.648 152.568 323.586 158.331 322.578 160.296C322.064 158.917 321.732 157.476 321.592 156.011C321.452 153.912 321.669 150.571 320.751 149.701C319.832 148.83 319.247 149.435 320.149 154.065C320.692 156.834 320.99 159.645 321.042 162.465C321.042 162.465 319.052 156.385 317.714 156.209C316.376 156.033 316.376 158.001 317.522 159.707C318.668 161.413 320.876 164.472 321.237 166.046C321.237 166.046 319.048 161.473 317.077 162.875C315.106 164.277 318.792 167.035 320.431 168.037C322.069 169.038 323.212 175.291 323.212 175.291L324.06 175.067Z" fill="#81FFF7"/>
<path d="M322.734 176.571C322.734 176.571 324.369 172.881 322.414 169.297C320.459 165.713 319.883 164.872 321.099 164.113C322.315 163.355 322.916 166.977 322.916 166.977C322.916 166.977 323.918 164.465 323.035 161.857C322.152 159.249 321.569 155.009 322.715 154.536C323.86 154.062 323.003 159.841 324.033 161.79C324.532 160.404 324.846 158.958 324.968 157.489C325.083 155.39 324.827 152.049 325.732 151.166C326.638 150.283 327.236 150.881 326.388 155.525C325.881 158.301 325.615 161.115 325.595 163.937C325.595 163.937 327.515 157.832 328.849 157.633C330.184 157.435 330.206 159.403 329.083 161.128C327.96 162.853 325.787 165.928 325.445 167.528C325.445 167.528 327.576 162.923 329.56 164.293C331.544 165.662 327.899 168.481 326.27 169.505C324.641 170.529 323.579 176.798 323.579 176.798L322.734 176.571Z" fill="#DAFFFD"/>
<path d="M322.734 176.571C322.734 176.571 324.369 172.881 322.414 169.297C320.459 165.713 319.883 164.872 321.099 164.113C322.315 163.355 322.916 166.977 322.916 166.977C322.916 166.977 323.918 164.465 323.035 161.857C322.152 159.249 321.569 155.009 322.715 154.536C323.86 154.062 323.003 159.841 324.033 161.79C324.532 160.404 324.846 158.958 324.968 157.489C325.083 155.39 324.827 152.049 325.732 151.166C326.638 150.283 327.236 150.881 326.388 155.525C325.881 158.301 325.615 161.115 325.595 163.937C325.595 163.937 327.515 157.832 328.849 157.633C330.184 157.435 330.206 159.403 329.083 161.128C327.96 162.853 325.787 165.928 325.445 167.528C325.445 167.528 327.576 162.923 329.56 164.293C331.544 165.662 327.899 168.481 326.27 169.505C324.641 170.529 323.579 176.798 323.579 176.798L322.734 176.571Z" fill="#81FFF7"/>
<path d="M330.278 173.941H316.768L317.862 183.608H329.184L330.278 173.941Z" fill="#385B5E"/>
<path d="M214.26 173.989C214.305 173.685 215.345 166.507 213.262 164.027C213.052 163.769 212.789 163.561 212.489 163.416C212.19 163.272 211.863 163.195 211.53 163.192C207.322 163.093 206.746 166.472 206.73 166.507L207.226 166.584C207.246 166.462 207.745 163.601 211.505 163.704C211.767 163.707 212.026 163.77 212.261 163.886C212.496 164.002 212.703 164.17 212.865 164.376C214.804 166.683 213.761 173.87 213.751 173.941L214.26 173.989Z" fill="#DAFFFD"/>
<path d="M214.513 173.662L215.015 173.646C215.015 173.582 214.849 167.032 218.074 165.678C221.239 164.353 222.66 167.077 222.721 167.195L223.169 166.968C223.169 166.936 221.482 163.707 217.882 165.217C214.337 166.712 214.506 173.377 214.513 173.662Z" fill="#DAFFFD"/>
<path d="M214.5 174.177C214.5 174.072 214.529 163.717 216.548 160.686C218.488 157.777 221.617 159.147 221.748 159.208L221.956 158.75C221.918 158.734 218.308 157.15 216.132 160.408C214.027 163.563 213.998 173.745 213.998 174.168L214.5 174.177Z" fill="#DAFFFD"/>
<path d="M210.928 163.425C210.928 163.425 212.765 164.101 212.208 165.701C211.652 167.301 205.863 169.931 205.863 169.931C205.863 169.931 203.431 167.691 205.664 164.075C207.898 160.459 210.877 162.28 210.928 163.425Z" fill="#DAFFFD"/>
<path d="M216.642 160.139C216.642 160.139 215.336 160.001 215.442 159.205C215.547 158.408 220.51 156.366 223.442 159.672C223.442 159.672 221.566 162.894 218.853 162.936C216.139 162.977 216.642 160.139 216.642 160.139Z" fill="#DAFFFD"/>
<path d="M217.979 165.448C217.979 165.448 217.08 164.721 218.049 164.366C219.019 164.011 223.787 164.113 223.838 168.846C223.838 168.846 218.286 169.768 217.598 167.969C216.91 166.171 217.979 165.448 217.979 165.448Z" fill="#DAFFFD"/>
<path d="M210.928 163.425C210.928 163.425 212.765 164.101 212.208 165.701C211.652 167.301 205.863 169.931 205.863 169.931C205.863 169.931 203.431 167.691 205.664 164.075C207.898 160.459 210.877 162.28 210.928 163.425Z" fill="#81FFF7"/>
<path d="M216.642 160.139C216.642 160.139 215.336 160.001 215.442 159.205C215.547 158.408 220.51 156.366 223.442 159.672C223.442 159.672 221.566 162.894 218.853 162.936C216.139 162.977 216.642 160.139 216.642 160.139Z" fill="#81FFF7"/>
<path d="M217.979 165.448C217.979 165.448 217.08 164.721 218.049 164.366C219.019 164.011 223.787 164.113 223.838 168.846C223.838 168.846 218.286 169.768 217.598 167.969C216.91 166.171 217.979 165.448 217.979 165.448Z" fill="#81FFF7"/>
<path d="M209.94 183.608H218.554L219.485 174.177H209.012L209.94 183.608Z" fill="#DAFFFD"/>
<path d="M209.94 183.608H218.554L219.485 174.177H209.012L209.94 183.608Z" fill="#385B5E"/>
<path d="M208.553 175.217H219.945V173.137H208.553V175.217Z" fill="#DAFFFD"/>
<path opacity="0.2" d="M208.553 175.217H219.945V173.137H208.553V175.217Z" fill="#DAFFFD"/>
<path d="M302.134 180.67H305.27C305.321 180.67 305.371 180.688 305.411 180.72C305.451 180.752 305.479 180.796 305.491 180.846L305.999 183.147C306.01 183.196 306.01 183.247 306.001 183.296C305.992 183.345 305.973 183.392 305.946 183.434C305.918 183.476 305.883 183.512 305.842 183.54C305.8 183.568 305.754 183.588 305.705 183.598H305.622C304.607 183.582 303.868 183.522 302.595 183.522C301.811 183.522 299.443 183.602 298.358 183.602C297.273 183.602 297.135 182.533 297.577 182.434C299.567 181.998 301.065 181.4 301.702 180.834C301.819 180.725 301.974 180.667 302.134 180.67Z" fill="#263238"/>
<path d="M288.84 180.587H291.976C292.028 180.587 292.078 180.605 292.118 180.638C292.158 180.67 292.186 180.716 292.197 180.766L292.706 183.064C292.726 183.163 292.706 183.265 292.651 183.35C292.596 183.434 292.51 183.494 292.411 183.515C292.384 183.52 292.356 183.52 292.328 183.515C291.314 183.515 290.575 183.438 289.301 183.438C288.514 183.438 286.149 183.521 285.064 183.521C283.979 183.521 283.839 182.449 284.283 182.35C286.274 181.918 287.768 181.317 288.408 180.75C288.526 180.642 288.68 180.583 288.84 180.587Z" fill="#263238"/>
<path d="M303.797 122.552H290.098C288.795 129.665 284.718 158.549 287.643 180.974H292.28C292.28 180.974 291.851 146.913 295.947 135.909C296.418 141.8 301.205 180.952 301.205 180.952H305.925C305.925 180.952 305.221 166.232 304.514 152.312C304.069 143.544 303.816 124.344 303.797 122.552Z" fill="#263238"/>
<path opacity="0.2" d="M295.945 135.902C295.273 137.833 294.762 139.815 294.415 141.829C294.031 136.587 295.564 131.029 295.564 131.029L295.945 135.902Z" fill="black"/>
<path d="M289.983 122.712H303.771V124.354L289.807 124.184L289.983 122.712Z" fill="#263238"/>
<path d="M299.339 121.973H298.846V124.888H299.339V121.973Z" fill="#81FFF7"/>
<path d="M292.362 121.973H291.869V124.888H292.362V121.973Z" fill="#81FFF7"/>
<path d="M296.267 122.424H293.717V124.261H296.267V122.424Z" fill="#81FFF7"/>
<path d="M303.816 122.974C304.181 115.128 306.488 104.024 306.488 104.024C300.088 102.481 291.489 102.869 291.489 102.869C289.813 108.859 289.845 118.526 289.992 122.974H303.816Z" fill="#263238"/>
<path opacity="0.2" d="M303.816 122.974C304.181 115.128 306.488 104.024 306.488 104.024C300.088 102.481 291.489 102.869 291.489 102.869C289.813 108.859 289.845 118.526 289.992 122.974H303.816Z" fill="#81FFF7"/>
<path d="M295.817 102.712L295.359 102.92C295.359 102.92 295.433 104.978 297.5 105.112C299.567 105.246 301.507 103.192 301.507 103.192L300.812 102.818L295.817 102.712Z" fill="#263238"/>
<path d="M300.515 102.366C299.504 103.198 297.955 104.363 297.5 104.216C297.12 104.091 296.46 103.336 295.936 102.667C296.216 102.588 296.467 102.429 296.659 102.209C296.822 101.869 296.867 101.484 296.787 101.115C296.696 100.408 296.543 99.7113 296.329 99.0318L296.252 98.7886L300.252 97.1438C300.252 97.1438 299.9 100.811 300.23 101.88C300.289 102.061 300.386 102.226 300.515 102.366Z" fill="#E4897B"/>
<path opacity="0.2" d="M299.624 99.3872C299.624 99.3872 298.847 102.824 296.789 101.115C296.694 100.409 296.54 99.7123 296.328 99.032L296.571 98.9424L299.624 99.3872Z" fill="black"/>
<path d="M294.003 91.5886C294.003 91.5886 292.617 94.3022 294.739 96.4974C296.317 98.1262 297.161 91.643 297.161 91.643L294.003 91.5886Z" fill="#263238"/>
<path d="M299.72 99.8511C299.271 100.371 298.665 100.729 297.993 100.871C297.321 101.012 296.622 100.929 296.001 100.635C295.191 100.271 294.55 99.6101 294.209 98.7887C294.161 98.6767 294.123 98.5583 294.085 98.4399C293.445 96.2351 293.585 92.5327 295.966 91.4191C296.491 91.1704 297.071 91.0602 297.65 91.0989C298.229 91.1376 298.789 91.324 299.276 91.6403C299.763 91.9566 300.161 92.3922 300.432 92.9058C300.703 93.4194 300.838 93.9938 300.824 94.5743C300.792 97.0575 300.897 98.5199 299.72 99.8511Z" fill="#E4897B"/>
<path d="M297.077 95.4606C297.103 95.6622 296.991 95.8318 296.856 95.8382C296.722 95.8446 296.61 95.6846 296.6 95.483C296.591 95.2814 296.69 95.1118 296.821 95.1054C296.952 95.099 297.067 95.2558 297.077 95.4606Z" fill="#263238"/>
<path d="M294.795 95.5793C294.817 95.7777 294.706 95.9505 294.574 95.9569C294.443 95.9633 294.325 95.8033 294.315 95.6017C294.305 95.4001 294.405 95.2305 294.536 95.2241C294.667 95.2177 294.782 95.3873 294.795 95.5793Z" fill="#263238"/>
<path d="M295.525 95.6399C295.317 96.2709 295.022 96.8697 294.648 97.4191C294.792 97.5108 294.954 97.57 295.124 97.5927C295.293 97.6153 295.465 97.6009 295.628 97.5503L295.525 95.6399Z" fill="#DE5753"/>
<path d="M293.898 94.6447C293.917 94.655 293.938 94.6605 293.96 94.6605C293.982 94.6605 294.003 94.655 294.022 94.6447C294.142 94.5569 294.281 94.4982 294.428 94.4732C294.574 94.4482 294.725 94.4576 294.867 94.5007C294.882 94.5087 294.898 94.5135 294.914 94.5149C294.931 94.5163 294.948 94.5141 294.963 94.5086C294.979 94.503 294.994 94.4942 295.006 94.4828C295.018 94.4713 295.027 94.4574 295.034 94.442C295.04 94.4266 295.043 94.41 295.042 94.3933C295.042 94.3767 295.038 94.3603 295.031 94.3453C295.023 94.3303 295.013 94.317 295 94.3063C294.988 94.2956 294.973 94.2877 294.957 94.2831C294.778 94.2241 294.588 94.2087 294.402 94.2382C294.216 94.2677 294.04 94.3413 293.888 94.4527C293.862 94.4697 293.843 94.4964 293.837 94.527C293.83 94.5576 293.836 94.5895 293.853 94.6159C293.866 94.628 293.881 94.6377 293.898 94.6447Z" fill="#263238"/>
<path d="M297.48 94.5233C297.503 94.5229 297.526 94.5138 297.544 94.4977C297.553 94.4855 297.561 94.4715 297.565 94.4565C297.569 94.4416 297.57 94.4259 297.569 94.4105C297.567 94.395 297.562 94.3801 297.554 94.3665C297.547 94.3529 297.537 94.3409 297.525 94.3313C297.377 94.213 297.203 94.1319 297.018 94.0946C296.832 94.0572 296.641 94.0649 296.459 94.1169C296.444 94.1219 296.431 94.1298 296.419 94.1401C296.408 94.1505 296.398 94.163 296.392 94.1771C296.385 94.1911 296.381 94.2063 296.381 94.2218C296.38 94.2373 296.383 94.2528 296.389 94.2673C296.399 94.2964 296.421 94.3201 296.449 94.3332C296.477 94.3464 296.51 94.348 296.539 94.3377C296.683 94.3014 296.835 94.2993 296.98 94.3315C297.126 94.3637 297.262 94.4294 297.377 94.5233C297.393 94.5312 297.411 94.5353 297.429 94.5353C297.446 94.5353 297.464 94.5312 297.48 94.5233Z" fill="#263238"/>
<path d="M298.83 91.5728L298.699 92.6672C298.885 92.7545 299.031 92.909 299.108 93.0996C299.184 93.2902 299.186 93.5027 299.112 93.6944C298.763 94.616 299.291 96.0432 299.998 96.6096C299.998 96.6096 300.021 96.2128 300.357 96.2896C300.693 96.3664 300.61 98.4624 299.957 99.4544C299.957 99.4544 300.946 98.5552 301.499 96.3696C302.011 94.3504 302.478 94.2864 301.653 91.8896L298.83 91.5728Z" fill="#263238"/>
<path d="M301.999 96.552C301.755 97.1251 301.296 97.5792 300.719 97.816C299.948 98.136 299.478 97.4512 299.619 96.6768C299.75 95.992 300.307 94.984 301.116 95.0192C301.926 95.0544 302.281 95.8416 301.999 96.552Z" fill="#E4897B"/>
<path d="M295.816 98.1807C295.958 98.4629 296.078 98.7548 296.178 99.0543C296.236 99.0543 296.29 99.0543 296.344 99.0255C297.087 98.8975 297.388 98.5935 297.5 98.2959C297.548 98.1486 297.563 97.992 297.541 97.8383C297.531 97.7502 297.508 97.664 297.474 97.5823C297.051 97.8663 296.572 98.0551 296.069 98.1359C295.916 98.1679 295.816 98.1807 295.816 98.1807Z" fill="#263238"/>
<path d="M296.068 98.1359L296.184 98.3887C296.881 98.2671 297.358 98.0879 297.54 97.8383C297.53 97.7502 297.508 97.664 297.473 97.5823C297.05 97.8663 296.571 98.0551 296.068 98.1359Z" fill="#81FFF7"/>
<path d="M296.344 99.0255C297.086 98.8975 297.387 98.5935 297.499 98.2959C297.216 98.3527 296.946 98.4612 296.702 98.6159C296.543 98.7121 296.418 98.8552 296.344 99.0255Z" fill="#DE5753"/>
<path d="M294.6 91.0191C294.14 90.8275 293.709 90.5722 293.32 90.2607C293.02 89.9407 294.434 89.1919 295.429 88.9583C296.424 88.7247 298.309 88.3567 299.909 88.9583C301.509 89.5599 303.503 91.9247 303.368 92.2959C303.234 92.6671 296.072 92.0463 294.6 91.0191Z" fill="#81FFF7"/>
<path d="M293.83 91.6334L294.592 90.1198C294.592 90.1198 297.923 89.835 298.892 90.0558C299.862 90.2766 302.188 91.9758 302.188 91.9758L302.118 92.9774L293.83 91.6334Z" fill="#81FFF7"/>
<path opacity="0.2" d="M293.83 91.6334L294.592 90.1198C294.592 90.1198 297.923 89.835 298.892 90.0558C299.862 90.2766 302.188 91.9758 302.188 91.9758L302.118 92.9774L293.83 91.6334Z" fill="black"/>
<path d="M293.618 92.8784C293.618 92.8784 298.418 92.2384 302.098 94.0688C302.098 94.0688 302.479 93.1088 302.248 92.6768C302.156 92.5072 300.114 91.2176 296.808 91.144C293.503 91.0704 293.634 91.368 293.532 91.5728C293.429 91.7776 293.288 92.744 293.618 92.8784Z" fill="#81FFF7"/>
<path d="M298.209 91.1919C298.209 91.1919 298.209 92.7503 298.142 92.9327C298.075 93.1151 298.222 93.1503 298.34 92.8847C298.459 92.6191 298.66 91.0287 298.209 91.1919Z" fill="#81FFF7"/>
<path d="M294.732 91.1631C294.732 91.1631 294.447 92.6863 294.431 92.8047C294.415 92.9231 294.265 92.9327 294.198 92.8047C294.131 92.6767 294.214 90.8175 294.732 91.1631Z" fill="#81FFF7"/>
<path d="M301.481 92.1935C301.654 92.2831 301.43 93.7647 301.299 93.7135C301.168 93.6623 301.44 93.9343 301.545 93.8159C301.698 93.3466 301.761 92.8526 301.731 92.3599C301.664 92.1103 301.481 92.1935 301.481 92.1935Z" fill="#81FFF7"/>
<path opacity="0.2" d="M298.209 91.1919C298.209 91.1919 298.209 92.7503 298.142 92.9327C298.075 93.1151 298.222 93.1503 298.34 92.8847C298.459 92.6191 298.66 91.0287 298.209 91.1919Z" fill="black"/>
<path opacity="0.2" d="M294.732 91.1631C294.732 91.1631 294.447 92.6863 294.431 92.8047C294.415 92.9231 294.265 92.9327 294.198 92.8047C294.131 92.6767 294.214 90.8175 294.732 91.1631Z" fill="black"/>
<path opacity="0.2" d="M301.481 92.1935C301.654 92.2831 301.43 93.7647 301.299 93.7135C301.168 93.6623 301.44 93.9343 301.545 93.8159C301.698 93.3466 301.761 92.8526 301.731 92.3599C301.664 92.1103 301.481 92.1935 301.481 92.1935Z" fill="black"/>
<path d="M296.84 99.739C297.018 99.8003 297.211 99.8074 297.394 99.7596C297.576 99.7118 297.741 99.6111 297.867 99.4702C298.273 98.9806 298.008 98.6606 298.008 98.6606C298.008 98.6606 298.92 99.2142 298.808 99.787C298.696 100.36 298.056 100.926 296.683 100.942C295.31 100.958 295.816 99.5822 295.816 99.5822C295.816 99.5822 295.848 100.027 296.068 100.072C296.289 100.117 296.84 99.739 296.84 99.739Z" fill="#263238"/>
<path d="M295.816 102.712L296.344 101.598C296.344 101.598 297.077 102.558 297.276 102.83C297.428 103.131 297.529 103.456 297.573 103.79C297.573 103.79 297.858 103.016 298.309 102.83C298.76 102.645 300.636 101.598 300.636 101.598L301.08 102.83C301.08 102.83 298.952 104.43 297.5 104.219C297.098 104.171 296.721 104.001 296.42 103.731C296.119 103.462 295.908 103.106 295.816 102.712Z" fill="#81FFF7"/>
<path opacity="0.6" d="M295.816 102.712L296.344 101.598C296.344 101.598 297.077 102.558 297.276 102.83C297.428 103.131 297.529 103.456 297.573 103.79C297.573 103.79 297.858 103.016 298.309 102.83C298.76 102.645 300.636 101.598 300.636 101.598L301.08 102.83C301.08 102.83 298.952 104.43 297.5 104.219C297.098 104.171 296.721 104.001 296.42 103.731C296.119 103.462 295.908 103.106 295.816 102.712Z" fill="#81FFF7"/>
<path d="M298.44 112.587L296.335 112.142L295.925 109.381C295.925 109.381 294.523 110.264 294.523 110.581C294.523 110.898 294.984 113.461 294.984 113.461H295.925L298.2 114.027L298.44 112.587Z" fill="#E4897B"/>
<path d="M291.4 112.04L293.544 111.848L294.28 109.154C294.28 109.154 295.56 110.197 295.528 110.514C295.496 110.83 294.725 113.333 294.725 113.333L293.788 113.221L291.464 113.512L291.4 112.04Z" fill="#E4897B"/>
<path d="M306.487 104.024C307.895 104.75 308.557 114.619 306.487 115.544C304.417 116.469 296.596 114.059 296.596 114.059L296.89 111.982C296.89 111.982 303.671 113.211 304.25 112.846C305.319 112.158 304.964 108.869 304.964 108.869C305.028 107.934 305.177 107.008 305.409 106.101C305.674 105.364 306.037 104.665 306.487 104.024Z" fill="#263238"/>
<path d="M291.49 102.869C290.121 103.099 286.335 112.469 286.87 114.043C287.404 115.617 292.751 113.835 292.751 113.835V111.646C292.751 111.646 289.964 111.966 289.785 111.777C289.606 111.589 290.252 110.581 290.252 110.581C290.252 110.581 291.033 107.553 291.401 105.819C291.626 104.851 291.657 103.848 291.49 102.869Z" fill="#263238"/>
<path d="M251.621 177.035L255.461 176.318V179.041C255.461 179.041 257.423 182.293 258.267 182.517C258.499 182.576 258.697 182.724 258.822 182.927C258.947 183.131 258.988 183.375 258.936 183.608H254.696L253.669 182.392L253.448 183.617H252.635C252.635 183.617 251.778 181.144 252.635 179.406L251.621 177.035Z" fill="#263238"/>
<path d="M238.109 176.699L241.949 176.993L241.61 179.041C241.61 179.041 243.572 182.293 244.417 182.517C244.648 182.576 244.847 182.724 244.971 182.927C245.096 183.131 245.137 183.375 245.085 183.608H240.839L239.818 182.392L239.597 183.617H238.785C238.785 183.617 237.927 181.144 238.785 179.406L238.109 176.699Z" fill="#263238"/>
<path opacity="0.2" d="M251.621 177.035L255.461 176.318V179.041C255.461 179.041 257.423 182.293 258.267 182.517C258.499 182.576 258.697 182.724 258.822 182.927C258.947 183.131 258.988 183.375 258.936 183.608H254.696L253.669 182.392L253.448 183.617H252.635C252.635 183.617 251.778 181.144 252.635 179.406L251.621 177.035Z" fill="#81FFF7"/>
<path opacity="0.2" d="M238.109 176.699L241.949 176.993L241.61 179.041C241.61 179.041 243.572 182.293 244.417 182.517C244.648 182.576 244.847 182.724 244.971 182.927C245.096 183.131 245.137 183.375 245.085 183.608H240.839L239.818 182.392L239.597 183.617H238.785C238.785 183.617 237.927 181.144 238.785 179.406L238.109 176.699Z" fill="#81FFF7"/>
<path d="M245.742 110.354C247.022 110.747 249.413 117.845 248.942 119.586C248.472 121.326 246.542 118.469 245.742 116.331C244.942 114.194 245.742 110.354 245.742 110.354Z" fill="#81FFF7"/>
<path opacity="0.4" d="M245.742 110.354C247.022 110.747 249.413 117.845 248.942 119.586C248.472 121.326 246.542 118.469 245.742 116.331C244.942 114.194 245.742 110.354 245.742 110.354Z" fill="black"/>
<path d="M233.479 112.395C233.479 112.395 231.815 119.345 233.527 121.713C235.239 124.081 235.876 113.95 235.876 113.95L233.479 112.395Z" fill="#81FFF7"/>
<path opacity="0.4" d="M233.479 112.395C233.479 112.395 231.815 119.345 233.527 121.713C235.239 124.081 235.876 113.95 235.876 113.95L233.479 112.395Z" fill="black"/>
<path d="M233.537 111.755C233.537 111.755 235.844 116.43 236.12 126.03L245.979 125.179C245.979 125.179 246.968 115.195 245.742 110.354C245.742 110.354 237.358 110.93 234.344 111.589C234.062 111.653 233.8 111.71 233.537 111.755Z" fill="#81FFF7"/>
<path opacity="0.4" d="M246.204 122.155C246.101 123.957 245.98 125.179 245.98 125.179L236.12 126.03C236.099 125.264 236.065 124.533 236.018 123.835C235.893 121.915 235.698 120.245 235.455 118.795C235.394 118.418 235.33 118.062 235.263 117.717C235.237 117.592 235.215 117.47 235.189 117.349C235.151 117.147 235.109 116.949 235.068 116.757L235.042 116.638C234.975 116.318 234.901 115.998 234.831 115.704C234.776 115.493 234.725 115.294 234.674 115.102C234.645 115.006 234.623 114.917 234.6 114.827C234.599 114.809 234.599 114.791 234.6 114.773C234.546 114.581 234.495 114.398 234.44 114.226C234.386 114.053 234.316 113.81 234.255 113.618C234.194 113.426 234.127 113.23 234.069 113.061L234.008 112.894C233.97 112.786 233.935 112.683 233.9 112.594C233.685 112.034 233.551 111.758 233.551 111.758C233.804 111.71 234.076 111.653 234.36 111.589C237.372 110.93 245.752 110.354 245.752 110.354C245.839 110.674 245.912 111.048 245.976 111.426C245.996 111.531 246.012 111.64 246.031 111.746C246.133 112.424 246.21 113.157 246.261 113.925C246.28 114.178 246.293 114.43 246.306 114.686L246.325 115.093C246.325 115.227 246.325 115.362 246.325 115.502C246.325 115.771 246.332 116.043 246.344 116.318C246.344 116.562 246.344 116.805 246.344 117.045C246.36 118.898 246.28 120.712 246.204 122.155Z" fill="black"/>
<path opacity="0.2" d="M246.204 122.155C244.738 121.141 243.602 119.202 243.602 119.202C243.053 119.453 242.456 119.584 241.852 119.586C241.246 119.584 240.643 119.521 240.05 119.397C240.05 119.397 237.836 122.715 236.018 123.835C235.893 121.915 235.698 120.245 235.455 118.795C235.394 118.418 235.33 118.062 235.263 117.717C235.237 117.592 235.215 117.47 235.189 117.349C235.151 117.147 235.109 116.949 235.068 116.757L235.042 116.638C234.972 116.318 234.898 115.998 234.831 115.704C234.776 115.493 234.725 115.294 234.674 115.102C234.645 115.006 234.623 114.917 234.6 114.827C234.599 114.809 234.599 114.791 234.6 114.773C234.546 114.581 234.495 114.398 234.44 114.226C234.386 114.053 234.316 113.806 234.255 113.618C234.194 113.429 234.127 113.23 234.069 113.061L234.008 112.894C233.97 112.786 233.935 112.683 233.9 112.594C233.685 112.034 233.551 111.758 233.551 111.758C233.804 111.71 234.076 111.653 234.36 111.589C237.372 110.93 245.752 110.354 245.752 110.354C245.839 110.674 245.912 111.048 245.976 111.426C245.996 111.531 246.012 111.64 246.031 111.746C246.133 112.424 246.21 113.157 246.261 113.925C246.28 114.178 246.293 114.43 246.306 114.686L246.325 115.093C246.325 115.227 246.325 115.362 246.325 115.502C246.325 115.771 246.332 116.043 246.344 116.318C246.344 116.562 246.344 116.805 246.344 117.045C246.36 118.898 246.28 120.712 246.204 122.155Z" fill="black"/>
<path d="M237.937 111.221C237.77 111.312 237.645 111.465 237.588 111.646H242.177C242.138 111.288 241.914 110.965 241.345 110.769C241.24 110.736 241.133 110.711 241.025 110.693C240.769 110.555 240.423 110.177 240.257 109.141C240.194 108.732 240.161 108.319 240.158 107.905L237.182 107.87C237.182 107.87 238.506 109.637 237.937 111.221Z" fill="#EEC1BB"/>
<path opacity="0.2" d="M240.162 107.905C240.164 108.319 240.198 108.732 240.261 109.141C238.312 109.461 237.186 107.861 237.186 107.861L240.162 107.905Z" fill="black"/>
<path d="M238.664 98.7439C240.334 99.2783 242.241 99.3455 242.622 102.481C242.622 102.481 244.67 108.677 244.667 110.049C244.667 110.049 245.675 109.918 246.104 110.184C246.881 110.664 247.88 113.384 247.88 113.384C247.88 113.384 246.078 117.963 242.648 119C239.217 120.037 232.52 114.872 232.52 114.872C232.52 114.872 232.894 110.859 233.547 110.347C234.018 110.037 234.589 109.913 235.147 110.001C234.954 109.768 234.835 109.481 234.808 109.179C234.808 108.782 235.448 106.773 234.987 104.651C234.526 102.529 238.664 98.7439 238.664 98.7439Z" fill="#81FFF7"/>
<path d="M238.882 99.7549C241.413 99.5053 242.364 100.779 242.809 103.371C243.365 106.613 242.873 109 239.634 108.619C235.241 108.097 234.674 100.174 238.882 99.7549Z" fill="#EEC1BB"/>
<path d="M241.16 103.393C241.4 103.752 241.683 104.079 242.002 104.369C241.938 104.482 241.845 104.574 241.732 104.637C241.619 104.7 241.491 104.73 241.362 104.725L241.16 103.393Z" fill="#D4827D"/>
<path d="M239.585 103.352C239.61 103.56 239.521 103.742 239.38 103.758C239.239 103.774 239.108 103.621 239.086 103.413C239.063 103.205 239.15 103.025 239.287 103.006C239.425 102.987 239.559 103.131 239.585 103.352Z" fill="#263238"/>
<path d="M239.24 103.013L239.669 102.779C239.669 102.779 239.483 103.185 239.24 103.013Z" fill="#263238"/>
<path d="M242.161 102.981C242.187 103.185 242.094 103.368 241.956 103.387C241.819 103.406 241.684 103.249 241.659 103.041C241.633 102.833 241.726 102.651 241.863 102.635C242.001 102.619 242.135 102.773 242.161 102.981Z" fill="#263238"/>
<path d="M241.801 102.651L242.23 102.417C242.23 102.417 242.06 102.827 241.801 102.651Z" fill="#263238"/>
<path d="M238.325 102.193C238.306 102.198 238.287 102.198 238.268 102.193C238.255 102.186 238.245 102.175 238.236 102.163C238.228 102.151 238.222 102.138 238.219 102.123C238.216 102.109 238.216 102.094 238.219 102.08C238.222 102.066 238.228 102.052 238.236 102.04C238.372 101.865 238.548 101.725 238.749 101.631C238.949 101.537 239.169 101.492 239.391 101.499C239.405 101.499 239.419 101.503 239.432 101.509C239.445 101.514 239.457 101.523 239.467 101.533C239.477 101.544 239.484 101.556 239.49 101.569C239.495 101.582 239.497 101.597 239.497 101.611C239.497 101.64 239.485 101.668 239.465 101.688C239.444 101.708 239.417 101.72 239.388 101.72C239.205 101.716 239.023 101.754 238.857 101.831C238.691 101.907 238.544 102.02 238.428 102.161C238.415 102.175 238.399 102.185 238.381 102.191C238.363 102.197 238.344 102.197 238.325 102.193Z" fill="#263238"/>
<path d="M242.249 101.521C242.232 101.524 242.214 101.524 242.197 101.521C242.06 101.434 241.905 101.38 241.744 101.361C241.583 101.343 241.419 101.362 241.266 101.416C241.24 101.427 241.21 101.428 241.183 101.419C241.155 101.409 241.133 101.39 241.119 101.365C241.112 101.352 241.109 101.337 241.108 101.323C241.107 101.308 241.109 101.294 241.113 101.28C241.118 101.266 241.126 101.254 241.135 101.243C241.145 101.232 241.157 101.223 241.17 101.217C241.354 101.147 241.552 101.121 241.748 101.14C241.944 101.159 242.132 101.222 242.3 101.326C242.325 101.34 242.344 101.364 242.353 101.392C242.361 101.42 242.358 101.451 242.345 101.477C242.333 101.491 242.319 101.503 242.302 101.511C242.285 101.519 242.267 101.522 242.249 101.521Z" fill="#263238"/>
<path d="M237 104.795C236.947 104.508 236.783 104.253 236.543 104.085C236.304 103.917 236.009 103.849 235.72 103.896C234.943 104.059 234.728 105.71 236.719 105.902C237 105.931 237.122 105.64 237 104.795Z" fill="#EEC1BB"/>
<path d="M241.48 105.675C241.253 105.998 241.05 106.337 240.872 106.689C240.805 106.672 240.738 106.65 240.673 106.625C239.774 106.334 239.457 105.899 239.374 105.509C239.338 105.317 239.349 105.119 239.406 104.933C239.436 104.826 239.479 104.724 239.534 104.629C239.915 105.07 240.731 105.409 241.176 105.573C241.371 105.64 241.48 105.675 241.48 105.675Z" fill="#263238"/>
<path d="M241.186 105.573L240.997 105.867C240.152 105.585 239.595 105.275 239.416 104.933C239.445 104.826 239.488 104.724 239.544 104.629C239.925 105.07 240.741 105.409 241.186 105.573Z" fill="#81FFF7"/>
<path d="M240.684 106.625C239.785 106.334 239.468 105.899 239.385 105.509C239.724 105.627 240.039 105.805 240.316 106.033C240.497 106.188 240.626 106.395 240.684 106.625Z" fill="#DE5753"/>
<path d="M236.889 103.326C236.889 103.326 238.031 99.6558 240.249 99.8062C242.466 99.9566 242.623 102.497 242.623 102.497C242.623 102.497 243.289 98.2862 237.89 98.3374C232.492 98.3886 235.474 106.337 235.474 106.337C235.474 106.337 238.005 109.339 241.189 108.577C241.189 108.552 237.919 108.881 236.889 103.326Z" fill="#81FFF7"/>
<path d="M238.459 116.241L240.305 115.281C240.305 115.281 240.75 112.894 240.907 112.581C241.064 112.267 241.547 113.15 241.777 113.377C242.008 113.605 241.659 115.758 241.518 115.995C241.377 116.232 240.744 115.995 240.744 115.995L239.013 117.227L238.459 116.241Z" fill="#EEC1BB"/>
<path d="M244.924 116.241L243.077 115.281C243.077 115.281 242.636 112.894 242.479 112.581C242.322 112.267 241.839 113.15 241.608 113.377C241.378 113.605 241.724 115.758 241.868 115.995C242.012 116.232 242.639 115.995 242.639 115.995L244.37 117.227L244.924 116.241Z" fill="#EEC1BB"/>
<path d="M232.763 119.477C232.475 127.448 241.083 118.197 241.083 118.197L239.32 115.294C239.32 115.294 232.84 117.432 232.763 119.477Z" fill="#81FFF7"/>
<path opacity="0.4" d="M232.763 119.477C232.475 127.448 241.083 118.197 241.083 118.197L239.32 115.294C239.32 115.294 232.84 117.432 232.763 119.477Z" fill="black"/>
<path d="M244.222 115.528L243.23 118.494C243.23 118.494 246.622 121.409 247.896 121.541C249.17 121.672 250.546 117.71 244.222 115.528Z" fill="#81FFF7"/>
<path opacity="0.4" d="M244.222 115.528L243.23 118.494C243.23 118.494 246.622 121.409 247.896 121.541C249.17 121.672 250.546 117.71 244.222 115.528Z" fill="black"/>
<path d="M236.131 124.933C236.131 124.933 231.692 138.693 235.052 178.126L258.943 176.699C258.943 176.699 254.281 144.481 246.06 124.26L236.131 124.933Z" fill="#263238"/>
<path d="M266.133 134.766H258.341L257.711 135.528L271.081 144.686H272.105H272.821H280.613L266.133 134.766Z" fill="#263238"/>
<path d="M282.581 134.766H274.785L260.309 144.686H268.101H269.841L283.208 135.528L282.581 134.766Z" fill="#263238"/>
<path opacity="0.2" d="M275.417 135.528L274.786 134.766L266.565 140.398L258.341 134.766L257.711 135.528L265.695 140.997L260.309 144.686H262.05L266.565 141.592L271.081 144.686H272.821L267.436 140.997L275.417 135.528Z" fill="#DAFFFD"/>
<path d="M260.18 134.993H267.293C267.293 134.993 269.613 135.195 270.733 136.593L267.293 139.4L260.18 134.993Z" fill="#DAFFFD"/>
<path opacity="0.5" d="M260.18 134.993H267.293C267.293 134.993 269.613 135.195 270.733 136.593L267.293 139.4L260.18 134.993Z" fill="#DAFFFD"/>
<path d="M260.18 134.994L267.354 139.858L274.394 135.006C274.394 135.006 272.432 134.766 270.925 135.554C269.505 136.268 268.309 137.358 267.466 138.706C266.694 137.492 265.611 136.508 264.329 135.856C263.048 135.203 261.615 134.905 260.18 134.994Z" fill="#DAFFFD"/>
<path opacity="0.7" d="M260.18 134.994L267.354 139.858L274.394 135.006C274.394 135.006 272.432 134.766 270.925 135.554C269.505 136.268 268.309 137.358 267.466 138.706C266.694 137.492 265.611 136.508 264.329 135.856C263.048 135.203 261.615 134.905 260.18 134.994Z" fill="#DAFFFD"/>
<path d="M299.137 144.782V183.528H297.32V148.257H276.699V183.528H274.881V148.257H267.851V183.528H266.03V148.257H245.413V183.528H243.592V144.782H299.137Z" fill="#DAFFFD"/>
<path opacity="0.4" d="M299.137 144.782V183.528H297.32V148.257H276.699V183.528H274.881V148.257H267.851V183.528H266.03V148.257H245.413V183.528H243.592V144.782H299.137Z" fill="#DAFFFD"/>
<path opacity="0.3" d="M274.856 144.782V148.257H267.851H266.03H245.413V183.528H243.592V144.782H274.856Z" fill="#DAFFFD"/>
</g>
<defs>
<linearGradient id="paint0_linear_552_26877" x1="0" y1="0" x2="350" y2="200" gradientUnits="userSpaceOnUse">
<stop stop-color="#30B7AF"/>
<stop offset="0.9999" stop-color="#1E9992"/>
<stop offset="1" stop-color="#30BCB4"/>
</linearGradient>
<clipPath id="clip0_552_26877">
<rect width="350" height="200" rx="20" fill="white"/>
</clipPath>
</defs>
</svg>
