<svg width="350" height="200" viewBox="0 0 350 200" fill="none" xmlns="http://www.w3.org/2000/svg">
<g clip-path="url(#clip0_552_27545)">
<rect width="350" height="200" rx="20" fill="url(#paint0_linear_552_27545)"/>
<path opacity="0.5" d="M279.5 235C339.975 235 389 217.763 389 196.5C389 175.237 339.975 158 279.5 158C219.025 158 170 175.237 170 196.5C170 217.763 219.025 235 279.5 235Z" fill="#F0F0F0"/>
<path d="M337.014 164.359L319.144 164.27L301.274 164.242L265.534 164.182L229.794 164.239L211.924 164.27L194.054 164.359L211.924 164.443L229.794 164.475L265.534 164.535L301.274 164.475L319.144 164.443L337.014 164.359Z" fill="#263238"/>
<path d="M336.91 164.352C336.655 158.39 336.722 152.419 337.111 146.464C337.983 132.232 339.839 113.434 338.117 109.485C336.924 106.74 332.298 102.982 331.899 102.279C331.112 100.903 328.448 92.9739 327.16 91.3401C324.986 88.5911 315.162 88.6511 313.585 90.6343C310.674 94.3714 310.084 100.917 308.916 102.184C307.748 103.451 298.997 106.874 297.814 110.113C296.632 113.353 301.576 120.686 301.64 122.683C301.703 124.68 292.26 147.11 291.939 152.085C291.618 157.061 296.569 164.225 296.569 164.225L336.91 164.352Z" fill="#A6A6A6"/>
<path d="M296.57 164.228H298.902H298.927C298.927 164.228 295.881 156.793 295.881 153.151C295.881 149.509 304.622 126.519 304.576 122.736C304.531 118.953 299.057 114.076 299.481 110.886C299.904 107.696 308.176 104.771 309.841 103.123C311.507 101.475 312.707 91.9682 314.189 90.8072C315.671 89.6462 324.024 89.7062 325.481 92.2187C326.939 94.7313 328.163 101.468 329.363 104.047C330.563 106.627 335.923 108.335 336.11 112.594C336.297 116.854 326.229 144.523 327.606 151.369C328.982 158.215 331.639 162.397 333.029 164.341H333.876C333.876 164.341 329.913 154.661 329.822 150.508C329.744 147.194 336.085 129.688 338.644 122.736C338.933 116.384 338.908 111.327 338.104 109.485C336.911 106.743 332.288 102.989 331.883 102.286C331.099 100.907 328.435 92.9739 327.143 91.3471C324.97 88.5946 315.145 88.6546 313.571 90.6413C310.66 94.3784 310.071 100.924 308.899 102.191C307.728 103.458 298.983 106.881 297.801 110.12C296.619 113.36 301.581 120.686 301.637 122.683C301.693 124.68 292.261 147.11 291.94 152.085C291.619 157.061 296.57 164.228 296.57 164.228Z" fill="white"/>
<path d="M322.325 93.7997C323.698 94.5373 325.413 101.736 324.442 102.135C323.472 102.534 321.266 102.237 320.765 101.334C320.264 100.43 320.903 93.0305 322.325 93.7997Z" fill="#EBEBEB"/>
<path d="M316.111 93.1609C314.738 93.902 313.023 101.097 313.994 101.5C314.964 101.902 317.17 101.598 317.671 100.699C318.172 99.7987 317.533 92.3987 316.111 93.1609Z" fill="#EBEBEB"/>
<path d="M273.212 171.639H301.527C303.944 171.639 300.447 164.761 291.646 162.111C282.846 159.461 270.431 169.059 273.212 171.639Z" fill="#37474F"/>
<path d="M284.316 171.639C284.282 170.857 284.145 170.083 283.907 169.338C283.676 168.587 283.355 167.866 282.951 167.192C282.549 166.512 282.046 165.896 281.458 165.368C280.877 164.839 280.21 164.415 279.485 164.112C279.644 164.228 279.803 164.338 279.965 164.447L280.202 164.609L280.424 164.796L280.865 165.149L281.271 165.555C281.798 166.103 282.261 166.709 282.651 167.362C283.042 168.017 283.377 168.704 283.653 169.416C283.792 169.775 283.915 170.139 284.024 170.506C284.143 170.884 284.235 171.261 284.316 171.639Z" fill="#263238"/>
<path d="M280.963 165.096C279.291 165.659 277.709 166.458 276.262 167.468C275.532 167.969 274.869 168.562 274.29 169.232C274.005 169.576 273.759 169.95 273.556 170.347C273.355 170.746 273.236 171.18 273.203 171.625C273.296 171.2 273.465 170.796 273.701 170.432C273.925 170.064 274.189 169.722 274.487 169.412C275.089 168.792 275.749 168.233 276.46 167.743C277.166 167.235 277.907 166.783 278.655 166.331C279.029 166.109 279.41 165.897 279.795 165.689C280.179 165.481 280.575 165.297 280.963 165.096Z" fill="#263238"/>
<path d="M300.768 89.2793C306.273 92.6211 309.301 99.5729 309.301 99.5729C309.301 99.5729 315.328 105.865 315.095 110.121C315.052 111.322 314.718 112.496 314.123 113.54C313.527 114.585 312.688 115.47 311.676 116.12L311.566 113.819C311.566 113.819 310.822 116.995 306.333 119.281C301.844 121.568 295.189 121.625 291.512 120.76C289.332 120.258 287.32 119.199 285.672 117.686L287.672 120.584C287.672 120.584 283.007 121.54 279.073 117.284C275.138 113.028 281.313 104.051 281.617 102.368C281.92 100.684 280.082 89.3781 292.221 88.4676C292.218 88.4782 296.981 86.9855 300.768 89.2793Z" fill="#263238"/>
<path d="M313.296 115.435C314.464 114.493 315.233 112.887 315.597 111.454C316.005 109.952 315.897 108.357 315.29 106.923C314.531 105.201 313.201 103.85 311.905 102.527C310.61 101.203 309.128 99.887 307.816 98.4966C307.741 98.419 307.858 98.3131 307.939 98.3696C309.272 99.329 310.548 100.365 311.761 101.471C312.969 102.462 314.056 103.592 315 104.838C315.877 105.984 316.407 107.356 316.528 108.794C316.572 109.975 316.33 111.149 315.822 112.217C315.223 113.494 314.295 114.447 313.405 115.516C313.324 115.583 313.229 115.488 313.296 115.435Z" fill="#263238"/>
<path d="M276.86 112.471C277.27 108.046 280.318 104.566 281.691 100.473C282.436 98.2495 282.856 95.8852 284.027 93.8314C284.059 93.7785 284.154 93.8314 284.123 93.8879C283.194 95.7087 282.887 97.7025 282.358 99.6575C281.779 101.612 281.006 103.503 280.05 105.304C278.409 108.642 276.43 112.591 277.901 116.349C278.579 118.082 280.117 119.811 282.093 119.927C282.168 119.927 282.153 120.058 282.076 120.044C281.28 119.928 280.517 119.652 279.832 119.231C279.147 118.811 278.555 118.255 278.092 117.598C277.075 116.094 276.637 114.273 276.86 112.471Z" fill="#263238"/>
<path d="M276.955 113.628C276.455 112.11 276.438 110.474 276.905 108.945C277.392 107.435 278.43 106.179 279.492 105.028C280.716 103.702 282.033 102.407 282.587 100.646C282.611 100.572 282.721 100.617 282.7 100.688C281.842 103.585 279.33 105.445 277.953 108.039C276.379 111.006 277.248 114.567 279.4 116.998C280.765 118.471 282.457 119.602 284.341 120.298C284.347 120.298 284.353 120.3 284.358 120.305C284.363 120.31 284.365 120.316 284.365 120.322C284.365 120.329 284.363 120.335 284.358 120.34C284.353 120.344 284.347 120.347 284.341 120.347C281.112 119.186 278.006 116.995 276.955 113.628Z" fill="#263238"/>
<path d="M301.153 123.156C298.432 135.006 292.924 150.007 288.668 153.031C285.238 155.473 263.504 162.294 262.502 162.404C260.014 162.654 254.544 143.207 257.12 142.494C260.367 141.594 280.086 140.483 280.965 139.579C281.843 138.676 287.489 131.032 293.848 122.224C298.235 116.12 302.84 115.788 301.153 123.156Z" fill="#EB9481"/>
<path d="M268.072 160.735C267.744 160.904 263.068 163.254 260.178 164.09C258.022 164.715 251.769 166.349 250.844 164.045C250.213 162.471 253.777 161.077 256.275 160.036C257.592 159.489 259.215 158.109 258.827 157.262C258.149 155.784 254.758 157.262 252.531 158.564C248.219 161.07 242.478 165.576 239.827 163.392C238.836 162.562 239.99 161.059 241.68 159.584C238.938 161.303 236.009 162.714 234.869 161.839C234.217 161.341 234.185 160.657 234.548 159.877C233.701 160.152 232.953 160.099 232.431 159.549C231.542 158.614 231.976 157.237 232.95 155.826C232.782 155.808 232.622 155.75 232.481 155.657C232.341 155.565 232.224 155.44 232.142 155.293C230.254 152.414 239.704 144.149 242.972 143.373C252.588 141.09 262.818 141.922 262.818 141.922C266.611 144.939 268.079 160.727 268.072 160.735Z" fill="#EB9481"/>
<path d="M253.932 151.884C251.642 152.242 249.455 153.084 247.517 154.354C245.078 155.964 243.462 157.848 241.415 159.743C241.362 159.796 241.44 159.881 241.493 159.831C242.467 158.928 246.504 155.54 247.548 154.767C249.435 153.347 251.621 152.375 253.939 151.927C253.945 151.926 253.95 151.922 253.953 151.918C253.956 151.913 253.958 151.907 253.957 151.902C253.956 151.896 253.953 151.891 253.948 151.888C253.943 151.885 253.938 151.883 253.932 151.884Z" fill="#263238"/>
<path d="M252.122 147.801C249.596 148.507 247.005 149.192 244.659 150.388C242.093 151.697 240.071 153.829 238.109 155.882C236.921 157.115 235.763 158.374 234.633 159.658C234.584 159.711 234.658 159.796 234.707 159.743C236.712 157.626 238.78 155.566 240.911 153.564C242.88 151.697 245.198 150.237 247.732 149.269C249.179 148.719 250.665 148.278 252.15 147.858C252.179 147.858 252.168 147.794 252.122 147.801Z" fill="#263238"/>
<path d="M249.442 144.234C246.972 144.738 244.854 145.169 242.67 146.485C239.79 148.228 237.024 151.164 236.036 152.202C234.959 153.352 233.918 154.538 232.902 155.731C232.86 155.78 232.944 155.854 232.987 155.805C235.322 153.176 237.824 150.701 240.479 148.394C241.725 147.274 243.138 146.355 244.667 145.67C246.217 145.064 247.815 144.592 249.445 144.258L249.442 144.234Z" fill="#263238"/>
<path d="M281.097 137.836L297.683 137.13C297.683 137.13 300.697 128.908 301.805 121.603C302.913 114.299 296.691 116.924 290.533 124.779C284.376 132.635 281.097 137.836 281.097 137.836Z" fill="#37474F"/>
<path d="M291.495 164.479L292.5 147.639C292.5 147.639 287.969 142.628 288.971 138.111C289.48 135.817 297.296 118.396 298.062 117.679C301.142 114.81 306.337 115.954 308.472 117.566C320.283 126.494 328.607 145.652 332.605 164.5L291.495 164.479Z" fill="#FFDBDB"/>
<path d="M291.495 164.479L292.5 147.639C292.5 147.639 287.969 142.628 288.971 138.111C289.48 135.817 297.296 118.396 298.062 117.679C301.142 114.81 306.337 115.954 308.472 117.566C320.283 126.494 328.607 145.652 332.605 164.5L291.495 164.479Z" fill="#FFDBDB"/>
<path d="M292.5 147.639L291.495 164.479H332.605C328.611 145.645 320.286 126.487 308.472 117.545C308.01 117.205 307.507 116.924 306.976 116.709C304.456 115.65 300.56 115.329 298.062 117.658C297.296 118.364 289.48 135.796 288.975 138.09C287.969 142.628 292.5 147.639 292.5 147.639Z" fill="#FFDBDB"/>
<g opacity="0.1">
<path d="M298.87 117.041H307.646C307.428 116.923 307.205 116.817 306.976 116.723C306.543 116.541 306.097 116.39 305.642 116.271H300.515C299.933 116.448 299.379 116.707 298.87 117.041Z" fill="black"/>
<path d="M297.395 118.819H310.035C309.725 118.554 309.414 118.293 309.096 118.046H297.804C297.698 118.24 297.557 118.501 297.395 118.819Z" fill="black"/>
<path d="M296.512 120.594H311.969C311.704 120.329 311.432 120.072 311.161 119.821H296.887L296.512 120.594Z" fill="black"/>
<path d="M295.669 122.369H313.666C313.43 122.108 313.193 121.85 312.96 121.6H296.022L295.669 122.369Z" fill="black"/>
<path d="M294.847 124.144H315.205C314.993 123.883 314.778 123.629 314.559 123.375H295.2C295.087 123.625 294.967 123.883 294.847 124.144Z" fill="black"/>
<path d="M294.035 125.923H316.602L316.009 125.15H294.388L294.035 125.923Z" fill="black"/>
<path d="M293.241 127.698H317.879C317.699 127.436 317.526 127.179 317.335 126.925H293.586C293.47 127.182 293.354 127.44 293.241 127.698Z" fill="black"/>
<path d="M292.457 129.473H319.068C318.903 129.215 318.733 128.957 318.564 128.703H292.803C292.683 128.961 292.567 129.219 292.457 129.473Z" fill="black"/>
<path d="M291.686 131.248H320.178C320.022 130.99 319.864 130.732 319.705 130.478H292.021C291.905 130.736 291.795 130.993 291.686 131.248Z" fill="black"/>
<path d="M290.941 133.037H321.215C321.067 132.779 320.922 132.522 320.77 132.267H291.255C291.142 132.514 291.033 132.772 290.941 133.037Z" fill="black"/>
<path d="M290.185 134.801H322.191C322.05 134.54 321.913 134.282 321.771 134.028H290.506L290.185 134.801Z" fill="black"/>
<path d="M289.486 136.566H323.105C322.978 136.308 322.848 136.05 322.717 135.796H289.783C289.673 136.082 289.575 136.34 289.486 136.566Z" fill="black"/>
<path d="M288.93 138.351H323.975C323.855 138.094 323.731 137.836 323.622 137.582H289.145C289.085 137.753 289.035 137.928 288.993 138.104C288.958 138.185 288.94 138.27 288.93 138.351Z" fill="black"/>
<path d="M288.824 139.357C288.818 139.614 288.827 139.87 288.852 140.126H324.797L324.444 139.357H288.824Z" fill="black"/>
<path d="M289.018 141.132C289.071 141.393 289.138 141.651 289.219 141.905H325.566L325.235 141.132H289.018Z" fill="black"/>
<path d="M289.569 142.917C289.675 143.182 289.788 143.436 289.922 143.687H326.314C326.212 143.429 326.106 143.172 326 142.917H289.569Z" fill="black"/>
<path d="M290.429 144.682C290.58 144.954 290.732 145.211 290.887 145.451H327.016C326.917 145.194 326.818 144.939 326.716 144.682H290.429Z" fill="black"/>
<path d="M291.569 146.446C291.795 146.76 292 147.021 292.155 147.216H327.68C327.588 146.958 327.496 146.7 327.401 146.446H291.569Z" fill="black"/>
<path d="M292.42 149.008H328.318C328.227 148.747 328.138 148.489 328.043 148.235H292.465L292.42 149.008Z" fill="black"/>
<path d="M292.313 150.783H328.918C328.833 150.526 328.749 150.268 328.66 150.014H292.352L292.313 150.783Z" fill="black"/>
<path d="M292.208 152.558H329.486C329.409 152.301 329.328 152.043 329.243 151.789H292.254L292.208 152.558Z" fill="black"/>
<path d="M292.101 154.333H330.029C329.955 154.076 329.878 153.822 329.796 153.564H292.147L292.101 154.333Z" fill="black"/>
<path d="M291.999 156.112H330.541C330.47 155.854 330.4 155.596 330.322 155.339H292.041L291.999 156.112Z" fill="black"/>
<path d="M291.889 157.887H331.027C330.96 157.629 330.893 157.375 330.819 157.117H291.935L291.889 157.887Z" fill="black"/>
<path d="M291.783 159.662H331.486C331.426 159.404 331.359 159.15 331.292 158.892H291.829L291.783 159.662Z" fill="black"/>
<path d="M291.674 161.437H331.902C331.842 161.179 331.782 160.925 331.719 160.667H291.723L291.674 161.437Z" fill="black"/>
<path d="M291.569 163.215H332.33C332.274 162.958 332.217 162.7 332.157 162.443H291.614L291.569 163.215Z" fill="black"/>
<path d="M291.495 164.479H332.605C332.605 164.394 332.57 164.306 332.549 164.221H291.509L291.495 164.479Z" fill="black"/>
</g>
<path d="M303.128 115.541C305.771 115.894 305.676 117.429 304.085 120.209C302.493 122.99 300.115 124.144 298.855 124.144C297.955 124.144 296.198 122.087 296.635 119.821C297.217 116.804 300.185 115.167 303.128 115.541Z" fill="#37474F"/>
<path d="M296.328 118.099C296.328 118.099 297.355 123.107 298.957 123.107C301.943 123.107 304.603 117.46 304.586 116.677C304.586 116.479 302.899 111.994 301.586 108.511C300.743 106.271 300.048 104.446 300.048 104.446L293.124 111.864L296.11 117.672L296.328 118.099Z" fill="#EB9481"/>
<path d="M293.124 111.864L296.109 117.672C297.616 116.614 298.882 115.25 299.826 113.669C300.77 112.088 301.37 110.326 301.586 108.497C300.743 106.257 300.047 104.432 300.047 104.432L299.158 105.321L293.124 111.864Z" fill="#263238"/>
<path d="M280.36 106.833C279.852 104.21 281.306 101.722 283.608 101.276C285.91 100.831 288.187 102.596 288.695 105.219C289.203 107.842 287.749 110.33 285.447 110.776C283.146 111.222 280.868 109.456 280.36 106.833Z" fill="#FFDBDB"/>
<path d="M290.083 105.117C290.648 108.035 289.025 110.802 286.47 111.299C283.915 111.797 281.378 109.831 280.824 106.913C280.269 103.995 281.882 101.228 284.434 100.73C286.985 100.233 289.529 102.198 290.083 105.117Z" fill="#C7C7C7"/>
<path d="M281.839 104.926C283.755 116.218 290.742 116.356 293.177 115.943C295.389 115.562 302.874 113.995 302.137 102.555C301.399 91.1143 295.534 88.4395 290.431 89.0323C285.329 89.6251 279.923 93.6233 281.839 104.926Z" fill="#EB9481"/>
<path d="M283.106 102.841C283.369 102.867 283.633 102.878 283.897 102.872C284.173 102.924 284.459 102.882 284.709 102.752C284.78 102.697 284.83 102.619 284.852 102.532C284.875 102.444 284.868 102.352 284.832 102.269C284.737 102.116 284.602 101.991 284.442 101.908C284.281 101.824 284.102 101.786 283.922 101.796C283.556 101.758 283.188 101.858 282.891 102.075C282.826 102.128 282.778 102.2 282.752 102.28C282.727 102.361 282.725 102.447 282.748 102.528C282.771 102.609 282.817 102.682 282.881 102.738C282.944 102.793 283.023 102.829 283.106 102.841Z" fill="#263238"/>
<path d="M291.321 101.034C291.099 101.186 290.866 101.291 290.615 101.422C290.392 101.593 290.117 101.683 289.835 101.68C289.747 101.662 289.668 101.616 289.609 101.548C289.55 101.481 289.515 101.395 289.511 101.306C289.526 101.126 289.589 100.954 289.693 100.808C289.797 100.661 289.939 100.546 290.104 100.473C290.417 100.27 290.794 100.192 291.162 100.254C291.245 100.272 291.321 100.313 291.38 100.373C291.44 100.433 291.48 100.509 291.497 100.592C291.514 100.675 291.506 100.761 291.475 100.839C291.444 100.918 291.39 100.985 291.321 101.034Z" fill="#263238"/>
<path opacity="0.8" d="M290.866 103.589C292.327 103.151 293.093 106.108 291.738 106.511C290.383 106.913 289.642 103.956 290.866 103.589Z" fill="#EB9481"/>
<path d="M290.273 104.411C290.273 104.383 290.34 104.436 290.343 104.467C290.488 105.233 290.777 106.091 291.522 106.193C291.546 106.193 291.553 106.235 291.522 106.235C290.657 106.302 290.283 105.159 290.273 104.411Z" fill="#263238"/>
<path d="M290.777 103.465C291.984 103.112 292.615 105.544 291.5 105.879C290.385 106.214 289.768 103.769 290.777 103.465Z" fill="#263238"/>
<path d="M291.292 103.472C291.542 103.553 291.814 103.744 292.079 103.702C292.343 103.659 292.541 103.349 292.672 103.045C292.672 103.014 292.71 103.045 292.721 103.063C292.848 103.529 292.791 104.055 292.312 104.252C291.832 104.45 291.433 104.107 291.196 103.666C291.147 103.585 291.189 103.437 291.292 103.472Z" fill="#263238"/>
<path opacity="0.8" d="M284.8 104.714C286.077 104.496 286.497 107.52 285.311 107.721C284.126 107.922 283.727 104.898 284.8 104.714Z" fill="#EB9481"/>
<path d="M285.773 105.275C285.773 105.247 285.724 105.325 285.734 105.357C285.96 106.105 286.087 106.998 285.477 107.432C285.459 107.432 285.477 107.481 285.477 107.47C286.295 107.132 286.108 105.946 285.773 105.275Z" fill="#263238"/>
<path d="M284.892 104.665C283.653 104.898 284.207 107.358 285.354 107.135C286.501 106.913 285.93 104.471 284.892 104.665Z" fill="#263238"/>
<path d="M284.414 104.944C284.248 105.117 284.111 105.399 283.881 105.466C283.652 105.533 283.359 105.325 283.13 105.113C283.105 105.092 283.091 105.113 283.094 105.148C283.19 105.621 283.447 106.076 283.927 106.066C284.407 106.055 284.569 105.582 284.573 105.088C284.587 104.99 284.481 104.873 284.414 104.944Z" fill="#263238"/>
<path d="M291.726 110.283C291.603 110.512 291.497 110.809 291.236 110.915C290.956 110.996 290.663 111.017 290.375 110.975C290.369 110.974 290.363 110.975 290.358 110.978C290.353 110.981 290.349 110.986 290.346 110.992C290.344 110.997 290.343 111.003 290.345 111.009C290.346 111.015 290.349 111.02 290.354 111.024C290.504 111.135 290.682 111.203 290.868 111.223C291.054 111.243 291.242 111.213 291.412 111.137C291.551 111.05 291.662 110.924 291.73 110.775C291.799 110.625 291.822 110.459 291.797 110.297C291.807 110.248 291.744 110.251 291.726 110.283Z" fill="#263238"/>
<path d="M287.884 108.335C287.884 108.335 288.007 109.503 288.138 110.039C288.138 110.089 288.286 110.078 288.47 110.039C288.47 110.039 288.47 110.039 288.491 110.039C288.969 110.011 289.431 109.85 289.824 109.576C290.218 109.303 290.528 108.925 290.721 108.487C290.729 108.474 290.73 108.458 290.727 108.443C290.723 108.429 290.713 108.416 290.7 108.409C290.687 108.402 290.671 108.4 290.657 108.404C290.642 108.407 290.63 108.417 290.622 108.43C290.058 109.065 289.302 109.498 288.47 109.665C288.396 109.528 288.325 107.654 288.24 107.668C287.835 107.808 287.451 108.001 287.097 108.243C286.769 105.812 286.836 103.349 286.472 100.935C286.472 100.915 286.464 100.896 286.451 100.883C286.437 100.869 286.418 100.861 286.398 100.861C286.379 100.861 286.36 100.869 286.346 100.883C286.332 100.896 286.324 100.915 286.324 100.935C286.074 103.511 286.388 106.316 286.677 108.836C286.705 109.143 287.693 108.469 287.884 108.335Z" fill="#263238"/>
<path d="M288.751 109.665C289.12 109.996 289.567 110.226 290.05 110.332C290.315 110.38 290.588 110.346 290.833 110.233C291.366 109.983 291.285 109.464 291.098 109.044C290.999 108.821 290.872 108.611 290.721 108.42C290.214 109.034 289.524 109.47 288.751 109.665Z" fill="#263238"/>
<path d="M290.05 110.332C290.315 110.38 290.588 110.346 290.833 110.234C291.366 109.983 291.285 109.464 291.098 109.044C290.512 109.221 289.994 109.747 290.05 110.332Z" fill="#EB9481"/>
<path d="M301.724 101.602C300.51 101.895 296.406 99.5623 294.557 93.8386C294.557 93.8386 296.575 98.8672 297.193 99.5059C297.81 100.145 294.895 98.1896 293.339 93.5916C293.339 93.5916 291.335 96.2311 289.33 97.5156C287.326 98.8001 285.978 99.1883 285.773 99.0754C285.569 98.9624 288.483 96.9581 289.048 95.6947C289.048 95.6947 284.044 100.183 281.419 101.207C281.115 101.327 280.628 96.3193 283.956 92.3388C287.284 88.3583 292.923 88.0054 295.216 89.1629C295.216 89.1629 297.383 88.81 300.58 91.2061C303.777 93.6021 303.029 101.277 301.724 101.602Z" fill="#263238"/>
<path d="M300.468 103.748C300.468 103.748 301.988 99.6541 303.785 100.109C305.581 100.565 305.066 106.055 303.4 107.223C303.197 107.388 302.962 107.51 302.711 107.582C302.459 107.653 302.196 107.673 301.936 107.64C301.677 107.607 301.426 107.522 301.201 107.39C300.975 107.257 300.778 107.081 300.623 106.871L300.468 103.748Z" fill="#EB9481"/>
<path d="M303.616 101.662C303.619 101.66 303.622 101.659 303.626 101.659C303.629 101.659 303.632 101.659 303.636 101.66C303.639 101.661 303.642 101.663 303.645 101.665C303.647 101.667 303.65 101.669 303.651 101.673C303.653 101.676 303.654 101.679 303.654 101.682C303.655 101.686 303.654 101.689 303.653 101.692C303.652 101.696 303.651 101.699 303.648 101.701C303.646 101.704 303.644 101.706 303.641 101.708C302.483 102.569 302.113 103.945 301.961 105.314C302.222 104.736 302.667 104.337 303.436 104.626C303.475 104.626 303.457 104.704 303.436 104.704C303.19 104.691 302.946 104.755 302.738 104.887C302.529 105.018 302.366 105.21 302.271 105.438C302.111 105.819 301.993 106.217 301.919 106.623C301.89 106.754 301.664 106.747 301.675 106.602C301.673 106.592 301.673 106.581 301.675 106.571C301.209 104.93 301.88 102.29 303.616 101.662Z" fill="#263238"/>
<path d="M302.233 106.987C302.255 107.062 302.299 107.129 302.359 107.18C302.42 107.23 302.494 107.261 302.572 107.27C302.65 107.278 302.729 107.264 302.799 107.227C302.868 107.191 302.926 107.135 302.964 107.067C303.002 106.998 303.019 106.919 303.012 106.841C303.006 106.763 302.977 106.688 302.928 106.626C302.879 106.565 302.813 106.519 302.739 106.494C302.664 106.47 302.584 106.468 302.508 106.489C302.405 106.519 302.319 106.588 302.267 106.681C302.216 106.774 302.203 106.884 302.233 106.987Z" fill="#FFDBDB"/>
<path d="M303.138 106.006C303.147 106.038 303.162 106.068 303.182 106.095C303.202 106.121 303.228 106.143 303.257 106.159C303.285 106.176 303.317 106.186 303.35 106.19C303.383 106.194 303.417 106.192 303.449 106.182C303.483 106.176 303.516 106.162 303.546 106.142C303.575 106.122 303.599 106.097 303.618 106.067C303.637 106.037 303.649 106.003 303.654 105.968C303.659 105.933 303.656 105.898 303.647 105.864C303.637 105.83 303.62 105.798 303.598 105.771C303.575 105.744 303.548 105.721 303.516 105.706C303.484 105.69 303.45 105.681 303.415 105.679C303.379 105.677 303.344 105.683 303.311 105.695C303.279 105.704 303.25 105.72 303.224 105.74C303.198 105.76 303.176 105.786 303.16 105.815C303.144 105.844 303.134 105.875 303.13 105.908C303.126 105.941 303.129 105.974 303.138 106.006Z" fill="#FFDBDB"/>
<path d="M304.247 102.336L305.048 102.304C305.09 102.302 305.13 102.284 305.159 102.253C305.188 102.222 305.204 102.181 305.203 102.138C305.201 102.096 305.183 102.056 305.152 102.027C305.121 101.998 305.08 101.982 305.037 101.983L304.236 102.015C304.193 102.018 304.153 102.037 304.124 102.068C304.096 102.1 304.08 102.141 304.081 102.184C304.082 102.205 304.087 102.226 304.096 102.244C304.104 102.263 304.117 102.28 304.132 102.294C304.148 102.309 304.166 102.319 304.185 102.327C304.205 102.334 304.226 102.337 304.247 102.336Z" fill="#FFDBDB"/>
<path d="M304.208 101.807L304.999 101.662C305.02 101.658 305.039 101.65 305.057 101.639C305.074 101.627 305.09 101.612 305.101 101.595C305.113 101.578 305.122 101.558 305.126 101.537C305.13 101.517 305.13 101.495 305.126 101.475C305.123 101.454 305.115 101.434 305.104 101.416C305.092 101.398 305.077 101.383 305.06 101.371C305.042 101.359 305.023 101.351 305.002 101.347C304.981 101.343 304.96 101.343 304.939 101.348L304.152 101.493C304.11 101.501 304.074 101.525 304.049 101.56C304.025 101.595 304.015 101.638 304.021 101.68C304.025 101.7 304.033 101.72 304.045 101.738C304.056 101.755 304.071 101.77 304.088 101.782C304.106 101.794 304.125 101.802 304.146 101.806C304.167 101.811 304.188 101.811 304.208 101.807Z" fill="#FFDBDB"/>
<path d="M302.119 100.487C302.119 100.487 301.653 94.6572 299.497 91.7248C297.094 88.4571 289.207 87.2043 284.436 91.7989C284.436 91.7989 292.485 87.9948 297.253 92.3141C299.261 94.1314 300.214 100.924 300.214 100.924L302.119 100.487Z" fill="#C7C7C7"/>
<path d="M297.143 104.196C297.545 107.142 299.966 109.242 302.549 108.889C305.132 108.536 306.9 105.861 306.498 102.918C306.095 99.9751 303.675 97.8719 301.088 98.2248C298.501 98.5777 296.737 101.253 297.143 104.196Z" fill="#C7C7C7"/>
<path d="M298.482 103.843C298.835 106.489 301.022 108.377 303.344 108.06C305.666 107.742 307.254 105.339 306.873 102.692C306.492 100.046 304.336 98.1578 302.014 98.4754C299.692 98.793 298.122 101.196 298.482 103.843Z" fill="#FFDBDB"/>
<path d="M294.359 112.922L297.902 111.334L300.711 107.724L300.157 107.29L297.454 110.763L294.073 112.28L294.359 112.922Z" fill="#C7C7C7"/>
<path d="M294.734 112.347C294.381 111.317 291.466 111.744 292.017 113.307C292.567 114.87 295.097 113.385 294.734 112.347Z" fill="#37474F"/>
<path d="M311.873 120.044C318.712 127.37 337.408 153.92 331.811 158.628C322.611 166.391 312.43 167.757 306.206 168.59C303.52 168.943 297.909 151.44 299.674 149.142C301.438 146.845 313.316 147.233 313.496 145.469C313.595 144.467 309.262 136.177 306.322 125.549C302.938 113.275 308.852 116.804 311.873 120.044Z" fill="#EB9481"/>
<path d="M307.088 147.364C307.088 147.364 298.87 146.764 293.478 146.623C290.468 146.545 285.298 146.87 283.061 147.826C279.715 149.238 266.63 157.354 268.529 160.569C270.244 163.48 280.601 155.088 280.601 155.088C280.601 155.088 269.4 162.63 272.132 165.753C274.863 168.876 285.28 157.844 285.28 157.844C285.28 157.844 273.931 165.855 277.238 168.629C279.733 170.728 289.755 161.267 289.755 161.267C289.755 161.267 280.061 168.216 282.538 170.485C285.273 172.994 295.069 164.839 295.069 164.839C302.331 169.55 307.72 168.823 311.489 167.849C312.399 167.619 307.088 147.364 307.088 147.364Z" fill="#EB9481"/>
<path d="M284.305 152.234C282.957 153.073 281.588 153.91 280.317 154.866C279.047 155.822 277.815 156.821 276.64 157.89C273.761 160.512 272.37 162.605 272.469 162.478C274.837 159.655 279.322 156.154 280.585 155.198C281.849 154.241 283.056 153.229 284.333 152.272C284.375 152.255 284.336 152.212 284.305 152.234Z" fill="#263238"/>
<path d="M287.838 156.751C286.162 157.894 284.457 158.97 282.834 160.191C281.211 161.412 279.792 162.697 278.246 164.016C278.13 164.119 278.222 164.147 278.345 164.052C279.926 162.792 281.482 161.747 283.077 160.523C284.672 159.298 286.222 157.979 287.852 156.803C287.891 156.772 287.863 156.733 287.838 156.751Z" fill="#263238"/>
<path d="M291.565 160.082C288.919 161.701 286.572 163.805 284.317 165.925C284.208 166.031 284.317 166.056 284.451 165.954C286.826 163.967 288.686 162.39 291.622 160.173C291.668 160.138 291.622 160.05 291.565 160.082Z" fill="#263238"/>
<path d="M279.252 149.333C280.988 148.274 282.837 147.346 284.863 146.993C286.067 146.817 287.281 146.718 288.497 146.697C289.771 146.644 291.049 146.63 292.322 146.58C292.358 146.58 292.354 146.633 292.322 146.637C291.264 146.725 290.177 146.852 289.101 146.933C288.024 147.014 287.029 147.074 286.002 147.209C285 147.332 284.015 147.569 283.066 147.914C282.167 148.258 281.3 148.678 280.473 149.171C278.736 150.176 270.514 155.875 268.778 158.698C268.492 159.137 268.384 159.669 268.478 160.184C268.52 160.412 268.627 160.623 268.786 160.792C268.945 160.961 269.149 161.081 269.375 161.137C269.445 161.137 269.375 161.197 269.3 161.186C268.556 161.087 268.242 160.424 268.139 159.722C267.787 156.934 277.406 150.469 279.252 149.333Z" fill="#263238"/>
<path d="M325.875 137.321L309.289 136.77C309.289 136.77 306.198 128.576 305.023 121.286C303.848 113.995 309.819 116.222 316.051 124.028C322.283 131.833 325.875 137.321 325.875 137.321Z" fill="#37474F"/>
<path d="M268.479 165.675H271.566V167.693H268.479V165.675Z" fill="#455A64"/>
<path d="M264.473 165.541H267.561V167.559H264.473V165.541Z" fill="#455A64"/>
<path d="M260.467 165.407H263.555V167.425H260.467V165.407Z" fill="#455A64"/>
<path d="M256.463 165.273H259.551V167.291H256.463V165.273Z" fill="#455A64"/>
<path d="M252.453 165.142H255.541V167.161H252.453V165.142Z" fill="#455A64"/>
<path d="M248.449 165.008H251.537V167.026H248.449V165.008Z" fill="#455A64"/>
<path d="M244.444 164.874H247.531V166.892H244.444V164.874Z" fill="#455A64"/>
<path d="M240.436 164.74H243.523V166.758H240.436V164.74Z" fill="#455A64"/>
<path d="M236.43 164.609H239.518V166.628H236.43V164.609Z" fill="#455A64"/>
<path d="M235.67 168.851H272.324V166.398L235.67 165.375V168.851Z" fill="#37474F"/>
<path d="M200.842 160.886H261.256L251.65 115.908H191.237L200.842 160.886Z" fill="#455A64"/>
<path d="M198.608 160.886H259.021L249.412 115.908H188.999L198.608 160.886Z" fill="#37474F"/>
<path d="M220.183 138.317C218.543 136.801 218.262 134.437 219.555 133.037C220.849 131.637 223.227 131.731 224.868 133.247C226.508 134.763 226.789 137.127 225.496 138.527C224.202 139.926 221.824 139.832 220.183 138.317Z" fill="#263238"/>
<path d="M215.693 172.634H245.406V170.326L215.693 169.363V172.634Z" fill="#455A64"/>
<path d="M207.616 172.63H223.567L233.176 147.427H217.222L207.616 172.63Z" fill="#455A64"/>
<path d="M204.991 172.63H220.942L230.551 147.427H214.597L204.991 172.63Z" fill="#263238"/>
<path d="M255.087 119.059C256.781 118.392 258.457 117.69 260.13 116.981C261.803 116.271 263.465 115.541 265.134 114.821C266.803 114.101 268.455 113.342 270.12 112.57L272.59 111.426C273.413 111.031 274.235 110.65 275.061 110.244C274.214 110.576 273.377 110.925 272.534 111.267L270.018 112.326C268.345 113.032 266.683 113.766 265.017 114.486C263.352 115.206 261.697 115.964 260.045 116.723C258.394 117.482 256.711 118.258 255.087 119.059Z" fill="#263238"/>
<path d="M258.005 132.684C259.55 132.758 261.1 132.79 262.645 132.818C264.191 132.846 265.74 132.846 267.286 132.86C268.831 132.874 270.38 132.86 271.926 132.822L274.248 132.772C275.021 132.74 275.794 132.723 276.566 132.684C275.794 132.645 275.021 132.627 274.248 132.599L271.926 132.55C270.38 132.522 268.831 132.522 267.286 132.507C265.74 132.493 264.191 132.507 262.645 132.55C261.1 132.592 259.533 132.599 258.005 132.684Z" fill="#263238"/>
<path d="M270.023 116.783C268.817 117.03 267.624 117.319 266.431 117.612C265.238 117.905 264.049 118.216 262.863 118.533C261.678 118.851 260.496 119.179 259.317 119.532L257.553 120.058C256.967 120.248 256.377 120.411 255.788 120.622C256.392 120.502 256.991 120.358 257.591 120.227L259.38 119.793C260.577 119.504 261.762 119.19 262.948 118.872C264.134 118.554 265.323 118.216 266.502 117.863C267.68 117.51 268.855 117.157 270.023 116.783Z" fill="#263238"/>
<path d="M270.631 100.219C269.068 101.471 267.529 102.752 265.998 104.037C264.466 105.321 262.952 106.631 261.428 107.919C259.903 109.207 258.403 110.54 256.907 111.871L254.67 113.868C253.929 114.542 253.184 115.209 252.454 115.894C253.237 115.269 254.007 114.63 254.783 113.999L257.087 112.075C258.619 110.791 260.133 109.482 261.657 108.194C263.181 106.906 264.678 105.572 266.174 104.241C267.67 102.911 269.163 101.595 270.631 100.219Z" fill="#263238"/>
<path d="M271.566 136.347C270.345 136.125 269.117 135.941 267.889 135.765C266.661 135.588 265.419 135.412 264.202 135.274C262.984 135.136 261.732 134.981 260.504 134.865L258.651 134.688C258.033 134.642 257.416 134.582 256.795 134.547C257.405 134.664 258.019 134.755 258.63 134.858L260.472 135.133C261.7 135.313 262.942 135.468 264.159 135.623C265.377 135.779 266.63 135.913 267.858 136.033C269.086 136.153 270.328 136.269 271.566 136.347Z" fill="#263238"/>
<path d="M273.617 123.438C272.096 123.639 270.586 123.883 269.072 124.126C267.558 124.37 266.058 124.649 264.548 124.91C263.038 125.171 261.538 125.467 260.038 125.771L257.787 126.23C257.039 126.396 256.291 126.547 255.543 126.724C256.305 126.628 257.06 126.508 257.819 126.399L260.084 126.046C261.598 125.803 263.101 125.527 264.612 125.266C266.122 125.005 267.622 124.705 269.121 124.405C270.621 124.105 272.121 123.784 273.617 123.438Z" fill="#263238"/>
<path d="M259.885 105.904C259.246 106.507 258.632 107.132 258.025 107.763C257.418 108.395 256.825 109.041 256.236 109.686C255.647 110.332 255.068 110.992 254.503 111.663L253.66 112.672C253.388 113.025 253.109 113.353 252.845 113.702C253.169 113.406 253.476 113.092 253.79 112.788L254.708 111.846C255.318 111.218 255.908 110.569 256.497 109.923C257.086 109.277 257.665 108.617 258.226 107.947C258.787 107.276 259.37 106.602 259.885 105.904Z" fill="#263238"/>
</g>
<defs>
<linearGradient id="paint0_linear_552_27545" x1="0" y1="0" x2="350" y2="200" gradientUnits="userSpaceOnUse">
<stop stop-color="#F77575"/>
<stop offset="1" stop-color="#C04646"/>
</linearGradient>
<clipPath id="clip0_552_27545">
<rect width="350" height="200" rx="20" fill="white"/>
</clipPath>
</defs>
</svg>
