<svg width="350" height="200" viewBox="0 0 350 200" fill="none" xmlns="http://www.w3.org/2000/svg">
<g clip-path="url(#clip0_552_29867)">
<rect width="350" height="200" rx="20" fill="url(#paint0_linear_552_29867)"/>
<path opacity="0.5" d="M262.5 217C313.586 217 355 198.868 355 176.5C355 154.132 313.586 136 262.5 136C211.414 136 170 154.132 170 176.5C170 198.868 211.414 217 262.5 217Z" fill="white"/>
<path d="M323.152 173.601L307.64 182.556C306.293 183.333 303.939 183.236 302.393 182.339L287.636 173.818C286.081 172.921 285.913 171.565 287.257 170.788L302.769 161.839C304.115 161.062 306.47 161.159 308.016 162.056L322.776 170.577C324.328 171.469 324.496 172.824 323.152 173.601Z" fill="#E0E0E0"/>
<path d="M289.377 187.852C296.131 187.852 301.606 184.453 301.606 180.261C301.606 176.069 296.131 172.67 289.377 172.67C282.623 172.67 277.148 176.069 277.148 180.261C277.148 184.453 282.623 187.852 289.377 187.852Z" fill="#E0E0E0"/>
<path d="M229.947 178.447C236.545 178.447 241.894 175.36 241.894 171.551C241.894 167.743 236.545 164.655 229.947 164.655C223.349 164.655 218 167.743 218 171.551C218 175.36 223.349 178.447 229.947 178.447Z" fill="#E0E0E0"/>
<path d="M278.203 133.008L226.36 162.941C226.001 163.148 225.703 163.446 225.496 163.805C225.289 164.164 225.18 164.571 225.18 164.985C225.18 165.4 225.289 165.807 225.496 166.166C225.703 166.525 226.001 166.823 226.36 167.03L254.653 183.364C255.642 183.936 256.765 184.238 257.908 184.238C259.05 184.238 260.173 183.936 261.162 183.364L310.932 154.63C311.29 154.423 311.588 154.125 311.796 153.766C312.003 153.407 312.112 153 312.112 152.586C312.112 152.171 312.003 151.764 311.796 151.405C311.588 151.046 311.29 150.748 310.932 150.541L280.566 133.008C280.206 132.801 279.799 132.692 279.384 132.692C278.969 132.692 278.562 132.801 278.203 133.008Z" fill="#E0E0E0"/>
<path d="M262.819 181.887C262.528 182.034 262.208 182.111 261.882 182.111C261.557 182.111 261.236 182.034 260.945 181.887C260.427 181.588 260.427 181.104 260.945 180.805C261.236 180.658 261.557 180.581 261.882 180.581C262.208 180.581 262.528 180.658 262.819 180.805C263.337 181.104 263.337 181.588 262.819 181.887Z" fill="#455A64"/>
<path d="M263.213 151.626H260.562V181.315H263.213V151.626Z" fill="#455A64"/>
<path d="M231.745 164.063C231.454 164.21 231.133 164.287 230.808 164.287C230.482 164.287 230.161 164.21 229.871 164.063C229.353 163.764 229.353 163.28 229.871 162.981C230.161 162.834 230.482 162.757 230.808 162.757C231.133 162.757 231.454 162.834 231.745 162.981C232.263 163.28 232.263 163.764 231.745 164.063Z" fill="#455A64"/>
<path d="M232.135 133.803H229.484V163.491H232.135V133.803Z" fill="#455A64"/>
<path d="M308.985 154.96C308.695 155.108 308.374 155.184 308.048 155.184C307.723 155.184 307.402 155.108 307.111 154.96C306.593 154.676 306.593 154.177 307.111 153.878C307.402 153.731 307.723 153.654 308.048 153.654C308.374 153.654 308.695 153.731 308.985 153.878C309.503 154.177 309.503 154.661 308.985 154.96Z" fill="#455A64"/>
<path d="M309.375 124.703H306.725V154.391H309.375V124.703Z" fill="#455A64"/>
<path d="M277.911 137.137C277.62 137.284 277.299 137.361 276.974 137.361C276.648 137.361 276.327 137.284 276.037 137.137C275.519 136.838 275.519 136.354 276.037 136.055C276.327 135.908 276.648 135.831 276.974 135.831C277.299 135.831 277.62 135.908 277.911 136.055C278.429 136.354 278.429 136.838 277.911 137.137Z" fill="#455A64"/>
<path d="M278.299 106.879H275.648V136.567H278.299V106.879Z" fill="#455A64"/>
<path d="M222.818 134.139V135.892L257.908 156.153V154.397L222.818 134.139Z" fill="#BA68C8"/>
<path opacity="0.3" d="M222.818 134.139V135.892L257.908 156.153V154.397L222.818 134.139Z" fill="black"/>
<path d="M314.474 121.739L257.908 154.397V156.153L314.474 123.493V121.739Z" fill="#BA68C8"/>
<path opacity="0.3" d="M314.474 121.739L257.908 154.397V156.153L314.474 123.493V121.739Z" fill="white"/>
<path d="M279.384 101.481L222.818 134.139L257.908 154.397L314.474 121.739L279.384 101.481Z" fill="#BA68C8"/>
<path d="M221.604 153.426V170.569C221.604 171.856 222.458 173.131 224.166 174.131C227.583 176.098 233.098 176.098 236.506 174.131C238.214 173.146 239.068 171.853 239.068 170.569V153.426H221.604Z" fill="#37474F"/>
<path d="M230.33 158.389C235.15 158.389 239.057 156.133 239.057 153.352C239.057 150.57 235.15 148.315 230.33 148.315C225.511 148.315 221.604 150.57 221.604 153.352C221.604 156.133 225.511 158.389 230.33 158.389Z" fill="#455A64"/>
<path d="M236.31 155.723C236.042 155.944 235.757 156.141 235.456 156.313C235.399 156.347 235.339 156.381 235.277 156.413C234.881 156.624 234.47 156.804 234.047 156.951C233.879 157.008 233.702 157.065 233.526 157.11C233.122 157.232 232.711 157.327 232.295 157.395C231.94 157.455 231.575 157.497 231.214 157.523C231.065 157.523 230.929 157.543 230.772 157.546C230.488 157.546 230.203 157.546 229.941 157.546C229.596 157.546 229.252 157.514 228.913 157.475C228.48 157.427 228.05 157.353 227.626 157.252C227.455 157.213 227.29 157.173 227.125 157.121C226.451 156.938 225.802 156.67 225.195 156.324C224.932 156.174 224.681 156.004 224.443 155.817C222.789 154.502 222.629 152.757 223.956 151.356C224.319 150.977 224.737 150.655 225.195 150.399C225.702 150.109 226.239 149.875 226.797 149.702C226.903 149.665 227.017 149.63 227.125 149.602C227.422 149.516 227.723 149.444 228.027 149.388C228.358 149.326 228.691 149.275 229.033 149.24C230.119 149.126 231.217 149.156 232.295 149.331L232.395 149.346C232.78 149.409 233.16 149.494 233.534 149.602C234.053 149.744 234.557 149.934 235.04 150.171C235.185 150.24 235.325 150.317 235.464 150.396C235.684 150.522 235.896 150.661 236.099 150.812C236.4 151.036 236.673 151.296 236.911 151.586C237.976 152.908 237.785 154.496 236.31 155.723Z" fill="#263238"/>
<path d="M230.598 131.18V136.499H233.325V132.88C233.325 132.88 232.309 131.397 230.598 131.18Z" fill="#BA68C8"/>
<path opacity="0.3" d="M230.598 131.18V136.499H233.325V132.88C233.325 132.88 232.309 131.397 230.598 131.18Z" fill="white"/>
<path d="M232.301 132.513V157.389C231.946 157.449 231.581 157.491 231.219 157.517C231.071 157.517 230.935 157.537 230.778 157.54C230.493 157.54 230.209 157.54 229.947 157.54C229.602 157.54 229.258 157.509 228.919 157.469C228.486 157.422 228.056 157.347 227.632 157.247C227.461 157.207 227.296 157.167 227.131 157.116V132.513H232.301Z" fill="#BA68C8"/>
<path opacity="0.7" d="M232.301 132.513V157.389C231.946 157.449 231.581 157.491 231.219 157.517C231.071 157.517 230.935 157.537 230.778 157.54C230.493 157.54 230.209 157.54 229.947 157.54C229.602 157.54 229.258 157.509 228.919 157.469C228.486 157.422 228.056 157.347 227.632 157.247C227.461 157.207 227.296 157.167 227.131 157.116V132.513H232.301Z" fill="white"/>
<path d="M233.531 133.344V157.11C233.127 157.232 232.716 157.327 232.301 157.395C231.945 157.455 231.58 157.497 231.219 157.523C231.071 157.523 230.934 157.543 230.777 157.546V135.386C231.313 135.306 231.829 135.129 232.301 134.862C232.728 134.625 233.083 134.277 233.328 133.854C233.424 133.696 233.492 133.524 233.531 133.344Z" fill="#BA68C8"/>
<path opacity="0.5" d="M233.531 133.344V157.11C233.127 157.232 232.716 157.327 232.301 157.395C231.945 157.455 231.58 157.497 231.219 157.523C231.071 157.523 230.934 157.543 230.777 157.546V135.386C231.313 135.306 231.829 135.129 232.301 134.862C232.728 134.625 233.083 134.277 233.328 133.854C233.424 133.696 233.492 133.524 233.531 133.344Z" fill="white"/>
<path d="M230.906 135.491C230.874 135.49 230.843 135.477 230.82 135.455C230.797 135.433 230.782 135.403 230.779 135.372C230.777 135.34 230.786 135.308 230.805 135.282C230.824 135.256 230.852 135.238 230.883 135.232C231.365 135.144 231.829 134.977 232.255 134.736C232.91 134.361 233.269 133.865 233.269 133.347C233.269 132.829 232.91 132.333 232.255 131.955C231.476 131.539 230.602 131.33 229.719 131.348C229.7 131.351 229.681 131.35 229.663 131.345C229.645 131.339 229.628 131.33 229.614 131.318C229.6 131.306 229.588 131.29 229.58 131.273C229.572 131.256 229.568 131.238 229.568 131.219C229.568 131.2 229.572 131.181 229.58 131.164C229.588 131.147 229.6 131.132 229.614 131.12C229.628 131.107 229.645 131.098 229.663 131.093C229.681 131.088 229.7 131.086 229.719 131.089C230.649 131.07 231.569 131.291 232.389 131.73C233.127 132.157 233.528 132.729 233.528 133.347C233.528 133.965 233.121 134.537 232.389 134.964C231.936 135.217 231.445 135.394 230.934 135.488L230.906 135.491Z" fill="#BA68C8"/>
<path opacity="0.5" d="M230.906 135.491C230.874 135.49 230.843 135.477 230.82 135.455C230.797 135.433 230.782 135.403 230.779 135.372C230.777 135.34 230.786 135.308 230.805 135.282C230.824 135.256 230.852 135.238 230.883 135.232C231.365 135.144 231.829 134.977 232.255 134.736C232.91 134.361 233.269 133.865 233.269 133.347C233.269 132.829 232.91 132.333 232.255 131.955C231.476 131.539 230.602 131.33 229.719 131.348C229.7 131.351 229.681 131.35 229.663 131.345C229.645 131.339 229.628 131.33 229.614 131.318C229.6 131.306 229.588 131.29 229.58 131.273C229.572 131.256 229.568 131.238 229.568 131.219C229.568 131.2 229.572 131.181 229.58 131.164C229.588 131.147 229.6 131.132 229.614 131.12C229.628 131.107 229.645 131.098 229.663 131.093C229.681 131.088 229.7 131.086 229.719 131.089C230.649 131.07 231.569 131.291 232.389 131.73C233.127 132.157 233.528 132.729 233.528 133.347C233.528 133.965 233.121 134.537 232.389 134.964C231.936 135.217 231.445 135.394 230.934 135.488L230.906 135.491Z" fill="white"/>
<path d="M231.543 131.528C232.554 132.097 232.554 133.054 231.543 133.637C230.976 133.925 230.35 134.075 229.715 134.075C229.08 134.075 228.453 133.925 227.887 133.637C226.876 133.068 226.876 132.108 227.887 131.528C228.453 131.24 229.08 131.09 229.715 131.09C230.35 131.09 230.976 131.24 231.543 131.528Z" fill="#BA68C8"/>
<path opacity="0.5" d="M231.543 131.528C232.554 132.097 232.554 133.054 231.543 133.637C230.976 133.925 230.35 134.075 229.715 134.075C229.08 134.075 228.453 133.925 227.887 133.637C226.876 133.068 226.876 132.108 227.887 131.528C228.453 131.24 229.08 131.09 229.715 131.09C230.35 131.09 230.976 131.24 231.543 131.528Z" fill="white"/>
<path d="M236.323 140.323L235.754 144.269L237.773 144.554L238.163 141.866C237.77 141.135 237.112 140.582 236.323 140.323Z" fill="#BA68C8"/>
<path opacity="0.3" d="M236.323 140.323L235.754 144.269L237.773 144.554L238.163 141.866C237.77 141.135 237.112 140.582 236.323 140.323Z" fill="white"/>
<path d="M237.442 141.49L237.206 143.116L237.189 143.233V143.338L237.027 144.451L236.11 150.803L235.295 156.413C234.9 156.624 234.489 156.804 234.065 156.951C233.897 157.008 233.721 157.065 233.544 157.11C233.141 157.232 232.73 157.327 232.314 157.395C231.958 157.455 231.594 157.497 231.232 157.523L232.314 150.029L232.414 149.346L233.553 141.533L233.638 140.946L236.201 141.319L237.456 141.502L237.442 141.49Z" fill="#BA68C8"/>
<path opacity="0.7" d="M237.442 141.49L237.206 143.116L237.189 143.233V143.338L237.027 144.451L236.11 150.803L235.295 156.413C234.9 156.624 234.489 156.804 234.065 156.951C233.897 157.008 233.721 157.065 233.544 157.11C233.141 157.232 232.73 157.327 232.314 157.395C231.958 157.455 231.594 157.497 231.232 157.523L232.314 150.029L232.414 149.346L233.553 141.533L233.638 140.946L236.201 141.319L237.456 141.502L237.442 141.49Z" fill="white"/>
<path d="M238.261 142.242L236.908 151.589L236.31 155.735C236.043 155.955 235.757 156.152 235.456 156.324C235.399 156.358 235.34 156.393 235.277 156.424C234.882 156.636 234.471 156.816 234.047 156.962L235.038 150.166L235.892 144.292L236.011 143.458C236.415 143.455 236.816 143.38 237.193 143.236C237.53 143.106 237.825 142.888 238.047 142.603C238.137 142.495 238.21 142.373 238.261 142.242Z" fill="#BA68C8"/>
<path opacity="0.5" d="M238.261 142.242L236.908 151.589L236.31 155.735C236.043 155.955 235.757 156.152 235.456 156.324C235.399 156.358 235.34 156.393 235.277 156.424C234.882 156.636 234.471 156.816 234.047 156.962L235.038 150.166L235.892 144.292L236.011 143.458C236.415 143.455 236.816 143.38 237.193 143.236C237.53 143.106 237.825 142.888 238.047 142.603C238.137 142.495 238.21 142.373 238.261 142.242Z" fill="white"/>
<path d="M236.09 143.546C236.068 143.543 236.047 143.532 236.032 143.516C236.016 143.499 236.008 143.477 236.007 143.455C236.007 143.442 236.008 143.429 236.012 143.417C236.017 143.405 236.023 143.394 236.032 143.384C236.04 143.375 236.05 143.367 236.062 143.362C236.073 143.356 236.086 143.353 236.098 143.352C236.465 143.338 236.827 143.264 237.169 143.133C237.693 142.925 238.023 142.598 238.069 142.213C238.114 141.829 237.909 141.425 237.468 141.074C236.933 140.684 236.308 140.436 235.651 140.354C235.638 140.353 235.625 140.35 235.613 140.343C235.601 140.337 235.591 140.329 235.582 140.318C235.574 140.308 235.567 140.296 235.564 140.283C235.56 140.27 235.56 140.256 235.562 140.243C235.564 140.23 235.568 140.217 235.575 140.206C235.583 140.194 235.592 140.185 235.603 140.177C235.614 140.17 235.627 140.165 235.64 140.162C235.653 140.16 235.667 140.16 235.68 140.163C236.371 140.248 237.028 140.51 237.588 140.923C238.086 141.316 238.325 141.778 238.26 142.242C238.194 142.706 237.832 143.079 237.24 143.315C236.876 143.455 236.491 143.533 236.101 143.546H236.09Z" fill="#BA68C8"/>
<path opacity="0.5" d="M236.09 143.546C236.068 143.543 236.047 143.532 236.032 143.516C236.016 143.499 236.008 143.477 236.007 143.455C236.007 143.442 236.008 143.429 236.012 143.417C236.017 143.405 236.023 143.394 236.032 143.384C236.04 143.375 236.05 143.367 236.062 143.362C236.073 143.356 236.086 143.353 236.098 143.352C236.465 143.338 236.827 143.264 237.169 143.133C237.693 142.925 238.023 142.598 238.069 142.213C238.114 141.829 237.909 141.425 237.468 141.074C236.933 140.684 236.308 140.436 235.651 140.354C235.638 140.353 235.625 140.35 235.613 140.343C235.601 140.337 235.591 140.329 235.582 140.318C235.574 140.308 235.567 140.296 235.564 140.283C235.56 140.27 235.56 140.256 235.562 140.243C235.564 140.23 235.568 140.217 235.575 140.206C235.583 140.194 235.592 140.185 235.603 140.177C235.614 140.17 235.627 140.165 235.64 140.162C235.653 140.16 235.667 140.16 235.68 140.163C236.371 140.248 237.028 140.51 237.588 140.923C238.086 141.316 238.325 141.778 238.26 142.242C238.194 142.706 237.832 143.079 237.24 143.315C236.876 143.455 236.491 143.533 236.101 143.546H236.09Z" fill="white"/>
<path d="M236.987 140.681C237.67 141.222 237.557 141.92 236.759 142.245C236.309 142.396 235.83 142.44 235.36 142.372C234.89 142.303 234.443 142.125 234.054 141.852C233.371 141.314 233.485 140.613 234.279 140.291C234.73 140.139 235.209 140.095 235.68 140.163C236.15 140.23 236.598 140.408 236.987 140.681Z" fill="#BA68C8"/>
<path opacity="0.5" d="M236.987 140.681C237.67 141.222 237.557 141.92 236.759 142.245C236.309 142.396 235.83 142.44 235.36 142.372C234.89 142.303 234.443 142.125 234.054 141.852C233.371 141.314 233.485 140.613 234.279 140.291C234.73 140.139 235.209 140.095 235.68 140.163C236.15 140.23 236.598 140.408 236.987 140.681Z" fill="white"/>
<path d="M225.314 137.444L225.793 141.812L228.028 141.567L227.703 138.592C227.703 138.592 226.738 137.467 225.314 137.444Z" fill="#BA68C8"/>
<path opacity="0.3" d="M225.314 137.444L225.793 141.812L228.028 141.567L227.703 138.592C227.703 138.592 226.738 137.467 225.314 137.444Z" fill="white"/>
<path d="M228.918 157.463C228.484 157.416 228.055 157.342 227.631 157.241C227.46 157.201 227.295 157.161 227.13 157.11C226.455 156.926 225.807 156.658 225.199 156.313C224.937 156.162 224.685 155.993 224.447 155.806L223.961 151.344L222.6 138.842L225.447 138.532L226.839 138.378L227.036 140.183V140.306V140.428L227.112 141.114L227.169 141.658L228.024 149.377L228.918 157.463Z" fill="#BA68C8"/>
<path opacity="0.7" d="M228.918 157.463C228.484 157.416 228.055 157.342 227.631 157.241C227.46 157.201 227.295 157.161 227.13 157.11C226.455 156.926 225.807 156.658 225.199 156.313C224.937 156.162 224.685 155.993 224.447 155.806L223.961 151.344L222.6 138.842L225.447 138.532L226.839 138.378L227.036 140.183V140.306V140.428L227.112 141.114L227.169 141.658L228.024 149.377L228.918 157.463Z" fill="white"/>
<path d="M228.917 157.463C228.484 157.416 228.054 157.342 227.63 157.241L227.129 152.665L226.801 149.69L225.947 141.798L225.848 140.872C226.281 140.76 226.69 140.567 227.052 140.303C227.083 140.28 227.115 140.26 227.14 140.237C227.428 140.011 227.655 139.718 227.801 139.383C227.864 139.244 227.905 139.096 227.92 138.945L229.059 149.217L229.968 157.523C229.6 157.526 229.256 157.503 228.917 157.463Z" fill="#BA68C8"/>
<path opacity="0.5" d="M228.917 157.463C228.484 157.416 228.054 157.342 227.63 157.241L227.129 152.665L226.801 149.69L225.947 141.798L225.848 140.872C226.281 140.76 226.69 140.567 227.052 140.303C227.083 140.28 227.115 140.26 227.14 140.237C227.428 140.011 227.655 139.718 227.801 139.383C227.864 139.244 227.905 139.096 227.92 138.945L229.059 149.217L229.968 157.523C229.6 157.526 229.256 157.503 228.917 157.463Z" fill="white"/>
<path d="M225.953 140.949C225.928 140.951 225.903 140.945 225.882 140.931C225.862 140.917 225.846 140.896 225.839 140.872C225.835 140.859 225.833 140.845 225.834 140.831C225.835 140.817 225.839 140.803 225.845 140.791C225.852 140.779 225.86 140.767 225.871 140.758C225.882 140.749 225.894 140.743 225.908 140.738C226.295 140.624 226.661 140.445 226.989 140.209C227.493 139.842 227.744 139.406 227.696 138.979C227.647 138.552 227.311 138.182 226.742 137.931C226.064 137.659 225.328 137.565 224.603 137.661C224.59 137.663 224.575 137.662 224.562 137.658C224.548 137.654 224.536 137.648 224.525 137.639C224.514 137.63 224.505 137.619 224.498 137.607C224.492 137.594 224.488 137.581 224.487 137.567C224.484 137.538 224.493 137.51 224.51 137.488C224.528 137.466 224.553 137.451 224.581 137.447C225.342 137.348 226.115 137.446 226.827 137.732C227.471 138.016 227.855 138.446 227.909 138.953C227.963 139.46 227.684 139.964 227.118 140.377C226.772 140.628 226.387 140.821 225.979 140.946L225.953 140.949Z" fill="#BA68C8"/>
<path opacity="0.5" d="M225.953 140.949C225.928 140.951 225.903 140.945 225.882 140.931C225.862 140.917 225.846 140.896 225.839 140.872C225.835 140.859 225.833 140.845 225.834 140.831C225.835 140.817 225.839 140.803 225.845 140.791C225.852 140.779 225.86 140.767 225.871 140.758C225.882 140.749 225.894 140.743 225.908 140.738C226.295 140.624 226.661 140.445 226.989 140.209C227.493 139.842 227.744 139.406 227.696 138.979C227.647 138.552 227.311 138.182 226.742 137.931C226.064 137.659 225.328 137.565 224.603 137.661C224.59 137.663 224.575 137.662 224.562 137.658C224.548 137.654 224.536 137.648 224.525 137.639C224.514 137.63 224.505 137.619 224.498 137.607C224.492 137.594 224.488 137.581 224.487 137.567C224.484 137.538 224.493 137.51 224.51 137.488C224.528 137.466 224.553 137.451 224.581 137.447C225.342 137.348 226.115 137.446 226.827 137.732C227.471 138.016 227.855 138.446 227.909 138.953C227.963 139.46 227.684 139.964 227.118 140.377C226.772 140.628 226.387 140.821 225.979 140.946L225.953 140.949Z" fill="white"/>
<path d="M226.12 137.638C226.999 138.025 227.085 138.8 226.31 139.366C225.872 139.653 225.371 139.832 224.85 139.889C224.329 139.945 223.802 139.879 223.312 139.694C222.432 139.309 222.35 138.532 223.124 137.965C223.563 137.679 224.062 137.5 224.583 137.443C225.103 137.386 225.63 137.453 226.12 137.638Z" fill="#BA68C8"/>
<path opacity="0.5" d="M226.12 137.638C226.999 138.025 227.085 138.8 226.31 139.366C225.872 139.653 225.371 139.832 224.85 139.889C224.329 139.945 223.802 139.879 223.312 139.694C222.432 139.309 222.35 138.532 223.124 137.965C223.563 137.679 224.062 137.5 224.583 137.443C225.103 137.386 225.63 137.453 226.12 137.638Z" fill="white"/>
<path d="M294.798 119.236L291.381 121.203C291.246 121.265 291.098 121.293 290.95 121.287C290.801 121.281 290.657 121.239 290.527 121.166L278.922 114.467C278.668 114.322 278.637 114.102 278.862 113.974L282.279 112.007C282.414 111.946 282.562 111.917 282.71 111.924C282.859 111.93 283.003 111.971 283.133 112.044L294.735 118.743C294.989 118.889 295.014 119.108 294.798 119.236Z" fill="#263238"/>
<path d="M284.898 113.971L282.273 115.486L280.109 114.239L282.735 112.724L284.898 113.971Z" fill="#BA68C8"/>
<path d="M287.749 115.617L285.124 117.132L282.963 115.885L285.585 114.37L287.749 115.617Z" fill="#BA68C8"/>
<path d="M290.599 117.263L287.976 118.78L285.812 117.531L288.438 116.016L290.599 117.263Z" fill="#BA68C8"/>
<path d="M293.452 118.911L290.827 120.426L288.666 119.176L291.288 117.662L293.452 118.911Z" fill="#BA68C8"/>
<path opacity="0.4" d="M284.898 113.971L282.273 115.486L280.109 114.239L282.735 112.724L284.898 113.971Z" fill="black"/>
<path opacity="0.5" d="M287.749 115.617L285.124 117.132L282.963 115.885L285.585 114.37L287.749 115.617Z" fill="black"/>
<path opacity="0.6" d="M290.599 117.263L287.976 118.78L285.812 117.531L288.438 116.016L290.599 117.263Z" fill="black"/>
<path opacity="0.8" d="M293.452 118.911L290.827 120.426L288.666 119.176L291.288 117.662L293.452 118.911Z" fill="black"/>
<path d="M295.459 115.62L292.569 118.291C292.449 118.382 292.309 118.443 292.161 118.47C292.012 118.496 291.86 118.488 291.715 118.444L278.92 114.458C278.635 114.373 278.567 114.174 278.752 113.991L281.642 111.321C281.762 111.229 281.902 111.168 282.05 111.141C282.199 111.114 282.351 111.123 282.496 111.167L295.291 115.153C295.567 115.239 295.644 115.446 295.459 115.62Z" fill="#37474F"/>
<path d="M284.639 112.668L282.415 114.726L280.029 113.983L282.256 111.927L284.639 112.668Z" fill="#BA68C8"/>
<path d="M287.785 113.647L285.559 115.703L283.176 114.959L285.399 112.904L287.785 113.647Z" fill="#BA68C8"/>
<path d="M290.928 114.624L288.704 116.679L286.318 115.936L288.545 113.88L290.928 114.624Z" fill="#BA68C8"/>
<path d="M294.073 115.6L291.849 117.656L289.463 116.915L291.689 114.857L294.073 115.6Z" fill="#BA68C8"/>
<path opacity="0.1" d="M284.639 112.668L282.415 114.726L280.029 113.983L282.256 111.927L284.639 112.668Z" fill="white"/>
<path opacity="0.1" d="M290.928 114.624L288.704 116.679L286.318 115.936L288.545 113.88L290.928 114.624Z" fill="black"/>
<path opacity="0.2" d="M294.073 115.6L291.849 117.656L289.463 116.915L291.689 114.857L294.073 115.6Z" fill="black"/>
<path d="M295.342 112.195L293.064 115.404C292.967 115.515 292.844 115.603 292.707 115.659C292.57 115.715 292.421 115.737 292.273 115.725L278.934 114.467C278.649 114.441 278.526 114.251 278.675 114.046L280.952 110.837C281.05 110.725 281.172 110.637 281.31 110.581C281.447 110.525 281.596 110.501 281.744 110.512L295.083 111.771C295.371 111.799 295.49 111.987 295.342 112.195Z" fill="#455A64"/>
<path d="M284.151 111.532L282.394 114.003L279.908 113.769L281.662 111.298L284.151 111.532Z" fill="#BA68C8"/>
<path d="M287.426 111.842L285.672 114.31L283.184 114.077L284.94 111.605L287.426 111.842Z" fill="#BA68C8"/>
<path d="M290.704 112.149L288.95 114.621L286.465 114.387L288.219 111.916L290.704 112.149Z" fill="#BA68C8"/>
<path d="M293.982 112.46L292.228 114.931L289.742 114.695L291.496 112.226L293.982 112.46Z" fill="#BA68C8"/>
<path opacity="0.8" d="M284.151 111.532L282.394 114.003L279.908 113.769L281.662 111.298L284.151 111.532Z" fill="white"/>
<path opacity="0.6" d="M287.426 111.842L285.672 114.31L283.184 114.077L284.94 111.605L287.426 111.842Z" fill="white"/>
<path opacity="0.4" d="M290.704 112.149L288.95 114.621L286.465 114.387L288.219 111.916L290.704 112.149Z" fill="white"/>
<path opacity="0.2" d="M293.982 112.46L292.228 114.931L289.742 114.695L291.496 112.226L293.982 112.46Z" fill="white"/>
<path d="M278.227 115.221C277.977 115.223 277.733 115.142 277.533 114.99C277.333 114.839 277.189 114.626 277.122 114.384C277.082 114.239 277.07 114.088 277.088 113.938C277.106 113.788 277.154 113.644 277.228 113.513C277.301 113.381 277.401 113.266 277.519 113.173C277.638 113.08 277.773 113.011 277.918 112.971C278.063 112.93 278.215 112.918 278.365 112.936C278.514 112.955 278.659 113.002 278.79 113.076C278.921 113.15 279.037 113.249 279.13 113.367C279.223 113.486 279.291 113.621 279.332 113.766L279.11 113.826C279.044 113.592 278.888 113.393 278.676 113.274C278.463 113.154 278.213 113.124 277.978 113.19C277.744 113.256 277.545 113.412 277.425 113.624C277.306 113.836 277.276 114.087 277.342 114.322C277.375 114.438 277.43 114.547 277.505 114.643C277.58 114.738 277.673 114.817 277.779 114.877C277.885 114.936 278.001 114.974 278.122 114.988C278.242 115.002 278.364 114.992 278.481 114.959C278.597 114.927 278.706 114.872 278.801 114.797C278.895 114.722 278.974 114.629 279.033 114.524L279.232 114.638C279.132 114.814 278.987 114.961 278.811 115.064C278.636 115.166 278.436 115.221 278.233 115.221H278.227Z" fill="#E0E0E0"/>
<path d="M262.09 142.051L252.449 147.617L240.283 140.593L249.935 135.015C250.061 134.943 250.203 134.904 250.348 134.904C250.493 134.904 250.636 134.943 250.761 135.015L262.082 141.55C262.127 141.573 262.166 141.609 262.193 141.653C262.22 141.696 262.235 141.746 262.235 141.798C262.236 141.849 262.223 141.9 262.198 141.944C262.172 141.989 262.135 142.026 262.09 142.051Z" fill="#BA68C8"/>
<path opacity="0.7" d="M262.09 142.051L252.449 147.617L240.283 140.593L249.935 135.015C250.061 134.943 250.203 134.904 250.348 134.904C250.493 134.904 250.636 134.943 250.761 135.015L262.082 141.55C262.127 141.573 262.166 141.609 262.193 141.653C262.22 141.696 262.235 141.746 262.235 141.798C262.236 141.849 262.223 141.9 262.198 141.944C262.172 141.989 262.135 142.026 262.09 142.051Z" fill="black"/>
<path d="M261.423 141.846L252.448 147.034L241.125 140.485L250.117 135.294C250.234 135.227 250.366 135.192 250.501 135.192C250.636 135.192 250.768 135.227 250.885 135.294L261.42 141.379C261.462 141.402 261.496 141.436 261.521 141.477C261.545 141.517 261.558 141.564 261.558 141.612C261.559 141.659 261.546 141.706 261.522 141.747C261.499 141.788 261.464 141.822 261.423 141.846Z" fill="white"/>
<path d="M252.449 147.028V146.017L261.558 140.758V141.621L252.449 147.028Z" fill="white"/>
<path d="M252.448 147.028V146.017L241.125 139.477V140.488L252.448 147.028Z" fill="#E0E0E0"/>
<path d="M262.09 140.451L252.449 146.017L240.283 138.993L249.935 133.415C250.061 133.342 250.203 133.304 250.348 133.304C250.493 133.304 250.636 133.342 250.761 133.415L262.082 139.964C262.124 139.988 262.159 140.024 262.184 140.066C262.209 140.108 262.222 140.156 262.223 140.205C262.224 140.254 262.212 140.302 262.189 140.345C262.166 140.388 262.132 140.425 262.09 140.451Z" fill="#BA68C8"/>
<path opacity="0.5" d="M262.09 140.451L252.449 146.017L240.283 138.993L249.935 133.415C250.061 133.342 250.203 133.304 250.348 133.304C250.493 133.304 250.636 133.342 250.761 133.415L262.082 139.964C262.124 139.988 262.159 140.024 262.184 140.066C262.209 140.108 262.222 140.156 262.223 140.205C262.224 140.254 262.212 140.302 262.189 140.345C262.166 140.388 262.132 140.425 262.09 140.451Z" fill="black"/>
<path d="M251.193 146.891C251.165 146.905 251.134 146.911 251.102 146.911C251.071 146.911 251.04 146.905 251.011 146.891C250.976 146.873 250.947 146.846 250.927 146.812C250.907 146.778 250.896 146.74 250.897 146.701V145.787C250.897 145.579 250.951 145.376 251.053 145.196C251.155 145.015 251.303 144.865 251.481 144.759L251.515 144.739C251.531 144.728 251.55 144.723 251.569 144.723C251.588 144.723 251.607 144.728 251.623 144.739C251.64 144.748 251.654 144.761 251.664 144.778C251.673 144.795 251.678 144.814 251.677 144.833C251.677 144.883 251.697 144.932 251.733 144.968C251.769 145.003 251.817 145.024 251.868 145.024C251.919 145.024 251.967 145.003 252.003 144.968C252.039 144.932 252.059 144.883 252.059 144.833C252.059 144.747 252.036 144.662 251.992 144.588C251.949 144.513 251.887 144.451 251.812 144.409C251.737 144.366 251.653 144.344 251.566 144.344C251.48 144.345 251.396 144.368 251.321 144.411L251.287 144.434C251.053 144.574 250.858 144.771 250.723 145.009C250.588 145.246 250.516 145.514 250.516 145.787V146.701C250.516 146.809 250.546 146.915 250.601 147.007C250.657 147.1 250.736 147.176 250.832 147.227C250.92 147.273 251.017 147.296 251.116 147.296C251.235 147.297 251.351 147.262 251.45 147.196C251.485 147.17 251.511 147.133 251.524 147.091L251.193 146.891Z" fill="white"/>
<path d="M249.391 145.852C249.358 145.863 249.324 145.866 249.29 145.861C249.257 145.856 249.225 145.843 249.197 145.823C249.169 145.803 249.146 145.777 249.131 145.747C249.115 145.717 249.106 145.684 249.106 145.65V144.736C249.105 144.53 249.157 144.328 249.256 144.148C249.356 143.968 249.5 143.816 249.675 143.708L249.712 143.688C249.729 143.679 249.747 143.674 249.766 143.674C249.785 143.674 249.804 143.679 249.82 143.688C249.837 143.698 249.85 143.712 249.859 143.728C249.869 143.745 249.874 143.763 249.875 143.782C249.871 143.809 249.874 143.836 249.882 143.862C249.89 143.888 249.903 143.911 249.921 143.932C249.939 143.952 249.961 143.968 249.986 143.979C250.01 143.99 250.037 143.996 250.064 143.996C250.091 143.996 250.118 143.99 250.142 143.979C250.167 143.968 250.189 143.952 250.207 143.932C250.225 143.911 250.238 143.888 250.246 143.862C250.254 143.836 250.257 143.809 250.253 143.782C250.253 143.696 250.23 143.612 250.187 143.538C250.144 143.464 250.082 143.402 250.007 143.36C249.933 143.317 249.848 143.295 249.763 143.296C249.677 143.296 249.593 143.32 249.519 143.363L249.484 143.383C249.25 143.523 249.055 143.722 248.92 143.959C248.785 144.197 248.713 144.465 248.713 144.739V145.653C248.713 145.761 248.742 145.867 248.798 145.96C248.854 146.052 248.934 146.128 249.029 146.179C249.117 146.225 249.215 146.248 249.314 146.248C249.431 146.247 249.546 146.213 249.644 146.148C249.681 146.124 249.708 146.086 249.718 146.043L249.391 145.852Z" fill="white"/>
<path d="M247.589 144.813C247.561 144.826 247.53 144.833 247.499 144.833C247.468 144.833 247.438 144.826 247.409 144.813C247.374 144.794 247.344 144.767 247.324 144.732C247.303 144.698 247.292 144.659 247.293 144.619V143.705C247.293 143.498 247.348 143.295 247.451 143.115C247.553 142.936 247.701 142.786 247.879 142.68L247.913 142.66C247.93 142.65 247.948 142.645 247.968 142.645C247.987 142.645 248.005 142.65 248.022 142.66C248.038 142.67 248.052 142.684 248.061 142.7C248.071 142.717 248.076 142.735 248.076 142.754C248.072 142.781 248.075 142.808 248.083 142.834C248.091 142.86 248.104 142.884 248.122 142.904C248.14 142.924 248.162 142.94 248.187 142.951C248.211 142.963 248.238 142.968 248.265 142.968C248.292 142.968 248.319 142.963 248.343 142.951C248.368 142.94 248.39 142.924 248.408 142.904C248.426 142.884 248.439 142.86 248.447 142.834C248.455 142.808 248.458 142.781 248.454 142.754C248.454 142.668 248.432 142.584 248.388 142.51C248.345 142.436 248.283 142.374 248.209 142.332C248.134 142.289 248.05 142.267 247.964 142.268C247.878 142.269 247.794 142.292 247.72 142.336L247.686 142.356C247.451 142.495 247.257 142.693 247.122 142.93C246.987 143.167 246.915 143.435 246.914 143.708V144.622C246.914 144.73 246.943 144.837 246.999 144.929C247.055 145.022 247.135 145.098 247.23 145.149C247.317 145.196 247.415 145.221 247.515 145.22C247.632 145.22 247.747 145.185 247.845 145.12C247.882 145.095 247.908 145.058 247.919 145.015L247.589 144.813Z" fill="white"/>
<path d="M245.79 143.771C245.761 143.784 245.73 143.791 245.698 143.791C245.667 143.791 245.636 143.784 245.607 143.771C245.573 143.752 245.544 143.724 245.524 143.69C245.504 143.656 245.493 143.617 245.493 143.577V142.663C245.492 142.458 245.544 142.255 245.644 142.076C245.743 141.896 245.888 141.746 246.063 141.638L246.097 141.615C246.113 141.606 246.132 141.601 246.151 141.601C246.17 141.601 246.189 141.606 246.205 141.615C246.222 141.624 246.236 141.638 246.246 141.655C246.255 141.671 246.26 141.69 246.259 141.709C246.259 141.76 246.279 141.808 246.315 141.844C246.351 141.88 246.399 141.9 246.45 141.9C246.475 141.9 246.5 141.895 246.523 141.886C246.546 141.876 246.566 141.862 246.584 141.844C246.601 141.826 246.615 141.805 246.625 141.782C246.634 141.759 246.638 141.734 246.638 141.709C246.639 141.623 246.617 141.538 246.574 141.464C246.531 141.389 246.469 141.327 246.394 141.284C246.319 141.242 246.234 141.22 246.148 141.221C246.061 141.222 245.977 141.246 245.903 141.291L245.869 141.311C245.635 141.45 245.441 141.648 245.305 141.885C245.17 142.122 245.099 142.39 245.098 142.663V143.577C245.097 143.685 245.127 143.792 245.182 143.884C245.238 143.977 245.318 144.053 245.414 144.104C245.501 144.151 245.599 144.176 245.698 144.175C245.817 144.175 245.933 144.14 246.032 144.075C246.067 144.049 246.093 144.012 246.106 143.97L245.79 143.771Z" fill="white"/>
<path d="M243.987 142.731C243.959 142.744 243.928 142.751 243.896 142.751C243.865 142.751 243.834 142.744 243.805 142.731C243.77 142.712 243.742 142.684 243.721 142.65C243.701 142.616 243.691 142.577 243.691 142.538V141.624C243.692 141.417 243.746 141.213 243.848 141.033C243.951 140.853 244.097 140.703 244.275 140.596L244.312 140.576C244.328 140.567 244.347 140.562 244.366 140.562C244.385 140.562 244.404 140.567 244.42 140.576C244.437 140.586 244.45 140.599 244.46 140.616C244.469 140.632 244.474 140.651 244.474 140.67C244.48 140.716 244.502 140.759 244.537 140.79C244.572 140.821 244.617 140.838 244.664 140.838C244.71 140.838 244.755 140.821 244.79 140.79C244.825 140.759 244.847 140.716 244.853 140.67C244.853 140.584 244.831 140.499 244.788 140.425C244.745 140.35 244.683 140.288 244.608 140.246C244.534 140.202 244.449 140.178 244.363 140.178C244.277 140.178 244.192 140.202 244.118 140.246L244.084 140.266C243.85 140.405 243.655 140.603 243.52 140.84C243.385 141.077 243.313 141.345 243.313 141.618V142.532C243.312 142.64 243.341 142.747 243.397 142.84C243.453 142.933 243.533 143.008 243.629 143.059C243.724 143.11 243.831 143.135 243.939 143.129C244.047 143.124 244.151 143.088 244.241 143.028C244.277 143.004 244.304 142.967 244.315 142.925L243.987 142.731Z" fill="white"/>
<path d="M242.185 141.692C242.153 141.702 242.118 141.705 242.085 141.699C242.052 141.694 242.02 141.681 241.992 141.662C241.965 141.642 241.942 141.616 241.926 141.587C241.91 141.557 241.901 141.524 241.9 141.49V140.576C241.901 140.369 241.955 140.165 242.058 139.985C242.161 139.804 242.308 139.654 242.487 139.548L242.521 139.528C242.537 139.518 242.556 139.513 242.575 139.513C242.594 139.513 242.613 139.518 242.629 139.528C242.646 139.537 242.66 139.551 242.67 139.567C242.679 139.584 242.684 139.603 242.683 139.622C242.689 139.668 242.711 139.711 242.746 139.742C242.781 139.773 242.826 139.79 242.872 139.79C242.919 139.79 242.964 139.773 242.999 139.742C243.034 139.711 243.056 139.668 243.062 139.622C243.063 139.536 243.041 139.451 242.997 139.377C242.954 139.302 242.892 139.24 242.817 139.198C242.743 139.155 242.658 139.132 242.572 139.132C242.486 139.132 242.402 139.155 242.327 139.198L242.293 139.221C242.059 139.36 241.864 139.558 241.729 139.795C241.594 140.032 241.522 140.3 241.521 140.573V141.487C241.522 141.595 241.551 141.701 241.607 141.794C241.663 141.887 241.742 141.963 241.838 142.014C241.925 142.06 242.023 142.085 242.122 142.085C242.24 142.086 242.356 142.05 242.453 141.983C242.489 141.959 242.515 141.922 242.527 141.88L242.185 141.692Z" fill="white"/>
<path d="M263.334 137.934L252.91 143.953L239.346 136.123L249.769 130.104L263.334 137.934Z" fill="#E6E6E6"/>
<path d="M263.93 137.737L253.04 142.862L240.182 133.922L251.072 128.8L263.93 137.737Z" fill="#FAFAFA"/>
<path d="M250.051 134.193C249.636 134.598 249.356 135.121 249.246 135.69C249.137 136.259 249.204 136.848 249.439 137.379C249.925 138.517 251.147 139.161 252.337 139.201C252.949 139.226 253.556 139.079 254.09 138.777C254.623 138.475 255.061 138.03 255.355 137.492C255.639 136.951 255.698 136.32 255.52 135.736C255.322 135.142 254.935 134.629 254.418 134.275C253.735 133.829 252.934 133.595 252.118 133.603C251.426 133.589 250.592 133.652 250.125 134.221C250.031 134.332 250.193 134.506 250.287 134.383C250.68 133.914 251.335 133.842 251.91 133.834C252.596 133.806 253.28 133.941 253.903 134.23C254.948 134.748 255.691 135.909 255.292 137.077C255.085 137.603 254.732 138.06 254.274 138.392C253.816 138.725 253.272 138.919 252.707 138.953C252.151 139.005 251.592 138.908 251.086 138.671C250.58 138.434 250.147 138.067 249.831 137.606C249.518 137.101 249.386 136.504 249.456 135.913C249.526 135.322 249.795 134.773 250.219 134.355C250.327 134.258 250.165 134.096 250.056 134.193H250.051Z" fill="#BA68C8"/>
<path d="M251.657 137.566C251.923 137.644 252.203 137.663 252.477 137.622C252.752 137.581 253.014 137.48 253.245 137.327C253.468 137.174 253.647 136.967 253.767 136.724C253.886 136.482 253.941 136.213 253.926 135.944C253.911 135.638 253.798 135.346 253.604 135.109C253.51 134.995 253.348 135.158 253.442 135.272C253.618 135.509 253.708 135.799 253.698 136.094C253.689 136.389 253.579 136.672 253.388 136.897C253.178 137.12 252.911 137.28 252.616 137.36C252.321 137.439 252.009 137.435 251.716 137.347C251.688 137.342 251.659 137.347 251.634 137.362C251.61 137.377 251.592 137.401 251.584 137.429C251.576 137.457 251.58 137.486 251.593 137.512C251.607 137.538 251.629 137.557 251.657 137.566Z" fill="#BA68C8"/>
<path d="M249.459 138.116C249.129 138.047 248.817 137.908 248.546 137.708C248.275 137.507 248.05 137.25 247.888 136.954C247.765 136.715 247.671 136.345 247.865 136.1C248.15 135.77 248.594 136.052 248.773 136.325C248.866 136.446 248.928 136.588 248.955 136.738C248.955 136.977 248.58 136.633 248.506 136.561C248.26 136.32 248.088 136.014 248.01 135.679C247.868 135.044 248.15 134.255 248.864 134.153C249.149 134.119 249.536 134.221 249.625 134.534C249.67 134.699 249.585 134.89 249.385 134.773C249.315 134.721 249.257 134.656 249.213 134.58C249.169 134.505 249.14 134.421 249.129 134.335C249.097 134.184 249.095 134.028 249.123 133.876C249.152 133.725 249.211 133.58 249.296 133.451C249.381 133.322 249.491 133.212 249.619 133.126C249.747 133.04 249.892 132.981 250.043 132.951C250.351 132.903 250.666 132.974 250.923 133.15C251.02 133.216 251.276 133.415 251.162 133.543C250.991 133.728 250.809 133.427 250.789 133.284C250.783 133.122 250.829 132.962 250.922 132.829C251.014 132.695 251.147 132.595 251.302 132.544C251.474 132.492 251.657 132.481 251.834 132.511C252.012 132.541 252.181 132.612 252.327 132.718C252.508 132.823 252.666 132.964 252.791 133.133C252.93 133.364 252.645 133.509 252.475 133.358C252.141 133.074 252.497 132.666 252.819 132.604C253.241 132.521 253.673 132.795 254.001 133.022C254.346 133.263 254.65 133.557 254.903 133.894C254.992 134.01 255.188 133.894 255.103 133.777C254.773 133.338 254.362 132.966 253.893 132.681C253.471 132.427 252.922 132.211 252.469 132.498C252.384 132.546 252.311 132.613 252.254 132.693C252.198 132.773 252.161 132.864 252.145 132.961C252.129 133.057 252.134 133.156 252.161 133.25C252.188 133.344 252.236 133.43 252.301 133.504C252.571 133.788 253.175 133.615 253.064 133.165C252.975 132.946 252.819 132.761 252.617 132.638C252.407 132.47 252.161 132.352 251.899 132.291C251.678 132.237 251.446 132.252 251.233 132.333C251.021 132.414 250.838 132.558 250.709 132.746C250.496 133.065 250.49 133.68 250.943 133.808C251.029 133.831 251.12 133.825 251.202 133.79C251.284 133.756 251.352 133.695 251.396 133.617C251.498 133.412 251.347 133.21 251.202 133.076C251.04 132.928 250.846 132.821 250.635 132.762C250.424 132.704 250.202 132.696 249.987 132.741C249.772 132.785 249.571 132.879 249.4 133.016C249.23 133.154 249.094 133.329 249.004 133.529C248.91 133.731 248.87 133.954 248.886 134.176C248.901 134.398 248.974 134.612 249.095 134.799C249.15 134.889 249.234 134.959 249.332 134.997C249.431 135.036 249.54 135.041 249.642 135.013C249.716 134.98 249.779 134.926 249.821 134.856C249.864 134.787 249.883 134.706 249.878 134.625C249.878 134.181 249.42 133.928 249.024 133.919C248.798 133.916 248.576 133.975 248.383 134.091C248.189 134.206 248.031 134.374 247.928 134.574C247.818 134.794 247.757 135.035 247.748 135.28C247.739 135.525 247.781 135.77 247.873 135.998C247.959 136.219 248.081 136.424 248.235 136.604C248.383 136.801 248.579 136.957 248.805 137.057C248.848 137.071 248.895 137.075 248.941 137.067C248.986 137.059 249.029 137.041 249.066 137.013C249.103 136.985 249.132 136.948 249.151 136.906C249.171 136.864 249.18 136.818 249.178 136.772C249.149 136.541 249.058 136.322 248.913 136.14C248.651 135.781 248.11 135.551 247.737 135.89C247.421 136.174 247.495 136.667 247.657 137.011C247.888 137.461 248.252 137.829 248.699 138.065C248.916 138.181 249.148 138.268 249.388 138.321C249.531 138.352 249.593 138.13 249.448 138.099L249.459 138.116Z" fill="#BA68C8"/>
<path d="M250.992 136.214C250.984 136.229 250.975 136.242 250.964 136.254L250.947 136.271C250.938 136.282 250.927 136.292 250.915 136.3C250.895 136.322 250.915 136.3 250.915 136.3L250.887 136.317L250.847 136.342H250.83C250.815 136.35 250.798 136.355 250.781 136.357H250.73H250.636H250.588C250.588 136.357 250.571 136.357 250.565 136.357L250.531 136.334L250.514 136.32V136.305C250.494 136.283 250.514 136.32 250.514 136.305L250.494 136.277V136.257C250.494 136.257 250.494 136.228 250.494 136.217C250.493 136.204 250.493 136.19 250.494 136.177C250.494 136.191 250.494 136.203 250.494 136.177V136.12C250.494 136.12 250.494 136.106 250.494 136.1C250.494 136.095 250.494 136.117 250.494 136.1C250.493 136.084 250.493 136.068 250.494 136.052L250.511 136.018V136.001C250.511 135.986 250.525 136.001 250.511 136.001C250.497 136.001 250.531 135.981 250.539 135.972H250.554C250.539 135.972 250.539 135.992 250.554 135.972L250.588 135.952H250.611H250.639H250.685C250.662 135.952 250.713 135.952 250.685 135.952L250.75 135.972C250.73 135.972 250.779 135.972 250.75 135.972L250.784 135.992L250.836 136.023L250.867 136.052L250.912 136.095L250.964 136.149L250.981 136.171V136.186C250.997 136.211 251.022 136.23 251.051 136.238C251.08 136.246 251.111 136.242 251.137 136.228C251.15 136.221 251.162 136.211 251.171 136.199C251.18 136.187 251.186 136.173 251.19 136.158C251.194 136.144 251.194 136.129 251.192 136.114C251.19 136.099 251.185 136.085 251.177 136.072C251.07 135.895 250.897 135.768 250.696 135.719C250.609 135.703 250.52 135.716 250.441 135.755C250.363 135.795 250.299 135.859 250.26 135.938C250.225 136.009 250.207 136.087 250.207 136.166C250.207 136.245 250.225 136.323 250.26 136.394C250.303 136.467 250.365 136.527 250.439 136.567C250.513 136.607 250.597 136.626 250.682 136.621C250.78 136.618 250.876 136.59 250.961 136.541C251.046 136.491 251.118 136.421 251.169 136.337C251.178 136.324 251.184 136.309 251.187 136.294C251.19 136.278 251.189 136.262 251.186 136.247C251.183 136.232 251.176 136.217 251.167 136.205C251.157 136.192 251.146 136.181 251.132 136.173C251.118 136.166 251.103 136.161 251.088 136.159C251.072 136.157 251.056 136.159 251.041 136.163C251.026 136.168 251.012 136.175 251.001 136.186C250.989 136.196 250.979 136.209 250.972 136.223L250.992 136.214Z" fill="#BA68C8"/>
<path d="M251.553 134.927C251.561 135.015 251.595 135.098 251.651 135.166C251.706 135.234 251.781 135.284 251.866 135.309C251.948 135.337 252.037 135.339 252.12 135.312C252.203 135.285 252.275 135.232 252.324 135.161C252.364 135.09 252.385 135.011 252.385 134.93C252.385 134.849 252.364 134.77 252.324 134.699C252.283 134.623 252.217 134.562 252.136 134.529C252.056 134.496 251.966 134.492 251.883 134.517C251.783 134.547 251.696 134.609 251.635 134.694C251.576 134.776 251.552 134.878 251.567 134.978C251.576 135.007 251.596 135.032 251.622 135.046C251.649 135.061 251.68 135.065 251.709 135.058C251.738 135.048 251.762 135.028 251.776 135.002C251.791 134.976 251.796 134.945 251.789 134.916C251.789 134.916 251.789 134.941 251.789 134.93V134.899C251.79 134.891 251.79 134.884 251.789 134.876C251.79 134.868 251.79 134.861 251.789 134.853C251.789 134.853 251.789 134.825 251.812 134.813C251.829 134.788 251.835 134.802 251.812 134.813L251.846 134.779C251.846 134.779 251.86 134.779 251.866 134.779L251.906 134.756H251.929H251.949C251.963 134.758 251.977 134.758 251.991 134.756H252.014H252.037C252.017 134.756 252.057 134.756 252.037 134.756C252.048 134.765 252.061 134.771 252.074 134.776C252.054 134.776 252.057 134.776 252.074 134.776V134.791V134.805C252.081 134.816 252.088 134.827 252.094 134.839C252.094 134.839 252.094 134.862 252.094 134.839C252.095 134.852 252.095 134.866 252.094 134.879C252.092 134.884 252.092 134.89 252.094 134.896V134.956C252.094 134.927 252.094 134.976 252.094 134.956V134.993C252.093 134.999 252.093 135.006 252.094 135.013C252.094 134.996 252.094 135.035 252.094 135.013C252.089 135.026 252.082 135.038 252.074 135.05V135.064V135.078H252.051H252.031H252.014H252C252 135.078 252.028 135.078 252.014 135.078H251.951H251.906C251.898 135.077 251.891 135.077 251.883 135.078L251.843 135.052L251.823 135.035L251.806 135.018L251.792 134.996C251.792 134.996 251.792 134.996 251.792 134.973C251.79 134.965 251.79 134.957 251.792 134.95C251.79 134.92 251.778 134.891 251.756 134.87C251.734 134.849 251.705 134.837 251.675 134.836C251.645 134.837 251.617 134.849 251.595 134.87C251.574 134.891 251.562 134.92 251.561 134.95L251.553 134.927Z" fill="#BA68C8"/>
<path d="M268.985 123.897L264.367 126.533C264.008 126.739 263.602 126.847 263.188 126.847C262.775 126.847 262.369 126.739 262.01 126.533L259.049 124.825L258.713 124.632C258.362 124.429 258.072 124.139 257.869 123.789C257.666 123.44 257.558 123.043 257.557 122.638V114.091L264.49 110.145V118.846C264.49 119.196 264.582 119.539 264.757 119.842C264.932 120.145 265.183 120.396 265.486 120.571L268.991 122.596C269.106 122.661 269.202 122.756 269.269 122.871C269.335 122.985 269.37 123.115 269.369 123.248C269.369 123.38 269.333 123.51 269.265 123.625C269.198 123.739 269.101 123.833 268.985 123.897Z" fill="#E0E0E0"/>
<path d="M263.381 126.818C263.728 126.791 264.065 126.688 264.369 126.516L268.987 123.886C269.101 123.82 269.196 123.726 269.262 123.612C269.328 123.499 269.363 123.369 269.363 123.238C269.363 123.106 269.328 122.977 269.262 122.863C269.196 122.75 269.101 122.655 268.987 122.59L266.592 121.209H263.375L263.381 126.818Z" fill="#E6E6E6"/>
<path d="M268.903 122.029L269.031 122.132C269.135 122.214 269.219 122.319 269.276 122.438C269.334 122.557 269.364 122.688 269.364 122.821V123.251H268.9L268.903 122.029Z" fill="#E6E6E6"/>
<path d="M265.026 110.805V118.635C265.025 118.974 265.114 119.308 265.284 119.602C265.453 119.896 265.697 120.14 265.991 120.309L268.906 122.018C269.017 122.081 269.109 122.172 269.173 122.283C269.237 122.393 269.271 122.518 269.271 122.645C269.271 122.773 269.237 122.898 269.173 123.008C269.109 123.119 269.017 123.21 268.906 123.273L268.576 123.461L264.433 125.819C264.086 126.017 263.694 126.121 263.294 126.121C262.895 126.121 262.502 126.017 262.156 125.819L259.286 124.125C258.992 123.955 258.748 123.712 258.579 123.418C258.409 123.125 258.32 122.792 258.32 122.453V114.623L265.026 110.805Z" fill="#F0F0F0"/>
<path d="M265.025 118.635V110.805L258.314 114.623V122.456C258.314 122.795 258.403 123.128 258.573 123.421C258.742 123.715 258.986 123.958 259.28 124.127L265.88 120.247C265.615 120.069 265.399 119.829 265.25 119.548C265.101 119.267 265.024 118.953 265.025 118.635Z" fill="#E6E6E6"/>
<path d="M243.788 128.287L243.025 128.729V130.124C242.535 130.123 242.055 129.99 241.635 129.739L241.575 129.705C241.4 129.601 241.248 129.463 241.128 129.298C241.008 129.134 240.923 128.947 240.878 128.749C240.851 128.663 240.838 128.574 240.838 128.484V126.585L243.788 128.287Z" fill="#E0E0E0"/>
<path d="M276.929 77.0485L276.87 77.0143C276.45 76.763 275.97 76.6302 275.48 76.63C275.323 76.6279 275.168 76.6693 275.033 76.7495L242.168 95.6495C241.763 95.8822 241.427 96.2174 241.194 96.6213C240.961 97.0252 240.838 97.4835 240.838 97.95V126.585L243.788 128.293L275.01 110.355C275.415 110.122 275.75 109.786 275.984 109.382C276.217 108.978 276.34 108.519 276.34 108.052V78.3468H277.667C277.667 78.085 277.599 77.8277 277.47 77.6001C277.341 77.3724 277.154 77.1824 276.929 77.0485Z" fill="#37474F"/>
<path d="M241.109 96.757C240.923 97.1271 240.825 97.5356 240.824 97.95V126.585L243.774 128.293L244.879 127.655V99.0946L241.109 96.757Z" fill="#263238"/>
<path d="M242.166 127.351V129.25C242.166 129.403 242.206 129.553 242.283 129.685C242.359 129.818 242.469 129.928 242.602 130.004C242.734 130.081 242.884 130.121 243.037 130.121C243.19 130.121 243.34 130.081 243.473 130.004L276.339 111.104C276.743 110.871 277.079 110.536 277.312 110.132C277.545 109.728 277.668 109.27 277.668 108.804V106.853L242.166 127.351Z" fill="#F0F0F0"/>
<path d="M277.668 78.27C277.668 78.1175 277.628 77.9677 277.551 77.8357C277.475 77.7036 277.365 77.5939 277.233 77.5175C277.101 77.4411 276.951 77.4008 276.799 77.4004C276.646 77.4 276.497 77.4397 276.364 77.5155L243.496 96.4154C243.091 96.6489 242.756 96.9846 242.522 97.389C242.289 97.7933 242.166 98.252 242.166 98.7188V127.351L277.668 106.851" fill="#455A64"/>
<path d="M275.763 79.5883C275.613 79.5875 275.465 79.6216 275.33 79.6879L244.435 97.4461C244.078 97.6526 243.782 97.949 243.577 98.3058C243.371 98.6626 243.262 99.0671 243.262 99.479V123.877C243.261 123.982 243.283 124.086 243.324 124.182C243.368 124.281 243.432 124.37 243.512 124.443C243.593 124.516 243.687 124.572 243.79 124.606C243.894 124.64 244.003 124.652 244.111 124.641C244.219 124.631 244.323 124.597 244.418 124.543L275.304 106.785C275.661 106.579 275.957 106.282 276.163 105.925C276.369 105.569 276.477 105.164 276.478 104.752V80.3542C276.477 80.1598 276.403 79.9728 276.271 79.8307C276.138 79.6886 275.957 79.6019 275.763 79.5883Z" fill="#BA68C8"/>
<path opacity="0.5" d="M275.763 79.5883C275.613 79.5875 275.465 79.6216 275.33 79.6879L244.435 97.4461C244.078 97.6526 243.782 97.949 243.577 98.3058C243.371 98.6626 243.262 99.0671 243.262 99.479V123.877C243.261 123.982 243.283 124.086 243.324 124.182C243.368 124.281 243.432 124.37 243.512 124.443C243.593 124.516 243.687 124.572 243.79 124.606C243.894 124.64 244.003 124.652 244.111 124.641C244.219 124.631 244.323 124.597 244.418 124.543L275.304 106.785C275.661 106.579 275.957 106.282 276.163 105.925C276.369 105.569 276.477 105.164 276.478 104.752V80.3542C276.477 80.1598 276.403 79.9728 276.271 79.8307C276.138 79.6886 275.957 79.6019 275.763 79.5883Z" fill="white"/>
<path d="M288.685 128.871L288.443 129.008C288.342 128.903 288.227 128.813 288.102 128.74L278.674 123.299C277.968 122.889 276.898 122.846 276.286 123.199L259.646 132.797C259.602 132.825 259.561 132.855 259.521 132.888L259.236 132.726V133.429C259.263 133.591 259.328 133.743 259.428 133.874C259.527 134.004 259.657 134.107 259.806 134.175L269.244 139.631C269.95 140.038 271.021 140.083 271.633 139.73L288.272 130.124C288.386 130.07 288.484 129.988 288.556 129.884C288.627 129.781 288.67 129.66 288.68 129.534L288.685 128.871Z" fill="#263238"/>
<path d="M288.272 129.458L271.633 139.061C271.02 139.417 269.95 139.372 269.244 138.965L259.817 133.521C259.11 133.113 259.034 132.496 259.646 132.143L276.285 122.547C276.897 122.191 277.968 122.237 278.674 122.644L288.101 128.088C288.81 128.487 288.887 129.096 288.272 129.458Z" fill="#37474F"/>
<path d="M286.263 129.122L273.208 136.658C273.024 136.742 272.822 136.781 272.62 136.773C272.418 136.765 272.22 136.709 272.044 136.61L263.886 131.906C263.542 131.71 263.505 131.408 263.804 131.237L276.87 123.686C277.054 123.603 277.255 123.564 277.458 123.572C277.66 123.581 277.857 123.636 278.034 123.735L286.18 128.438C286.525 128.649 286.562 128.948 286.263 129.122Z" fill="#455A64"/>
<path d="M266.286 135.895C266.885 135.895 267.371 135.615 267.371 135.269C267.371 134.923 266.885 134.642 266.286 134.642C265.687 134.642 265.201 134.923 265.201 135.269C265.201 135.615 265.687 135.895 266.286 135.895Z" fill="#263238"/>
<path d="M268.771 136.04L267.632 136.695C267.561 136.727 267.483 136.742 267.405 136.738C267.327 136.735 267.251 136.713 267.182 136.675C267.052 136.598 267.037 136.482 267.151 136.416L268.29 135.761C268.361 135.729 268.439 135.715 268.517 135.718C268.595 135.722 268.672 135.743 268.74 135.781C268.871 135.858 268.888 135.975 268.771 136.04Z" fill="#263238"/>
<path d="M269.847 136.661L268.709 137.316C268.637 137.348 268.559 137.362 268.481 137.359C268.403 137.356 268.327 137.334 268.259 137.296C268.128 137.219 268.113 137.105 268.227 137.037L269.366 136.385C269.437 136.352 269.515 136.336 269.593 136.339C269.671 136.342 269.748 136.364 269.816 136.402C269.947 136.479 269.961 136.596 269.847 136.661Z" fill="#263238"/>
<path d="M264.355 133.492L263.216 134.144C263.146 134.177 263.068 134.193 262.99 134.19C262.913 134.187 262.837 134.165 262.769 134.127C262.635 134.05 262.621 133.933 262.735 133.868L263.874 133.213C263.945 133.181 264.023 133.167 264.101 133.17C264.179 133.173 264.255 133.195 264.324 133.233C264.455 133.31 264.472 133.424 264.355 133.492Z" fill="#263238"/>
<path d="M265.431 134.113L264.293 134.768C264.221 134.799 264.143 134.814 264.065 134.811C263.987 134.807 263.911 134.786 263.843 134.748C263.712 134.671 263.697 134.554 263.811 134.489L264.95 133.834C265.022 133.802 265.099 133.787 265.178 133.791C265.256 133.794 265.332 133.816 265.4 133.854C265.534 133.936 265.548 134.047 265.431 134.113Z" fill="#263238"/>
<path d="M275.524 117.485L273.593 117.32L271.66 117.479L272.147 120.238V120.267C272.178 120.372 272.231 120.47 272.302 120.555C272.373 120.639 272.461 120.708 272.56 120.756C272.878 120.917 273.23 121.001 273.586 121.001C273.943 121.001 274.294 120.917 274.613 120.756C274.718 120.706 274.81 120.633 274.883 120.543C274.956 120.452 275.008 120.346 275.034 120.233L275.524 117.485Z" fill="#37474F"/>
<path d="M274.963 116.611C275.721 117.049 275.721 117.75 274.963 118.194C274.539 118.41 274.07 118.523 273.594 118.523C273.118 118.523 272.648 118.41 272.224 118.194C271.467 117.758 271.467 117.055 272.224 116.611C272.649 116.396 273.118 116.284 273.594 116.284C274.07 116.284 274.539 116.396 274.963 116.611Z" fill="#455A64"/>
<path d="M273.595 111.338C273.524 111.337 273.454 111.351 273.388 111.378C273.323 111.405 273.263 111.445 273.213 111.495C273.163 111.545 273.124 111.604 273.097 111.67C273.07 111.735 273.056 111.805 273.057 111.876V117.206C273.061 117.253 273.077 117.298 273.105 117.337C273.133 117.376 273.17 117.406 273.213 117.425C273.331 117.486 273.461 117.517 273.593 117.517C273.726 117.517 273.856 117.486 273.973 117.425C274.017 117.406 274.055 117.376 274.083 117.337C274.111 117.299 274.128 117.253 274.133 117.206V111.876C274.133 111.733 274.076 111.596 273.975 111.495C273.874 111.394 273.737 111.338 273.595 111.338Z" fill="#263238"/>
<path d="M259.216 74.4293C259.105 74.4293 258.995 74.4546 258.895 74.5033L236.083 87.6205C235.822 87.7749 235.605 87.9948 235.456 88.2585C235.306 88.5222 235.228 88.8205 235.229 89.1238V107.138C235.228 107.216 235.245 107.293 235.277 107.363C235.309 107.437 235.356 107.503 235.415 107.557C235.474 107.611 235.544 107.652 235.62 107.677C235.696 107.703 235.777 107.711 235.856 107.703C235.936 107.695 236.013 107.671 236.083 107.631L258.892 94.5165C259.156 94.3639 259.375 94.1447 259.527 93.8809C259.679 93.6171 259.76 93.3178 259.76 93.0132V74.9987C259.76 74.852 259.704 74.7109 259.603 74.6048C259.501 74.4988 259.363 74.4359 259.216 74.4293Z" fill="#E0E0E0"/>
<path d="M259.205 74.7139C259.277 74.719 259.344 74.7512 259.394 74.8041C259.443 74.8569 259.47 74.9265 259.47 74.9987V93.0131C259.47 93.2692 259.403 93.5209 259.275 93.7427C259.147 93.9646 258.963 94.149 258.741 94.2773L235.929 107.392C235.885 107.418 235.835 107.431 235.784 107.432C235.724 107.436 235.664 107.421 235.613 107.39C235.562 107.358 235.522 107.311 235.499 107.255C235.484 107.218 235.477 107.178 235.476 107.138V89.1238C235.476 88.8677 235.544 88.616 235.672 88.3942C235.799 88.1723 235.983 87.9879 236.205 87.8596L259.046 74.7453C259.1 74.7204 259.159 74.7077 259.219 74.7082M259.219 74.4235C259.108 74.4236 258.998 74.4489 258.898 74.4976L236.083 87.6205C235.822 87.7748 235.605 87.9948 235.456 88.2585C235.306 88.5222 235.228 88.8205 235.229 89.1238V107.138C235.228 107.216 235.245 107.293 235.277 107.363C235.321 107.465 235.393 107.552 235.486 107.613C235.579 107.674 235.687 107.707 235.798 107.708C235.898 107.706 235.996 107.68 236.083 107.631L258.892 94.5165C259.156 94.3639 259.375 94.1447 259.527 93.8808C259.679 93.617 259.76 93.3178 259.76 93.0131V74.9987C259.761 74.8543 259.706 74.7152 259.608 74.6095C259.51 74.5038 259.375 74.4393 259.231 74.4292L259.219 74.4235Z" fill="#E0E0E0"/>
<path d="M235.465 107.608L236.265 108.169V106.871L235.465 107.608Z" fill="#E0E0E0"/>
<path d="M259.473 74.5173L260.285 75.0839L259.285 75.7929L259.473 74.5173Z" fill="#E0E0E0"/>
<path d="M259.998 74.9816C259.887 74.9805 259.778 75.0059 259.679 75.0556L236.864 88.17C236.603 88.3237 236.387 88.5431 236.237 88.8064C236.087 89.0696 236.009 89.3675 236.01 89.6705V107.688C236.01 107.765 236.025 107.841 236.055 107.913C236.087 107.986 236.135 108.052 236.194 108.106C236.253 108.159 236.323 108.2 236.399 108.225C236.475 108.25 236.556 108.259 236.635 108.251C236.715 108.242 236.792 108.217 236.861 108.177L259.673 95.0802C259.934 94.9261 260.151 94.7062 260.301 94.4424C260.45 94.1786 260.529 93.8802 260.527 93.5769V75.5482C260.527 75.4043 260.472 75.2659 260.374 75.1608C260.276 75.0557 260.141 74.9917 259.998 74.9816Z" fill="white"/>
<path d="M259.986 75.2578C260.058 75.2629 260.126 75.2951 260.175 75.3479C260.224 75.4008 260.251 75.4704 260.251 75.5425V93.5627C260.251 93.8187 260.183 94.0701 260.055 94.2919C259.927 94.5137 259.744 94.6981 259.522 94.8269L236.71 107.941C236.666 107.967 236.616 107.981 236.565 107.981C236.505 107.986 236.445 107.971 236.394 107.939C236.343 107.907 236.303 107.86 236.28 107.805C236.266 107.767 236.258 107.728 236.257 107.688V89.6705C236.258 89.4149 236.326 89.1638 236.453 88.9425C236.581 88.7212 236.765 88.5373 236.986 88.4092L259.81 75.2834C259.865 75.2576 259.925 75.2449 259.986 75.2464M259.986 74.9617C259.876 74.9606 259.766 74.986 259.667 75.0357L236.864 88.17C236.603 88.3237 236.387 88.5431 236.237 88.8064C236.087 89.0697 236.009 89.3676 236.01 89.6705V107.688C236.01 107.765 236.025 107.841 236.055 107.913C236.1 108.015 236.173 108.101 236.266 108.162C236.359 108.223 236.468 108.255 236.579 108.254C236.679 108.255 236.778 108.229 236.864 108.178L259.676 95.0803C259.937 94.9261 260.154 94.7062 260.303 94.4424C260.453 94.1787 260.531 93.8803 260.53 93.5769V75.5482C260.531 75.4043 260.476 75.2656 260.379 75.16C260.281 75.0543 260.147 74.9896 260.003 74.9788L259.986 74.9617Z" fill="#E0E0E0"/>
<path d="M247.429 94.6446C247.431 94.3989 247.448 94.1536 247.48 93.9101C245.889 94.4567 244.653 93.6823 244.4 91.9654C242.614 93.4146 241.268 96.0142 241.268 98.2008C241.268 100.695 243.019 101.706 245.18 100.459C246.432 99.7355 247.543 98.4115 248.26 96.9424C247.739 96.4868 247.429 95.7038 247.429 94.6446Z" fill="#BA68C8"/>
<path opacity="0.7" d="M247.429 94.6446C247.431 94.3989 247.448 94.1536 247.48 93.9101C245.889 94.4567 244.653 93.6823 244.4 91.9654C242.614 93.4146 241.268 96.0142 241.268 98.2008C241.268 100.695 243.019 101.706 245.18 100.459C246.432 99.7355 247.543 98.4115 248.26 96.9424C247.739 96.4868 247.429 95.7038 247.429 94.6446Z" fill="white"/>
<path d="M252.118 87.5265C251.787 89.6714 250.693 91.6249 249.037 93.0274C249.072 93.2497 249.09 93.4743 249.091 93.6993C249.059 94.8342 248.775 95.9477 248.26 96.9594C248.974 97.6029 250.088 97.6427 251.338 96.9195C253.499 95.6725 255.25 92.6487 255.25 90.1431C255.25 87.9536 253.92 86.9058 252.118 87.5265Z" fill="#BA68C8"/>
<path opacity="0.3" d="M252.118 87.5265C251.787 89.6714 250.693 91.6249 249.037 93.0274C249.072 93.2497 249.09 93.4743 249.091 93.6993C249.059 94.8342 248.775 95.9477 248.26 96.9594C248.974 97.6029 250.088 97.6427 251.338 96.9195C253.499 95.6725 255.25 92.6487 255.25 90.1431C255.25 87.9536 253.92 86.9058 252.118 87.5265Z" fill="black"/>
<path d="M249.036 93.0216C248.791 93.2204 248.531 93.4003 248.259 93.5597C248.011 93.7037 247.749 93.8248 247.479 93.9213C247.447 94.1649 247.429 94.4102 247.428 94.6559C247.428 95.7037 247.738 96.4867 248.259 96.9536C248.77 95.941 249.05 94.8275 249.079 93.6936C249.082 93.4688 249.067 93.2442 249.036 93.0216Z" fill="#BA68C8"/>
<path opacity="0.5" d="M249.036 93.0216C248.791 93.2204 248.531 93.4003 248.259 93.5597C248.011 93.7037 247.749 93.8248 247.479 93.9213C247.447 94.1649 247.429 94.4102 247.428 94.6559C247.428 95.7037 247.738 96.4867 248.259 96.9536C248.77 95.941 249.05 94.8275 249.079 93.6936C249.082 93.4688 249.067 93.2442 249.036 93.0216Z" fill="black"/>
<path d="M248.26 91.3959C248.974 89.9267 250.088 88.6028 251.338 87.8796C251.586 87.7372 251.847 87.619 252.118 87.5265C252.15 87.283 252.167 87.0376 252.169 86.7919C252.169 84.2978 250.418 83.287 248.26 84.5341C246.102 85.7812 244.348 88.8049 244.348 91.3076C244.348 91.5335 244.365 91.7591 244.399 91.9824C244.644 91.7817 244.905 91.6008 245.179 91.4415C246.432 90.7126 247.542 90.7524 248.26 91.3959Z" fill="#BA68C8"/>
<path d="M247.479 93.9213C247.6 93.0426 247.864 92.1896 248.259 91.3958C247.542 90.7523 246.431 90.7124 245.179 91.4356C244.905 91.595 244.644 91.7759 244.398 91.9766C244.652 93.6935 245.888 94.4679 247.479 93.9213Z" fill="#BA68C8"/>
<path opacity="0.3" d="M247.479 93.9213C247.6 93.0426 247.864 92.1896 248.259 91.3958C247.542 90.7523 246.431 90.7124 245.179 91.4356C244.905 91.595 244.644 91.7759 244.398 91.9766C244.652 93.6935 245.888 94.4679 247.479 93.9213Z" fill="white"/>
<path d="M248.26 91.3958C248.701 91.8301 248.976 92.4054 249.037 93.0216C250.692 91.6205 251.786 89.6693 252.118 87.5264C251.847 87.6207 251.586 87.7409 251.338 87.8852C250.088 88.6027 248.974 89.9266 248.26 91.3958Z" fill="#BA68C8"/>
<path opacity="0.7" d="M248.26 91.3958C248.701 91.8301 248.976 92.4054 249.037 93.0216C250.692 91.6205 251.786 89.6693 252.118 87.5264C251.847 87.6207 251.586 87.7409 251.338 87.8852C250.088 88.6027 248.974 89.9266 248.26 91.3958Z" fill="black"/>
<path d="M248.261 91.3958C247.865 92.1897 247.602 93.0427 247.48 93.9213C247.751 93.8248 248.012 93.7037 248.261 93.5597C248.533 93.4003 248.793 93.2204 249.038 93.0216C248.977 92.4054 248.702 91.8301 248.261 91.3958Z" fill="#263238"/>
<path d="M273.165 88.9501C273.073 88.949 272.983 88.9695 272.9 89.0098L254.051 99.8464C253.833 99.9714 253.651 100.152 253.525 100.37C253.399 100.588 253.333 100.836 253.334 101.088V115.976C253.334 116.04 253.347 116.104 253.371 116.164C253.398 116.224 253.437 116.279 253.486 116.323C253.535 116.367 253.593 116.401 253.655 116.422C253.718 116.442 253.785 116.449 253.85 116.443C253.916 116.436 253.98 116.416 254.037 116.383L272.889 105.547C273.107 105.421 273.288 105.24 273.414 105.022C273.539 104.804 273.605 104.557 273.603 104.305V89.4227C273.605 89.3026 273.561 89.1866 273.479 89.0986C273.397 89.0105 273.285 88.9574 273.165 88.9501Z" fill="#E0E0E0"/>
<path d="M273.157 89.1835C273.217 89.1892 273.272 89.2169 273.312 89.2611C273.352 89.3054 273.374 89.363 273.374 89.4227V104.325C273.374 104.536 273.318 104.744 273.213 104.926C273.107 105.109 272.955 105.261 272.773 105.367L253.921 116.189C253.885 116.212 253.844 116.224 253.802 116.224C253.754 116.224 253.708 116.211 253.669 116.185C253.629 116.159 253.598 116.122 253.58 116.078C253.566 116.048 253.559 116.015 253.56 115.982V101.093C253.56 100.882 253.615 100.675 253.721 100.492C253.826 100.309 253.978 100.157 254.16 100.051L273.012 89.212C273.058 89.1916 273.107 89.1819 273.157 89.1835ZM273.157 88.9557C273.065 88.9547 272.975 88.9751 272.892 89.0155L254.044 99.8521C253.825 99.977 253.643 100.158 253.517 100.376C253.391 100.594 253.325 100.842 253.326 101.093V115.982C253.326 116.046 253.339 116.11 253.363 116.17C253.39 116.23 253.429 116.285 253.478 116.329C253.526 116.374 253.584 116.408 253.647 116.429C253.71 116.449 253.777 116.456 253.843 116.45C253.908 116.443 253.972 116.422 254.029 116.389L272.881 105.552C273.099 105.427 273.28 105.246 273.406 105.028C273.531 104.81 273.597 104.562 273.596 104.311V89.4227C273.597 89.304 273.554 89.1891 273.474 89.1013C273.394 89.0135 273.284 88.9594 273.166 88.95L273.157 88.9557Z" fill="#E0E0E0"/>
<path d="M253.539 116.369L254.2 116.833V115.76L253.539 116.369Z" fill="#E0E0E0"/>
<path d="M273.376 89.027L274.048 89.4939L273.223 90.0776L273.376 89.027Z" fill="#E0E0E0"/>
<path d="M273.808 89.4084C273.716 89.4076 273.625 89.4291 273.543 89.471L254.694 100.308C254.476 100.432 254.294 100.613 254.168 100.83C254.042 101.048 253.976 101.295 253.977 101.546V116.434C253.976 116.499 253.99 116.563 254.016 116.622C254.043 116.683 254.082 116.737 254.131 116.781C254.18 116.826 254.238 116.859 254.301 116.88C254.364 116.901 254.43 116.908 254.496 116.901C254.562 116.895 254.625 116.874 254.683 116.842L273.534 106.005C273.752 105.88 273.934 105.699 274.059 105.481C274.185 105.263 274.25 105.015 274.249 104.764V89.8754C274.249 89.7558 274.203 89.6408 274.121 89.5539C274.039 89.467 273.927 89.415 273.808 89.4084Z" fill="white"/>
<path d="M273.8 89.6362C273.859 89.6412 273.915 89.6687 273.955 89.7131C273.995 89.7575 274.017 89.8155 274.016 89.8754V104.764C274.016 104.975 273.96 105.183 273.855 105.366C273.749 105.549 273.598 105.702 273.415 105.808L254.564 116.645C254.527 116.665 254.486 116.676 254.444 116.676C254.397 116.676 254.351 116.663 254.312 116.637C254.272 116.611 254.241 116.574 254.222 116.531C254.209 116.501 254.202 116.468 254.202 116.434V101.546C254.203 101.335 254.258 101.127 254.364 100.944C254.47 100.761 254.623 100.61 254.806 100.504L273.655 89.6675C273.7 89.6465 273.75 89.6358 273.8 89.6362ZM273.8 89.4084C273.708 89.4076 273.617 89.4291 273.535 89.471L254.686 100.308C254.468 100.432 254.287 100.613 254.161 100.83C254.034 101.048 253.968 101.295 253.969 101.546V116.434C253.968 116.499 253.982 116.563 254.009 116.622C254.046 116.706 254.106 116.778 254.183 116.828C254.26 116.879 254.35 116.906 254.441 116.907C254.523 116.907 254.604 116.885 254.675 116.844L273.526 106.008C273.745 105.882 273.926 105.702 274.051 105.484C274.177 105.265 274.242 105.018 274.241 104.766V89.8754C274.241 89.7568 274.196 89.6425 274.116 89.5558C274.035 89.469 273.924 89.4164 273.805 89.4084H273.8Z" fill="#E0E0E0"/>
<path d="M271.889 104.285L257.67 112.494L261.872 101.563L264.779 105.02L267.755 100.783L271.889 104.285Z" fill="#BA68C8"/>
<path opacity="0.4" d="M271.889 104.285L257.67 112.494L261.872 101.563L264.779 105.02L267.755 100.783L271.889 104.285Z" fill="white"/>
<path d="M266.957 97.4661C266.933 97.916 266.803 98.3538 266.578 98.744C266.352 99.1343 266.039 99.4661 265.662 99.7126C264.944 100.125 264.363 99.7895 264.363 98.9638C264.387 98.5135 264.518 98.0753 264.743 97.6849C264.969 97.2945 265.284 96.963 265.662 96.7173C266.376 96.3045 266.957 96.6376 266.957 97.4661Z" fill="#BA68C8"/>
<path d="M301.152 140.613L305.423 163.317C305.459 163.495 305.562 163.651 305.711 163.754C305.861 163.857 306.044 163.897 306.222 163.867C306.401 163.837 306.561 163.739 306.669 163.593C306.776 163.448 306.823 163.266 306.798 163.086L303.666 142.051L301.152 140.613Z" fill="#263238"/>
<path d="M309.356 155.333L305.011 181.844C304.98 182.037 304.88 182.213 304.731 182.339C304.582 182.466 304.393 182.536 304.197 182.536C304.081 182.536 303.966 182.512 303.859 182.464C303.753 182.417 303.658 182.348 303.58 182.262C303.503 182.175 303.444 182.073 303.409 181.962C303.373 181.851 303.361 181.734 303.374 181.619L306.424 154.268L309.356 155.333Z" fill="#455A64"/>
<path d="M294.35 146.416L290.005 172.926C289.974 173.12 289.875 173.296 289.726 173.424C289.577 173.551 289.387 173.621 289.191 173.621C289.075 173.621 288.96 173.596 288.853 173.549C288.747 173.501 288.652 173.432 288.574 173.345C288.497 173.258 288.438 173.156 288.403 173.045C288.367 172.934 288.356 172.817 288.368 172.701L291.418 145.368L294.35 146.416Z" fill="#455A64"/>
<path d="M316.32 149.135L320.591 171.978C320.628 172.155 320.731 172.31 320.88 172.411C321.028 172.513 321.21 172.554 321.388 172.524C321.566 172.495 321.725 172.398 321.833 172.254C321.941 172.109 321.988 171.929 321.966 171.751L318.8 150.576L316.32 149.135Z" fill="#263238"/>
<path d="M302.095 138.885C303.077 138.45 303.926 137.763 304.556 136.894C305.187 136.025 305.577 135.004 305.686 133.936C306.378 126.981 308.818 112.648 317.129 117.422C327.379 123.311 323.706 140.414 322.217 145.895C321.884 147.132 321.235 148.261 320.335 149.172C318.481 151.037 314.64 154.249 308.132 156.982C307.331 157.317 306.441 157.37 305.606 157.133C302.369 156.21 293.91 153.377 289.69 147.982C289.451 147.676 289.342 147.287 289.387 146.901C289.432 146.515 289.628 146.163 289.932 145.92C291.643 144.551 295.504 141.823 302.095 138.885Z" fill="#BA68C8"/>
<path opacity="0.3" d="M302.095 138.885C303.077 138.45 303.926 137.763 304.556 136.894C305.187 136.025 305.577 135.004 305.686 133.936C306.378 126.981 308.818 112.648 317.129 117.422C327.379 123.311 323.706 140.414 322.217 145.895C321.884 147.132 321.235 148.261 320.335 149.172C318.481 151.037 314.64 154.249 308.132 156.982C307.331 157.317 306.441 157.37 305.606 157.133C302.369 156.21 293.91 153.377 289.69 147.982C289.451 147.676 289.342 147.287 289.387 146.901C289.432 146.515 289.628 146.163 289.932 145.92C291.643 144.551 295.504 141.823 302.095 138.885Z" fill="black"/>
<path d="M289.385 146.988C289.364 147.342 289.473 147.691 289.69 147.97C289.915 148.255 290.154 148.54 290.402 148.825C290.539 148.973 290.687 149.109 290.818 149.266C290.96 149.408 291.102 149.551 291.248 149.69H291.262C291.407 149.83 291.546 149.975 291.706 150.103C291.857 150.24 292.013 150.388 292.17 150.504C294.562 152.515 297.466 154.044 300.06 155.145L300.541 155.345L300.589 155.365C300.74 155.427 300.874 155.487 301.033 155.544L301.11 155.575L301.523 155.735L301.617 155.772L302.002 155.917L302.113 155.96L302.468 156.088L302.597 156.133L302.924 156.25L303.061 156.299L303.362 156.401L303.508 156.452L303.792 156.543L303.949 156.595L304.197 156.674L304.362 156.726L304.575 156.794L304.755 156.848L304.937 156.905L305.156 156.97L305.267 157.002L305.578 157.093C306.412 157.33 307.303 157.277 308.103 156.942C314.62 154.209 318.453 150.997 320.306 149.132C321.211 148.235 321.869 147.12 322.217 145.895C323.706 140.4 327.379 123.296 317.129 117.422C316.947 117.317 316.77 117.226 316.594 117.138L316.477 117.084C316.304 117 316.133 116.926 315.964 116.862L315.916 116.844C315.754 116.782 315.597 116.731 315.44 116.685L315.369 116.665C315.198 116.617 315.033 116.58 314.871 116.548H314.831C314.507 116.49 314.178 116.467 313.849 116.48H313.829C313.514 116.493 313.202 116.542 312.898 116.625C314.535 115.902 316.534 115.933 318.515 117.072C328.765 122.963 325.093 140.066 323.603 145.545L323.35 146.487C322.842 148.39 321.717 150.071 320.153 151.267L317.493 153.298C314.618 155.468 311.476 157.258 308.143 158.625C307.34 158.962 306.447 159.016 305.609 158.778C302.374 157.853 293.91 155.006 289.69 149.616C289.511 149.385 289.405 149.105 289.385 148.813V146.985V146.988Z" fill="#BA68C8"/>
<path opacity="0.5" d="M289.385 146.988C289.364 147.342 289.473 147.691 289.69 147.97C289.915 148.255 290.154 148.54 290.402 148.825C290.539 148.973 290.687 149.109 290.818 149.266C290.96 149.408 291.102 149.551 291.248 149.69H291.262C291.407 149.83 291.546 149.975 291.706 150.103C291.857 150.24 292.013 150.388 292.17 150.504C294.562 152.515 297.466 154.044 300.06 155.145L300.541 155.345L300.589 155.365C300.74 155.427 300.874 155.487 301.033 155.544L301.11 155.575L301.523 155.735L301.617 155.772L302.002 155.917L302.113 155.96L302.468 156.088L302.597 156.133L302.924 156.25L303.061 156.299L303.362 156.401L303.508 156.452L303.792 156.543L303.949 156.595L304.197 156.674L304.362 156.726L304.575 156.794L304.755 156.848L304.937 156.905L305.156 156.97L305.267 157.002L305.578 157.093C306.412 157.33 307.303 157.277 308.103 156.942C314.62 154.209 318.453 150.997 320.306 149.132C321.211 148.235 321.869 147.12 322.217 145.895C323.706 140.4 327.379 123.296 317.129 117.422C316.947 117.317 316.77 117.226 316.594 117.138L316.477 117.084C316.304 117 316.133 116.926 315.964 116.862L315.916 116.844C315.754 116.782 315.597 116.731 315.44 116.685L315.369 116.665C315.198 116.617 315.033 116.58 314.871 116.548H314.831C314.507 116.49 314.178 116.467 313.849 116.48H313.829C313.514 116.493 313.202 116.542 312.898 116.625C314.535 115.902 316.534 115.933 318.515 117.072C328.765 122.963 325.093 140.066 323.603 145.545L323.35 146.487C322.842 148.39 321.717 150.071 320.153 151.267L317.493 153.298C314.618 155.468 311.476 157.258 308.143 158.625C307.34 158.962 306.447 159.016 305.609 158.778C302.374 157.853 293.91 155.006 289.69 149.616C289.511 149.385 289.405 149.105 289.385 148.813V146.985V146.988Z" fill="black"/>
<path d="M320.576 106.116C320.576 106.116 322.854 103.761 325.453 105.262C328.053 106.762 326.82 111.526 326.071 112.878C325.323 114.231 323.936 119.094 327.999 118.109C327.999 118.109 326.609 120.102 323.728 119.558C320.847 119.014 320.289 115.546 321.057 112.676C321.826 109.806 320.588 108.502 320.588 108.502L320.576 106.116Z" fill="#263238"/>
<path d="M308.679 117.667C308.679 117.667 305.664 117.354 304.465 117.892C303.266 118.43 295.664 129.213 295.664 129.213C295.664 129.213 298.511 130.113 303.121 126.294C307.731 122.476 308.679 117.667 308.679 117.667Z" fill="#FFBE9D"/>
<path d="M318.718 128.717L319.077 120.46L315.27 118.561L310.734 117.679H308.679C308.679 117.679 304.67 121.095 303.431 124.39C302.193 127.684 304.994 130.141 304.994 130.141C304.994 132.917 303.431 135.958 303.431 135.958C303.431 135.958 306.116 139.881 312.024 139.449C313.926 139.268 315.777 138.727 317.477 137.854C317.225 136.409 316.876 134.982 316.432 133.583L318.718 128.717Z" fill="#BA68C8"/>
<path opacity="0.5" d="M318.718 128.717L319.077 120.46L315.27 118.561L310.734 117.679H308.679C308.679 117.679 304.67 121.095 303.431 124.39C302.193 127.684 304.994 130.141 304.994 130.141C304.994 132.917 303.431 135.958 303.431 135.958C303.431 135.958 306.116 139.881 312.024 139.449C313.926 139.268 315.777 138.727 317.477 137.854C317.225 136.409 316.876 134.982 316.432 133.583L318.718 128.717Z" fill="white"/>
<path d="M311.173 100.991C311.173 100.991 308.084 99.3453 306.766 102.566C305.447 105.786 307.395 109.413 303.531 109.946C303.531 109.946 305.416 112.09 307.853 109.017C307.509 109.453 307.913 110.877 308.067 111.344C308.344 112.19 308.834 112.951 309.491 113.553C310.24 114.192 311.112 114.671 312.053 114.96C312.733 115.212 313.452 115.343 314.177 115.347C315.276 115.321 316.66 114.82 317.614 114.271C318.642 113.666 319.481 112.785 320.034 111.728C321.014 109.794 321.296 107.581 320.831 105.464C320.576 104.281 319.989 103.194 319.14 102.332C316.962 100.396 313.875 100.308 311.173 100.991Z" fill="#263238"/>
<path d="M311.176 114.86L310.734 117.681C310.734 117.681 307.318 120.475 310.114 121.178C312.91 121.881 315.27 118.561 315.27 118.561L316.147 112.966L311.176 114.86Z" fill="#FFBE9D"/>
<path d="M316.243 112.013L316.217 112.175C314.566 116.027 311.796 116.486 310.91 116.568L311.85 110.356L316.274 111.013L316.243 112.013Z" fill="#FFBE9D"/>
<path d="M313.427 102.42C311.718 102.295 308.017 102.99 307.277 107.411C306.536 111.833 306.679 115.335 308.957 115.836C311.234 116.338 316.707 115.065 317.848 109.339C318.99 103.613 315.081 102.543 313.427 102.42Z" fill="#FFBE9D"/>
<path d="M310.099 109.681L309.732 112.295L308.266 111.608L310.099 109.681Z" fill="#FFBE9D"/>
<path d="M312.399 109.968C312.384 110.073 312.338 110.171 312.268 110.25C312.197 110.328 312.104 110.384 312.002 110.411C311.9 110.437 311.792 110.432 311.692 110.397C311.592 110.362 311.505 110.298 311.441 110.214C311.378 110.129 311.341 110.028 311.335 109.922C311.329 109.816 311.354 109.711 311.408 109.62C311.462 109.529 311.541 109.456 311.637 109.41C311.732 109.364 311.839 109.347 311.944 109.362C312.013 109.372 312.08 109.395 312.141 109.431C312.202 109.467 312.255 109.514 312.297 109.571C312.34 109.627 312.37 109.691 312.388 109.759C312.405 109.828 312.409 109.899 312.399 109.968Z" fill="#263238"/>
<path d="M308.952 109.1C308.937 109.206 308.892 109.304 308.821 109.384C308.75 109.464 308.657 109.52 308.554 109.547C308.451 109.574 308.342 109.569 308.241 109.534C308.141 109.499 308.053 109.434 307.989 109.349C307.925 109.264 307.887 109.162 307.882 109.055C307.876 108.949 307.902 108.843 307.956 108.751C308.011 108.66 308.091 108.586 308.187 108.54C308.283 108.494 308.391 108.478 308.496 108.494C308.637 108.514 308.764 108.589 308.849 108.703C308.935 108.816 308.972 108.959 308.952 109.1Z" fill="#263238"/>
<path d="M307.93 107.824L309.069 107.355C309.069 107.355 308.73 106.882 308.295 107.07C307.859 107.258 307.93 107.824 307.93 107.824Z" fill="#BA68C8"/>
<path d="M310.066 112.944C310.642 112.759 311.206 112.542 311.758 112.294C311.758 112.294 311.857 112.647 311.108 112.904C310.36 113.16 310.066 112.944 310.066 112.944Z" fill="#FFBE9D"/>
<path d="M307.93 107.824L309.069 107.355C309.069 107.355 308.73 106.882 308.295 107.07C307.859 107.258 307.93 107.824 307.93 107.824Z" fill="#263238"/>
<path d="M315.056 110.139C315.056 110.139 314.658 111.993 315.734 112.161L317.844 112.491L318.413 108.926C319.037 104.94 316.659 100.282 309.692 102.571C309.681 102.571 308.533 107.858 315.056 110.139Z" fill="#263238"/>
<path d="M315.756 111.941C315.808 111.535 315.951 111.146 316.174 110.803C316.291 110.583 316.469 110.403 316.688 110.284C316.906 110.165 317.154 110.113 317.401 110.133C318.663 110.307 318.629 111.543 318.54 111.97C318.307 113.089 317.191 114.157 315.482 113.92L315.756 111.941Z" fill="#FFBE9D"/>
<path d="M282.273 174.453C282.273 174.453 278.794 177.172 278.435 177.94C278.076 178.709 278.987 180.879 283.916 180.09C285.294 179.871 287.276 178.464 288.269 177.115C289.263 175.765 291.27 174.837 291.572 174.353C292.008 173.672 291.763 170.099 291.003 170.034C289.77 169.931 282.273 174.453 282.273 174.453Z" fill="#BA68C8"/>
<path d="M289.038 148.212C289.038 148.212 286.851 166.215 286.489 168.866C286.321 170.108 282.885 173.815 281.697 175.065C281.649 175.116 281.612 175.178 281.589 175.245C281.566 175.313 281.558 175.384 281.565 175.455C281.572 175.526 281.595 175.594 281.631 175.656C281.667 175.717 281.716 175.77 281.774 175.811L281.877 175.882C282.573 176.362 283.407 176.602 284.253 176.564C285.098 176.526 285.907 176.212 286.558 175.671C287.526 174.871 288.531 173.906 289.038 173.012C289.473 172.172 290.033 171.404 290.7 170.734C290.867 170.581 290.969 170.37 290.985 170.145C291.048 169.265 291.25 167.052 291.754 165.814C292.394 164.242 295.657 157.91 295.657 152.181L289.038 148.212Z" fill="#FFBE9D"/>
<path d="M295.664 152.19L295.641 152.176L294.169 152.01C294.738 155.965 293.628 161.429 293.625 161.443C294.636 158.798 295.664 155.399 295.664 152.19Z" fill="#FFBE9D"/>
<path d="M288.759 178.251C288.759 178.251 285.28 180.97 284.921 181.739C284.562 182.507 285.476 184.677 290.402 183.888C291.78 183.669 293.762 182.262 294.755 180.913C295.749 179.563 297.756 178.635 298.061 178.151C298.494 177.471 298.249 173.897 297.492 173.832C296.256 173.729 288.759 178.251 288.759 178.251Z" fill="#BA68C8"/>
<path d="M295.526 152.01C295.526 152.01 293.337 170.016 292.964 172.664C292.796 173.906 289.359 177.613 288.172 178.863C288.123 178.915 288.086 178.976 288.063 179.044C288.04 179.111 288.032 179.183 288.04 179.253C288.047 179.324 288.069 179.393 288.106 179.454C288.142 179.515 288.191 179.568 288.249 179.609L288.351 179.68C289.048 180.161 289.882 180.4 290.727 180.362C291.572 180.324 292.382 180.011 293.032 179.469C294 178.669 295.005 177.704 295.515 176.81C295.949 175.971 296.509 175.203 297.175 174.532C297.341 174.379 297.443 174.168 297.46 173.943C297.522 173.063 297.724 170.851 298.228 169.612C298.869 168.04 302.132 161.711 302.132 155.98L295.526 152.01Z" fill="#FFBE9D"/>
<path d="M303.431 135.946C303.431 135.946 292.979 141.641 290.837 144.178C288.696 146.715 287.785 152.557 287.785 152.557C291.435 157.267 302.591 157.782 302.591 157.782C303.53 154.71 305.834 154.169 309.424 152.432C313.014 150.695 317.026 147.185 317.681 143.398C317.966 141.667 317.792 139.619 317.485 137.843C315.785 138.715 313.934 139.256 312.032 139.437C306.116 139.87 303.431 135.946 303.431 135.946Z" fill="#263238"/>
<path d="M309.174 130.616C309.174 130.616 313.761 131.852 315.742 128.569C315.742 128.569 314.134 132.849 309.174 130.616Z" fill="#BA68C8"/>
<path opacity="0.2" d="M315.742 128.569C315.742 128.569 314.134 132.84 309.174 130.616C309.174 130.616 313.761 131.852 315.742 128.569Z" fill="white"/>
<path d="M318.578 120.204C318.578 120.204 315.102 121.724 318.402 129.389C320.62 134.543 320.99 135.938 320.99 135.938C320.99 135.938 319.834 136.507 313.223 141.433L315.216 144.739C315.216 144.739 326.961 140.55 326.701 137.293C326.442 134.036 323.023 125.651 322.488 124.452C321.952 123.253 321.685 121.568 318.578 120.204Z" fill="#FFBE9D"/>
<path d="M295.662 129.213C296.801 129.703 299.216 127.587 301.226 124.805C302.409 123.175 303.485 121.47 304.449 119.7C305.271 119.764 306.095 119.608 306.838 119.25C307.581 118.891 308.215 118.342 308.677 117.659C308.939 117.277 306.84 114.715 306.84 114.715L307.948 114.219C307.948 114.219 309.71 113.738 309.602 112.955C309.557 112.619 306.647 113.226 305.551 113.468C305.283 113.524 305.041 113.667 304.862 113.875L301.613 117.576C301.613 117.576 298.282 120.423 296.488 122.106C293.735 124.694 293.293 128.194 295.662 129.213Z" fill="#FFBE9D"/>
<path d="M306.841 114.829C306.821 114.829 306.801 114.823 306.784 114.811C306.768 114.8 306.755 114.785 306.747 114.766C306.736 114.741 306.735 114.713 306.745 114.687C306.755 114.662 306.774 114.641 306.798 114.629L307.906 114.134C308.381 114.003 309.551 113.564 309.503 112.995C309.435 112.961 309.056 112.884 307.006 113.28C306.979 113.285 306.951 113.279 306.929 113.264C306.906 113.249 306.89 113.225 306.885 113.199C306.88 113.172 306.885 113.144 306.9 113.121C306.916 113.099 306.939 113.083 306.966 113.078C309.335 112.619 309.551 112.776 309.631 112.833C309.651 112.846 309.668 112.863 309.681 112.883C309.694 112.903 309.702 112.926 309.705 112.949C309.822 113.804 308.051 114.308 307.974 114.328L306.878 114.817C306.867 114.824 306.854 114.828 306.841 114.829Z" fill="#FFBE9D"/>
<path d="M299.969 126.502C299.944 126.502 299.92 126.493 299.901 126.477C299.891 126.467 299.883 126.456 299.877 126.443C299.872 126.431 299.869 126.418 299.869 126.404C299.869 126.39 299.872 126.377 299.877 126.364C299.883 126.352 299.891 126.341 299.901 126.331C300.328 125.839 300.755 125.303 301.153 124.745C302.331 123.121 303.405 121.424 304.368 119.663L304.402 119.598H304.473C305.275 119.658 306.079 119.508 306.805 119.162C306.83 119.15 306.858 119.148 306.884 119.157C306.897 119.161 306.909 119.168 306.919 119.177C306.929 119.186 306.937 119.197 306.943 119.209C306.949 119.221 306.953 119.234 306.954 119.248C306.954 119.261 306.953 119.275 306.948 119.288C306.944 119.301 306.937 119.312 306.928 119.323C306.919 119.333 306.908 119.341 306.896 119.347C306.156 119.701 305.338 119.86 304.519 119.811C303.558 121.558 302.491 123.243 301.321 124.856C300.911 125.426 300.487 125.961 300.054 126.459C300.045 126.473 300.032 126.484 300.017 126.491C300.002 126.499 299.986 126.502 299.969 126.502Z" fill="#FFBE9D"/>
<path d="M313.566 141.47C313.566 141.47 311.915 141.166 310.619 141.442C310.024 141.56 309.414 141.574 308.814 141.484C308.259 141.41 307.439 141.274 307.8 142.131C308.114 142.877 309.179 143.053 309.876 143.122C309.876 143.122 309.628 144.004 307.726 143.95C305.825 143.896 305.303 143.976 305.449 144.582C305.594 145.189 307.442 147.373 309.364 147.404C310.804 147.427 313.381 146.427 315.215 144.747L313.566 141.47Z" fill="#FFBE9D"/>
<path d="M314.093 81.9031C314.283 80.3374 313.843 78.7604 312.87 77.519C311.897 76.2776 310.471 75.4734 308.905 75.2833C308.817 75.2833 308.729 75.269 308.638 75.2633C308.663 75.1553 308.682 75.046 308.695 74.9359C308.825 73.8584 308.522 72.7733 307.853 71.9191C307.183 71.0648 306.202 70.5114 305.124 70.3803C304.899 70.3553 304.673 70.3486 304.447 70.3604C303.863 69.4072 303.042 68.6214 302.064 68.0795C301.086 67.5375 299.985 67.2578 298.867 67.2675C297.749 67.2773 296.653 67.5761 295.685 68.1351C294.717 68.694 293.91 69.494 293.343 70.4572C292.282 70.3259 291.206 70.4831 290.227 70.9122C289.249 71.3413 288.404 72.0264 287.782 72.8954C287.161 73.7643 286.785 74.7849 286.695 75.8496C286.604 76.9142 286.803 77.9836 287.269 78.9448C286.246 79.2287 285.373 79.8992 284.835 80.8148C284.296 81.7303 284.135 82.8192 284.384 83.8516C284.633 84.884 285.274 85.7791 286.171 86.3479C287.068 86.9166 288.151 87.1146 289.191 86.9C289.298 87.8656 289.652 88.7874 290.217 89.5774C290.783 90.3673 291.542 90.9988 292.421 91.4114C293.301 91.824 294.271 92.0039 295.24 91.9339C296.209 91.8638 297.144 91.5462 297.955 91.0114C298.719 91.9708 299.75 92.683 300.917 93.0582C302.085 93.4335 303.337 93.4551 304.517 93.1203C305.697 92.7856 306.751 92.1094 307.548 91.1769C308.345 90.2444 308.848 89.0971 308.994 87.8794C309.025 87.611 309.039 87.341 309.036 87.0708C310.33 86.8841 311.526 86.277 312.44 85.343C313.354 84.409 313.935 83.2002 314.093 81.9031Z" fill="white"/>
<path d="M302.824 93.6309C302.557 93.6317 302.29 93.6155 302.024 93.5825C300.419 93.3911 298.944 92.6047 297.89 91.3787C297.055 91.8789 296.111 92.1672 295.139 92.2184C294.167 92.2696 293.198 92.0821 292.315 91.6724C291.433 91.2626 290.664 90.6431 290.075 89.8678C289.487 89.0925 289.098 88.185 288.941 87.2246C288.563 87.2762 288.18 87.2762 287.802 87.2246C286.821 87.105 285.909 86.6571 285.215 85.9536C284.521 85.2501 284.085 84.3325 283.979 83.3499C283.872 82.3674 284.101 81.3776 284.628 80.5417C285.156 79.7057 285.95 79.0727 286.883 78.7456C286.472 77.7541 286.324 76.6734 286.454 75.6081C286.584 74.5429 286.987 73.5292 287.623 72.6654C288.26 71.8015 289.109 71.1168 290.088 70.6776C291.068 70.2383 292.143 70.0595 293.212 70.1583C293.817 69.1985 294.653 68.4062 295.644 67.8543C296.635 67.3024 297.749 67.0087 298.883 67.0002C300.017 66.9917 301.136 67.2687 302.135 67.8056C303.134 68.3426 303.982 69.1223 304.601 70.0729C305.224 70.0646 305.842 70.1903 306.413 70.4413C306.983 70.6923 307.493 71.0628 307.908 71.5278C308.324 71.9929 308.634 72.5416 308.819 73.1369C309.004 73.7322 309.059 74.3603 308.98 74.9787C308.98 74.9787 308.98 75.0015 308.98 75.0128C310.615 75.2206 312.101 76.0664 313.114 77.3658C314.128 78.6652 314.586 80.3126 314.39 81.9487C314.227 83.2662 313.649 84.4976 312.738 85.4638C311.828 86.43 310.633 87.0807 309.327 87.3214C309.324 87.5223 309.309 87.7228 309.285 87.9222C309.092 89.4976 308.331 90.9485 307.144 92.0019C305.957 93.0553 304.426 93.6387 302.839 93.6423L302.824 93.6309ZM297.947 90.7182C297.99 90.7179 298.033 90.7276 298.072 90.7463C298.111 90.7651 298.145 90.7924 298.172 90.8264C298.901 91.741 299.884 92.4198 300.998 92.7775C302.112 93.1353 303.306 93.1561 304.432 92.8373C305.557 92.5186 306.563 91.8744 307.324 90.9858C308.084 90.0971 308.565 89.0036 308.707 87.8425C308.736 87.5864 308.749 87.3287 308.747 87.0709C308.746 87.0018 308.77 86.9348 308.815 86.8824C308.86 86.83 308.923 86.7958 308.991 86.7862C310.347 86.5883 311.585 85.9056 312.475 84.8645C313.366 83.8234 313.849 82.4947 313.834 81.1248C313.819 79.755 313.309 78.4368 312.396 77.415C311.484 76.3932 310.231 75.7369 308.872 75.5681H308.724H308.618C308.578 75.5647 308.539 75.5528 308.504 75.5332C308.468 75.5136 308.438 75.4866 308.413 75.4542C308.389 75.422 308.372 75.385 308.363 75.3458C308.355 75.3065 308.354 75.2658 308.362 75.2264C308.382 75.1267 308.402 75.0242 308.413 74.9217C308.535 73.9186 308.253 72.9084 307.63 72.1129C307.007 71.3174 306.094 70.8018 305.091 70.6794C304.881 70.6536 304.67 70.6469 304.459 70.6594C304.408 70.6612 304.358 70.6495 304.313 70.6255C304.269 70.6015 304.232 70.566 304.205 70.5228C303.646 69.6133 302.861 68.8638 301.927 68.3469C300.993 67.8301 299.941 67.5635 298.873 67.5729C297.805 67.5824 296.758 67.8676 295.833 68.4009C294.908 68.9342 294.137 69.6975 293.594 70.6167C293.565 70.6651 293.523 70.7038 293.472 70.7281C293.421 70.7525 293.365 70.7612 293.309 70.7534C292.302 70.6306 291.28 70.7809 290.351 71.1883C289.422 71.5957 288.619 72.2454 288.027 73.0694C287.435 73.8933 287.076 74.8613 286.986 75.8719C286.896 76.8825 287.08 77.8986 287.518 78.8139C287.535 78.8518 287.545 78.8931 287.545 78.9349C287.545 78.9767 287.535 79.018 287.518 79.0559C287.5 79.094 287.475 79.1278 287.443 79.1549C287.411 79.182 287.373 79.2016 287.333 79.2125C286.479 79.4426 285.732 79.9623 285.22 80.6826C284.707 81.4028 284.462 82.2789 284.524 83.1606C284.587 84.0423 284.954 84.8748 285.563 85.5154C286.172 86.1561 286.985 86.5651 287.862 86.6723C288.284 86.7238 288.712 86.7027 289.126 86.6096C289.165 86.6016 289.205 86.6018 289.244 86.6101C289.283 86.6184 289.319 86.6348 289.351 86.658C289.384 86.6812 289.411 86.711 289.431 86.7453C289.451 86.7796 289.464 86.8178 289.468 86.8573C289.57 87.7744 289.906 88.6498 290.443 89.4C290.981 90.1502 291.701 90.7499 292.537 91.1419C293.372 91.5338 294.294 91.7049 295.214 91.6387C296.135 91.5725 297.023 91.2712 297.793 90.7637C297.839 90.7341 297.892 90.7183 297.947 90.7182Z" fill="#E0E0E0"/>
<path d="M297.664 85.6295L300.511 85.6052L300.525 87.1853C300.527 87.5229 300.396 87.8477 300.159 88.0884C299.923 88.3291 299.6 88.466 299.263 88.4689L298.955 88.4715C298.618 88.4744 298.293 88.3431 298.052 88.1065C297.811 87.8698 297.675 87.5473 297.672 87.2097L297.658 85.6296L297.664 85.6295Z" fill="#263238"/>
<path d="M299.109 87.2914C300.338 87.2809 301.33 86.7281 301.325 86.0567C301.319 85.3852 300.317 84.8495 299.088 84.86C297.858 84.8705 296.866 85.4233 296.872 86.0948C296.877 86.7662 297.879 87.3019 299.109 87.2914Z" fill="#37474F"/>
<path d="M299.101 86.5826C300.33 86.5721 301.323 86.0192 301.317 85.3478C301.311 84.6764 300.31 84.1406 299.08 84.1511C297.85 84.1616 296.858 84.7145 296.864 85.3859C296.87 86.0573 297.871 86.5931 299.101 86.5826Z" fill="#455A64"/>
<path d="M303.778 79.1157C303.771 78.2947 303.551 77.4894 303.14 76.7788C302.728 76.0683 302.139 75.4767 301.431 75.0622C300.722 74.6477 299.918 74.4244 299.097 74.4142C298.275 74.404 297.466 74.6072 296.747 75.0039C296.028 75.4007 295.425 75.9773 294.995 76.6774C294.566 77.3775 294.327 78.1771 294.299 78.9978C294.272 79.8184 294.459 80.6321 294.841 81.359C295.222 82.0859 295.787 82.7012 296.478 83.1446C296.734 83.3033 296.946 83.5235 297.095 83.785C297.244 84.0466 297.325 84.3412 297.332 84.6422C297.331 84.7966 297.361 84.9496 297.42 85.0925C297.478 85.2353 297.565 85.3651 297.674 85.4744C297.783 85.5837 297.912 85.6703 298.055 85.7293C298.198 85.7883 298.351 85.8185 298.505 85.8181H299.094H299.684C299.837 85.817 299.989 85.7856 300.131 85.7258C300.272 85.6659 300.401 85.5788 300.509 85.4694C300.617 85.3599 300.702 85.2303 300.76 85.0879C300.817 84.9454 300.846 84.7931 300.845 84.6394V84.5881C300.848 84.304 300.922 84.0249 301.059 83.7764C301.197 83.5278 301.395 83.3175 301.634 83.1645C302.305 82.726 302.853 82.1246 303.228 81.4165C303.603 80.7084 303.792 79.9168 303.778 79.1157Z" fill="#BA68C8"/>
<path d="M299.333 85.818C299.333 85.801 299.299 85.3767 299.299 81.6184C299.299 81.3621 299.299 81.1173 299.313 80.8866C299.197 80.8866 299.071 80.9037 298.941 80.9037C298.81 80.9037 298.744 80.9037 298.656 80.9037C298.716 81.3053 298.747 81.7106 298.75 82.1166L298.781 85.818H298.576L298.545 82.1166C298.545 81.7037 298.511 81.2914 298.445 80.8838C297.335 80.7585 296.816 80.1805 296.814 79.6338C296.805 79.5534 296.814 79.472 296.838 79.395C296.863 79.318 296.904 79.2468 296.957 79.1861C297.01 79.1254 297.076 79.0765 297.149 79.0423C297.223 79.0081 297.302 78.9895 297.383 78.9875C297.97 78.9875 298.414 79.6253 298.619 80.6959C298.721 80.6959 298.829 80.6959 298.941 80.6959C299.052 80.6959 299.205 80.6959 299.328 80.6759C299.41 79.2523 299.709 78.3981 300.213 78.1988C300.354 78.1507 300.506 78.1455 300.65 78.1841C300.794 78.2226 300.924 78.3031 301.022 78.4152C301.162 78.603 301.249 78.8256 301.272 79.059C301.295 79.2923 301.254 79.5275 301.153 79.7392C300.999 80.1065 300.583 80.6902 299.518 80.8553C299.518 81.0859 299.504 81.3393 299.504 81.6127C299.504 85.334 299.538 85.7782 299.538 85.7953L299.333 85.818ZM297.38 79.1868C297.327 79.1898 297.274 79.2039 297.226 79.2283C297.179 79.2526 297.136 79.2865 297.102 79.328C297.068 79.3695 297.043 79.4176 297.029 79.4693C297.015 79.5209 297.011 79.575 297.019 79.6281C297.019 80.0752 297.463 80.5507 298.408 80.6731C298.212 79.742 297.841 79.1726 297.38 79.1726V79.1868ZM300.447 78.3611C300.392 78.3609 300.338 78.3705 300.287 78.3896C300.034 78.4949 299.635 78.9363 299.527 80.6674C300.472 80.5108 300.828 80.004 300.951 79.6822C301.036 79.5071 301.073 79.3125 301.058 79.1183C301.043 78.9241 300.976 78.7375 300.865 78.5775C300.761 78.4493 300.611 78.3666 300.447 78.3469V78.3611Z" fill="#263238"/>
<path opacity="0.4" d="M301.913 76.8864C301.74 77.1939 301.202 77.2195 300.715 76.9405C300.228 76.6614 299.969 76.1916 300.145 75.8841C300.322 75.5766 300.857 75.5539 301.344 75.8329C301.831 76.1119 302.087 76.5817 301.913 76.8864Z" fill="white"/>
<path opacity="0.4" d="M302.967 78.1306C303.041 78.4609 302.913 78.7684 302.682 78.8196C302.452 78.8709 302.204 78.6431 302.133 78.3157C302.062 77.9882 302.19 77.6779 302.418 77.6266C302.645 77.5754 302.893 77.806 302.967 78.1306Z" fill="white"/>
<path d="M298.829 73.5494C298.777 73.5494 298.727 73.5293 298.689 73.4932C298.651 73.4571 298.629 73.4079 298.627 73.3558L298.547 71.1378C298.546 71.1112 298.55 71.0847 298.559 71.0597C298.568 71.0348 298.582 71.0119 298.6 70.9923C298.618 70.9727 298.64 70.9569 298.664 70.9457C298.688 70.9345 298.714 70.9282 298.741 70.9271C298.794 70.9263 298.846 70.9463 298.886 70.9829C298.925 71.0195 298.948 71.0699 298.951 71.1235L299.031 73.3415C299.032 73.368 299.028 73.3943 299.019 73.4191C299.01 73.4439 298.996 73.4667 298.978 73.486C298.96 73.5053 298.938 73.5209 298.914 73.5318C298.89 73.5427 298.864 73.5487 298.837 73.5494H298.829Z" fill="#BA68C8"/>
<path d="M294.098 75.8984C294.064 75.899 294.031 75.8911 294.001 75.8756L292.045 74.8335C291.998 74.8082 291.962 74.7651 291.946 74.7135C291.931 74.662 291.936 74.6063 291.961 74.5588C291.987 74.5112 292.03 74.4756 292.081 74.4599C292.133 74.4441 292.188 74.4495 292.236 74.4748L294.192 75.5197C294.233 75.5396 294.266 75.5731 294.286 75.6145C294.305 75.6559 294.31 75.7028 294.299 75.7472C294.288 75.7916 294.262 75.8309 294.225 75.8584C294.189 75.886 294.144 75.9001 294.098 75.8984Z" fill="#BA68C8"/>
<path d="M303.374 75.5681C303.34 75.569 303.306 75.5607 303.276 75.5442C303.246 75.5277 303.221 75.5036 303.203 75.4742C303.188 75.4514 303.178 75.4258 303.173 75.3989C303.168 75.372 303.169 75.3444 303.175 75.3178C303.181 75.2912 303.193 75.2661 303.209 75.2441C303.225 75.222 303.245 75.2034 303.269 75.1895L305.154 74.0193C305.176 74.0043 305.202 73.994 305.229 73.9892C305.256 73.9844 305.283 73.985 305.31 73.9912C305.336 73.9973 305.362 74.0087 305.384 74.0248C305.406 74.0409 305.424 74.0613 305.438 74.0847C305.453 74.1077 305.463 74.1333 305.467 74.1601C305.472 74.1869 305.471 74.2143 305.465 74.2408C305.459 74.2673 305.448 74.2923 305.432 74.3144C305.416 74.3365 305.396 74.3552 305.373 74.3695L303.488 75.5397C303.453 75.5596 303.414 75.5695 303.374 75.5681Z" fill="#BA68C8"/>
<path d="M310.946 91.4386C310.872 92.0364 310.623 92.599 310.23 93.0552C309.836 93.5113 309.316 93.8405 308.736 94.0011C308.155 94.1617 307.54 94.1464 306.969 93.9572C306.397 93.768 305.894 93.4134 305.524 92.9383C305.153 92.4632 304.933 91.8889 304.889 91.2882C304.845 90.6874 304.981 90.0873 305.278 89.5636C305.576 89.04 306.022 88.6164 306.561 88.3465C307.099 88.0766 307.706 87.9726 308.303 88.0475C309.103 88.1478 309.83 88.5611 310.325 89.1968C310.821 89.8325 311.044 90.6387 310.946 91.4386Z" fill="white"/>
<path d="M307.928 94.3997C307.456 94.4004 306.989 94.3007 306.558 94.107C306.127 93.9133 305.742 93.6301 305.429 93.2763C305.115 92.9224 304.881 92.506 304.741 92.0547C304.601 91.6033 304.559 91.1274 304.617 90.6584C304.745 89.7996 305.203 89.0246 305.894 88.4986C306.584 87.9725 307.453 87.7369 308.315 87.8419C309.177 87.947 309.964 88.3844 310.508 89.0609C311.052 89.7375 311.311 90.5998 311.228 91.4642C311.13 92.2705 310.74 93.013 310.132 93.5521C309.525 94.0911 308.741 94.3895 307.928 94.3911V94.3997ZM307.928 88.3094C307.255 88.3101 306.605 88.5571 306.101 89.004C305.597 89.4508 305.274 90.0666 305.192 90.7353C305.148 91.095 305.176 91.4598 305.273 91.8089C305.37 92.1581 305.535 92.4847 305.758 92.7701C305.981 93.0555 306.259 93.2941 306.574 93.4724C306.89 93.6506 307.237 93.7649 307.597 93.8089C307.956 93.8528 308.321 93.8255 308.67 93.7284C309.02 93.6313 309.346 93.4665 309.632 93.2432C309.917 93.0199 310.156 92.7426 310.334 92.4271C310.512 92.1116 310.626 91.7641 310.67 91.4044C310.758 90.6781 310.554 89.9467 310.103 89.3707C309.652 88.7947 308.991 88.4212 308.264 88.3322C308.15 88.3173 308.035 88.3097 307.92 88.3094H307.928Z" fill="#E0E0E0"/>
<path d="M312.405 97.9587C313.068 97.9587 313.606 97.4207 313.606 96.7571C313.606 96.0935 313.068 95.5556 312.405 95.5556C311.741 95.5556 311.203 96.0935 311.203 96.7571C311.203 97.4207 311.741 97.9587 312.405 97.9587Z" fill="white"/>
<path d="M312.404 98.2433C312.11 98.2433 311.823 98.1562 311.579 97.9928C311.334 97.8295 311.144 97.5974 311.031 97.3258C310.919 97.0543 310.889 96.7554 310.947 96.4671C311.004 96.1788 311.145 95.914 311.353 95.7061C311.561 95.4983 311.826 95.3567 312.114 95.2994C312.403 95.242 312.701 95.2715 312.973 95.3839C313.245 95.4964 313.477 95.6869 313.64 95.9313C313.803 96.1758 313.89 96.4631 313.89 96.7571C313.89 96.9522 313.852 97.1455 313.777 97.3258C313.703 97.5062 313.593 97.67 313.455 97.808C313.317 97.946 313.153 98.0555 312.973 98.1302C312.793 98.2049 312.599 98.2433 312.404 98.2433ZM312.404 95.8431C312.223 95.8431 312.045 95.897 311.895 95.9978C311.744 96.0987 311.626 96.242 311.557 96.4097C311.488 96.5774 311.47 96.7619 311.505 96.9398C311.541 97.1177 311.628 97.2811 311.757 97.4092C311.885 97.5373 312.049 97.6244 312.227 97.6595C312.405 97.6945 312.59 97.6759 312.757 97.6061C312.925 97.5363 313.068 97.4183 313.168 97.2672C313.268 97.1161 313.322 96.9385 313.321 96.7571C313.321 96.6368 313.297 96.5177 313.251 96.4067C313.205 96.2956 313.138 96.1947 313.052 96.1098C312.967 96.0249 312.866 95.9576 312.755 95.9119C312.644 95.8661 312.524 95.8427 312.404 95.8431Z" fill="#E0E0E0"/>
</g>
<defs>
<linearGradient id="paint0_linear_552_29867" x1="0" y1="0" x2="350" y2="200" gradientUnits="userSpaceOnUse">
<stop stop-color="#E6A0FF"/>
<stop offset="1" stop-color="#DB76FF"/>
</linearGradient>
<clipPath id="clip0_552_29867">
<rect width="350" height="200" rx="20" fill="white"/>
</clipPath>
</defs>
</svg>
