<svg width="350" height="200" viewBox="0 0 350 200" fill="none" xmlns="http://www.w3.org/2000/svg">
<g clip-path="url(#clip0_552_26880)">
<rect width="350" height="200" rx="20" fill="url(#paint0_linear_552_26880)"/>
<path opacity="0.5" d="M290.5 245C342.691 245 385 221.943 385 193.5C385 165.057 342.691 142 290.5 142C238.309 142 196 165.057 196 193.5C196 221.943 238.309 245 290.5 245Z" fill="#F0F0F0"/>
<path opacity="0.5" d="M247.13 197.444C257.373 197.444 265.676 192.651 265.676 186.739C265.676 180.826 257.373 176.033 247.13 176.033C236.887 176.033 228.584 180.826 228.584 186.739C228.584 192.651 236.887 197.444 247.13 197.444Z" fill="#DA62B2"/>
<path opacity="0.5" d="M312.839 197.444C323.082 197.444 331.385 192.651 331.385 186.739C331.385 180.826 323.082 176.033 312.839 176.033C302.596 176.033 294.293 180.826 294.293 186.739C294.293 192.651 302.596 197.444 312.839 197.444Z" fill="#DA62B2"/>
<path opacity="0.5" d="M280.13 194.786C290.373 194.786 298.676 189.993 298.676 184.08C298.676 178.168 290.373 173.375 280.13 173.375C269.887 173.375 261.584 178.168 261.584 184.08C261.584 189.993 269.887 194.786 280.13 194.786Z" fill="#DA62B2"/>
<path d="M288.072 178.212C283.647 175.675 276.472 175.675 272.047 178.212C269.827 179.481 268.732 181.162 268.732 182.837C268.732 183.012 268.732 183.754 268.732 183.954C268.764 185.603 269.868 187.243 272.044 188.499C276.469 191.056 283.644 191.056 288.068 188.499C290.254 187.23 291.358 185.587 291.383 183.931V182.812C291.374 181.147 290.27 179.484 288.072 178.212Z" fill="#37474F"/>
<path d="M272.047 187.462C267.625 184.908 267.625 180.766 272.047 178.213C276.468 175.659 283.646 175.675 288.071 178.213C292.496 180.75 292.493 184.908 288.071 187.462C283.65 190.015 276.472 190.018 272.047 187.462Z" fill="#455A64"/>
<path d="M281.361 182.016V140.812H278.747V182.016C278.74 182.142 278.771 182.268 278.839 182.375C278.906 182.483 279.005 182.567 279.122 182.615C279.409 182.761 279.726 182.836 280.048 182.836C280.37 182.836 280.687 182.761 280.974 182.615C281.094 182.569 281.195 182.486 281.265 182.378C281.335 182.271 281.368 182.144 281.361 182.016Z" fill="#37474F"/>
<path d="M291.771 127.64C285.304 123.906 274.817 123.906 268.35 127.64C265.115 129.508 263.5 131.953 263.5 134.402V135.607C263.5 138.053 265.115 140.502 268.35 142.367C274.817 146.103 285.304 146.103 291.771 142.367C295.007 140.502 296.621 138.053 296.621 135.607V134.402C296.621 131.953 295.007 129.508 291.771 127.64Z" fill="#455A64"/>
<path d="M291.771 126.18C285.304 122.447 274.817 122.447 268.35 126.18C265.115 128.049 263.5 130.494 263.5 132.943V134.145C263.5 136.594 265.115 139.039 268.35 140.908C274.817 144.641 285.304 144.641 291.771 140.908C295.007 139.039 296.621 136.594 296.621 134.145V132.943C296.621 130.494 295.007 128.049 291.771 126.18Z" fill="white"/>
<path opacity="0.4" d="M291.771 126.18C285.304 122.447 274.817 122.447 268.35 126.18C265.115 128.049 263.5 130.494 263.5 132.943V134.145C263.5 136.594 265.115 139.039 268.35 140.908C274.817 144.641 285.304 144.641 291.771 140.908C295.007 139.039 296.621 136.594 296.621 134.145V132.943C296.621 130.494 295.007 128.049 291.771 126.18Z" fill="black"/>
<path opacity="0.5" d="M280.06 142.506C289.208 142.506 296.624 138.225 296.624 132.943C296.624 127.661 289.208 123.38 280.06 123.38C270.912 123.38 263.496 127.661 263.496 132.943C263.496 138.225 270.912 142.506 280.06 142.506Z" fill="white"/>
<path d="M277.838 131.151C275.427 129.759 271.523 129.759 269.112 131.151V130.9C267.843 131.627 267.253 132.591 267.31 133.546C267.253 134.497 267.853 135.449 269.112 136.188C271.523 137.581 275.427 137.581 277.838 136.188C280.249 134.796 280.258 132.54 277.838 131.151Z" fill="#E0E0E0"/>
<path d="M277.839 130.9C280.249 132.29 280.249 134.548 277.839 135.937C275.428 137.327 271.523 137.33 269.113 135.937C266.702 134.545 266.702 132.29 269.113 130.9C271.523 129.511 275.437 129.508 277.839 130.9Z" fill="white"/>
<path d="M277.839 130.9C280.249 132.29 280.249 134.548 277.839 135.937C275.428 137.327 271.523 137.33 269.113 135.937C266.702 134.545 266.702 132.29 269.113 130.9C271.523 129.511 275.437 129.508 277.839 130.9Z" fill="#FAFAFA"/>
<path d="M270.543 131.937C268.887 132.889 268.887 134.443 270.543 135.401C272.198 136.359 274.882 136.353 276.538 135.401C278.193 134.45 278.193 132.895 276.538 131.937C274.882 130.98 272.182 130.983 270.543 131.937Z" fill="#E0E0E0"/>
<path d="M270.73 132.055C269.189 132.946 269.189 134.393 270.73 135.284C272.272 136.175 274.775 136.175 276.319 135.284C277.864 134.393 277.864 132.946 276.319 132.055C274.775 131.164 272.275 131.164 270.73 132.055Z" fill="#EBEBEB"/>
<path opacity="0.15" d="M269.572 134.821C269.572 134.986 269.588 135.163 269.744 135.163L277.832 135.135C278.168 135.135 278.216 134.926 278.057 134.412C277.899 133.898 277.026 132.334 275.685 132.039L269.572 134.821Z" fill="black"/>
<path d="M269.572 131.779V134.884C269.573 134.909 269.578 134.934 269.589 134.957C269.599 134.979 269.614 135 269.633 135.016C269.652 135.033 269.674 135.045 269.698 135.052C269.722 135.06 269.747 135.062 269.772 135.059L276.925 134.088C277.013 134.075 277.094 134.031 277.152 133.963C277.21 133.896 277.242 133.809 277.242 133.72V130.71C277.241 130.683 277.234 130.657 277.222 130.632C277.21 130.608 277.193 130.587 277.172 130.57L273.505 127.833C273.436 127.78 273.35 127.755 273.263 127.762C273.176 127.77 273.095 127.81 273.036 127.874L269.648 131.576C269.6 131.632 269.573 131.704 269.572 131.779Z" fill="#263238"/>
<path d="M275.146 128.445C274.631 128.148 274.089 127.903 273.525 127.713C273.446 127.686 273.361 127.684 273.28 127.704C273.199 127.725 273.126 127.769 273.069 127.83L269.637 131.582C269.632 131.587 269.628 131.593 269.627 131.6C269.626 131.607 269.627 131.614 269.631 131.62C269.634 131.626 269.639 131.631 269.645 131.634C269.651 131.637 269.659 131.638 269.665 131.636L277.119 130.628C277.246 130.628 277.246 130.697 277.246 130.697C277.246 130.64 277.234 130.582 277.211 130.529C276.76 129.634 276.037 128.905 275.146 128.445Z" fill="#455A64"/>
<g opacity="0.7">
<path d="M269.766 135.056L276.744 134.104V133.238C276.745 133.195 276.737 133.153 276.719 133.113C276.702 133.074 276.676 133.039 276.644 133.011C276.611 132.983 276.573 132.962 276.532 132.95C276.491 132.939 276.447 132.936 276.405 132.943L269.572 133.863V134.881C269.571 134.906 269.576 134.931 269.585 134.954C269.595 134.977 269.609 134.998 269.628 135.014C269.646 135.031 269.668 135.043 269.692 135.051C269.716 135.058 269.741 135.059 269.766 135.056Z" fill="white"/>
<path d="M276.405 132.47C276.498 132.456 276.583 132.41 276.645 132.339C276.707 132.268 276.742 132.178 276.744 132.084V131.557C276.745 131.514 276.737 131.471 276.719 131.432C276.702 131.393 276.676 131.358 276.644 131.33C276.611 131.301 276.573 131.281 276.532 131.269C276.49 131.257 276.447 131.255 276.405 131.262L269.572 132.182V133.397L276.405 132.47Z" fill="white"/>
</g>
<path opacity="0.2" d="M273.953 130.539C274.796 130.539 275.479 130.144 275.479 129.657C275.479 129.17 274.796 128.775 273.953 128.775C273.111 128.775 272.428 129.17 272.428 129.657C272.428 130.144 273.111 130.539 273.953 130.539Z" fill="black"/>
<path d="M274.326 128.131C274.624 128.235 274.899 128.396 275.135 128.604C275.271 128.729 275.363 128.894 275.398 129.075C275.433 129.255 275.41 129.443 275.332 129.609C275.258 129.754 275.146 129.876 275.008 129.961C274.869 130.047 274.711 130.093 274.548 130.095C274.608 129.78 274.601 129.456 274.529 129.143C274.409 128.664 274.326 128.131 274.326 128.131Z" fill="white"/>
<path opacity="0.2" d="M274.326 128.131C274.624 128.235 274.899 128.396 275.135 128.604C275.271 128.729 275.363 128.894 275.398 129.075C275.433 129.255 275.41 129.443 275.332 129.609C275.258 129.754 275.146 129.876 275.008 129.961C274.869 130.047 274.711 130.093 274.548 130.095C274.608 129.78 274.601 129.456 274.529 129.143C274.409 128.664 274.326 128.131 274.326 128.131Z" fill="black"/>
<path d="M273.714 128.106C273.6 128.268 273.197 128.36 272.928 128.534C272.708 128.64 272.538 128.826 272.452 129.054C272.406 129.187 272.41 129.333 272.461 129.463C272.513 129.594 272.61 129.702 272.734 129.768C273.052 129.911 273.648 129.422 273.714 129.245C273.747 128.866 273.747 128.485 273.714 128.106Z" fill="#9A4A4D"/>
<path d="M273.714 128.106C273.6 128.268 273.197 128.36 272.928 128.534C272.708 128.64 272.538 128.826 272.452 129.054C272.406 129.187 272.41 129.333 272.461 129.463C272.513 129.594 272.61 129.702 272.734 129.768C273.052 129.911 273.648 129.422 273.714 129.245C273.747 128.866 273.747 128.485 273.714 128.106Z" fill="white"/>
<path opacity="0.3" d="M273.714 128.106C273.6 128.268 273.197 128.36 272.928 128.534C272.708 128.64 272.538 128.826 272.452 129.054C272.406 129.187 272.41 129.333 272.461 129.463C272.513 129.594 272.61 129.702 272.734 129.768C273.052 129.911 273.648 129.422 273.714 129.245C273.747 128.866 273.747 128.485 273.714 128.106Z" fill="black"/>
<path d="M273.892 127.808C273.817 127.868 273.759 127.947 273.724 128.037C273.688 128.126 273.676 128.223 273.689 128.319C273.707 128.508 273.665 128.699 273.568 128.863C273.472 129.028 273.327 129.158 273.153 129.235C272.668 129.495 272.61 129.752 272.867 129.977C273.035 130.11 273.248 130.172 273.461 130.149C273.461 130.149 274.177 129.984 274.326 129.445C274.476 128.905 274.193 128.046 273.892 127.808Z" fill="white"/>
<path opacity="0.2" d="M273.892 127.808C273.817 127.868 273.759 127.947 273.724 128.037C273.688 128.126 273.676 128.223 273.689 128.319C273.707 128.508 273.665 128.699 273.568 128.863C273.472 129.028 273.327 129.158 273.153 129.235C272.668 129.495 272.61 129.752 272.867 129.977C273.035 130.11 273.248 130.172 273.461 130.149C273.461 130.149 274.177 129.984 274.326 129.445C274.476 128.905 274.193 128.046 273.892 127.808Z" fill="black"/>
<path d="M273.952 130.304C273.486 130.304 273.295 130.101 273.514 129.835C273.622 129.701 273.816 129.647 273.939 129.517C274.078 129.381 274.166 129.2 274.187 129.007C274.228 128.528 273.651 128.033 273.987 127.614C274.025 127.843 274.12 127.973 274.456 128.249C274.67 128.422 274.824 128.657 274.897 128.922C274.971 129.187 274.961 129.468 274.869 129.727C274.778 129.894 274.647 130.034 274.486 130.136C274.326 130.237 274.142 130.295 273.952 130.304Z" fill="white"/>
<path opacity="0.1" d="M273.952 130.304C273.486 130.304 273.295 130.101 273.514 129.835C273.622 129.701 273.816 129.647 273.939 129.517C274.078 129.381 274.166 129.2 274.187 129.007C274.228 128.528 273.651 128.033 273.987 127.614C274.025 127.843 274.12 127.973 274.456 128.249C274.67 128.422 274.824 128.657 274.897 128.922C274.971 129.187 274.961 129.468 274.869 129.727C274.778 129.894 274.647 130.034 274.486 130.136C274.326 130.237 274.142 130.295 273.952 130.304Z" fill="black"/>
<path opacity="0.2" d="M274.924 129.825C274.978 129.652 274.986 129.469 274.95 129.292C274.914 129.465 274.827 129.623 274.7 129.746C274.573 129.869 274.413 129.952 274.239 129.984C274.085 130.031 273.924 130.048 273.763 130.034C273.58 130.034 273.475 129.949 273.484 129.879L273.507 129.844L273.538 129.809L273.554 129.793L273.595 129.762H273.614L273.7 129.708L273.836 129.619L273.859 129.6C273.872 129.591 273.883 129.58 273.894 129.568L273.922 129.536C273.938 129.519 273.953 129.501 273.966 129.482L273.989 129.457C274.001 129.444 274.012 129.429 274.02 129.413C274.033 129.395 274.045 129.377 274.055 129.359C274.082 129.314 274.103 129.266 274.119 129.216C274.121 129.207 274.121 129.197 274.119 129.187C274.006 129.408 273.813 129.577 273.58 129.66C273.38 129.747 273.159 129.772 272.945 129.73C272.745 129.701 272.739 129.59 272.739 129.578C272.839 129.458 272.963 129.362 273.104 129.295C273.182 129.255 273.255 129.206 273.323 129.149C273.24 129.202 273.15 129.244 273.056 129.273C272.904 129.318 272.745 129.334 272.587 129.321C272.409 129.283 272.381 129.197 272.409 129.073C272.41 129.087 272.41 129.101 272.409 129.114C272.363 129.248 272.367 129.393 272.418 129.523C272.47 129.654 272.567 129.762 272.691 129.828C272.717 129.911 272.767 129.984 272.834 130.038C273.002 130.17 273.215 130.232 273.427 130.209C273.493 130.269 273.571 130.315 273.656 130.342C273.741 130.369 273.831 130.376 273.919 130.364C274.133 130.35 274.339 130.278 274.515 130.155C274.689 130.155 274.86 130.104 275.005 130.008C275.151 129.912 275.265 129.776 275.334 129.616C275.398 129.485 275.427 129.339 275.416 129.194C275.41 129.337 275.36 129.475 275.271 129.588C275.183 129.701 275.062 129.784 274.924 129.825Z" fill="black"/>
<path d="M313.804 193.631V152.862H312.466V193.631C312.461 193.697 312.477 193.764 312.511 193.821C312.546 193.878 312.598 193.922 312.659 193.948C312.806 194.024 312.97 194.063 313.135 194.063C313.301 194.063 313.464 194.024 313.611 193.948C313.672 193.922 313.724 193.878 313.759 193.821C313.794 193.764 313.81 193.697 313.804 193.631Z" fill="#37474F"/>
<path d="M323.321 189.051V149.973H321.98V189.051C321.974 189.117 321.99 189.183 322.024 189.24C322.058 189.297 322.109 189.342 322.17 189.368C322.318 189.442 322.481 189.48 322.646 189.48C322.811 189.48 322.974 189.442 323.121 189.368C323.184 189.343 323.237 189.299 323.273 189.242C323.309 189.185 323.326 189.118 323.321 189.051Z" fill="#37474F"/>
<path d="M302.897 189.051V149.973H304.239V189.051C304.244 189.117 304.229 189.183 304.195 189.24C304.161 189.297 304.11 189.342 304.049 189.368C303.901 189.442 303.738 189.48 303.573 189.48C303.408 189.48 303.245 189.442 303.097 189.368C303.034 189.343 302.981 189.299 302.945 189.242C302.909 189.185 302.893 189.118 302.897 189.051Z" fill="#37474F"/>
<path d="M321.977 140.815C317.168 138.04 309.375 138.04 304.566 140.815C302.162 142.202 300.963 144.022 300.963 145.84V148.06C300.963 149.881 302.162 151.698 304.566 153.088C309.375 155.863 317.168 155.863 321.977 153.088C324.381 151.698 325.58 149.881 325.58 148.06V145.84C325.58 144.022 324.381 142.202 321.977 140.815Z" fill="#455A64"/>
<path d="M321.977 139.731C317.168 136.955 309.375 136.955 304.566 139.731C302.162 141.117 300.963 142.938 300.963 144.755V146.975C300.963 148.796 302.162 150.614 304.566 152.003C309.375 154.778 317.168 154.778 321.977 152.003C324.381 150.614 325.58 148.796 325.58 146.975V144.755C325.58 142.938 324.381 141.117 321.977 139.731Z" fill="#FFCDEE"/>
<path opacity="0.4" d="M321.977 139.731C317.168 136.955 309.375 136.955 304.566 139.731C302.162 141.117 300.963 142.938 300.963 144.755V146.975C300.963 148.796 302.162 150.614 304.566 152.003C309.375 154.778 317.168 154.778 321.977 152.003C324.381 150.614 325.58 148.796 325.58 146.975V144.755C325.58 142.938 324.381 141.117 321.977 139.731Z" fill="black"/>
<path opacity="0.5" d="M313.269 151.863C320.068 151.863 325.579 148.681 325.579 144.755C325.579 140.829 320.068 137.647 313.269 137.647C306.47 137.647 300.959 140.829 300.959 144.755C300.959 148.681 306.47 151.863 313.269 151.863Z" fill="#FFCDEE"/>
<path d="M313.139 185.01C310.18 185.01 307.224 184.36 304.972 183.059C302.729 181.765 301.482 180.027 301.482 178.162C301.482 176.297 302.719 174.555 304.972 173.261C309.476 170.66 316.803 170.66 321.31 173.261C323.549 174.555 324.799 176.297 324.799 178.162C324.799 180.027 323.562 181.765 321.31 183.059C319.058 184.353 316.099 185.01 313.139 185.01ZM305.289 182.51C309.618 185.01 316.663 185.01 320.993 182.51C323.029 181.334 324.165 179.789 324.165 178.162C324.165 176.534 323.042 174.99 320.993 173.81C316.663 171.31 309.618 171.31 305.289 173.81C303.249 174.987 302.117 176.531 302.117 178.162C302.117 179.792 303.24 181.334 305.289 182.51Z" fill="#37474F"/>
<path d="M314.367 138.529C314.125 138.529 313.862 138.414 313.84 138.167C312.822 126.77 315.445 116.458 316.46 114.171C316.525 114.056 316.631 113.97 316.756 113.928C316.881 113.886 317.018 113.893 317.139 113.946C317.197 113.972 317.249 114.008 317.292 114.054C317.336 114.1 317.37 114.154 317.392 114.213C317.415 114.272 317.425 114.335 317.423 114.398C317.421 114.461 317.406 114.523 317.38 114.581C316.241 117.14 313.891 127.56 314.842 138.151C314.842 138.357 314.671 138.509 314.411 138.535L314.367 138.529Z" fill="#455A64"/>
<path d="M329.364 124.223L316.537 116.817L316.014 117.134C315.352 119.718 314.86 122.342 314.542 124.991C314.533 125.053 314.544 125.116 314.571 125.173C314.599 125.229 314.643 125.276 314.697 125.308L326.399 132.064L326.922 131.747C327.604 128.87 329.364 124.223 329.364 124.223Z" fill="#FFCDEE"/>
<path opacity="0.4" d="M329.364 124.223L316.537 116.817L316.014 117.134C315.352 119.718 314.86 122.342 314.542 124.991C314.533 125.053 314.544 125.116 314.571 125.173C314.599 125.229 314.643 125.276 314.697 125.308L326.399 132.064L326.922 131.747C327.604 128.87 329.364 124.223 329.364 124.223Z" fill="black"/>
<path opacity="0.5" d="M316.021 117.121L316.545 116.817L329.363 124.217L328.842 124.521L316.021 117.121Z" fill="#FFCDEE"/>
<path d="M324.675 144.701C324.412 144.701 324.199 144.606 324.199 144.428C324.199 134.415 328.177 124.686 329.395 121.946C329.419 121.887 329.455 121.834 329.501 121.79C329.546 121.746 329.599 121.711 329.658 121.688C329.717 121.664 329.78 121.653 329.843 121.654C329.907 121.656 329.969 121.67 330.027 121.695C330.085 121.721 330.137 121.758 330.18 121.804C330.224 121.851 330.257 121.905 330.279 121.964C330.301 122.024 330.311 122.087 330.309 122.15C330.306 122.213 330.291 122.275 330.264 122.333C329.065 125.032 325.141 134.602 325.151 144.428C325.151 144.523 324.938 144.701 324.675 144.701Z" fill="#455A64"/>
<path d="M327.883 116.839C327.633 116.611 327.331 116.439 327.084 116.205C326.733 115.867 326.509 115.419 326.45 114.936C326.386 114.4 326.526 113.861 326.491 113.324C326.462 112.975 326.359 112.635 326.188 112.327C326.018 112.02 325.785 111.752 325.504 111.542C324.886 111.076 324.109 111.041 323.455 110.654C323.049 110.423 322.723 110.073 322.523 109.651C322.325 109.103 322.273 108.513 322.37 107.939C322.511 106.715 322.493 105.478 322.317 104.259C322.065 102.854 321.446 101.54 320.521 100.453C319.759 99.5216 318.786 98.7845 317.683 98.3021C316.58 97.8196 315.379 97.6055 314.177 97.6774L313.521 97.725C312.449 97.798 311.405 98.1009 310.46 98.6131L310.117 98.8098C310.097 98.8253 310.076 98.8391 310.054 98.851C309.933 98.924 309.816 99.0033 309.699 99.0857C309.581 99.1682 309.467 99.257 309.353 99.349C308.056 100.393 307.529 101.807 307.133 103.472C306.394 106.15 306.01 110.057 307.313 113.477C308.122 115.599 309.686 117.369 311.278 118.672C315.338 122.009 322.561 123.747 326.849 121.067C328.359 120.119 329.406 118.222 327.883 116.839Z" fill="#455A64"/>
<path d="M312.096 97.9692C308.562 98.1754 305.413 99.1492 304.553 101.63C303.693 104.11 305.841 107.339 307.129 107.339C308.959 107.336 312.096 97.9692 312.096 97.9692Z" fill="#455A64"/>
<path d="M308.606 183.151L308.216 183.088C308.216 181.857 308.311 180.734 308.02 180.15L308.606 178.653V183.151Z" fill="#263238"/>
<path d="M309.67 177.578C309.566 178.419 309.071 179.272 309.001 180.931C308.948 181.637 308.948 182.347 309.001 183.053L308.592 183.151V178.653L309.67 177.578Z" fill="#263238"/>
<path d="M299.996 184.087C300.017 184.314 300.106 184.53 300.253 184.705C300.462 184.87 301.125 185.429 303.292 185.34C305.458 185.251 306.223 184.737 306.977 184.071C307.732 183.405 307.961 181.645 308.088 180.81C308.335 179.199 309.039 178.365 309.674 177.562C309.783 177.296 309.812 177.004 309.756 176.722C309.756 176.722 307.97 176.585 307.155 178.552C306.34 180.519 305.687 182.802 303.926 183.31C302.637 183.664 301.323 183.923 299.996 184.087Z" fill="#37474F"/>
<path d="M301.131 182.225C300.459 182.783 299.954 183.027 299.999 183.557C300.043 184.087 300.601 184.337 301.049 184.483C302.102 184.823 303.31 184.715 304.376 184.547C305.442 184.379 306.641 183.912 307.117 182.897C307.242 182.6 307.334 182.289 307.389 181.971C307.558 180.916 307.852 179.886 308.265 178.901C308.432 178.487 308.639 178.091 308.883 177.718C309.172 177.321 309.518 176.89 309.581 176.385C309.632 175.967 309.321 175.367 308.912 174.72C308.448 173.994 308.233 173.137 308.3 172.278L308.617 168.471L303.786 169.521L304.42 173.797C304.585 174.917 304.16 176.097 303.897 177.169C303.603 178.363 303.167 179.517 302.597 180.607C302.462 180.888 302.289 181.148 302.083 181.381C301.786 181.684 301.468 181.966 301.131 182.225Z" fill="#FFA8A7"/>
<path d="M309.501 175.513C309.237 175.095 308.917 174.774 308.698 174.343C308.483 174.611 308.308 174.909 308.178 175.228C307.61 176.3 307.471 177.997 306.909 179.668C306.491 180.937 305.818 181.572 304.905 181.911C304.332 182.114 303.719 182.171 303.119 182.076C301.999 181.898 302.278 181.096 302.278 181.096C302.012 181.448 300.787 182.365 300.112 182.815C299.684 183.1 299.734 183.722 299.998 184.084C300.315 184.36 301.358 185.035 304.051 184.702C306.443 184.404 307.023 183.316 307.258 182.824C307.51 182.104 307.692 181.36 307.801 180.604C307.95 179.771 308.25 178.973 308.686 178.247C308.735 178.162 308.789 178.08 308.847 178C309.012 177.765 309.206 177.508 309.425 177.255C309.596 177.055 309.742 176.963 309.783 176.772C309.821 176.554 309.816 176.331 309.768 176.115C309.719 175.898 309.629 175.694 309.501 175.513Z" fill="#FFCDEE"/>
<path opacity="0.4" d="M309.501 175.513C309.237 175.095 308.917 174.774 308.698 174.343C308.483 174.611 308.308 174.909 308.178 175.228C307.61 176.3 307.471 177.997 306.909 179.668C306.491 180.937 305.818 181.572 304.905 181.911C304.332 182.114 303.719 182.171 303.119 182.076C301.999 181.898 302.278 181.096 302.278 181.096C302.012 181.448 300.787 182.365 300.112 182.815C299.684 183.1 299.734 183.722 299.998 184.084C300.315 184.36 301.358 185.035 304.051 184.702C306.443 184.404 307.023 183.316 307.258 182.824C307.51 182.104 307.692 181.36 307.801 180.604C307.95 179.771 308.25 178.973 308.686 178.247C308.735 178.162 308.789 178.08 308.847 178C309.012 177.765 309.206 177.508 309.425 177.255C309.596 177.055 309.742 176.963 309.783 176.772C309.821 176.554 309.816 176.331 309.768 176.115C309.719 175.898 309.629 175.694 309.501 175.513Z" fill="black"/>
<path d="M301.381 177.902L300.987 177.848C300.952 176.62 301.013 175.494 300.705 174.92L301.247 173.407L301.381 177.902Z" fill="#263238"/>
<path d="M302.295 172.3C302.215 173.141 301.743 174.01 301.724 175.672C301.691 176.379 301.711 177.087 301.784 177.791L301.381 177.902L301.248 173.407L302.295 172.3Z" fill="#263238"/>
<path d="M292.814 179.098C292.842 179.325 292.938 179.539 293.09 179.71C293.303 179.868 293.982 180.382 296.142 180.236C298.302 180.09 299.06 179.576 299.793 178.895C300.525 178.213 300.706 176.443 300.808 175.605C301.008 173.988 301.674 173.131 302.295 172.313C302.398 172.045 302.418 171.752 302.352 171.472C302.352 171.472 300.563 171.387 299.815 173.375C299.066 175.364 298.47 177.667 296.725 178.232C295.445 178.615 294.137 178.905 292.814 179.098Z" fill="#37474F"/>
<path d="M293.895 177.194C293.239 177.771 292.741 178.028 292.804 178.555C292.868 179.081 293.439 179.319 293.876 179.449C294.942 179.767 296.144 179.618 297.204 179.421C298.263 179.224 299.453 178.71 299.897 177.692C300.015 177.391 300.097 177.077 300.141 176.756C300.28 175.698 300.545 174.66 300.931 173.664C301.084 173.245 301.279 172.842 301.511 172.462C301.79 172.056 302.127 171.615 302.171 171.11C302.212 170.689 301.882 170.099 301.457 169.467V169.452C300.972 168.741 300.732 167.891 300.775 167.031L300.972 163.203L296.176 164.392L296.931 168.646C297.131 169.762 296.737 170.955 296.506 172.033C296.248 173.241 295.845 174.413 295.304 175.523C295.179 175.806 295.014 176.071 294.815 176.309C294.53 176.625 294.222 176.921 293.895 177.194Z" fill="#FFA8A7"/>
<path d="M302.066 170.238C301.768 169.872 301.489 169.489 301.232 169.093C301.023 169.366 300.857 169.669 300.737 169.991C300.201 171.076 300.102 172.779 299.601 174.473C299.221 175.742 298.567 176.42 297.666 176.772C297.1 176.992 296.487 177.067 295.884 176.988C294.758 176.842 295.012 176.037 295.012 176.037C294.755 176.398 293.562 177.353 292.899 177.819C292.477 178.114 292.544 178.736 292.82 179.088C293.137 179.354 294.209 180.001 296.889 179.589C299.271 179.224 299.82 178.117 300.042 177.619C300.273 176.889 300.432 176.138 300.518 175.377C300.643 174.541 300.919 173.735 301.333 172.998C301.387 172.906 301.438 172.82 301.489 172.744C301.647 172.506 301.834 172.243 302.047 171.983C302.212 171.78 302.342 171.685 302.389 171.491C302.421 171.271 302.408 171.048 302.352 170.833C302.297 170.618 302.2 170.416 302.066 170.238Z" fill="#FFCDEE"/>
<path opacity="0.4" d="M302.066 170.238C301.768 169.872 301.489 169.489 301.232 169.093C301.023 169.366 300.857 169.669 300.737 169.991C300.201 171.076 300.102 172.779 299.601 174.473C299.221 175.742 298.567 176.42 297.666 176.772C297.1 176.992 296.487 177.067 295.884 176.988C294.758 176.842 295.012 176.037 295.012 176.037C294.755 176.398 293.562 177.353 292.899 177.819C292.477 178.114 292.544 178.736 292.82 179.088C293.137 179.354 294.209 180.001 296.889 179.589C299.271 179.224 299.82 178.117 300.042 177.619C300.273 176.889 300.432 176.138 300.518 175.377C300.643 174.541 300.919 173.735 301.333 172.998C301.387 172.906 301.438 172.82 301.489 172.744C301.647 172.506 301.834 172.243 302.047 171.983C302.212 171.78 302.342 171.685 302.389 171.491C302.421 171.271 302.408 171.048 302.352 170.833C302.297 170.618 302.2 170.416 302.066 170.238Z" fill="black"/>
<path d="M322.317 137.292C321.991 135.949 321.492 134.655 320.832 133.441C316.236 135.626 311.618 135.563 306.987 134.075C307.152 134.58 305.889 135.76 302.546 138.072C300.123 139.744 296.342 142.135 294.489 143.607C293.538 144.352 292.57 145.313 292.992 148.01C293.563 151.66 296.164 164.45 296.164 164.45C299.311 165.569 300.922 163.711 300.922 163.711C300.922 163.711 301.417 158.838 301.817 154.915C302.216 150.991 301.1 148.815 301.1 148.815C301.1 148.815 310.238 145.545 313.806 144.809C319.782 143.572 323.103 142.82 322.317 137.292Z" fill="#37474F"/>
<path d="M306.65 137.495C306.65 137.495 308.046 140.606 309.889 141.371L303.424 148.013L301.115 148.822L303.25 147.512L308.208 141.409C308.208 141.409 306.631 139.639 306.65 137.495Z" fill="#263238"/>
<path d="M300.554 154.56C300.797 155.812 301.109 157.05 301.49 158.267C301.604 157.16 301.721 156.003 301.832 154.918C301.954 153.787 301.947 152.647 301.813 151.518L301.207 150.848C300.51 151.768 300.11 152.317 300.554 154.56Z" fill="#263238"/>
<path d="M322.329 137.368C322.331 137.342 322.331 137.317 322.329 137.292C322.003 135.949 321.504 134.655 320.845 133.441C316.249 135.626 311.631 135.563 307 134.075C306.93 134.618 307.066 135.661 307.317 136.844C307.973 140.28 309.877 141.371 309.877 141.371C307.107 144.089 303.346 147.93 301.63 150.04C301.157 150.626 300.7 151.835 300.976 153.529C301.576 157.176 303.897 170.536 303.897 170.536C307.054 171.383 308.427 170.159 308.427 170.159C308.427 170.159 309.16 164.925 309.559 161.002C309.775 158.547 309.387 156.077 308.427 153.808C308.427 153.808 313.911 150.925 317.22 148.809C322.406 145.501 323.465 141.862 322.329 137.368Z" fill="#37474F"/>
<path d="M310.26 115.117C307.633 115.034 306.498 115.992 304.845 119.24C303.557 121.778 302.279 124.461 301.217 126.31C298.657 126.117 293.826 125.451 292.04 124.762C291.707 124.634 291.431 124.389 291.263 124.074C290.877 123.362 290.353 122.733 289.721 122.225C289.204 121.765 289.087 121.165 288.83 121.178C288.573 121.191 288.272 121.597 288.408 122.181C288.601 122.631 288.833 123.063 289.103 123.471C288.684 123.557 287.232 122.913 286.321 121.911C285.113 120.579 283.952 121.226 284.101 123.449C284.148 124.245 285.284 126.266 288.332 127.719C289.489 128.223 290.683 128.635 291.904 128.953C295.076 129.882 298.219 130.925 300.509 131.157C302.285 131.338 303.262 131.474 304.55 130.047C308.29 125.841 309.73 122.003 311.357 119.262L310.26 115.117Z" fill="#FFA8A7"/>
<path d="M310.652 115.088C309.114 114.99 308.023 115.186 307.112 115.859C306.202 116.531 305.843 117.175 304.927 118.796C304.01 120.417 301.159 126.215 301.159 126.215L297.717 125.898C297.889 126.68 297.889 127.491 297.717 128.274C297.605 129.047 297.291 129.776 296.807 130.389C296.807 130.389 299.002 131.024 300.477 131.246C302.557 131.563 303.29 131.703 304.537 130.224C305.783 128.746 310.379 122.954 310.379 122.954L310.652 115.088Z" fill="#37474F"/>
<path d="M320.49 132.347C320.217 131.912 319.881 131.135 319.998 130.577C320.176 129.755 320.632 127.325 320.632 127.325L319.776 123.709C319.604 123.126 319.47 122.531 319.376 121.93C318.942 120.366 318.555 117.588 319.548 116.062L317.686 115.65C315.927 115.235 314.122 115.054 312.316 115.11L310.647 115.088C310.647 115.088 306.796 119.424 305.988 121.369C305.525 122.488 304.925 124.512 307.038 126.897C307.095 128.252 306.863 130.472 306.819 131.55C306.774 132.629 306.676 133.948 306.54 134.944C307.174 136.34 309.461 138.646 314.425 138.487C319.57 138.322 322.038 135.753 322.038 135.753C321.687 134.55 321.166 133.402 320.49 132.347Z" fill="#FFCDEE"/>
<path opacity="0.1" d="M311.25 126.672C311.25 126.672 312.57 128.191 315.253 127.623C317.936 127.056 318.387 125.01 318.387 125.01C318.387 125.01 318.65 127.623 315.443 128.28C312.236 128.937 311.25 126.672 311.25 126.672Z" fill="black"/>
<path d="M327.067 131.201C326.579 128.959 325.567 125.105 324.549 121.108C323.448 116.788 322.43 116.75 319.791 116.262C317.805 118.695 319.791 124.379 319.791 124.379L322.059 132.229C320.625 134.767 319.442 137.422 317.78 139.423C317.495 139.769 316.981 139.74 316.533 139.804C315.338 139.931 314.89 140.184 313.847 140.571C313.032 140.873 312.502 140.79 312.486 141.006C312.467 141.282 312.67 141.843 313.438 141.957C313.907 142.002 314.38 141.981 314.843 141.894C314.12 142.505 313.315 143.012 312.451 143.401C310.399 144.352 309.73 146.084 312.569 146.614C314.281 146.931 316.191 146.535 318.827 144.022C319.956 142.952 320.994 141.789 321.929 140.546C324.26 137.301 327.372 133.063 327.067 131.201Z" fill="#FFA8A7"/>
<path d="M319.554 116.062C320.988 116.335 322.152 116.572 322.742 117.013C323.332 117.454 323.694 117.781 324.201 119.234C324.709 120.686 326.923 129.615 327.088 130.392C327.253 131.17 327.51 131.858 326.748 133.368C325.987 134.878 323.802 137.9 323.802 137.9C323.802 137.9 322.701 136.292 320.167 135.696L321.714 132.254L318.86 122.859C318.86 122.859 317.489 118.479 319.554 116.062Z" fill="#37474F"/>
<path d="M320.077 97.5791L319.557 99.5742C319.686 99.6147 319.822 99.6286 319.957 99.615C320.092 99.6014 320.222 99.5606 320.341 99.495C320.46 99.4295 320.564 99.3406 320.647 99.2338C320.73 99.1269 320.791 99.0043 320.825 98.8732C320.89 98.6027 320.849 98.3175 320.71 98.0766C320.57 97.8358 320.344 97.6576 320.077 97.5791Z" fill="#455A64"/>
<path d="M321.79 99.3936L319.729 99.4697C319.727 99.6049 319.752 99.7392 319.804 99.8642C319.856 99.9892 319.932 100.103 320.029 100.197C320.126 100.292 320.24 100.366 320.367 100.415C320.493 100.463 320.627 100.486 320.763 100.482C321.041 100.468 321.304 100.347 321.495 100.144C321.687 99.9413 321.792 99.6724 321.79 99.3936Z" fill="#455A64"/>
<path d="M309.212 101.189C308.362 101.693 307.309 103.831 307.413 108.313C307.502 112.119 308.733 113.052 309.352 113.321C309.97 113.591 311.163 113.426 312.32 113.236V115.513C312.32 115.513 311.258 116.442 311.369 117.489C311.48 118.536 313.684 118.78 315.175 117.759C316.666 116.737 317.101 115.818 317.101 115.818V110.206C317.101 110.206 317.735 110.879 318.858 110.111C319.101 109.957 319.31 109.754 319.47 109.514C319.63 109.275 319.739 109.004 319.789 108.721C319.839 108.437 319.83 108.146 319.761 107.866C319.693 107.586 319.566 107.323 319.391 107.095C318.905 106.521 317.662 106.479 317.066 107.371C317.066 107.371 315.324 107.45 312.863 106.102C310.401 104.754 309.558 102.394 309.212 101.189Z" fill="#FFA8A7"/>
<path d="M312.096 107.358C312.095 107.451 312.122 107.542 312.173 107.62C312.224 107.699 312.296 107.76 312.382 107.797C312.467 107.834 312.562 107.845 312.653 107.829C312.745 107.813 312.83 107.771 312.898 107.707C312.966 107.643 313.013 107.561 313.035 107.47C313.056 107.379 313.05 107.284 313.018 107.197C312.986 107.109 312.929 107.033 312.854 106.978C312.779 106.923 312.69 106.89 312.597 106.886C312.533 106.883 312.469 106.894 312.409 106.917C312.349 106.939 312.294 106.974 312.248 107.017C312.201 107.061 312.164 107.114 312.138 107.173C312.112 107.231 312.097 107.294 312.096 107.358Z" fill="#263238"/>
<path d="M311.78 110.39L310.406 110.828C310.431 110.92 310.474 111.006 310.533 111.081C310.592 111.156 310.665 111.219 310.749 111.265C310.832 111.311 310.924 111.339 311.019 111.349C311.114 111.358 311.21 111.348 311.301 111.32C311.486 111.257 311.639 111.125 311.728 110.952C311.818 110.779 311.836 110.577 311.78 110.39Z" fill="#F28F8F"/>
<path d="M307.951 105.677L309.089 105.379C309.073 105.304 309.042 105.233 308.998 105.171C308.954 105.108 308.898 105.055 308.832 105.015C308.767 104.975 308.694 104.949 308.619 104.938C308.543 104.926 308.466 104.931 308.392 104.951C308.241 104.996 308.113 105.095 308.032 105.229C307.95 105.363 307.921 105.523 307.951 105.677Z" fill="#263238"/>
<path d="M312.471 105.404L313.527 105.921C313.564 105.854 313.588 105.781 313.595 105.704C313.603 105.628 313.595 105.551 313.572 105.478C313.549 105.405 313.511 105.337 313.461 105.279C313.41 105.221 313.349 105.174 313.28 105.141C313.136 105.077 312.974 105.068 312.824 105.117C312.675 105.166 312.549 105.268 312.471 105.404Z" fill="#263238"/>
<path d="M308.068 107.012C308.067 107.106 308.094 107.198 308.145 107.277C308.195 107.356 308.268 107.419 308.354 107.456C308.44 107.494 308.535 107.506 308.628 107.49C308.72 107.474 308.806 107.432 308.875 107.368C308.943 107.303 308.991 107.22 309.013 107.129C309.035 107.038 309.029 106.942 308.997 106.854C308.965 106.766 308.908 106.689 308.832 106.633C308.757 106.577 308.666 106.545 308.573 106.54C308.509 106.538 308.445 106.548 308.385 106.571C308.324 106.593 308.269 106.628 308.223 106.672C308.176 106.715 308.138 106.768 308.112 106.827C308.085 106.885 308.07 106.948 308.068 107.012Z" fill="#263238"/>
<path d="M310.723 106.74L310.647 109.617L309.131 109.147L310.723 106.74Z" fill="#F28F8F"/>
<path d="M312.321 113.236C313.545 113.074 316.057 112.351 316.444 111.358C316.286 111.86 315.978 112.303 315.562 112.627C314.811 113.261 312.314 113.994 312.314 113.994L312.321 113.236Z" fill="#F28F8F"/>
<path d="M246.46 193.631V152.863H247.801V193.631C247.807 193.697 247.791 193.764 247.757 193.82C247.723 193.877 247.672 193.922 247.611 193.948C247.464 194.023 247.301 194.062 247.135 194.062C246.97 194.062 246.807 194.023 246.66 193.948C246.597 193.924 246.544 193.88 246.508 193.822C246.472 193.765 246.455 193.698 246.46 193.631Z" fill="#37474F"/>
<path d="M236.944 189.051V149.973H238.283V189.051C238.288 189.117 238.273 189.183 238.239 189.24C238.205 189.297 238.153 189.342 238.092 189.368C237.945 189.442 237.782 189.481 237.617 189.481C237.451 189.481 237.289 189.442 237.141 189.368C237.079 189.343 237.026 189.298 236.991 189.242C236.956 189.185 236.939 189.118 236.944 189.051Z" fill="#37474F"/>
<path d="M257.359 189.051V149.973H256.021V189.051C256.015 189.117 256.031 189.183 256.065 189.24C256.099 189.297 256.15 189.342 256.211 189.368C256.359 189.442 256.522 189.481 256.687 189.481C256.852 189.481 257.015 189.442 257.162 189.368C257.225 189.343 257.277 189.298 257.312 189.242C257.348 189.185 257.364 189.118 257.359 189.051Z" fill="#37474F"/>
<path d="M238.293 140.816C243.098 138.04 250.895 138.04 255.703 140.816C258.105 142.202 259.307 144.023 259.304 145.84V148.06C259.304 149.881 258.105 151.699 255.7 153.088C250.895 155.863 243.098 155.863 238.293 153.088C235.888 151.699 234.689 149.881 234.689 148.06V145.84C234.702 144.023 235.888 142.202 238.293 140.816Z" fill="#455A64"/>
<path d="M238.293 139.731C243.098 136.956 250.895 136.956 255.703 139.731C258.105 141.117 259.307 142.938 259.304 144.755V146.976C259.304 148.796 258.105 150.614 255.7 152.003C250.895 154.779 243.098 154.779 238.293 152.003C235.888 150.614 234.689 148.796 234.689 146.976V144.755C234.702 142.938 235.888 141.117 238.293 139.731Z" fill="#FFCDEE"/>
<path opacity="0.4" d="M238.293 139.731C243.098 136.956 250.895 136.956 255.703 139.731C258.105 141.117 259.307 142.938 259.304 144.755V146.976C259.304 148.796 258.105 150.614 255.7 152.003C250.895 154.779 243.098 154.779 238.293 152.003C235.888 150.614 234.689 148.796 234.689 146.976V144.755C234.702 142.938 235.888 141.117 238.293 139.731Z" fill="black"/>
<path opacity="0.5" d="M246.996 151.864C253.795 151.864 259.306 148.681 259.306 144.755C259.306 140.829 253.795 137.647 246.996 137.647C240.197 137.647 234.686 140.829 234.686 144.755C234.686 148.681 240.197 151.864 246.996 151.864Z" fill="#FFCDEE"/>
<path d="M247.129 185.01C244.169 185.01 241.21 184.36 238.958 183.059C236.706 181.759 235.469 180.027 235.469 178.162C235.469 176.297 236.703 174.555 238.958 173.261C243.462 170.66 250.792 170.66 255.296 173.261C257.539 174.555 258.786 176.297 258.786 178.162C258.786 180.027 257.552 181.765 255.296 183.059C253.044 184.36 250.085 185.01 247.129 185.01ZM247.129 171.935C244.274 171.935 241.441 172.57 239.275 173.81C237.239 174.987 236.103 176.532 236.103 178.162C236.103 179.792 237.226 181.334 239.275 182.511C243.605 185.01 250.65 185.01 254.979 182.511C257.016 181.334 258.151 179.789 258.151 178.162C258.151 176.535 257.028 174.99 254.979 173.81C252.816 172.56 249.971 171.935 247.129 171.935Z" fill="#37474F"/>
<path d="M245.899 138.529C246.144 138.529 246.404 138.415 246.426 138.167C247.444 126.77 244.824 116.459 243.806 114.172C243.742 114.056 243.637 113.969 243.512 113.927C243.387 113.886 243.251 113.892 243.13 113.946C243.072 113.972 243.02 114.008 242.977 114.054C242.933 114.1 242.899 114.154 242.877 114.213C242.854 114.272 242.844 114.335 242.846 114.398C242.848 114.461 242.863 114.523 242.889 114.581C244.025 117.14 246.378 127.56 245.427 138.151C245.427 138.357 245.595 138.51 245.858 138.535L245.899 138.529Z" fill="#455A64"/>
<path d="M230.896 124.223L243.717 116.823L244.241 117.14C244.901 119.725 245.393 122.349 245.713 124.997C245.721 125.06 245.711 125.123 245.683 125.18C245.655 125.236 245.612 125.283 245.557 125.314L233.856 132.071L233.333 131.753C232.666 128.87 230.896 124.223 230.896 124.223Z" fill="#FFCDEE"/>
<path opacity="0.4" d="M230.896 124.223L243.717 116.823L244.241 117.14C244.901 119.725 245.393 122.349 245.713 124.997C245.721 125.06 245.711 125.123 245.683 125.18C245.655 125.236 245.612 125.283 245.557 125.314L233.856 132.071L233.333 131.753C232.666 128.87 230.896 124.223 230.896 124.223Z" fill="black"/>
<path opacity="0.5" d="M244.247 117.121L243.723 116.817L230.902 124.217L231.426 124.521L244.247 117.121Z" fill="#FFCDEE"/>
<path d="M235.59 144.701C235.853 144.701 236.066 144.606 236.066 144.428C236.066 134.415 232.091 124.686 230.873 121.946C230.818 121.839 230.724 121.757 230.611 121.716C230.498 121.676 230.373 121.679 230.263 121.727C230.152 121.774 230.064 121.862 230.015 121.972C229.967 122.082 229.961 122.207 230.001 122.32C231.203 125.02 235.124 134.589 235.114 144.416C235.114 144.524 235.336 144.701 235.59 144.701Z" fill="#455A64"/>
<path d="M246.675 97.465L246.634 97.4904C244.782 98.6799 242.672 99.0478 241.014 100.599C240.252 101.285 239.656 102.136 239.271 103.087C238.886 104.037 238.723 105.063 238.793 106.086C238.984 110.448 242.504 112.687 243.694 113.969C243.751 114.029 244.154 113.988 244.233 113.991L245.438 114.048C245.73 114.048 246.098 114.216 246.39 114.13C246.758 114.013 247.024 113.528 247.25 113.239C249.019 110.882 251.941 109.769 253.841 107.53C254.497 106.756 255.138 105.925 255.392 104.944C255.646 103.964 255.427 102.791 254.612 102.188C254.877 101.828 255.026 101.395 255.038 100.948C255.05 100.501 254.924 100.06 254.678 99.6868C254.432 99.3133 254.077 99.0243 253.661 98.8589C253.245 98.6936 252.789 98.6599 252.353 98.7623C252.712 97.9567 252.277 96.948 251.528 96.4817C251.141 96.269 250.713 96.1406 250.272 96.1051C249.832 96.0696 249.388 96.1277 248.972 96.2755C248.156 96.5666 247.384 96.9667 246.675 97.465Z" fill="#263238"/>
<path d="M243.624 115.342C242.856 116.674 241.045 117.074 239.582 116.23C238.12 115.386 237.562 113.619 238.333 112.284C239.104 110.949 240.912 110.555 242.374 111.399C243.836 112.243 244.394 113.997 243.624 115.342Z" fill="#263238"/>
<path d="M254.631 158.886C253.289 158.569 252.008 159.52 251.859 159.857C251.656 160.31 251.605 161.271 252.033 162.505C252.392 163.729 252.462 165.019 252.236 166.273C252.021 167.339 251.218 169.969 252.16 171.434C253.102 172.9 255.386 174.336 256.442 172.582C256.785 172.008 256.442 169.851 256.36 168.297C256.188 165.198 256.125 162.131 256.125 162.131L254.631 158.886Z" fill="#263238"/>
<path d="M253.943 161.271C254.012 162.774 253.967 164.28 253.807 165.775C253.607 167.406 253.835 168.519 254.321 169.309C254.857 170.178 256.363 170.797 256.36 169.093C256.36 167.907 256.125 162.131 256.125 162.131L253.943 161.271Z" fill="#FFA8A7"/>
<path opacity="0.15" d="M252.37 159.368C252.198 160.367 252.544 162.829 253.667 165.214C254.764 167.552 256.347 170.606 256.553 172.218C256.668 171.501 256.506 170.153 256.407 168.954C256.407 168.928 256.407 168.903 256.407 168.878C256.407 168.852 256.407 168.738 256.407 168.668C256.407 168.598 256.407 168.605 256.407 168.576C256.407 168.487 256.407 168.399 256.392 168.313C256.338 167.342 256.296 166.378 256.262 165.509C256.233 164.814 256.214 164.18 256.198 163.653C256.198 163.39 256.198 163.155 256.176 162.952C256.176 162.851 256.176 162.759 256.176 162.673C256.176 162.337 256.176 162.147 256.176 162.147L254.682 158.902C254.593 158.88 254.507 158.867 254.422 158.854C253.698 158.771 252.969 158.953 252.37 159.368Z" fill="black"/>
<path d="M262.019 140.562C258.273 137.675 253.731 134.954 253.731 134.954L248.627 140.299L253.001 144.739L259.725 149.281C258.939 150.058 258.3 150.97 257.838 151.974C257.584 152.52 257.178 153.621 256.744 154.867L258.993 162.603C258.993 162.603 263.694 155.942 266.352 151.41C268.461 147.81 267.985 146.176 267.646 145.653C266.739 144.267 266.104 143.708 262.019 140.562Z" fill="#37474F"/>
<path d="M258.175 148.235C257.826 147.743 257.458 147.283 257.09 146.82C255.697 145.117 252.072 140.949 252.072 140.949L251.438 141.339L254.346 145.653L258.175 148.235Z" fill="#263238"/>
<path d="M260.229 160.833C260.229 158.061 260.181 154.195 260.08 152.824C259.983 151.786 259.677 150.778 259.179 149.862C258.713 150.425 258.309 151.038 257.977 151.689L259.699 161.601L260.229 160.833Z" fill="#263238"/>
<path d="M256.645 174.34C256.327 174.286 256.235 174.847 255.959 175.545C255.636 176.209 255.52 176.955 255.626 177.686C255.804 178.622 257.212 178.955 257.796 180.239C258.38 181.524 259.157 183.785 261.602 184.778C264.048 185.771 266.157 185.264 266.769 184.588C267.382 183.912 267.087 183.116 265.608 181.895C264.048 180.598 263.607 180.22 263.607 180.22L256.645 174.34Z" fill="#263238"/>
<path d="M260.534 170.435C260.713 171.987 260.984 173.527 261.346 175.047C261.822 176.747 262.748 178.438 263.82 180.055C264.055 180.408 264.603 181.077 264.794 181.359C264.84 181.416 264.874 181.483 264.892 181.555C264.91 181.626 264.912 181.701 264.898 181.773C264.883 181.846 264.853 181.914 264.81 181.974C264.766 182.033 264.71 182.082 264.645 182.117C264.01 182.58 261.625 182.406 260.423 181.239C259.221 180.071 258.282 177.791 257.59 176.89C257.331 176.554 257.09 176.204 256.867 175.843C256.647 175.516 256.55 175.122 256.594 174.73C256.709 174.225 256.741 173.704 256.689 173.188C256.607 172.497 256.483 171.812 256.318 171.136L260.534 170.435Z" fill="#FFA8A7"/>
<path d="M238.825 134.462C237.991 136.974 237.433 137.824 237.959 140.565C238.486 143.305 241.194 145.846 244.541 148.419C247.307 150.547 251.395 153.63 252.239 154.128C253.083 154.626 253.108 155.194 252.762 156.884C252.417 158.575 252.648 161.442 254.095 165.179C255.627 169.128 256.41 171.78 256.41 171.78C257.134 172.015 257.904 172.074 258.655 171.952C259.406 171.83 260.118 171.531 260.73 171.079C260.73 171.079 259.522 153.912 259.049 151.584C258.577 149.256 251.119 140.971 251.119 140.971C251.119 140.971 252.747 137.428 253.739 134.944L238.825 134.462Z" fill="#37474F"/>
<path d="M253.734 138.703C253.734 138.703 252.979 140.635 251.428 141.339L252.037 142.027C252.541 141.627 252.954 141.123 253.247 140.55C253.539 139.976 253.705 139.346 253.734 138.703Z" fill="#263238"/>
<path d="M250.006 115.117C252.635 115.034 253.771 115.992 255.42 119.24C256.711 121.778 257.989 124.461 259.049 126.31C261.612 126.117 266.439 125.451 268.228 124.762C268.561 124.635 268.836 124.39 269.002 124.074C269.39 123.361 269.915 122.733 270.547 122.225C271.061 121.765 271.181 121.165 271.435 121.178C271.689 121.191 271.997 121.597 271.86 122.181C271.665 122.629 271.433 123.061 271.166 123.471C271.584 123.557 273.037 122.913 273.944 121.911C275.156 120.579 276.317 121.226 276.18 123.449C276.133 124.245 274.997 126.266 271.946 127.719C270.79 128.224 269.595 128.636 268.374 128.953C265.202 129.882 262.062 130.925 259.769 131.157C257.996 131.338 257.019 131.474 255.731 130.047C251.979 125.857 250.535 122.019 248.908 119.278L250.006 115.117Z" fill="#FFA8A7"/>
<path d="M250.006 115.117C251.294 114.99 252.166 115.193 253 115.716C253.834 116.24 254.554 117.34 254.903 117.937C255.033 118.986 254.399 121.657 251.995 123.177L250.006 115.117Z" fill="#455A64"/>
<path d="M239.776 132.347C240.049 131.912 240.385 131.135 240.265 130.577C240.09 129.755 239.631 127.325 239.631 127.325L239.047 124.839C239.047 124.839 240.674 122.301 240.893 120.956C241.112 119.611 241.093 118.657 240.484 116.246L243.275 115.745C244.799 115.347 246.369 115.152 247.944 115.164L250.006 115.117C250.006 115.117 253.812 119.129 254.396 120.893C254.77 122.047 255.224 124.144 253.492 126.64C253.438 127.995 253.403 130.481 253.447 131.56C253.492 132.638 253.593 133.958 253.73 134.954C253.095 136.35 250.808 138.656 245.841 138.497C240.699 138.332 238.229 135.763 238.229 135.763C238.577 134.555 239.098 133.405 239.776 132.347Z" fill="#FFCDEE"/>
<path d="M251.69 133.901C251.43 133.887 251.176 133.821 250.942 133.707C250.625 133.542 250.371 133.149 250.177 132.499C250.012 131.947 249.787 130.758 250.108 130.196C250.517 129.482 251.43 129.562 252.036 129.616L252.245 129.631L252.179 130.583L251.954 130.567C251.614 130.535 251.043 130.488 250.939 130.669C250.774 131.03 251.1 132.629 251.392 132.857C251.676 132.961 251.985 132.975 252.277 132.899L252.521 133.828C252.25 133.894 251.969 133.918 251.69 133.901Z" fill="#E6E6E6"/>
<path d="M252.112 128.62C252.201 128.328 252.515 128.061 253.064 127.871C254.507 127.448 256.055 127.561 257.422 128.188C257.927 128.448 258.202 128.756 258.253 129.057H258.269C258.339 131.021 257.835 133.254 257.054 134.45C257.048 134.458 257.043 134.466 257.038 134.475V134.491C256.886 134.709 256.676 134.881 256.433 134.989C255.902 135.213 255.326 135.309 254.751 135.269C254.176 135.229 253.619 135.054 253.124 134.757C252.9 134.616 252.718 134.418 252.595 134.183V134.164V134.136C251.989 132.838 251.798 130.558 252.138 128.626L252.112 128.62Z" fill="#F5F5F5"/>
<path d="M253.055 127.871C251.815 128.309 251.754 129.159 252.922 129.774C254.291 130.398 255.838 130.511 257.283 130.091C258.523 129.651 258.58 128.804 257.413 128.188C256.046 127.561 254.498 127.448 253.055 127.871Z" fill="#FAFAFA"/>
<path d="M253.451 128.229C252.458 128.502 252.417 129.057 253.366 129.467C254.49 129.887 255.712 129.972 256.883 129.711C257.879 129.435 257.917 128.883 256.969 128.474C255.845 128.051 254.623 127.967 253.451 128.229Z" fill="#E6E6E6"/>
<path d="M253.416 128.981C253.239 129.027 253.069 129.099 252.912 129.194C253.054 129.309 253.212 129.403 253.382 129.473C254.506 129.894 255.728 129.978 256.899 129.717C257.077 129.672 257.247 129.601 257.404 129.505C257.262 129.39 257.103 129.297 256.934 129.229C255.81 128.807 254.588 128.721 253.416 128.981Z" fill="#37474F"/>
<path d="M236.605 136.952C241.084 137.475 252.017 136.686 252.017 136.686C253.622 136.584 255.989 136.368 257.092 135.22C257.866 134.427 258.285 133 258.393 132.419C258.666 130.998 256.74 132.635 255.148 132.699C254.051 132.69 252.968 132.442 251.976 131.972C251.922 131.507 251.895 131.039 251.894 130.57C251.17 130.57 250.6 132.73 250.01 133.13C249.293 133.612 238.591 131.563 238.591 131.563L240.113 125.362C240.317 124.292 240.606 123.24 240.976 122.215C241.629 120.35 241.515 118.945 240.481 116.246C240.481 116.246 237.477 116.471 236.602 118.292C235.726 120.112 235.228 122.732 234.527 126.222C233.826 129.711 233.379 134.253 233.576 135.058C233.839 136.311 234.873 136.749 236.605 136.952Z" fill="#FFA8A7"/>
<path d="M240.484 116.246C238.898 116.246 236.896 116.817 236.417 118.219C236.101 119.169 235.839 120.135 235.631 121.115C236.925 121.388 238.936 122.548 240.116 125.362C240.116 125.362 240.452 124.429 241.068 122.587C242.111 119.24 241.02 117.007 240.484 116.246Z" fill="#455A64"/>
<path opacity="0.1" d="M249.016 126.672C249.016 126.672 247.7 128.191 245.016 127.624C242.333 127.056 241.882 125.01 241.882 125.01C241.882 125.01 241.616 127.624 244.826 128.28C247.985 128.934 249.016 126.672 249.016 126.672Z" fill="black"/>
<path d="M251.055 101.189C251.905 101.693 252.958 103.831 252.851 108.313C252.765 112.119 251.534 113.052 250.916 113.321C250.297 113.591 249.105 113.426 247.944 113.236V115.513C247.944 115.513 249.546 117.375 249.447 118.422C249.349 119.468 247.132 119.713 245.641 118.691C244.67 117.992 243.836 117.118 243.183 116.116V110.206C243.183 110.206 242.548 110.879 241.425 110.111C241.181 109.958 240.971 109.755 240.809 109.516C240.648 109.277 240.538 109.007 240.487 108.723C240.437 108.438 240.446 108.147 240.514 107.866C240.583 107.586 240.71 107.323 240.886 107.095C241.371 106.521 242.615 106.479 243.211 107.371C243.211 107.371 244.769 107.234 247.23 105.883C249.076 104.886 250.451 103.198 251.055 101.189Z" fill="#FFA8A7"/>
<path d="M243.213 108.738V106.74H244.482V107.463C244.482 107.63 244.45 107.796 244.387 107.95C244.324 108.105 244.23 108.246 244.112 108.364C243.994 108.483 243.854 108.577 243.7 108.641C243.546 108.705 243.38 108.738 243.213 108.738Z" fill="#263238"/>
<path d="M248.186 107.358C248.188 107.452 248.161 107.545 248.11 107.624C248.059 107.703 247.986 107.765 247.9 107.803C247.814 107.84 247.718 107.852 247.626 107.836C247.533 107.82 247.447 107.777 247.379 107.713C247.31 107.648 247.263 107.565 247.241 107.473C247.22 107.382 247.226 107.286 247.258 107.198C247.291 107.11 247.349 107.033 247.425 106.977C247.501 106.922 247.591 106.89 247.685 106.886C247.814 106.882 247.939 106.93 248.033 107.019C248.127 107.107 248.182 107.229 248.186 107.358Z" fill="#263238"/>
<path d="M248.491 110.505L249.95 110.968C249.924 111.066 249.878 111.158 249.815 111.237C249.753 111.317 249.675 111.384 249.586 111.433C249.497 111.481 249.399 111.512 249.298 111.522C249.197 111.532 249.095 111.522 248.998 111.491C248.803 111.424 248.64 111.284 248.546 111.1C248.451 110.916 248.431 110.703 248.491 110.505Z" fill="#F28F8F"/>
<path d="M252.42 105.893L251.469 105.22C251.509 105.155 251.563 105.099 251.626 105.055C251.688 105.011 251.76 104.981 251.835 104.966C251.91 104.951 251.988 104.951 252.063 104.967C252.138 104.983 252.209 105.014 252.271 105.058C252.398 105.152 252.485 105.291 252.512 105.446C252.54 105.601 252.507 105.761 252.42 105.893Z" fill="#263238"/>
<path d="M252.199 107.012C252.204 107.076 252.196 107.14 252.176 107.201C252.156 107.262 252.124 107.319 252.082 107.367C252.041 107.415 251.989 107.455 251.932 107.483C251.875 107.512 251.812 107.529 251.748 107.533C251.649 107.542 251.55 107.521 251.462 107.474C251.375 107.426 251.304 107.353 251.258 107.265C251.213 107.177 251.195 107.076 251.207 106.978C251.218 106.879 251.26 106.786 251.325 106.711C251.39 106.636 251.476 106.582 251.572 106.556C251.668 106.53 251.77 106.534 251.864 106.566C251.958 106.599 252.04 106.658 252.099 106.738C252.159 106.817 252.194 106.913 252.199 107.012Z" fill="#263238"/>
<path d="M249.547 106.74L249.623 109.617L251.136 109.147L249.547 106.74Z" fill="#F28F8F"/>
<path d="M247.944 113.236C246.723 113.074 244.207 112.351 243.82 111.358C243.977 111.861 244.285 112.304 244.702 112.627C245.454 113.261 247.947 113.994 247.947 113.994L247.944 113.236Z" fill="#F28F8F"/>
</g>
<defs>
<linearGradient id="paint0_linear_552_26880" x1="0" y1="0" x2="350" y2="200" gradientUnits="userSpaceOnUse">
<stop stop-color="#DB63B2"/>
<stop offset="1" stop-color="#B93B8F"/>
</linearGradient>
<clipPath id="clip0_552_26880">
<rect width="350" height="200" rx="20" fill="white"/>
</clipPath>
</defs>
</svg>
