<svg width="350" height="200" viewBox="0 0 350 200" fill="none" xmlns="http://www.w3.org/2000/svg">
<g clip-path="url(#clip0_552_29002)">
<rect width="350" height="200" rx="20" fill="url(#paint0_linear_552_29002)"/>
<path opacity="0.5" d="M271 231C322.362 231 364 211.524 364 187.5C364 163.476 322.362 144 271 144C219.638 144 178 163.476 178 187.5C178 211.524 219.638 231 271 231Z" fill="#F0F0F0"/>
<path d="M289.264 69.7097C301.76 69.9031 312.208 74.6484 320.428 84.1389C320.692 84.4261 320.895 84.7637 321.025 85.1315C321.155 85.4992 321.209 85.8895 321.184 86.2786C321.159 86.6678 321.055 87.0479 320.88 87.396C320.704 87.7441 320.459 88.053 320.161 88.304C319.871 88.5509 319.534 88.7372 319.171 88.852C318.808 88.9667 318.426 89.0075 318.047 88.972C317.668 88.9365 317.3 88.8254 316.964 88.6453C316.629 88.4652 316.333 88.2196 316.094 87.9232C313.16 84.4571 309.593 81.5815 305.583 79.4502C299.419 76.1754 292.413 74.8284 285.474 75.5839C278.535 76.3393 271.984 79.1623 266.669 83.6867C265.157 84.963 263.813 86.4476 262.45 87.8905C261.26 89.143 259.531 89.3423 258.285 88.2683C257.038 87.1943 256.961 85.4003 258.086 84.1032C264.97 76.1201 273.635 71.4045 284.082 69.9567C284.9 69.8436 285.724 69.7573 286.551 69.7187C287.453 69.677 288.36 69.7097 289.264 69.7097Z" fill="white"/>
<path d="M290.298 81.3066C298.203 81.5119 305.638 84.8767 311.484 91.648C312.638 92.9809 312.504 94.7005 311.222 95.8132C310.005 96.8604 308.247 96.7206 307.113 95.4175C304.061 91.8831 300.363 89.2918 295.852 88.075C286.662 85.5937 278.716 87.8548 272.052 94.6588C271.805 94.9117 271.576 95.1825 271.341 95.4472C270.839 96.0264 270.128 96.3825 269.363 96.4372C268.599 96.4918 267.844 96.2406 267.265 95.7388C266.686 95.237 266.33 94.5256 266.275 93.7612C266.22 92.9969 266.471 92.2421 266.973 91.6629C269.545 88.612 272.718 86.1245 276.294 84.3561C280.397 82.3122 284.732 81.3275 290.298 81.3066Z" fill="white"/>
<path d="M303.303 101.088C303.305 101.673 303.129 102.244 302.799 102.727C302.469 103.21 302.001 103.581 301.456 103.792C300.901 104.011 300.293 104.05 299.715 103.905C299.137 103.76 298.619 103.438 298.234 102.983C297.029 101.572 295.519 100.453 293.819 99.7105C289.059 97.6994 283.837 98.9489 280.306 102.936C279.47 103.882 278.426 104.224 277.218 103.858C276.757 103.718 276.339 103.465 276.001 103.122C275.663 102.779 275.416 102.357 275.283 101.894C275.15 101.431 275.134 100.943 275.238 100.473C275.341 100.002 275.561 99.5656 275.876 99.2018C281.921 91.9128 293.042 90.8715 300.316 96.9586C301.148 97.651 301.914 98.4189 302.604 99.2524C303.006 99.7403 303.178 100.416 303.455 101.008L303.303 101.088Z" fill="white"/>
<path d="M289.252 116.273C288.101 116.276 286.976 115.938 286.018 115.301C285.061 114.663 284.314 113.756 283.873 112.693C283.432 111.631 283.317 110.461 283.542 109.333C283.767 108.205 284.322 107.169 285.137 106.357C285.952 105.545 286.99 104.993 288.119 104.772C289.248 104.551 290.417 104.671 291.478 105.115C292.539 105.56 293.444 106.31 294.078 107.27C294.712 108.23 295.046 109.357 295.038 110.507C295.035 112.039 294.424 113.507 293.339 114.588C292.254 115.669 290.784 116.275 289.252 116.273Z" fill="white"/>
<path d="M216.419 164.71C218.502 164.71 220.191 160.28 220.191 154.815C220.191 149.35 218.502 144.92 216.419 144.92C214.335 144.92 212.646 149.35 212.646 154.815C212.646 160.28 214.335 164.71 216.419 164.71Z" fill="#FFD8E6" stroke="black" stroke-miterlimit="10"/>
<path d="M228.14 148.718C229.319 145.007 228.965 141.582 227.349 141.068C225.733 140.555 223.467 143.147 222.288 146.858C221.108 150.57 221.462 153.994 223.078 154.508C224.694 155.022 226.961 152.429 228.14 148.718Z" fill="#FFD8E6" stroke="black" stroke-miterlimit="10"/>
<path d="M200.46 171.095C196.619 170.443 193.736 168.56 194.019 166.891C194.302 165.222 197.646 164.392 201.484 165.04C205.321 165.689 208.207 167.575 207.925 169.244C207.642 170.913 204.298 171.743 200.46 171.095Z" fill="#FFD8E6" stroke="black" stroke-miterlimit="10"/>
<path d="M231.693 161.946C228.486 165.127 224.695 166.507 223.229 165.026C221.762 163.544 223.172 159.769 226.379 156.588C229.586 153.408 233.377 152.027 234.843 153.509C236.31 154.991 234.9 158.766 231.693 161.946Z" fill="#FFD8E6" stroke="black" stroke-miterlimit="10"/>
<path d="M209.592 153.22C212.695 157.722 213.626 162.464 211.656 163.815C209.687 165.165 205.593 162.616 202.49 158.108C199.387 153.601 198.453 148.886 200.425 147.52C202.398 146.154 206.486 148.722 209.592 153.22Z" fill="#FFD8E6" stroke="black" stroke-miterlimit="10"/>
<path d="M216.684 164.216L216.975 177.821" stroke="black" stroke-miterlimit="10" stroke-linecap="round"/>
<path d="M216.332 151.135L216.683 164.216" stroke="black" stroke-miterlimit="10" stroke-linecap="round"/>
<path d="M216.356 149.002L216.332 150.004" stroke="black" stroke-miterlimit="10" stroke-linecap="round"/>
<path d="M211.641 163.166C213.805 167.637 215.072 172.488 215.368 177.446" stroke="black" stroke-miterlimit="10" stroke-linecap="round"/>
<path d="M205.16 153.259C207.749 156.26 209.928 159.592 211.64 163.166" stroke="black" stroke-miterlimit="10" stroke-linecap="round"/>
<path d="M203.123 151.102C203.123 151.102 203.513 151.462 204.155 152.143" stroke="black" stroke-miterlimit="10" stroke-linecap="round"/>
<path d="M223.464 164.57C220.818 168.28 218.755 172.372 217.348 176.706" stroke="black" stroke-miterlimit="10" stroke-linecap="round"/>
<path d="M227.801 159.596C226.203 161.12 224.751 162.789 223.463 164.582" stroke="black" stroke-miterlimit="10" stroke-linecap="round"/>
<path d="M232.436 156.05C231.257 156.72 230.149 157.51 229.131 158.406" stroke="black" stroke-miterlimit="10" stroke-linecap="round"/>
<path d="M223.303 153.583C221.22 160.161 218.409 169.878 217.1 178.315" stroke="black" stroke-miterlimit="10" stroke-linecap="round"/>
<path d="M224.576 149.683C224.204 150.793 223.773 152.108 223.303 153.583" stroke="black" stroke-miterlimit="10" stroke-linecap="round"/>
<path d="M225.883 145.911C225.883 145.911 225.517 146.919 224.928 148.645" stroke="black" stroke-miterlimit="10" stroke-linecap="round"/>
<path d="M207.73 168.334C210.343 169.324 212.889 171.234 214.13 174.852" stroke="black" stroke-miterlimit="10" stroke-linecap="round"/>
<path d="M202.914 167.352C204.562 167.436 206.187 167.767 207.737 168.334" stroke="black" stroke-miterlimit="10" stroke-linecap="round"/>
<path d="M199.781 167.429C199.781 167.429 200.245 167.364 201.013 167.334" stroke="black" stroke-miterlimit="10" stroke-linecap="round"/>
<path d="M233.32 171.095C237.16 170.443 240.043 168.56 239.761 166.891C239.478 165.222 236.134 164.392 232.293 165.04C228.452 165.689 225.572 167.575 225.855 169.244C226.138 170.913 229.479 171.743 233.32 171.095Z" fill="#FFD8E6" stroke="black" stroke-miterlimit="10"/>
<path d="M226.119 168.304C223.478 169.283 220.889 171.196 219.637 174.849" stroke="black" stroke-miterlimit="10" stroke-linecap="round"/>
<path d="M231.277 167.331C229.518 167.381 227.778 167.709 226.121 168.304" stroke="black" stroke-miterlimit="10" stroke-linecap="round"/>
<path d="M233.996 167.429C233.996 167.429 233.699 167.388 233.166 167.355" stroke="black" stroke-miterlimit="10" stroke-linecap="round"/>
<path d="M226.075 186.413C227.236 183.98 227.846 181.321 227.86 178.625C227.862 177.011 227.621 175.406 227.146 173.865H207.052C206.575 175.406 206.335 177.011 206.338 178.625C206.353 181.321 206.963 183.98 208.123 186.413H226.075Z" fill="black"/>
<path d="M206.536 176.09C206.48 176.456 206.435 176.825 206.402 177.203H227.796C227.763 176.825 227.719 176.456 227.662 176.09H206.536Z" fill="#7A7A7A"/>
<path d="M227.569 181.778C227.635 181.409 227.694 181.037 227.739 180.666H206.461C206.506 181.037 206.562 181.409 206.631 181.778H227.569Z" fill="#7A7A7A"/>
<path d="M208.937 178.687C208.937 178.858 208.886 179.026 208.791 179.168C208.696 179.31 208.56 179.421 208.402 179.487C208.244 179.552 208.07 179.57 207.902 179.536C207.734 179.503 207.58 179.42 207.459 179.299C207.338 179.178 207.255 179.024 207.222 178.856C207.188 178.688 207.205 178.514 207.271 178.356C207.337 178.198 207.447 178.062 207.59 177.967C207.732 177.872 207.9 177.821 208.071 177.821C208.3 177.822 208.52 177.914 208.682 178.076C208.844 178.238 208.936 178.458 208.937 178.687Z" fill="#8C8C8C"/>
<path d="M213.265 178.687C213.265 178.858 213.214 179.026 213.119 179.168C213.024 179.31 212.888 179.421 212.73 179.487C212.572 179.552 212.398 179.57 212.23 179.536C212.062 179.503 211.908 179.42 211.787 179.299C211.666 179.178 211.583 179.024 211.55 178.856C211.516 178.688 211.534 178.514 211.599 178.356C211.665 178.198 211.776 178.062 211.918 177.967C212.06 177.872 212.228 177.821 212.399 177.821C212.629 177.821 212.849 177.912 213.011 178.075C213.173 178.237 213.265 178.457 213.265 178.687Z" fill="#8C8C8C"/>
<path d="M217.593 178.687C217.593 178.858 217.542 179.026 217.447 179.168C217.352 179.31 217.217 179.421 217.058 179.487C216.9 179.552 216.726 179.57 216.558 179.536C216.39 179.503 216.236 179.42 216.115 179.299C215.994 179.178 215.911 179.024 215.878 178.856C215.845 178.688 215.862 178.514 215.927 178.356C215.993 178.198 216.104 178.062 216.246 177.967C216.388 177.872 216.556 177.821 216.727 177.821C216.957 177.821 217.177 177.912 217.339 178.075C217.502 178.237 217.593 178.457 217.593 178.687Z" fill="#8C8C8C"/>
<path d="M221.057 179.553C221.535 179.553 221.923 179.165 221.923 178.687C221.923 178.209 221.535 177.821 221.057 177.821C220.579 177.821 220.191 178.209 220.191 178.687C220.191 179.165 220.579 179.553 221.057 179.553Z" fill="#8C8C8C"/>
<path d="M226.251 178.687C226.251 178.858 226.2 179.026 226.105 179.168C226.01 179.31 225.875 179.421 225.717 179.487C225.558 179.552 225.384 179.57 225.216 179.536C225.048 179.503 224.894 179.42 224.773 179.299C224.652 179.178 224.57 179.024 224.536 178.856C224.503 178.688 224.52 178.514 224.585 178.356C224.651 178.198 224.762 178.062 224.904 177.967C225.047 177.872 225.214 177.821 225.385 177.821C225.615 177.821 225.835 177.912 225.997 178.075C226.16 178.237 226.251 178.457 226.251 178.687Z" fill="#8C8C8C"/>
<path d="M320.624 118.564C320.324 118.529 320.022 118.614 319.784 118.801C319.546 118.987 319.392 119.26 319.354 119.56L313.588 164.109L317.342 164.532L321.641 119.819C321.67 119.518 321.579 119.218 321.389 118.984C321.199 118.749 320.924 118.598 320.624 118.564Z" fill="white" stroke="black" stroke-linecap="round" stroke-linejoin="round"/>
<path d="M262.646 118.564C262.946 118.529 263.248 118.614 263.486 118.801C263.723 118.987 263.878 119.26 263.916 119.56L269.688 164.109L265.933 164.532L261.628 119.819C261.6 119.518 261.69 119.218 261.881 118.984C262.071 118.749 262.345 118.598 262.646 118.564Z" fill="white" stroke="black" stroke-linecap="round" stroke-linejoin="round"/>
<path d="M327.256 163.211H268.567C267.813 163.211 267.201 163.822 267.201 164.576V185.045C267.201 185.799 267.813 186.41 268.567 186.41H327.256C328.01 186.41 328.622 185.799 328.622 185.045V164.576C328.622 163.822 328.01 163.211 327.256 163.211Z" fill="#455A64" stroke="black" stroke-linecap="round" stroke-linejoin="round"/>
<path d="M328.681 166.073H267.141C266.456 166.073 265.9 166.628 265.9 167.313V182.314C265.9 182.999 266.456 183.554 267.141 183.554H328.681C329.366 183.554 329.921 182.999 329.921 182.314V167.313C329.921 166.628 329.366 166.073 328.681 166.073Z" fill="#455A64" stroke="black" stroke-linecap="round" stroke-linejoin="round"/>
<path d="M295.045 163.211H236.356C235.602 163.211 234.99 163.822 234.99 164.576V185.045C234.99 185.799 235.602 186.41 236.356 186.41H295.045C295.8 186.41 296.411 185.799 296.411 185.045V164.576C296.411 163.822 295.8 163.211 295.045 163.211Z" fill="#455A64" stroke="black" stroke-linecap="round" stroke-linejoin="round"/>
<path d="M296.47 166.073H234.93C234.245 166.073 233.689 166.628 233.689 167.313V182.314C233.689 182.999 234.245 183.554 234.93 183.554H296.47C297.155 183.554 297.71 182.999 297.71 182.314V167.313C297.71 166.628 297.155 166.073 296.47 166.073Z" fill="#455A64" stroke="black" stroke-linecap="round" stroke-linejoin="round"/>
<path d="M291.385 169.905H240.565C239.742 169.905 239.074 170.572 239.074 171.395V177.809C239.074 178.633 239.742 179.3 240.565 179.3H291.385C292.208 179.3 292.876 178.633 292.876 177.809V171.395C292.876 170.572 292.208 169.905 291.385 169.905Z" fill="#FFD8E6" stroke="#FFD8E6" stroke-linecap="round" stroke-linejoin="round"/>
<path d="M242.065 172.181C241.528 172.395 241.083 172.79 240.804 173.296C240.526 173.803 240.432 174.391 240.539 174.959C240.646 175.527 240.946 176.04 241.389 176.411C241.832 176.783 242.391 176.989 242.969 176.994C243.547 176.999 244.109 176.804 244.559 176.441C245.009 176.078 245.319 175.571 245.436 175.005C245.554 174.439 245.471 173.849 245.202 173.338C244.934 172.826 244.496 172.423 243.963 172.198" stroke="#455A64" stroke-width="3" stroke-miterlimit="10" stroke-linecap="round"/>
<path d="M243.016 171.214V173.061" stroke="#455A64" stroke-width="3" stroke-miterlimit="10" stroke-linecap="round"/>
<path d="M272.136 177.217C272.136 177.217 269.706 177.982 269.191 178.08C268.676 178.178 267.108 177.783 267.046 178.378C266.983 178.973 267.956 179.547 269.482 180.163C271.009 180.779 272.684 181.281 273.82 181.231C274.957 181.18 274.739 178.94 274.802 178.553C274.864 178.166 272.136 177.217 272.136 177.217Z" fill="#FFD8E6" stroke="black" stroke-linecap="round" stroke-linejoin="round"/>
<path d="M270.281 179.621C268.379 178.836 267.493 178.431 267.106 178.238C267.071 178.281 267.05 178.334 267.047 178.39C266.999 179.011 267.957 179.559 269.483 180.175C271.009 180.791 272.684 181.293 273.821 181.243C274.246 181.222 274.481 180.898 274.612 180.478C273.125 180.489 271.651 180.198 270.281 179.621Z" fill="#FFD8E6" stroke="black" stroke-linecap="round" stroke-linejoin="round"/>
<path d="M286.907 154.404L286.271 154.753V155.678C286.271 155.678 272.993 157.891 272.82 159.049C272.648 160.206 272.121 177.423 272.121 177.423C272.121 177.423 274.263 179.728 274.724 179.208C275.185 178.687 275.304 177.018 275.304 177.018L277.506 161.768C277.506 161.768 292.462 163.142 294.72 162.446C296.978 161.75 298.076 158.745 298.132 157.356C298.189 155.966 298.192 155.33 298.192 155.33L288.002 153.943L286.907 154.404Z" fill="#FFD8E6" stroke="black" stroke-linecap="round" stroke-linejoin="round"/>
<path d="M282.394 177.839L282.299 177.997C281.818 178.764 281.27 179.486 280.659 180.154C279.675 181.195 278.056 182.064 278.113 182.409C278.169 182.754 279.27 182.989 283.031 181.832C284.723 181.311 285.982 181.311 286.154 180.731C286.327 180.151 284.941 177.667 284.941 177.667L282.394 177.839Z" fill="#FFD8E6" stroke="black" stroke-linecap="round" stroke-linejoin="round"/>
<path d="M286.154 180.719C286.176 180.439 286.125 180.158 286.006 179.904C284.734 180.509 283.409 180.995 282.049 181.356C280.818 181.696 279.564 181.944 278.297 182.097C278.172 182.219 278.101 182.323 278.113 182.394C278.169 182.742 279.27 182.974 283.03 181.817C284.729 181.314 285.982 181.314 286.154 180.719Z" fill="#FFD8E6" stroke="black" stroke-linecap="round" stroke-linejoin="round"/>
<path d="M290.555 156.892C290.555 156.892 289.166 155.678 289.05 156.371C288.934 157.064 288.702 157.24 288.702 157.24C288.702 157.24 278.982 158.406 277.887 159.09C276.793 159.774 276.442 160.712 277.078 162.101C277.715 163.49 281.996 178.708 281.996 178.708C282.442 178.909 282.908 179.064 283.385 179.169C284.022 179.285 285.352 178.648 285.352 178.648C285.352 178.648 285.191 175.813 284.787 174.888C284.382 173.963 282.725 163.285 282.725 163.285C282.725 163.285 289.749 163.312 292.123 163.312C294.497 163.312 297.098 161.345 297.618 159.724C298.139 158.102 297.916 157.757 297.916 157.757" fill="#FFD8E6"/>
<path d="M290.555 156.892C290.555 156.892 289.166 155.678 289.05 156.371C288.934 157.064 288.702 157.24 288.702 157.24C288.702 157.24 278.982 158.406 277.887 159.09C276.793 159.774 276.442 160.712 277.078 162.101C277.715 163.49 281.996 178.708 281.996 178.708C282.442 178.909 282.908 179.064 283.385 179.169C284.022 179.285 285.352 178.648 285.352 178.648C285.352 178.648 285.191 175.813 284.787 174.888C284.382 173.963 282.725 163.285 282.725 163.285C282.725 163.285 289.749 163.312 292.123 163.312C294.497 163.312 297.098 161.345 297.618 159.724C298.139 158.102 297.916 157.757 297.916 157.757" stroke="black" stroke-linecap="round" stroke-linejoin="round"/>
<path d="M282.719 163.288L282.383 161.467" stroke="black" stroke-linecap="round" stroke-linejoin="round"/>
<path d="M293.766 159.45C293.952 159.71 294.103 159.993 294.215 160.292" stroke="black" stroke-linecap="round" stroke-linejoin="round"/>
<path d="M291.119 157.442C291.975 157.795 292.749 158.322 293.392 158.989" stroke="black" stroke-linecap="round" stroke-linejoin="round"/>
<path d="M293.318 157.769C294.213 158.179 294.955 158.863 295.437 159.721" stroke="black" stroke-linecap="round" stroke-linejoin="round"/>
<path d="M287.05 140.204C287.05 140.204 287.05 140.288 287.035 140.43C286.984 141.249 286.077 142.465 286.618 144.001C287.847 147.464 287.597 150.007 287.487 149.266C287.66 150.424 286.618 152.911 286.618 153.729C286.618 154.547 284.476 154.66 289.338 156.109C294.199 157.558 295.883 157.493 297.091 157.028C298.299 156.564 299.173 156.16 299.289 155.178C299.405 154.196 298.364 152.459 298.308 150.953C298.251 149.448 298.043 144.738 296.597 141.731C295.151 138.723 291.331 136.637 291.331 136.637L287.05 140.204Z" fill="#FFD8E6" stroke="black" stroke-linecap="round" stroke-linejoin="round"/>
<path d="M294.666 151.563C294.919 151.37 295.154 151.174 295.371 150.968" stroke="black" stroke-linecap="round" stroke-linejoin="round"/>
<path d="M288.568 154.967C290.361 154.179 292.09 153.256 293.742 152.206" stroke="black" stroke-linecap="round" stroke-linejoin="round"/>
<path d="M290.433 154.634C289.746 154.978 289.026 155.254 288.285 155.458" stroke="black" stroke-linecap="round" stroke-linejoin="round"/>
<path d="M291.373 154.125C291.373 154.125 291.209 154.226 290.936 154.375" stroke="black" stroke-linecap="round" stroke-linejoin="round"/>
<path d="M292.174 146.476L293.736 144.569" stroke="black" stroke-linecap="round" stroke-linejoin="round"/>
<path d="M286.514 127.373C286.123 127.782 285.774 128.229 285.473 128.709C285.22 129.208 285.175 129.571 284.744 129.899C284.313 130.226 283.42 130.015 283.444 130.529C283.468 131.044 284.003 131.535 284.003 131.535C284.003 131.535 283.569 134.677 283.732 135.176C283.896 135.676 286.145 135.771 286.145 135.771L287.291 139.502L291.334 136.762L291.441 135.676C291.542 135.236 292.268 133.873 292.869 132.85C293.47 131.826 293.202 129.131 291.75 127.971C290.298 126.81 288.377 126.929 287.784 126.888C287.192 126.846 286.514 127.373 286.514 127.373Z" fill="#FFD8E6" stroke="black" stroke-linecap="round" stroke-linejoin="round"/>
<path d="M284.266 132.142C284.457 132.333 284.697 132.466 284.961 132.526C285.224 132.586 285.498 132.57 285.753 132.481" stroke="black" stroke-linecap="round" stroke-linejoin="round"/>
<path d="M285.985 130.253C285.886 130.482 285.732 130.634 285.64 130.595C285.547 130.556 285.553 130.336 285.654 130.107C285.756 129.878 285.907 129.726 285.997 129.765C286.086 129.803 286.083 130.024 285.985 130.253Z" fill="black"/>
<path d="M285.828 129.116C285.828 129.116 286.7 128.944 286.831 129.806" stroke="black" stroke-linecap="round" stroke-linejoin="round"/>
<path d="M286.131 135.757L287.532 135.703L286.571 136.875L286.131 135.757Z" fill="black" stroke="black" stroke-linecap="round" stroke-linejoin="round"/>
<path d="M289.328 134.305L288.721 134.123L288.361 134.689" stroke="black" stroke-linecap="round" stroke-linejoin="round"/>
<path d="M288.991 125.992C288.991 125.992 289.865 124.987 288.815 124.505C287.765 124.023 284.192 124.895 284.576 126.462C284.959 128.03 288.294 128.23 288.613 128.248C288.931 128.265 287.976 128.61 288.238 129.087C288.5 129.563 289.13 129.801 289.163 130.315C289.196 130.83 288.568 131.52 288.866 131.821C289.163 132.121 289.639 131.672 289.943 131.556C290.246 131.44 291.076 132.276 290.422 133.341C289.767 134.406 289.327 134.296 289.327 134.296C289.25 134.492 289.237 134.707 289.291 134.911C289.344 135.115 289.461 135.296 289.624 135.429C290.219 135.932 291.409 135.783 291.707 135.296C292.004 134.808 292.519 134.367 293.59 133.314C294.661 132.261 295.17 129.601 294.429 127.766C293.688 125.93 290.329 125.183 288.991 125.992Z" fill="black" stroke="black" stroke-linecap="round" stroke-linejoin="round"/>
<path d="M291.319 135.763L285.807 139.824L286.122 141.576L292.328 137.003L291.319 135.763Z" fill="#FFD8E6" stroke="black" stroke-linecap="round" stroke-linejoin="round"/>
<path d="M277.556 159.441L287.267 157.314L284.997 155.966L275.783 158.022L277.556 159.441Z" fill="#FFD8E6" stroke="black" stroke-linecap="round" stroke-linejoin="round"/>
<path d="M273.233 150.227L277.556 159.441L275.783 158.022L271.389 149.377L273.233 150.227Z" fill="black" stroke="black" stroke-linecap="round" stroke-linejoin="round"/>
<path d="M281.044 155.523L278.806 156.1L277.42 158.108C277.476 158.162 277.542 158.204 277.615 158.231C277.688 158.257 277.765 158.268 277.842 158.263C278.074 158.224 278.69 157.683 278.69 157.683L280.312 157.258C280.312 157.258 279.464 157.76 279.464 157.876C279.464 157.992 279.619 158.031 280.002 157.992C280.386 157.954 281.314 157.1 281.314 157.1L281.933 156.326L281.044 155.523Z" fill="#FFD8E6" stroke="black" stroke-linecap="round" stroke-linejoin="round"/>
<path d="M287.088 145.476L285.943 150.7L281.043 155.523L282.2 156.603L286.27 154.753L286.553 154.018L287.535 149.641L287.088 145.476Z" fill="#FFD8E6" stroke="black" stroke-linecap="round" stroke-linejoin="round"/>
<path d="M279.688 154.47C279.688 154.47 278.126 154.702 277.548 154.702C276.971 154.702 275.582 154.818 275.35 154.934C275.118 155.05 274.017 155.743 274.077 156.264C274.136 156.785 275.118 156.323 275.118 156.323C275.322 156.792 275.574 157.237 275.871 157.653C276.332 158.29 276.564 158.058 277.489 157.713C278.414 157.368 279.804 156.323 279.804 156.323L280.616 155.571L279.688 154.47Z" fill="#FFD8E6" stroke="black" stroke-linecap="round" stroke-linejoin="round"/>
<path d="M293.275 138.202C293.275 138.202 290.895 137.854 290.035 139.011C289.047 140.407 288.394 142.011 288.125 143.7C287.949 145.203 286.852 148.213 286.852 148.213L279.494 154.339L280.767 156.246C280.767 156.246 289.693 152.081 289.919 151.801C290.145 151.522 293.099 143.873 293.099 143.873" fill="#FFD8E6"/>
<path d="M293.275 138.202C293.275 138.202 290.895 137.854 290.035 139.011C289.047 140.407 288.394 142.011 288.125 143.7C287.949 145.203 286.852 148.213 286.852 148.213L279.494 154.339L280.767 156.246C280.767 156.246 289.693 152.081 289.919 151.801C290.145 151.522 293.099 143.873 293.099 143.873" stroke="black" stroke-linecap="round" stroke-linejoin="round"/>
<path d="M197.113 186.413H334" stroke="black" stroke-linecap="round" stroke-linejoin="round"/>
</g>
<defs>
<linearGradient id="paint0_linear_552_29002" x1="0" y1="0" x2="350" y2="200" gradientUnits="userSpaceOnUse">
<stop stop-color="#ED7BA4"/>
<stop offset="1" stop-color="#D7487B"/>
</linearGradient>
<clipPath id="clip0_552_29002">
<rect width="350" height="200" rx="20" fill="white"/>
</clipPath>
</defs>
</svg>
