<svg width="180" height="133" viewBox="0 0 180 133" fill="none" xmlns="http://www.w3.org/2000/svg">
<path opacity="0.5" d="M92.5 150C143.586 150 185 131.868 185 109.5C185 87.1325 143.586 69 92.5 69C41.4137 69 0 87.1325 0 109.5C0 131.868 41.4137 150 92.5 150Z" fill="white"/>
<path d="M153.152 106.601L137.64 115.556C136.293 116.333 133.939 116.236 132.393 115.339L117.636 106.818C116.081 105.921 115.913 104.565 117.257 103.788L132.769 94.8393C134.115 94.062 136.47 94.1588 138.016 95.0556L152.776 103.577C154.328 104.469 154.496 105.824 153.152 106.601Z" fill="#E0E0E0"/>
<path d="M119.377 120.852C126.131 120.852 131.606 117.453 131.606 113.261C131.606 109.069 126.131 105.67 119.377 105.67C112.623 105.67 107.148 109.069 107.148 113.261C107.148 117.453 112.623 120.852 119.377 120.852Z" fill="#E0E0E0"/>
<path d="M59.947 111.447C66.5451 111.447 71.894 108.36 71.894 104.551C71.894 100.743 66.5451 97.6551 59.947 97.6551C53.3488 97.6551 48 100.743 48 104.551C48 108.36 53.3488 111.447 59.947 111.447Z" fill="#E0E0E0"/>
<path d="M108.203 66.0081L56.3602 95.941C56.0013 96.1482 55.7032 96.4462 55.496 96.805C55.2888 97.1639 55.1797 97.5709 55.1797 97.9853C55.1797 98.3997 55.2888 98.8068 55.496 99.1657C55.7032 99.5245 56.0013 99.8225 56.3602 100.03L84.6531 116.364C85.6423 116.936 86.7648 117.238 87.9075 117.238C89.0502 117.238 90.1727 116.936 91.1619 116.364L140.932 87.63C141.29 87.4228 141.588 87.1248 141.796 86.766C142.003 86.4071 142.112 86 142.112 85.5856C142.112 85.1712 142.003 84.7642 141.796 84.4053C141.588 84.0464 141.29 83.7485 140.932 83.5413L110.566 66.0081C110.206 65.8009 109.799 65.6919 109.384 65.6919C108.969 65.6919 108.562 65.8009 108.203 66.0081Z" fill="#E0E0E0"/>
<path d="M92.8188 114.887C92.5285 115.034 92.2076 115.111 91.882 115.111C91.5565 115.111 91.2356 115.034 90.9453 114.887C90.4271 114.588 90.4271 114.104 90.9453 113.805C91.2356 113.658 91.5565 113.581 91.882 113.581C92.2076 113.581 92.5285 113.658 92.8188 113.805C93.337 114.104 93.337 114.588 92.8188 114.887Z" fill="#455A64"/>
<path d="M93.2133 84.6264H90.5625V114.315H93.2133V84.6264Z" fill="#455A64"/>
<path d="M61.7445 97.0631C61.4543 97.2104 61.1333 97.2871 60.8078 97.2871C60.4823 97.2871 60.1614 97.2104 59.8711 97.0631C59.3529 96.7641 59.3529 96.2801 59.8711 95.9811C60.1614 95.8338 60.4823 95.757 60.8078 95.757C61.1333 95.757 61.4543 95.8338 61.7445 95.9811C62.2627 96.2801 62.2627 96.7641 61.7445 97.0631Z" fill="#455A64"/>
<path d="M62.1352 66.8027H59.4844V96.4908H62.1352V66.8027Z" fill="#455A64"/>
<path d="M138.985 87.9604C138.695 88.1077 138.374 88.1845 138.048 88.1845C137.723 88.1845 137.402 88.1077 137.111 87.9604C136.593 87.6757 136.593 87.1774 137.111 86.8784C137.402 86.7311 137.723 86.6544 138.048 86.6544C138.374 86.6544 138.695 86.7311 138.985 86.8784C139.503 87.1774 139.503 87.6614 138.985 87.9604Z" fill="#455A64"/>
<path d="M139.375 57.703H136.725V87.3911H139.375V57.703Z" fill="#455A64"/>
<path d="M107.911 70.1368C107.62 70.2842 107.299 70.3609 106.974 70.3609C106.648 70.3609 106.327 70.2842 106.037 70.1368C105.519 69.8379 105.519 69.3539 106.037 69.0549C106.327 68.9076 106.648 68.8308 106.974 68.8308C107.299 68.8308 107.62 68.9076 107.911 69.0549C108.429 69.3539 108.429 69.8379 107.911 70.1368Z" fill="#455A64"/>
<path d="M108.299 39.8793H105.648V69.5674H108.299V39.8793Z" fill="#455A64"/>
<path d="M52.8184 67.1385V68.8924L87.9077 89.1534V87.3966L52.8184 67.1385Z" fill="#BA68C8"/>
<path opacity="0.3" d="M52.8184 67.1385V68.8924L87.9077 89.1534V87.3966L52.8184 67.1385Z" fill="black"/>
<path d="M144.474 54.7389L87.9082 87.3967V89.1534L144.474 56.4928V54.7389Z" fill="#BA68C8"/>
<path opacity="0.3" d="M144.474 54.7389L87.9082 87.3967V89.1534L144.474 56.4928V54.7389Z" fill="white"/>
<path d="M109.384 34.4809L52.8184 67.1387L87.9077 87.3967L144.474 54.739L109.384 34.4809Z" fill="#BA68C8"/>
<path d="M51.6035 86.4258V103.569C51.6035 104.856 52.4577 106.131 54.166 107.131C57.5827 109.098 63.0978 109.098 66.5059 107.131C68.2143 106.146 69.0684 104.853 69.0684 103.569V86.4258H51.6035Z" fill="#37474F"/>
<path d="M60.3303 91.3885C65.1499 91.3885 69.0571 89.1335 69.0571 86.3518C69.0571 83.57 65.1499 81.315 60.3303 81.315C55.5106 81.315 51.6035 83.57 51.6035 86.3518C51.6035 89.1335 55.5106 91.3885 60.3303 91.3885Z" fill="#455A64"/>
<path d="M66.3101 88.7235C66.0424 88.9436 65.7567 89.1407 65.4559 89.3129C65.399 89.347 65.3392 89.3812 65.2766 89.4125C64.8815 89.6243 64.4702 89.8042 64.0465 89.9506C63.8786 90.0076 63.702 90.0645 63.5255 90.1101C63.1222 90.2318 62.7113 90.3269 62.2955 90.3948C61.9396 90.4546 61.5751 90.4973 61.2136 90.5229C61.0655 90.5229 60.9288 90.5429 60.7722 90.5457C60.4875 90.5457 60.2028 90.5457 59.9408 90.5457C59.5963 90.5457 59.2518 90.5144 58.913 90.4745C58.4798 90.4274 58.05 90.3532 57.626 90.2525C57.4552 90.2126 57.2901 90.1727 57.1249 90.1215C56.4506 89.9375 55.8021 89.6697 55.1945 89.3243C54.9321 89.1737 54.6808 89.0043 54.4428 88.8175C52.7886 87.502 52.6291 85.7567 53.956 84.3558C54.3193 83.9775 54.7366 83.6551 55.1945 83.3992C55.702 83.1093 56.2395 82.8754 56.7975 82.7016C56.9028 82.6646 57.0167 82.6304 57.1249 82.6019C57.422 82.5157 57.7233 82.4445 58.0275 82.3884C58.3578 82.3258 58.6909 82.2745 59.0326 82.2403C60.1194 82.1256 61.2167 82.1562 62.2955 82.3315L62.3952 82.3457C62.7795 82.4086 63.1598 82.4941 63.534 82.6019C64.053 82.7436 64.5573 82.9343 65.0402 83.1714C65.1854 83.2397 65.325 83.3166 65.4645 83.3963C65.6841 83.5223 65.8961 83.6611 66.0994 83.812C66.4004 84.0362 66.6729 84.2962 66.9109 84.5865C67.9757 85.9076 67.785 87.4963 66.3101 88.7235Z" fill="#263238"/>
<path d="M60.5977 64.1802V69.4989H63.3253V65.88C63.3253 65.88 62.3088 64.3966 60.5977 64.1802Z" fill="#BA68C8"/>
<path opacity="0.3" d="M60.5977 64.1802V69.4989H63.3253V65.88C63.3253 65.88 62.3088 64.3966 60.5977 64.1802Z" fill="white"/>
<path d="M62.3014 65.5127V90.389C61.9455 90.4488 61.5811 90.4915 61.2195 90.5171C61.0714 90.5171 60.9348 90.537 60.7782 90.5399C60.4934 90.5399 60.2087 90.5399 59.9468 90.5399C59.6023 90.5399 59.2577 90.5086 58.9189 90.4687C58.4857 90.4215 58.0559 90.3474 57.632 90.2466C57.4611 90.2067 57.296 90.1669 57.1309 90.1156V65.5127H62.3014Z" fill="#BA68C8"/>
<path opacity="0.7" d="M62.3014 65.5127V90.389C61.9455 90.4488 61.5811 90.4915 61.2195 90.5171C61.0714 90.5171 60.9348 90.537 60.7782 90.5399C60.4934 90.5399 60.2087 90.5399 59.9468 90.5399C59.6023 90.5399 59.2577 90.5086 58.9189 90.4687C58.4857 90.4215 58.0559 90.3474 57.632 90.2466C57.4611 90.2067 57.296 90.1669 57.1309 90.1156V65.5127H62.3014Z" fill="white"/>
<path d="M63.5306 66.3442V90.1101C63.1273 90.2318 62.7164 90.3269 62.3006 90.3948C61.9447 90.4546 61.5803 90.4973 61.2187 90.5229C61.0706 90.5229 60.9339 90.5429 60.7773 90.5457V68.3857C61.313 68.3064 61.8295 68.1288 62.3006 67.8618C62.7282 67.6251 63.0834 67.2767 63.3285 66.8539C63.4236 66.6964 63.4919 66.5241 63.5306 66.3442Z" fill="#BA68C8"/>
<path opacity="0.5" d="M63.5306 66.3442V90.1101C63.1273 90.2318 62.7164 90.3269 62.3006 90.3948C61.9447 90.4546 61.5803 90.4973 61.2187 90.5229C61.0706 90.5229 60.9339 90.5429 60.7773 90.5457V68.3857C61.313 68.3064 61.8295 68.1288 62.3006 67.8618C62.7282 67.6251 63.0834 67.2767 63.3285 66.8539C63.4236 66.6964 63.4919 66.5241 63.5306 66.3442Z" fill="white"/>
<path d="M60.9059 68.491C60.8739 68.49 60.8433 68.4773 60.82 68.4553C60.7967 68.4333 60.7823 68.4035 60.7795 68.3716C60.7767 68.3396 60.7857 68.3078 60.8048 68.2821C60.8239 68.2563 60.8517 68.2385 60.8831 68.2319C61.365 68.1444 61.8288 67.9769 62.2555 67.7365C62.9103 67.3607 63.2691 66.8652 63.2691 66.347C63.2691 65.8289 62.9103 65.3334 62.2555 64.9547C61.4757 64.5388 60.6022 64.3299 59.7186 64.3483C59.7 64.3511 59.681 64.3498 59.6629 64.3445C59.6448 64.3393 59.6281 64.3302 59.6138 64.3179C59.5995 64.3056 59.5881 64.2904 59.5803 64.2733C59.5724 64.2562 59.5684 64.2376 59.5684 64.2187C59.5684 64.1999 59.5724 64.1813 59.5803 64.1642C59.5881 64.1471 59.5995 64.1319 59.6138 64.1196C59.6281 64.1073 59.6448 64.0982 59.6629 64.0929C59.681 64.0877 59.7 64.0864 59.7186 64.0892C60.649 64.0702 61.5687 64.2908 62.3893 64.7298C63.1267 65.1569 63.5282 65.7292 63.5282 66.347C63.5282 66.9649 63.121 67.5372 62.3893 67.9643C61.9362 68.2172 61.4447 68.3942 60.9344 68.4882L60.9059 68.491Z" fill="#BA68C8"/>
<path opacity="0.5" d="M60.9059 68.491C60.8739 68.49 60.8433 68.4773 60.82 68.4553C60.7967 68.4333 60.7823 68.4035 60.7795 68.3716C60.7767 68.3396 60.7857 68.3078 60.8048 68.2821C60.8239 68.2563 60.8517 68.2385 60.8831 68.2319C61.365 68.1444 61.8288 67.9769 62.2555 67.7365C62.9103 67.3607 63.2691 66.8652 63.2691 66.347C63.2691 65.8289 62.9103 65.3334 62.2555 64.9547C61.4757 64.5388 60.6022 64.3299 59.7186 64.3483C59.7 64.3511 59.681 64.3498 59.6629 64.3445C59.6448 64.3393 59.6281 64.3302 59.6138 64.3179C59.5995 64.3056 59.5881 64.2904 59.5803 64.2733C59.5724 64.2562 59.5684 64.2376 59.5684 64.2187C59.5684 64.1999 59.5724 64.1813 59.5803 64.1642C59.5881 64.1471 59.5995 64.1319 59.6138 64.1196C59.6281 64.1073 59.6448 64.0982 59.6629 64.0929C59.681 64.0877 59.7 64.0864 59.7186 64.0892C60.649 64.0702 61.5687 64.2908 62.3893 64.7298C63.1267 65.1569 63.5282 65.7292 63.5282 66.347C63.5282 66.9649 63.121 67.5372 62.3893 67.9643C61.9362 68.2172 61.4447 68.3942 60.9344 68.4882L60.9059 68.491Z" fill="white"/>
<path d="M61.5428 64.5276C62.5536 65.097 62.5536 66.0537 61.5428 66.6374C60.9765 66.9252 60.3502 67.0752 59.7149 67.0752C59.0796 67.0752 58.4533 66.9252 57.887 66.6374C56.8762 66.0679 56.8762 65.1084 57.887 64.5276C58.4533 64.2397 59.0796 64.0897 59.7149 64.0897C60.3502 64.0897 60.9765 64.2397 61.5428 64.5276Z" fill="#BA68C8"/>
<path opacity="0.5" d="M61.5428 64.5276C62.5536 65.097 62.5536 66.0537 61.5428 66.6374C60.9765 66.9252 60.3502 67.0752 59.7149 67.0752C59.0796 67.0752 58.4533 66.9252 57.887 66.6374C56.8762 66.0679 56.8762 65.1084 57.887 64.5276C58.4533 64.2397 59.0796 64.0897 59.7149 64.0897C60.3502 64.0897 60.9765 64.2397 61.5428 64.5276Z" fill="white"/>
<path d="M66.3234 73.3227L65.7539 77.269L67.7726 77.5537L68.1627 74.8659C67.7703 74.1346 67.1117 73.5821 66.3234 73.3227Z" fill="#BA68C8"/>
<path opacity="0.3" d="M66.3234 73.3227L65.7539 77.269L67.7726 77.5537L68.1627 74.8659C67.7703 74.1346 67.1117 73.5821 66.3234 73.3227Z" fill="white"/>
<path d="M67.4422 74.4902L67.2059 76.1159L67.1888 76.2327V76.338L67.0265 77.4513L66.1097 83.8035L65.2954 89.4125C64.9004 89.6243 64.4891 89.8042 64.0654 89.9506C63.8974 90.0076 63.7209 90.0645 63.5444 90.1101C63.141 90.2318 62.7302 90.3269 62.3144 90.3948C61.9585 90.4546 61.594 90.4973 61.2324 90.5229L62.3144 83.029L62.414 82.3457L63.5529 74.5329L63.6383 73.9464L66.2008 74.3193L67.4565 74.5016L67.4422 74.4902Z" fill="#BA68C8"/>
<path opacity="0.7" d="M67.4422 74.4902L67.2059 76.1159L67.1888 76.2327V76.338L67.0265 77.4513L66.1097 83.8035L65.2954 89.4125C64.9004 89.6243 64.4891 89.8042 64.0654 89.9506C63.8974 90.0076 63.7209 90.0645 63.5444 90.1101C63.141 90.2318 62.7302 90.3269 62.3144 90.3948C61.9585 90.4546 61.594 90.4973 61.2324 90.5229L62.3144 83.029L62.414 82.3457L63.5529 74.5329L63.6383 73.9464L66.2008 74.3193L67.4565 74.5016L67.4422 74.4902Z" fill="white"/>
<path d="M68.2608 75.2419L66.9083 84.5893L66.3104 88.7349C66.0428 88.955 65.757 89.1522 65.4563 89.3243C65.3993 89.3585 65.3395 89.3926 65.2769 89.424C64.8818 89.6357 64.4705 89.8156 64.0469 89.9621L65.0377 83.1657L65.8919 77.2919L66.0115 76.4576C66.4155 76.4554 66.8158 76.3802 67.1931 76.2356C67.5297 76.1061 67.825 75.8876 68.0472 75.6035C68.1374 75.4952 68.2096 75.3731 68.2608 75.2419Z" fill="#BA68C8"/>
<path opacity="0.5" d="M68.2608 75.2419L66.9083 84.5893L66.3104 88.7349C66.0428 88.955 65.757 89.1522 65.4563 89.3243C65.3993 89.3585 65.3395 89.3926 65.2769 89.424C64.8818 89.6357 64.4705 89.8156 64.0469 89.9621L65.0377 83.1657L65.8919 77.2919L66.0115 76.4576C66.4155 76.4554 66.8158 76.3802 67.1931 76.2356C67.5297 76.1061 67.825 75.8876 68.0472 75.6035C68.1374 75.4952 68.2096 75.3731 68.2608 75.2419Z" fill="white"/>
<path d="M66.0899 76.5458C66.0675 76.543 66.0468 76.5323 66.0317 76.5156C66.0165 76.4989 66.0079 76.4772 66.0073 76.4546C66.0066 76.4419 66.0083 76.4292 66.0125 76.4171C66.0167 76.4051 66.0232 76.394 66.0316 76.3845C66.0401 76.375 66.0504 76.3672 66.0618 76.3617C66.0733 76.3561 66.0857 76.3529 66.0985 76.3522C66.4649 76.3383 66.8266 76.2643 67.169 76.1329C67.6929 75.9251 68.0232 75.5976 68.0687 75.2133C68.1143 74.8289 67.9093 74.4246 67.468 74.0744C66.9334 73.684 66.3083 73.4361 65.6514 73.354C65.638 73.3532 65.625 73.3496 65.613 73.3435C65.6011 73.3373 65.5906 73.3288 65.5821 73.3183C65.5737 73.3079 65.5675 73.2958 65.564 73.2829C65.5604 73.2699 65.5596 73.2564 65.5616 73.2431C65.5636 73.2298 65.5683 73.2171 65.5755 73.2057C65.5826 73.1944 65.5921 73.1847 65.6032 73.1772C65.6143 73.1696 65.6269 73.1645 65.6401 73.1621C65.6533 73.1597 65.6669 73.1601 65.6799 73.1632C66.3706 73.2482 67.0277 73.5101 67.5876 73.9235C68.0858 74.3164 68.325 74.7776 68.2595 75.2417C68.194 75.7058 67.8324 76.0788 67.2402 76.3151C66.8762 76.4553 66.4912 76.5332 66.1013 76.5458H66.0899Z" fill="#BA68C8"/>
<path opacity="0.5" d="M66.0899 76.5458C66.0675 76.543 66.0468 76.5323 66.0317 76.5156C66.0165 76.4989 66.0079 76.4772 66.0073 76.4546C66.0066 76.4419 66.0083 76.4292 66.0125 76.4171C66.0167 76.4051 66.0232 76.394 66.0316 76.3845C66.0401 76.375 66.0504 76.3672 66.0618 76.3617C66.0733 76.3561 66.0857 76.3529 66.0985 76.3522C66.4649 76.3383 66.8266 76.2643 67.169 76.1329C67.6929 75.9251 68.0232 75.5976 68.0687 75.2133C68.1143 74.8289 67.9093 74.4246 67.468 74.0744C66.9334 73.684 66.3083 73.4361 65.6514 73.354C65.638 73.3532 65.625 73.3496 65.613 73.3435C65.6011 73.3373 65.5906 73.3288 65.5821 73.3183C65.5737 73.3079 65.5675 73.2958 65.564 73.2829C65.5604 73.2699 65.5596 73.2564 65.5616 73.2431C65.5636 73.2298 65.5683 73.2171 65.5755 73.2057C65.5826 73.1944 65.5921 73.1847 65.6032 73.1772C65.6143 73.1696 65.6269 73.1645 65.6401 73.1621C65.6533 73.1597 65.6669 73.1601 65.6799 73.1632C66.3706 73.2482 67.0277 73.5101 67.5876 73.9235C68.0858 74.3164 68.325 74.7776 68.2595 75.2417C68.194 75.7058 67.8324 76.0788 67.2402 76.3151C66.8762 76.4553 66.4912 76.5332 66.1013 76.5458H66.0899Z" fill="white"/>
<path d="M66.9871 73.6814C67.6704 74.2224 67.5565 74.92 66.7593 75.2446C66.3093 75.3963 65.8298 75.4398 65.3599 75.3715C64.8899 75.3032 64.4426 75.1251 64.0544 74.8516C63.3711 74.3135 63.485 73.6131 64.2793 73.2914C64.7296 73.139 65.2094 73.0949 65.6798 73.1627C66.1503 73.2304 66.5981 73.4082 66.9871 73.6814Z" fill="#BA68C8"/>
<path opacity="0.5" d="M66.9871 73.6814C67.6704 74.2224 67.5565 74.92 66.7593 75.2446C66.3093 75.3963 65.8298 75.4398 65.3599 75.3715C64.8899 75.3032 64.4426 75.1251 64.0544 74.8516C63.3711 74.3135 63.485 73.6131 64.2793 73.2914C64.7296 73.139 65.2094 73.0949 65.6798 73.1627C66.1503 73.2304 66.5981 73.4082 66.9871 73.6814Z" fill="white"/>
<path d="M55.3145 70.4441L55.7928 74.8117L58.0279 74.5669L57.7033 71.5915C57.7033 71.5915 56.7381 70.4669 55.3145 70.4441Z" fill="#BA68C8"/>
<path opacity="0.3" d="M55.3145 70.4441L55.7928 74.8117L58.0279 74.5669L57.7033 71.5915C57.7033 71.5915 56.7381 70.4669 55.3145 70.4441Z" fill="white"/>
<path d="M58.9176 90.4631C58.4844 90.4159 58.0546 90.3417 57.6307 90.241C57.4598 90.2011 57.2947 90.1613 57.1296 90.11C56.4553 89.926 55.8067 89.6582 55.1991 89.3128C54.9367 89.1622 54.6855 88.9928 54.4475 88.806L53.9606 84.3444L52.5996 71.8422L55.4468 71.5318L56.8391 71.3781L57.0356 73.1832V73.3056V73.4281L57.1125 74.1142L57.1694 74.6581L58.0236 82.3769L58.9176 90.4631Z" fill="#BA68C8"/>
<path opacity="0.7" d="M58.9176 90.4631C58.4844 90.4159 58.0546 90.3417 57.6307 90.241C57.4598 90.2011 57.2947 90.1613 57.1296 90.11C56.4553 89.926 55.8067 89.6582 55.1991 89.3128C54.9367 89.1622 54.6855 88.9928 54.4475 88.806L53.9606 84.3444L52.5996 71.8422L55.4468 71.5318L56.8391 71.3781L57.0356 73.1832V73.3056V73.4281L57.1125 74.1142L57.1694 74.6581L58.0236 82.3769L58.9176 90.4631Z" fill="white"/>
<path d="M58.917 90.463C58.4838 90.4159 58.054 90.3417 57.63 90.241L57.1289 85.6655L56.8015 82.6901L55.9473 74.7976L55.8477 73.8722C56.2815 73.7602 56.6902 73.567 57.052 73.3028C57.0834 73.28 57.1147 73.2601 57.1403 73.2373C57.4277 73.0115 57.6546 72.718 57.8009 72.3831C57.8643 72.2444 57.9047 72.0963 57.9204 71.9446L59.0593 82.2175L59.9676 90.5228C59.6003 90.5257 59.2558 90.5029 58.917 90.463Z" fill="#BA68C8"/>
<path opacity="0.5" d="M58.917 90.463C58.4838 90.4159 58.054 90.3417 57.63 90.241L57.1289 85.6655L56.8015 82.6901L55.9473 74.7976L55.8477 73.8722C56.2815 73.7602 56.6902 73.567 57.052 73.3028C57.0834 73.28 57.1147 73.2601 57.1403 73.2373C57.4277 73.0115 57.6546 72.718 57.8009 72.3831C57.8643 72.2444 57.9047 72.0963 57.9204 71.9446L59.0593 82.2175L59.9676 90.5228C59.6003 90.5257 59.2558 90.5029 58.917 90.463Z" fill="white"/>
<path d="M55.9531 73.9491C55.9281 73.9515 55.9031 73.9451 55.8824 73.9311C55.8616 73.917 55.8463 73.8962 55.8392 73.8722C55.8348 73.8589 55.833 73.8449 55.8341 73.831C55.8351 73.817 55.839 73.8034 55.8453 73.791C55.8517 73.7785 55.8605 73.7675 55.8711 73.7584C55.8818 73.7494 55.8942 73.7426 55.9075 73.7384C56.2952 73.6236 56.6609 73.4445 56.9895 73.2088C57.4934 72.8415 57.744 72.4059 57.6956 71.9788C57.6472 71.5517 57.3112 71.1816 56.7418 70.931C56.0641 70.6585 55.3277 70.5654 54.6035 70.6605C54.5896 70.6625 54.5754 70.6616 54.5619 70.6579C54.5483 70.6542 54.5357 70.6477 54.5247 70.6389C54.5138 70.6301 54.5048 70.6191 54.4982 70.6067C54.4917 70.5943 54.4878 70.5806 54.4868 70.5666C54.4843 70.5384 54.4926 70.5104 54.5101 70.4882C54.5275 70.466 54.5528 70.4512 54.5807 70.447C55.3416 70.3479 56.1151 70.4459 56.8272 70.7317C57.4707 71.0164 57.855 71.4464 57.9091 71.9532C57.9632 72.46 57.6842 72.9639 57.1176 73.3768C56.7721 73.6282 56.3872 73.8207 55.9787 73.9462L55.9531 73.9491Z" fill="#BA68C8"/>
<path opacity="0.5" d="M55.9531 73.9491C55.9281 73.9515 55.9031 73.9451 55.8824 73.9311C55.8616 73.917 55.8463 73.8962 55.8392 73.8722C55.8348 73.8589 55.833 73.8449 55.8341 73.831C55.8351 73.817 55.839 73.8034 55.8453 73.791C55.8517 73.7785 55.8605 73.7675 55.8711 73.7584C55.8818 73.7494 55.8942 73.7426 55.9075 73.7384C56.2952 73.6236 56.6609 73.4445 56.9895 73.2088C57.4934 72.8415 57.744 72.4059 57.6956 71.9788C57.6472 71.5517 57.3112 71.1816 56.7418 70.931C56.0641 70.6585 55.3277 70.5654 54.6035 70.6605C54.5896 70.6625 54.5754 70.6616 54.5619 70.6579C54.5483 70.6542 54.5357 70.6477 54.5247 70.6389C54.5138 70.6301 54.5048 70.6191 54.4982 70.6067C54.4917 70.5943 54.4878 70.5806 54.4868 70.5666C54.4843 70.5384 54.4926 70.5104 54.5101 70.4882C54.5275 70.466 54.5528 70.4512 54.5807 70.447C55.3416 70.3479 56.1151 70.4459 56.8272 70.7317C57.4707 71.0164 57.855 71.4464 57.9091 71.9532C57.9632 72.46 57.6842 72.9639 57.1176 73.3768C56.7721 73.6282 56.3872 73.8207 55.9787 73.9462L55.9531 73.9491Z" fill="white"/>
<path d="M56.1196 70.6379C56.9994 71.0251 57.0848 71.7996 56.3103 72.3662C55.8716 72.6527 55.3714 72.8317 54.8504 72.8886C54.3295 72.9455 53.8025 72.8787 53.3122 72.6936C52.4324 72.3092 52.3498 71.5319 53.1243 70.9653C53.5625 70.6788 54.0622 70.4998 54.5827 70.4429C55.1032 70.386 55.6298 70.4528 56.1196 70.6379Z" fill="#BA68C8"/>
<path opacity="0.5" d="M56.1196 70.6379C56.9994 71.0251 57.0848 71.7996 56.3103 72.3662C55.8716 72.6527 55.3714 72.8317 54.8504 72.8886C54.3295 72.9455 53.8025 72.8787 53.3122 72.6936C52.4324 72.3092 52.3498 71.5319 53.1243 70.9653C53.5625 70.6788 54.0622 70.4998 54.5827 70.4429C55.1032 70.386 55.6298 70.4528 56.1196 70.6379Z" fill="white"/>
<path d="M124.798 52.2359L121.381 54.2034C121.246 54.2647 121.098 54.2934 120.95 54.2869C120.801 54.2805 120.657 54.2392 120.527 54.1663L108.922 47.4668C108.668 47.3216 108.637 47.1024 108.862 46.9742L112.279 45.0068C112.414 44.9456 112.562 44.9171 112.71 44.9236C112.859 44.93 113.003 44.9712 113.133 45.0438L124.735 51.7433C124.989 51.8886 125.014 52.1078 124.798 52.2359Z" fill="#263238"/>
<path d="M114.898 46.9715L112.273 48.4862L110.109 47.2391L112.735 45.7244L114.898 46.9715Z" fill="#BA68C8"/>
<path d="M117.749 48.6172L115.124 50.1319L112.963 48.8848L115.585 47.3701L117.749 48.6172Z" fill="#BA68C8"/>
<path d="M120.599 50.2629L117.976 51.7805L115.812 50.5305L118.438 49.0158L120.599 50.2629Z" fill="#BA68C8"/>
<path d="M123.452 51.9115L120.827 53.4262L118.666 52.1763L121.288 50.6616L123.452 51.9115Z" fill="#BA68C8"/>
<path opacity="0.4" d="M114.898 46.9715L112.273 48.4862L110.109 47.2391L112.735 45.7244L114.898 46.9715Z" fill="black"/>
<path opacity="0.5" d="M117.749 48.6172L115.124 50.1319L112.963 48.8848L115.585 47.3701L117.749 48.6172Z" fill="black"/>
<path opacity="0.6" d="M120.599 50.2629L117.976 51.7805L115.812 50.5305L118.438 49.0158L120.599 50.2629Z" fill="black"/>
<path opacity="0.8" d="M123.452 51.9115L120.827 53.4262L118.666 52.1763L121.288 50.6616L123.452 51.9115Z" fill="black"/>
<path d="M125.459 48.62L122.569 51.2907C122.449 51.3817 122.309 51.443 122.161 51.4697C122.012 51.4964 121.86 51.4878 121.715 51.4445L108.92 47.4584C108.635 47.3729 108.567 47.1736 108.752 46.9914L111.642 44.3207C111.762 44.2294 111.902 44.1678 112.05 44.1411C112.199 44.1143 112.351 44.1232 112.496 44.167L125.291 48.1531C125.567 48.2385 125.644 48.4464 125.459 48.62Z" fill="#37474F"/>
<path d="M114.639 45.6675L112.415 47.7261L110.029 46.9829L112.256 44.9272L114.639 45.6675Z" fill="#BA68C8"/>
<path d="M117.785 46.6469L115.559 48.7026L113.176 47.9595L115.399 45.9037L117.785 46.6469Z" fill="#BA68C8"/>
<path d="M120.928 47.6236L118.704 49.6793L116.318 48.9361L118.545 46.8804L120.928 47.6236Z" fill="#BA68C8"/>
<path d="M124.073 48.6001L121.849 50.6558L119.463 49.9155L121.689 47.8569L124.073 48.6001Z" fill="#BA68C8"/>
<path opacity="0.1" d="M114.639 45.6675L112.415 47.7261L110.029 46.9829L112.256 44.9272L114.639 45.6675Z" fill="white"/>
<path opacity="0.1" d="M120.928 47.6236L118.704 49.6793L116.318 48.9361L118.545 46.8804L120.928 47.6236Z" fill="black"/>
<path opacity="0.2" d="M124.073 48.6001L121.849 50.6558L119.463 49.9155L121.689 47.8569L124.073 48.6001Z" fill="black"/>
<path d="M125.342 45.1948L123.064 48.4037C122.967 48.5155 122.844 48.6029 122.707 48.6587C122.57 48.7146 122.421 48.7374 122.273 48.7254L108.934 47.4669C108.649 47.4413 108.526 47.2505 108.675 47.0455L110.952 43.8367C111.05 43.7249 111.172 43.6373 111.31 43.581C111.447 43.5247 111.596 43.5011 111.744 43.5121L125.083 44.7706C125.371 44.7991 125.49 44.987 125.342 45.1948Z" fill="#455A64"/>
<path d="M114.151 44.5315L112.394 47.0029L109.908 46.7694L111.662 44.298L114.151 44.5315Z" fill="#BA68C8"/>
<path d="M117.426 44.8418L115.672 47.3103L113.184 47.0769L114.94 44.6055L117.426 44.8418Z" fill="#BA68C8"/>
<path d="M120.704 45.1492L118.95 47.6206L116.465 47.3871L118.219 44.9157L120.704 45.1492Z" fill="#BA68C8"/>
<path d="M123.982 45.4597L122.228 47.9311L119.742 47.6947L121.496 45.2262L123.982 45.4597Z" fill="#BA68C8"/>
<path opacity="0.8" d="M114.151 44.5315L112.394 47.0029L109.908 46.7694L111.662 44.298L114.151 44.5315Z" fill="white"/>
<path opacity="0.6" d="M117.426 44.8418L115.672 47.3103L113.184 47.0769L114.94 44.6055L117.426 44.8418Z" fill="white"/>
<path opacity="0.4" d="M120.704 45.1492L118.95 47.6206L116.465 47.3871L118.219 44.9157L120.704 45.1492Z" fill="white"/>
<path opacity="0.2" d="M123.982 45.4597L122.228 47.9311L119.742 47.6947L121.496 45.2262L123.982 45.4597Z" fill="white"/>
<path d="M108.227 48.2213C107.977 48.2228 107.733 48.1415 107.533 47.9902C107.333 47.8389 107.189 47.6259 107.122 47.3843C107.082 47.2392 107.07 47.0875 107.088 46.938C107.106 46.7884 107.154 46.6439 107.228 46.5126C107.301 46.3813 107.401 46.2659 107.519 46.1729C107.638 46.0799 107.773 46.0112 107.918 45.9706C108.063 45.93 108.215 45.9184 108.365 45.9365C108.514 45.9545 108.659 46.0018 108.79 46.0757C108.921 46.1496 109.037 46.2487 109.13 46.3672C109.223 46.4857 109.291 46.6213 109.332 46.7664L109.11 46.8262C109.044 46.5917 108.888 46.393 108.676 46.2736C108.463 46.1543 108.213 46.1241 107.978 46.1898C107.744 46.2555 107.545 46.4117 107.425 46.6239C107.306 46.8362 107.276 47.0871 107.342 47.3216C107.375 47.4383 107.43 47.5474 107.505 47.6426C107.58 47.7378 107.673 47.8173 107.779 47.8766C107.885 47.9358 108.001 47.9736 108.122 47.9878C108.242 48.002 108.364 47.9924 108.481 47.9594C108.597 47.927 108.706 47.8718 108.801 47.797C108.895 47.7223 108.974 47.6294 109.033 47.5238L109.232 47.6377C109.132 47.8144 108.987 47.9615 108.811 48.064C108.636 48.1665 108.436 48.2208 108.233 48.2213H108.227Z" fill="#E0E0E0"/>
<path d="M92.0902 75.0509L82.4494 80.6172L70.2832 73.5931L79.9353 68.0154C80.0607 67.9426 80.2032 67.9043 80.3482 67.9043C80.4932 67.9043 80.6356 67.9426 80.761 68.0154L92.0816 74.5498C92.1272 74.5734 92.1656 74.6089 92.1927 74.6526C92.2198 74.6962 92.2345 74.7464 92.2354 74.7978C92.2363 74.8491 92.2233 74.8998 92.1977 74.9443C92.1721 74.9889 92.135 75.0257 92.0902 75.0509Z" fill="#BA68C8"/>
<path opacity="0.7" d="M92.0902 75.0509L82.4494 80.6172L70.2832 73.5931L79.9353 68.0154C80.0607 67.9426 80.2032 67.9043 80.3482 67.9043C80.4932 67.9043 80.6356 67.9426 80.761 68.0154L92.0816 74.5498C92.1272 74.5734 92.1656 74.6089 92.1927 74.6526C92.2198 74.6962 92.2345 74.7464 92.2354 74.7978C92.2363 74.8491 92.2233 74.8998 92.1977 74.9443C92.1721 74.9889 92.135 75.0257 92.0902 75.0509Z" fill="black"/>
<path d="M91.4229 74.8459L82.4484 80.0336L71.125 73.485L80.1166 68.2944C80.2335 68.2272 80.3661 68.1919 80.5009 68.1919C80.6358 68.1919 80.7684 68.2272 80.8853 68.2944L91.4201 74.379C91.4617 74.402 91.4965 74.4357 91.5208 74.4765C91.5451 74.5174 91.558 74.5641 91.5583 74.6116C91.5586 74.6592 91.5462 74.706 91.5224 74.7471C91.4986 74.7883 91.4643 74.8224 91.4229 74.8459Z" fill="white"/>
<path d="M82.4492 80.0279V79.0171L91.5575 73.7583V74.621L82.4492 80.0279Z" fill="white"/>
<path d="M82.4484 80.028V79.0172L71.125 72.4771V73.4879L82.4484 80.028Z" fill="#E0E0E0"/>
<path d="M92.0902 73.4507L82.4494 79.0171L70.2832 71.9929L79.9353 66.4152C80.0607 66.3425 80.2032 66.3041 80.3482 66.3041C80.4932 66.3041 80.6356 66.3425 80.761 66.4152L92.0816 72.9638C92.1239 72.9885 92.1591 73.0236 92.1839 73.0658C92.2087 73.108 92.2221 73.1559 92.223 73.2049C92.2238 73.2538 92.2121 73.3021 92.1888 73.3452C92.1655 73.3883 92.1316 73.4246 92.0902 73.4507Z" fill="#BA68C8"/>
<path opacity="0.5" d="M92.0902 73.4507L82.4494 79.0171L70.2832 71.9929L79.9353 66.4152C80.0607 66.3425 80.2032 66.3041 80.3482 66.3041C80.4932 66.3041 80.6356 66.3425 80.761 66.4152L92.0816 72.9638C92.1239 72.9885 92.1591 73.0236 92.1839 73.0658C92.2087 73.108 92.2221 73.1559 92.223 73.2049C92.2238 73.2538 92.2121 73.3021 92.1888 73.3452C92.1655 73.3883 92.1316 73.4246 92.0902 73.4507Z" fill="black"/>
<path d="M81.1933 79.8913C81.1647 79.9046 81.1336 79.9114 81.1022 79.9114C81.0707 79.9114 81.0396 79.9046 81.011 79.8913C80.9762 79.8733 80.947 79.8459 80.9269 79.8122C80.9068 79.7785 80.8965 79.7398 80.8972 79.7006V78.7866C80.8971 78.5794 80.9508 78.3757 81.0531 78.1955C81.1554 78.0153 81.3028 77.8648 81.4808 77.7587L81.515 77.7388C81.5311 77.7284 81.5499 77.7229 81.5691 77.7229C81.5883 77.7229 81.6071 77.7284 81.6232 77.7388C81.6401 77.7479 81.6541 77.7614 81.6637 77.7781C81.6733 77.7947 81.678 77.8136 81.6773 77.8328C81.6773 77.8834 81.6974 77.9319 81.7332 77.9677C81.7689 78.0034 81.8175 78.0235 81.8681 78.0235C81.9187 78.0235 81.9672 78.0034 82.003 77.9677C82.0387 77.9319 82.0588 77.8834 82.0588 77.8328C82.0586 77.7466 82.0357 77.662 81.9924 77.5876C81.9491 77.5131 81.8869 77.4514 81.8121 77.4086C81.7373 77.3659 81.6525 77.3436 81.5664 77.3441C81.4802 77.3446 81.3957 77.3678 81.3214 77.4114L81.2872 77.4342C81.0526 77.5736 80.8582 77.7715 80.7229 78.0085C80.5877 78.2456 80.5162 78.5137 80.5156 78.7866V79.7006C80.516 79.8087 80.5456 79.9147 80.6012 80.0074C80.6569 80.1001 80.7365 80.1761 80.8317 80.2273C80.9197 80.2727 81.0174 80.2961 81.1164 80.2956C81.235 80.2969 81.3511 80.2621 81.4495 80.196C81.4852 80.17 81.5112 80.133 81.5235 80.0906L81.1933 79.8913Z" fill="white"/>
<path d="M79.3905 78.852C79.3583 78.8627 79.3239 78.8657 79.2903 78.8607C79.2566 78.8557 79.2246 78.8428 79.1969 78.8231C79.1692 78.8034 79.1465 78.7775 79.1306 78.7474C79.1148 78.7173 79.1063 78.6838 79.1058 78.6498V77.7359C79.1048 77.5301 79.1566 77.3276 79.2563 77.1476C79.356 76.9676 79.5003 76.8163 79.6753 76.708L79.7123 76.6881C79.7288 76.6789 79.7474 76.674 79.7664 76.674C79.7853 76.674 79.8039 76.6789 79.8205 76.6881C79.8366 76.698 79.85 76.7118 79.8594 76.7282C79.8689 76.7446 79.8741 76.7631 79.8746 76.782C79.8713 76.8089 79.8737 76.8361 79.8817 76.8619C79.8897 76.8877 79.9031 76.9115 79.921 76.9317C79.9389 76.9519 79.9609 76.9681 79.9855 76.9792C80.0102 76.9903 80.0369 76.9961 80.0639 76.9961C80.0909 76.9961 80.1176 76.9903 80.1423 76.9792C80.1669 76.9681 80.1889 76.9519 80.2068 76.9317C80.2247 76.9115 80.2381 76.8877 80.2461 76.8619C80.2541 76.8361 80.2565 76.8089 80.2532 76.782C80.2531 76.6962 80.2303 76.6119 80.1872 76.5377C80.144 76.4636 80.082 76.4021 80.0074 76.3596C79.9328 76.3171 79.8483 76.2951 79.7625 76.2958C79.6767 76.2965 79.5925 76.3198 79.5187 76.3635L79.4845 76.3834C79.2496 76.5233 79.0551 76.7217 78.9199 76.9593C78.7846 77.1968 78.7133 77.4654 78.7129 77.7387V78.6527C78.713 78.7609 78.7424 78.867 78.7981 78.9597C78.8538 79.0525 78.9335 79.1284 79.0289 79.1794C79.117 79.2248 79.2146 79.2482 79.3137 79.2477C79.4311 79.2472 79.5458 79.2126 79.6439 79.1481C79.6812 79.1238 79.7077 79.086 79.718 79.0427L79.3905 78.852Z" fill="white"/>
<path d="M77.5889 77.8128C77.5608 77.826 77.5302 77.8329 77.4992 77.8329C77.4682 77.8329 77.4375 77.826 77.4095 77.8128C77.3741 77.7944 77.3444 77.7666 77.3238 77.7325C77.3032 77.6983 77.2925 77.6591 77.2927 77.6192V76.7052C77.2934 76.4982 77.3478 76.295 77.4507 76.1153C77.5535 75.9356 77.7012 75.7857 77.8793 75.6802L77.9134 75.6603C77.9297 75.6502 77.9484 75.6449 77.9675 75.6449C77.9867 75.6449 78.0054 75.6502 78.0216 75.6603C78.0381 75.6698 78.0518 75.6835 78.0613 75.7C78.0708 75.7165 78.0758 75.7352 78.0757 75.7543C78.0724 75.7811 78.0749 75.8083 78.0829 75.8341C78.0909 75.8599 78.1043 75.8837 78.1222 75.9039C78.1401 75.9242 78.1621 75.9404 78.1867 75.9515C78.2114 75.9626 78.2381 75.9683 78.2651 75.9683C78.2921 75.9683 78.3188 75.9626 78.3434 75.9515C78.3681 75.9404 78.3901 75.9242 78.408 75.9039C78.4259 75.8837 78.4393 75.8599 78.4473 75.8341C78.4553 75.8083 78.4577 75.7811 78.4544 75.7543C78.4543 75.6684 78.4315 75.5842 78.3883 75.51C78.3452 75.4358 78.2831 75.3743 78.2086 75.3319C78.134 75.2894 78.0495 75.2673 77.9637 75.268C77.8778 75.2687 77.7937 75.2921 77.7198 75.3357L77.6857 75.3557C77.4512 75.4953 77.2569 75.6932 77.1217 75.9302C76.9865 76.1672 76.915 76.4352 76.9141 76.7081V77.6221C76.9139 77.7303 76.9432 77.8365 76.9989 77.9294C77.0546 78.0222 77.1345 78.098 77.2301 78.1488C77.3174 78.1964 77.4154 78.2209 77.5148 78.22C77.6323 78.2199 77.7472 78.1853 77.8451 78.1203C77.8818 78.0954 77.9081 78.0579 77.9191 78.015L77.5889 77.8128Z" fill="white"/>
<path d="M75.7895 76.7707C75.761 76.7842 75.7299 76.7911 75.6984 76.7911C75.6669 76.7911 75.6358 76.7842 75.6073 76.7707C75.5726 76.7517 75.5437 76.7237 75.5237 76.6896C75.5036 76.6555 75.4932 76.6167 75.4934 76.5771V75.6632C75.4921 75.4577 75.5438 75.2554 75.6435 75.0759C75.7433 74.8963 75.8877 74.7455 76.0629 74.6382L76.097 74.6154C76.1135 74.6059 76.1321 74.6009 76.1511 74.6009C76.1701 74.6009 76.1888 74.6059 76.2052 74.6154C76.2221 74.6244 76.2362 74.638 76.2457 74.6546C76.2553 74.6712 76.26 74.6902 76.2593 74.7093C76.2593 74.7599 76.2794 74.8085 76.3152 74.8442C76.351 74.88 76.3995 74.9001 76.4501 74.9001C76.475 74.9001 76.4997 74.8951 76.5227 74.8855C76.5457 74.8759 76.5665 74.8618 76.584 74.8441C76.6015 74.8263 76.6153 74.8052 76.6245 74.7821C76.6338 74.759 76.6384 74.7342 76.638 74.7093C76.6388 74.6232 76.6166 74.5383 76.5736 74.4636C76.5306 74.3889 76.4685 74.327 76.3936 74.2844C76.3187 74.2417 76.2338 74.2198 76.1476 74.2209C76.0615 74.2221 75.9772 74.2462 75.9034 74.2908L75.8693 74.3107C75.6348 74.4503 75.4405 74.6483 75.3053 74.8853C75.1701 75.1223 75.0986 75.3903 75.0977 75.6632V76.5771C75.0975 76.6854 75.1268 76.7916 75.1825 76.8844C75.2381 76.9772 75.3181 77.0531 75.4137 77.1039C75.501 77.1514 75.599 77.1759 75.6984 77.175C75.8168 77.1749 75.9325 77.1403 76.0315 77.0754C76.0666 77.0489 76.0925 77.012 76.1056 76.97L75.7895 76.7707Z" fill="white"/>
<path d="M73.9873 75.7315C73.9586 75.7442 73.9276 75.7507 73.8962 75.7507C73.8648 75.7507 73.8338 75.7442 73.8051 75.7315C73.7704 75.7125 73.7415 75.6844 73.7215 75.6504C73.7014 75.6163 73.6909 75.5774 73.6912 75.5379V74.6239C73.6919 74.4168 73.746 74.2135 73.8483 74.0334C73.9505 73.8534 74.0974 73.7028 74.2749 73.596L74.3119 73.5761C74.3284 73.5666 74.347 73.5616 74.366 73.5616C74.3851 73.5616 74.4037 73.5666 74.4202 73.5762C74.4366 73.5857 74.4503 73.5994 74.4598 73.6159C74.4693 73.6324 74.4742 73.6511 74.4742 73.6701C74.4799 73.7163 74.5022 73.7588 74.5371 73.7897C74.572 73.8205 74.617 73.8376 74.6635 73.8376C74.7101 73.8376 74.755 73.8205 74.7899 73.7897C74.8248 73.7588 74.8472 73.7163 74.8529 73.6701C74.8535 73.584 74.8311 73.4993 74.7881 73.4247C74.745 73.3501 74.6829 73.2884 74.608 73.2458C74.5339 73.2017 74.4493 73.1784 74.3631 73.1784C74.2769 73.1784 74.1923 73.2017 74.1183 73.2458L74.0841 73.2658C73.8497 73.4054 73.6554 73.6033 73.5202 73.8403C73.3849 74.0774 73.3134 74.3453 73.3125 74.6182V75.5322C73.312 75.6405 73.3412 75.7468 73.3969 75.8397C73.4526 75.9326 73.5327 76.0084 73.6285 76.0589C73.7236 76.1103 73.8311 76.1346 73.939 76.1291C74.047 76.1236 74.1514 76.0884 74.2407 76.0276C74.2772 76.0037 74.3036 75.9672 74.3147 75.9251L73.9873 75.7315Z" fill="white"/>
<path d="M72.1849 74.6921C72.1526 74.7022 72.1185 74.7048 72.0851 74.6995C72.0517 74.6942 72.0199 74.6813 71.9924 74.6617C71.9648 74.6421 71.9421 74.6164 71.9261 74.5866C71.9101 74.5569 71.9013 74.5238 71.9002 74.49V73.576C71.9006 73.3686 71.9549 73.1648 72.0577 72.9847C72.1606 72.8045 72.3084 72.6541 72.4867 72.5482L72.5209 72.5282C72.5371 72.5181 72.5558 72.5128 72.575 72.5128C72.5941 72.5128 72.6128 72.5181 72.6291 72.5282C72.646 72.5373 72.66 72.5509 72.6695 72.5675C72.6791 72.5841 72.6838 72.603 72.6832 72.6222C72.6888 72.6684 72.7112 72.7109 72.7461 72.7418C72.781 72.7727 72.8259 72.7897 72.8725 72.7897C72.9191 72.7897 72.964 72.7727 72.9989 72.7418C73.0338 72.7109 73.0562 72.6684 73.0618 72.6222C73.0627 72.536 73.0405 72.4512 72.9974 72.3766C72.9544 72.302 72.892 72.2403 72.817 72.198C72.7426 72.1547 72.6581 72.1319 72.5721 72.1319C72.4861 72.1319 72.4016 72.1547 72.3273 72.198L72.2931 72.2207C72.0587 72.3604 71.8644 72.5583 71.7291 72.7953C71.5939 73.0323 71.5224 73.3003 71.5215 73.5732V74.4871C71.5219 74.5952 71.5515 74.7012 71.6071 74.7939C71.6627 74.8866 71.7423 74.9626 71.8375 75.0139C71.9253 75.0601 72.023 75.0845 72.1223 75.085C72.2403 75.0859 72.3557 75.0501 72.4525 74.9825C72.489 74.9587 72.5154 74.9222 72.5266 74.88L72.1849 74.6921Z" fill="white"/>
<path d="M93.3336 70.9339L82.9099 76.9529L69.3457 69.1231L79.7694 63.104L93.3336 70.9339Z" fill="#E6E6E6"/>
<path d="M93.9304 70.7374L83.0397 75.8624L70.1816 66.9221L81.0723 61.7999L93.9304 70.7374Z" fill="#FAFAFA"/>
<path d="M80.0507 67.1925C79.6364 67.5981 79.3558 68.1205 79.2465 68.6898C79.1371 69.2592 79.2041 69.8484 79.4386 70.3786C79.9254 71.5175 81.1469 72.161 82.337 72.2008C82.9494 72.2259 83.5565 72.0792 84.0898 71.7773C84.6231 71.4754 85.0614 71.0304 85.3551 70.4925C85.6387 69.9513 85.698 69.3203 85.5202 68.7357C85.3216 68.142 84.9347 67.6292 84.4184 67.2751C83.7346 66.829 82.9342 66.5952 82.1178 66.6032C81.4259 66.5889 80.5917 66.6516 80.1247 67.221C80.0308 67.3321 80.1931 67.5057 80.287 67.3833C80.68 66.9135 81.3348 66.8423 81.91 66.8338C82.5963 66.8056 83.2795 66.9412 83.903 67.2296C84.948 67.7478 85.6911 68.9094 85.2925 70.0768C85.0851 70.6034 84.7316 71.0598 84.2736 71.3922C83.8156 71.7246 83.2721 71.9192 82.7072 71.9531C82.1513 72.0053 81.5916 71.908 81.086 71.6712C80.5804 71.4344 80.1473 71.0668 79.8315 70.6064C79.518 70.1007 79.3856 69.5036 79.456 68.9128C79.5263 68.3221 79.7953 67.7727 80.2187 67.3548C80.3269 67.258 80.1646 67.0957 80.0564 67.1925H80.0507Z" fill="#BA68C8"/>
<path d="M81.6565 70.5665C81.9229 70.6444 82.2029 70.6633 82.4773 70.622C82.7517 70.5807 83.0137 70.4802 83.2453 70.3273C83.4679 70.1744 83.6474 69.9668 83.7665 69.7244C83.8857 69.4821 83.9406 69.2132 83.9258 68.9436C83.9109 68.6381 83.7981 68.3456 83.6041 68.1093C83.5101 67.9954 83.3478 68.1577 83.4418 68.2716C83.6178 68.5088 83.7083 68.7987 83.6985 69.0939C83.6887 69.3892 83.5791 69.6724 83.3877 69.8974C83.1784 70.1202 82.9111 70.2803 82.6159 70.3598C82.3207 70.4392 82.0092 70.4349 81.7163 70.3472C81.688 70.3416 81.6587 70.3469 81.6341 70.362C81.6096 70.3772 81.5917 70.4011 81.5841 70.429C81.5765 70.4568 81.5798 70.4865 81.5932 70.512C81.6067 70.5375 81.6293 70.557 81.6565 70.5665Z" fill="#BA68C8"/>
<path d="M79.4594 71.116C79.129 71.0475 78.8175 70.9081 78.5462 70.7076C78.2748 70.507 78.0502 70.2501 77.8877 69.9544C77.7653 69.7152 77.6713 69.3451 77.8649 69.1002C78.1497 68.7699 78.5938 69.0518 78.7732 69.3251C78.8659 69.4463 78.9284 69.5878 78.9554 69.738C78.9554 69.9771 78.5796 69.6326 78.5056 69.5615C78.2599 69.3203 78.088 69.0141 78.0102 68.6788C77.8678 68.0439 78.1497 67.2552 78.8643 67.1527C79.1491 67.1185 79.5363 67.221 79.6245 67.5342C79.6701 67.6994 79.5847 67.8901 79.3854 67.7734C79.3154 67.7213 79.2566 67.6556 79.2126 67.5803C79.1686 67.5049 79.1402 67.4215 79.1291 67.3349C79.0968 67.1839 79.0948 67.028 79.1234 66.8763C79.152 66.7246 79.2106 66.58 79.2957 66.4512C79.3808 66.3224 79.4907 66.2118 79.619 66.1259C79.7474 66.0401 79.8915 65.9807 80.0431 65.9512C80.351 65.9026 80.6659 65.9739 80.9229 66.1505C81.0197 66.216 81.2759 66.4153 81.162 66.5434C80.9912 66.7285 80.809 66.4267 80.7891 66.2843C80.7827 66.122 80.8292 65.962 80.9216 65.8285C81.0141 65.695 81.1474 65.5951 81.3016 65.544C81.4742 65.492 81.6566 65.4806 81.8344 65.5108C82.0122 65.5409 82.1806 65.6117 82.3266 65.7177C82.5084 65.8225 82.6665 65.9641 82.7907 66.1334C82.9302 66.364 82.6455 66.5092 82.4746 66.3583C82.1415 66.0736 82.4974 65.6664 82.8191 65.6038C83.2405 65.5212 83.6733 65.7946 84.0007 66.0223C84.3457 66.2633 84.6503 66.5574 84.9033 66.8936C84.9916 67.0103 85.188 66.8936 85.1026 66.7769C84.7726 66.3379 84.3619 65.9658 83.8925 65.6807C83.4711 65.4273 82.9216 65.2109 82.4689 65.4984C82.3838 65.5465 82.3105 65.6129 82.2545 65.6929C82.1984 65.7729 82.1609 65.8645 82.1448 65.9609C82.1287 66.0572 82.1343 66.156 82.1614 66.2499C82.1884 66.3438 82.2361 66.4304 82.3009 66.5035C82.5714 66.7882 83.175 66.6146 83.064 66.1647C82.9753 65.9457 82.8186 65.7611 82.617 65.638C82.4066 65.4703 82.1615 65.3517 81.8995 65.2906C81.6783 65.2368 81.446 65.2516 81.2334 65.333C81.0209 65.4143 80.8381 65.5585 80.7093 65.7462C80.4958 66.0651 80.4901 66.6801 80.9428 66.8082C81.0287 66.831 81.1198 66.8246 81.2017 66.7901C81.2837 66.7556 81.3518 66.6949 81.3955 66.6174C81.498 66.4124 81.3471 66.2103 81.2019 66.0764C81.0405 65.9283 80.8462 65.8206 80.635 65.7622C80.4237 65.7038 80.2017 65.6964 79.9871 65.7406C79.7725 65.7848 79.5714 65.8793 79.4005 66.0164C79.2295 66.1535 79.0936 66.3292 79.0038 66.5292C78.9103 66.7312 78.8696 66.9537 78.8855 67.1758C78.9015 67.3979 78.9735 67.6124 79.095 67.799C79.1504 67.8892 79.2338 67.9589 79.3325 67.9974C79.4311 68.0359 79.5397 68.0413 79.6416 68.0126C79.7162 67.9804 79.779 67.9258 79.8213 67.8565C79.8636 67.7871 79.8834 67.7064 79.8779 67.6253C79.8779 67.1812 79.4195 66.9278 79.0238 66.9192C78.7982 66.9157 78.5762 66.975 78.3825 67.0907C78.1889 67.2064 78.0313 67.3738 77.9276 67.5741C77.8184 67.7941 77.7572 68.0347 77.7479 68.2801C77.7385 68.5255 77.7813 68.7701 77.8735 68.9977C77.9585 69.219 78.0808 69.4241 78.2351 69.6042C78.383 69.8014 78.5791 69.9573 78.8045 70.0569C78.8484 70.0712 78.8952 70.0747 78.9407 70.067C78.9862 70.0593 79.0292 70.0406 79.0659 70.0126C79.1026 69.9846 79.132 69.948 79.1514 69.9062C79.1709 69.8643 79.1798 69.8183 79.1775 69.7721C79.1493 69.541 79.0576 69.3223 78.9127 69.1401C78.6508 68.7813 78.1098 68.5507 77.7368 68.8895C77.4208 69.1742 77.4948 69.6668 77.6571 70.0113C77.8882 70.461 78.252 70.8288 78.6992 71.0648C78.916 71.1815 79.1478 71.2677 79.3882 71.321C79.5306 71.3524 79.5932 71.1303 79.448 71.099L79.4594 71.116Z" fill="#BA68C8"/>
<path d="M80.9922 69.2142C80.9843 69.2286 80.9748 69.242 80.9637 69.2541L80.9466 69.2711C80.9376 69.2821 80.927 69.2917 80.9153 69.2996C80.8954 69.3224 80.9153 69.2996 80.9153 69.2996L80.8868 69.3167L80.847 69.3423H80.8299C80.8148 69.35 80.7984 69.3549 80.7815 69.3566H80.7302H80.6363H80.5879C80.5879 69.3566 80.5708 69.3566 80.5651 69.3566L80.5309 69.3338L80.5138 69.3195V69.3053C80.4939 69.2825 80.5138 69.3195 80.5138 69.3053L80.4939 69.2768V69.2569C80.4939 69.2569 80.4939 69.2284 80.4939 69.217C80.4926 69.2038 80.4926 69.1904 80.4939 69.1772C80.4939 69.1914 80.4939 69.2028 80.4939 69.1772V69.1202C80.4939 69.1202 80.4939 69.106 80.4939 69.1003C80.4939 69.0946 80.4939 69.1174 80.4939 69.1003C80.4925 69.0842 80.4925 69.068 80.4939 69.0519L80.511 69.0177V69.0006C80.511 68.9864 80.5252 69.0006 80.511 69.0006C80.4968 69.0006 80.5309 68.9807 80.5395 68.9722H80.5537C80.5395 68.9722 80.5395 68.9921 80.5537 68.9722L80.5879 68.9522H80.6106H80.6391H80.6847C80.6619 68.9522 80.7131 68.9522 80.6847 68.9522L80.7502 68.9722C80.7302 68.9722 80.7786 68.9722 80.7502 68.9722L80.7843 68.9921L80.8356 69.0234L80.8669 69.0519L80.9124 69.0946L80.9637 69.1487L80.9808 69.1715V69.1857C80.9967 69.2112 81.0217 69.2298 81.0507 69.2377C81.0797 69.2456 81.1107 69.2423 81.1374 69.2284C81.1503 69.2208 81.1616 69.2107 81.1706 69.1987C81.1796 69.1867 81.1862 69.173 81.1899 69.1584C81.1936 69.1439 81.1944 69.1287 81.1922 69.1139C81.19 69.099 81.185 69.0847 81.1772 69.0718C81.0697 68.8952 80.8968 68.7683 80.6961 68.7188C80.6095 68.7029 80.5201 68.7157 80.4415 68.7553C80.3628 68.7949 80.2993 68.859 80.2604 68.938C80.2253 69.0088 80.207 69.0868 80.207 69.1658C80.207 69.2448 80.2253 69.3228 80.2604 69.3936C80.3028 69.4667 80.3646 69.5267 80.439 69.5669C80.5134 69.6071 80.5974 69.6259 80.6818 69.6213C80.7802 69.6181 80.8763 69.5904 80.9613 69.5407C81.0463 69.4909 81.1176 69.4208 81.1687 69.3366C81.1776 69.3237 81.1838 69.3091 81.1867 69.2936C81.1897 69.2782 81.1895 69.2623 81.186 69.247C81.1826 69.2317 81.176 69.2173 81.1667 69.2046C81.1574 69.1919 81.1456 69.1813 81.132 69.1735C81.1185 69.1656 81.1034 69.1606 81.0878 69.1588C81.0722 69.1571 81.0564 69.1585 81.0414 69.1632C81.0264 69.1678 81.0125 69.1755 81.0006 69.1857C80.9887 69.196 80.979 69.2086 80.9722 69.2227L80.9922 69.2142Z" fill="#BA68C8"/>
<path d="M81.5527 67.9272C81.5606 68.0149 81.5947 68.0982 81.6505 68.1662C81.7064 68.2343 81.7815 68.2839 81.8659 68.3087C81.948 68.3375 82.0373 68.3385 82.12 68.3118C82.2028 68.2851 82.2745 68.232 82.3243 68.1607C82.3643 68.0904 82.3853 68.0109 82.3853 67.9301C82.3853 67.8492 82.3643 67.7697 82.3243 67.6994C82.2833 67.6226 82.2168 67.5625 82.1363 67.5292C82.0558 67.496 81.9663 67.4918 81.883 67.5172C81.7833 67.5473 81.6963 67.6094 81.6353 67.6937C81.5761 67.776 81.5516 67.8783 81.567 67.9785C81.5762 68.0073 81.596 68.0316 81.6224 68.0464C81.6489 68.0612 81.6799 68.0654 81.7093 68.0582C81.7378 68.0484 81.7617 68.0285 81.7764 68.0022C81.7911 67.976 81.7956 67.9452 81.7891 67.9158C81.7891 67.9158 81.7891 67.9414 81.7891 67.9301V67.8987C81.7903 67.8912 81.7903 67.8835 81.7891 67.876C81.7903 67.8684 81.7903 67.8607 81.7891 67.8532C81.7891 67.8532 81.7891 67.8247 81.8118 67.8133C81.8289 67.7877 81.8346 67.8019 81.8118 67.8133L81.846 67.7792C81.846 67.7792 81.8602 67.7792 81.8659 67.7792L81.9058 67.7564H81.9286H81.9485C81.9627 67.7577 81.977 67.7577 81.9912 67.7564H82.014H82.0368C82.0168 67.7564 82.0567 67.7564 82.0368 67.7564C82.0481 67.7647 82.0606 67.7714 82.0738 67.7763C82.0538 67.7763 82.0567 67.7763 82.0738 67.7763V67.7905V67.8048C82.0815 67.8155 82.0881 67.827 82.0937 67.839C82.0937 67.839 82.0937 67.8617 82.0937 67.839C82.095 67.8522 82.095 67.8656 82.0937 67.8788C82.0924 67.8844 82.0924 67.8903 82.0937 67.8959V67.9557C82.0937 67.9272 82.0937 67.9756 82.0937 67.9557V67.9927C82.0928 67.9993 82.0928 68.006 82.0937 68.0126C82.0937 67.9955 82.0937 68.0354 82.0937 68.0126C82.0888 68.0258 82.0821 68.0383 82.0738 68.0496V68.0639V68.0781H82.051H82.0311H82.014H81.9998C81.9998 68.0781 82.0282 68.0781 82.014 68.0781H81.9513H81.9058C81.8983 68.0766 81.8905 68.0766 81.883 68.0781L81.8432 68.0525L81.8232 68.0354L81.8061 68.0183L81.7919 67.9955C81.7919 67.9955 81.7919 67.9956 81.7919 67.9728C81.7903 67.9653 81.7903 67.9575 81.7919 67.95C81.7905 67.9198 81.7776 67.8912 81.756 67.8701C81.7343 67.8489 81.7054 67.8368 81.6752 67.8361C81.6452 67.8368 81.6166 67.8491 81.5954 67.8703C81.5742 67.8915 81.562 67.92 81.5613 67.95L81.5527 67.9272Z" fill="#BA68C8"/>
<path d="M98.9854 56.8969L94.3672 59.5335C94.0083 59.7387 93.602 59.8467 93.1885 59.8467C92.775 59.8467 92.3687 59.7387 92.0097 59.5335L89.0486 57.8251L88.7126 57.6315C88.3625 57.4294 88.0715 57.1389 87.8687 56.7892C87.6658 56.4395 87.5582 56.0427 87.5566 55.6384V47.091L94.4896 43.1448V51.8459C94.4898 52.1957 94.5819 52.5392 94.7568 52.8421C94.9317 53.145 95.1833 53.3965 95.4862 53.5713L98.9911 55.5957C99.1064 55.6611 99.2022 55.7559 99.2687 55.8706C99.3351 55.9852 99.3699 56.1155 99.3693 56.248C99.3687 56.3805 99.3328 56.5105 99.2654 56.6245C99.1979 56.7386 99.1013 56.8326 98.9854 56.8969Z" fill="#E0E0E0"/>
<path d="M93.3807 59.8182C93.7282 59.7913 94.0655 59.6883 94.3687 59.5164L98.9869 56.8856C99.1011 56.8203 99.196 56.726 99.2621 56.6123C99.3281 56.4985 99.3629 56.3694 99.3629 56.2378C99.3629 56.1063 99.3281 55.9771 99.2621 55.8633C99.196 55.7496 99.1011 55.6553 98.9869 55.5901L96.5924 54.2092H93.375L93.3807 59.8182Z" fill="#E6E6E6"/>
<path d="M98.9032 55.0292L99.0314 55.1317C99.135 55.2142 99.2188 55.3189 99.2765 55.4382C99.3342 55.5575 99.3642 55.6882 99.3645 55.8207V56.2506H98.9004L98.9032 55.0292Z" fill="#E6E6E6"/>
<path d="M95.0255 43.8052V51.6351C95.0251 51.9744 95.1141 52.3078 95.2836 52.6017C95.453 52.8956 95.6969 53.1397 95.9908 53.3093L98.9063 55.0176C99.017 55.0809 99.1089 55.1723 99.1729 55.2826C99.2369 55.3928 99.2705 55.518 99.2705 55.6455C99.2705 55.7729 99.2369 55.8981 99.1729 56.0084C99.1089 56.1186 99.017 56.21 98.9063 56.2733L98.576 56.4612L94.4333 58.8187C94.0865 59.017 93.6939 59.1212 93.2944 59.1212C92.8949 59.1212 92.5024 59.017 92.1555 58.8187L89.2855 57.1246C88.9919 56.9554 88.7481 56.7119 88.5787 56.4184C88.4092 56.125 88.3201 55.7921 88.3203 55.4533V47.6234L95.0255 43.8052Z" fill="#F0F0F0"/>
<path d="M95.0254 51.6351V43.8052L88.3145 47.6234V55.4561C88.3142 55.795 88.4034 56.1279 88.5728 56.4213C88.7423 56.7147 88.9861 56.9583 89.2797 57.1274L95.8796 53.2467C95.6154 53.0693 95.3992 52.8293 95.2501 52.5481C95.1011 52.267 95.0239 51.9533 95.0254 51.6351Z" fill="#E6E6E6"/>
<path d="M73.7876 61.2873L73.0246 61.7286V63.1238C72.5352 63.1231 72.0552 62.9903 71.6351 62.7394L71.5753 62.7052C71.4003 62.6013 71.2483 62.4629 71.1284 62.2985C71.0085 62.134 70.9232 61.9469 70.8778 61.7486C70.8512 61.6628 70.8377 61.5735 70.8379 61.4838V59.5847L73.7876 61.2873Z" fill="#E0E0E0"/>
<path d="M106.929 10.0485L106.87 10.0143C106.45 9.763 105.97 9.63017 105.48 9.62995C105.323 9.62793 105.168 9.66931 105.033 9.74954L72.1675 28.6495C71.7633 28.8822 71.4275 29.2174 71.194 29.6213C70.9606 30.0252 70.8377 30.4835 70.8379 30.95V59.5847L73.7876 61.293L105.01 43.3554C105.415 43.122 105.75 42.7862 105.984 42.3819C106.217 41.9776 106.34 41.5189 106.34 41.052V11.3468H107.667C107.667 11.085 107.599 10.8277 107.47 10.6001C107.341 10.3724 107.154 10.1824 106.929 10.0485Z" fill="#37474F"/>
<path d="M71.1089 29.757C70.9226 30.1271 70.8251 30.5356 70.8242 30.95V59.5846L73.774 61.293L74.8787 60.6552V32.0946L71.1089 29.757Z" fill="#263238"/>
<path d="M72.166 60.3506V62.2497C72.166 62.4026 72.2063 62.5528 72.2827 62.6853C72.3592 62.8177 72.4692 62.9277 72.6016 63.0042C72.7341 63.0807 72.8843 63.1209 73.0373 63.1209C73.1902 63.1209 73.3404 63.0807 73.4729 63.0042L106.339 44.1042C106.743 43.8715 107.079 43.5363 107.312 43.1324C107.545 42.7285 107.668 42.2702 107.668 41.8037V39.8533L72.166 60.3506Z" fill="#F0F0F0"/>
<path d="M107.668 11.27C107.668 11.1175 107.628 10.9677 107.551 10.8357C107.475 10.7036 107.365 10.5939 107.233 10.5175C107.101 10.4411 106.951 10.4008 106.799 10.4004C106.646 10.4 106.497 10.4397 106.364 10.5155L73.4957 29.4154C73.0914 29.6489 72.7556 29.9846 72.5222 30.389C72.2888 30.7933 72.1659 31.252 72.166 31.7188V60.3506L107.668 39.8505" fill="#455A64"/>
<path d="M105.763 12.5883C105.613 12.5875 105.465 12.6216 105.33 12.6879L74.4348 30.4461C74.0784 30.6526 73.7824 30.949 73.5765 31.3058C73.3707 31.6626 73.2621 32.0671 73.2617 32.479V56.877C73.2613 56.9818 73.2826 57.0855 73.3244 57.1816C73.368 57.2811 73.432 57.3703 73.5123 57.4434C73.5926 57.5165 73.6874 57.5719 73.7905 57.606C73.8936 57.6401 74.0027 57.6521 74.1108 57.6413C74.2188 57.6305 74.3234 57.5971 74.4177 57.5432L105.304 39.785C105.661 39.5786 105.957 39.2822 106.163 38.9254C106.369 38.5686 106.477 38.164 106.478 37.7521V13.3542C106.477 13.1598 106.403 12.9728 106.271 12.8307C106.138 12.6886 105.957 12.6019 105.763 12.5883Z" fill="#BA68C8"/>
<path opacity="0.5" d="M105.763 12.5883C105.613 12.5875 105.465 12.6216 105.33 12.6879L74.4348 30.4461C74.0784 30.6526 73.7824 30.949 73.5765 31.3058C73.3707 31.6626 73.2621 32.0671 73.2617 32.479V56.877C73.2613 56.9818 73.2826 57.0855 73.3244 57.1816C73.368 57.2811 73.432 57.3703 73.5123 57.4434C73.5926 57.5165 73.6874 57.5719 73.7905 57.606C73.8936 57.6401 74.0027 57.6521 74.1108 57.6413C74.2188 57.6305 74.3234 57.5971 74.4177 57.5432L105.304 39.785C105.661 39.5786 105.957 39.2822 106.163 38.9254C106.369 38.5686 106.477 38.164 106.478 37.7521V13.3542C106.477 13.1598 106.403 12.9728 106.271 12.8307C106.138 12.6886 105.957 12.6019 105.763 12.5883Z" fill="white"/>
<path d="M118.685 61.8709L118.443 62.0076C118.342 61.9028 118.227 61.8127 118.102 61.74L108.674 56.2989C107.968 55.8889 106.898 55.8462 106.286 56.1993L89.6463 65.7973C89.6025 65.8247 89.5606 65.8551 89.5211 65.8884L89.2363 65.7261V66.4294C89.2627 66.5909 89.3284 66.7435 89.4277 66.8736C89.5271 67.0037 89.6569 67.1073 89.8058 67.1753L99.2444 72.6306C99.9505 73.0378 101.021 73.0834 101.633 72.7303L118.272 63.1237C118.386 63.0705 118.484 62.9878 118.556 62.8842C118.627 62.7807 118.67 62.6599 118.68 62.5343L118.685 61.8709Z" fill="#263238"/>
<path d="M118.272 62.4576L101.633 72.0613C101.02 72.4172 99.9499 72.3717 99.2437 71.9645L89.8165 66.5206C89.1104 66.1134 89.0336 65.4956 89.6457 65.1425L106.285 55.5474C106.897 55.1915 107.968 55.237 108.674 55.6442L118.101 61.0881C118.81 61.4867 118.887 62.096 118.272 62.4576Z" fill="#37474F"/>
<path d="M116.263 62.1215L103.208 69.6582C103.024 69.7421 102.822 69.7814 102.62 69.773C102.418 69.7646 102.22 69.7087 102.044 69.6098L93.8862 64.9061C93.5417 64.7097 93.5047 64.4079 93.8037 64.237L106.87 56.6862C107.054 56.6029 107.255 56.5639 107.458 56.5723C107.66 56.5808 107.857 56.6363 108.034 56.7346L116.18 61.4382C116.525 61.6489 116.562 61.9478 116.263 62.1215Z" fill="#455A64"/>
<path d="M96.286 68.8952C96.8851 68.8952 97.3708 68.6147 97.3708 68.2688C97.3708 67.9228 96.8851 67.6424 96.286 67.6424C95.6869 67.6424 95.2012 67.9228 95.2012 68.2688C95.2012 68.6147 95.6869 68.8952 96.286 68.8952Z" fill="#263238"/>
<path d="M98.7713 69.0403L97.6324 69.6952C97.561 69.727 97.4831 69.7417 97.4051 69.7382C97.327 69.7348 97.2508 69.7132 97.1825 69.6752C97.0515 69.5984 97.0373 69.4816 97.1512 69.4161L98.2901 68.7613C98.3615 68.7295 98.4393 68.7147 98.5173 68.7182C98.5954 68.7217 98.6716 68.7432 98.7399 68.7812C98.8709 68.8581 98.888 68.9748 98.7713 69.0403Z" fill="#263238"/>
<path d="M99.8474 69.661L98.7085 70.3159C98.6371 70.3477 98.5593 70.3624 98.4813 70.359C98.4032 70.3555 98.327 70.3339 98.2587 70.296C98.1277 70.2191 98.1135 70.1052 98.2273 70.0369L99.3662 69.3849C99.4372 69.352 99.515 69.3364 99.5932 69.3393C99.6714 69.3423 99.7478 69.3638 99.8161 69.4019C99.9471 69.4788 99.9613 69.5956 99.8474 69.661Z" fill="#263238"/>
<path d="M94.355 66.4921L93.2161 67.1441C93.1456 67.1772 93.0683 67.1929 92.9905 67.1899C92.9127 67.187 92.8368 67.1654 92.7691 67.127C92.6352 67.0502 92.621 66.9334 92.7349 66.8679L93.8738 66.2131C93.9452 66.1813 94.023 66.1665 94.1011 66.17C94.1791 66.1734 94.2553 66.195 94.3236 66.233C94.4546 66.3099 94.4717 66.4238 94.355 66.4921Z" fill="#263238"/>
<path d="M95.4314 67.1128L94.2925 67.7676C94.2211 67.7994 94.1433 67.8142 94.0652 67.8107C93.9872 67.8072 93.911 67.7857 93.8427 67.7477C93.7117 67.6708 93.6974 67.5541 93.8113 67.4886L94.9502 66.8337C95.0216 66.8019 95.0994 66.7872 95.1775 66.7907C95.2556 66.7941 95.3318 66.8157 95.4001 66.8537C95.5339 66.9362 95.5481 67.0473 95.4314 67.1128Z" fill="#263238"/>
<path d="M105.524 50.485L103.593 50.3198L101.66 50.4793L102.147 53.2382V53.2667C102.178 53.3724 102.231 53.4704 102.302 53.5547C102.373 53.639 102.461 53.7076 102.56 53.7564C102.878 53.9171 103.23 54.0008 103.586 54.0008C103.943 54.0008 104.294 53.9171 104.613 53.7564C104.718 53.7064 104.81 53.6333 104.883 53.5426C104.956 53.4519 105.008 53.3459 105.034 53.2325L105.524 50.485Z" fill="#37474F"/>
<path d="M104.963 49.6108C105.721 50.0492 105.721 50.7497 104.963 51.1938C104.539 51.4101 104.07 51.5228 103.594 51.5228C103.118 51.5228 102.648 51.4101 102.224 51.1938C101.467 50.7582 101.467 50.0549 102.224 49.6108C102.649 49.3959 103.118 49.2839 103.594 49.2839C104.07 49.2839 104.539 49.3959 104.963 49.6108Z" fill="#455A64"/>
<path d="M103.595 44.3378C103.524 44.3374 103.454 44.3511 103.388 44.378C103.323 44.4049 103.263 44.4445 103.213 44.4945C103.163 44.5446 103.124 44.6041 103.097 44.6695C103.07 44.735 103.056 44.8051 103.057 44.8759V50.2059C103.061 50.2531 103.077 50.2984 103.105 50.3369C103.133 50.3755 103.17 50.406 103.213 50.4252C103.331 50.4856 103.461 50.5171 103.593 50.5171C103.726 50.5171 103.856 50.4856 103.973 50.4252C104.017 50.4061 104.055 50.3758 104.083 50.3372C104.111 50.2987 104.128 50.2534 104.133 50.2059V44.8759C104.133 44.7332 104.076 44.5963 103.975 44.4954C103.874 44.3945 103.737 44.3378 103.595 44.3378Z" fill="#263238"/>
<path d="M89.2165 7.42926C89.105 7.4293 88.995 7.45461 88.8947 7.50329L66.0827 20.6205C65.8216 20.7749 65.6055 20.9948 65.4556 21.2585C65.3058 21.5222 65.2275 21.8205 65.2285 22.1238V40.1383C65.228 40.2159 65.2445 40.2927 65.2769 40.3632C65.3088 40.4367 65.3558 40.5027 65.4149 40.5569C65.474 40.611 65.5439 40.652 65.62 40.6773C65.696 40.7025 65.7765 40.7114 65.8563 40.7034C65.936 40.6954 66.0132 40.6707 66.0827 40.6308L88.8919 27.5165C89.1556 27.3639 89.3746 27.1447 89.527 26.8809C89.6794 26.6171 89.7599 26.3178 89.7603 26.0132V7.99871C89.7604 7.85202 89.704 7.71093 89.6027 7.60484C89.5014 7.49876 89.363 7.43586 89.2165 7.42926Z" fill="#E0E0E0"/>
<path d="M89.2051 7.71394C89.2771 7.71899 89.3445 7.75121 89.3936 7.80407C89.4428 7.85692 89.47 7.92648 89.4699 7.99866V26.0131C89.4699 26.2692 89.4025 26.5209 89.2746 26.7427C89.1467 26.9646 88.9626 27.149 88.741 27.2773L65.9289 40.3916C65.885 40.4177 65.8348 40.4315 65.7837 40.4315C65.7237 40.436 65.6638 40.4213 65.6127 40.3895C65.5615 40.3578 65.5217 40.3107 65.499 40.255C65.4844 40.2178 65.4766 40.1782 65.4762 40.1382V22.1238C65.4762 21.8677 65.5436 21.616 65.6715 21.3942C65.7994 21.1723 65.9835 20.9879 66.2051 20.8596L89.0456 7.74526C89.1001 7.72038 89.1594 7.70775 89.2193 7.70825M89.2193 7.42352C89.1079 7.42357 88.9978 7.44888 88.8976 7.49755L66.0827 20.6205C65.8216 20.7748 65.6055 20.9948 65.4556 21.2585C65.3058 21.5222 65.2275 21.8205 65.2285 22.1238V40.1382C65.228 40.2159 65.2445 40.2926 65.2769 40.3632C65.3208 40.4651 65.3934 40.552 65.486 40.6132C65.5786 40.6744 65.687 40.7073 65.798 40.7077C65.8978 40.7064 65.9957 40.6799 66.0827 40.6308L88.8919 27.5165C89.1556 27.3639 89.3746 27.1447 89.527 26.8808C89.6794 26.617 89.7599 26.3178 89.7603 26.0131V7.99866C89.7606 7.8543 89.7061 7.71518 89.6078 7.60947C89.5095 7.50375 89.3747 7.43932 89.2307 7.42922L89.2193 7.42352Z" fill="#E0E0E0"/>
<path d="M65.4648 40.608L66.2649 41.1689V39.8705L65.4648 40.608Z" fill="#E0E0E0"/>
<path d="M89.4731 7.51733L90.2845 8.08393L89.2852 8.79289L89.4731 7.51733Z" fill="#E0E0E0"/>
<path d="M89.9977 7.9816C89.887 7.98052 89.7777 8.0059 89.6788 8.05563L66.8639 21.17C66.6029 21.3237 66.3867 21.5431 66.2368 21.8064C66.087 22.0696 66.0087 22.3675 66.0098 22.6705V40.6878C66.01 40.765 66.0255 40.8415 66.0553 40.9127C66.0875 40.986 66.1347 41.0517 66.1939 41.1055C66.2531 41.1593 66.3231 41.2001 66.3991 41.225C66.4751 41.25 66.5556 41.2587 66.6352 41.2505C66.7148 41.2423 66.7918 41.2174 66.8611 41.1775L89.6731 28.0802C89.9344 27.9261 90.1507 27.7062 90.3006 27.4424C90.4504 27.1786 90.5286 26.8802 90.5273 26.5769V8.5482C90.5269 8.40432 90.4721 8.26592 90.3739 8.16081C90.2756 8.0557 90.1412 7.99167 89.9977 7.9816Z" fill="white"/>
<path d="M89.9863 8.25782C90.0583 8.26287 90.1257 8.29508 90.1749 8.34794C90.2241 8.4008 90.2513 8.47036 90.2511 8.54254V26.5627C90.2506 26.8187 90.183 27.0701 90.0551 27.2919C89.9272 27.5137 89.7435 27.6981 89.5222 27.8269L66.7102 40.9412C66.6662 40.9673 66.6161 40.9811 66.565 40.9811C66.505 40.9855 66.4451 40.9708 66.3939 40.9391C66.3428 40.9074 66.303 40.8603 66.2803 40.8045C66.2656 40.7673 66.2579 40.7278 66.2575 40.6878V22.6705C66.258 22.4149 66.3256 22.1638 66.4535 21.9425C66.5814 21.7212 66.7651 21.5373 66.9864 21.4092L89.8098 8.28344C89.865 8.25758 89.9254 8.24491 89.9863 8.24643M89.9863 7.9617C89.8757 7.96062 89.7663 7.98601 89.6674 8.03573L66.8639 21.17C66.6029 21.3237 66.3867 21.5431 66.2368 21.8064C66.087 22.0697 66.0087 22.3676 66.0098 22.6705V40.6878C66.01 40.765 66.0255 40.8415 66.0553 40.9127C66.0998 41.0146 66.1731 41.1012 66.2662 41.1619C66.3593 41.2226 66.4681 41.2548 66.5792 41.2544C66.6794 41.2553 66.7779 41.2288 66.8639 41.1775L89.676 28.0803C89.9372 27.9261 90.1536 27.7062 90.3034 27.4424C90.4533 27.1787 90.5315 26.8803 90.5301 26.5769V8.54823C90.5306 8.40432 90.4765 8.2656 90.3787 8.15995C90.281 8.05431 90.1469 7.98958 90.0034 7.97879L89.9863 7.9617Z" fill="#E0E0E0"/>
<path d="M77.429 27.6446C77.4307 27.3989 77.4478 27.1536 77.4802 26.9101C75.8886 27.4567 74.6529 26.6823 74.3995 24.9654C72.6143 26.4146 71.2676 29.0142 71.2676 31.2008C71.2676 33.695 73.0186 34.7058 75.1797 33.4587C76.4325 32.7355 77.5429 31.4115 78.2604 29.9424C77.7393 29.4868 77.429 28.7038 77.429 27.6446Z" fill="#BA68C8"/>
<path opacity="0.7" d="M77.429 27.6446C77.4307 27.3989 77.4478 27.1536 77.4802 26.9101C75.8886 27.4567 74.6529 26.6823 74.3995 24.9654C72.6143 26.4146 71.2676 29.0142 71.2676 31.2008C71.2676 33.695 73.0186 34.7058 75.1797 33.4587C76.4325 32.7355 77.5429 31.4115 78.2604 29.9424C77.7393 29.4868 77.429 28.7038 77.429 27.6446Z" fill="white"/>
<path d="M82.1178 20.5265C81.7872 22.6714 80.6932 24.6249 79.0371 26.0274C79.0718 26.2497 79.0899 26.4743 79.0912 26.6993C79.0589 27.8342 78.7749 28.9477 78.2598 29.9594C78.9744 30.6029 80.0877 30.6427 81.3376 29.9195C83.4987 28.6725 85.2497 25.6487 85.2497 23.1431C85.2497 20.9536 83.9201 19.9058 82.1178 20.5265Z" fill="#BA68C8"/>
<path opacity="0.3" d="M82.1178 20.5265C81.7872 22.6714 80.6932 24.6249 79.0371 26.0274C79.0718 26.2497 79.0899 26.4743 79.0912 26.6993C79.0589 27.8342 78.7749 28.9477 78.2598 29.9594C78.9744 30.6029 80.0877 30.6427 81.3376 29.9195C83.4987 28.6725 85.2497 25.6487 85.2497 23.1431C85.2497 20.9536 83.9201 19.9058 82.1178 20.5265Z" fill="black"/>
<path d="M79.0364 26.0216C78.7913 26.2204 78.5315 26.4003 78.2591 26.5597C78.0106 26.7037 77.7495 26.8248 77.479 26.9213C77.4465 27.1649 77.4294 27.4102 77.4277 27.6559C77.4277 28.7037 77.7381 29.4867 78.2591 29.9536C78.7703 28.941 79.0504 27.8275 79.0791 26.6936C79.0816 26.4688 79.0673 26.2442 79.0364 26.0216Z" fill="#BA68C8"/>
<path opacity="0.5" d="M79.0364 26.0216C78.7913 26.2204 78.5315 26.4003 78.2591 26.5597C78.0106 26.7037 77.7495 26.8248 77.479 26.9213C77.4465 27.1649 77.4294 27.4102 77.4277 27.6559C77.4277 28.7037 77.7381 29.4867 78.2591 29.9536C78.7703 28.941 79.0504 27.8275 79.0791 26.6936C79.0816 26.4688 79.0673 26.2442 79.0364 26.0216Z" fill="black"/>
<path d="M78.2598 24.3959C78.9744 22.9267 80.0877 21.6028 81.3376 20.8796C81.5858 20.7372 81.847 20.619 82.1178 20.5265C82.1501 20.283 82.1672 20.0376 82.169 19.7919C82.169 17.2978 80.418 16.287 78.2598 17.5341C76.1015 18.7812 74.3477 21.8049 74.3477 24.3076C74.3481 24.5335 74.3652 24.7591 74.3989 24.9824C74.6442 24.7817 74.9051 24.6008 75.179 24.4415C76.4318 23.7126 77.5422 23.7524 78.2598 24.3959Z" fill="#BA68C8"/>
<path d="M77.4791 26.9213C77.6002 26.0426 77.8637 25.1896 78.2593 24.3958C77.5418 23.7523 76.4314 23.7124 75.1786 24.4356C74.9046 24.595 74.6437 24.7759 74.3984 24.9766C74.6518 26.6935 75.8875 27.4679 77.4791 26.9213Z" fill="#BA68C8"/>
<path opacity="0.3" d="M77.4791 26.9213C77.6002 26.0426 77.8637 25.1896 78.2593 24.3958C77.5418 23.7523 76.4314 23.7124 75.1786 24.4356C74.9046 24.595 74.6437 24.7759 74.3984 24.9766C74.6518 26.6935 75.8875 27.4679 77.4791 26.9213Z" fill="white"/>
<path d="M78.2598 24.3958C78.7012 24.8301 78.9762 25.4054 79.0371 26.0216C80.692 24.6205 81.7859 22.6693 82.1178 20.5264C81.8468 20.6207 81.5856 20.7409 81.3376 20.8852C80.0877 21.6027 78.9744 22.9266 78.2598 24.3958Z" fill="#BA68C8"/>
<path opacity="0.7" d="M78.2598 24.3958C78.7012 24.8301 78.9762 25.4054 79.0371 26.0216C80.692 24.6205 81.7859 22.6693 82.1178 20.5264C81.8468 20.6207 81.5856 20.7409 81.3376 20.8852C80.0877 21.6027 78.9744 22.9266 78.2598 24.3958Z" fill="black"/>
<path d="M78.2606 24.3958C77.865 25.1897 77.6015 26.0427 77.4805 26.9213C77.751 26.8248 78.0121 26.7037 78.2606 26.5597C78.533 26.4003 78.7928 26.2204 79.0379 26.0216C78.9771 25.4054 78.702 24.8301 78.2606 24.3958Z" fill="#263238"/>
<path d="M103.165 21.9501C103.073 21.949 102.983 21.9695 102.9 22.0098L84.0515 32.8464C83.8328 32.9714 83.6511 33.1521 83.525 33.3702C83.399 33.5883 83.3331 33.8359 83.334 34.0878V48.976C83.3341 49.0404 83.3467 49.1042 83.371 49.1639C83.3978 49.2243 83.4369 49.2785 83.4859 49.3229C83.5349 49.3672 83.5927 49.4008 83.6554 49.4215C83.7182 49.4422 83.7847 49.4494 83.8504 49.4428C83.9162 49.4362 83.9798 49.4159 84.0373 49.3832L102.889 38.5466C103.107 38.4213 103.288 38.2404 103.414 38.0223C103.539 37.8042 103.605 37.5568 103.603 37.3052V22.4227C103.605 22.3026 103.561 22.1866 103.479 22.0986C103.397 22.0105 103.285 21.9574 103.165 21.9501Z" fill="#E0E0E0"/>
<path d="M103.157 22.1835C103.217 22.1892 103.272 22.2169 103.312 22.2611C103.352 22.3054 103.374 22.363 103.374 22.4227V37.3251C103.374 37.5362 103.318 37.7436 103.213 37.9265C103.107 38.1094 102.955 38.2614 102.773 38.3672L83.9213 49.1895C83.8854 49.2119 83.8439 49.2237 83.8017 49.2237C83.7545 49.2241 83.7082 49.2105 83.6686 49.1847C83.6291 49.1588 83.5981 49.1219 83.5796 49.0785C83.5659 49.048 83.5591 49.015 83.5597 48.9816V34.0935C83.5597 33.8823 83.6152 33.6749 83.7206 33.492C83.8261 33.3091 83.9777 33.1572 84.1604 33.0514L103.012 22.212C103.058 22.1916 103.107 22.1819 103.157 22.1835ZM103.157 21.9557C103.065 21.9547 102.975 21.9751 102.892 22.0155L84.0437 32.8521C83.825 32.977 83.6433 33.1577 83.5172 33.3758C83.3912 33.5939 83.3253 33.8416 83.3262 34.0935V48.9816C83.3263 49.0461 83.3389 49.1099 83.3632 49.1696C83.3896 49.2303 83.4286 49.2848 83.4775 49.3294C83.5264 49.374 83.5843 49.4078 83.6472 49.4285C83.7101 49.4492 83.7767 49.4564 83.8426 49.4495C83.9084 49.4427 83.9721 49.422 84.0294 49.3888L102.881 38.5522C103.099 38.4269 103.28 38.246 103.406 38.028C103.531 37.8099 103.597 37.5625 103.596 37.3108V22.4227C103.597 22.304 103.554 22.1891 103.474 22.1013C103.394 22.0135 103.284 21.9594 103.166 21.95L103.157 21.9557Z" fill="#E0E0E0"/>
<path d="M83.5391 49.369L84.1996 49.833V48.7596L83.5391 49.369Z" fill="#E0E0E0"/>
<path d="M103.376 22.027L104.048 22.4939L103.223 23.0776L103.376 22.027Z" fill="#E0E0E0"/>
<path d="M103.808 22.4084C103.716 22.4076 103.625 22.4291 103.543 22.471L84.6941 33.3076C84.4758 33.4323 84.2944 33.6126 84.1683 33.8302C84.0423 34.0477 83.9761 34.2948 83.9766 34.5462V49.4344C83.9763 49.4991 83.9899 49.5632 84.0164 49.6223C84.0432 49.6827 84.0823 49.7369 84.1313 49.7812C84.1803 49.8256 84.2381 49.8592 84.3009 49.8799C84.3637 49.9005 84.4301 49.9078 84.4958 49.9012C84.5616 49.8946 84.6253 49.8742 84.6827 49.8415L103.534 39.0049C103.752 38.8796 103.934 38.6987 104.059 38.4807C104.185 38.2626 104.25 38.0152 104.249 37.7635V22.8754C104.249 22.7558 104.203 22.6408 104.121 22.5539C104.039 22.467 103.927 22.415 103.808 22.4084Z" fill="white"/>
<path d="M103.8 22.6362C103.859 22.6412 103.915 22.6687 103.955 22.7131C103.995 22.7575 104.017 22.8155 104.016 22.8754V37.7635C104.016 37.975 103.96 38.1826 103.855 38.3659C103.749 38.5492 103.598 38.7018 103.415 38.8085L84.5638 49.645C84.5272 49.6653 84.4861 49.6761 84.4442 49.6764C84.3971 49.6764 84.351 49.6627 84.3115 49.6369C84.2721 49.6111 84.241 49.5744 84.2222 49.5312C84.2085 49.5007 84.2017 49.4677 84.2022 49.4343V34.5462C84.2025 34.3348 84.2585 34.1272 84.3644 33.9443C84.4704 33.7613 84.6226 33.6095 84.8058 33.5041L103.655 22.6675C103.7 22.6465 103.75 22.6358 103.8 22.6362ZM103.8 22.4084C103.708 22.4076 103.617 22.4291 103.535 22.471L84.6863 33.3076C84.4679 33.4323 84.2866 33.6126 84.1605 33.8302C84.0345 34.0477 83.9683 34.2948 83.9688 34.5462V49.4343C83.9684 49.4991 83.982 49.5632 84.0086 49.6223C84.0458 49.7063 84.1064 49.7778 84.1831 49.8283C84.2599 49.8788 84.3495 49.9061 84.4414 49.907C84.5234 49.9071 84.6039 49.8855 84.6749 49.8444L103.526 39.0078C103.745 38.8825 103.926 38.7016 104.051 38.4835C104.177 38.2654 104.242 38.018 104.241 37.7664V22.8754C104.241 22.7568 104.196 22.6425 104.116 22.5558C104.035 22.469 103.924 22.4164 103.805 22.4084H103.8Z" fill="#E0E0E0"/>
<path d="M101.889 37.2852L87.6699 45.4938L91.8724 34.5632L94.7795 38.0198L97.7548 33.7831L101.889 37.2852Z" fill="#BA68C8"/>
<path opacity="0.4" d="M101.889 37.2852L87.6699 45.4938L91.8724 34.5632L94.7795 38.0198L97.7548 33.7831L101.889 37.2852Z" fill="white"/>
<path d="M96.9571 30.4661C96.9326 30.916 96.8026 31.3538 96.5776 31.744C96.3525 32.1343 96.0387 32.4661 95.6616 32.7126C94.9441 33.1254 94.3633 32.7895 94.3633 31.9638C94.3874 31.5135 94.5176 31.0753 94.7432 30.6849C94.9688 30.2945 95.2835 29.963 95.6616 29.7173C96.3763 29.3045 96.9571 29.6376 96.9571 30.4661Z" fill="#BA68C8"/>
<path d="M131.152 73.6132L135.423 96.317C135.459 96.4946 135.562 96.6513 135.711 96.754C135.861 96.8567 136.044 96.8974 136.222 96.8674C136.401 96.8375 136.561 96.7392 136.669 96.5935C136.776 96.4477 136.823 96.2659 136.798 96.0864L133.666 75.051L131.152 73.6132Z" fill="#263238"/>
<path d="M139.356 88.3332L135.011 114.844C134.98 115.037 134.88 115.213 134.731 115.339C134.582 115.466 134.393 115.536 134.197 115.536C134.081 115.536 133.966 115.512 133.859 115.464C133.753 115.417 133.658 115.348 133.58 115.262C133.503 115.175 133.444 115.073 133.409 114.962C133.373 114.851 133.361 114.734 133.374 114.619L136.424 87.2684L139.356 88.3332Z" fill="#455A64"/>
<path d="M124.35 79.4158L120.005 105.926C119.974 106.12 119.875 106.296 119.726 106.424C119.577 106.551 119.387 106.621 119.191 106.621C119.075 106.621 118.96 106.596 118.853 106.549C118.747 106.501 118.652 106.432 118.574 106.345C118.497 106.258 118.438 106.156 118.403 106.045C118.367 105.934 118.356 105.817 118.368 105.701L121.418 78.368L124.35 79.4158Z" fill="#455A64"/>
<path d="M146.32 82.1349L150.591 104.978C150.628 105.155 150.731 105.31 150.88 105.411C151.028 105.513 151.21 105.554 151.388 105.524C151.566 105.495 151.725 105.398 151.833 105.254C151.941 105.109 151.988 104.929 151.966 104.751L148.8 83.5756L146.32 82.1349Z" fill="#263238"/>
<path d="M132.095 71.8849C133.077 71.4497 133.926 70.7628 134.556 69.8938C135.187 69.0248 135.577 68.0045 135.686 66.9364C136.378 59.9806 138.818 45.6476 147.129 50.4224C157.379 56.3105 153.706 73.4138 152.217 78.8948C151.884 80.1316 151.235 81.2608 150.335 82.1719C148.481 84.0369 144.64 87.2485 138.132 89.9819C137.331 90.3168 136.441 90.3701 135.606 90.1328C132.369 89.2103 123.91 86.3773 119.69 80.9818C119.451 80.6756 119.342 80.2873 119.387 79.9013C119.432 79.5153 119.628 79.1628 119.932 78.9204C121.643 77.5509 125.504 74.8232 132.095 71.8849Z" fill="#BA68C8"/>
<path opacity="0.3" d="M132.095 71.8849C133.077 71.4497 133.926 70.7628 134.556 69.8938C135.187 69.0248 135.577 68.0045 135.686 66.9364C136.378 59.9806 138.818 45.6476 147.129 50.4224C157.379 56.3105 153.706 73.4138 152.217 78.8948C151.884 80.1316 151.235 81.2608 150.335 82.1719C148.481 84.0369 144.64 87.2485 138.132 89.9819C137.331 90.3168 136.441 90.3701 135.606 90.1328C132.369 89.2103 123.91 86.3773 119.69 80.9818C119.451 80.6756 119.342 80.2873 119.387 79.9013C119.432 79.5153 119.628 79.1628 119.932 78.9204C121.643 77.5509 125.504 74.8232 132.095 71.8849Z" fill="black"/>
<path d="M119.385 79.9881C119.364 80.3417 119.473 80.6908 119.69 80.9704C119.915 81.2551 120.154 81.5398 120.402 81.8246C120.539 81.9726 120.687 82.1093 120.818 82.2659C120.96 82.4082 121.102 82.5506 121.248 82.6901H121.262C121.407 82.8296 121.546 82.9748 121.706 83.103C121.857 83.2396 122.013 83.3877 122.17 83.5044C124.562 85.5146 127.466 87.0435 130.06 88.1454L130.541 88.3447L130.589 88.3646C130.74 88.4273 130.874 88.4871 131.033 88.544L131.11 88.5753L131.523 88.7348L131.617 88.7718L132.002 88.917L132.113 88.9597L132.468 89.0878L132.597 89.1334L132.924 89.2501L133.061 89.2985L133.362 89.401L133.508 89.4523L133.792 89.5434L133.949 89.5946L134.197 89.6744L134.362 89.7256L134.575 89.794L134.755 89.8481L134.937 89.905L135.156 89.9705L135.267 90.0018L135.578 90.0929C136.412 90.3302 137.303 90.277 138.103 89.942C144.62 87.2087 148.453 83.997 150.306 82.132C151.211 81.2353 151.869 80.1203 152.217 78.8947C153.706 73.3996 157.379 56.2963 147.129 50.4224C146.947 50.3171 146.77 50.226 146.594 50.1377L146.477 50.0836C146.304 50.0001 146.133 49.926 145.964 49.8615L145.916 49.8444C145.754 49.7818 145.597 49.7305 145.44 49.685L145.369 49.665C145.198 49.6166 145.033 49.5796 144.871 49.5483H144.831C144.507 49.4897 144.178 49.4668 143.849 49.48H143.829C143.514 49.4931 143.202 49.5418 142.898 49.6252C144.535 48.902 146.534 48.9333 148.515 50.0722C158.765 55.9631 155.093 73.0665 153.603 78.5445L153.35 79.487C152.842 81.39 151.717 83.0711 150.153 84.2675L147.493 86.2976C144.618 88.4678 141.476 90.2583 138.143 91.6247C137.34 91.9619 136.447 92.0162 135.609 91.7785C132.374 90.8531 123.91 88.0059 119.69 82.6161C119.511 82.3848 119.405 82.1052 119.385 81.8132V79.9852V79.9881Z" fill="#BA68C8"/>
<path opacity="0.5" d="M119.385 79.9881C119.364 80.3417 119.473 80.6908 119.69 80.9704C119.915 81.2551 120.154 81.5398 120.402 81.8246C120.539 81.9726 120.687 82.1093 120.818 82.2659C120.96 82.4082 121.102 82.5506 121.248 82.6901H121.262C121.407 82.8296 121.546 82.9748 121.706 83.103C121.857 83.2396 122.013 83.3877 122.17 83.5044C124.562 85.5146 127.466 87.0435 130.06 88.1454L130.541 88.3447L130.589 88.3646C130.74 88.4273 130.874 88.4871 131.033 88.544L131.11 88.5753L131.523 88.7348L131.617 88.7718L132.002 88.917L132.113 88.9597L132.468 89.0878L132.597 89.1334L132.924 89.2501L133.061 89.2985L133.362 89.401L133.508 89.4523L133.792 89.5434L133.949 89.5946L134.197 89.6744L134.362 89.7256L134.575 89.794L134.755 89.8481L134.937 89.905L135.156 89.9705L135.267 90.0018L135.578 90.0929C136.412 90.3302 137.303 90.277 138.103 89.942C144.62 87.2087 148.453 83.997 150.306 82.132C151.211 81.2353 151.869 80.1203 152.217 78.8947C153.706 73.3996 157.379 56.2963 147.129 50.4224C146.947 50.3171 146.77 50.226 146.594 50.1377L146.477 50.0836C146.304 50.0001 146.133 49.926 145.964 49.8615L145.916 49.8444C145.754 49.7818 145.597 49.7305 145.44 49.685L145.369 49.665C145.198 49.6166 145.033 49.5796 144.871 49.5483H144.831C144.507 49.4897 144.178 49.4668 143.849 49.48H143.829C143.514 49.4931 143.202 49.5418 142.898 49.6252C144.535 48.902 146.534 48.9333 148.515 50.0722C158.765 55.9631 155.093 73.0665 153.603 78.5445L153.35 79.487C152.842 81.39 151.717 83.0711 150.153 84.2675L147.493 86.2976C144.618 88.4678 141.476 90.2583 138.143 91.6247C137.34 91.9619 136.447 92.0162 135.609 91.7785C132.374 90.8531 123.91 88.0059 119.69 82.6161C119.511 82.3848 119.405 82.1052 119.385 81.8132V79.9852V79.9881Z" fill="black"/>
<path d="M150.576 39.1161C150.576 39.1161 152.854 36.7615 155.453 38.2619C158.053 39.7624 156.82 44.5259 156.071 45.8783C155.323 47.2307 153.936 52.0938 157.999 51.1087C157.999 51.1087 156.609 53.1017 153.728 52.5579C150.847 52.0141 150.289 48.5462 151.057 45.6761C151.826 42.8061 150.588 41.5021 150.588 41.5021L150.576 39.1161Z" fill="#263238"/>
<path d="M138.679 50.6673C138.679 50.6673 135.664 50.3541 134.465 50.8922C133.266 51.4303 125.664 62.2128 125.664 62.2128C125.664 62.2128 128.511 63.1125 133.121 59.2944C137.731 55.4763 138.679 50.6673 138.679 50.6673Z" fill="#FFBE9D"/>
<path d="M148.718 61.7174L149.077 53.4605L145.27 51.5614L140.734 50.6787H138.679C138.679 50.6787 134.67 54.0954 133.431 57.3896C132.193 60.6839 134.994 63.1411 134.994 63.1411C134.994 65.9171 133.431 68.958 133.431 68.958C133.431 68.958 136.116 72.8814 142.024 72.4487C143.926 72.2676 145.777 71.7265 147.477 70.8542C147.225 69.4086 146.876 67.9817 146.432 66.5834L148.718 61.7174Z" fill="#BA68C8"/>
<path opacity="0.5" d="M148.718 61.7174L149.077 53.4605L145.27 51.5614L140.734 50.6787H138.679C138.679 50.6787 134.67 54.0954 133.431 57.3896C132.193 60.6839 134.994 63.1411 134.994 63.1411C134.994 65.9171 133.431 68.958 133.431 68.958C133.431 68.958 136.116 72.8814 142.024 72.4487C143.926 72.2676 145.777 71.7265 147.477 70.8542C147.225 69.4086 146.876 67.9817 146.432 66.5834L148.718 61.7174Z" fill="white"/>
<path d="M141.173 33.991C141.173 33.991 138.084 32.3453 136.766 35.5655C135.447 38.7858 137.395 42.4131 133.531 42.9456C133.531 42.9456 135.416 45.0895 137.853 42.0174C137.509 42.453 137.913 43.8766 138.067 44.3436C138.344 45.1902 138.834 45.9512 139.491 46.553C140.24 47.1919 141.112 47.6706 142.053 47.9596C142.733 48.2124 143.452 48.3435 144.177 48.3468C145.276 48.3212 146.66 47.82 147.614 47.2705C148.642 46.6659 149.481 45.7851 150.034 44.7279C151.014 42.7945 151.296 40.5814 150.831 38.464C150.576 37.2808 149.989 36.1945 149.14 35.3321C146.962 33.396 143.875 33.3077 141.173 33.991Z" fill="#263238"/>
<path d="M141.176 47.8598L140.734 50.6814C140.734 50.6814 137.318 53.4746 140.114 54.1779C142.91 54.8811 145.27 51.5612 145.27 51.5612L146.147 45.9664L141.176 47.8598Z" fill="#FFBE9D"/>
<path d="M146.243 45.0127L146.217 45.175C144.566 49.0273 141.796 49.4857 140.91 49.5683L141.85 43.3556L146.274 44.0133L146.243 45.0127Z" fill="#FFBE9D"/>
<path d="M143.427 35.4203C141.718 35.295 138.017 35.9897 137.277 40.4114C136.536 44.8332 136.679 48.3353 138.957 48.8364C141.234 49.3375 146.707 48.0648 147.848 42.339C148.99 36.6132 145.081 35.5427 143.427 35.4203Z" fill="#FFBE9D"/>
<path d="M140.099 42.6808L139.732 45.2945L138.266 44.6084L140.099 42.6808Z" fill="#FFBE9D"/>
<path d="M142.399 42.9684C142.384 43.0731 142.338 43.171 142.268 43.2497C142.197 43.3284 142.104 43.3844 142.002 43.4107C141.9 43.4369 141.792 43.4322 141.692 43.3971C141.592 43.362 141.505 43.2982 141.441 43.2136C141.378 43.129 141.341 43.0275 141.335 42.9219C141.329 42.8163 141.354 42.7113 141.408 42.6202C141.462 42.5291 141.541 42.4559 141.637 42.41C141.732 42.364 141.839 42.3473 141.944 42.362C142.013 42.3718 142.08 42.3952 142.141 42.431C142.202 42.4668 142.255 42.5143 142.297 42.5706C142.34 42.6269 142.37 42.6911 142.388 42.7594C142.405 42.8276 142.409 42.8987 142.399 42.9684Z" fill="#263238"/>
<path d="M138.952 42.1C138.937 42.2056 138.892 42.3044 138.821 42.384C138.75 42.4636 138.657 42.5203 138.554 42.547C138.451 42.5737 138.342 42.5692 138.241 42.534C138.141 42.4987 138.053 42.4345 137.989 42.3492C137.925 42.264 137.887 42.1617 137.882 42.0553C137.876 41.9489 137.902 41.8431 137.956 41.7515C138.011 41.6598 138.091 41.5863 138.187 41.5404C138.283 41.4945 138.391 41.4782 138.496 41.4935C138.637 41.514 138.764 41.5892 138.849 41.7028C138.935 41.8165 138.972 41.9592 138.952 42.1Z" fill="#263238"/>
<path d="M137.93 40.8244L139.069 40.3546C139.069 40.3546 138.73 39.882 138.295 40.0699C137.859 40.2578 137.93 40.8244 137.93 40.8244Z" fill="#BA68C8"/>
<path d="M140.066 45.9436C140.642 45.7588 141.206 45.5421 141.758 45.2944C141.758 45.2944 141.857 45.6475 141.108 45.9037C140.36 46.16 140.066 45.9436 140.066 45.9436Z" fill="#FFBE9D"/>
<path d="M137.93 40.8244L139.069 40.3546C139.069 40.3546 138.73 39.882 138.295 40.0699C137.859 40.2578 137.93 40.8244 137.93 40.8244Z" fill="#263238"/>
<path d="M145.056 43.1391C145.056 43.1391 144.658 44.9927 145.734 45.1607L147.844 45.4909L148.413 41.9262C149.037 37.9401 146.659 33.282 139.692 35.5712C139.681 35.5712 138.533 40.8585 145.056 43.1391Z" fill="#263238"/>
<path d="M145.756 44.9415C145.808 44.5353 145.951 44.1461 146.174 43.8026C146.291 43.5832 146.469 43.4029 146.688 43.284C146.906 43.1651 147.154 43.1127 147.401 43.1335C148.663 43.3071 148.629 44.5428 148.54 44.9699C148.307 46.0889 147.191 47.1566 145.482 46.9203L145.756 44.9415Z" fill="#FFBE9D"/>
<path d="M112.273 107.453C112.273 107.453 108.794 110.172 108.435 110.94C108.076 111.709 108.987 113.879 113.916 113.09C115.294 112.871 117.276 111.464 118.269 110.115C119.263 108.765 121.27 107.837 121.572 107.353C122.008 106.672 121.763 103.099 121.003 103.034C119.77 102.931 112.273 107.453 112.273 107.453Z" fill="#BA68C8"/>
<path d="M119.038 81.2123C119.038 81.2123 116.851 99.2154 116.489 101.866C116.321 103.108 112.885 106.815 111.697 108.065C111.649 108.116 111.612 108.178 111.589 108.245C111.566 108.313 111.558 108.384 111.565 108.455C111.572 108.526 111.595 108.594 111.631 108.656C111.667 108.717 111.716 108.77 111.774 108.811L111.877 108.882C112.573 109.362 113.407 109.602 114.253 109.564C115.098 109.526 115.907 109.212 116.558 108.671C117.526 107.871 118.531 106.906 119.038 106.012C119.473 105.172 120.033 104.404 120.7 103.734C120.867 103.581 120.969 103.37 120.985 103.145C121.048 102.265 121.25 100.052 121.754 98.8139C122.394 97.2423 125.657 90.91 125.657 85.1814L119.038 81.2123Z" fill="#FFBE9D"/>
<path d="M125.664 85.1899L125.641 85.1756L124.169 85.0105C124.738 88.9653 123.628 94.4291 123.625 94.4434C124.636 91.7983 125.664 88.3987 125.664 85.1899Z" fill="#FFBE9D"/>
<path d="M118.759 111.251C118.759 111.251 115.28 113.97 114.921 114.739C114.562 115.507 115.476 117.677 120.402 116.888C121.78 116.669 123.762 115.262 124.755 113.913C125.749 112.563 127.756 111.635 128.061 111.151C128.494 110.471 128.249 106.897 127.492 106.832C126.256 106.729 118.759 111.251 118.759 111.251Z" fill="#BA68C8"/>
<path d="M125.526 85.0105C125.526 85.0105 123.337 103.016 122.964 105.664C122.796 106.906 119.359 110.613 118.172 111.863C118.123 111.915 118.086 111.976 118.063 112.044C118.04 112.111 118.032 112.183 118.04 112.253C118.047 112.324 118.069 112.393 118.106 112.454C118.142 112.515 118.191 112.568 118.249 112.609L118.351 112.68C119.048 113.161 119.882 113.4 120.727 113.362C121.572 113.324 122.382 113.011 123.032 112.469C124 111.669 125.005 110.704 125.515 109.81C125.949 108.971 126.509 108.203 127.175 107.532C127.341 107.379 127.443 107.168 127.46 106.943C127.522 106.063 127.724 103.851 128.228 102.612C128.869 101.04 132.132 94.711 132.132 88.9795L125.526 85.0105Z" fill="#FFBE9D"/>
<path d="M133.431 68.9465C133.431 68.9465 122.979 74.6409 120.837 77.1778C118.696 79.7147 117.785 85.5572 117.785 85.5572C121.435 90.2666 132.591 90.7819 132.591 90.7819C133.53 87.7097 135.834 87.1688 139.424 85.432C143.014 83.6951 147.026 80.1845 147.681 76.3977C147.966 74.6666 147.792 72.6194 147.485 70.8427C145.785 71.7151 143.934 72.2562 142.032 72.4372C136.116 72.87 133.431 68.9465 133.431 68.9465Z" fill="#263238"/>
<path d="M139.174 63.6164C139.174 63.6164 143.761 64.8521 145.742 61.5693C145.742 61.5693 144.134 65.8487 139.174 63.6164Z" fill="#BA68C8"/>
<path opacity="0.2" d="M145.742 61.5693C145.742 61.5693 144.134 65.8401 139.174 63.6164C139.174 63.6164 143.761 64.8521 145.742 61.5693Z" fill="white"/>
<path d="M148.578 53.204C148.578 53.204 145.102 54.7245 148.402 62.3892C150.62 67.5427 150.99 68.9379 150.99 68.9379C150.99 68.9379 149.834 69.5073 143.223 74.433L145.216 77.7387C145.216 77.7387 156.961 73.5504 156.701 70.2931C156.442 67.0359 153.023 58.6508 152.488 57.4521C151.952 56.2534 151.685 54.5679 148.578 53.204Z" fill="#FFBE9D"/>
<path d="M125.662 62.2129C126.801 62.7026 129.216 60.5871 131.226 57.8054C132.409 56.1748 133.485 54.4695 134.449 52.7003C135.271 52.7637 136.095 52.6082 136.838 52.2496C137.581 51.891 138.215 51.3421 138.677 50.6588C138.939 50.2773 136.84 47.7148 136.84 47.7148L137.948 47.2193C137.948 47.2193 139.71 46.7382 139.602 45.9552C139.557 45.6192 136.647 46.2257 135.551 46.4677C135.283 46.5244 135.041 46.6674 134.862 46.8748L131.613 50.5762C131.613 50.5762 128.282 53.4235 126.488 55.1062C123.735 57.6943 123.293 61.1936 125.662 62.2129Z" fill="#FFBE9D"/>
<path d="M136.841 47.8286C136.821 47.8286 136.801 47.8226 136.784 47.8114C136.768 47.8003 136.755 47.7845 136.747 47.766C136.736 47.741 136.735 47.7128 136.745 47.6874C136.755 47.6619 136.774 47.6411 136.798 47.6293L137.906 47.1339C138.381 47.003 139.551 46.5645 139.503 45.995C139.435 45.9609 139.056 45.884 137.006 46.2798C136.979 46.285 136.951 46.2795 136.929 46.2642C136.906 46.249 136.89 46.2254 136.885 46.1986C136.88 46.1718 136.885 46.144 136.9 46.1213C136.916 46.0986 136.939 46.0829 136.966 46.0776C139.335 45.6192 139.551 45.7758 139.631 45.8327C139.651 45.8457 139.668 45.8628 139.681 45.883C139.694 45.9031 139.702 45.9258 139.705 45.9495C139.822 46.8036 138.051 47.3076 137.974 47.3275L136.878 47.8173C136.867 47.824 136.854 47.828 136.841 47.8286Z" fill="#FFBE9D"/>
<path d="M129.969 59.5021C129.944 59.5018 129.92 59.4927 129.901 59.4765C129.891 59.4672 129.883 59.456 129.877 59.4435C129.872 59.431 129.869 59.4175 129.869 59.4039C129.869 59.3903 129.872 59.3768 129.877 59.3644C129.883 59.3519 129.891 59.3406 129.901 59.3313C130.328 58.8387 130.755 58.3035 131.153 57.7454C132.331 56.1211 133.405 54.4235 134.368 52.6631L134.402 52.5976H134.473C135.275 52.6579 136.079 52.5077 136.805 52.162C136.83 52.1499 136.858 52.1481 136.884 52.1569C136.897 52.1612 136.909 52.1681 136.919 52.177C136.929 52.1859 136.937 52.1968 136.943 52.209C136.949 52.2211 136.953 52.2343 136.954 52.2478C136.954 52.2613 136.953 52.2749 136.948 52.2877C136.944 52.3005 136.937 52.3124 136.928 52.3226C136.919 52.3327 136.908 52.3411 136.896 52.347C136.156 52.7007 135.338 52.8604 134.519 52.8111C133.558 54.5575 132.491 56.2425 131.321 57.8564C130.911 58.4259 130.487 58.9612 130.054 59.4594C130.045 59.473 130.032 59.4839 130.017 59.4913C130.002 59.4988 129.986 59.5025 129.969 59.5021Z" fill="#FFBE9D"/>
<path d="M143.566 74.4702C143.566 74.4702 141.915 74.1656 140.619 74.4418C140.024 74.5599 139.414 74.5743 138.814 74.4845C138.259 74.4105 137.439 74.2738 137.8 75.1308C138.114 75.8768 139.179 76.0533 139.876 76.1216C139.876 76.1216 139.628 77.0043 137.726 76.9502C135.825 76.8961 135.303 76.9758 135.449 77.5823C135.594 78.1887 137.442 80.3726 139.364 80.4039C140.804 80.4267 143.381 79.4273 145.215 77.7474L143.566 74.4702Z" fill="#FFBE9D"/>
<path d="M144.093 14.9031C144.283 13.3374 143.843 11.7604 142.87 10.519C141.897 9.2776 140.471 8.4734 138.905 8.28327C138.817 8.28327 138.729 8.26903 138.638 8.26334C138.663 8.15528 138.682 8.04598 138.695 7.93591C138.825 6.85841 138.522 5.7733 137.853 4.91906C137.183 4.06483 136.202 3.51137 135.124 3.38033C134.899 3.35529 134.673 3.34862 134.447 3.3604C133.863 2.40724 133.042 1.62145 132.064 1.07947C131.086 0.537493 129.985 0.257774 128.867 0.267519C127.749 0.277264 126.653 0.576143 125.685 1.13508C124.717 1.69403 123.91 2.494 123.343 3.45721C122.282 3.3259 121.206 3.48308 120.227 3.91219C119.249 4.34129 118.404 5.02642 117.782 5.89537C117.161 6.76432 116.785 7.78491 116.695 8.84958C116.604 9.91425 116.803 10.9836 117.269 11.9448C116.246 12.2287 115.373 12.8992 114.835 13.8148C114.296 14.7303 114.135 15.8192 114.384 16.8516C114.633 17.884 115.274 18.7791 116.171 19.3479C117.068 19.9166 118.151 20.1146 119.191 19.9C119.298 20.8656 119.652 21.7874 120.217 22.5774C120.783 23.3673 121.542 23.9988 122.421 24.4114C123.301 24.824 124.271 25.0039 125.24 24.9339C126.209 24.8638 127.144 24.5462 127.955 24.0114C128.719 24.9708 129.75 25.683 130.917 26.0582C132.085 26.4335 133.337 26.4551 134.517 26.1203C135.697 25.7856 136.751 25.1094 137.548 24.1769C138.345 23.2444 138.848 22.0971 138.994 20.8794C139.025 20.611 139.039 20.341 139.036 20.0708C140.33 19.8841 141.526 19.277 142.44 18.343C143.354 17.409 143.935 16.2002 144.093 14.9031Z" fill="white"/>
<path d="M132.824 26.6309C132.557 26.6317 132.29 26.6155 132.024 26.5825C130.419 26.3911 128.944 25.6047 127.89 24.3787C127.055 24.8789 126.111 25.1672 125.139 25.2184C124.167 25.2696 123.198 25.0821 122.315 24.6724C121.433 24.2626 120.664 23.6431 120.075 22.8678C119.487 22.0925 119.098 21.185 118.941 20.2246C118.563 20.2762 118.18 20.2762 117.802 20.2246C116.821 20.105 115.909 19.6571 115.215 18.9536C114.521 18.2501 114.085 17.3325 113.979 16.3499C113.872 15.3674 114.101 14.3776 114.628 13.5417C115.156 12.7057 115.95 12.0727 116.883 11.7456C116.472 10.7541 116.324 9.67339 116.454 8.60813C116.584 7.54286 116.987 6.52919 117.623 5.66535C118.26 4.80151 119.109 4.11679 120.088 3.67755C121.068 3.23832 122.143 3.05946 123.212 3.15831C123.817 2.19849 124.653 1.40618 125.644 0.854294C126.635 0.302411 127.749 0.00869747 128.883 0.000190221C130.017 -0.00831703 131.136 0.268655 132.135 0.805611C133.134 1.34257 133.982 2.12225 134.601 3.07289C135.224 3.06465 135.842 3.19027 136.413 3.44127C136.983 3.69227 137.493 4.06281 137.908 4.52785C138.324 4.99289 138.634 5.5416 138.819 6.13692C139.004 6.73224 139.059 7.3603 138.98 7.97867C138.98 7.97867 138.98 8.00145 138.98 8.01284C140.615 8.22059 142.101 9.06642 143.114 10.3658C144.128 11.6652 144.586 13.3126 144.39 14.9487C144.227 16.2662 143.649 17.4976 142.738 18.4638C141.828 19.43 140.633 20.0807 139.327 20.3214C139.324 20.5223 139.309 20.7228 139.285 20.9222C139.092 22.4976 138.331 23.9485 137.144 25.0019C135.957 26.0553 134.426 26.6387 132.839 26.6423L132.824 26.6309ZM127.947 23.7182C127.99 23.7179 128.033 23.7276 128.072 23.7463C128.111 23.7651 128.145 23.7924 128.172 23.8264C128.901 24.741 129.884 25.4198 130.998 25.7775C132.112 26.1353 133.306 26.1561 134.432 25.8373C135.557 25.5186 136.563 24.8744 137.324 23.9858C138.084 23.0971 138.565 22.0036 138.707 20.8425C138.736 20.5864 138.749 20.3287 138.747 20.0709C138.746 20.0018 138.77 19.9348 138.815 19.8824C138.86 19.83 138.923 19.7958 138.991 19.7862C140.347 19.5883 141.585 18.9056 142.475 17.8645C143.366 16.8234 143.849 15.4947 143.834 14.1248C143.819 12.755 143.309 11.4368 142.396 10.415C141.484 9.39316 140.231 8.73694 138.872 8.56805H138.724H138.618C138.578 8.56471 138.539 8.55283 138.504 8.53319C138.468 8.51356 138.438 8.48661 138.413 8.45416C138.389 8.42197 138.372 8.38503 138.363 8.34577C138.355 8.30651 138.354 8.26582 138.362 8.22638C138.382 8.12673 138.402 8.02423 138.413 7.92173C138.535 6.91863 138.253 5.90837 137.63 5.11291C137.007 4.31744 136.094 3.80183 135.091 3.67935C134.881 3.65361 134.67 3.64694 134.459 3.65942C134.408 3.66121 134.358 3.6495 134.313 3.62548C134.269 3.60146 134.232 3.566 134.205 3.52275C133.646 2.61327 132.861 1.86375 131.927 1.34692C130.993 0.830078 129.941 0.563455 128.873 0.572909C127.805 0.582362 126.758 0.867571 125.833 1.40087C124.908 1.93417 124.137 2.69746 123.594 3.61671C123.565 3.66505 123.523 3.70382 123.472 3.72814C123.421 3.75246 123.365 3.76124 123.309 3.75338C122.302 3.63065 121.28 3.78086 120.351 4.1883C119.422 4.59574 118.619 5.24544 118.027 6.06939C117.435 6.89334 117.076 7.86127 116.986 8.87187C116.896 9.88246 117.08 10.8986 117.518 11.8139C117.535 11.8518 117.545 11.8931 117.545 11.9349C117.545 11.9767 117.535 12.018 117.518 12.0559C117.5 12.094 117.475 12.1278 117.443 12.1549C117.411 12.182 117.373 12.2016 117.333 12.2125C116.479 12.4426 115.732 12.9623 115.22 13.6826C114.707 14.4028 114.462 15.2789 114.524 16.1606C114.587 17.0423 114.954 17.8748 115.563 18.5154C116.172 19.1561 116.985 19.5651 117.862 19.6723C118.284 19.7238 118.712 19.7027 119.126 19.6096C119.165 19.6016 119.205 19.6018 119.244 19.6101C119.283 19.6184 119.319 19.6348 119.351 19.658C119.384 19.6812 119.411 19.711 119.431 19.7453C119.451 19.7796 119.464 19.8178 119.468 19.8573C119.57 20.7744 119.906 21.6498 120.443 22.4C120.981 23.1502 121.701 23.7499 122.537 24.1419C123.372 24.5338 124.294 24.7049 125.214 24.6387C126.135 24.5725 127.023 24.2712 127.793 23.7637C127.839 23.7341 127.892 23.7183 127.947 23.7182Z" fill="#E0E0E0"/>
<path d="M127.664 18.6295L130.511 18.6052L130.525 20.1853C130.527 20.5229 130.396 20.8477 130.159 21.0884C129.923 21.3291 129.6 21.466 129.263 21.4689L128.955 21.4715C128.618 21.4744 128.293 21.3431 128.052 21.1065C127.811 20.8698 127.675 20.5473 127.672 20.2097L127.658 18.6296L127.664 18.6295Z" fill="#263238"/>
<path d="M129.109 20.2914C130.338 20.2809 131.33 19.7281 131.325 19.0567C131.319 18.3852 130.317 17.8495 129.088 17.86C127.858 17.8705 126.866 18.4233 126.872 19.0948C126.877 19.7662 127.879 20.3019 129.109 20.2914Z" fill="#37474F"/>
<path d="M129.101 19.5826C130.33 19.5721 131.323 19.0192 131.317 18.3478C131.311 17.6764 130.31 17.1406 129.08 17.1511C127.85 17.1616 126.858 17.7145 126.864 18.3859C126.87 19.0573 127.871 19.5931 129.101 19.5826Z" fill="#455A64"/>
<path d="M133.778 12.1157C133.771 11.2947 133.551 10.4894 133.14 9.77882C132.728 9.06825 132.139 8.47674 131.431 8.06222C130.722 7.64771 129.918 7.42441 129.097 7.41419C128.275 7.40397 127.466 7.60718 126.747 8.00392C126.028 8.40066 125.425 8.97733 124.995 9.67744C124.566 10.3775 124.327 11.1771 124.299 11.9978C124.272 12.8184 124.459 13.6321 124.841 14.359C125.222 15.0859 125.787 15.7012 126.478 16.1446C126.734 16.3033 126.946 16.5235 127.095 16.785C127.244 17.0466 127.325 17.3412 127.332 17.6422C127.331 17.7966 127.361 17.9496 127.42 18.0925C127.478 18.2353 127.565 18.3651 127.674 18.4744C127.783 18.5837 127.912 18.6703 128.055 18.7293C128.198 18.7883 128.351 18.8185 128.505 18.8181H129.094H129.684C129.837 18.817 129.989 18.7856 130.131 18.7258C130.272 18.6659 130.401 18.5788 130.509 18.4694C130.617 18.3599 130.702 18.2303 130.76 18.0879C130.817 17.9454 130.846 17.7931 130.845 17.6394V17.5881C130.848 17.304 130.922 17.0249 131.059 16.7764C131.197 16.5278 131.395 16.3175 131.634 16.1645C132.305 15.726 132.853 15.1246 133.228 14.4165C133.603 13.7084 133.792 12.9168 133.778 12.1157Z" fill="#BA68C8"/>
<path d="M129.333 18.818C129.333 18.801 129.299 18.3767 129.299 14.6184C129.299 14.3621 129.299 14.1173 129.313 13.8866C129.197 13.8866 129.071 13.9037 128.941 13.9037C128.81 13.9037 128.744 13.9037 128.656 13.9037C128.716 14.3053 128.747 14.7106 128.75 15.1166L128.781 18.818H128.576L128.545 15.1166C128.545 14.7037 128.511 14.2914 128.445 13.8838C127.335 13.7585 126.816 13.1805 126.814 12.6338C126.805 12.5534 126.814 12.472 126.838 12.395C126.863 12.318 126.904 12.2468 126.957 12.1861C127.01 12.1254 127.076 12.0765 127.149 12.0423C127.223 12.0081 127.302 11.9895 127.383 11.9875C127.97 11.9875 128.414 12.6253 128.619 13.6959C128.721 13.6959 128.829 13.6959 128.941 13.6959C129.052 13.6959 129.205 13.6959 129.328 13.6759C129.41 12.2523 129.709 11.3981 130.213 11.1988C130.354 11.1507 130.506 11.1455 130.65 11.1841C130.794 11.2226 130.924 11.3031 131.022 11.4152C131.162 11.603 131.249 11.8256 131.272 12.059C131.295 12.2923 131.254 12.5275 131.153 12.7392C130.999 13.1065 130.583 13.6902 129.518 13.8553C129.518 14.0859 129.504 14.3393 129.504 14.6127C129.504 18.334 129.538 18.7782 129.538 18.7953L129.333 18.818ZM127.38 12.1868C127.327 12.1898 127.274 12.2039 127.226 12.2283C127.179 12.2526 127.136 12.2865 127.102 12.328C127.068 12.3695 127.043 12.4176 127.029 12.4693C127.015 12.5209 127.011 12.575 127.019 12.6281C127.019 13.0752 127.463 13.5507 128.408 13.6731C128.212 12.742 127.841 12.1726 127.38 12.1726V12.1868ZM130.447 11.3611C130.392 11.3609 130.338 11.3705 130.287 11.3896C130.034 11.4949 129.635 11.9363 129.527 13.6674C130.472 13.5108 130.828 13.004 130.951 12.6822C131.036 12.5071 131.073 12.3125 131.058 12.1183C131.043 11.9241 130.976 11.7375 130.865 11.5775C130.761 11.4493 130.611 11.3666 130.447 11.3469V11.3611Z" fill="#263238"/>
<path opacity="0.4" d="M131.913 9.88637C131.74 10.1939 131.202 10.2195 130.715 9.94047C130.228 9.66144 129.969 9.19165 130.145 8.88414C130.322 8.57664 130.857 8.55387 131.344 8.83289C131.831 9.11192 132.087 9.58172 131.913 9.88637Z" fill="white"/>
<path opacity="0.4" d="M132.967 11.1306C133.041 11.4609 132.913 11.7684 132.682 11.8196C132.452 11.8709 132.204 11.6431 132.133 11.3157C132.062 10.9882 132.19 10.6779 132.418 10.6266C132.645 10.5754 132.893 10.806 132.967 11.1306Z" fill="white"/>
<path d="M128.829 6.54939C128.777 6.54944 128.727 6.52931 128.689 6.49323C128.651 6.45715 128.629 6.4079 128.627 6.35578L128.547 4.13778C128.546 4.11123 128.55 4.08471 128.559 4.05975C128.568 4.03478 128.582 4.01186 128.6 3.99229C128.618 3.97272 128.64 3.95688 128.664 3.9457C128.688 3.93451 128.714 3.92819 128.741 3.92709C128.794 3.92627 128.846 3.94627 128.886 3.98289C128.925 4.01952 128.948 4.06992 128.951 4.12355L129.031 6.34154C129.032 6.36795 129.028 6.39432 129.019 6.41913C129.01 6.44393 128.996 6.46666 128.978 6.48601C128.96 6.50535 128.938 6.52092 128.914 6.5318C128.89 6.54268 128.864 6.54866 128.837 6.54939H128.829Z" fill="#BA68C8"/>
<path d="M124.098 8.89839C124.064 8.89898 124.031 8.89115 124.001 8.87561L122.045 7.83352C121.998 7.80823 121.962 7.76507 121.946 7.71354C121.931 7.66201 121.936 7.60634 121.961 7.55877C121.987 7.51119 122.03 7.47562 122.081 7.45986C122.133 7.44411 122.188 7.44947 122.236 7.47477L124.192 8.51971C124.233 8.53959 124.266 8.57306 124.286 8.61449C124.305 8.65593 124.31 8.70279 124.299 8.74721C124.288 8.79164 124.262 8.83092 124.225 8.85845C124.189 8.88598 124.144 8.90008 124.098 8.89839Z" fill="#BA68C8"/>
<path d="M133.374 8.56814C133.34 8.56899 133.306 8.56074 133.276 8.54424C133.246 8.52773 133.221 8.50356 133.203 8.47419C133.188 8.45137 133.178 8.42576 133.173 8.39888C133.168 8.37201 133.169 8.34444 133.175 8.31783C133.181 8.29123 133.193 8.26614 133.209 8.24407C133.225 8.22201 133.245 8.20343 133.269 8.18946L135.154 7.01925C135.176 7.00425 135.202 6.99403 135.229 6.98921C135.256 6.98438 135.283 6.98505 135.31 6.99117C135.336 6.99729 135.362 7.00873 135.384 7.02481C135.406 7.04089 135.424 7.06128 135.438 7.08474C135.453 7.10767 135.463 7.13328 135.467 7.16007C135.472 7.18687 135.471 7.21431 135.465 7.24081C135.459 7.26731 135.448 7.29233 135.432 7.31441C135.416 7.3365 135.396 7.35521 135.373 7.36946L133.488 8.53967C133.453 8.55962 133.414 8.56948 133.374 8.56814Z" fill="#BA68C8"/>
<path d="M140.946 24.4386C140.872 25.0364 140.623 25.599 140.23 26.0552C139.836 26.5113 139.316 26.8405 138.736 27.0011C138.155 27.1617 137.54 27.1464 136.969 26.9572C136.397 26.768 135.894 26.4134 135.524 25.9383C135.153 25.4632 134.933 24.8889 134.889 24.2882C134.845 23.6874 134.981 23.0873 135.278 22.5636C135.576 22.04 136.022 21.6164 136.561 21.3465C137.099 21.0766 137.706 20.9726 138.303 21.0475C139.103 21.1478 139.83 21.5611 140.325 22.1968C140.821 22.8325 141.044 23.6387 140.946 24.4386Z" fill="white"/>
<path d="M137.928 27.3997C137.456 27.4004 136.989 27.3007 136.558 27.107C136.127 26.9133 135.742 26.6301 135.429 26.2763C135.115 25.9224 134.881 25.506 134.741 25.0547C134.601 24.6033 134.559 24.1274 134.617 23.6584C134.745 22.7996 135.203 22.0246 135.894 21.4986C136.584 20.9725 137.453 20.7369 138.315 20.8419C139.177 20.947 139.964 21.3844 140.508 22.0609C141.052 22.7375 141.311 23.5998 141.228 24.4642C141.13 25.2705 140.74 26.013 140.132 26.5521C139.525 27.0911 138.741 27.3895 137.928 27.3911V27.3997ZM137.928 21.3094C137.255 21.3101 136.605 21.5571 136.101 22.004C135.597 22.4508 135.274 23.0666 135.192 23.7353C135.148 24.095 135.176 24.4598 135.273 24.8089C135.37 25.1581 135.535 25.4847 135.758 25.7701C135.981 26.0555 136.259 26.2941 136.574 26.4724C136.89 26.6506 137.237 26.7649 137.597 26.8089C137.956 26.8528 138.321 26.8255 138.67 26.7284C139.02 26.6313 139.346 26.4665 139.632 26.2432C139.917 26.0199 140.156 25.7426 140.334 25.4271C140.512 25.1116 140.626 24.7641 140.67 24.4044C140.758 23.6781 140.554 22.9467 140.103 22.3707C139.652 21.7947 138.991 21.4212 138.264 21.3322C138.15 21.3173 138.035 21.3097 137.92 21.3094H137.928Z" fill="#E0E0E0"/>
<path d="M142.405 30.9587C143.068 30.9587 143.606 30.4207 143.606 29.7571C143.606 29.0935 143.068 28.5556 142.405 28.5556C141.741 28.5556 141.203 29.0935 141.203 29.7571C141.203 30.4207 141.741 30.9587 142.405 30.9587Z" fill="white"/>
<path d="M142.404 31.2433C142.11 31.2433 141.823 31.1562 141.579 30.9928C141.334 30.8295 141.144 30.5974 141.031 30.3258C140.919 30.0543 140.889 29.7554 140.947 29.4671C141.004 29.1788 141.145 28.914 141.353 28.7061C141.561 28.4983 141.826 28.3567 142.114 28.2994C142.403 28.242 142.701 28.2715 142.973 28.3839C143.245 28.4964 143.477 28.6869 143.64 28.9313C143.803 29.1758 143.89 29.4631 143.89 29.7571C143.89 29.9522 143.852 30.1455 143.777 30.3258C143.703 30.5062 143.593 30.67 143.455 30.808C143.317 30.946 143.153 31.0555 142.973 31.1302C142.793 31.2049 142.599 31.2433 142.404 31.2433ZM142.404 28.8431C142.223 28.8431 142.045 28.897 141.895 28.9978C141.744 29.0987 141.626 29.242 141.557 29.4097C141.488 29.5774 141.47 29.7619 141.505 29.9398C141.541 30.1177 141.628 30.2811 141.757 30.4092C141.885 30.5373 142.049 30.6244 142.227 30.6595C142.405 30.6945 142.59 30.6759 142.757 30.6061C142.925 30.5363 143.068 30.4183 143.168 30.2672C143.268 30.1161 143.322 29.9385 143.321 29.7571C143.321 29.6368 143.297 29.5177 143.251 29.4067C143.205 29.2956 143.138 29.1947 143.052 29.1098C142.967 29.0249 142.866 28.9576 142.755 28.9119C142.644 28.8661 142.524 28.8427 142.404 28.8431Z" fill="#E0E0E0"/>
</svg>
