<svg width="174" height="136" viewBox="0 0 174 136" fill="none" xmlns="http://www.w3.org/2000/svg">
<path opacity="0.5" d="M92.5 156C143.586 156 185 139.658 185 119.5C185 99.3416 143.586 83 92.5 83C41.4137 83 0 99.3416 0 119.5C0 139.658 41.4137 156 92.5 156Z" fill="white"/>
<path d="M173 103.48H13V103.56H173V103.48Z" fill="#DAFFFD"/>
<path d="M156.968 108.629H146.369V108.709H156.968V108.629Z" fill="#DAFFFD"/>
<path d="M118.99 109.499H116.209V109.579H118.99V109.499Z" fill="#DAFFFD"/>
<path d="M146.049 105.659H139.908V105.739H146.049V105.659Z" fill="#DAFFFD"/>
<path d="M43.6079 106.197H29.7871V106.277H43.6079V106.197Z" fill="#DAFFFD"/>
<path d="M48.4846 106.197H46.459V106.277H48.4846V106.197Z" fill="#DAFFFD"/>
<path d="M85.0479 107.547H55.0703V107.627H85.0479V107.547Z" fill="#DAFFFD"/>
<path d="M90.2578 14.2254L91.4162 13.6174L92.5746 14.2254L92.3538 12.9358L93.2914 12.0206L91.9954 11.8318L91.4162 10.6606L90.837 11.8318L89.541 12.0206L90.4786 12.9358L90.2578 14.2254Z" fill="#3F706D"/>
<path d="M145.621 74.6735H136.156V57.6655C136.96 57.5729 137.702 57.1885 138.241 56.585C138.78 55.9815 139.079 55.2011 139.08 54.3919V54.0399C139.081 53.6057 138.996 53.1756 138.83 52.7744C138.664 52.3731 138.42 52.0086 138.113 51.7015C137.806 51.3945 137.442 51.151 137.04 50.985C136.639 50.8191 136.209 50.7339 135.775 50.7343V46.4431L137.695 45.7775C134.884 39.8055 132.96 33.4546 131.986 26.9263L130.904 19.6687L129.8 26.9263C128.827 33.4544 126.905 39.8053 124.095 45.7775L126.015 46.4431V50.7279C125.138 50.7279 124.297 51.0761 123.677 51.6961C123.058 52.316 122.709 53.1568 122.709 54.0335V54.3919C122.709 54.4303 122.709 54.4655 122.709 54.5007H105.672V43.9535H105.612C108.85 41.8287 110.847 38.9231 110.847 35.7135C110.847 31.1183 106.748 27.1375 100.77 25.1951C99.0017 24.612 97.3765 23.6617 96.0011 22.4065C94.6258 21.1514 93.5312 19.6197 92.7892 17.9119C93.8925 17.8754 94.9361 17.4021 95.6905 16.5961C96.4448 15.7902 96.8481 14.7176 96.8116 13.6143C96.7751 12.511 96.3019 11.4674 95.4959 10.713C94.6899 9.95867 93.6173 9.55538 92.514 9.59188C92.3515 9.59331 92.1892 9.60292 92.0276 9.62068C92.6337 9.69869 93.2058 9.94496 93.6791 10.3316C94.1523 10.7182 94.5078 11.2296 94.7052 11.8079C94.9026 12.3863 94.934 13.0083 94.7958 13.6036C94.6577 14.1989 94.3556 14.7435 93.9236 15.1758C93.4917 15.6081 92.9473 15.9108 92.3522 16.0494C91.757 16.1881 91.1349 16.1572 90.5564 15.9603C89.9779 15.7634 89.4662 15.4084 89.0792 14.9355C88.6922 14.4626 88.4454 13.8907 88.3668 13.2847C88.3465 13.445 88.3358 13.6063 88.3348 13.7679C88.3359 14.8204 88.7344 15.8337 89.4505 16.6051C90.1667 17.3764 91.1477 17.8488 92.1972 17.9279C91.4542 19.6339 90.3591 21.1637 88.9838 22.4172C87.6085 23.6706 85.9839 24.6194 84.2164 25.2015C78.2356 27.1439 74.1364 31.1247 74.1364 35.7199C74.1364 38.9199 76.1364 41.8351 79.3748 43.9599H79.3108V54.5007H62.2804C62.2804 54.4655 62.2804 54.4303 62.2804 54.3919V54.0399C62.2809 53.6057 62.1956 53.1756 62.0297 52.7744C61.8637 52.3731 61.6202 52.0086 61.3132 51.7015C61.0061 51.3945 60.6416 51.151 60.2403 50.985C59.8391 50.8191 59.409 50.7339 58.9748 50.7343V46.4431L60.8948 45.7775C58.0836 39.8055 56.1603 33.4546 55.186 26.9263L54.1044 19.6687L53.0004 26.9263C52.0272 33.4544 50.1051 39.8053 47.2948 45.7775L49.2148 46.4431V50.7279C48.3381 50.7279 47.4973 51.0761 46.8774 51.6961C46.2575 52.316 45.9092 53.1568 45.9092 54.0335V54.3919C45.9097 55.2001 46.2063 55.98 46.7429 56.5844C47.2794 57.1888 48.0188 57.5756 48.8212 57.6719V74.6799H39.362C38.8324 74.6799 38.3246 74.8903 37.9501 75.2647C37.5756 75.6392 37.3652 76.1471 37.3652 76.6767V78.1295C37.3652 78.3915 37.4169 78.6511 37.5173 78.8931C37.6177 79.1352 37.7648 79.3551 37.9503 79.5403C38.1357 79.7255 38.3559 79.8722 38.5981 79.9722C38.8404 80.0722 39.1 80.1235 39.362 80.1231V103.845H145.621V80.1167C145.883 80.1171 146.143 80.0658 146.385 79.9658C146.627 79.8658 146.848 79.7191 147.033 79.5339C147.218 79.3487 147.366 79.1288 147.466 78.8867C147.566 78.6447 147.618 78.3852 147.618 78.1231V76.6703C147.618 76.1407 147.408 75.6328 147.033 75.2583C146.659 74.8839 146.151 74.6735 145.621 74.6735Z" fill="#3F706D"/>
<path d="M136.156 57.6655H48.8281V74.6735H136.156V57.6655Z" fill="#DAFFFD"/>
<path d="M102.043 87.6078C102.043 85.2174 99.9123 83.1438 96.7987 82.1358C95.8141 81.811 94.9155 81.2682 94.1697 80.548C93.424 79.8277 92.8503 78.9485 92.4915 77.9758C92.1326 78.9485 91.5589 79.8277 90.8132 80.548C90.0675 81.2682 89.1688 81.811 88.1843 82.1358C85.0739 83.1438 82.9395 85.2174 82.9395 87.6078C82.9492 88.4934 83.2307 89.3546 83.7459 90.075V103.835H101.24V90.075C101.753 89.3536 102.033 88.4928 102.043 87.6078Z" fill="#47C9C1"/>
<path d="M109.575 86.7373C108.743 86.739 107.946 87.0708 107.358 87.66C106.77 88.2491 106.439 89.0474 106.439 89.8797V103.838H112.727V89.8797C112.727 89.4664 112.645 89.0571 112.486 88.6754C112.328 88.2938 112.095 87.9471 111.803 87.6552C111.51 87.3634 111.163 87.1321 110.78 86.9746C110.398 86.8171 109.989 86.7365 109.575 86.7373Z" fill="#47C9C1"/>
<path d="M119.521 86.7375C120.355 86.7375 121.155 87.069 121.745 87.6589C122.335 88.2488 122.666 89.0489 122.666 89.8832V103.842H116.375V89.88C116.376 89.0462 116.708 88.247 117.297 87.6577C117.887 87.0685 118.687 86.7375 119.521 86.7375Z" fill="#47C9C1"/>
<path d="M129.464 86.7375C130.298 86.7375 131.098 87.069 131.688 87.6589C132.278 88.2488 132.61 89.0489 132.61 89.8832V103.842H126.318V89.88C126.319 89.0462 126.651 88.247 127.241 87.6577C127.831 87.0685 128.63 86.7375 129.464 86.7375Z" fill="#47C9C1"/>
<path d="M139.4 86.7375C138.567 86.7375 137.768 87.0686 137.178 87.6579C136.589 88.2473 136.258 89.0465 136.258 89.88V103.838H142.546V89.88C142.545 89.0462 142.213 88.247 141.623 87.6577C141.034 87.0685 140.234 86.7375 139.4 86.7375Z" fill="#47C9C1"/>
<path d="M45.5774 86.7373C44.7451 86.739 43.9475 87.0708 43.3595 87.66C42.7716 88.2491 42.4414 89.0474 42.4414 89.8797V103.838H48.7294V89.8797C48.729 89.4664 48.6471 89.0571 48.4884 88.6754C48.3298 88.2938 48.0974 87.9471 47.8047 87.6552C47.512 87.3634 47.1646 87.1321 46.7824 86.9746C46.4002 86.8171 45.9908 86.7365 45.5774 86.7373Z" fill="#47C9C1"/>
<path d="M55.5206 86.7375C56.3549 86.7375 57.155 87.069 57.7449 87.6589C58.3348 88.2488 58.6662 89.0489 58.6662 89.8832V103.842H52.375V89.88C52.3758 89.0462 52.7076 88.247 53.2975 87.6577C53.8873 87.0685 54.6869 86.7375 55.5206 86.7375Z" fill="#47C9C1"/>
<path d="M65.464 86.7375C65.877 86.7375 66.2861 86.8189 66.6677 86.977C67.0494 87.1351 67.3961 87.3668 67.6882 87.6589C67.9803 87.951 68.212 88.2977 68.3701 88.6794C68.5282 89.061 68.6096 89.4701 68.6096 89.8832V103.842H62.3184V89.88C62.3192 89.0462 62.651 88.247 63.2408 87.6577C63.8306 87.0685 64.6302 86.7375 65.464 86.7375Z" fill="#47C9C1"/>
<path d="M75.4002 86.7375C74.5668 86.7375 73.7675 87.0686 73.1782 87.6579C72.5889 88.2473 72.2578 89.0465 72.2578 89.88V103.838H78.5458V89.88C78.545 89.0462 78.2132 88.247 77.6234 87.6577C77.0335 87.0685 76.2339 86.7375 75.4002 86.7375Z" fill="#47C9C1"/>
<path d="M63.3208 63.7651L60.248 66.8379L63.3208 69.9107L66.3936 66.8379L63.3208 63.7651Z" fill="#47C9C1"/>
<path d="M82.7662 63.7648L79.6934 66.8376L82.7662 69.9104L85.839 66.8376L82.7662 63.7648Z" fill="#47C9C1"/>
<path d="M102.215 63.7656L99.1426 66.8384L102.215 69.9112L105.288 66.8384L102.215 63.7656Z" fill="#47C9C1"/>
<path d="M121.665 63.7663L118.592 66.8391L121.665 69.9119L124.737 66.8391L121.665 63.7663Z" fill="#47C9C1"/>
<path d="M79.3105 54.4944H105.672V43.9536H79.3745L79.3105 54.4944Z" fill="#DAFFFD"/>
<path d="M58.9615 46.4431H49.2207V50.7279H58.9615V46.4431Z" fill="#47C9C1"/>
<path d="M135.76 46.4431H126.02V50.7279H135.76V46.4431Z" fill="#47C9C1"/>
<path d="M148.06 111.067C148.06 111.067 146.38 107.403 148.3 103.79C150.22 100.177 150.773 99.3294 149.551 98.587C148.328 97.8446 147.765 101.467 147.765 101.467C147.765 101.467 146.735 98.971 147.586 96.347C148.437 93.723 148.972 89.4766 147.81 89.0222C146.648 88.5678 147.586 94.331 146.578 96.2958C146.064 94.9168 145.732 93.4762 145.592 92.011C145.452 89.9118 145.669 86.571 144.751 85.7006C143.832 84.8302 143.247 85.435 144.149 90.0654C144.692 92.834 144.99 95.6447 145.042 98.4654C145.042 98.4654 143.052 92.3854 141.714 92.2094C140.376 92.0334 140.376 94.0014 141.522 95.707C142.668 97.4126 144.876 100.472 145.237 102.046C145.237 102.046 143.048 97.4734 141.077 98.875C139.106 100.277 142.792 103.035 144.431 104.037C146.069 105.038 147.212 111.291 147.212 111.291L148.06 111.067Z" fill="#DAFFFD"/>
<path d="M148.06 111.067C148.06 111.067 146.38 107.403 148.3 103.79C150.22 100.177 150.773 99.3294 149.551 98.587C148.328 97.8446 147.765 101.467 147.765 101.467C147.765 101.467 146.735 98.971 147.586 96.347C148.437 93.723 148.972 89.4766 147.81 89.0222C146.648 88.5678 147.586 94.331 146.578 96.2958C146.064 94.9168 145.732 93.4762 145.592 92.011C145.452 89.9118 145.669 86.571 144.751 85.7006C143.832 84.8302 143.247 85.435 144.149 90.0654C144.692 92.834 144.99 95.6447 145.042 98.4654C145.042 98.4654 143.052 92.3854 141.714 92.2094C140.376 92.0334 140.376 94.0014 141.522 95.707C142.668 97.4126 144.876 100.472 145.237 102.046C145.237 102.046 143.048 97.4734 141.077 98.875C139.106 100.277 142.792 103.035 144.431 104.037C146.069 105.038 147.212 111.291 147.212 111.291L148.06 111.067Z" fill="#81FFF7"/>
<path d="M146.734 112.571C146.734 112.571 148.369 108.881 146.414 105.297C144.459 101.713 143.883 100.872 145.099 100.113C146.315 99.355 146.916 102.977 146.916 102.977C146.916 102.977 147.918 100.465 147.035 97.8574C146.152 95.2494 145.569 91.0094 146.715 90.5358C147.86 90.0622 147.003 95.8414 148.033 97.7902C148.532 96.4036 148.846 94.9577 148.968 93.4894C149.083 91.3902 148.827 88.0494 149.732 87.1662C150.638 86.283 151.236 86.8814 150.388 91.5246C149.881 94.3005 149.615 97.1154 149.595 99.9374C149.595 99.9374 151.515 93.8318 152.849 93.6334C154.184 93.435 154.206 95.403 153.083 97.1278C151.96 98.8526 149.787 101.928 149.445 103.528C149.445 103.528 151.576 98.923 153.56 100.293C155.544 101.662 151.899 104.481 150.27 105.505C148.641 106.529 147.579 112.798 147.579 112.798L146.734 112.571Z" fill="#DAFFFD"/>
<path d="M146.734 112.571C146.734 112.571 148.369 108.881 146.414 105.297C144.459 101.713 143.883 100.872 145.099 100.113C146.315 99.355 146.916 102.977 146.916 102.977C146.916 102.977 147.918 100.465 147.035 97.8574C146.152 95.2494 145.569 91.0094 146.715 90.5358C147.86 90.0622 147.003 95.8414 148.033 97.7902C148.532 96.4036 148.846 94.9577 148.968 93.4894C149.083 91.3902 148.827 88.0494 149.732 87.1662C150.638 86.283 151.236 86.8814 150.388 91.5246C149.881 94.3005 149.615 97.1154 149.595 99.9374C149.595 99.9374 151.515 93.8318 152.849 93.6334C154.184 93.435 154.206 95.403 153.083 97.1278C151.96 98.8526 149.787 101.928 149.445 103.528C149.445 103.528 151.576 98.923 153.56 100.293C155.544 101.662 151.899 104.481 150.27 105.505C148.641 106.529 147.579 112.798 147.579 112.798L146.734 112.571Z" fill="#81FFF7"/>
<path d="M154.278 109.941H140.768L141.862 119.608H153.184L154.278 109.941Z" fill="#385B5E"/>
<path d="M38.2601 109.989C38.3049 109.685 39.3449 102.507 37.2617 100.027C37.0523 99.7691 36.7886 99.5605 36.4893 99.4161C36.1901 99.2718 35.8627 99.1952 35.5305 99.1918C31.3225 99.0926 30.7465 102.472 30.7305 102.507L31.2265 102.584C31.2457 102.462 31.7449 99.6014 35.5049 99.7038C35.7673 99.7074 36.0257 99.7695 36.261 99.8858C36.4963 100.002 36.7026 100.17 36.8649 100.376C38.8041 102.683 37.7609 109.87 37.7513 109.941L38.2601 109.989Z" fill="#DAFFFD"/>
<path d="M38.5127 109.662L39.0151 109.646C39.0151 109.582 38.8487 103.032 42.0743 101.678C45.2391 100.353 46.6599 103.077 46.7207 103.195L47.1687 102.968C47.1687 102.936 45.4823 99.7069 41.8823 101.217C38.3367 102.712 38.5063 109.377 38.5127 109.662Z" fill="#DAFFFD"/>
<path d="M38.5004 110.177C38.5004 110.072 38.5292 99.7167 40.5484 96.6863C42.4876 93.7775 45.6172 95.1471 45.7484 95.2079L45.9564 94.7503C45.918 94.7343 42.3084 93.1503 40.1324 96.4079C38.0268 99.5631 37.998 109.745 37.998 110.168L38.5004 110.177Z" fill="#DAFFFD"/>
<path d="M34.9285 99.4255C34.9285 99.4255 36.7653 100.101 36.2085 101.701C35.6517 103.301 29.8629 105.931 29.8629 105.931C29.8629 105.931 27.4309 103.691 29.6645 100.075C31.8981 96.4591 34.8773 98.2799 34.9285 99.4255Z" fill="#DAFFFD"/>
<path d="M40.6416 96.139C40.6416 96.139 39.336 96.0014 39.4416 95.2046C39.5472 94.4078 44.5104 92.3662 47.4416 95.6718C47.4416 95.6718 45.5664 98.8942 42.8528 98.9358C40.1392 98.9774 40.6416 96.139 40.6416 96.139Z" fill="#DAFFFD"/>
<path d="M41.9789 101.448C41.9789 101.448 41.0797 100.721 42.0493 100.366C43.0189 100.011 47.7869 100.113 47.8381 104.846C47.8381 104.846 42.2861 105.768 41.5981 103.969C40.9101 102.171 41.9789 101.448 41.9789 101.448Z" fill="#DAFFFD"/>
<path d="M34.9285 99.4255C34.9285 99.4255 36.7653 100.101 36.2085 101.701C35.6517 103.301 29.8629 105.931 29.8629 105.931C29.8629 105.931 27.4309 103.691 29.6645 100.075C31.8981 96.4591 34.8773 98.2799 34.9285 99.4255Z" fill="#81FFF7"/>
<path d="M40.6416 96.139C40.6416 96.139 39.336 96.0014 39.4416 95.2046C39.5472 94.4078 44.5104 92.3662 47.4416 95.6718C47.4416 95.6718 45.5664 98.8942 42.8528 98.9358C40.1392 98.9774 40.6416 96.139 40.6416 96.139Z" fill="#81FFF7"/>
<path d="M41.9789 101.448C41.9789 101.448 41.0797 100.721 42.0493 100.366C43.0189 100.011 47.7869 100.113 47.8381 104.846C47.8381 104.846 42.2861 105.768 41.5981 103.969C40.9101 102.171 41.9789 101.448 41.9789 101.448Z" fill="#81FFF7"/>
<path d="M33.9397 119.608H42.5541L43.4853 110.177H33.0117L33.9397 119.608Z" fill="#DAFFFD"/>
<path d="M33.9397 119.608H42.5541L43.4853 110.177H33.0117L33.9397 119.608Z" fill="#385B5E"/>
<path d="M32.5533 111.217H43.9453V109.137H32.5533V111.217Z" fill="#DAFFFD"/>
<path opacity="0.2" d="M32.5533 111.217H43.9453V109.137H32.5533V111.217Z" fill="#DAFFFD"/>
<path d="M126.134 116.67H129.27C129.321 116.67 129.371 116.688 129.411 116.72C129.451 116.752 129.479 116.796 129.491 116.846L129.999 119.147C130.01 119.196 130.01 119.247 130.001 119.296C129.992 119.345 129.973 119.392 129.946 119.434C129.918 119.476 129.883 119.512 129.842 119.54C129.8 119.568 129.754 119.588 129.705 119.598H129.622C128.607 119.582 127.868 119.522 126.595 119.522C125.811 119.522 123.443 119.602 122.358 119.602C121.273 119.602 121.135 118.533 121.577 118.434C123.567 117.998 125.065 117.4 125.702 116.834C125.819 116.725 125.974 116.667 126.134 116.67Z" fill="#263238"/>
<path d="M112.84 116.587H115.976C116.028 116.587 116.078 116.605 116.118 116.638C116.158 116.67 116.186 116.716 116.197 116.766L116.706 119.064C116.726 119.163 116.706 119.265 116.651 119.35C116.596 119.434 116.51 119.494 116.411 119.515C116.384 119.52 116.356 119.52 116.328 119.515C115.314 119.515 114.575 119.438 113.301 119.438C112.514 119.438 110.149 119.521 109.064 119.521C107.979 119.521 107.839 118.449 108.283 118.35C110.274 117.918 111.768 117.317 112.408 116.75C112.526 116.642 112.68 116.583 112.84 116.587Z" fill="#263238"/>
<path d="M127.797 58.5518H114.098C112.795 65.6654 108.718 94.5486 111.643 116.974H116.28C116.28 116.974 115.851 82.9134 119.947 71.9086C120.418 77.7998 125.205 116.952 125.205 116.952H129.925C129.925 116.952 129.221 102.232 128.514 88.3118C128.069 79.5438 127.816 60.3438 127.797 58.5518Z" fill="#263238"/>
<path opacity="0.2" d="M119.945 71.9024C119.273 73.8325 118.762 75.8147 118.415 77.8288C118.031 72.5872 119.564 67.0288 119.564 67.0288L119.945 71.9024Z" fill="black"/>
<path d="M113.983 58.7119H127.771V60.3535L113.807 60.1839L113.983 58.7119Z" fill="#263238"/>
<path d="M123.339 57.9727H122.846V60.8879H123.339V57.9727Z" fill="#81FFF7"/>
<path d="M116.362 57.9727H115.869V60.8879H116.362V57.9727Z" fill="#81FFF7"/>
<path d="M120.267 58.4238H117.717V60.2606H120.267V58.4238Z" fill="#81FFF7"/>
<path d="M127.816 58.9743C128.181 51.1279 130.488 40.0239 130.488 40.0239C124.088 38.4815 115.489 38.8687 115.489 38.8687C113.813 44.8591 113.845 54.5263 113.992 58.9743H127.816Z" fill="#263238"/>
<path opacity="0.2" d="M127.816 58.9743C128.181 51.1279 130.488 40.0239 130.488 40.0239C124.088 38.4815 115.489 38.8687 115.489 38.8687C113.813 44.8591 113.845 54.5263 113.992 58.9743H127.816Z" fill="#81FFF7"/>
<path d="M119.817 38.7119L119.359 38.9199C119.359 38.9199 119.433 40.9775 121.5 41.1119C123.567 41.2463 125.507 39.1919 125.507 39.1919L124.812 38.8175L119.817 38.7119Z" fill="#263238"/>
<path d="M124.515 38.3662C123.504 39.1982 121.955 40.363 121.5 40.2158C121.12 40.091 120.46 39.3358 119.936 38.667C120.216 38.5879 120.467 38.4289 120.659 38.2094C120.822 37.869 120.867 37.4839 120.787 37.115C120.696 36.4084 120.543 35.7113 120.329 35.0318L120.252 34.7886L124.252 33.1438C124.252 33.1438 123.9 36.811 124.23 37.8798C124.289 38.0606 124.386 38.2265 124.515 38.3662Z" fill="#E4897B"/>
<path opacity="0.2" d="M123.624 35.3872C123.624 35.3872 122.847 38.824 120.789 37.1152C120.694 36.4091 120.54 35.7123 120.328 35.032L120.571 34.9424L123.624 35.3872Z" fill="black"/>
<path d="M118.003 27.5886C118.003 27.5886 116.617 30.3022 118.739 32.4974C120.317 34.1262 121.161 27.643 121.161 27.643L118.003 27.5886Z" fill="#263238"/>
<path d="M123.72 35.8511C123.271 36.3708 122.665 36.7289 121.993 36.8705C121.321 37.0121 120.622 36.9294 120.001 36.6351C119.191 36.2705 118.55 35.6101 118.209 34.7887C118.161 34.6767 118.123 34.5583 118.085 34.4399C117.445 32.2351 117.585 28.5327 119.966 27.4191C120.491 27.1704 121.071 27.0602 121.65 27.0989C122.229 27.1376 122.789 27.324 123.276 27.6403C123.763 27.9566 124.161 28.3922 124.432 28.9058C124.703 29.4194 124.838 29.9938 124.824 30.5743C124.792 33.0575 124.897 34.5199 123.72 35.8511Z" fill="#E4897B"/>
<path d="M121.077 31.4606C121.103 31.6622 120.991 31.8318 120.856 31.8382C120.722 31.8446 120.61 31.6846 120.6 31.483C120.591 31.2814 120.69 31.1118 120.821 31.1054C120.952 31.099 121.067 31.2558 121.077 31.4606Z" fill="#263238"/>
<path d="M118.795 31.5793C118.817 31.7777 118.706 31.9505 118.574 31.9569C118.443 31.9633 118.325 31.8033 118.315 31.6017C118.305 31.4001 118.405 31.2305 118.536 31.2241C118.667 31.2177 118.782 31.3873 118.795 31.5793Z" fill="#263238"/>
<path d="M119.525 31.6399C119.317 32.2709 119.022 32.8697 118.648 33.4191C118.792 33.5108 118.954 33.57 119.124 33.5927C119.293 33.6153 119.465 33.6009 119.628 33.5503L119.525 31.6399Z" fill="#DE5753"/>
<path d="M117.898 30.6447C117.917 30.655 117.938 30.6605 117.96 30.6605C117.982 30.6605 118.003 30.655 118.022 30.6447C118.142 30.5569 118.281 30.4982 118.428 30.4732C118.574 30.4482 118.725 30.4576 118.867 30.5007C118.882 30.5087 118.898 30.5135 118.914 30.5149C118.931 30.5163 118.948 30.5141 118.963 30.5086C118.979 30.503 118.994 30.4942 119.006 30.4828C119.018 30.4713 119.027 30.4574 119.034 30.442C119.04 30.4266 119.043 30.41 119.042 30.3933C119.042 30.3767 119.038 30.3603 119.031 30.3453C119.023 30.3303 119.013 30.317 119 30.3063C118.988 30.2956 118.973 30.2877 118.957 30.2831C118.778 30.2241 118.588 30.2087 118.402 30.2382C118.216 30.2677 118.04 30.3413 117.888 30.4527C117.862 30.4697 117.843 30.4964 117.837 30.527C117.83 30.5576 117.836 30.5895 117.853 30.6159C117.866 30.628 117.881 30.6377 117.898 30.6447Z" fill="#263238"/>
<path d="M121.48 30.5233C121.503 30.5229 121.526 30.5138 121.544 30.4977C121.553 30.4855 121.561 30.4715 121.565 30.4565C121.569 30.4416 121.57 30.4259 121.569 30.4105C121.567 30.395 121.562 30.3801 121.554 30.3665C121.547 30.3529 121.537 30.3409 121.525 30.3313C121.377 30.213 121.203 30.1319 121.018 30.0946C120.832 30.0572 120.641 30.0649 120.459 30.1169C120.444 30.1219 120.431 30.1298 120.419 30.1401C120.408 30.1505 120.398 30.163 120.392 30.1771C120.385 30.1911 120.381 30.2063 120.381 30.2218C120.38 30.2373 120.383 30.2528 120.389 30.2673C120.399 30.2964 120.421 30.3201 120.449 30.3332C120.477 30.3464 120.51 30.348 120.539 30.3377C120.683 30.3014 120.835 30.2993 120.98 30.3315C121.126 30.3637 121.262 30.4294 121.377 30.5233C121.393 30.5312 121.411 30.5353 121.429 30.5353C121.446 30.5353 121.464 30.5312 121.48 30.5233Z" fill="#263238"/>
<path d="M122.83 27.5728L122.699 28.6672C122.885 28.7545 123.031 28.909 123.108 29.0996C123.184 29.2902 123.186 29.5027 123.112 29.6944C122.763 30.616 123.291 32.0432 123.998 32.6096C123.998 32.6096 124.021 32.2128 124.357 32.2896C124.693 32.3664 124.61 34.4624 123.957 35.4544C123.957 35.4544 124.946 34.5552 125.499 32.3696C126.011 30.3504 126.478 30.2864 125.653 27.8896L122.83 27.5728Z" fill="#263238"/>
<path d="M125.999 32.552C125.755 33.1251 125.296 33.5792 124.719 33.816C123.948 34.136 123.478 33.4512 123.619 32.6768C123.75 31.992 124.307 30.984 125.116 31.0192C125.926 31.0544 126.281 31.8416 125.999 32.552Z" fill="#E4897B"/>
<path d="M119.816 34.1807C119.958 34.4629 120.078 34.7548 120.178 35.0543C120.236 35.0543 120.29 35.0543 120.344 35.0255C121.087 34.8975 121.388 34.5935 121.5 34.2959C121.548 34.1486 121.563 33.992 121.541 33.8383C121.531 33.7502 121.508 33.664 121.474 33.5823C121.051 33.8663 120.572 34.0551 120.069 34.1359C119.916 34.1679 119.816 34.1807 119.816 34.1807Z" fill="#263238"/>
<path d="M120.068 34.1359L120.184 34.3887C120.881 34.2671 121.358 34.0879 121.54 33.8383C121.53 33.7502 121.508 33.664 121.473 33.5823C121.05 33.8663 120.571 34.0551 120.068 34.1359Z" fill="#81FFF7"/>
<path d="M120.344 35.0255C121.086 34.8975 121.387 34.5935 121.499 34.2959C121.216 34.3527 120.946 34.4612 120.702 34.6159C120.543 34.7121 120.418 34.8552 120.344 35.0255Z" fill="#DE5753"/>
<path d="M118.6 27.0191C118.14 26.8275 117.709 26.5722 117.32 26.2607C117.02 25.9407 118.434 25.1919 119.429 24.9583C120.424 24.7247 122.309 24.3567 123.909 24.9583C125.509 25.5599 127.503 27.9247 127.368 28.2959C127.234 28.6671 120.072 28.0463 118.6 27.0191Z" fill="#81FFF7"/>
<path d="M117.83 27.6334L118.592 26.1198C118.592 26.1198 121.923 25.835 122.892 26.0558C123.862 26.2766 126.188 27.9758 126.188 27.9758L126.118 28.9774L117.83 27.6334Z" fill="#81FFF7"/>
<path opacity="0.2" d="M117.83 27.6334L118.592 26.1198C118.592 26.1198 121.923 25.835 122.892 26.0558C123.862 26.2766 126.188 27.9758 126.188 27.9758L126.118 28.9774L117.83 27.6334Z" fill="black"/>
<path d="M117.618 28.8784C117.618 28.8784 122.418 28.2384 126.098 30.0688C126.098 30.0688 126.479 29.1088 126.248 28.6768C126.156 28.5072 124.114 27.2176 120.808 27.144C117.503 27.0704 117.634 27.368 117.532 27.5728C117.429 27.7776 117.288 28.744 117.618 28.8784Z" fill="#81FFF7"/>
<path d="M122.209 27.1919C122.209 27.1919 122.209 28.7503 122.142 28.9327C122.075 29.1151 122.222 29.1503 122.34 28.8847C122.459 28.6191 122.66 27.0287 122.209 27.1919Z" fill="#81FFF7"/>
<path d="M118.732 27.1631C118.732 27.1631 118.447 28.6863 118.431 28.8047C118.415 28.9231 118.265 28.9327 118.198 28.8047C118.131 28.6767 118.214 26.8175 118.732 27.1631Z" fill="#81FFF7"/>
<path d="M125.481 28.1935C125.654 28.2831 125.43 29.7647 125.299 29.7135C125.168 29.6623 125.44 29.9343 125.545 29.8159C125.698 29.3466 125.761 28.8526 125.731 28.3599C125.664 28.1103 125.481 28.1935 125.481 28.1935Z" fill="#81FFF7"/>
<path opacity="0.2" d="M122.209 27.1919C122.209 27.1919 122.209 28.7503 122.142 28.9327C122.075 29.1151 122.222 29.1503 122.34 28.8847C122.459 28.6191 122.66 27.0287 122.209 27.1919Z" fill="black"/>
<path opacity="0.2" d="M118.732 27.1631C118.732 27.1631 118.447 28.6863 118.431 28.8047C118.415 28.9231 118.265 28.9327 118.198 28.8047C118.131 28.6767 118.214 26.8175 118.732 27.1631Z" fill="black"/>
<path opacity="0.2" d="M125.481 28.1935C125.654 28.2831 125.43 29.7647 125.299 29.7135C125.168 29.6623 125.44 29.9343 125.545 29.8159C125.698 29.3466 125.761 28.8526 125.731 28.3599C125.664 28.1103 125.481 28.1935 125.481 28.1935Z" fill="black"/>
<path d="M120.84 35.739C121.018 35.8003 121.211 35.8074 121.394 35.7596C121.576 35.7118 121.741 35.6111 121.867 35.4702C122.273 34.9806 122.008 34.6606 122.008 34.6606C122.008 34.6606 122.92 35.2142 122.808 35.787C122.696 36.3598 122.056 36.9262 120.683 36.9422C119.31 36.9582 119.816 35.5822 119.816 35.5822C119.816 35.5822 119.848 36.027 120.068 36.0718C120.289 36.1166 120.84 35.739 120.84 35.739Z" fill="#263238"/>
<path d="M119.816 38.712L120.344 37.5984C120.344 37.5984 121.077 38.5584 121.276 38.8304C121.428 39.1313 121.529 39.4559 121.573 39.7904C121.573 39.7904 121.858 39.016 122.309 38.8304C122.76 38.6448 124.636 37.5984 124.636 37.5984L125.08 38.8304C125.08 38.8304 122.952 40.4304 121.5 40.2192C121.098 40.1713 120.721 40.0009 120.42 39.7312C120.119 39.4615 119.908 39.1057 119.816 38.712Z" fill="#81FFF7"/>
<path opacity="0.6" d="M119.816 38.712L120.344 37.5984C120.344 37.5984 121.077 38.5584 121.276 38.8304C121.428 39.1313 121.529 39.4559 121.573 39.7904C121.573 39.7904 121.858 39.016 122.309 38.8304C122.76 38.6448 124.636 37.5984 124.636 37.5984L125.08 38.8304C125.08 38.8304 122.952 40.4304 121.5 40.2192C121.098 40.1713 120.721 40.0009 120.42 39.7312C120.119 39.4615 119.908 39.1057 119.816 38.712Z" fill="#81FFF7"/>
<path d="M122.44 48.5873L120.335 48.1425L119.925 45.3809C119.925 45.3809 118.523 46.2641 118.523 46.5809C118.523 46.8977 118.984 49.4609 118.984 49.4609H119.925L122.2 50.0273L122.44 48.5873Z" fill="#E4897B"/>
<path d="M115.4 48.04L117.544 47.848L118.28 45.1536C118.28 45.1536 119.56 46.1968 119.528 46.5136C119.496 46.8304 118.725 49.3328 118.725 49.3328L117.788 49.2208L115.464 49.512L115.4 48.04Z" fill="#E4897B"/>
<path d="M130.487 40.0239C131.895 40.7503 132.557 50.6191 130.487 51.5439C128.417 52.4687 120.596 50.0591 120.596 50.0591L120.89 47.9823C120.89 47.9823 127.671 49.2111 128.25 48.8463C129.319 48.1583 128.964 44.8687 128.964 44.8687C129.028 43.9345 129.177 43.008 129.409 42.1007C129.674 41.3637 130.037 40.6653 130.487 40.0239Z" fill="#263238"/>
<path d="M115.49 38.8687C114.121 39.0991 110.335 48.4687 110.87 50.0431C111.404 51.6175 116.751 49.835 116.751 49.835V47.6463C116.751 47.6463 113.964 47.9663 113.785 47.7775C113.606 47.5887 114.252 46.5806 114.252 46.5806C114.252 46.5806 115.033 43.5535 115.401 41.8191C115.626 40.8513 115.657 39.8483 115.49 38.8687Z" fill="#263238"/>
<path d="M75.6211 113.035L79.4611 112.318V115.041C79.4611 115.041 81.4227 118.293 82.2675 118.517C82.4986 118.576 82.6975 118.724 82.8222 118.927C82.9469 119.131 82.9879 119.375 82.9363 119.608H78.6963L77.6691 118.392L77.4483 119.617H76.6355C76.6355 119.617 75.7779 117.144 76.6355 115.406L75.6211 113.035Z" fill="#263238"/>
<path d="M62.1094 112.699L65.9494 112.993L65.6102 115.041C65.6102 115.041 67.5718 118.293 68.4166 118.517C68.6477 118.576 68.8465 118.724 68.9713 118.927C69.096 119.131 69.1369 119.375 69.0854 119.608H64.839L63.8182 118.392L63.5974 119.617H62.7846C62.7846 119.617 61.927 117.144 62.7846 115.406L62.1094 112.699Z" fill="#263238"/>
<path opacity="0.2" d="M75.6211 113.035L79.4611 112.318V115.041C79.4611 115.041 81.4227 118.293 82.2675 118.517C82.4986 118.576 82.6975 118.724 82.8222 118.927C82.9469 119.131 82.9879 119.375 82.9363 119.608H78.6963L77.6691 118.392L77.4483 119.617H76.6355C76.6355 119.617 75.7779 117.144 76.6355 115.406L75.6211 113.035Z" fill="#81FFF7"/>
<path opacity="0.2" d="M62.1094 112.699L65.9494 112.993L65.6102 115.041C65.6102 115.041 67.5718 118.293 68.4166 118.517C68.6477 118.576 68.8465 118.724 68.9713 118.927C69.096 119.131 69.1369 119.375 69.0854 119.608H64.839L63.8182 118.392L63.5974 119.617H62.7846C62.7846 119.617 61.927 117.144 62.7846 115.406L62.1094 112.699Z" fill="#81FFF7"/>
<path d="M69.7423 46.3535C71.0223 46.7471 73.4127 53.8447 72.9423 55.5855C72.4719 57.3263 70.5423 54.4687 69.7423 52.3311C68.9423 50.1935 69.7423 46.3535 69.7423 46.3535Z" fill="#81FFF7"/>
<path opacity="0.4" d="M69.7423 46.3535C71.0223 46.7471 73.4127 53.8447 72.9423 55.5855C72.4719 57.3263 70.5423 54.4687 69.7423 52.3311C68.9423 50.1935 69.7423 46.3535 69.7423 46.3535Z" fill="black"/>
<path d="M57.4794 48.395C57.4794 48.395 55.8154 55.3454 57.5274 57.7134C59.2394 60.0814 59.8762 49.9502 59.8762 49.9502L57.4794 48.395Z" fill="#81FFF7"/>
<path opacity="0.4" d="M57.4794 48.395C57.4794 48.395 55.8154 55.3454 57.5274 57.7134C59.2394 60.0814 59.8762 49.9502 59.8762 49.9502L57.4794 48.395Z" fill="black"/>
<path d="M57.5371 47.7551C57.5371 47.7551 59.8443 52.4303 60.1195 62.0303L69.9787 61.1791C69.9787 61.1791 70.9675 51.1951 69.7419 46.3535C69.7419 46.3535 61.3579 46.9295 58.3435 47.5887C58.0619 47.6527 57.7995 47.7103 57.5371 47.7551Z" fill="#81FFF7"/>
<path opacity="0.4" d="M70.2036 58.1551C70.1012 59.9567 69.9796 61.1791 69.9796 61.1791L60.1204 62.0303C60.099 61.2644 60.0649 60.5327 60.018 59.8351C59.8932 57.9151 59.698 56.2447 59.4548 54.7951C59.394 54.4175 59.33 54.0623 59.2628 53.7167C59.2372 53.5919 59.2148 53.4703 59.1892 53.3487C59.1508 53.1471 59.1092 52.9487 59.0676 52.7567L59.042 52.6383C58.9748 52.3183 58.9012 51.9983 58.8308 51.7039C58.7764 51.4927 58.7252 51.2943 58.674 51.1023C58.6452 51.0063 58.6228 50.9167 58.6004 50.8271C58.5988 50.809 58.5988 50.7908 58.6004 50.7727C58.546 50.5807 58.4948 50.3983 58.4404 50.2255C58.386 50.0527 58.3156 49.8095 58.2548 49.6175C58.194 49.4255 58.1268 49.2303 58.0692 49.0607L58.0084 48.8943C57.97 48.7855 57.9348 48.6831 57.8996 48.5935C57.6852 48.0335 57.5508 47.7583 57.5508 47.7583C57.8036 47.7103 58.0756 47.6527 58.3604 47.5887C61.3716 46.9295 69.7524 46.3535 69.7524 46.3535C69.8388 46.6735 69.9124 47.0479 69.9764 47.4255C69.9956 47.5311 70.0116 47.6399 70.0308 47.7455C70.1332 48.4239 70.21 49.1567 70.2612 49.9247C70.2804 50.1775 70.2932 50.4303 70.306 50.6863L70.3252 51.0927C70.3252 51.2271 70.3252 51.3615 70.3252 51.5023C70.3252 51.7711 70.3316 52.0431 70.3444 52.3183C70.3444 52.5615 70.3444 52.8047 70.3444 53.0447C70.3604 54.8975 70.2804 56.7119 70.2036 58.1551Z" fill="black"/>
<path opacity="0.2" d="M70.2036 58.1551C68.738 57.1407 67.602 55.2015 67.602 55.2015C67.0527 55.4531 66.4558 55.5841 65.8516 55.5855C65.2462 55.5842 64.6425 55.5209 64.05 55.3967C64.05 55.3967 61.8356 58.7151 60.018 59.8351C59.8932 57.9151 59.698 56.2447 59.4548 54.7951C59.394 54.4175 59.33 54.0623 59.2628 53.7167C59.2372 53.5919 59.2148 53.4703 59.1892 53.3487C59.1508 53.1471 59.1092 52.9487 59.0676 52.7567L59.042 52.6383C58.9716 52.3183 58.898 51.9983 58.8308 51.7039C58.7764 51.4927 58.7252 51.2943 58.674 51.1023C58.6452 51.0063 58.6228 50.9167 58.6004 50.8271C58.5988 50.809 58.5988 50.7908 58.6004 50.7727C58.546 50.5807 58.4948 50.3983 58.4404 50.2255C58.386 50.0527 58.3156 49.8063 58.2548 49.6175C58.194 49.4287 58.1268 49.2303 58.0692 49.0607L58.0084 48.8943C57.97 48.7855 57.9348 48.6831 57.8996 48.5935C57.6852 48.0335 57.5508 47.7583 57.5508 47.7583C57.8036 47.7103 58.0756 47.6527 58.3604 47.5887C61.3716 46.9295 69.7524 46.3535 69.7524 46.3535C69.8388 46.6735 69.9124 47.0479 69.9764 47.4255C69.9956 47.5311 70.0116 47.6399 70.0308 47.7455C70.1332 48.4239 70.21 49.1567 70.2612 49.9247C70.2804 50.1775 70.2932 50.4303 70.306 50.6863L70.3252 51.0927C70.3252 51.2271 70.3252 51.3615 70.3252 51.5023C70.3252 51.7711 70.3316 52.0431 70.3444 52.3183C70.3444 52.5615 70.3444 52.8047 70.3444 53.0447C70.3604 54.8975 70.2804 56.7119 70.2036 58.1551Z" fill="black"/>
<path d="M61.9368 47.2205C61.7703 47.3125 61.6455 47.4648 61.588 47.6461H66.1768C66.1384 47.2877 65.9144 46.9645 65.3448 46.7693C65.24 46.7365 65.1331 46.7108 65.0248 46.6925C64.7688 46.5549 64.4232 46.1773 64.2568 45.1405C64.1937 44.7317 64.1606 44.3189 64.1576 43.9053L61.1816 43.8701C61.1816 43.8701 62.5064 45.6365 61.9368 47.2205Z" fill="#EEC1BB"/>
<path opacity="0.2" d="M64.1615 43.9054C64.1645 44.319 64.1976 44.7318 64.2607 45.1406C62.3119 45.4606 61.1855 43.8606 61.1855 43.8606L64.1615 43.9054Z" fill="black"/>
<path d="M62.6635 34.7439C64.3339 35.2783 66.2411 35.3455 66.6219 38.4815C66.6219 38.4815 68.6699 44.6767 68.6667 46.0495C68.6667 46.0495 69.6747 45.9183 70.1035 46.1839C70.8811 46.6639 71.8795 49.3839 71.8795 49.3839C71.8795 49.3839 70.0779 53.9631 66.6475 54.9999C63.2171 56.0367 56.5195 50.8719 56.5195 50.8719C56.5195 50.8719 56.8939 46.8591 57.5467 46.3471C58.0184 46.0365 58.589 45.9133 59.1467 46.0015C58.9537 45.7676 58.8355 45.4811 58.8075 45.1791C58.8075 44.7823 59.4475 42.7727 58.9867 40.6511C58.5259 38.5295 62.6635 34.7439 62.6635 34.7439Z" fill="#81FFF7"/>
<path d="M62.8822 35.7549C65.4134 35.5053 66.3638 36.7789 66.8086 39.3709C67.3654 42.6125 66.8726 44.9997 63.6342 44.6189C59.2406 44.0973 58.6742 36.1741 62.8822 35.7549Z" fill="#EEC1BB"/>
<path d="M65.1602 39.3933C65.3999 39.7517 65.6825 40.0794 66.0018 40.3693C65.9382 40.4817 65.8448 40.5744 65.7318 40.6371C65.6189 40.6998 65.4908 40.73 65.3618 40.7245L65.1602 39.3933Z" fill="#D4827D"/>
<path d="M63.5848 39.3517C63.6104 39.5597 63.5208 39.7421 63.38 39.7581C63.2392 39.7741 63.108 39.6205 63.0856 39.4125C63.0632 39.2045 63.1496 39.0253 63.2872 39.0061C63.4248 38.9869 63.5592 39.1309 63.5848 39.3517Z" fill="#263238"/>
<path d="M63.2402 39.0127L63.669 38.7791C63.669 38.7791 63.4834 39.1855 63.2402 39.0127Z" fill="#263238"/>
<path d="M66.1609 38.9805C66.1865 39.1853 66.0937 39.3677 65.9561 39.3869C65.8185 39.4061 65.6841 39.2493 65.6585 39.0413C65.6329 38.8333 65.7257 38.6509 65.8633 38.6349C66.0009 38.6189 66.1353 38.7725 66.1609 38.9805Z" fill="#263238"/>
<path d="M65.8008 38.6511L66.2296 38.4175C66.2296 38.4175 66.06 38.8271 65.8008 38.6511Z" fill="#263238"/>
<path d="M62.3254 38.1934C62.3065 38.1982 62.2867 38.1982 62.2678 38.1934C62.2554 38.1856 62.2447 38.1754 62.2363 38.1634C62.2279 38.1514 62.2221 38.1378 62.2191 38.1234C62.2161 38.1091 62.216 38.0943 62.2189 38.0799C62.2218 38.0656 62.2275 38.0519 62.2358 38.0398C62.3722 37.8651 62.5479 37.7251 62.7486 37.6311C62.9494 37.5371 63.1695 37.4919 63.391 37.499C63.4053 37.4994 63.4194 37.5027 63.4324 37.5085C63.4454 37.5144 63.4572 37.5227 63.467 37.5331C63.4768 37.5435 63.4845 37.5558 63.4895 37.5691C63.4946 37.5825 63.497 37.5967 63.4966 37.611C63.4966 37.6399 63.4851 37.6675 63.4647 37.688C63.4443 37.7084 63.4167 37.7198 63.3878 37.7198C63.2048 37.7162 63.0234 37.7541 62.8572 37.8306C62.6909 37.907 62.5441 38.0202 62.4278 38.1614C62.4149 38.1751 62.3988 38.1853 62.3808 38.1909C62.3629 38.1965 62.3438 38.1974 62.3254 38.1934Z" fill="#263238"/>
<path d="M66.2485 37.5213C66.2316 37.5242 66.2143 37.5242 66.1973 37.5213C66.0602 37.4343 65.9052 37.3797 65.7439 37.3614C65.5825 37.3431 65.4192 37.3617 65.2661 37.4157C65.2396 37.4272 65.2098 37.4283 65.1825 37.4188C65.1553 37.4093 65.1326 37.3899 65.1189 37.3645C65.1124 37.3515 65.1086 37.3374 65.1076 37.3229C65.1067 37.3084 65.1087 37.2938 65.1135 37.2801C65.1182 37.2664 65.1257 37.2538 65.1354 37.243C65.1452 37.2322 65.157 37.2235 65.1701 37.2173C65.3541 37.1474 65.5517 37.1208 65.7476 37.1397C65.9435 37.1586 66.1325 37.2223 66.2997 37.3261C66.3254 37.3403 66.3445 37.364 66.3529 37.3922C66.3612 37.4203 66.3582 37.4506 66.3445 37.4765C66.3334 37.4913 66.3189 37.5032 66.3021 37.511C66.2854 37.5188 66.267 37.5223 66.2485 37.5213Z" fill="#263238"/>
<path d="M61.0004 40.795C60.9465 40.5077 60.7825 40.2529 60.5434 40.0849C60.3042 39.9169 60.0089 39.849 59.7204 39.8958C58.9428 40.059 58.7284 41.7102 60.7188 41.9022C61.0004 41.931 61.122 41.6398 61.0004 40.795Z" fill="#EEC1BB"/>
<path d="M65.4797 41.6751C65.2533 41.9984 65.0501 42.3374 64.8717 42.6895C64.8046 42.6715 64.7383 42.6501 64.6733 42.6255C63.7741 42.3343 63.4573 41.8991 63.3741 41.5087C63.3383 41.3169 63.3493 41.1193 63.4061 40.9327C63.4355 40.8262 63.4785 40.7241 63.5341 40.6287C63.9149 41.0703 64.7309 41.4095 65.1757 41.5727C65.3709 41.6399 65.4797 41.6751 65.4797 41.6751Z" fill="#263238"/>
<path d="M65.1856 41.5727L64.9968 41.8671C64.152 41.5855 63.5952 41.2751 63.416 40.9327C63.4454 40.8262 63.4884 40.7241 63.544 40.6287C63.9248 41.0703 64.7408 41.4095 65.1856 41.5727Z" fill="#81FFF7"/>
<path d="M64.684 42.6253C63.7848 42.3341 63.468 41.8989 63.3848 41.5085C63.7236 41.6275 64.0388 41.8051 64.316 42.0333C64.4971 42.1877 64.6258 42.3946 64.684 42.6253Z" fill="#DE5753"/>
<path d="M60.8885 39.3262C60.8885 39.3262 62.0309 35.6558 64.2485 35.8062C66.4661 35.9566 66.6229 38.4974 66.6229 38.4974C66.6229 38.4974 67.2885 34.2862 61.8901 34.3374C56.4917 34.3886 59.4741 42.3374 59.4741 42.3374C59.4741 42.3374 62.0053 45.339 65.1893 44.5774C65.1893 44.5518 61.9189 44.8814 60.8885 39.3262Z" fill="#81FFF7"/>
<path d="M62.459 52.2413L64.3054 51.2813C64.3054 51.2813 64.7502 48.8941 64.907 48.5805C65.0638 48.2669 65.547 49.1501 65.7774 49.3773C66.0078 49.6045 65.659 51.7581 65.5182 51.9949C65.3774 52.2317 64.7438 51.9949 64.7438 51.9949L63.0126 53.2269L62.459 52.2413Z" fill="#EEC1BB"/>
<path d="M68.9236 52.2413L67.0772 51.2813C67.0772 51.2813 66.6356 48.8941 66.4788 48.5805C66.322 48.2669 65.8388 49.1501 65.6084 49.3773C65.378 49.6045 65.7236 51.7581 65.8676 51.9949C66.0116 52.2317 66.6388 51.9949 66.6388 51.9949L68.37 53.2269L68.9236 52.2413Z" fill="#EEC1BB"/>
<path d="M56.7629 55.4766C56.4749 63.4478 65.0829 54.1966 65.0829 54.1966L63.3197 51.2942C63.3197 51.2942 56.8397 53.4318 56.7629 55.4766Z" fill="#81FFF7"/>
<path opacity="0.4" d="M56.7629 55.4766C56.4749 63.4478 65.0829 54.1966 65.0829 54.1966L63.3197 51.2942C63.3197 51.2942 56.8397 53.4318 56.7629 55.4766Z" fill="black"/>
<path d="M68.2225 51.5278L67.2305 54.4942C67.2305 54.4942 70.6225 57.4094 71.8961 57.5406C73.1697 57.6718 74.5457 53.7102 68.2225 51.5278Z" fill="#81FFF7"/>
<path opacity="0.4" d="M68.2225 51.5278L67.2305 54.4942C67.2305 54.4942 70.6225 57.4094 71.8961 57.5406C73.1697 57.6718 74.5457 53.7102 68.2225 51.5278Z" fill="black"/>
<path d="M60.1305 60.9325C60.1305 60.9325 55.6922 74.6925 59.0521 114.126L82.9433 112.699C82.9433 112.699 78.2809 80.4813 70.0601 60.2605L60.1305 60.9325Z" fill="#263238"/>
<path d="M90.1333 70.7664H82.3413L81.7109 71.5279L95.0805 80.6864H96.1045H96.8213H104.613L90.1333 70.7664Z" fill="#263238"/>
<path d="M106.581 70.7664H98.7854L84.3086 80.6864H92.1006H93.8414L107.208 71.5279L106.581 70.7664Z" fill="#263238"/>
<path opacity="0.2" d="M99.4165 71.5279L98.7861 70.7664L90.5653 76.3984L82.3413 70.7664L81.7109 71.5279L89.6949 76.9968L84.3093 80.6864H86.0501L90.5653 77.592L95.0805 80.6864H96.8213L91.4357 76.9968L99.4165 71.5279Z" fill="#DAFFFD"/>
<path d="M84.1797 70.9934H91.2933C91.2933 70.9934 93.6133 71.195 94.7333 72.5934L91.2933 75.3998L84.1797 70.9934Z" fill="#DAFFFD"/>
<path opacity="0.5" d="M84.1797 70.9934H91.2933C91.2933 70.9934 93.6133 71.195 94.7333 72.5934L91.2933 75.3998L84.1797 70.9934Z" fill="#DAFFFD"/>
<path d="M84.1797 70.9936L91.3541 75.8576L98.3941 71.0064C98.3941 71.0064 96.4325 70.7664 94.9253 71.5536C93.5052 72.2675 92.3086 73.3578 91.4661 74.7056C90.6938 73.4925 89.6106 72.5084 88.3292 71.8556C87.0479 71.2028 85.615 70.9052 84.1797 70.9936Z" fill="#DAFFFD"/>
<path opacity="0.7" d="M84.1797 70.9936L91.3541 75.8576L98.3941 71.0064C98.3941 71.0064 96.4325 70.7664 94.9253 71.5536C93.5052 72.2675 92.3086 73.3578 91.4661 74.7056C90.6938 73.4925 89.6106 72.5084 88.3292 71.8556C87.0479 71.2028 85.615 70.9052 84.1797 70.9936Z" fill="#DAFFFD"/>
<path d="M123.137 80.7822V119.528H121.32V84.2574H100.699V119.528H98.8814V84.2574H91.851V119.528H90.0302V84.2574H69.4126V119.528H67.5918V80.7822H123.137Z" fill="#DAFFFD"/>
<path opacity="0.4" d="M123.137 80.7822V119.528H121.32V84.2574H100.699V119.528H98.8814V84.2574H91.851V119.528H90.0302V84.2574H69.4126V119.528H67.5918V80.7822H123.137Z" fill="#DAFFFD"/>
<path opacity="0.3" d="M98.8558 80.7822V84.2574H91.851H90.0302H69.4126V119.528H67.5918V80.7822H98.8558Z" fill="#DAFFFD"/>
</svg>
