<svg width="185" height="117" viewBox="0 0 185 117" fill="none" xmlns="http://www.w3.org/2000/svg">
<path d="M27.709 83.8711L47.2411 83.7895L66.7732 83.7589L105.834 83.7012L144.895 83.7589L164.427 83.7895L183.959 83.8711L164.427 83.956L144.895 83.9866L105.834 84.041L66.7732 83.9832L47.2411 83.956L27.709 83.8711Z" fill="#263238"/>
<path opacity="0.5" d="M92.5 129C143.586 129 185 117.807 185 104C185 90.1929 143.586 79 92.5 79C41.4137 79 0 90.1929 0 104C0 117.807 41.4137 129 92.5 129Z" fill="white"/>
<path d="M72.7569 109.397C84.3586 109.397 93.7637 107.027 93.7637 104.103C93.7637 101.179 84.3586 98.8091 72.7569 98.8091C61.1551 98.8091 51.75 101.179 51.75 104.103C51.75 107.027 61.1551 109.397 72.7569 109.397Z" fill="#EBEBEB"/>
<path d="M126.587 58.0967C129.822 62.2933 135.656 64.0637 140.801 64.5531C146.044 65.0594 151.974 64.7773 156.813 62.5584C158.933 61.5899 160.89 60.139 162.182 58.2089C163.565 56.1394 163.796 53.9239 162.46 51.8953C161.387 50.2608 158.957 49.0375 159.001 47.5729C159.045 46.1083 160.309 44.9938 160.7 43.5972C161.359 41.2185 160.092 39.3666 158.434 37.7491C154.505 33.9127 155.773 29.0636 153.438 24.3743C152.11 21.7102 148.267 16.749 141.015 18.7131C138.256 19.4641 136.302 21.8393 135.102 24.3233C133.696 27.2491 134.491 31.184 132.795 33.984C131.344 36.3627 129.329 36.7025 127.936 39.2035C127.331 40.2908 127.015 41.5821 128.126 44.2258C128.531 45.1875 128.942 46.6418 128.503 47.753C127.895 49.2923 125.989 49.9448 125.316 51.5487C124.385 53.754 125.16 56.2346 126.587 58.0967Z" fill="#263238"/>
<path d="M160.56 58.7763C163.037 58.4603 164.209 55.1608 162.704 53.4074C161.753 52.2928 160.281 51.7457 159.326 50.6379C157.756 48.8166 159.265 47.2671 160.203 45.5408C162.242 41.8335 159.717 39.2102 157.039 36.7942C155.001 34.9593 154.661 32.9204 154.6 30.3141C154.6 30.2733 154.668 30.2699 154.671 30.3141C154.803 32.2374 155.011 34.1267 156.326 35.6695C157.393 36.9233 158.84 37.8034 159.873 39.1015C161.603 41.2797 161.746 43.587 160.397 45.969C160.013 46.6486 159.292 47.42 159.119 48.1743C158.715 49.9549 160.057 50.9234 161.331 51.8443C162.306 52.5511 163.39 53.336 163.727 54.5457C164.237 56.3705 162.507 58.7729 160.59 58.9122C160.492 58.9292 160.461 58.7763 160.56 58.7763Z" fill="#263238"/>
<path d="M159.16 60.5602C160.699 59.7073 162.367 58.9428 163.305 57.4C164.695 55.1131 163.111 53.3224 161.627 51.6233C160.988 50.8961 160.464 50.1757 160.529 49.1801C160.624 47.6884 161.773 46.4617 162.004 44.9937C162.551 41.4767 159.068 39.217 157.359 36.5937C155.612 33.8752 155.116 30.7796 154.545 27.7009C154.545 27.688 154.549 27.6754 154.557 27.6654C154.565 27.6553 154.576 27.6485 154.589 27.646C154.602 27.6436 154.615 27.6457 154.626 27.652C154.637 27.6583 154.646 27.6684 154.65 27.6805C155.405 31.6121 156.465 35.3296 159.183 38.4116C161.083 40.5694 163.101 42.9039 162.099 45.918C161.851 46.6587 161.382 47.3248 161.151 48.0655C160.695 49.5369 161.076 50.5088 162.038 51.5961C162.999 52.6835 164.046 53.7199 164.182 55.1709C164.447 57.9913 161.538 59.7685 159.268 60.7845C159.239 60.7941 159.208 60.7928 159.18 60.7809C159.152 60.769 159.129 60.7474 159.116 60.72C159.102 60.6926 159.1 60.6613 159.108 60.6319C159.116 60.6025 159.134 60.577 159.16 60.5602Z" fill="#263238"/>
<path d="M124.677 50.6481C125.941 48.9694 127.905 48.1641 127.45 45.7175C127.134 44.0185 126.234 42.6592 126.618 40.8956C126.934 39.4311 127.919 38.3097 129.074 37.3651C130.542 36.1655 132.153 35.2039 133.237 33.6272C134.42 31.901 134.977 29.8587 135.551 27.8878C135.551 27.8505 135.629 27.8674 135.622 27.8878C135.007 30.5723 134.263 33.3247 132.15 35.2922C131.045 36.3116 129.71 37.0898 128.616 38.1296C126.648 40.002 126.624 42.0986 127.413 44.501C127.773 45.602 128.092 46.7097 127.559 47.8175C127.025 48.9253 125.935 49.5947 125.16 50.5122C121.87 54.42 126.713 59.5408 130.78 60.3428C130.964 60.3768 130.937 60.6554 130.746 60.6214C127.705 60.1151 124.524 57.3423 123.903 54.3826C123.757 53.7409 123.751 53.0755 123.885 52.4313C124.019 51.7872 124.289 51.1791 124.677 50.6481Z" fill="#263238"/>
<path d="M124.774 52.772C124.836 50.9982 125.984 50.0332 126.881 48.6536C128.291 46.4856 126.902 44.3006 126.769 41.9831C126.674 40.3691 127.364 39.0132 128.4 37.8545C129.79 36.2914 131.557 35.1904 132.709 33.3894C133.915 31.4713 134.518 29.2351 134.439 26.9705C134.439 26.9297 134.503 26.9365 134.503 26.9705C134.618 28.5018 134.405 30.0399 133.877 31.4821C133.35 32.9243 132.521 34.2373 131.445 35.3331C130.052 36.7501 128.186 37.8919 127.388 39.8152C126.545 41.854 127.571 43.7332 127.823 45.7754C127.913 46.379 127.878 46.9947 127.719 47.584C127.561 48.1734 127.282 48.7237 126.902 49.2006C126.338 49.955 125.651 50.638 125.328 51.5521C124.893 52.789 125.148 54.1788 125.648 55.3681C127.231 59.1264 131.207 61.5322 135.013 62.1915C135.149 62.2152 135.135 62.4293 135.013 62.4089C131.545 61.8628 128.432 59.9731 126.348 57.1487C125.423 55.8948 124.72 54.3589 124.774 52.772Z" fill="#263238"/>
<path d="M142.021 45.6258C140.155 45.1772 136.308 50.0433 132.921 57.4375C127.484 69.2797 124.619 83.871 124.619 83.871H142.33C142.33 83.871 146.846 46.7777 142.021 45.6258Z" fill="#EB9481"/>
<path d="M122.464 84.6289H115.236V85.7571H122.464V84.6289Z" fill="#455A64"/>
<path d="M122.464 84.6289H115.236V85.3731H122.464V84.6289Z" fill="#263238"/>
<path d="M131.038 81.5977C130.599 82.2501 129.98 82.7615 129.256 83.0702C128.533 83.3789 127.736 83.4717 126.96 83.3375C126.71 83.2885 126.465 83.218 126.226 83.1268C125.868 82.9848 125.527 82.8048 125.207 82.5899L126.128 81.2307C126.298 81.3499 126.479 81.4534 126.668 81.5399C128.391 82.3181 129.478 80.9623 129.692 80.6531C130.685 79.2598 131.052 76.0826 130.032 74.8593C129.964 74.7676 129.675 74.6249 128.51 74.8593C128.296 74.9069 128.051 74.9613 127.776 75.036C127.563 75.1094 127.341 75.1573 127.117 75.1788L127.086 74.3632L127.008 73.5477C127.083 73.5477 127.198 73.5001 127.348 73.4559C127.886 73.2997 128.436 73.1861 128.992 73.1161C129.849 73.0278 130.746 73.1161 131.296 73.7958C132.941 75.8142 132.278 79.8443 131.038 81.5977Z" fill="#455A64"/>
<path d="M126.134 81.2273C126.305 81.3465 126.485 81.45 126.674 81.5365L126.223 83.1268C125.865 82.9847 125.523 82.8047 125.203 82.5899L126.134 81.2273Z" fill="#263238"/>
<path d="M129.005 73.1265L128.52 74.8697C128.305 74.9172 128.061 74.9716 127.786 75.0464C127.572 75.1197 127.351 75.1676 127.126 75.1891L127.096 74.3736L127.018 73.558C127.092 73.558 127.208 73.5104 127.357 73.4663C127.897 73.3099 128.448 73.1963 129.005 73.1265Z" fill="#263238"/>
<path d="M109.232 71.0095C109.232 71.0095 110.099 78.3731 111.611 81.4756C113.123 84.578 115.199 84.9178 116.497 84.9178H121.221C122.519 84.9178 124.619 84.578 126.107 81.4756C127.596 78.3731 128.469 71.0095 128.469 71.0095H109.232Z" fill="#455A64"/>
<path d="M110.65 75.8176C110.558 75.8176 110.469 75.7905 110.393 75.7397C110.317 75.6889 110.258 75.6167 110.223 75.5323C110.188 75.4479 110.179 75.3549 110.196 75.2653C110.214 75.1756 110.258 75.0933 110.323 75.0287C110.387 74.964 110.47 74.92 110.559 74.9022C110.649 74.8844 110.742 74.8935 110.826 74.9285C110.911 74.9635 110.983 75.0227 111.034 75.0987C111.085 75.1747 111.112 75.264 111.112 75.3554C111.112 75.478 111.063 75.5956 110.976 75.6822C110.89 75.7689 110.772 75.8176 110.65 75.8176ZM110.65 74.9783C110.575 74.9783 110.502 75.0004 110.44 75.0418C110.378 75.0833 110.33 75.1422 110.301 75.2111C110.273 75.28 110.265 75.3559 110.28 75.429C110.294 75.5022 110.33 75.5694 110.383 75.6222C110.436 75.6749 110.503 75.7108 110.576 75.7254C110.649 75.7399 110.725 75.7325 110.794 75.7039C110.863 75.6754 110.922 75.627 110.963 75.565C111.005 75.503 111.027 75.43 111.027 75.3554C111.027 75.2554 110.987 75.1595 110.916 75.0887C110.846 75.018 110.75 74.9783 110.65 74.9783Z" fill="#E0E2FF"/>
<path d="M124.348 73.4391C124.255 73.4398 124.165 73.413 124.088 73.3621C124.011 73.3112 123.951 73.2385 123.915 73.1533C123.879 73.0681 123.87 72.9742 123.888 72.8836C123.906 72.793 123.95 72.7097 124.015 72.6444C124.081 72.5791 124.164 72.5347 124.254 72.5168C124.345 72.499 124.439 72.5085 124.524 72.5441C124.609 72.5798 124.682 72.64 124.733 72.7171C124.784 72.7941 124.811 72.8846 124.81 72.977C124.81 73.0995 124.761 73.2171 124.675 73.3038C124.588 73.3904 124.47 73.4391 124.348 73.4391ZM124.348 72.5964C124.272 72.5957 124.199 72.6175 124.135 72.6589C124.072 72.7003 124.023 72.7595 123.994 72.829C123.964 72.8984 123.956 72.9751 123.971 73.0491C123.985 73.1232 124.021 73.1913 124.074 73.2449C124.127 73.2984 124.195 73.335 124.269 73.35C124.343 73.3649 124.42 73.3576 124.489 73.3289C124.559 73.3002 124.619 73.2514 124.661 73.1888C124.703 73.1261 124.725 73.0524 124.725 72.977C124.725 72.8766 124.685 72.7803 124.615 72.7091C124.544 72.6378 124.448 72.5973 124.348 72.5964Z" fill="#E0E2FF"/>
<path d="M123.664 80.225C123.572 80.2257 123.482 80.1989 123.405 80.1482C123.328 80.0975 123.267 80.025 123.232 79.94C123.196 79.855 123.186 79.7613 123.204 79.6708C123.221 79.5802 123.265 79.4969 123.33 79.4315C123.395 79.3661 123.478 79.3214 123.569 79.3031C123.659 79.2849 123.753 79.2939 123.838 79.3291C123.923 79.3642 123.996 79.4239 124.048 79.5005C124.099 79.5771 124.126 79.6672 124.126 79.7595C124.127 79.8204 124.115 79.8809 124.092 79.9374C124.069 79.9938 124.035 80.0452 123.992 80.0884C123.949 80.1317 123.898 80.1661 123.842 80.1895C123.786 80.2129 123.725 80.225 123.664 80.225ZM123.664 79.3823C123.589 79.3816 123.515 79.4034 123.452 79.445C123.388 79.4866 123.339 79.546 123.31 79.6156C123.281 79.6853 123.273 79.7621 123.287 79.8363C123.302 79.9104 123.338 79.9785 123.392 80.032C123.445 80.0854 123.513 80.1217 123.587 80.1363C123.662 80.1509 123.738 80.143 123.808 80.1138C123.878 80.0846 123.937 80.0353 123.979 79.9722C124.02 79.9091 124.042 79.835 124.041 79.7595C124.041 79.6594 124.002 79.5635 123.931 79.4928C123.86 79.422 123.764 79.3823 123.664 79.3823Z" fill="#E0E2FF"/>
<path d="M127.439 72.226C127.347 72.226 127.258 72.1989 127.182 72.1481C127.106 72.0974 127.047 72.0252 127.012 71.9407C126.977 71.8563 126.968 71.7634 126.985 71.6737C127.003 71.5841 127.047 71.5017 127.112 71.4371C127.177 71.3725 127.259 71.3285 127.349 71.3106C127.438 71.2928 127.531 71.302 127.616 71.3369C127.7 71.3719 127.772 71.4311 127.823 71.5071C127.874 71.5831 127.901 71.6725 127.901 71.7639C127.9 71.8862 127.851 72.0032 127.764 72.0897C127.678 72.1762 127.561 72.2251 127.439 72.226ZM127.439 71.3867C127.364 71.3867 127.291 71.4088 127.229 71.4503C127.167 71.4917 127.119 71.5506 127.09 71.6196C127.062 71.6885 127.054 71.7643 127.069 71.8375C127.083 71.9106 127.119 71.9779 127.172 72.0306C127.225 72.0834 127.292 72.1193 127.365 72.1338C127.438 72.1484 127.514 72.1409 127.583 72.1124C127.652 72.0838 127.711 72.0355 127.752 71.9734C127.794 71.9114 127.816 71.8385 127.816 71.7639C127.816 71.6639 127.776 71.5679 127.705 71.4972C127.635 71.4264 127.539 71.3867 127.439 71.3867Z" fill="#E0E2FF"/>
<path d="M120.993 75.1075C120.902 75.1055 120.814 75.0767 120.739 75.0247C120.664 74.9727 120.607 74.8999 120.573 74.8153C120.54 74.7307 120.532 74.6381 120.551 74.5491C120.57 74.4602 120.615 74.3788 120.68 74.3152C120.745 74.2515 120.827 74.2085 120.917 74.1915C121.006 74.1745 121.098 74.1842 121.182 74.2195C121.266 74.2547 121.338 74.314 121.388 74.3897C121.438 74.4655 121.465 74.5544 121.465 74.6454C121.465 74.7069 121.453 74.7679 121.429 74.8246C121.405 74.8814 121.37 74.9328 121.326 74.9758C121.282 75.0189 121.23 75.0527 121.173 75.0753C121.116 75.0979 121.054 75.1089 120.993 75.1075ZM120.993 74.2682C120.918 74.2682 120.845 74.2903 120.783 74.3318C120.721 74.3732 120.673 74.4321 120.644 74.501C120.616 74.5699 120.608 74.6458 120.623 74.719C120.638 74.7921 120.673 74.8593 120.726 74.9121C120.779 74.9648 120.846 75.0008 120.919 75.0153C120.993 75.0299 121.068 75.0224 121.137 74.9938C121.206 74.9653 121.265 74.917 121.307 74.8549C121.348 74.7929 121.37 74.72 121.37 74.6454C121.369 74.5456 121.329 74.4502 121.259 74.3796C121.188 74.3091 121.093 74.2691 120.993 74.2682Z" fill="#E0E2FF"/>
<path d="M115.961 80.0312C115.869 80.0318 115.778 80.005 115.701 79.9541C115.624 79.9032 115.564 79.8306 115.528 79.7454C115.493 79.6602 115.483 79.5663 115.501 79.4756C115.519 79.385 115.563 79.3018 115.629 79.2365C115.694 79.1711 115.777 79.1267 115.868 79.1089C115.958 79.091 116.052 79.1005 116.137 79.1362C116.223 79.1718 116.295 79.232 116.346 79.3091C116.397 79.3862 116.424 79.4767 116.423 79.569C116.423 79.6297 116.411 79.6898 116.388 79.7459C116.365 79.8019 116.331 79.8529 116.288 79.8958C116.245 79.9387 116.194 79.9728 116.138 79.996C116.082 80.0192 116.022 80.0312 115.961 80.0312ZM115.961 79.1884C115.886 79.1878 115.812 79.2095 115.749 79.2509C115.686 79.2923 115.636 79.3515 115.607 79.421C115.578 79.4905 115.57 79.5671 115.584 79.6412C115.598 79.7152 115.634 79.7833 115.687 79.8369C115.74 79.8905 115.808 79.9271 115.882 79.942C115.956 79.957 116.033 79.9497 116.103 79.9209C116.172 79.8922 116.232 79.8435 116.274 79.7808C116.316 79.7182 116.338 79.6444 116.338 79.569C116.339 79.5192 116.329 79.4698 116.311 79.4236C116.292 79.3775 116.264 79.3355 116.229 79.3001C116.194 79.2647 116.152 79.2366 116.106 79.2175C116.06 79.1983 116.011 79.1884 115.961 79.1884Z" fill="#E0E2FF"/>
<path d="M119.036 72.226C118.945 72.226 118.856 72.1989 118.78 72.1481C118.704 72.0974 118.644 72.0252 118.609 71.9407C118.574 71.8563 118.565 71.7634 118.583 71.6737C118.601 71.5841 118.645 71.5017 118.71 71.4371C118.774 71.3725 118.857 71.3285 118.946 71.3106C119.036 71.2928 119.129 71.302 119.213 71.3369C119.298 71.3719 119.37 71.4311 119.421 71.5071C119.471 71.5831 119.498 71.6725 119.498 71.7639C119.498 71.8865 119.45 72.004 119.363 72.0907C119.276 72.1773 119.159 72.226 119.036 72.226ZM119.036 71.3867C118.962 71.3867 118.889 71.4088 118.827 71.4503C118.765 71.4917 118.716 71.5506 118.688 71.6196C118.659 71.6885 118.652 71.7643 118.666 71.8375C118.681 71.9106 118.717 71.9779 118.77 72.0306C118.822 72.0834 118.89 72.1193 118.963 72.1338C119.036 72.1484 119.112 72.1409 119.181 72.1124C119.25 72.0838 119.309 72.0355 119.35 71.9734C119.391 71.9114 119.414 71.8385 119.414 71.7639C119.414 71.6639 119.374 71.5679 119.303 71.4972C119.232 71.4264 119.136 71.3867 119.036 71.3867Z" fill="#E0E2FF"/>
<path d="M119.611 78.176C119.519 78.176 119.43 78.1489 119.354 78.0981C119.278 78.0473 119.219 77.9752 119.184 77.8907C119.149 77.8063 119.139 77.7133 119.157 77.6237C119.175 77.5341 119.219 77.4517 119.284 77.3871C119.348 77.3224 119.431 77.2784 119.52 77.2606C119.61 77.2428 119.703 77.2519 119.787 77.2869C119.872 77.3219 119.944 77.3811 119.995 77.4571C120.046 77.5331 120.073 77.6225 120.073 77.7139C120.073 77.8364 120.024 77.954 119.937 78.0406C119.851 78.1273 119.733 78.176 119.611 78.176ZM119.611 77.3367C119.536 77.3367 119.463 77.3588 119.401 77.4002C119.339 77.4417 119.291 77.5006 119.262 77.5695C119.234 77.6384 119.226 77.7143 119.241 77.7874C119.255 77.8606 119.291 77.9278 119.344 77.9806C119.397 78.0333 119.464 78.0692 119.537 78.0838C119.61 78.0983 119.686 78.0909 119.755 78.0623C119.824 78.0338 119.883 77.9854 119.924 77.9234C119.966 77.8614 119.988 77.7885 119.988 77.7139C119.988 77.6138 119.948 77.5179 119.877 77.4471C119.807 77.3764 119.711 77.3367 119.611 77.3367Z" fill="#E0E2FF"/>
<path d="M124.184 83.7147C124.092 83.7126 124.004 83.6838 123.929 83.6317C123.854 83.5797 123.796 83.5067 123.762 83.4219C123.728 83.337 123.72 83.2441 123.738 83.1547C123.757 83.0652 123.801 82.9832 123.866 82.9189C123.931 82.8545 124.013 82.8106 124.103 82.7927C124.192 82.7748 124.285 82.7836 124.37 82.8181C124.454 82.8526 124.527 82.9112 124.578 82.9866C124.63 83.0621 124.658 83.151 124.66 83.2423C124.661 83.305 124.65 83.3674 124.626 83.4255C124.603 83.4837 124.568 83.5365 124.523 83.5807C124.479 83.6248 124.426 83.6595 124.367 83.6826C124.309 83.7056 124.246 83.7165 124.184 83.7147ZM124.184 82.8719C124.108 82.8713 124.034 82.893 123.971 82.9344C123.908 82.9758 123.859 83.035 123.83 83.1045C123.8 83.174 123.792 83.2506 123.807 83.3247C123.821 83.3987 123.857 83.4668 123.91 83.5204C123.963 83.574 124.031 83.6105 124.105 83.6255C124.179 83.6405 124.256 83.6331 124.325 83.6044C124.395 83.5757 124.455 83.527 124.497 83.4643C124.539 83.4016 124.561 83.3279 124.561 83.2525C124.561 83.1522 124.521 83.0559 124.451 82.9846C124.38 82.9133 124.284 82.8728 124.184 82.8719Z" fill="#E0E2FF"/>
<path d="M112.943 72.9191C112.852 72.9185 112.763 72.8908 112.687 72.8396C112.612 72.7884 112.553 72.716 112.519 72.6315C112.484 72.547 112.475 72.4542 112.494 72.3648C112.512 72.2753 112.556 72.1933 112.621 72.129C112.686 72.0647 112.768 72.0211 112.858 72.0035C112.947 71.9859 113.04 71.9953 113.124 72.0304C113.208 72.0655 113.28 72.1247 113.331 72.2006C113.382 72.2765 113.409 72.3657 113.409 72.457C113.409 72.518 113.397 72.5783 113.373 72.6346C113.35 72.6909 113.315 72.742 113.272 72.785C113.229 72.8279 113.177 72.8619 113.121 72.8849C113.065 72.908 113.004 72.9196 112.943 72.9191ZM112.943 72.0798C112.869 72.0805 112.796 72.1032 112.734 72.145C112.673 72.1869 112.625 72.246 112.597 72.315C112.569 72.384 112.562 72.4597 112.577 72.5326C112.592 72.6056 112.628 72.6725 112.681 72.7249C112.734 72.7773 112.801 72.8129 112.874 72.8272C112.947 72.8414 113.023 72.8338 113.092 72.8051C113.16 72.7765 113.219 72.7281 113.26 72.6662C113.302 72.6042 113.324 72.5315 113.324 72.457C113.324 72.4072 113.314 72.3578 113.295 72.3119C113.275 72.2659 113.247 72.2241 113.212 72.1891C113.177 72.154 113.135 72.1263 113.088 72.1075C113.042 72.0888 112.993 72.0794 112.943 72.0798Z" fill="#E0E2FF"/>
<path d="M125.856 76.9152C125.764 76.9152 125.674 76.8878 125.597 76.8365C125.521 76.7852 125.461 76.7123 125.426 76.627C125.391 76.5418 125.382 76.448 125.4 76.3576C125.418 76.2672 125.463 76.1842 125.528 76.1193C125.594 76.0543 125.677 76.0102 125.767 75.9927C125.858 75.9751 125.952 75.9848 126.037 76.0206C126.122 76.0563 126.194 76.1165 126.245 76.1935C126.296 76.2705 126.322 76.3608 126.322 76.4531C126.322 76.514 126.31 76.5744 126.286 76.6307C126.263 76.687 126.228 76.7381 126.185 76.7811C126.142 76.824 126.091 76.858 126.034 76.881C125.978 76.904 125.917 76.9156 125.856 76.9152ZM125.856 76.0725C125.78 76.0698 125.705 76.0899 125.64 76.1304C125.576 76.1708 125.525 76.2297 125.494 76.2994C125.464 76.369 125.455 76.4463 125.468 76.5212C125.482 76.5961 125.518 76.6651 125.571 76.7195C125.624 76.7738 125.693 76.8109 125.767 76.8259C125.842 76.8409 125.919 76.8333 125.99 76.8038C126.06 76.7744 126.12 76.7246 126.161 76.6609C126.203 76.5971 126.224 76.5224 126.223 76.4463C126.221 76.3488 126.182 76.2557 126.114 76.1862C126.046 76.1166 125.954 76.0759 125.856 76.0725Z" fill="#E0E2FF"/>
<path d="M116.368 75.5288C116.277 75.5288 116.188 75.5017 116.112 75.4509C116.036 75.4001 115.976 75.3279 115.941 75.2435C115.906 75.159 115.897 75.0661 115.915 74.9765C115.933 74.8868 115.977 74.8045 116.042 74.7398C116.106 74.6752 116.189 74.6312 116.278 74.6134C116.368 74.5955 116.461 74.6047 116.545 74.6397C116.63 74.6746 116.702 74.7339 116.753 74.8099C116.803 74.8859 116.831 74.9752 116.831 75.0666C116.831 75.1273 116.819 75.1874 116.795 75.2435C116.772 75.2995 116.738 75.3505 116.695 75.3934C116.652 75.4363 116.601 75.4704 116.545 75.4936C116.489 75.5168 116.429 75.5288 116.368 75.5288ZM116.368 74.6894C116.294 74.6894 116.221 74.7116 116.159 74.753C116.097 74.7945 116.048 74.8534 116.02 74.9223C115.991 74.9912 115.984 75.067 115.998 75.1402C116.013 75.2134 116.049 75.2806 116.102 75.3333C116.154 75.3861 116.222 75.422 116.295 75.4366C116.368 75.4511 116.444 75.4437 116.513 75.4151C116.582 75.3866 116.641 75.3382 116.682 75.2762C116.723 75.2141 116.746 75.1412 116.746 75.0666C116.746 75.0171 116.736 74.968 116.717 74.9223C116.698 74.8765 116.67 74.8349 116.635 74.7999C116.6 74.7649 116.558 74.7371 116.513 74.7182C116.467 74.6992 116.418 74.6894 116.368 74.6894Z" fill="#E0E2FF"/>
<path d="M119.609 83.0182C119.517 83.0189 119.426 82.9919 119.349 82.9407C119.272 82.8894 119.211 82.8164 119.176 82.7308C119.141 82.6452 119.131 82.5509 119.15 82.4601C119.168 82.3693 119.213 82.2861 119.279 82.2211C119.345 82.1561 119.429 82.1122 119.52 82.0951C119.611 82.0781 119.706 82.0885 119.791 82.1252C119.876 82.162 119.948 82.2232 119.998 82.3012C120.048 82.3791 120.074 82.4702 120.072 82.5629C120.07 82.6843 120.02 82.8001 119.934 82.8853C119.847 82.9705 119.731 83.0182 119.609 83.0182ZM119.609 82.1755C119.534 82.1748 119.46 82.1967 119.397 82.2382C119.334 82.2798 119.284 82.3392 119.255 82.4089C119.226 82.4785 119.218 82.5553 119.233 82.6295C119.247 82.7036 119.284 82.7717 119.337 82.8252C119.39 82.8786 119.459 82.9149 119.533 82.9295C119.607 82.9441 119.684 82.9363 119.753 82.907C119.823 82.8778 119.882 82.8285 119.924 82.7654C119.965 82.7023 119.987 82.6282 119.987 82.5527C119.987 82.4526 119.947 82.3567 119.876 82.286C119.805 82.2152 119.709 82.1755 119.609 82.1755Z" fill="#E0E2FF"/>
<path d="M115.715 84.6901C115.623 84.6908 115.532 84.664 115.455 84.6133C115.378 84.5626 115.318 84.4901 115.283 84.4051C115.247 84.3201 115.237 84.2264 115.255 84.1358C115.272 84.0453 115.316 83.962 115.381 83.8966C115.446 83.8312 115.529 83.7865 115.62 83.7682C115.71 83.75 115.804 83.759 115.889 83.7941C115.974 83.8293 116.047 83.8889 116.098 83.9656C116.15 84.0422 116.177 84.1323 116.177 84.2246C116.177 84.3474 116.129 84.4653 116.042 84.5526C115.955 84.6398 115.838 84.6892 115.715 84.6901ZM115.715 83.8474C115.639 83.8467 115.565 83.8685 115.502 83.9101C115.439 83.9517 115.39 84.0111 115.361 84.0807C115.331 84.1504 115.324 84.2272 115.338 84.3014C115.353 84.3755 115.389 84.4436 115.443 84.4971C115.496 84.5505 115.564 84.5868 115.638 84.6014C115.712 84.616 115.789 84.6081 115.859 84.5789C115.929 84.5497 115.988 84.5004 116.029 84.4373C116.071 84.3742 116.093 84.3001 116.092 84.2246C116.091 84.1248 116.051 84.0294 115.981 83.9588C115.91 83.8883 115.815 83.8483 115.715 83.8474Z" fill="#E0E2FF"/>
<path d="M112.943 77.7546C112.852 77.7539 112.763 77.7262 112.687 77.6751C112.612 77.6239 112.553 77.5515 112.519 77.467C112.484 77.3825 112.475 77.2896 112.494 77.2002C112.512 77.1108 112.556 77.0288 112.621 76.9645C112.686 76.9002 112.768 76.8565 112.858 76.839C112.947 76.8214 113.04 76.8307 113.124 76.8658C113.208 76.9009 113.28 76.9601 113.331 77.0361C113.382 77.112 113.409 77.2012 113.409 77.2924C113.409 77.3534 113.397 77.4138 113.373 77.4701C113.35 77.5264 113.315 77.5775 113.272 77.6204C113.229 77.6634 113.177 77.6974 113.121 77.7204C113.065 77.7434 113.004 77.755 112.943 77.7546ZM112.943 76.9153C112.869 76.9159 112.796 76.9386 112.734 76.9805C112.673 77.0223 112.625 77.0815 112.597 77.1504C112.569 77.2194 112.562 77.2952 112.577 77.3681C112.592 77.441 112.628 77.5079 112.681 77.5603C112.734 77.6127 112.801 77.6483 112.874 77.6626C112.947 77.6769 113.023 77.6692 113.092 77.6406C113.16 77.6119 113.219 77.5636 113.26 77.5016C113.302 77.4397 113.324 77.3669 113.324 77.2924C113.324 77.2426 113.314 77.1933 113.295 77.1473C113.275 77.1013 113.247 77.0596 113.212 77.0245C113.177 76.9895 113.135 76.9617 113.088 76.943C113.042 76.9242 112.993 76.9148 112.943 76.9153Z" fill="#E0E2FF"/>
<path d="M112.525 81.9309C112.433 81.9309 112.344 81.9038 112.268 81.853C112.192 81.8022 112.133 81.73 112.098 81.6456C112.063 81.5611 112.054 81.4682 112.071 81.3786C112.089 81.2889 112.133 81.2066 112.198 81.1419C112.262 81.0773 112.345 81.0333 112.434 81.0155C112.524 80.9976 112.617 81.0068 112.701 81.0418C112.786 81.0767 112.858 81.136 112.909 81.212C112.96 81.288 112.987 81.3773 112.987 81.4687C112.987 81.5913 112.938 81.7088 112.851 81.7955C112.765 81.8822 112.647 81.9309 112.525 81.9309ZM112.525 81.0915C112.45 81.0915 112.377 81.1137 112.315 81.1551C112.253 81.1966 112.205 81.2555 112.176 81.3244C112.148 81.3933 112.14 81.4691 112.155 81.5423C112.169 81.6155 112.205 81.6827 112.258 81.7354C112.311 81.7882 112.378 81.8241 112.451 81.8387C112.524 81.8532 112.6 81.8458 112.669 81.8172C112.738 81.7887 112.797 81.7403 112.838 81.6783C112.88 81.6163 112.902 81.5433 112.902 81.4687C112.902 81.3687 112.862 81.2728 112.791 81.202C112.721 81.1313 112.625 81.0915 112.525 81.0915Z" fill="#E0E2FF"/>
<path d="M135.154 72.8137L134.855 83.871H170.898C170.898 83.871 164.129 54.9874 153.993 46.4923C148.447 41.8505 144.138 43.8384 141.209 46.9102C140.495 47.685 132.68 60.302 132.34 64.8452C132.061 68.855 135.154 72.8137 135.154 72.8137Z" fill="#EB9481"/>
<path d="M135.152 72.8137L134.853 83.871H170.893C170.893 83.871 167.495 69.4021 161.926 57.937C161.178 59.3506 159.272 62.2457 156.2 62.2661C152.122 62.2967 149.17 55.6671 149.17 55.6671C149.17 55.6671 143.828 58.9836 140.447 58.4569C137.066 57.9302 137.229 53.387 137.229 53.387C134.959 57.4443 132.539 62.3511 132.356 64.8384C132.06 68.855 135.152 72.8137 135.152 72.8137Z" fill="#E0E2FF"/>
<path d="M149.153 56.9483C149.007 55.8332 148.962 54.7074 149.017 53.5842C149.056 52.456 149.182 51.3324 149.394 50.2235C149.589 49.0897 149.978 47.9979 150.542 46.9954C150.84 46.4627 151.31 46.0469 151.875 45.8162C152.164 45.7189 152.474 45.7036 152.772 45.772C152.911 45.8196 153.05 45.8672 153.179 45.9216L153.543 46.1424L153.145 46.0167C153.009 45.9929 152.877 45.9759 152.744 45.9589C152.487 45.9473 152.232 46.0036 152.004 46.1221C151.561 46.3879 151.212 46.7844 151.005 47.257C150.77 47.7414 150.582 48.2465 150.441 48.7658C150.288 49.2857 150.162 49.8192 150.06 50.356C149.958 50.8929 149.859 51.4366 149.778 51.9837C149.696 52.5308 149.622 53.0779 149.543 53.6284C149.408 54.7294 149.268 55.8337 149.153 56.9483Z" fill="#E0E2FF"/>
<path d="M136.814 54.1313C137.187 53.0924 137.63 52.0808 138.143 51.1036C138.652 50.1191 139.219 49.1659 139.842 48.2492C140.158 47.7939 140.484 47.3454 140.834 46.9104C141.189 46.4778 141.569 46.0671 141.973 45.6803C142.378 45.2809 142.835 44.938 143.332 44.6609C143.576 44.5095 143.851 44.4139 144.136 44.381C144.422 44.3481 144.711 44.3787 144.983 44.4706C144.719 44.4484 144.452 44.4786 144.199 44.5597C143.946 44.6408 143.711 44.771 143.509 44.9429C143.085 45.2666 142.696 45.6346 142.35 46.0405C141.647 46.8604 140.996 47.7228 140.399 48.623C139.781 49.5167 139.2 50.4376 138.609 51.3415C138.017 52.2454 137.436 53.2172 136.814 54.1313Z" fill="#E0E2FF"/>
<path d="M170.894 83.8711H156.415L156.201 62.2661C159.259 62.2458 161.179 59.3506 161.927 57.937C167.503 69.4021 170.894 83.8711 170.894 83.8711Z" fill="#263238"/>
<path d="M149.364 45.0854C149.183 45.7073 145.965 49.6321 143.098 49.3432C142.163 49.2481 142.455 44.1272 142.455 44.1272L142.391 43.7466L141.49 38.3879L147.923 34.7281L148.85 34.2456C148.85 34.2456 149 35.7306 149.17 37.5791C149.17 37.6641 149.187 37.749 149.194 37.8408C149.2 37.9325 149.217 38.0446 149.224 38.1398C149.255 38.4184 149.282 38.7005 149.306 38.9791C149.323 39.1932 149.34 39.4005 149.35 39.6281C149.36 39.8558 149.377 40.0733 149.394 40.3078C149.493 41.8991 149.483 43.4955 149.364 45.0854Z" fill="#EB9481"/>
<path d="M149.17 37.5757C148.555 39.0344 147.63 40.3418 146.46 41.4074C145.289 42.473 143.901 43.2711 142.391 43.7466L141.49 38.3879L147.923 34.7281L148.85 34.2456C148.85 34.2456 148.99 35.7272 149.17 37.5757Z" fill="#263238"/>
<path d="M134.593 30.1476C133.754 39.6622 139.35 41.2253 141.389 41.4054C143.248 41.5652 149.602 41.8812 151.42 32.5161C153.238 23.151 149.082 19.7597 144.848 19.1617C140.614 18.5636 135.432 20.6466 134.593 30.1476Z" fill="#EB9481"/>
<path d="M136.166 28.4077C136.384 28.3879 136.601 28.3561 136.815 28.3126C137.05 28.3121 137.278 28.2345 137.464 28.0917C137.514 28.0353 137.544 27.964 137.549 27.889C137.554 27.814 137.533 27.7395 137.492 27.6771C137.39 27.5667 137.261 27.4855 137.118 27.4418C136.974 27.3982 136.822 27.3938 136.676 27.4291C136.37 27.4516 136.084 27.5887 135.874 27.813C135.83 27.867 135.802 27.9326 135.793 28.0021C135.785 28.0716 135.797 28.1419 135.828 28.2046C135.859 28.2674 135.907 28.32 135.967 28.356C136.027 28.392 136.096 28.4099 136.166 28.4077Z" fill="#263238"/>
<path d="M142.738 29.0398C142.517 28.999 142.32 28.9242 142.106 28.8631C141.873 28.8319 141.656 28.7244 141.491 28.5572C141.45 28.4948 141.431 28.4208 141.436 28.3465C141.442 28.2722 141.472 28.2018 141.521 28.1461C141.635 28.0486 141.773 27.9839 141.921 27.9588C142.069 27.9336 142.221 27.949 142.361 28.0034C142.661 28.066 142.927 28.2395 143.105 28.4893C143.143 28.5483 143.163 28.6173 143.163 28.6876C143.162 28.758 143.141 28.8267 143.102 28.8853C143.063 28.9438 143.008 28.9897 142.943 29.0171C142.878 29.0446 142.807 29.0524 142.738 29.0398Z" fill="#263238"/>
<path d="M141.313 31.3608C141.313 31.3336 141.361 31.3948 141.357 31.422C141.279 32.0676 141.3 32.8186 141.867 33.0836C141.867 33.0836 141.867 33.1244 141.867 33.121C141.15 32.9511 141.136 31.9589 141.313 31.3608Z" fill="#263238"/>
<path d="M141.952 30.7354C142.999 30.7354 142.893 32.8422 141.925 32.8286C140.956 32.815 141.072 30.7218 141.952 30.7354Z" fill="#263238"/>
<path d="M142.357 30.8646C142.533 30.9937 142.697 31.2044 142.921 31.2451C143.145 31.2859 143.38 31.0718 143.556 30.8714C143.577 30.8476 143.594 30.8714 143.59 30.8951C143.59 31.2961 143.403 31.7005 142.968 31.7413C142.533 31.782 142.309 31.4015 142.231 30.9971C142.214 30.9121 142.285 30.8136 142.357 30.8646Z" fill="#263238"/>
<path d="M137.263 30.8611C137.263 30.8373 137.212 30.8917 137.212 30.9155C137.212 31.5679 137.089 32.3087 136.491 32.5024C136.474 32.5024 136.474 32.5398 136.491 32.5364C137.215 32.465 137.361 31.4796 137.263 30.8611Z" fill="#263238"/>
<path d="M136.712 30.1612C135.672 30.0355 135.503 32.1287 136.468 32.2408C137.433 32.353 137.586 30.2631 136.712 30.1612Z" fill="#263238"/>
<path d="M136.268 30.2632C136.091 30.3584 135.928 30.5487 135.714 30.5453C135.5 30.5419 135.333 30.3006 135.204 30.0729C135.204 30.0491 135.173 30.0729 135.17 30.0933C135.126 30.4909 135.224 30.919 135.605 31.0244C135.985 31.1297 136.234 30.8035 136.359 30.4127C136.383 30.3414 136.335 30.2326 136.268 30.2632Z" fill="#263238"/>
<path d="M140.747 36.3186C140.59 36.4715 140.434 36.6787 140.2 36.6991C139.958 36.6927 139.721 36.636 139.503 36.5326C139.498 36.5304 139.493 36.5297 139.488 36.5307C139.483 36.5317 139.478 36.5343 139.475 36.5381C139.471 36.5419 139.469 36.5468 139.469 36.5519C139.468 36.5571 139.47 36.5622 139.472 36.5666C139.566 36.6943 139.691 36.7947 139.837 36.8575C139.982 36.9202 140.141 36.943 140.298 36.9234C140.43 36.8883 140.55 36.8152 140.641 36.7132C140.732 36.6111 140.791 36.4845 140.811 36.3491C140.835 36.3118 140.77 36.2982 140.747 36.3186Z" fill="#263238"/>
<path d="M138.18 33.8109C138.18 33.8109 137.969 34.9186 137.942 35.3774C137.942 35.4181 139.522 35.5948 140.395 34.6366C140.433 34.5958 140.375 34.5414 140.331 34.5686C139.733 34.9451 139.03 35.118 138.326 35.0613C138.299 34.9322 138.7 33.3827 138.628 33.3623C138.272 33.3713 137.919 33.4284 137.578 33.5322C137.918 31.5206 138.598 29.5803 138.9 27.572C138.905 27.5562 138.903 27.5393 138.895 27.525C138.887 27.5106 138.873 27.5001 138.858 27.4955C138.842 27.491 138.825 27.493 138.81 27.5009C138.796 27.5089 138.786 27.5222 138.781 27.538C137.942 29.5191 137.493 31.8264 137.082 33.8958C137.031 34.1609 137.993 33.8754 138.18 33.8109Z" fill="#263238"/>
<path d="M150.508 33.25C148.194 32.9918 148.061 25.8082 148.055 24.9281C148.027 25.482 147.888 28.4248 147.654 28.5267C147.406 28.5023 147.163 28.4368 146.937 28.333C146.964 27.9813 146.964 27.6279 146.937 27.2762C146.937 27.1097 146.848 27.616 146.712 28.2514L146.291 28.0985C146.374 27.3509 146.357 26.5955 146.24 25.8524C146.192 25.5704 146.023 26.8107 145.676 27.8913C144.106 27.3374 141.84 26.5966 139.682 26.3587C139.104 26.2942 138.605 26.2636 138.163 26.25C138.224 25.3835 138.394 24.4694 138.316 24.6631C138.102 25.1738 137.94 25.7041 137.83 26.2466C137.592 26.2466 137.368 26.2466 137.167 26.2466C137.201 25.0165 137.932 23.1068 137.711 23.3922C137.061 24.2701 136.583 25.2627 136.301 26.3179C135.455 26.4131 135.21 26.5592 135.203 26.3417C135.203 25.9476 135.93 22.5563 138.791 20.249C141.897 17.7378 147.735 17.4898 150.685 21.948C150.685 21.948 153.237 23.9019 153.447 26.7597C153.658 29.6175 151.847 33.3995 150.508 33.25Z" fill="#263238"/>
<path d="M149.857 33.1141C149.857 33.1141 151.943 30.1408 153.292 30.8849C154.641 31.6291 153.068 35.9413 151.481 36.5291C151.284 36.6177 151.071 36.6657 150.855 36.6702C150.639 36.6748 150.424 36.6358 150.223 36.5555C150.022 36.4753 149.84 36.3555 149.687 36.2033C149.533 36.0511 149.412 35.8695 149.33 35.6694L149.857 33.1141Z" fill="#EB9481"/>
<path d="M152.809 32.1084C152.814 32.1102 152.818 32.1132 152.82 32.1171C152.823 32.1211 152.824 32.1257 152.824 32.1305C152.824 32.1352 152.823 32.1399 152.82 32.1438C152.818 32.1478 152.814 32.1508 152.809 32.1526C151.695 32.6011 151.11 33.6307 150.696 34.7011C151.036 34.29 151.477 34.0657 152.028 34.4599C152.058 34.4802 152.028 34.5244 151.997 34.5176C151.803 34.4539 151.593 34.4524 151.398 34.5133C151.202 34.5742 151.031 34.6945 150.907 34.8574C150.7 35.1307 150.525 35.4259 150.383 35.7375C150.329 35.8361 150.149 35.7851 150.19 35.6696C150.191 35.6606 150.191 35.6513 150.19 35.6424C150.183 34.2322 151.287 32.2511 152.809 32.1084Z" fill="#263238"/>
<path d="M159.159 50.9879C171.005 63.469 180.737 89.4201 175.039 91.8565C169.829 94.0822 153.328 92.0264 146.542 90.4089C144.548 89.9332 148.561 74.489 150.695 74.9953C153.271 75.6069 159.87 76.555 160.124 76.538C160.692 76.4972 154.348 58.3515 152.418 51.7321C149.726 42.4859 154.711 46.2986 159.159 50.9879Z" fill="#EB9481"/>
<path d="M130.16 71.4477C129.239 72.8749 130.364 74.2273 130.364 74.2273C129.599 74.5883 128.984 75.2064 128.628 75.9739C128.064 77.3569 129.987 78.8453 129.987 78.8453C129.272 79.386 128.737 80.1297 128.451 80.9793C128.043 82.3555 129.766 84.1361 129.766 84.1361C129.386 84.9927 129.326 85.9572 129.596 86.8545C130.425 89.2332 134.17 90.0793 136.545 90.6468C138.921 91.2142 146.186 90.5924 147.582 90.6128L151.341 75.4268C151.341 75.4268 141.411 69.8608 138.526 69.5923C136.093 69.3511 131.19 69.8438 130.16 71.4477Z" fill="#EB9481"/>
<path d="M130.532 74.0098C133.176 73.6293 135.785 74.0506 138.416 74.3259C138.427 74.3259 138.439 74.3305 138.447 74.3388C138.455 74.3471 138.46 74.3583 138.46 74.37C138.46 74.3818 138.455 74.393 138.447 74.4013C138.439 74.4096 138.427 74.4142 138.416 74.4142C135.802 74.1118 133.162 74.3327 130.542 74.1356C130.528 74.1336 130.514 74.1267 130.504 74.116C130.494 74.1053 130.488 74.0915 130.487 74.0768C130.485 74.0621 130.489 74.0475 130.497 74.0353C130.506 74.0231 130.518 74.0141 130.532 74.0098Z" fill="#263238"/>
<path d="M130.083 78.6584C130.692 78.6296 131.302 78.681 131.898 78.8113C132.533 78.9099 133.169 79.022 133.804 79.1511C135.075 79.389 136.338 79.6597 137.593 79.9633C137.647 79.9633 137.64 80.0652 137.593 80.055C136.325 79.8172 135.058 79.5997 133.784 79.4196C133.145 79.3267 132.506 79.2395 131.867 79.1579C131.259 79.1206 130.657 79.0158 130.073 78.8453C130.048 78.844 130.025 78.8328 130.008 78.8143C129.992 78.7959 129.983 78.7715 129.985 78.7468C129.986 78.722 129.997 78.6987 130.015 78.6822C130.034 78.6656 130.058 78.6571 130.083 78.6584Z" fill="#263238"/>
<path d="M129.818 84.1465C130.338 84.0649 130.936 84.2654 131.442 84.3707C132.02 84.4931 132.594 84.6086 133.172 84.7106C134.327 84.9416 135.483 85.1693 136.645 85.3596C136.703 85.3596 136.693 85.4581 136.645 85.4479C135.462 85.2644 134.266 85.1081 133.097 84.8974L131.361 84.5984C130.825 84.5537 130.302 84.4145 129.815 84.1872C129.81 84.1812 129.808 84.1737 129.809 84.1662C129.809 84.1587 129.813 84.1517 129.818 84.1465Z" fill="#263238"/>
<path d="M133.468 69.9357C132.262 70.0648 130.879 70.2993 130.07 71.2949C129.699 71.7205 129.509 72.274 129.54 72.8376C129.597 73.3647 129.852 73.8505 130.254 74.1969C129.77 74.342 129.336 74.6203 129.003 75C128.669 75.3798 128.449 75.8457 128.368 76.3445C128.344 76.5944 128.372 76.8466 128.449 77.0856C128.526 77.3246 128.651 77.5453 128.816 77.7343C128.976 77.9347 129.156 78.1114 129.34 78.2949C129.523 78.4784 129.717 78.6348 129.9 78.7945C129.695 78.9506 129.501 79.1209 129.319 79.3042C129.116 79.4922 128.932 79.6993 128.769 79.9226C128.438 80.3679 128.245 80.901 128.215 81.4551C128.229 82.0062 128.409 82.5402 128.731 82.9877C128.991 83.4475 129.361 83.8352 129.809 84.1158C129.836 84.1158 129.863 84.0954 129.843 84.0751C129.49 83.7407 129.194 83.3517 128.966 82.9231C128.69 82.4669 128.546 81.9438 128.548 81.411C128.6 80.9058 128.782 80.4225 129.075 80.0076C129.219 79.7839 129.375 79.5684 129.543 79.3619C129.683 79.192 130.046 78.8454 130.012 78.8216C129.978 78.7979 129.628 78.3969 129.496 78.2168C129.363 78.0367 129.227 77.8396 129.105 77.6425C128.847 77.2647 128.739 76.8043 128.803 76.3512C128.89 75.9299 129.089 75.54 129.38 75.2231C129.669 74.8833 130.033 74.642 130.335 74.326C130.355 74.291 130.361 74.2497 130.352 74.2105C129.71 73.1605 129.815 72.1716 130.543 71.4342C130.911 71.0699 131.34 70.7721 131.81 70.5541C132.348 70.3222 132.904 70.1335 133.472 69.9901C133.512 69.9901 133.506 69.9323 133.468 69.9357Z" fill="#263238"/>
<path d="M156.75 65.1444C156.573 64.4478 156.376 63.758 156.172 63.0648C155.765 61.6749 155.343 60.2817 154.813 58.9293C154.518 58.1647 154.191 57.4138 153.875 56.656C153.875 56.656 153.855 56.656 153.858 56.656C154.147 57.6143 154.412 58.5793 154.701 59.5376C154.405 58.9803 154.072 58.4468 153.79 57.8861C153.79 57.8555 153.733 57.8861 153.746 57.9133C154.038 58.4944 154.276 59.0992 154.552 59.6871C154.708 60.0269 154.891 60.3463 155.058 60.6657C155.058 60.7065 155.082 60.7473 155.095 60.7847C155.557 62.1609 156.006 63.5439 156.475 64.9167C156.737 65.6881 157.022 66.4594 157.236 67.2444C157.239 67.2502 157.244 67.2547 157.25 67.2571C157.256 67.2596 157.263 67.2598 157.269 67.2577C157.275 67.2557 157.28 67.2515 157.284 67.2459C157.287 67.2404 157.288 67.2338 157.287 67.2274C157.083 66.5478 156.927 65.841 156.75 65.1444Z" fill="#263238"/>
<path d="M170.14 81.0474C169.391 80.4309 168.588 79.8838 167.741 79.4129C166.92 78.9107 166.062 78.4722 165.175 78.1013C162.34 76.9664 159.357 76.2477 156.316 75.9673C156.309 75.9673 156.302 75.9702 156.297 75.9752C156.292 75.9803 156.289 75.9873 156.289 75.9945C156.289 76.0017 156.292 76.0086 156.297 76.0137C156.302 76.0188 156.309 76.0217 156.316 76.0217C156.833 76.1168 162.351 77.4387 164.669 78.3391C165.552 78.6789 166.402 79.1105 167.248 79.542C167.733 79.7867 168.211 80.0416 168.682 80.3066C169.154 80.5751 169.606 80.8741 170.082 81.129C170.093 81.1337 170.105 81.1346 170.116 81.1315C170.127 81.1284 170.137 81.1214 170.144 81.1118C170.151 81.1022 170.154 81.0906 170.153 81.0788C170.153 81.0671 170.148 81.056 170.14 81.0474Z" fill="#263238"/>
<path d="M55.668 50.39C58.0977 54.7599 74.7482 71.458 84.188 71.8726C94.9837 72.3517 115.189 65.9532 116.83 64.5532C121.322 60.7133 116.021 49.3366 112.548 49.5507C108.219 49.8157 87.6982 56.5133 84.4157 56.1599C79.2914 55.606 67.8569 48.0046 59.671 44.1138C54.9103 41.8473 53.7991 47.0259 55.668 50.39Z" fill="#EB9481"/>
<path d="M115.062 65.3824C116.027 64.9576 123.649 62.2935 126.901 59.0178C128.624 57.2848 132.824 51.9804 131.899 50.8013C131.053 49.7241 129.548 50.8964 129.548 50.8964C129.548 50.8964 131.383 48.5178 130.194 47.0192C129.004 45.5207 126.561 47.6411 126.561 47.6411C126.561 47.6411 128.26 45.0483 126.976 43.6551C125.691 42.2619 123.578 44.7867 123.578 44.7867C123.578 44.7867 125.249 42.4896 123.7 41.7896C121.838 40.9469 119.231 45.5275 117.016 47.0838C116.513 47.4236 106.309 53.5095 106.309 53.5095L115.062 65.3824Z" fill="#EB9481"/>
<path d="M123.477 44.7663C121.554 48.1338 120.13 49.2755 116.762 51.0697C116.694 51.1037 116.732 51.209 116.803 51.1784C120.266 49.7241 122.257 48.5517 123.643 44.8512C123.711 44.6711 123.569 44.6066 123.477 44.7663Z" fill="#263238"/>
<path d="M126.456 47.6071C124.156 50.9304 122.62 52.1809 119.229 54.3182C119.181 54.3488 119.229 54.4338 119.28 54.4066C122.78 52.5886 124.74 51.3721 126.606 47.7498C126.691 47.5867 126.562 47.4541 126.456 47.6071Z" fill="#263238"/>
<path d="M129.383 50.9949C126.919 54.0531 125.305 55.4939 121.74 57.1454C121.722 57.1521 121.708 57.1658 121.7 57.1833C121.692 57.2008 121.691 57.2208 121.698 57.2388C121.705 57.2568 121.718 57.2714 121.736 57.2794C121.753 57.2874 121.773 57.288 121.791 57.2813C125.587 55.9492 127.623 54.1619 129.468 51.0798C129.593 50.8691 129.536 50.8012 129.383 50.9949Z" fill="#263238"/>
<path d="M103.227 52.9997C103.227 52.9997 106.173 49.1361 107.841 47.7259C109.51 46.3157 117.665 43.3423 118.409 45.0652C119.367 47.3079 115.008 49.9414 112.687 50.9608C112.687 50.9608 114.906 56.1123 112.18 58.688C109.455 61.2638 103.227 52.9997 103.227 52.9997Z" fill="#EB9481"/>
<path d="M118.471 45.7788C117.88 48.4395 114.764 49.5745 112.596 50.7264C112.563 50.7418 112.534 50.7649 112.512 50.7938C112.49 50.8227 112.476 50.8564 112.47 50.8922C112.464 50.9279 112.467 50.9646 112.478 50.999C112.489 51.0335 112.509 51.0647 112.534 51.09C113.319 53.3123 113.785 56.673 112.334 58.6949C112.324 58.7066 112.319 58.7218 112.321 58.7371C112.322 58.7524 112.329 58.7665 112.341 58.7764C112.353 58.7863 112.368 58.7912 112.383 58.7899C112.398 58.7886 112.412 58.7813 112.422 58.7696C114.271 56.8123 114.084 53.472 113.068 51.0968C115.307 49.9482 118.386 48.6706 118.505 45.7822L118.471 45.7788Z" fill="#263238"/>
<path d="M55.6141 51.6404C57.4762 54.42 72.5501 70.8735 82.4792 72.2395C89.1734 73.1604 100.747 71.8351 105.124 70.8633L99.0856 52.1399C99.0856 52.1399 88.7827 55.9356 84.8137 55.6162C80.8448 55.2967 65.0302 45.8195 59.1651 43.638C56.6743 42.7069 55.169 43.2981 54.4758 44.5894C53.5311 46.3122 54.0612 49.3195 55.6141 51.6404Z" fill="#E1E2FF"/>
<path d="M101.757 70.5031C100.768 67.7337 97.1287 56.2312 96.5068 53.7064C96.4627 53.5297 96.5646 53.4584 96.6326 53.6351C99.7894 61.8618 101.03 67.6895 101.862 70.4589C101.879 70.5269 101.777 70.571 101.757 70.5031Z" fill="#263238"/>
<path d="M54.3828 46.0778C55.3261 46.0907 56.2563 45.8564 57.0809 45.3982C56.611 45.3849 56.1418 45.4399 55.6877 45.5613C55.231 45.6725 54.7919 45.8463 54.3828 46.0778Z" fill="#263238"/>
<path d="M62.3725 48.7351C62.0319 49.0591 61.739 49.4298 61.5026 49.8361C61.2561 50.2365 61.0685 50.6702 60.9453 51.1239C61.6198 50.4687 62.1117 49.6488 62.3725 48.7453V48.7351Z" fill="#263238"/>
<path d="M66.131 58.8036C65.807 58.4631 65.4364 58.1702 65.0301 57.9337C64.6297 57.6873 64.1959 57.4996 63.7422 57.3765C64.3975 58.051 65.2173 58.5429 66.1208 58.8036H66.131Z" fill="#263238"/>
<path d="M71.8521 67.1324C64.1861 61.6411 56.9006 53.5061 55.6229 51.627C54.07 49.3197 53.5399 46.3124 54.4744 44.576C55.154 43.2847 56.6729 42.6935 59.1637 43.6245C59.6666 43.8114 60.2409 44.0527 60.8628 44.3347C63.5099 49.9857 68.2094 59.677 71.8521 67.1324Z" fill="#263238"/>
<path d="M71.0578 83.7725L34.1582 83.8711C34.1582 83.8711 38.348 56.5336 51.8995 43.5156C53.5748 41.9049 57.5097 42.0952 60.1195 43.2642C61.0505 43.6787 64.5166 48.1336 65.6277 52.439C66.7389 56.7443 71.153 83.64 71.0578 83.7725Z" fill="#E1E2FF"/>
<path d="M44.9166 64.6074C44.9032 65.5497 45.1375 66.4789 45.5962 67.3021C45.6092 66.8323 45.5543 66.363 45.4331 65.9089C45.3213 65.4535 45.1475 65.0156 44.9166 64.6074Z" fill="#263238"/>
<path d="M50.6426 60.1695C51.1124 60.1781 51.5812 60.1221 52.0358 60.003C52.4934 59.8948 52.933 59.7209 53.3406 59.4865C52.3971 59.4715 51.4664 59.706 50.6426 60.1661V60.1695Z" fill="#263238"/>
<path d="M44.1055 74.5774C45.0485 74.588 45.9781 74.3538 46.8035 73.8978C46.3335 73.8859 45.8643 73.942 45.4103 74.0643C44.9533 74.1729 44.514 74.3456 44.1055 74.5774Z" fill="#263238"/>
<path d="M61.0547 80.4085C61.5245 80.4175 61.9934 80.3615 62.4479 80.242C62.9055 80.1339 63.3451 79.9599 63.7528 79.7255C62.8092 79.7106 61.8785 79.945 61.0547 80.4051V80.4085Z" fill="#263238"/>
<path d="M43.6484 82.8618C44.1184 82.8721 44.5874 82.816 45.0416 82.6953C45.5063 82.589 45.9528 82.415 46.3669 82.1788C45.4239 82.1683 44.4943 82.4024 43.6688 82.8584L43.6484 82.8618Z" fill="#263238"/>
<path d="M54.3457 45.3675C54.8155 45.3761 55.2843 45.3201 55.7389 45.201C56.1966 45.0929 56.6361 44.9189 57.0438 44.6845C56.1003 44.6695 55.1695 44.904 54.3457 45.3641V45.3675Z" fill="#263238"/>
<path d="M50.1049 48.3035C49.4299 48.9583 48.9379 49.7783 48.6777 50.6821C49.3511 50.026 49.8429 49.2064 50.1049 48.3035Z" fill="#263238"/>
<path d="M39.8437 66.9011C39.5034 67.2245 39.2115 67.5953 38.9772 68.0021C38.7293 68.4018 38.5416 68.8357 38.4199 69.29C38.7605 68.9668 39.0523 68.5959 39.2864 68.189C39.5317 67.788 39.7193 67.3544 39.8437 66.9011Z" fill="#263238"/>
<path d="M52.5761 76.9526C52.2375 77.2788 51.9459 77.6505 51.7096 78.057C51.4632 78.4574 51.2755 78.8911 51.1523 79.3449C51.8261 78.6896 52.3169 77.8696 52.5761 76.9662V76.9526Z" fill="#263238"/>
<path d="M63.1777 48.9663C62.5027 49.6206 62.0116 50.4409 61.7539 51.345C62.0942 51.0216 62.3861 50.6508 62.6204 50.244C62.8654 49.8465 63.053 49.4163 63.1777 48.9663Z" fill="#263238"/>
<path d="M39.3336 78.2439C39.0085 77.9032 38.6366 77.6103 38.2293 77.374C37.8295 77.1272 37.3955 76.9406 36.9414 76.8201C37.5991 77.4908 38.4182 77.9811 39.3201 78.2439H39.3336Z" fill="#263238"/>
<path d="M46.5172 57.757C46.1921 57.4163 45.8202 57.1235 45.4129 56.8871C45.0125 56.6407 44.5788 56.453 44.125 56.3298C44.7811 57.0032 45.6007 57.495 46.5036 57.757H46.5172Z" fill="#263238"/>
<path d="M66.0181 54.2128C66.3579 55.1676 66.623 56.1633 66.8608 57.1623V57.0468C66.8608 56.4793 66.8337 55.9016 66.8608 55.3477C66.8608 55.3206 66.9084 55.307 66.9152 55.3477C67.0115 55.9155 67.0502 56.4916 67.0307 57.0672C67.0307 57.339 67.0307 57.6108 67.0104 57.8827C67.1055 58.3312 67.1938 58.7798 67.2686 59.2419C67.4113 60.0948 67.8293 63.2686 67.8769 63.9007C67.8769 64.0332 67.7375 64.0604 67.6934 63.9245C67.4963 63.289 66.905 60.0235 66.7249 59.1842C66.3744 57.5562 66.1135 55.9102 65.9434 54.2536C65.9502 54.1822 66.0079 54.1788 66.0181 54.2128Z" fill="#263238"/>
<path d="M59.3997 50.1894C57.1603 50.4952 53.7215 46.7913 52.4982 43.9234C52.4132 43.7263 52.889 41.7928 53.3545 39.4175C53.6332 37.9733 53.905 36.3593 54.0341 34.8675C54.0613 34.5617 55.0535 35.2243 55.0535 35.2243L56.9361 35.8767L63.1817 38.0481C63.1817 38.0481 61.9584 41.086 61.724 43.6855C61.7052 43.8912 61.7052 44.0982 61.724 44.3039C61.724 44.3345 61.724 44.3685 61.724 44.4093C61.8123 45.5816 61.5676 49.8904 59.3997 50.1894Z" fill="#EB9481"/>
<path d="M61.7304 44.2972C61.7304 44.3278 61.7304 44.3618 61.7304 44.4026C61.4081 44.4122 61.0855 44.3974 60.7654 44.3584C54.4823 43.6108 54.4688 35.5234 54.4688 35.5234L56.9459 35.8632L63.1814 38.0482C63.1814 38.0482 61.9581 41.0861 61.7236 43.6856C61.7075 43.8893 61.7098 44.094 61.7304 44.2972Z" fill="#263238"/>
<path d="M53.3306 23.3075C52.0937 26.5628 53.1946 36.2847 55.4136 38.5988C58.6316 41.9323 64.2214 42.6119 67.1369 38.6702C69.9641 34.8507 68.3025 22.2099 65.7777 20.0861C62.0976 16.9429 55.1621 18.5026 53.3306 23.3075Z" fill="#EB9481"/>
<path d="M62.0557 30.168C62.0557 30.1442 62.0082 30.2054 62.0116 30.2325C62.1033 30.885 62.0999 31.6495 61.529 31.9316C61.512 31.9316 61.529 31.9758 61.529 31.969C62.2528 31.7855 62.2494 30.7728 62.0557 30.168Z" fill="#263238"/>
<path d="M61.398 29.5529C60.3378 29.5869 60.4839 31.7073 61.466 31.6767C62.448 31.6461 62.2883 29.5189 61.398 29.5529Z" fill="#263238"/>
<path d="M66.0765 29.8011C66.0765 29.7773 66.1309 29.8283 66.1309 29.8554C66.1547 30.5147 66.294 31.2656 66.9056 31.4423V31.4797C66.1751 31.4288 66.0018 30.4297 66.0765 29.8011Z" fill="#263238"/>
<path d="M66.6235 29.0738C67.6735 28.9209 67.9046 31.0345 66.9293 31.1772C65.9541 31.32 65.7366 29.2131 66.6235 29.0738Z" fill="#263238"/>
<path d="M60.4938 28.6355C60.7674 28.5376 61.0351 28.4242 61.2957 28.2957C61.5957 28.2139 61.8599 28.0346 62.0467 27.786C62.09 27.6967 62.1025 27.5956 62.0823 27.4984C62.062 27.4013 62.01 27.3136 61.9346 27.2491C61.7669 27.143 61.5739 27.0836 61.3756 27.077C61.1772 27.0705 60.9807 27.117 60.8064 27.2117C60.4236 27.3499 60.1054 27.6246 59.9127 27.9831C59.8751 28.0673 59.8626 28.1606 59.8768 28.2518C59.8909 28.343 59.9311 28.4281 59.9924 28.497C60.0538 28.566 60.1337 28.6157 60.2227 28.6402C60.3116 28.6648 60.4058 28.6632 60.4938 28.6355Z" fill="#263238"/>
<path d="M67.3671 27.9492C67.079 27.9114 66.7932 27.8581 66.5108 27.7895C66.1993 27.7715 65.9021 27.6522 65.6647 27.4497C65.6035 27.371 65.5703 27.2741 65.5703 27.1744C65.5703 27.0747 65.6035 26.9779 65.6647 26.8992C65.8041 26.758 65.979 26.657 66.1709 26.6068C66.3629 26.5565 66.5648 26.559 66.7555 26.6137C67.1521 26.6705 67.5145 26.8698 67.7749 27.1744C67.8323 27.2472 67.8673 27.335 67.8758 27.4273C67.8843 27.5195 67.8658 27.6123 67.8227 27.6942C67.7795 27.7762 67.7135 27.844 67.6327 27.8892C67.5518 27.9344 67.4596 27.9553 67.3671 27.9492Z" fill="#263238"/>
<path d="M61.9063 36.0943C62.0728 36.2371 62.2461 36.4342 62.484 36.4342C62.7228 36.4102 62.9541 36.3373 63.1636 36.2201C63.184 36.2201 63.2077 36.2201 63.1941 36.2507C63.1098 36.3868 62.9899 36.4974 62.8474 36.5704C62.7049 36.6435 62.5452 36.6762 62.3854 36.6652C62.2491 36.64 62.1234 36.5748 62.0242 36.478C61.925 36.3812 61.8568 36.2571 61.8281 36.1215C61.8315 36.091 61.8825 36.074 61.9063 36.0943Z" fill="#263238"/>
<path d="M62.4601 34.0758C62.6441 34.3253 62.8782 34.5336 63.1474 34.6875C63.4165 34.8413 63.7148 34.9374 64.0232 34.9695C64.2923 35.0017 64.5647 34.9949 64.8319 34.9491C64.8826 34.9456 64.9328 34.9365 64.9814 34.9219L65.1242 34.8913C65.1589 34.8823 65.1897 34.8622 65.2118 34.8339C65.234 34.8056 65.2461 34.7709 65.2465 34.735C65.2481 34.7135 65.2481 34.6919 65.2465 34.6704V34.6127C65.2261 34.1064 65.1242 33.3418 65.1242 33.3418C65.3145 33.4199 66.2863 33.7801 66.2523 33.5151C65.9703 31.3369 65.6577 28.9107 64.9169 26.8039C64.9121 26.7899 64.9024 26.778 64.8895 26.7706C64.8767 26.7632 64.8615 26.7607 64.847 26.7636C64.8324 26.7665 64.8194 26.7747 64.8104 26.7864C64.8014 26.7982 64.797 26.8129 64.798 26.8277C64.9848 28.9345 65.5421 30.9903 65.7664 33.1039C65.421 32.9703 65.0583 32.8867 64.6892 32.8559C64.6179 32.8831 64.9135 34.334 64.9033 34.5549C64.9042 34.5628 64.9042 34.5708 64.9033 34.5787C64.0606 34.7486 63.4013 34.5345 62.5246 34.0214C62.4669 33.9704 62.4159 34.0282 62.4601 34.0758Z" fill="#263238"/>
<path d="M64.5134 34.7147C64.2574 35.0973 63.906 35.4065 63.494 35.6118C63.2698 35.7185 63.0177 35.7518 62.7736 35.7069C62.2401 35.605 62.1925 35.1258 62.2605 34.7079C62.2981 34.4848 62.362 34.2669 62.4508 34.0588C63.0496 34.4942 63.7731 34.7243 64.5134 34.7147Z" fill="#263238"/>
<path d="M63.5076 35.6119C63.2835 35.7187 63.0314 35.752 62.7872 35.707C62.2537 35.6051 62.2062 35.126 62.2741 34.708C62.8416 34.725 63.4227 35.0682 63.5076 35.6119Z" fill="#FF99BA"/>
<path d="M53.1631 22.4986C54.8621 17.7413 62.7218 17.7413 64.866 19.1923C65.4692 19.5845 65.9885 20.0925 66.3939 20.6869C66.7993 21.2813 67.0827 21.9502 67.2277 22.6549C67.2277 22.6549 66.7214 21.4316 65.8684 21.435C65.0155 21.4384 65.1684 22.2947 63.9078 22.6719C62.766 23.0117 61.1553 21.853 59.2252 22.1826C58.3906 22.3053 57.6177 22.694 57.0215 23.2908C56.4252 23.8877 56.0374 24.6609 55.9155 25.4957C55.6606 27.0724 55.8577 33.437 54.5563 33.7564C53.2548 34.0758 51.8038 26.3452 53.1631 22.4986Z" fill="#263238"/>
<path d="M55.6552 31.4356C55.6552 31.4356 53.6163 28.2244 52.1858 28.9312C50.7552 29.638 52.1552 34.222 53.7828 34.9186C53.9858 35.0204 54.207 35.0805 54.4335 35.0953C54.66 35.1101 54.8872 35.0794 55.1017 35.005C55.3161 34.9305 55.5135 34.8139 55.6821 34.6619C55.8507 34.5099 55.9871 34.3257 56.0833 34.1201L55.6552 31.4356Z" fill="#EB9481"/>
<path d="M52.6243 30.2327C52.6199 30.2344 52.6161 30.2375 52.6135 30.2414C52.6108 30.2454 52.6094 30.25 52.6094 30.2548C52.6094 30.2595 52.6108 30.2642 52.6135 30.2681C52.6161 30.272 52.6199 30.2751 52.6243 30.2768C53.7627 30.8001 54.3234 31.9079 54.6972 33.0429C54.3573 32.5977 53.9122 32.3395 53.3175 32.7235C53.287 32.7438 53.3175 32.7914 53.3447 32.788C53.552 32.7321 53.7716 32.7419 53.9731 32.8162C54.1746 32.8905 54.3481 33.0255 54.4695 33.2026C54.6698 33.4996 54.8373 33.8175 54.969 34.1506C55.02 34.256 55.2103 34.2118 55.1763 34.0895C55.1748 34.0805 55.1748 34.0713 55.1763 34.0623C55.2578 32.5875 54.2044 30.4603 52.6243 30.2327Z" fill="#263238"/>
<path d="M45.93 52.6598C42.4163 59.0108 34.3391 83.3647 39.844 87.9691C46.6741 93.6915 67.7082 93.1614 72.3261 93.2463C74.3344 93.2837 76.7131 79.1647 75.1397 77.7036C73.5664 76.2424 51.2004 77.024 50.2149 75.7701C49.8105 75.2502 54.0411 57.4409 52.6989 49.7782C51.3159 41.9117 47.5135 49.7782 45.93 52.6598Z" fill="#EB9481"/>
<path d="M53.4358 46.8152C56.1984 53.2715 50.2348 74.5231 50.9824 75.1075C51.73 75.692 69.1655 75.9842 69.1655 75.9842L67.1742 95.2071C63.6504 95.1697 40.3974 93.0085 37.2712 86.9668C34.145 80.925 40.6693 59.8774 44.8863 51.8341C47.9751 45.9963 51.5363 42.3637 53.4358 46.8152Z" fill="#E1E2FF"/>
<path d="M46.7456 74.01C48.1456 74.2036 49.5218 74.4381 50.9082 74.6182C50.9014 74.588 50.9014 74.5567 50.9082 74.5265L50.9286 74.3905C50.0919 73.9595 49.2098 73.6233 48.2985 73.3881C48.2407 73.3677 48.2475 73.2658 48.2985 73.2726C49.2246 73.3337 50.1341 73.5484 50.9898 73.908C52.0318 67.5989 53.1498 61.3001 54.3437 55.0114C54.3437 54.991 54.3844 54.9944 54.3844 55.0114C54.1828 56.6945 53.9687 58.3754 53.7422 60.0541C54.0106 59.2148 54.3403 58.3788 54.5985 57.5701C54.6036 57.562 54.6113 57.5557 54.6202 57.5523C54.6292 57.5489 54.639 57.5485 54.6483 57.5512C54.6575 57.5539 54.6656 57.5595 54.6713 57.5672C54.677 57.5749 54.6801 57.5843 54.6801 57.5939C54.449 58.9531 54.2043 60.54 53.5451 61.7735C53.5431 61.786 53.5384 61.798 53.5314 61.8085C53.5244 61.8191 53.5151 61.828 53.5043 61.8347C52.9199 65.9667 52.2538 70.0852 51.4655 74.1833C51.7066 74.338 51.9231 74.5282 52.1077 74.7473C54.1704 75.3046 68.8568 75.5119 69.0981 75.7396C69.3393 75.9673 69.1626 77.3197 69.0301 78.5702C69.0301 78.6789 68.8466 78.7537 68.8534 78.6449C68.9078 77.8226 68.9927 76.2663 68.8296 76.2119C68.602 76.1405 53.6776 76.5857 46.681 74.1459C46.5961 74.1187 46.6674 73.9998 46.7456 74.01Z" fill="#263238"/>
<path d="M61.9062 90.98C61.5656 91.3044 61.2737 91.6763 61.0397 92.0844C60.7918 92.484 60.6041 92.9179 60.4824 93.3722C60.8238 93.0486 61.1158 92.6765 61.3489 92.2679C61.5954 91.8675 61.7831 91.4337 61.9062 90.98Z" fill="#263238"/>
<path d="M70.5891 77.0071C70.5891 77.0071 74.6974 77.1294 75.7134 77.2246C76.7294 77.3197 86.927 75.1586 90.1722 77.1634C92.4659 78.5838 97.6479 84.979 97.1382 89.2809C96.8256 91.8805 93.9407 92.0775 93.9407 92.0775C93.9407 92.0775 93.5227 93.661 92.2756 94.1538C91.8336 94.3375 91.3572 94.4241 90.8788 94.4077C90.4004 94.3913 89.9312 94.2722 89.5028 94.0586C89.359 94.5327 89.0915 94.9598 88.7278 95.2961C88.364 95.6324 87.9172 95.8656 87.4334 95.9717C85.3945 96.4305 84.4872 95.2242 84.4872 95.2242C83.6496 96.1263 82.5138 96.6948 81.2896 96.8246C78.3435 97.0659 74.3542 95.4246 73.8853 94.2387C73.1173 92.3018 76.4882 92.2237 78.7989 92.4275C78.7989 92.4275 77.9629 92.3664 77.7964 91.2042C77.7964 91.2042 76.4814 94.2829 69.3828 92.9542L70.5891 77.0071Z" fill="#EB9481"/>
<path d="M80.9259 82.3286C82.591 84.0276 83.7769 86.3825 84.6638 88.5742C85.5507 90.766 85.9755 93.1514 84.6366 95.2208C84.6247 95.2368 84.6076 95.248 84.5882 95.2526C84.5688 95.2571 84.5485 95.2547 84.5307 95.2459C84.5129 95.237 84.4988 95.2221 84.4908 95.2039C84.4829 95.1856 84.4816 95.1652 84.4871 95.1461C85.6663 92.7674 84.9119 90.3106 83.9095 88.0101C83.0497 86.0461 82.1696 84.1092 80.7696 82.4645C80.6881 82.3795 80.8376 82.2402 80.9259 82.3286Z" fill="#263238"/>
<path d="M85.4219 81.4144C88.1642 84.3979 91.5384 89.8653 89.5676 94.0212C89.5635 94.0325 89.5551 94.0416 89.5443 94.0467C89.5335 94.0518 89.5211 94.0524 89.5098 94.0484C89.4985 94.0443 89.4893 94.036 89.4842 94.0251C89.4791 94.0143 89.4786 94.0019 89.4826 93.9906C90.5598 89.4134 87.7836 85.1081 85.2996 81.5163C85.2452 81.4415 85.3574 81.343 85.4219 81.4144Z" fill="#263238"/>
<path d="M89.5536 80.2624C91.1575 81.6522 92.3706 83.6435 93.3119 85.526C94.3313 87.5648 94.7458 89.8245 94.0628 92.0435C94.0587 92.054 94.0509 92.0627 94.0409 92.0681C94.0309 92.0734 94.0193 92.075 94.0082 92.0725C93.9972 92.07 93.9874 92.0637 93.9805 92.0547C93.9737 92.0456 93.9704 92.0344 93.9711 92.0231C94.4094 87.5172 92.3196 83.7012 89.4245 80.3779C89.3599 80.3032 89.4822 80.2012 89.5536 80.2624Z" fill="#263238"/>
<path d="M73.8711 93.3585C73.8711 93.3823 73.8711 93.4061 73.9017 93.3857C74.9721 92.2881 76.7968 92.2881 78.5332 92.543C78.5442 92.5489 78.5565 92.552 78.5689 92.552C78.5814 92.552 78.5936 92.5489 78.6046 92.543C79.6682 92.7061 80.691 92.9609 81.4794 93.1173C81.505 93.1216 81.5313 93.1166 81.5535 93.1033C81.5758 93.0899 81.5925 93.0691 81.6007 93.0444C81.6089 93.0198 81.6081 92.9931 81.5983 92.969C81.5885 92.945 81.5704 92.9252 81.5473 92.9134C80.5917 92.4637 79.571 92.1679 78.5231 92.0367C78.3318 91.7242 78.2015 91.3783 78.1391 91.0172C78.0955 90.4543 78.2273 89.8917 78.5163 89.4066C78.5163 89.3794 78.4925 89.359 78.4721 89.3794C78.2454 89.5908 78.0673 89.8488 77.95 90.1357C77.8327 90.4225 77.7789 90.7314 77.7925 91.041C77.7925 91.0614 77.7925 91.0852 77.7925 91.109C77.6876 91.3254 77.5475 91.5229 77.3779 91.6935C77.2702 91.7908 77.1567 91.8816 77.0381 91.9653C75.7604 92.0197 74.5405 92.3969 73.8711 93.3585ZM78.0439 91.9993C77.8672 91.9993 77.6871 91.9789 77.507 91.9721C77.5566 91.9157 77.6031 91.8567 77.6463 91.7954C77.7393 91.6618 77.8093 91.5137 77.8536 91.3571C77.8871 91.5778 77.9512 91.7928 78.0439 91.9959V91.9993Z" fill="#263238"/>
<path d="M61.7708 43.4511L59.7897 48.9933L52.7387 42.3467L50.9004 44.6404C50.9004 44.6404 57.9616 55.3579 57.982 54.8584L60.0514 50.0671L63.4257 53.2171L62.8446 45.0074L61.7708 43.4511Z" fill="#E1E2FF"/>
<path d="M63.3573 49.1428C63.218 47.7835 63.1127 46.4243 62.9088 45.0651C62.9088 45.0175 62.8273 45.0005 62.8171 45.0651C62.5962 46.3835 63.1569 51.552 63.2044 52.7957C63.0617 52.6564 60.0816 50.0296 60.0544 50.0772C59.5957 50.8452 58.0768 54.335 57.9748 54.651C56.8602 52.952 52.1403 46.2476 50.8389 44.6471C50.8321 44.6363 50.8213 44.6286 50.8089 44.6257C50.7965 44.6229 50.7834 44.6251 50.7726 44.6318C50.7618 44.6386 50.7541 44.6494 50.7512 44.6618C50.7484 44.6742 50.7505 44.6873 50.7573 44.6981C51.7563 46.5025 57.8593 55.3476 57.9408 55.3204C58.7485 53.6713 59.4699 51.9814 60.102 50.2573C60.6117 50.835 63.6326 53.8117 63.636 53.6112C63.6217 52.1179 63.5287 50.6263 63.3573 49.1428Z" fill="#263238"/>
<path d="M76.9816 102.295H69.7539V103.424H76.9816V102.295Z" fill="#455A64"/>
<path d="M76.9816 102.295H69.7539V103.04H76.9816V102.295Z" fill="#263238"/>
<path d="M61.1763 99.2609C61.6153 99.9139 62.2339 100.426 62.9574 100.735C63.6809 101.045 64.4785 101.138 65.2539 101.004C65.5042 100.955 65.7498 100.885 65.9879 100.793C66.3459 100.651 66.6877 100.471 67.0073 100.257L66.0865 98.8973C65.9165 99.0172 65.7356 99.1207 65.5462 99.2066C63.8268 99.9847 62.736 98.6289 62.5219 98.3197C61.5297 96.9264 61.1627 93.7459 62.1821 92.5259C62.2501 92.4342 62.5219 92.2915 63.7044 92.5259C63.9185 92.5735 64.1632 92.6279 64.4384 92.7026C64.6518 92.776 64.873 92.8239 65.0976 92.8454L65.1282 92.0298L65.2064 91.2143C65.1316 91.2143 65.0161 91.1667 64.8666 91.1225C64.3286 90.9644 63.7785 90.8507 63.2219 90.7827C62.3656 90.691 61.4685 90.7827 60.918 91.4624C59.2801 93.4774 59.936 97.5143 61.1763 99.2609Z" fill="#455A64"/>
<path d="M66.0754 98.894C65.9055 99.0139 65.7246 99.1175 65.5352 99.2033L65.9735 100.794C66.3315 100.651 66.6732 100.471 66.9929 100.257L66.0754 98.894Z" fill="#263238"/>
<path d="M63.209 90.793L63.6949 92.5362C63.909 92.5838 64.1536 92.6381 64.4289 92.7129C64.6423 92.7862 64.8635 92.8341 65.0881 92.8556L65.1187 92.0401L65.1969 91.2245C65.1221 91.2245 65.0066 91.177 64.857 91.1328C64.318 90.9744 63.7667 90.8608 63.209 90.793Z" fill="#263238"/>
<path d="M82.9781 88.6794C82.9781 88.6794 82.1116 96.0431 80.5995 99.1455C79.0874 102.248 77.0111 102.588 75.7131 102.588H71.0034C69.7053 102.588 67.6053 102.248 66.1169 99.1455C64.6286 96.0431 63.7383 88.6794 63.7383 88.6794H82.9781Z" fill="#455A64"/>
<path d="M81.5657 93.4843C81.4743 93.4843 81.3849 93.4572 81.3089 93.4064C81.2329 93.3557 81.1737 93.2835 81.1387 93.199C81.1037 93.1146 81.0946 93.0217 81.1124 92.932C81.1302 92.8424 81.1742 92.76 81.2389 92.6954C81.3035 92.6308 81.3858 92.5868 81.4755 92.5689C81.5651 92.5511 81.6581 92.5603 81.7425 92.5952C81.8269 92.6302 81.8991 92.6894 81.9499 92.7654C82.0007 92.8414 82.0278 92.9308 82.0278 93.0222C82.0278 93.1448 81.9791 93.2623 81.8924 93.349C81.8058 93.4356 81.6882 93.4843 81.5657 93.4843ZM81.5657 92.645C81.4911 92.645 81.4181 92.6671 81.3561 92.7086C81.2941 92.75 81.2457 92.8089 81.2172 92.8779C81.1886 92.9468 81.1812 93.0226 81.1957 93.0958C81.2103 93.1689 81.2462 93.2362 81.2989 93.2889C81.3517 93.3417 81.4189 93.3776 81.4921 93.3921C81.5652 93.4067 81.6411 93.3992 81.71 93.3707C81.7789 93.3421 81.8378 93.2938 81.8793 93.2318C81.9207 93.1697 81.9428 93.0968 81.9428 93.0222C81.9428 92.9222 81.9031 92.8262 81.8324 92.7555C81.7616 92.6847 81.6657 92.645 81.5657 92.645Z" fill="#455A64"/>
<path d="M67.8674 91.1056C67.7752 91.1063 67.6848 91.0796 67.6078 91.0288C67.5308 90.9781 67.4706 90.9056 67.4349 90.8206C67.3991 90.7356 67.3894 90.6419 67.407 90.5514C67.4245 90.4608 67.4686 90.3776 67.5336 90.3121C67.5986 90.2467 67.6815 90.202 67.7719 90.1838C67.8623 90.1655 67.9561 90.1745 68.0413 90.2097C68.1266 90.2448 68.1995 90.3045 68.2508 90.3811C68.3021 90.4577 68.3295 90.5479 68.3295 90.6401C68.33 90.7011 68.3183 90.7615 68.2953 90.818C68.2723 90.8744 68.2383 90.9258 68.1954 90.9691C68.1524 91.0123 68.1013 91.0467 68.045 91.0701C67.9887 91.0936 67.9283 91.1056 67.8674 91.1056ZM67.8674 90.2629C67.7918 90.2622 67.7178 90.2841 67.6547 90.3256C67.5916 90.3672 67.5423 90.4266 67.513 90.4963C67.4838 90.5659 67.476 90.6427 67.4906 90.7169C67.5051 90.791 67.5414 90.8592 67.5949 90.9126C67.6483 90.966 67.7164 91.0023 67.7906 91.0169C67.8647 91.0315 67.9415 91.0237 68.0112 90.9944C68.0809 90.9652 68.1403 90.9159 68.1818 90.8528C68.2234 90.7897 68.2452 90.7156 68.2446 90.6401C68.2446 90.5905 68.2348 90.5415 68.2158 90.4957C68.1969 90.45 68.1691 90.4084 68.1341 90.3734C68.0991 90.3383 68.0575 90.3106 68.0117 90.2916C67.966 90.2727 67.9169 90.2629 67.8674 90.2629Z" fill="#455A64"/>
<path d="M68.551 97.8915C68.4588 97.8922 68.3684 97.8655 68.2914 97.8147C68.2144 97.764 68.1542 97.6915 68.1185 97.6065C68.0827 97.5215 68.073 97.4278 68.0906 97.3373C68.1081 97.2467 68.1522 97.1635 68.2172 97.098C68.2821 97.0326 68.3651 96.9879 68.4555 96.9696C68.5459 96.9514 68.6397 96.9604 68.7249 96.9956C68.8102 97.0307 68.8831 97.0904 68.9344 97.167C68.9857 97.2436 69.0131 97.3338 69.0131 97.426C69.0136 97.4869 69.0019 97.5474 68.9789 97.6039C68.9559 97.6603 68.9219 97.7117 68.879 97.755C68.836 97.7982 68.7849 97.8326 68.7286 97.856C68.6723 97.8794 68.6119 97.8915 68.551 97.8915ZM68.551 97.0488C68.4754 97.0481 68.4014 97.0699 68.3383 97.1115C68.2752 97.1531 68.2258 97.2125 68.1966 97.2821C68.1674 97.3518 68.1596 97.4286 68.1741 97.5028C68.1887 97.5769 68.225 97.645 68.2785 97.6985C68.3319 97.7519 68.4 97.7882 68.4742 97.8028C68.5483 97.8174 68.6251 97.8095 68.6948 97.7803C68.7645 97.7511 68.8239 97.7018 68.8654 97.6387C68.907 97.5756 68.9288 97.5015 68.9282 97.426C68.9282 97.3259 68.8884 97.23 68.8177 97.1593C68.7469 97.0885 68.651 97.0488 68.551 97.0488Z" fill="#455A64"/>
<path d="M64.7741 89.8925C64.6819 89.8925 64.5918 89.8651 64.5151 89.8138C64.4385 89.7625 64.3788 89.6896 64.3437 89.6043C64.3086 89.5191 64.2996 89.4253 64.3178 89.3349C64.336 89.2445 64.3807 89.1615 64.4462 89.0966C64.5116 89.0316 64.5949 88.9875 64.6854 88.97C64.7759 88.9524 64.8696 88.9621 64.9546 88.9978C65.0396 89.0336 65.1121 89.0938 65.1629 89.1708C65.2136 89.2478 65.2403 89.3381 65.2396 89.4304C65.2397 89.4913 65.2276 89.5517 65.2042 89.608C65.1807 89.6643 65.1464 89.7154 65.1031 89.7584C65.0598 89.8013 65.0085 89.8353 64.952 89.8583C64.8956 89.8813 64.8351 89.893 64.7741 89.8925ZM64.7741 89.0498C64.6988 89.0498 64.6253 89.0721 64.5627 89.1139C64.5001 89.1557 64.4513 89.2152 64.4225 89.2847C64.3937 89.3543 64.3862 89.4308 64.4008 89.5046C64.4155 89.5784 64.4518 89.6462 64.505 89.6995C64.5582 89.7527 64.626 89.7889 64.6999 89.8036C64.7737 89.8183 64.8502 89.8108 64.9198 89.782C64.9893 89.7532 65.0487 89.7044 65.0906 89.6418C65.1324 89.5792 65.1547 89.5056 65.1547 89.4304C65.1547 89.3294 65.1146 89.2326 65.0432 89.1612C64.9719 89.0899 64.8751 89.0498 64.7741 89.0498Z" fill="#455A64"/>
<path d="M71.2239 92.7741C71.1325 92.7741 71.0431 92.747 70.9671 92.6962C70.8911 92.6455 70.8319 92.5733 70.7969 92.4888C70.7619 92.4044 70.7528 92.3115 70.7706 92.2218C70.7884 92.1322 70.8324 92.0498 70.8971 91.9852C70.9617 91.9206 71.0441 91.8766 71.1337 91.8587C71.2233 91.8409 71.3163 91.8501 71.4007 91.885C71.4852 91.92 71.5573 91.9792 71.6081 92.0552C71.6589 92.1312 71.686 92.2206 71.686 92.312C71.686 92.3727 71.674 92.4328 71.6508 92.4888C71.6276 92.5449 71.5935 92.5959 71.5506 92.6388C71.5077 92.6817 71.4568 92.7157 71.4007 92.7389C71.3446 92.7622 71.2845 92.7741 71.2239 92.7741ZM71.2239 91.9348C71.1493 91.9348 71.0763 91.9569 71.0143 91.9984C70.9523 92.0398 70.9039 92.0987 70.8754 92.1676C70.8468 92.2366 70.8394 92.3124 70.8539 92.3856C70.8685 92.4587 70.9044 92.5259 70.9571 92.5787C71.0099 92.6314 71.0771 92.6674 71.1503 92.6819C71.2234 92.6965 71.2993 92.689 71.3682 92.6605C71.4371 92.6319 71.496 92.5836 71.5375 92.5215C71.5789 92.4595 71.601 92.3866 71.601 92.312C71.6002 92.2122 71.5601 92.1168 71.4896 92.0463C71.419 91.9757 71.3236 91.9357 71.2239 91.9348Z" fill="#455A64"/>
<path d="M76.2702 97.6979C76.1781 97.6979 76.0881 97.6706 76.0116 97.6195C75.935 97.5683 75.8754 97.4956 75.8401 97.4105C75.8049 97.3255 75.7957 97.2319 75.8136 97.1416C75.8316 97.0513 75.8759 96.9683 75.941 96.9032C76.0061 96.8381 76.0891 96.7938 76.1794 96.7758C76.2697 96.7578 76.3633 96.7671 76.4484 96.8023C76.5334 96.8375 76.6061 96.8972 76.6573 96.9737C76.7085 97.0503 76.7358 97.1403 76.7358 97.2324C76.7362 97.2936 76.7245 97.3544 76.7012 97.4111C76.678 97.4677 76.6437 97.5192 76.6004 97.5626C76.5571 97.6059 76.5056 97.6402 76.4489 97.6634C76.3922 97.6866 76.3315 97.6984 76.2702 97.6979ZM76.2702 96.8552C76.1948 96.8552 76.1211 96.8776 76.0584 96.9196C75.9958 96.9616 75.947 97.0212 75.9183 97.0909C75.8896 97.1607 75.8823 97.2374 75.8972 97.3113C75.9122 97.3852 75.9488 97.453 76.0023 97.5061C76.0559 97.5592 76.124 97.5952 76.1981 97.6095C76.2721 97.6238 76.3488 97.6157 76.4182 97.5864C76.4877 97.5571 76.5469 97.5078 76.5883 97.4447C76.6297 97.3817 76.6515 97.3078 76.6508 97.2324C76.6508 97.1826 76.6409 97.1332 76.6218 97.0872C76.6026 97.0413 76.5745 96.9995 76.5391 96.9645C76.5037 96.9294 76.4618 96.9017 76.4156 96.8829C76.3695 96.8642 76.32 96.8547 76.2702 96.8552Z" fill="#455A64"/>
<path d="M73.1779 89.8925C73.0855 89.8932 72.9951 89.8663 72.918 89.8154C72.8409 89.7646 72.7807 89.6919 72.7451 89.6067C72.7094 89.5215 72.6999 89.4276 72.7178 89.337C72.7356 89.2464 72.78 89.1631 72.8453 89.0978C72.9106 89.0325 72.9939 88.9881 73.0845 88.9702C73.1752 88.9524 73.269 88.9619 73.3542 88.9975C73.4394 89.0332 73.5121 89.0934 73.563 89.1704C73.6139 89.2475 73.6407 89.338 73.64 89.4303C73.64 89.5529 73.5914 89.6705 73.5047 89.7571C73.418 89.8438 73.3005 89.8925 73.1779 89.8925ZM73.1779 89.0498C73.1025 89.0491 73.0286 89.0708 72.9655 89.1122C72.9025 89.1537 72.8532 89.2129 72.8239 89.2823C72.7946 89.3518 72.7865 89.4284 72.8008 89.5025C72.8151 89.5765 72.8511 89.6447 72.9042 89.6982C72.9573 89.7518 73.0251 89.7884 73.099 89.8033C73.1729 89.8183 73.2496 89.811 73.3194 89.7823C73.3891 89.7536 73.4487 89.7048 73.4907 89.6421C73.5327 89.5795 73.5551 89.5058 73.5551 89.4303C73.5551 89.33 73.5155 89.2337 73.4448 89.1624C73.3742 89.0912 73.2782 89.0507 73.1779 89.0498Z" fill="#455A64"/>
<path d="M72.6033 95.8425C72.512 95.8418 72.423 95.8141 72.3475 95.7629C72.2719 95.7118 72.2132 95.6394 72.1787 95.5548C72.1443 95.4703 72.1356 95.3775 72.1538 95.2881C72.172 95.1987 72.2163 95.1167 72.2811 95.0524C72.3459 94.9881 72.4282 94.9444 72.5178 94.9268C72.6073 94.9093 72.7001 94.9186 72.7843 94.9537C72.8685 94.9888 72.9405 95.048 72.9912 95.124C73.0418 95.1999 73.0688 95.2891 73.0688 95.3803C73.0688 95.4413 73.0567 95.5017 73.0333 95.558C73.0099 95.6143 72.9755 95.6654 72.9322 95.7083C72.889 95.7513 72.8376 95.7853 72.7812 95.8083C72.7247 95.8313 72.6642 95.8429 72.6033 95.8425ZM72.6033 95.0031C72.5288 95.0038 72.4562 95.0265 72.3947 95.0684C72.3331 95.1102 72.2853 95.1694 72.2572 95.2383C72.2292 95.3073 72.2222 95.383 72.2372 95.456C72.2521 95.5289 72.2883 95.5958 72.3412 95.6482C72.394 95.7006 72.4613 95.7362 72.5343 95.7505C72.6074 95.7648 72.6831 95.7571 72.7518 95.7285C72.8205 95.6998 72.8792 95.6515 72.9205 95.5895C72.9618 95.5276 72.9839 95.4548 72.9839 95.3803C72.9839 95.3305 72.974 95.2812 72.9548 95.2352C72.9357 95.1892 72.9076 95.1475 72.8722 95.1124C72.8368 95.0773 72.7948 95.0496 72.7487 95.0309C72.7025 95.0121 72.6531 95.0027 72.6033 95.0031Z" fill="#455A64"/>
<path d="M68.0158 101.381C67.9236 101.382 67.8333 101.355 67.7563 101.305C67.6792 101.254 67.6191 101.181 67.5833 101.096C67.5475 101.011 67.5378 100.918 67.5554 100.827C67.573 100.737 67.6171 100.653 67.682 100.588C67.747 100.523 67.8299 100.478 67.9203 100.46C68.0107 100.441 68.1045 100.45 68.1898 100.486C68.275 100.521 68.3479 100.58 68.3992 100.657C68.4505 100.734 68.4779 100.824 68.4779 100.916C68.4784 100.977 68.4668 101.037 68.4437 101.094C68.4207 101.15 68.3868 101.202 68.3438 101.245C68.3008 101.288 68.2497 101.323 68.1934 101.346C68.1372 101.369 68.0768 101.381 68.0158 101.381ZM68.0158 100.539C67.9403 100.538 67.8662 100.56 67.8031 100.602C67.74 100.643 67.6907 100.702 67.6615 100.772C67.6322 100.842 67.6244 100.919 67.639 100.993C67.6536 101.067 67.6899 101.135 67.7433 101.188C67.7967 101.242 67.8649 101.278 67.939 101.293C68.0131 101.307 68.0899 101.3 68.1596 101.27C68.2293 101.241 68.2887 101.192 68.3303 101.129C68.3718 101.066 68.3937 100.992 68.393 100.916C68.393 100.866 68.3832 100.817 68.3643 100.772C68.3453 100.726 68.3175 100.684 68.2825 100.649C68.2475 100.614 68.2059 100.586 68.1602 100.567C68.1144 100.549 68.0653 100.539 68.0158 100.539Z" fill="#455A64"/>
<path d="M79.2707 90.5856C79.1793 90.5856 79.09 90.5585 79.014 90.5078C78.938 90.457 78.8787 90.3848 78.8438 90.3004C78.8088 90.2159 78.7996 90.123 78.8175 90.0334C78.8353 89.9437 78.8793 89.8614 78.9439 89.7967C79.0086 89.7321 79.0909 89.6881 79.1806 89.6703C79.2702 89.6524 79.3631 89.6616 79.4476 89.6966C79.532 89.7315 79.6042 89.7908 79.655 89.8668C79.7058 89.9428 79.7329 90.0321 79.7329 90.1235C79.732 90.2458 79.683 90.3628 79.5965 90.4493C79.5101 90.5358 79.393 90.5848 79.2707 90.5856ZM79.2707 89.7463C79.1961 89.7463 79.1232 89.7684 79.0612 89.8099C78.9991 89.8513 78.9508 89.9102 78.9223 89.9792C78.8937 90.0481 78.8862 90.1239 78.9008 90.1971C78.9153 90.2703 78.9513 90.3375 79.004 90.3902C79.0568 90.443 79.124 90.4789 79.1971 90.4935C79.2703 90.508 79.3462 90.5005 79.4151 90.472C79.484 90.4434 79.5429 90.3951 79.5843 90.3331C79.6258 90.271 79.6479 90.1981 79.6479 90.1235C79.6479 90.0235 79.6082 89.9275 79.5374 89.8568C79.4667 89.7861 79.3708 89.7463 79.2707 89.7463Z" fill="#455A64"/>
<path d="M66.3576 94.5819C66.2654 94.5826 66.1751 94.5559 66.098 94.5051C66.021 94.4544 65.9608 94.3819 65.9251 94.2969C65.8893 94.2119 65.8796 94.1182 65.8972 94.0277C65.9148 93.9372 65.9589 93.8539 66.0238 93.7884C66.0888 93.723 66.1717 93.6783 66.2621 93.6601C66.3525 93.6418 66.4463 93.6509 66.5316 93.686C66.6168 93.7211 66.6897 93.7808 66.741 93.8574C66.7924 93.934 66.8197 94.0242 66.8197 94.1164C66.8197 94.2393 66.7712 94.3572 66.6846 94.4444C66.598 94.5316 66.4805 94.581 66.3576 94.5819ZM66.3576 93.7392C66.282 93.7385 66.208 93.7604 66.1449 93.8019C66.0818 93.8435 66.0325 93.9029 66.0033 93.9726C65.974 94.0423 65.9662 94.1191 65.9808 94.1932C65.9954 94.2673 66.0317 94.3355 66.0851 94.3889C66.1385 94.4423 66.2067 94.4786 66.2808 94.4932C66.3549 94.5078 66.4318 94.5 66.5014 94.4707C66.5711 94.4415 66.6305 94.3922 66.6721 94.3291C66.7136 94.266 66.7355 94.192 66.7348 94.1164C66.7339 94.0166 66.6939 93.9212 66.6233 93.8507C66.5528 93.7801 66.4574 93.7401 66.3576 93.7392Z" fill="#455A64"/>
<path d="M75.8361 93.1955C75.7437 93.1961 75.6533 93.1693 75.5762 93.1184C75.4991 93.0675 75.4389 92.9949 75.4033 92.9097C75.3676 92.8245 75.3581 92.7306 75.376 92.64C75.3938 92.5493 75.4382 92.4661 75.5035 92.4008C75.5689 92.3354 75.6521 92.291 75.7427 92.2732C75.8334 92.2553 75.9272 92.2648 76.0124 92.3005C76.0976 92.3362 76.1703 92.3963 76.2212 92.4734C76.2721 92.5505 76.2989 92.641 76.2982 92.7333C76.2982 92.8559 76.2496 92.9734 76.1629 93.0601C76.0762 93.1468 75.9587 93.1955 75.8361 93.1955ZM75.8361 92.3527C75.7607 92.3521 75.6868 92.3738 75.6238 92.4152C75.5607 92.4566 75.5114 92.5158 75.4821 92.5853C75.4528 92.6548 75.4447 92.7314 75.459 92.8055C75.4733 92.8795 75.5093 92.9476 75.5624 93.0012C75.6155 93.0548 75.6833 93.0914 75.7572 93.1063C75.8311 93.1213 75.9078 93.114 75.9776 93.0853C76.0473 93.0566 76.1069 93.0078 76.1489 92.9451C76.1909 92.8825 76.2133 92.8087 76.2133 92.7333C76.2133 92.633 76.1737 92.5367 76.103 92.4654C76.0324 92.3941 75.9365 92.3536 75.8361 92.3527Z" fill="#455A64"/>
<path d="M72.6042 100.685C72.5121 100.685 72.4221 100.657 72.3456 100.606C72.269 100.555 72.2093 100.482 72.1741 100.397C72.1389 100.312 72.1297 100.219 72.1476 100.128C72.1656 100.038 72.2099 99.9551 72.275 99.89C72.3401 99.8249 72.4231 99.7806 72.5134 99.7626C72.6037 99.7446 72.6973 99.7539 72.7824 99.7891C72.8674 99.8243 72.9401 99.884 72.9913 99.9606C73.0424 100.037 73.0697 100.127 73.0697 100.219C73.0697 100.343 73.0207 100.461 72.9334 100.548C72.8461 100.636 72.7277 100.685 72.6042 100.685ZM72.6042 99.842C72.5288 99.842 72.4551 99.8644 72.3924 99.9064C72.3298 99.9484 72.281 100.008 72.2523 100.078C72.2236 100.147 72.2162 100.224 72.2312 100.298C72.2462 100.372 72.2828 100.44 72.3363 100.493C72.3899 100.546 72.458 100.582 72.5321 100.596C72.6061 100.611 72.6827 100.603 72.7522 100.573C72.8217 100.544 72.8809 100.495 72.9223 100.432C72.9637 100.369 72.9855 100.295 72.9848 100.219C72.9848 100.169 72.9749 100.12 72.9558 100.074C72.9366 100.028 72.9085 99.9864 72.8731 99.9513C72.8377 99.9162 72.7957 99.8885 72.7496 99.8697C72.7034 99.851 72.654 99.8416 72.6042 99.842Z" fill="#455A64"/>
<path d="M76.4987 102.357C76.4067 102.357 76.3167 102.329 76.2401 102.278C76.1635 102.227 76.1039 102.154 76.0686 102.069C76.0334 101.984 76.0242 101.891 76.0421 101.8C76.0601 101.71 76.1044 101.627 76.1696 101.562C76.2347 101.497 76.3176 101.452 76.4079 101.434C76.4982 101.417 76.5918 101.426 76.6769 101.461C76.762 101.496 76.8347 101.556 76.8858 101.632C76.937 101.709 76.9643 101.799 76.9643 101.891C76.9643 102.015 76.9152 102.133 76.8279 102.22C76.7406 102.308 76.6222 102.357 76.4987 102.357ZM76.4987 101.514C76.4233 101.514 76.3496 101.536 76.287 101.578C76.2243 101.62 76.1755 101.68 76.1468 101.75C76.1181 101.819 76.1108 101.896 76.1257 101.97C76.1407 102.044 76.1773 102.112 76.2308 102.165C76.2844 102.218 76.3525 102.254 76.4266 102.268C76.5006 102.282 76.5773 102.274 76.6468 102.245C76.7162 102.216 76.7754 102.166 76.8168 102.103C76.8582 102.04 76.88 101.966 76.8793 101.891C76.8793 101.841 76.8695 101.792 76.8503 101.746C76.8311 101.7 76.803 101.658 76.7677 101.623C76.7323 101.588 76.6903 101.56 76.6441 101.542C76.598 101.523 76.5486 101.513 76.4987 101.514Z" fill="#455A64"/>
<path d="M79.2707 95.4211C79.1793 95.4211 79.09 95.394 79.014 95.3432C78.938 95.2924 78.8787 95.2203 78.8438 95.1358C78.8088 95.0514 78.7996 94.9585 78.8175 94.8688C78.8353 94.7792 78.8793 94.6968 78.9439 94.6322C79.0086 94.5676 79.0909 94.5235 79.1806 94.5057C79.2702 94.4879 79.3631 94.497 79.4476 94.532C79.532 94.567 79.6042 94.6262 79.655 94.7022C79.7058 94.7782 79.7329 94.8676 79.7329 94.959C79.732 95.0813 79.683 95.1983 79.5965 95.2848C79.5101 95.3712 79.393 95.4202 79.2707 95.4211ZM79.2707 94.5818C79.1961 94.5818 79.1232 94.6039 79.0612 94.6453C78.9991 94.6868 78.9508 94.7457 78.9223 94.8146C78.8937 94.8835 78.8862 94.9594 78.9008 95.0326C78.9153 95.1057 78.9513 95.1729 79.004 95.2257C79.0568 95.2784 79.124 95.3144 79.1971 95.3289C79.2703 95.3435 79.3462 95.336 79.4151 95.3074C79.484 95.2789 79.5429 95.2305 79.5843 95.1685C79.6258 95.1065 79.6479 95.0336 79.6479 94.959C79.647 94.8592 79.607 94.7638 79.5365 94.6932C79.4659 94.6227 79.3705 94.5827 79.2707 94.5818Z" fill="#455A64"/>
<path d="M79.6882 99.5973C79.596 99.5973 79.5058 99.5699 79.4292 99.5186C79.3526 99.4673 79.2929 99.3944 79.2578 99.3092C79.2226 99.2239 79.2136 99.1301 79.2319 99.0397C79.2501 98.9493 79.2948 98.8664 79.3602 98.8014C79.4257 98.7364 79.5089 98.6924 79.5995 98.6748C79.69 98.6572 79.7837 98.6669 79.8687 98.7027C79.9537 98.7384 80.0262 98.7986 80.0769 98.8756C80.1277 98.9526 80.1544 99.043 80.1537 99.1352C80.1537 99.1962 80.1417 99.2565 80.1182 99.3128C80.0948 99.3691 80.0604 99.4202 80.0172 99.4632C79.9739 99.5061 79.9225 99.5401 79.8661 99.5631C79.8096 99.5862 79.7492 99.5978 79.6882 99.5973ZM79.6882 98.7546C79.6129 98.7546 79.5393 98.7769 79.4767 98.8187C79.4142 98.8606 79.3654 98.92 79.3366 98.9895C79.3078 99.0591 79.3002 99.1356 79.3149 99.2094C79.3296 99.2833 79.3658 99.3511 79.4191 99.4043C79.4723 99.4575 79.5401 99.4938 79.6139 99.5085C79.6878 99.5231 79.7643 99.5156 79.8338 99.4868C79.9034 99.458 79.9628 99.4092 80.0046 99.3466C80.0464 99.284 80.0688 99.2105 80.0688 99.1352C80.0688 99.0342 80.0287 98.9374 79.9573 98.8661C79.8859 98.7947 79.7891 98.7546 79.6882 98.7546Z" fill="#455A64"/>
<path d="M75.5601 28.6186C74.7262 27.3821 74.2758 25.9269 74.2655 24.4355C74.2655 19.1414 80.083 14.8462 87.2529 14.8462C94.4228 14.8462 100.234 19.1414 100.234 24.4355C100.234 29.7297 94.4228 34.0283 87.2529 34.0283C83.7733 34.0283 80.6233 33.0089 78.2956 31.3744L73.8203 32.5094L75.5601 28.6186Z" fill="white"/>
<path d="M91.9219 24.4356C91.9219 24.7045 92.0016 24.9673 92.1509 25.1908C92.3003 25.4143 92.5126 25.5885 92.7609 25.6914C93.0093 25.7943 93.2826 25.8212 93.5463 25.7688C93.8099 25.7163 94.0521 25.5869 94.2422 25.3968C94.4323 25.2067 94.5618 24.9645 94.6142 24.7008C94.6667 24.4372 94.6397 24.1639 94.5369 23.9155C94.434 23.6671 94.2598 23.4548 94.0363 23.3055C93.8127 23.1561 93.5499 23.0764 93.2811 23.0764C92.9206 23.0764 92.5749 23.2196 92.32 23.4745C92.0651 23.7294 91.9219 24.0752 91.9219 24.4356Z" fill="#6267DA"/>
<path d="M85.9043 24.4356C85.9043 24.7045 85.984 24.9673 86.1334 25.1908C86.2827 25.4143 86.495 25.5885 86.7434 25.6914C86.9917 25.7943 87.265 25.8212 87.5287 25.7688C87.7924 25.7163 88.0345 25.5869 88.2246 25.3968C88.4147 25.2067 88.5442 24.9645 88.5966 24.7008C88.6491 24.4372 88.6222 24.1639 88.5193 23.9155C88.4164 23.6671 88.2422 23.4548 88.0187 23.3055C87.7951 23.1561 87.5324 23.0764 87.2635 23.0764C86.903 23.0764 86.5573 23.2196 86.3024 23.4745C86.0475 23.7294 85.9043 24.0752 85.9043 24.4356Z" fill="#6267DA"/>
<path d="M79.8867 24.4356C79.8867 24.7045 79.9664 24.9673 80.1158 25.1908C80.2651 25.4143 80.4774 25.5885 80.7258 25.6914C80.9742 25.7943 81.2475 25.8212 81.5111 25.7688C81.7748 25.7163 82.017 25.5869 82.2071 25.3968C82.3972 25.2067 82.5266 24.9645 82.5791 24.7008C82.6315 24.4372 82.6046 24.1639 82.5017 23.9155C82.3988 23.6671 82.2246 23.4548 82.0011 23.3055C81.7776 23.1561 81.5148 23.0764 81.2459 23.0764C80.8855 23.0764 80.5397 23.2196 80.2848 23.4745C80.0299 23.7294 79.8867 24.0752 79.8867 24.4356Z" fill="#6267DA"/>
<path d="M132 13.7724C132.834 12.5359 133.284 11.0807 133.294 9.58935C133.294 4.29516 127.477 0 120.307 0C113.137 0 107.326 4.29516 107.326 9.58935C107.326 14.8835 113.137 19.1821 120.307 19.1821C123.783 19.1821 126.936 18.1627 129.264 16.5282L133.736 17.6598L132 13.7724Z" fill="white"/>
<path d="M115.634 9.58945C115.634 9.85828 115.555 10.1211 115.405 10.3446C115.256 10.5681 115.044 10.7423 114.795 10.8452C114.547 10.9481 114.274 10.975 114.01 10.9226C113.746 10.8701 113.504 10.7407 113.314 10.5506C113.124 10.3605 112.995 10.1183 112.942 9.85463C112.89 9.59096 112.917 9.31767 113.019 9.0693C113.122 8.82093 113.297 8.60865 113.52 8.45929C113.744 8.30994 114.006 8.23022 114.275 8.23022C114.636 8.23022 114.981 8.37343 115.236 8.62833C115.491 8.88324 115.634 9.22896 115.634 9.58945Z" fill="#6267DA"/>
<path d="M121.652 9.58945C121.652 9.85828 121.572 10.1211 121.423 10.3446C121.274 10.5681 121.061 10.7423 120.813 10.8452C120.565 10.9481 120.291 10.975 120.028 10.9226C119.764 10.8701 119.522 10.7407 119.332 10.5506C119.142 10.3605 119.012 10.1183 118.96 9.85463C118.907 9.59096 118.934 9.31767 119.037 9.0693C119.14 8.82093 119.314 8.60865 119.538 8.45929C119.761 8.30994 120.024 8.23022 120.293 8.23022C120.653 8.23022 120.999 8.37343 121.254 8.62833C121.509 8.88324 121.652 9.22896 121.652 9.58945Z" fill="#6267DA"/>
<path d="M127.67 9.58945C127.67 9.85828 127.59 10.1211 127.441 10.3446C127.291 10.5681 127.079 10.7423 126.831 10.8452C126.582 10.9481 126.309 10.975 126.045 10.9226C125.782 10.8701 125.539 10.7407 125.349 10.5506C125.159 10.3605 125.03 10.1183 124.977 9.85463C124.925 9.59096 124.952 9.31767 125.055 9.0693C125.158 8.82093 125.332 8.60865 125.555 8.45929C125.779 8.30994 126.042 8.23022 126.31 8.23022C126.671 8.23022 127.017 8.37343 127.272 8.62833C127.526 8.88324 127.67 9.22896 127.67 9.58945Z" fill="#6267DA"/>
</svg>
