<svg width="155" height="137" viewBox="0 0 155 137" fill="none" xmlns="http://www.w3.org/2000/svg">
<path opacity="0.5" d="M80 166.378C124.183 166.378 160 145.698 160 120.189C160 94.6795 124.183 74 80 74C35.8172 74 0 94.6795 0 120.189C0 145.698 35.8172 166.378 80 166.378Z" fill="#F0F0F0"/>
<path d="M134.688 97.7826C134.688 97.7826 133.806 97.0825 133.358 97.177C133.148 97.219 133.302 97.7931 133.06 98.8782C132.961 99.269 132.767 99.6295 132.497 99.9284L132.336 99.9739H132.29L131.863 100.093C128.135 101.143 119.695 103.418 115.47 103.863C112.246 104.213 110.948 103.355 110.059 100.506C108.658 95.9553 107.703 84.8238 107.44 81.4213C105.13 86.9066 102.928 92.4689 100.884 98.0346C105.62 102.053 108.707 113.881 110.388 118.481L110.762 119.451L110.951 119.934C110.951 119.934 111.879 121.033 110.577 122.429C109.274 123.826 107.731 123.858 107.027 123.077C103.261 117.788 96.6797 108.981 93.5398 103.744C91.3065 100.012 90.9705 99.3158 91.408 96.6764C92.8082 88.0933 95.6506 76.6572 98.4335 67.857L98.486 67.731L118.369 68.9596C119.618 78.5895 118.257 95.2132 118.257 95.2132L131.314 94.5937L132.203 94.5061C132.479 94.6392 132.927 95.2867 133.137 95.8573C133.347 96.4279 134.24 96.8235 134.688 97.7826Z" fill="#FFA8A7"/>
<path d="M131.863 100.107L132.29 99.988H132.335L132.496 99.9425C132.767 99.6437 132.96 99.2831 133.06 98.8924C133.301 97.8072 133.147 97.2331 133.357 97.1911C133.805 97.1036 134.688 97.7967 134.688 97.7967C134.239 96.8376 133.361 96.477 133.151 95.9029C132.941 95.3289 132.493 94.6848 132.216 94.5518L131.327 94.6393L118.256 95.2449C118.256 95.2449 119.88 100.688 116.996 103.671C121.484 102.946 128.544 101.028 131.863 100.107Z" fill="#37474F"/>
<path d="M119.565 103.187C121.316 100.124 120.731 97.1069 119.887 95.1606L118.256 95.2411C118.256 95.2411 119.88 100.684 116.996 103.667C117.784 103.541 118.652 103.376 119.565 103.187Z" fill="#F1C7FF"/>
<path d="M110.757 119.465L110.406 118.495C108.936 114.497 106.426 105.116 102.705 100.058C101.484 103.38 96.4815 105.239 94.1992 104.826C97.5317 110.129 103.511 118.145 107.028 123.091C107.729 123.872 109.272 123.844 110.578 122.443C111.884 121.043 110.953 119.948 110.953 119.948L110.757 119.465Z" fill="#37474F"/>
<path d="M102.705 100.058C101.484 103.38 96.4815 105.239 94.1992 104.826C94.6123 105.484 95.0638 106.18 95.5469 106.905C99.6495 106.985 102.506 104.615 104.032 102.12C103.63 101.407 103.187 100.719 102.705 100.058Z" fill="#F1C7FF"/>
<path d="M112.426 121.323C112.65 121.603 113.052 122.184 113.003 122.51C112.954 122.835 112.377 124.484 112.303 126.189C112.24 127.701 112.905 130.579 111.449 132.626C110.168 134.422 108.999 134.846 107.948 135.045C107.538 135.147 107.109 135.15 106.697 135.053C106.286 134.955 105.903 134.761 105.582 134.485C105.582 134.485 104.647 133.648 105.064 133.004C105.481 132.36 112.426 121.323 112.426 121.323Z" fill="#37474F"/>
<path d="M112.507 121.46C112.454 121.039 112.268 120.646 111.975 120.34C111.541 119.871 111.068 119.468 110.897 118.824C110.837 118.597 110.785 118.17 110.504 118.093C110.48 118.093 110.228 118.093 110.228 118.093L110.441 118.726C110.322 118.989 110.091 119.601 109.979 119.871C109.727 120.571 110.046 121.302 109.542 121.915C109.507 121.138 109.475 120.238 108.961 120.249C108.611 120.249 107.995 120.721 107.295 120.823C106.594 120.924 106.041 120.784 105.768 120.886C105.495 120.987 105.649 121.334 105.824 122.139C106.049 123.041 106.177 123.965 106.206 124.894C106.146 125.636 106.069 126.403 105.961 127.134C105.544 129.956 104.519 131.405 104.753 132.924C104.995 134.499 107.473 135.052 109.258 133.687C112.297 131.366 111.67 129.028 111.618 127.302C111.554 126.187 111.657 125.069 111.922 123.984C112.202 122.969 112.507 122.447 112.507 121.46Z" fill="#F1C7FF"/>
<path opacity="0.4" d="M112.507 121.46C112.454 121.039 112.268 120.646 111.975 120.34C111.541 119.871 111.068 119.468 110.897 118.824C110.837 118.597 110.785 118.17 110.504 118.093C110.48 118.093 110.228 118.093 110.228 118.093L110.441 118.726C110.322 118.989 110.091 119.601 109.979 119.871C109.727 120.571 110.046 121.302 109.542 121.915C109.507 121.138 109.475 120.238 108.961 120.249C108.611 120.249 107.995 120.721 107.295 120.823C106.594 120.924 106.041 120.784 105.768 120.886C105.495 120.987 105.649 121.334 105.824 122.139C106.049 123.041 106.177 123.965 106.206 124.894C106.146 125.636 106.069 126.403 105.961 127.134C105.544 129.956 104.519 131.405 104.753 132.924C104.995 134.499 107.473 135.052 109.258 133.687C112.297 131.366 111.67 129.028 111.618 127.302C111.554 126.187 111.657 125.069 111.922 123.984C112.202 122.969 112.507 122.447 112.507 121.46Z" fill="black"/>
<path opacity="0.15" d="M110.909 118.824C110.907 118.831 110.907 118.838 110.909 118.845V118.883C110.847 119.272 110.762 119.657 110.653 120.035C110.555 120.49 110.492 120.952 110.426 121.414C110.38 121.736 110.356 122.058 110.342 122.384C110.328 122.709 110.314 122.972 110.317 123.266C110.338 124.666 110.541 125.783 110.195 127.578C109.848 129.374 109.341 129.546 108.98 129.329C108.62 129.112 108.952 128.646 109.295 127.067C109.645 125.415 109.358 123.609 109.537 121.911C109.661 121.768 109.747 121.596 109.789 121.411C109.911 120.917 109.789 120.381 109.974 119.877C110.076 119.608 110.324 118.995 110.436 118.733L110.223 118.099H110.303H110.401H110.447H110.499C110.674 118.145 110.758 118.33 110.814 118.519C110.863 118.624 110.884 118.74 110.909 118.824Z" fill="black"/>
<path opacity="0.15" d="M109.917 130.897C108.983 131.44 108.419 131.317 108.44 130.393C108.488 129.74 108.68 129.105 109 128.534L106.55 128.636C106.55 128.636 106.707 130.319 106.217 130.736C105.916 130.984 105.493 130.596 105.248 130.099C104.898 131.208 104.617 132.063 104.754 132.938C104.996 134.513 107.474 135.066 109.259 133.701C111.804 131.755 111.776 129.801 111.671 128.205C111.716 129.157 110.852 130.354 109.917 130.897Z" fill="black"/>
<path opacity="0.15" d="M105.855 122.198C106.057 123.081 106.175 123.982 106.205 124.887C106.146 125.629 106.069 126.396 105.96 127.127C105.887 127.61 105.799 128.051 105.701 128.461C105.72 128.688 105.797 128.906 105.925 129.094C106.237 129.367 106.373 129.339 106.548 128.629C106.741 127.831 106.748 123.448 105.848 122.198H105.855Z" fill="black"/>
<path d="M105.938 128.849C105.96 128.892 105.996 128.927 106.039 128.949C106.083 128.97 106.132 128.977 106.18 128.968C107.249 128.797 108.337 128.78 109.411 128.919C109.44 128.924 109.47 128.923 109.499 128.916C109.528 128.91 109.555 128.897 109.579 128.88C109.603 128.863 109.623 128.841 109.639 128.816C109.655 128.791 109.665 128.763 109.67 128.734C109.675 128.704 109.674 128.675 109.667 128.646C109.66 128.617 109.648 128.59 109.631 128.566C109.614 128.542 109.592 128.521 109.567 128.506C109.542 128.49 109.514 128.479 109.484 128.475C108.36 128.325 107.219 128.342 106.099 128.524C106.041 128.535 105.989 128.568 105.955 128.618C105.921 128.667 105.907 128.727 105.917 128.786C105.92 128.808 105.927 128.83 105.938 128.849Z" fill="#E0E0E0"/>
<path d="M106.027 127.677C106.051 127.727 106.093 127.766 106.144 127.786C106.195 127.806 106.253 127.806 106.304 127.785C107.381 127.423 108.545 127.405 109.633 127.733C109.689 127.753 109.752 127.75 109.806 127.724C109.861 127.699 109.903 127.653 109.923 127.596C109.942 127.54 109.938 127.478 109.912 127.424C109.886 127.37 109.84 127.329 109.783 127.309C108.598 126.938 107.324 126.956 106.15 127.362C106.093 127.382 106.047 127.424 106.022 127.479C105.996 127.533 105.993 127.596 106.013 127.652C106.017 127.661 106.021 127.669 106.027 127.677Z" fill="#E0E0E0"/>
<path d="M106.006 126.581C106.032 126.634 106.078 126.674 106.134 126.693C106.189 126.712 106.25 126.708 106.303 126.682C107.398 126.209 108.623 126.125 109.772 126.444C109.83 126.462 109.892 126.457 109.946 126.429C109.999 126.402 110.04 126.355 110.059 126.297C110.077 126.24 110.071 126.179 110.044 126.126C110.016 126.072 109.969 126.032 109.912 126.014C108.652 125.655 107.307 125.746 106.107 126.273C106.054 126.299 106.013 126.346 105.993 126.402C105.974 126.458 105.977 126.52 106.002 126.574L106.006 126.581Z" fill="#E0E0E0"/>
<path d="M105.992 125.419C106.007 125.445 106.026 125.468 106.049 125.486C106.073 125.504 106.1 125.518 106.128 125.525C106.157 125.533 106.187 125.535 106.216 125.531C106.246 125.528 106.274 125.518 106.3 125.503C107.875 124.593 109.737 125.153 109.755 125.153C109.812 125.17 109.873 125.164 109.926 125.136C109.979 125.109 110.019 125.062 110.039 125.006C110.048 124.978 110.051 124.948 110.049 124.918C110.046 124.889 110.038 124.86 110.024 124.833C110.011 124.807 109.992 124.784 109.969 124.765C109.946 124.745 109.92 124.731 109.892 124.722C109.807 124.694 107.826 124.089 106.076 125.097C106.048 125.111 106.024 125.132 106.004 125.156C105.984 125.181 105.97 125.209 105.962 125.239C105.954 125.27 105.953 125.301 105.958 125.332C105.963 125.363 105.975 125.393 105.992 125.419Z" fill="#E0E0E0"/>
<path d="M106.001 124.19V124.208C106.033 124.258 106.084 124.293 106.142 124.307C106.201 124.32 106.262 124.309 106.313 124.278C107.814 123.326 109.813 123.928 109.831 123.928C109.887 123.941 109.946 123.932 109.996 123.903C110.046 123.874 110.083 123.828 110.1 123.773C110.117 123.718 110.112 123.658 110.087 123.606C110.061 123.555 110.017 123.514 109.964 123.494C109.873 123.466 107.748 122.832 106.075 123.896C106.027 123.926 105.993 123.974 105.979 124.029C105.966 124.083 105.973 124.141 106.001 124.19Z" fill="#E0E0E0"/>
<path d="M105.926 123.129C105.959 123.18 106.009 123.215 106.068 123.228C106.126 123.241 106.187 123.231 106.238 123.199C106.764 122.915 107.341 122.738 107.936 122.678C108.53 122.618 109.131 122.676 109.703 122.849C109.731 122.86 109.76 122.865 109.79 122.865C109.82 122.864 109.849 122.858 109.876 122.846C109.903 122.834 109.928 122.817 109.948 122.796C109.969 122.774 109.985 122.749 109.996 122.722C110.006 122.694 110.012 122.665 110.011 122.635C110.01 122.605 110.004 122.576 109.992 122.549C109.98 122.522 109.963 122.497 109.942 122.477C109.921 122.456 109.895 122.44 109.868 122.429C109.23 122.23 108.56 122.161 107.895 122.227C107.23 122.292 106.586 122.491 106 122.811C105.973 122.826 105.949 122.846 105.931 122.871C105.912 122.896 105.899 122.924 105.892 122.954C105.885 122.984 105.885 123.015 105.891 123.045C105.897 123.075 105.909 123.104 105.926 123.129Z" fill="#E0E0E0"/>
<path d="M137.911 107.959C138.423 108.172 139.753 108.19 140.456 107.651C141.923 106.534 142.084 103.45 141.506 101.794C140.806 99.7781 139.627 98.8014 139.175 97.5938C138.724 96.3861 138.734 94.6149 138.167 93.5647C137.938 93.1625 137.626 92.814 137.251 92.5429C136.876 92.2717 136.447 92.0842 135.993 91.993C135.703 91.9287 135.401 91.9315 135.112 92.0013C134.822 92.071 134.553 92.2059 134.323 92.3955L133.879 92.7456L137.911 107.959Z" fill="#263238"/>
<path d="M140.787 102.326C140.283 100.065 137.906 98.661 137.815 96.4242C137.724 94.1874 136.254 91.3275 133.499 92.9692C132.713 93.4374 131.982 93.9916 131.318 94.6214L132.207 94.5339C132.484 94.6669 132.932 95.3145 133.142 95.8851C133.352 96.4557 134.231 96.8197 134.679 97.7789C134.679 97.7789 133.797 97.0788 133.349 97.1733C133.139 97.2153 133.293 97.7894 133.051 98.8745C132.952 99.2653 132.758 99.6258 132.488 99.9247L132.33 99.9667H132.284L131.857 100.086C132.225 100.278 133.233 100.436 133.881 100.919C134.136 101.187 134.352 101.49 134.521 101.818C134.781 102.36 134.992 102.923 135.151 103.502C135.421 104.363 135.697 105.224 135.999 106.075C136.134 106.515 136.328 106.934 136.576 107.321C137.353 108.431 138.876 108.35 139.811 107.472C140.276 107.06 140.62 106.529 140.805 105.935C141.211 104.738 141.032 103.411 140.787 102.326Z" fill="#F1C7FF"/>
<path opacity="0.4" d="M140.787 102.326C140.283 100.065 137.906 98.661 137.815 96.4242C137.724 94.1874 136.254 91.3275 133.499 92.9692C132.713 93.4374 131.982 93.9916 131.318 94.6214L132.207 94.5339C132.484 94.6669 132.932 95.3145 133.142 95.8851C133.352 96.4557 134.231 96.8197 134.679 97.7789C134.679 97.7789 133.797 97.0788 133.349 97.1733C133.139 97.2153 133.293 97.7894 133.051 98.8745C132.952 99.2653 132.758 99.6258 132.488 99.9247L132.33 99.9667H132.284L131.857 100.086C132.225 100.278 133.233 100.436 133.881 100.919C134.136 101.187 134.352 101.49 134.521 101.818C134.781 102.36 134.992 102.923 135.151 103.502C135.421 104.363 135.697 105.224 135.999 106.075C136.134 106.515 136.328 106.934 136.576 107.321C137.353 108.431 138.876 108.35 139.811 107.472C140.276 107.06 140.62 106.529 140.805 105.935C141.211 104.738 141.032 103.411 140.787 102.326Z" fill="black"/>
<path opacity="0.15" d="M135.673 103.821C135.576 103.327 135.439 102.843 135.264 102.371C135.085 101.898 134.795 101.475 134.416 101.139C134.022 100.83 133.562 100.616 133.072 100.513C133.363 100.614 133.636 100.758 133.884 100.94C134.14 101.208 134.355 101.511 134.525 101.839C134.784 102.381 134.995 102.944 135.155 103.523C135.32 104.038 135.484 104.552 135.656 105.067C135.707 105.017 135.75 104.959 135.782 104.895C135.844 104.696 135.844 104.482 135.782 104.283L135.673 103.821Z" fill="black"/>
<path opacity="0.15" d="M140.733 103.334C140.715 103.779 140.535 104.201 140.225 104.521C140.021 104.668 139.776 104.747 139.525 104.747C139.274 104.747 139.029 104.668 138.825 104.521C138.515 104.32 138.265 104.039 138.1 103.709C137.988 103.436 137.964 103.124 137.698 103.254C137.01 103.595 136.402 104.08 135.916 104.675C135.887 104.704 135.865 104.74 135.853 104.78C135.841 104.859 135.86 104.939 135.906 105.004C136.057 105.333 136.092 105.703 136.004 106.054V106.096C136.139 106.536 136.333 106.955 136.581 107.342C137.358 108.452 138.881 108.372 139.816 107.493C140.281 107.081 140.625 106.55 140.81 105.956C141.108 104.799 141.108 103.585 140.81 102.428C140.799 102.736 140.775 103.037 140.733 103.334Z" fill="black"/>
<path opacity="0.15" d="M137.362 98.6715C137.091 98.275 136.763 97.921 136.389 97.6214C136.207 97.4779 136.004 97.3974 135.822 97.2713C135.62 97.127 135.433 96.9641 135.261 96.7848C134.561 96.0847 134.071 95.2341 133.462 94.4674C133.266 94.2123 133.019 94.0002 132.738 93.8444C132.627 93.7868 132.509 93.7433 132.388 93.7148C132.002 94.0089 131.638 94.3204 131.316 94.6215L132.206 94.534C132.482 94.667 132.93 95.3146 133.14 95.8851C133.35 96.4557 134.19 96.8093 134.659 97.7404C135.107 98.1219 135.587 98.4685 136 98.864C136.343 99.17 136.624 99.5382 136.83 99.9492C137.338 101.002 137.715 102.113 137.953 103.257C137.978 103.48 138.064 103.693 138.202 103.87C138.239 103.91 138.284 103.943 138.334 103.965C138.385 103.987 138.439 103.999 138.494 103.999C138.549 103.999 138.604 103.987 138.654 103.965C138.704 103.943 138.749 103.91 138.786 103.87C138.831 103.793 138.855 103.706 138.856 103.618C138.906 102.631 138.735 101.646 138.356 100.733C138.113 100.007 137.779 99.3138 137.362 98.6715Z" fill="black"/>
<path d="M135.425 105.351C135.475 105.375 135.531 105.38 135.585 105.366C135.638 105.352 135.684 105.319 135.716 105.274C136.369 104.344 137.297 103.642 138.369 103.264C138.426 103.247 138.474 103.207 138.503 103.154C138.531 103.1 138.537 103.038 138.519 102.981C138.511 102.952 138.497 102.926 138.478 102.903C138.46 102.88 138.437 102.861 138.411 102.847C138.385 102.833 138.356 102.825 138.327 102.822C138.297 102.819 138.268 102.822 138.239 102.83C137.064 103.234 136.048 104.002 135.337 105.022C135.305 105.072 135.294 105.133 135.305 105.192C135.317 105.251 135.351 105.303 135.4 105.337L135.425 105.351Z" fill="#E0E0E0"/>
<path d="M135.127 103.88C135.147 103.897 135.169 103.91 135.193 103.919C135.288 103.954 135.337 103.919 135.386 103.831C135.5 103.667 135.628 103.513 135.767 103.369C136.022 103.106 136.305 102.871 136.611 102.669C137.023 102.393 137.47 102.174 137.941 102.018L138.088 101.973C138.146 101.958 138.195 101.921 138.226 101.87C138.257 101.819 138.266 101.758 138.253 101.7C138.245 101.671 138.232 101.643 138.214 101.619C138.196 101.596 138.174 101.575 138.148 101.56C138.123 101.545 138.094 101.535 138.065 101.53C138.035 101.526 138.005 101.528 137.976 101.535C137.653 101.619 137.34 101.736 137.041 101.885C136.391 102.197 135.808 102.634 135.326 103.17C135.197 103.313 135.011 103.495 135.043 103.705C135.048 103.772 135.078 103.835 135.127 103.88Z" fill="#E0E0E0"/>
<path d="M134.708 102.704C134.852 102.816 134.971 102.585 135.058 102.484C135.172 102.328 135.297 102.182 135.433 102.046C135.683 101.801 135.959 101.582 136.255 101.395C136.626 101.159 137.025 100.971 137.442 100.835H137.495C137.547 100.815 137.59 100.776 137.616 100.726C137.642 100.676 137.648 100.619 137.634 100.564C137.619 100.51 137.585 100.463 137.538 100.432C137.491 100.401 137.435 100.389 137.379 100.397C137.056 100.49 136.744 100.616 136.448 100.775C135.816 101.092 135.257 101.537 134.806 102.081C134.748 102.135 134.701 102.2 134.669 102.272C134.636 102.344 134.619 102.422 134.617 102.501C134.62 102.57 134.646 102.635 134.691 102.687C134.696 102.693 134.702 102.699 134.708 102.704Z" fill="#E0E0E0"/>
<path d="M134.208 101.598C134.236 101.617 134.269 101.629 134.302 101.633C134.4 101.633 134.432 101.532 134.477 101.462C134.526 101.382 134.578 101.305 134.635 101.231C134.741 101.084 134.858 100.946 134.985 100.818C135.222 100.583 135.481 100.372 135.759 100.187C136.087 99.966 136.439 99.7817 136.809 99.6379H136.826C136.854 99.6284 136.88 99.6135 136.903 99.5939C136.925 99.5743 136.943 99.5504 136.956 99.5237C136.969 99.497 136.977 99.4679 136.979 99.4383C136.98 99.4086 136.976 99.3789 136.966 99.3508C136.946 99.2945 136.905 99.2482 136.851 99.222C136.798 99.1958 136.736 99.1918 136.679 99.2108C136.355 99.3307 136.043 99.4819 135.748 99.6624C135.137 100.015 134.608 100.492 134.194 101.063C134.124 101.145 134.073 101.242 134.047 101.346C134.038 101.394 134.045 101.443 134.068 101.486C134.089 101.517 134.115 101.544 134.145 101.567L134.208 101.598Z" fill="#E0E0E0"/>
<path d="M135.237 97.7964C135.204 97.7895 135.171 97.7895 135.139 97.7964C135.041 97.8139 135.037 97.9295 135.013 98.0065C134.988 98.0835 134.95 98.1815 134.915 98.269C134.843 98.4363 134.762 98.5988 134.669 98.7556C134.5 99.0429 134.3 99.3116 134.074 99.5572C133.812 99.8541 133.516 100.12 133.192 100.348C133.168 100.365 133.147 100.386 133.13 100.41C133.114 100.435 133.102 100.462 133.096 100.491C133.09 100.52 133.09 100.55 133.096 100.579C133.102 100.608 133.113 100.635 133.129 100.66C133.146 100.684 133.167 100.706 133.191 100.722C133.216 100.739 133.243 100.75 133.272 100.756C133.301 100.762 133.331 100.762 133.36 100.756C133.389 100.75 133.416 100.739 133.441 100.723C133.725 100.528 133.989 100.305 134.228 100.058C134.736 99.5633 135.132 98.9667 135.391 98.3075C135.439 98.2107 135.464 98.1041 135.464 97.996C135.46 97.9478 135.441 97.9022 135.408 97.8664C135.382 97.8395 135.349 97.8191 135.314 97.8069L135.237 97.7964Z" fill="#E0E0E0"/>
<path d="M117.933 66.8662C118.752 69.7891 119.424 73.2406 119.295 78.9289C119.165 84.6172 119.312 89.7209 119.312 89.7209C119.312 89.7209 118.57 92.0522 113.831 92.6298C109.091 93.2073 107.229 91.6741 107.229 91.6741L106.504 84.7432L104.516 89.9939C104.516 89.9939 102.307 90.547 98.53 89.2938C94.753 88.0406 93.2793 85.2542 93.2793 85.2542C93.2793 85.2542 96.6328 71.2523 98.089 68.0074L117.933 66.8662Z" fill="#455A64"/>
<path d="M106.498 84.7434L106.061 80.2873C106.061 80.2873 101.86 80.4623 100.082 76.6433C100.082 76.6433 100.453 80.1438 105.228 81.544L105.802 84.6524L104.51 89.9942L106.498 84.7434Z" fill="#37474F"/>
<path d="M116.374 92.0521C116.77 84.2565 116.052 72.5544 114.789 68.7458L113.875 69.691C115.307 75.2112 115.625 86.9869 115.373 92.3531C115.712 92.2706 116.046 92.1701 116.374 92.0521Z" fill="#F1C7FF"/>
<path d="M115.881 69.4636C117.306 74.9419 117.369 86.3324 117.085 91.7512C117.443 91.5833 117.784 91.3817 118.104 91.1491C118.489 83.3675 118.037 72.2465 116.798 68.522L115.881 69.4636Z" fill="#F1C7FF"/>
<path d="M85.7115 30.6119C86.2348 32.1781 87.0234 33.6428 88.0428 34.9419C92.6705 40.4797 97.3576 43.3921 99.745 48.3138C102.486 47.9637 106.046 43.2171 103.844 40.4972C101.446 39.6431 92.5095 30.1673 91.6799 28.7881C90.9238 27.3494 88.3859 20.737 87.7908 18.2377C87.7013 17.8184 87.7659 17.3809 87.9728 17.0055C88.5539 15.9063 88.4804 14.7302 88.7429 13.6205C88.9495 12.7524 89.3205 12.3499 89.149 12.2203C88.9321 12.085 88.6721 12.0364 88.4209 12.0845C88.1698 12.1325 87.946 12.2735 87.7943 12.4794C87.4046 13.0302 87.0671 13.6161 86.7862 14.2296C86.7054 13.2268 86.6984 12.2195 86.7652 11.2157C86.9122 8.90188 86.3801 7.18314 83.8178 8.65334C82.211 9.57397 81.3114 11.9403 82.169 16.1689C82.4176 17.3835 82.8691 20.2224 83.3032 21.9692C84.1118 25.1966 84.5844 27.6854 85.7115 30.6119Z" fill="#FFA8A7"/>
<path d="M105.284 40.5045C104.199 39.99 102.897 39.5734 101.465 38.4042C99.9702 37.1861 98.1149 35.8069 98.1149 35.8069C98.1149 35.8069 94.856 38.4567 94.933 42.3703C96.1339 43.5772 97.1761 44.9323 98.0344 46.4028C98.6817 47.5395 99.1894 48.7501 99.5466 50.0083C99.5466 50.0083 103.149 50.7084 103.807 46.8299C104.153 44.69 104.647 42.5766 105.284 40.5045Z" fill="#F1C7FF"/>
<path d="M99.5507 58.9235C99.4176 57.7788 99.4526 55.654 99.4281 55.0729C96.4072 52.4931 97.5519 49.7277 98.5075 47.4979C100.422 43.0453 102.358 40.4759 104.262 40.4619L109.513 40.6159C112.226 40.6649 115.359 40.8155 116.055 40.9345C117.83 41.239 118.656 43.0348 118.856 44.9005C119.062 46.9378 119.538 47.0953 119.206 50.5013C119.206 50.5013 117.984 54.0018 116.892 57.1032C116.892 57.1032 116.497 59.389 116.892 60.4532C117.62 62.4239 118.667 66.9956 119.031 70.3175C119.031 70.3175 117.102 73.0514 108.375 73.0479C102.029 73.0479 97.1738 69.7259 97.1738 69.7259L99.5507 58.9235Z" fill="#F1C7FF"/>
<path d="M118.007 47.3756C118.007 47.6731 117.982 47.9917 117.958 48.3592L98.6035 47.3091C98.7505 46.959 98.8941 46.6545 99.0411 46.3464L118.007 47.3756Z" fill="#455A64"/>
<path d="M104.279 40.4724L109.529 40.6264C112.242 40.6754 115.375 40.826 116.072 40.945C117.847 41.2495 117.706 42.8597 117.892 44.7185C117.984 45.2469 118.032 45.7819 118.036 46.3182L99.5215 45.4011C101.097 42.2577 102.707 40.4864 104.279 40.4724Z" fill="#455A64"/>
<path opacity="0.1" d="M115.094 60.3587C115.066 60.0331 115.048 59.7041 115.048 59.3785C115.064 58.2895 115.208 57.2061 115.479 56.1511C115.976 54.1523 117.03 51.9505 116.606 50.8374C116.183 49.7242 115.132 47.8409 115.619 44.2074L118.475 43.2378C118.668 43.7778 118.792 44.34 118.843 44.911C119.05 46.9483 119.526 47.1058 119.193 50.5118C119.193 50.5118 117.971 54.0123 116.879 57.1137C116.879 57.1137 116.484 59.3995 116.879 60.4637C117.607 62.4345 118.654 67.0061 119.018 70.3281C119.018 70.3281 117.089 73.062 108.363 73.0585H108.104C111.604 72.2813 115.006 69.908 115.521 66.1135C115.794 64.2022 115.255 62.284 115.094 60.3587Z" fill="black"/>
<path opacity="0.1" d="M113.305 53.1865C112.927 54.0021 112.322 54.6912 111.562 55.1712C110.802 55.6512 109.919 55.9016 109.02 55.8924C108.154 55.9117 107.299 55.7021 106.539 55.2848C105.78 54.8674 105.145 54.2571 104.697 53.5156C104.697 53.5156 105.019 56.9355 109.069 56.715C113.119 56.4945 113.305 53.1865 113.305 53.1865Z" fill="black"/>
<path d="M99.5838 26.415C99.4992 25.8186 99.4933 25.2137 99.5663 24.6158C99.7268 23.2474 100.386 21.9862 101.418 21.0733C103.28 19.5016 105.64 20.0232 107.859 20.1282C111.877 20.3102 115.886 21.8784 117.013 25.4419C117.713 27.6717 117.422 30.3426 116.446 33.4405C115.602 36.1394 114.524 37.7391 112.294 38.0786L108.177 37.3785C106.333 37.7111 104.558 36.9795 103.196 35.7543C102.83 35.4234 102.49 35.0653 102.178 34.6832C101.884 34.3025 101.677 33.8632 101.569 33.395C101.234 32.3197 100.975 31.2226 100.791 30.1115C100.664 29.5844 100.469 29.0761 100.21 28.5993C99.9019 27.9036 99.691 27.1685 99.5838 26.415Z" fill="#263238"/>
<path d="M102.731 23.7085C101.702 24.2686 100.368 26.7539 100.298 32.0676C100.242 36.5728 101.66 37.7349 102.381 38.0815C103.102 38.428 104.52 38.2845 105.903 38.106L105.805 40.8048C105.805 40.8048 105.623 43.6892 106.729 43.8783C109.743 43.6892 112.284 40.9414 112.284 40.9414V35.1936C112.647 35.3192 113.038 35.3371 113.411 35.2452C113.784 35.1532 114.122 34.9554 114.384 34.6755C115.435 33.5834 115.785 32.0711 114.952 31.1435C114.731 30.9239 114.461 30.7597 114.165 30.6643C113.868 30.569 113.553 30.5454 113.246 30.5952C112.939 30.6451 112.647 30.7671 112.396 30.9512C112.145 31.1354 111.941 31.3764 111.801 31.6546C111.801 31.6546 110.992 31.6931 110.24 30.1669C108.887 30.2675 107.538 29.9153 106.407 29.1657C103.582 27.391 102.948 24.6186 102.731 23.7085Z" fill="#FFA8A7"/>
<path d="M106.165 30.8637C106.16 30.9747 106.187 31.0848 106.244 31.1802C106.301 31.2756 106.385 31.3522 106.485 31.4004C106.585 31.4487 106.697 31.4664 106.807 31.4514C106.918 31.4365 107.021 31.3895 107.105 31.3163C107.188 31.2431 107.249 31.1469 107.278 31.0398C107.307 30.9326 107.305 30.8191 107.27 30.7135C107.236 30.6078 107.171 30.5146 107.084 30.4455C106.997 30.3764 106.891 30.3343 106.781 30.3246C106.705 30.3189 106.628 30.3284 106.556 30.3525C106.484 30.3766 106.417 30.4149 106.36 30.465C106.302 30.5152 106.256 30.5763 106.222 30.6447C106.189 30.7132 106.169 30.7876 106.165 30.8637Z" fill="#263238"/>
<g style="mix-blend-mode:multiply" opacity="0.5">
<path d="M105.324 34.6021L103.539 35.1026C103.567 35.2221 103.618 35.3347 103.69 35.4338C103.763 35.5329 103.854 35.6165 103.959 35.6796C104.064 35.7426 104.181 35.7838 104.303 35.8008C104.424 35.8177 104.548 35.8101 104.666 35.7782C104.906 35.705 105.109 35.5417 105.232 35.3225C105.354 35.1033 105.388 34.8451 105.324 34.6021Z" fill="#FFA8A7"/>
</g>
<path d="M101.109 28.9178L102.282 28.1652C102.237 28.0867 102.176 28.0183 102.103 27.964C102.031 27.9097 101.948 27.8708 101.86 27.8495C101.772 27.8282 101.68 27.8251 101.591 27.8402C101.502 27.8554 101.416 27.8885 101.34 27.9377C101.184 28.0404 101.072 28.1993 101.029 28.3816C100.986 28.564 101.015 28.7559 101.109 28.9178Z" fill="#263238"/>
<path d="M107.021 28.9038L108.303 29.4359C108.342 29.3535 108.364 29.264 108.367 29.1728C108.371 29.0817 108.356 28.9907 108.323 28.9056C108.29 28.8204 108.241 28.7429 108.177 28.6775C108.113 28.6122 108.037 28.5606 107.953 28.5257C107.778 28.4588 107.585 28.4606 107.412 28.5308C107.239 28.601 107.1 28.7344 107.021 28.9038Z" fill="#263238"/>
<path d="M101.364 30.5666C101.349 30.7183 101.394 30.87 101.489 30.9887C101.585 31.1074 101.724 31.1834 101.875 31.2002C102.028 31.2089 102.178 31.1573 102.294 31.0565C102.409 30.9557 102.48 30.8137 102.492 30.6611C102.504 30.5841 102.5 30.5054 102.48 30.4299C102.461 30.3545 102.426 30.2838 102.378 30.2225C102.33 30.1611 102.269 30.1104 102.201 30.0734C102.132 30.0363 102.057 30.0139 101.979 30.0074C101.901 30.0008 101.823 30.0104 101.749 30.0355C101.675 30.0606 101.607 30.1006 101.55 30.1531C101.492 30.2055 101.446 30.2694 101.414 30.3405C101.382 30.4117 101.365 30.4886 101.364 30.5666Z" fill="#263238"/>
<g style="mix-blend-mode:multiply" opacity="0.5">
<path d="M104.092 30.3389L103.879 33.7413L102.107 33.1218L104.092 30.3389Z" fill="#FFA8A7"/>
</g>
<g style="mix-blend-mode:multiply" opacity="0.5">
<path d="M105.901 38.1066C107.353 37.9666 110.36 37.221 110.868 36.0588C110.66 36.6486 110.276 37.1605 109.769 37.5255C108.852 38.2536 105.869 39.0062 105.869 39.0062L105.901 38.1066Z" fill="#FFA8A7"/>
</g>
<path d="M111.803 31.6545L111.716 34.0243C111.289 34.0079 110.886 33.8229 110.595 33.5099C110.305 33.1969 110.15 32.7814 110.165 32.3546L110.242 30.1667L111.803 31.6545Z" fill="#263238"/>
<path d="M116.616 73.5098C116.143 73.6183 115.195 73.7163 115.055 73.1317C114.915 72.5471 115.702 72.5086 116.287 72.0116C116.917 71.4475 117.579 70.9215 118.272 70.4363C119.154 69.8588 120.243 69.8553 120.684 69.1657C121.139 68.6056 123.782 61.013 124.478 58.7412C122.157 55.5138 119.826 52.3144 118.104 49.8605C118.104 49.8605 115.779 44.7288 116.168 41.2983C117.733 40.9483 120.183 41.3964 122.752 44.6308C125.039 47.44 127.143 50.3922 129.053 53.4695C131.227 57.04 131.427 56.97 130.247 60.2779C129.116 63.4529 126.47 69.1972 124.996 71.6895C123.75 73.8108 123.354 74.5424 122.269 76.0056C121.286 77.3323 119.276 78.7115 118.223 78.953C116.658 79.3031 114.551 78.8725 114.551 77.3218C114.551 75.7711 117.512 74.4724 118.086 72.9497C117.615 73.1831 117.123 73.3707 116.616 73.5098Z" fill="#FFA8A7"/>
<path d="M116.053 40.9455C116.053 40.9455 119.406 40.9035 120.372 41.6456C121.674 42.6257 123.295 44.824 124.223 46.0352C125.15 47.2464 126.673 49.0946 126.673 49.0946C126.673 49.0946 124.972 53.4947 120.834 54.1773L116.896 49.2101C115.923 48.174 115.062 44.866 116.053 40.9455Z" fill="#F1C7FF"/>
<path d="M119.816 25.0495C119.701 24.9374 119.582 24.8324 119.466 24.7274C118.826 24.1266 117.985 23.7848 117.107 23.7683C116.407 23.7998 114.986 24.6049 114.611 23.5863C114.541 23.3462 114.541 23.0912 114.611 22.8512C115.021 21.1534 116.711 20.5548 118.294 20.6143C121.245 20.7229 123.131 23.3517 125.452 24.7869C126.3 25.2602 127.254 25.5119 128.224 25.5185C129.216 25.5644 130.209 25.4796 131.179 25.2665C132.201 25.039 133.195 24.6679 134.235 24.5419C135.274 24.4159 136.416 24.5664 137.196 25.2665C137.613 25.6781 137.907 26.1979 138.045 26.7674C138.183 27.3369 138.159 27.9336 137.977 28.4904C137.594 29.6067 136.856 30.5669 135.877 31.2243C134.893 31.9213 133.781 32.4155 132.605 32.6782C131.429 32.9408 130.212 32.9666 129.026 32.754C126.64 32.3071 124.487 31.0344 122.946 29.159C121.843 27.8323 121.045 26.2396 119.816 25.0495Z" fill="#263238"/>
<path d="M114.985 22.6307C114.824 22.5847 114.674 22.5075 114.542 22.4035C114.411 22.2995 114.302 22.1706 114.221 22.0243C114.14 21.8781 114.088 21.7172 114.069 21.551C114.05 21.3848 114.064 21.2164 114.11 21.0555C114.156 20.8946 114.233 20.7443 114.337 20.6133C114.441 20.4822 114.57 20.373 114.716 20.2917C114.862 20.2104 115.023 20.1588 115.189 20.1397C115.356 20.1206 115.524 20.1344 115.685 20.1804L114.985 22.6307Z" fill="#263238"/>
<path d="M108.655 88.4258C108.645 88.4108 108.638 88.3935 108.634 88.3753C108.631 88.3571 108.633 88.3385 108.638 88.3208C108.648 88.2851 108.67 88.2541 108.701 88.2333L109.901 87.4807L109.992 87.4282C110.023 87.4137 110.057 87.4076 110.09 87.4107L110.486 87.4527C110.523 87.4571 110.557 87.4756 110.58 87.5043C110.604 87.533 110.615 87.5697 110.612 87.6067L110.262 90.9042C110.257 90.9404 110.238 90.9732 110.209 90.996C110.181 91.0187 110.144 91.0297 110.108 91.0267L109.695 90.9847C109.658 90.9802 109.624 90.9613 109.6 90.9322C109.589 90.918 109.581 90.9017 109.576 90.8843C109.571 90.8668 109.57 90.8486 109.572 90.8307L109.838 88.3103L109.054 88.8004C109.024 88.818 108.988 88.8242 108.953 88.8179C108.916 88.8068 108.884 88.7834 108.862 88.7514L108.655 88.4258Z" fill="#F1C7FF"/>
<path d="M113.87 89.1605C113.87 89.2235 113.87 89.297 113.87 89.374L113.842 89.6155L113.817 89.8536C113.817 89.9341 113.8 90.0041 113.789 90.0671C113.761 90.2529 113.711 90.4349 113.642 90.6097C113.579 90.7657 113.484 90.9065 113.362 91.0227C113.233 91.1381 113.078 91.2219 112.911 91.2678C112.702 91.3229 112.484 91.336 112.27 91.3063C112.054 91.2883 111.842 91.2301 111.647 91.1347C111.492 91.0508 111.36 90.9307 111.262 90.7847C111.167 90.646 111.102 90.4884 111.073 90.3226C111.041 90.1378 111.03 89.9498 111.041 89.7626C111.041 89.633 111.062 89.486 111.08 89.3215C111.097 89.157 111.115 89.01 111.136 88.8804C111.164 88.6931 111.215 88.5098 111.286 88.3344C111.349 88.1762 111.445 88.0331 111.566 87.9143C111.694 87.7957 111.847 87.7083 112.015 87.6588C112.224 87.6004 112.443 87.5861 112.659 87.6168C112.874 87.6352 113.084 87.6933 113.278 87.7883C113.435 87.8712 113.568 87.9914 113.667 88.1383C113.762 88.277 113.827 88.4346 113.856 88.6004C113.882 88.7859 113.887 88.9739 113.87 89.1605ZM111.717 89.8256C111.701 90.0284 111.741 90.2318 111.833 90.4136C111.888 90.4914 111.961 90.555 112.045 90.5994C112.13 90.6438 112.224 90.6677 112.319 90.6692C112.413 90.6886 112.509 90.6854 112.601 90.6598C112.693 90.6342 112.778 90.587 112.848 90.5222C112.979 90.365 113.062 90.1727 113.086 89.9691C113.107 89.8396 113.124 89.6995 113.142 89.542C113.159 89.3845 113.17 89.241 113.177 89.1115C113.194 88.9085 113.154 88.7047 113.061 88.5234C113.006 88.4456 112.933 88.382 112.848 88.3376C112.764 88.2932 112.67 88.2693 112.575 88.2679C112.481 88.2483 112.384 88.2518 112.292 88.278C112.2 88.3042 112.115 88.3524 112.046 88.4184C111.915 88.5746 111.832 88.7655 111.808 88.9679C111.787 89.094 111.77 89.2375 111.752 89.395C111.735 89.5525 111.724 89.696 111.717 89.8256Z" fill="#F1C7FF"/>
<path d="M68.7813 100.019C69.975 97.6145 70.493 95.5458 70.367 94.1071C69.7684 87.4001 68.9668 78.6454 68.2877 73.6222C67.8362 70.2933 66.9471 66.6213 65.5609 60.3204C65.5609 59.0497 65.3683 57.002 65.3683 57.002L51.0374 57.415C48.2143 63.0945 46.5338 69.273 46.0912 75.6C45.6466 81.1203 44.6315 86.8016 44.453 89.798C41.012 91.2472 39.2023 93.2564 37.592 94.7231C34.7426 97.3275 27.6087 105.004 26.121 105.603L26.0299 105.69C25.3754 106.39 24.4652 109.516 23.7756 111.403C23.3136 112.67 23.002 114.693 23.8071 116.304C24.5737 117.84 25.5014 118.26 25.9529 116.622C26.0334 116.034 26.1035 115.453 26.1805 114.91C26.4255 113.234 28.2562 109.772 31.5467 107.615C33.1709 106.565 42.1672 100.88 49.9102 96.9425C52.1505 95.8013 53.2672 94.2156 54.3173 91.9333C55.686 88.9544 58.0278 82.9195 58.0278 82.9195L60.6112 95.9448C59.0325 98.4512 58.0698 100.604 57.0022 105.568C56.0134 109.953 54.7269 114.267 53.1517 118.477C53.0572 118.757 52.9661 119.037 52.8716 119.318C52.7542 119.762 52.6128 120.201 52.4481 120.63C52.1759 121.139 52.0048 121.695 51.944 122.268C51.9063 122.836 52.0098 123.403 52.245 123.921C52.3816 124.215 52.5601 124.491 52.6861 124.792C52.9384 125.491 53.0095 126.243 52.8926 126.977C52.8156 127.715 52.6651 128.447 52.6616 129.185C52.6483 130.273 53.0009 131.333 53.6627 132.196C53.9958 132.621 54.4129 132.973 54.8881 133.231C55.3633 133.488 55.8863 133.644 56.4246 133.691C56.8321 133.737 57.2438 133.65 57.5973 133.442C57.8475 133.243 58.0403 132.982 58.156 132.684C58.2716 132.386 58.3059 132.063 58.2554 131.748C58.1491 131.12 57.9669 130.508 57.7128 129.924C57.4745 129.25 57.2965 128.557 57.1807 127.852C56.9726 126.485 56.8952 125.102 56.9497 123.721C56.9777 122.429 56.9007 121.012 57.5693 119.871C57.5763 119.846 65.3613 106.926 68.7813 100.019Z" fill="#FFA8A7"/>
<path d="M57.5723 119.856C57.5723 119.856 64.0902 109.04 67.8182 101.913C65.6479 102.34 60.7612 100.597 59.158 98.5769C58.3529 100.299 57.7018 102.34 57.0052 105.578C56.0164 109.964 54.73 114.277 53.1547 118.488C53.0602 118.768 52.9692 119.048 52.8746 119.328C52.7572 119.773 52.6158 120.211 52.4511 120.64C52.1802 121.146 52.0091 121.698 51.947 122.268C51.9094 122.835 52.0128 123.403 52.2481 123.92C52.3846 124.214 52.5631 124.491 52.6891 124.792C52.9414 125.491 53.0125 126.242 52.8956 126.976C52.8186 127.715 52.6681 128.447 52.6646 129.185C52.6513 130.272 53.0039 131.333 53.6658 132.196C53.9988 132.621 54.4159 132.973 54.8911 133.23C55.3663 133.488 55.8893 133.644 56.4276 133.69C56.8351 133.737 57.2468 133.65 57.6003 133.442C57.8505 133.243 58.0433 132.982 58.159 132.684C58.2746 132.386 58.309 132.063 58.2584 131.747C58.1521 131.12 57.9699 130.507 57.7158 129.924C57.4775 129.25 57.2995 128.557 57.1837 127.851C56.9756 126.485 56.8982 125.102 56.9527 123.721C56.9807 122.429 56.9037 121.011 57.5723 119.856Z" fill="#37474F"/>
<path d="M59.1594 98.5769C58.8723 99.193 58.6028 99.8546 58.3438 100.59C59.4532 101.681 60.7742 102.535 62.2256 103.097C63.677 103.659 65.2281 103.919 66.7834 103.859C67.1335 103.191 67.4835 102.536 67.8336 101.913C65.6493 102.34 60.7626 100.597 59.1594 98.5769Z" fill="#F1C7FF"/>
<path d="M51.1296 121.355C50.9055 121.635 50.503 122.216 50.5485 122.538C50.594 122.86 51.1786 124.512 51.2486 126.22C51.3116 127.733 50.65 130.607 52.1062 132.654C53.3874 134.454 54.5565 134.874 55.6067 135.073C56.0172 135.175 56.4462 135.178 56.8579 135.081C57.2696 134.983 57.6519 134.789 57.973 134.513C57.973 134.513 58.9041 133.68 58.4911 133.036C58.078 132.392 51.1296 121.355 51.1296 121.355Z" fill="#37474F"/>
<path d="M51.0371 121.499C51.0891 121.079 51.2758 120.687 51.5692 120.382C52.0032 119.909 52.4758 119.507 52.6473 118.866C52.7068 118.635 52.7593 118.208 53.0394 118.131H53.3159L53.1024 118.765C53.2214 119.027 53.4524 119.636 53.561 119.906C53.8165 120.606 53.4979 121.338 54.002 121.95C54.037 121.173 54.0685 120.277 54.5831 120.284C54.9331 120.284 55.5492 120.76 56.2493 120.861C56.9494 120.963 57.5025 120.819 57.7755 120.921C58.0486 121.023 57.8946 121.373 57.7195 122.174C57.4938 123.082 57.3659 124.011 57.338 124.947C57.394 125.689 57.4745 126.455 57.583 127.19C57.9996 130.008 59.0217 131.461 58.7907 132.977C58.5491 134.552 56.0673 135.105 54.2821 133.74C51.2471 131.419 51.8737 129.084 51.9262 127.355C51.9895 126.241 51.8869 125.124 51.6217 124.04C51.3557 123 51.0616 122.475 51.0371 121.499Z" fill="#F1C7FF"/>
<path opacity="0.4" d="M51.0371 121.499C51.0891 121.079 51.2758 120.687 51.5692 120.382C52.0032 119.909 52.4758 119.507 52.6473 118.866C52.7068 118.635 52.7593 118.208 53.0394 118.131H53.3159L53.1024 118.765C53.2214 119.027 53.4524 119.636 53.561 119.906C53.8165 120.606 53.4979 121.338 54.002 121.95C54.037 121.173 54.0685 120.277 54.5831 120.284C54.9331 120.284 55.5492 120.76 56.2493 120.861C56.9494 120.963 57.5025 120.819 57.7755 120.921C58.0486 121.023 57.8946 121.373 57.7195 122.174C57.4938 123.082 57.3659 124.011 57.338 124.947C57.394 125.689 57.4745 126.455 57.583 127.19C57.9996 130.008 59.0217 131.461 58.7907 132.977C58.5491 134.552 56.0673 135.105 54.2821 133.74C51.2471 131.419 51.8737 129.084 51.9262 127.355C51.9895 126.241 51.8869 125.124 51.6217 124.04C51.3557 123 51.0616 122.475 51.0371 121.499Z" fill="black"/>
<path opacity="0.15" d="M52.6426 118.855C52.6426 118.855 52.6426 118.855 52.6426 118.876C52.644 118.888 52.644 118.9 52.6426 118.911C52.7048 119.301 52.7913 119.687 52.9016 120.066C52.9996 120.522 53.0626 120.984 53.1291 121.442C53.1747 121.764 53.1957 122.086 53.2132 122.412C53.2307 122.737 53.2412 123 53.2377 123.297C53.2167 124.698 53.0101 125.814 53.3602 127.607C53.7102 129.399 54.2143 129.574 54.5748 129.357C54.9354 129.14 54.6028 128.657 54.2598 127.092C53.9098 125.44 54.1968 123.633 54.0183 121.936C53.8937 121.794 53.807 121.623 53.7662 121.439C53.6437 120.945 53.7662 120.406 53.5772 119.902C53.4792 119.632 53.2272 119.023 53.1186 118.761L53.3322 118.127H53.0556C52.8806 118.176 52.7966 118.362 52.7406 118.547C52.6881 118.656 52.6636 118.768 52.6426 118.855Z" fill="black"/>
<path opacity="0.15" d="M53.6362 130.929C54.5708 131.471 55.1344 131.345 55.1134 130.421C55.0644 129.768 54.8733 129.134 54.5533 128.562L57.0036 128.667C57.0036 128.667 56.8461 130.347 57.3537 130.768C57.6547 131.016 58.0783 130.627 58.3233 130.13C58.6734 131.237 58.9499 132.091 58.8169 132.966C58.5754 134.541 56.0935 135.094 54.3083 133.729C51.7669 131.786 51.7949 129.833 51.8999 128.233C51.8334 129.199 52.7015 130.386 53.6362 130.929Z" fill="black"/>
<path opacity="0.15" d="M57.6996 122.237C57.4975 123.119 57.3803 124.018 57.3496 124.922C57.4056 125.664 57.4861 126.431 57.5946 127.166C57.6646 127.645 57.7557 128.086 57.8537 128.496C57.8352 128.723 57.758 128.941 57.6296 129.13C57.3181 129.406 57.1816 129.375 57.0065 128.667C56.814 127.869 56.807 123.483 57.7066 122.237H57.6996Z" fill="black"/>
<path d="M57.6124 128.867C57.5897 128.91 57.5541 128.944 57.5108 128.965C57.4675 128.987 57.4185 128.994 57.3709 128.986C56.3019 128.815 55.2137 128.798 54.14 128.937C54.0825 128.943 54.0251 128.926 53.9794 128.891C53.9336 128.856 53.903 128.804 53.8936 128.747C53.8843 128.69 53.8969 128.632 53.929 128.584C53.9611 128.536 54.0102 128.502 54.0664 128.489C55.1912 128.34 56.3318 128.358 57.4514 128.541C57.5102 128.553 57.5622 128.586 57.5962 128.635C57.6303 128.685 57.6437 128.745 57.6334 128.804C57.6296 128.826 57.6225 128.847 57.6124 128.867Z" fill="#E0E0E0"/>
<path d="M57.5449 127.708C57.52 127.757 57.4781 127.795 57.4272 127.815C57.3762 127.835 57.3197 127.835 57.2683 127.817C56.1913 127.452 55.0273 127.434 53.9394 127.764C53.9106 127.778 53.8793 127.785 53.8475 127.786C53.8157 127.786 53.7842 127.78 53.7548 127.768C53.7255 127.756 53.6991 127.737 53.6773 127.714C53.6555 127.691 53.6387 127.664 53.6282 127.634C53.6176 127.604 53.6134 127.572 53.6159 127.54C53.6184 127.509 53.6276 127.478 53.6427 127.45C53.6578 127.422 53.6786 127.397 53.7038 127.378C53.729 127.359 53.758 127.345 53.7888 127.337C54.9751 126.97 56.2472 126.988 57.4223 127.39C57.4783 127.411 57.5238 127.453 57.5493 127.507C57.5748 127.562 57.5782 127.623 57.5589 127.68L57.5449 127.708Z" fill="#E0E0E0"/>
<path d="M57.5473 126.609C57.5209 126.662 57.475 126.702 57.4193 126.721C57.3636 126.74 57.3027 126.736 57.2497 126.711C56.153 126.239 54.9281 126.155 53.7772 126.473C53.7479 126.486 53.7161 126.493 53.6839 126.493C53.6517 126.493 53.6198 126.487 53.5904 126.474C53.5609 126.461 53.5346 126.441 53.5131 126.417C53.4916 126.393 53.4755 126.365 53.4657 126.334C53.456 126.304 53.4529 126.271 53.4566 126.239C53.4603 126.207 53.4708 126.176 53.4874 126.149C53.5039 126.121 53.5261 126.097 53.5526 126.079C53.579 126.06 53.6091 126.048 53.6407 126.042C54.8996 125.685 56.2435 125.776 57.4422 126.301C57.4695 126.314 57.4939 126.332 57.5141 126.354C57.5343 126.376 57.5499 126.402 57.56 126.431C57.5701 126.459 57.5745 126.489 57.5729 126.519C57.5713 126.549 57.5638 126.578 57.5508 126.606L57.5473 126.609Z" fill="#E0E0E0"/>
<path d="M57.5657 125.45C57.5344 125.502 57.4844 125.539 57.4262 125.554C57.3681 125.569 57.3063 125.561 57.2541 125.531C55.6824 124.624 53.8201 125.181 53.8026 125.181C53.7733 125.194 53.7415 125.201 53.7093 125.201C53.6771 125.202 53.6452 125.195 53.6158 125.182C53.5863 125.169 53.56 125.15 53.5385 125.126C53.517 125.102 53.5008 125.073 53.4911 125.043C53.4814 125.012 53.4783 124.98 53.482 124.948C53.4857 124.916 53.4962 124.885 53.5128 124.857C53.5293 124.829 53.5515 124.806 53.578 124.787C53.6044 124.769 53.6345 124.756 53.6661 124.75C53.7501 124.726 55.7314 124.117 57.4816 125.125C57.5096 125.14 57.5342 125.16 57.5538 125.185C57.5734 125.21 57.5876 125.238 57.5955 125.269C57.6034 125.3 57.6048 125.332 57.5997 125.363C57.5946 125.394 57.583 125.424 57.5657 125.45Z" fill="#E0E0E0"/>
<path d="M57.5487 124.218V124.236C57.5163 124.286 57.4655 124.321 57.4072 124.335C57.3489 124.348 57.2878 124.337 57.2371 124.306C55.7389 123.357 53.7366 123.956 53.7366 123.956C53.6791 123.973 53.6169 123.967 53.5638 123.939C53.5106 123.911 53.4708 123.863 53.4531 123.805C53.4445 123.777 53.4415 123.747 53.4445 123.718C53.4474 123.688 53.4561 123.66 53.4701 123.634C53.484 123.608 53.5031 123.585 53.526 123.566C53.5489 123.548 53.5753 123.534 53.6036 123.525C53.6946 123.497 55.8159 122.864 57.4926 123.924C57.5366 123.958 57.5666 124.006 57.577 124.061C57.5873 124.115 57.5772 124.171 57.5487 124.218Z" fill="#E0E0E0"/>
<path d="M57.6278 123.161C57.596 123.212 57.5455 123.248 57.4871 123.262C57.4288 123.276 57.3674 123.266 57.3163 123.235C56.7899 122.952 56.213 122.775 55.6183 122.715C55.0237 122.655 54.4231 122.713 53.8508 122.885C53.7951 122.906 53.733 122.905 53.6782 122.881C53.6234 122.857 53.5803 122.813 53.5585 122.757C53.5367 122.701 53.5379 122.639 53.5619 122.584C53.5858 122.529 53.6306 122.486 53.6863 122.465C54.3211 122.268 54.9888 122.201 55.65 122.267C56.3113 122.332 56.9527 122.529 57.5368 122.846C57.5639 122.86 57.5878 122.88 57.6072 122.904C57.6265 122.927 57.6408 122.955 57.6493 122.984C57.6578 123.014 57.6603 123.044 57.6566 123.075C57.6529 123.105 57.6431 123.135 57.6278 123.161Z" fill="#E0E0E0"/>
<path d="M47.1764 98.395C45.581 97.9148 44.2079 96.884 43.3013 95.4861C42.0937 93.7359 42.3422 90.8935 42.3422 90.876C40.1999 92.1502 38.8417 93.6064 37.592 94.7265C34.7426 97.3309 27.6087 105.007 26.121 105.606L26.0299 105.694C25.3754 106.394 24.4652 109.52 23.7756 111.406C23.3136 112.674 23.002 114.697 23.8071 116.307C24.5737 117.844 25.5014 118.264 25.9529 116.626C26.0334 116.037 26.1035 115.456 26.1805 114.914C26.4255 113.237 28.2563 109.775 31.5467 107.619C32.9819 106.681 40.1789 102.141 47.1764 98.3775V98.395Z" fill="#37474F"/>
<path d="M47.1797 98.395C45.5844 97.9148 44.2112 96.884 43.3047 95.4861C42.097 93.7359 42.3455 90.8935 42.3455 90.876C41.6396 91.2954 40.9635 91.7632 40.3223 92.2762C40.3608 94.4535 40.8753 97.7019 45.0129 99.5712C45.734 99.1686 46.4586 98.7731 47.1797 98.3845V98.395Z" fill="#F1C7FF"/>
<path d="M24.3294 105.97C23.9793 106.096 23.3527 106.394 23.2302 106.698C23.1077 107.003 22.7752 108.718 21.97 110.227C21.2699 111.56 19.2327 113.706 19.4497 116.209C19.6457 118.407 20.4438 119.36 21.2349 120.06C21.5374 120.356 21.9066 120.577 22.3116 120.701C22.7166 120.826 23.1456 120.852 23.5628 120.777C23.5628 120.777 24.7879 120.529 24.7564 119.766C24.7249 119.003 24.3294 105.97 24.3294 105.97Z" fill="#37474F"/>
<path d="M24.1818 106.037C24.4375 105.697 24.7979 105.451 25.2074 105.337C25.8165 105.148 26.4326 105.043 26.9017 104.573C27.0697 104.405 27.3322 104.066 27.6018 104.139C27.6263 104.139 27.8503 104.265 27.8503 104.265L27.3462 104.706C27.3182 104.994 27.2167 105.641 27.1642 105.925C27.0347 106.642 26.3836 107.125 26.5096 107.909C26.9332 107.258 27.4127 106.509 27.8538 106.765C28.1443 106.943 28.4454 107.664 28.9984 108.105C29.5515 108.547 30.1011 108.704 30.2831 108.932C30.4652 109.159 30.1571 109.38 29.583 109.982C28.9204 110.648 28.3334 111.385 27.8328 112.18C27.5072 112.849 27.1887 113.549 26.9087 114.235C25.8585 116.878 25.988 118.649 25.0219 119.836C24.0558 121.022 21.5949 120.291 20.7478 118.211C19.3056 114.672 21.0278 112.961 21.945 111.511C22.559 110.582 23.0309 109.566 23.3452 108.498C23.6882 107.496 23.7022 106.901 24.1818 106.037Z" fill="#F1C7FF"/>
<path opacity="0.4" d="M24.1818 106.037C24.4375 105.697 24.7979 105.451 25.2074 105.337C25.8165 105.148 26.4326 105.043 26.9017 104.573C27.0697 104.405 27.3322 104.066 27.6018 104.139C27.6263 104.139 27.8503 104.265 27.8503 104.265L27.3462 104.706C27.3182 104.994 27.2167 105.641 27.1642 105.925C27.0347 106.642 26.3836 107.125 26.5096 107.909C26.9332 107.258 27.4127 106.509 27.8538 106.765C28.1443 106.943 28.4454 107.664 28.9984 108.105C29.5515 108.547 30.1011 108.704 30.2831 108.932C30.4652 109.159 30.1571 109.38 29.583 109.982C28.9204 110.648 28.3334 111.385 27.8328 112.18C27.5072 112.849 27.1887 113.549 26.9087 114.235C25.8585 116.878 25.988 118.649 25.0219 119.836C24.0558 121.022 21.5949 120.291 20.7478 118.211C19.3056 114.672 21.0278 112.961 21.945 111.511C22.559 110.582 23.0309 109.566 23.3452 108.498C23.6882 107.496 23.7022 106.901 24.1818 106.037Z" fill="black"/>
<path opacity="0.15" d="M26.9047 104.581L26.8732 104.609C26.7346 104.976 26.6177 105.351 26.5231 105.732C26.3796 106.173 26.2011 106.604 26.0226 107.034C25.9 107.335 25.7565 107.626 25.606 107.913C25.4555 108.2 25.333 108.435 25.1789 108.687C24.4473 109.894 23.7087 110.745 23.1031 112.467C22.4976 114.189 22.8441 114.599 23.2712 114.567C23.6982 114.536 23.6422 113.99 24.1428 112.467C24.6714 110.86 25.8405 109.453 26.5476 107.899C26.5135 107.713 26.5255 107.522 26.5826 107.342C26.7262 106.856 27.1007 106.453 27.1952 105.925C27.2477 105.641 27.3492 104.994 27.3772 104.707L27.8813 104.266L27.8463 104.248L27.8113 104.227L27.7238 104.181L27.6818 104.164C27.6662 104.154 27.6498 104.146 27.6328 104.139C27.5417 104.131 27.45 104.145 27.3657 104.18C27.2814 104.216 27.2072 104.271 27.1497 104.343C27.0447 104.43 26.9677 104.518 26.9047 104.581Z" fill="black"/>
<path opacity="0.15" d="M21.6488 115.495C22.1774 116.437 22.727 116.615 23.1785 115.807C23.4664 115.218 23.6228 114.575 23.6371 113.92L25.6919 115.243C25.6919 115.243 24.7012 116.615 24.9218 117.21C25.0548 117.578 25.6219 117.459 26.0769 117.154C25.8144 118.281 25.6254 119.164 25.0688 119.85C24.0606 121.085 21.6418 120.305 20.7947 118.225C19.587 115.261 20.5987 113.591 21.4948 112.275C20.9767 113.097 21.1167 114.553 21.6488 115.495Z" fill="black"/>
<path opacity="0.15" d="M29.5455 110.055C28.919 110.71 28.3585 111.425 27.8723 112.19C27.5467 112.859 27.2282 113.559 26.9481 114.245C26.7661 114.697 26.6226 115.124 26.5001 115.526C26.368 115.712 26.191 115.862 25.9855 115.96C25.5759 116.038 25.4744 115.943 25.6845 115.243C25.919 114.459 28.1348 110.671 29.535 110.055H29.5455Z" fill="black"/>
<path d="M26.1239 115.73C26.0849 115.758 26.0377 115.774 25.9892 115.774C25.9407 115.774 25.8935 115.758 25.8544 115.73C25.0187 115.041 24.0886 114.475 23.0925 114.049C23.0368 114.028 22.9921 113.984 22.9681 113.93C22.9441 113.875 22.9429 113.813 22.9648 113.757C22.9866 113.701 23.0296 113.657 23.0844 113.633C23.1393 113.609 23.2013 113.607 23.257 113.629C24.3018 114.067 25.2761 114.657 26.1484 115.38C26.1936 115.419 26.2214 115.474 26.226 115.534C26.2306 115.593 26.2115 115.652 26.1729 115.698C26.1584 115.711 26.1418 115.722 26.1239 115.73Z" fill="#E0E0E0"/>
<path d="M26.6311 114.686C26.585 114.716 26.5296 114.728 26.4754 114.719C26.4212 114.711 26.372 114.683 26.337 114.641C25.5917 113.782 24.5967 113.177 23.4911 112.912C23.4322 112.899 23.3808 112.863 23.3483 112.812C23.3158 112.761 23.3048 112.699 23.3178 112.64C23.3308 112.581 23.3667 112.53 23.4176 112.497C23.4685 112.465 23.5302 112.454 23.5891 112.467C24.7982 112.75 25.8858 113.411 26.6941 114.354C26.7322 114.4 26.7507 114.459 26.7455 114.519C26.7402 114.578 26.7117 114.634 26.6661 114.672L26.6311 114.686Z" fill="#E0E0E0"/>
<path d="M27.2017 113.752C27.1517 113.783 27.0917 113.793 27.0343 113.781C26.9768 113.768 26.9265 113.734 26.8936 113.685C26.1862 112.724 25.1726 112.033 24.0197 111.725C23.9614 111.711 23.9109 111.674 23.8795 111.623C23.848 111.572 23.838 111.51 23.8517 111.452C23.8583 111.423 23.8705 111.396 23.8876 111.372C23.9048 111.348 23.9265 111.328 23.9515 111.312C23.9766 111.296 24.0045 111.286 24.0336 111.281C24.0627 111.276 24.0925 111.277 24.1212 111.284C25.3896 111.612 26.5038 112.372 27.2717 113.433C27.3053 113.483 27.318 113.544 27.3068 113.603C27.2957 113.662 27.2617 113.714 27.2122 113.748L27.2017 113.752Z" fill="#E0E0E0"/>
<path d="M27.7898 112.747C27.7638 112.762 27.7352 112.772 27.7054 112.776C27.6757 112.78 27.6455 112.778 27.6165 112.77C27.5876 112.762 27.5605 112.749 27.5367 112.73C27.513 112.712 27.4931 112.689 27.4782 112.663C26.5821 111.081 24.6779 110.629 24.6779 110.622C24.6491 110.616 24.6219 110.604 24.5979 110.587C24.5738 110.569 24.5534 110.548 24.5378 110.523C24.5222 110.498 24.5117 110.47 24.5069 110.441C24.5021 110.411 24.5031 110.382 24.5098 110.353C24.516 110.324 24.5279 110.296 24.545 110.272C24.562 110.248 24.5837 110.227 24.6089 110.212C24.634 110.196 24.6621 110.185 24.6914 110.181C24.7207 110.176 24.7506 110.178 24.7794 110.185C24.8634 110.185 26.8797 110.682 27.8808 112.439C27.8955 112.465 27.9048 112.494 27.9081 112.524C27.9115 112.554 27.9088 112.584 27.9003 112.612C27.8919 112.641 27.8777 112.668 27.8587 112.691C27.8397 112.714 27.8163 112.733 27.7898 112.747Z" fill="#E0E0E0"/>
<path d="M28.4219 111.697H28.4044C28.3509 111.724 28.289 111.729 28.232 111.711C28.175 111.692 28.1275 111.652 28.0999 111.599C27.2877 110.02 25.2645 109.523 25.247 109.499C25.218 109.493 25.1905 109.481 25.1662 109.464C25.1419 109.447 25.1213 109.425 25.1057 109.4C25.09 109.375 25.0795 109.347 25.0749 109.317C25.0703 109.288 25.0717 109.258 25.0789 109.229C25.0855 109.201 25.0978 109.173 25.1149 109.149C25.132 109.125 25.1537 109.105 25.1788 109.089C25.2038 109.074 25.2317 109.063 25.2608 109.058C25.29 109.054 25.3197 109.055 25.3485 109.061C25.4395 109.082 27.5923 109.611 28.4989 111.375C28.5159 111.401 28.5274 111.43 28.5327 111.461C28.5381 111.491 28.5371 111.523 28.5299 111.553C28.5227 111.583 28.5094 111.611 28.4908 111.636C28.4722 111.661 28.4488 111.682 28.4219 111.697Z" fill="#E0E0E0"/>
<path d="M29.0259 110.818C28.9724 110.845 28.9105 110.85 28.8535 110.832C28.7965 110.814 28.749 110.773 28.7214 110.72C28.0956 109.693 27.0888 108.956 25.921 108.669C25.862 108.659 25.8093 108.626 25.7746 108.578C25.7398 108.529 25.7257 108.469 25.7354 108.41C25.7452 108.351 25.778 108.298 25.8265 108.264C25.8751 108.229 25.9355 108.215 25.9945 108.224C26.6461 108.374 27.2609 108.654 27.8022 109.047C28.3435 109.44 28.8001 109.937 29.1449 110.51C29.1582 110.538 29.1656 110.569 29.1667 110.599C29.1679 110.63 29.1628 110.661 29.1516 110.69C29.1405 110.719 29.1236 110.745 29.102 110.767C29.0804 110.789 29.0545 110.807 29.0259 110.818Z" fill="#E0E0E0"/>
<path d="M49.3868 61.4861C48.0601 64.2165 46.786 67.4929 45.8863 73.1147C44.9867 78.7365 44.2656 84.1342 44.2656 84.1342C44.2656 84.1342 44.2656 86.1575 48.8163 87.5682C53.3669 88.9789 56.7169 87.4002 56.7169 87.4002L57.767 84.3547L58.4426 86.6195C58.4426 86.6195 60.5184 87.5542 64.4529 87.0081C68.3875 86.462 70.3267 83.9627 70.3267 83.9627C70.3267 83.9627 67.8029 66.7508 66.1472 63.4149L49.3868 61.4861Z" fill="#455A64"/>
<path d="M57.8066 84.3548L59.6444 78.4425C59.6444 78.4425 62.7948 77.7144 65.2172 74.2734C65.2172 74.2734 65.2172 77.8019 60.3165 79.6012L58.7518 83.8893L58.5032 86.6091L57.8066 84.3548Z" fill="#37474F"/>
<path d="M49.4692 84.0854C49.4625 84.0699 49.459 84.0533 49.459 84.0364C49.459 84.0195 49.4625 84.0028 49.4692 83.9874C49.4727 83.9709 49.4799 83.9554 49.4902 83.9421C49.5005 83.9287 49.5136 83.9179 49.5287 83.9104L50.6489 83.2418L50.7329 83.1963C50.7626 83.1875 50.7942 83.1875 50.8239 83.1963L51.1739 83.2453C51.1909 83.2461 51.2073 83.2509 51.222 83.2595C51.2366 83.268 51.2489 83.2799 51.258 83.2943C51.2688 83.3066 51.2769 83.3211 51.2818 83.3368C51.2866 83.3525 51.288 83.369 51.286 83.3853L50.8974 86.3992C50.8966 86.4161 50.8918 86.4326 50.8832 86.4472C50.8747 86.4619 50.8627 86.4742 50.8484 86.4832C50.8359 86.4937 50.8213 86.5013 50.8056 86.5055C50.7899 86.5097 50.7734 86.5105 50.7574 86.5077L50.3758 86.4587C50.3591 86.4571 50.3429 86.4519 50.3284 86.4435C50.3139 86.435 50.3014 86.4235 50.2918 86.4097C50.2716 86.3826 50.2628 86.3487 50.2673 86.3152L50.5684 84.0014L49.8333 84.4354C49.8185 84.4423 49.8023 84.4459 49.786 84.4459C49.7697 84.4459 49.7536 84.4423 49.7388 84.4354C49.7052 84.4268 49.6763 84.4055 49.6582 84.3759L49.4692 84.0854Z" fill="#F1C7FF"/>
<path d="M53.0395 86.8083C53.0062 86.8035 52.9761 86.786 52.9555 86.7593C52.9357 86.7321 52.9269 86.6983 52.931 86.6648L53.0045 86.0977L51.5518 85.9087C51.5351 85.9071 51.5189 85.902 51.5044 85.8935C51.4899 85.885 51.4774 85.8735 51.4678 85.8597C51.4571 85.8467 51.4493 85.8315 51.4451 85.8152C51.4409 85.7988 51.4403 85.7818 51.4433 85.7652L51.4853 85.4326C51.4903 85.3919 51.506 85.3533 51.5308 85.3206L51.6184 85.2261L53.2811 83.6229C53.3066 83.5924 53.3389 83.5684 53.3753 83.5526C53.4118 83.5368 53.4514 83.5297 53.4911 83.5319L53.8412 83.5774C53.8746 83.5826 53.9048 83.6003 53.9256 83.627C53.9464 83.6536 53.9562 83.6872 53.9532 83.7209L53.7081 85.5937L54.1107 85.6462C54.1441 85.6514 54.1743 85.6691 54.1951 85.6958C54.2159 85.7224 54.2258 85.756 54.2227 85.7897L54.1807 86.1222C54.1759 86.1556 54.1583 86.1857 54.1317 86.2063C54.1043 86.2258 54.0706 86.2345 54.0372 86.2308L53.6346 86.1783L53.5611 86.7453C53.5587 86.7622 53.5528 86.7784 53.5437 86.7929C53.5347 86.8073 53.5227 86.8198 53.5086 86.8293C53.4961 86.8398 53.4816 86.8477 53.4659 86.8526C53.4503 86.8574 53.4339 86.859 53.4176 86.8574L53.0395 86.8083ZM53.0816 85.5132L53.2111 84.5085L52.2939 85.4081L53.0816 85.5132Z" fill="#F1C7FF"/>
<path d="M52.88 64.9829L52.1484 63.8943C50.2021 67.4648 48.1404 79.1984 47.1777 86.9415C47.4648 87.071 47.7798 87.2005 48.1229 87.323C48.774 82.1038 50.4542 70.2372 52.88 64.9829Z" fill="#F1C7FF"/>
<path d="M45.3105 85.7935C45.5927 86.0397 45.8974 86.2589 46.2207 86.4481C46.8963 81.0853 48.559 69.5688 50.9393 64.395L50.1937 63.3169C48.307 66.7999 46.2977 78.0504 45.3105 85.7935Z" fill="#F1C7FF"/>
<path d="M79.691 29.4705C79.2276 30.9531 78.4837 32.3328 77.4997 33.5346C72.9736 39.1599 68.1499 42.5238 65.7626 47.4455C63.0217 47.0955 59.4617 42.3488 61.667 39.6254C64.0614 38.7713 72.9981 29.2955 73.8312 27.9198C74.5838 26.4811 77.1217 19.8687 77.7167 17.3693C77.8072 16.949 77.7425 16.5101 77.5347 16.1337C76.9536 15.0345 77.0272 13.8583 76.7646 12.7452C76.5581 11.8806 76.187 11.4745 76.3586 11.345C76.5751 11.2093 76.8348 11.1602 77.0859 11.2075C77.337 11.2549 77.5611 11.3952 77.7132 11.6005C78.1027 12.1515 78.4401 12.7375 78.7214 13.3508C78.8022 12.3468 78.8092 11.3383 78.7424 10.3334C78.5954 8.02303 79.1274 6.30429 81.6898 7.7745C83.3 8.69513 84.1961 11.0615 83.3385 15.2865C83.0935 16.5047 82.4109 18.9936 81.9733 20.7403C81.1647 23.9783 80.8182 26.5406 79.691 29.4705Z" fill="#FFA8A7"/>
<path d="M60.2207 39.6327C61.3059 39.1181 62.608 38.7016 64.0397 37.5324C65.5344 36.3143 67.3932 34.9351 67.3932 34.9351C67.3932 34.9351 70.6487 37.5849 70.5716 41.4985C69.3714 42.7086 68.3293 44.0659 67.4702 45.538C66.8233 46.6732 66.3167 47.8827 65.9615 49.14C65.9615 49.14 62.356 49.8401 61.6979 45.9616C61.3509 43.8206 60.8574 41.706 60.2207 39.6327Z" fill="#F1C7FF"/>
<path d="M65.4793 58.2863C65.6123 57.1382 65.5773 55.0169 65.5983 54.4358C68.6227 51.8559 67.9436 48.856 66.9985 46.6297C65.0837 42.1771 63.148 39.6078 61.2472 39.5938L55.9965 39.7443C53.2836 39.7933 50.1507 39.9473 49.4541 40.0663C47.6793 40.3709 46.8532 42.1666 46.6537 44.0324C46.4507 46.0696 45.9711 46.2272 46.3036 49.6331C46.3036 49.6331 47.5253 53.1336 48.6175 56.2315C48.6175 56.2315 49.013 58.5209 48.6175 59.585C47.8894 61.5558 46.8427 66.1239 46.4787 69.4494C46.4787 69.4494 48.4074 72.1832 57.1341 72.1797C60.9333 72.1781 64.6452 71.0408 67.7931 68.9138L65.4793 58.2863Z" fill="#F1C7FF"/>
<path d="M47.5059 46.5037C47.5059 46.8013 47.5269 47.1233 47.5549 47.4909L66.9056 46.4407C66.7585 46.0907 66.615 45.7862 66.4715 45.4746L47.5059 46.5037Z" fill="#455A64"/>
<path d="M61.2354 39.6045L55.9847 39.755C53.2718 39.804 50.1389 39.958 49.4423 40.0771C47.6675 40.3816 47.8076 41.9918 47.622 43.8471C47.5321 44.3769 47.4841 44.9129 47.4785 45.4503L65.9961 44.5332C64.4139 41.3897 62.8211 39.615 61.2354 39.6045Z" fill="#455A64"/>
<path opacity="0.1" d="M50.9388 59.5398C50.1897 58.9098 50.5222 57.289 50.0286 55.2903C49.5351 53.2915 48.4779 51.0897 48.9015 49.9765C49.325 48.8634 50.3577 46.651 50.2317 43.4586L47.0427 42.3875C46.8501 42.9274 46.7266 43.4897 46.6752 44.0607C46.4721 46.098 45.9926 46.2555 46.3251 49.6615C46.3251 49.6615 47.5468 53.162 48.6389 56.2599C48.6389 56.2599 49.0345 58.5492 48.6389 59.6134C47.9108 61.5841 46.8642 66.1523 46.5002 69.4777C46.5002 69.4777 48.4289 72.2116 57.1556 72.2081H57.4147C60.9817 61.3111 51.6564 60.1384 50.9388 59.5398Z" fill="black"/>
<path opacity="0.1" d="M52.2031 52.3147C52.5813 53.1326 53.1881 53.8235 53.9502 54.3043C54.7123 54.785 55.5972 55.035 56.4982 55.0241C57.3642 55.0434 58.22 54.8338 58.9791 54.4164C59.7382 53.9991 60.3736 53.3888 60.8213 52.6472C60.8213 52.6472 60.4993 56.0672 56.4492 55.8432C52.3992 55.6192 52.2031 52.3147 52.2031 52.3147Z" fill="black"/>
<path d="M66.5643 25.6345C67.1049 24.1933 67.2805 22.6408 67.0754 21.1153C66.5353 21.2823 65.986 21.4179 65.4302 21.5214C65.6179 21.0836 65.8306 20.657 66.0673 20.2437C66.3062 19.8278 66.4272 19.3546 66.4173 18.875C66.4051 18.6363 66.3229 18.4065 66.181 18.2142C66.0391 18.0218 65.8437 17.8755 65.6192 17.7934C65.2034 17.7332 64.7793 17.8068 64.408 18.0034C62.2416 18.7907 59.9602 19.2153 57.6556 19.2601C53.637 19.4421 49.629 21.0103 48.5018 24.5738C47.8017 26.8036 48.4353 29.8035 49.4925 32.4114C50.5496 35.0192 52.1878 36.962 53.2205 37.207L57.3371 36.507C59.1818 36.836 60.9566 36.1079 62.3183 34.8827C62.6843 34.5518 63.0248 34.1938 63.3369 33.8116C63.6295 33.4306 63.8372 32.9913 63.946 32.5234C64.2799 31.448 64.5395 30.3509 64.7231 29.24C64.7507 29.0188 64.8035 28.8015 64.8806 28.5924C64.993 28.3649 65.1329 28.1521 65.2972 27.9588C65.8285 27.2486 66.2553 26.4658 66.5643 25.6345Z" fill="#263238"/>
<path d="M62.7738 22.8406C63.8029 23.3972 65.1366 25.886 65.2066 31.1997C65.2626 35.7013 63.8449 36.867 63.1238 37.2135C62.4027 37.5601 60.985 37.4166 59.6023 37.2345L59.7003 39.9369C59.7003 39.9369 59.8824 42.8213 58.7797 43.0103C55.7623 42.8213 53.2209 40.0734 53.2209 40.0734V34.3257C52.8581 34.4504 52.467 34.4678 52.0945 34.376C51.722 34.2841 51.3839 34.0867 51.1206 33.8076C50.0705 32.7154 49.7205 31.1997 50.5536 30.2756C50.7743 30.0559 51.044 29.8917 51.3405 29.7964C51.6369 29.7011 51.9518 29.6774 52.2592 29.7273C52.5666 29.7772 52.8578 29.8992 53.1089 30.0833C53.3601 30.2675 53.564 30.5085 53.704 30.7867C53.704 30.7867 54.5126 30.8252 55.2652 29.299C56.6249 29.403 57.9803 29.0494 59.1158 28.2943C61.9231 26.5196 62.5567 23.7507 62.7738 22.8406Z" fill="#FFA8A7"/>
<path d="M59.3459 29.9918C59.3542 30.0673 59.3473 30.1436 59.3259 30.2165C59.3044 30.2893 59.2687 30.3571 59.2209 30.416C59.173 30.4749 59.1139 30.5238 59.0471 30.5597C58.9802 30.5957 58.9069 30.618 58.8313 30.6254C58.715 30.6397 58.597 30.6188 58.4926 30.5655C58.3882 30.5122 58.3021 30.4289 58.2453 30.3263C58.1886 30.2237 58.1638 30.1065 58.1742 29.9897C58.1845 29.873 58.2296 29.762 58.3035 29.6709C58.3774 29.5799 58.4768 29.5131 58.589 29.479C58.7011 29.4449 58.8209 29.4451 58.933 29.4796C59.045 29.5141 59.1442 29.5813 59.2178 29.6726C59.2914 29.7638 59.336 29.875 59.3459 29.9918Z" fill="#263238"/>
<g style="mix-blend-mode:multiply" opacity="0.5">
<path d="M60.1802 33.7344L61.9655 34.2349C61.9378 34.3539 61.8863 34.4661 61.8143 34.5648C61.7423 34.6635 61.6511 34.7467 61.5463 34.8095C61.4414 34.8722 61.325 34.9131 61.204 34.9299C61.083 34.9467 60.9598 34.9389 60.8418 34.907C60.6007 34.8361 60.3966 34.6739 60.2731 34.4549C60.1496 34.236 60.1163 33.9775 60.1802 33.7344Z" fill="#F28F8F"/>
</g>
<path d="M64.3992 28.0352L63.2266 27.2826C63.2711 27.2034 63.3315 27.1342 63.404 27.0793C63.4765 27.0245 63.5595 26.9852 63.6478 26.9638C63.7362 26.9425 63.828 26.9396 63.9175 26.9553C64.007 26.971 64.0924 27.0049 64.1682 27.0551C64.3256 27.1572 64.4374 27.3162 64.4805 27.4988C64.5235 27.6814 64.4944 27.8736 64.3992 28.0352Z" fill="#263238"/>
<path d="M58.4856 28.0357L57.1974 28.5817C57.1577 28.4995 57.1352 28.4099 57.1314 28.3186C57.1276 28.2273 57.1426 28.1362 57.1754 28.0509C57.2082 27.9656 57.2582 27.888 57.3222 27.8227C57.3862 27.7575 57.4628 27.7061 57.5475 27.6716C57.7207 27.6008 57.9146 27.599 58.0891 27.6667C58.2636 27.7345 58.4055 27.8665 58.4856 28.0357Z" fill="#263238"/>
<path d="M64.1433 29.6982C64.1484 29.8092 64.1207 29.9193 64.0637 30.0147C64.0068 30.1101 63.923 30.1867 63.8229 30.2349C63.7227 30.2831 63.6106 30.3009 63.5005 30.2859C63.3904 30.2709 63.2871 30.2239 63.2034 30.1508C63.1198 30.0776 63.0595 29.9814 63.03 29.8742C63.0006 29.7671 63.0033 29.6536 63.0378 29.548C63.0723 29.4423 63.1371 29.3491 63.2241 29.28C63.3111 29.2108 63.4165 29.1688 63.5272 29.1591C63.6032 29.1534 63.6796 29.1629 63.7519 29.187C63.8242 29.2111 63.8909 29.2493 63.9483 29.2995C64.0056 29.3497 64.0524 29.4108 64.0859 29.4792C64.1194 29.5477 64.1389 29.6221 64.1433 29.6982Z" fill="#263238"/>
<g style="mix-blend-mode:multiply" opacity="0.5">
<path d="M61.416 29.4709L61.626 32.8734L63.4008 32.2538L61.416 29.4709Z" fill="#F28F8F"/>
</g>
<g style="mix-blend-mode:multiply" opacity="0.5">
<path d="M59.6019 37.235C58.1492 37.0984 55.1423 36.3493 54.6348 35.1907C54.8425 35.7796 55.2262 36.2904 55.7339 36.6539C56.651 37.3855 59.6335 38.1381 59.6335 38.1381L59.6019 37.235Z" fill="#F28F8F"/>
</g>
<path d="M53.7148 30.7865L53.8024 33.1529C54.014 33.1456 54.2221 33.0967 54.4148 33.0087C54.6074 32.9208 54.7808 32.7956 54.9249 32.6405C55.069 32.4853 55.1811 32.3032 55.2545 32.1045C55.328 31.9059 55.3615 31.6947 55.3531 31.4831L55.2761 29.2988L53.7148 30.7865Z" fill="#263238"/>
<path d="M49.2426 78.432C54.1725 78.432 58.1689 74.4356 58.1689 69.5058C58.1689 64.576 54.1725 60.5796 49.2426 60.5796C44.3128 60.5796 40.3164 64.576 40.3164 69.5058C40.3164 74.4356 44.3128 78.432 49.2426 78.432Z" fill="#F5F5F5"/>
<path d="M50.8064 65.158C49.5545 65.2541 48.334 65.5967 47.2149 66.1661C47.1028 67.3677 47.1028 68.577 47.2149 69.7786C48.2288 70.2965 49.3106 70.6688 50.4284 70.8848C50.4284 70.8848 52.1366 69.4846 52.6057 68.1859C52.2601 67.0457 51.6427 66.0065 50.8064 65.158Z" fill="#455A64"/>
<path d="M44.8274 64.6507L44.5754 64.1501C44.5579 64.1711 44.5439 64.1957 44.5264 64.2202L44.4844 64.2727L44.7224 64.7487L47.1727 66.2224L47.4388 66.422C47.446 66.4045 47.4554 66.388 47.4668 66.373C47.4839 66.3506 47.5039 66.3306 47.5263 66.3134L47.2498 66.1069L44.8274 64.6507Z" fill="#455A64"/>
<path d="M49.9215 61.1989C49.715 61.1744 49.4944 61.1499 49.2459 61.1324C47.9443 61.042 46.6485 61.3761 45.5529 62.0846L45.0488 62.3751C45.0718 62.4167 45.0883 62.4615 45.0978 62.5081L45.6264 62.2001C46.6973 61.5082 47.9634 61.1816 49.2354 61.2689C49.5504 61.2934 49.8305 61.325 50.0755 61.36C50.0123 61.319 49.9596 61.2639 49.9215 61.1989Z" fill="#455A64"/>
<path d="M51.6674 62.3752L51.5484 62.7673L50.7433 65.1336L50.5508 65.6342C50.5961 65.6433 50.6406 65.6562 50.6838 65.6727L50.8728 65.1791L51.6814 62.8093L51.8005 62.4137C51.7547 62.4063 51.7101 62.3933 51.6674 62.3752Z" fill="#455A64"/>
<path d="M55.9676 68.2628C55.8779 68.339 55.7832 68.4092 55.6841 68.4729C54.6659 68.2984 53.6386 68.1815 52.6072 68.1228H52.5582C52.4948 68.1234 52.4316 68.1293 52.3691 68.1403C52.3726 68.1857 52.3726 68.2314 52.3691 68.2768C52.4459 68.2679 52.5234 68.2679 52.6002 68.2768C53.6341 68.3337 54.6638 68.4506 55.6841 68.6269H55.7121H55.7331C55.8297 68.5684 55.9211 68.5016 56.0061 68.4273C55.9867 68.3743 55.9738 68.319 55.9676 68.2628Z" fill="#455A64"/>
<path d="M54.681 63.3063C55.2271 63.8278 56.2457 64.8045 56.6623 66.1557C56.696 66.2619 56.7206 66.3708 56.7358 66.4812C56.7776 66.4624 56.8209 66.4472 56.8653 66.4357C56.85 66.3279 56.8266 66.2214 56.7953 66.1171C56.3682 64.717 55.3321 63.7368 54.7755 63.2047C54.709 63.1452 54.653 63.0892 54.604 63.0402C54.4939 62.9336 54.3769 62.8342 54.2539 62.7427C54.2463 62.765 54.2357 62.7862 54.2224 62.8057C54.2074 62.8235 54.1897 62.8388 54.1699 62.8512C54.2825 62.9408 54.39 63.0367 54.492 63.1382L54.681 63.3063Z" fill="#455A64"/>
<path d="M50.5014 70.8849C50.5014 70.8289 50.5714 70.6469 50.6624 70.4019C50.6098 70.4288 50.5529 70.4466 50.4943 70.4544C50.4138 70.6819 50.3683 70.8394 50.3613 70.8674L51.2364 74.1894H51.2575C51.282 74.2069 51.5655 74.4064 51.891 74.6234H51.9225L52.0696 74.5884C51.8105 74.4204 51.5445 74.2384 51.3695 74.1054L50.5014 70.8849Z" fill="#455A64"/>
<path d="M56.6864 71.3364C56.6198 71.5009 56.5463 71.6865 56.4623 71.8475C55.9276 72.8869 55.1896 73.8082 54.292 74.5569C54.166 74.6234 53.942 74.7319 53.7109 74.8334C53.7527 74.8607 53.7894 74.8951 53.8195 74.9349C54.0855 74.8194 54.313 74.7004 54.3655 74.6689C55.2866 73.9091 56.043 72.9693 56.5883 71.907C56.6653 71.746 56.7319 71.585 56.7949 71.4309C56.7555 71.4032 56.7192 71.3716 56.6864 71.3364Z" fill="#455A64"/>
<path d="M47.6008 69.4778C47.4748 69.5443 47.3347 69.6248 47.1772 69.7193C46.2377 70.3439 45.3525 71.0465 44.5309 71.8196C44.4959 71.8756 44.3838 72.0716 44.2578 72.3342C44.2923 72.3726 44.3239 72.4136 44.3523 72.4567C44.4608 72.2327 44.5659 72.0331 44.6429 71.8966C45.4562 71.1254 46.332 70.423 47.2612 69.7963C47.4328 69.6913 47.5868 69.6073 47.7198 69.5373C47.6783 69.5213 47.6385 69.5014 47.6008 69.4778Z" fill="#455A64"/>
<path d="M49.5648 76.139C49.3303 76.139 49.0642 76.1145 48.7702 76.09C47.5815 76.0027 46.4413 75.583 45.4797 74.8788H45.4622C45.3173 74.8447 45.1746 74.8015 45.0352 74.7493C45.0352 74.7983 45.0352 74.8438 45.0352 74.8928C45.2277 74.9593 45.3852 74.9978 45.4307 75.0118C46.4125 75.7259 47.5737 76.1525 48.7842 76.244L49.5298 76.2895C49.5314 76.2375 49.5433 76.1863 49.5648 76.139Z" fill="#455A64"/>
<path d="M41.99 70.7412C42.0373 70.7313 42.0862 70.7313 42.1335 70.7412C42.091 70.5857 42.0571 70.4279 42.032 70.2687C41.9383 69.0935 41.996 67.9112 42.2036 66.7507C42.2453 66.5381 42.2979 66.3278 42.3611 66.1206C42.3285 66.1241 42.2956 66.1241 42.2631 66.1206H42.2141C42.158 66.3143 42.109 66.5138 42.067 66.7192C41.8558 67.8946 41.7982 69.0924 41.8955 70.2827C41.92 70.4437 41.9515 70.5977 41.99 70.7412Z" fill="#455A64"/>
<path d="M49.2422 61.199C50.1331 61.562 50.9406 62.1027 51.6155 62.7882C52.6057 62.7149 53.6011 62.8168 54.5559 63.0893C54.5278 62.7948 54.4751 62.5033 54.3984 62.2176C53.093 61.2919 51.562 60.7356 49.9668 60.6074C49.7121 60.7879 49.47 60.9855 49.2422 61.199Z" fill="#455A64"/>
<path d="M57.8975 67.3214C57.5561 66.881 57.1637 66.4827 56.7284 66.1348C56.4721 66.9719 56.1271 67.7793 55.6992 68.5431C56.0542 69.6336 56.3291 70.7486 56.5218 71.8791C57.0107 71.7808 57.4899 71.6391 57.9535 71.4555C58.2561 70.0918 58.2369 68.6764 57.8975 67.3214Z" fill="#455A64"/>
<path d="M43.315 75.5336C43.315 75.5336 44.7537 75.4041 45.4398 74.935C45.4398 74.935 44.9882 73.5803 44.5821 71.8861C43.6632 71.4283 42.7869 70.8895 41.9638 70.2759C41.9638 70.2759 41.4037 70.857 41.2637 72.7017C41.7564 73.7703 42.4532 74.7323 43.315 75.5336Z" fill="#455A64"/>
<path d="M41.4453 65.193C41.5509 65.7564 41.791 66.2861 42.1454 66.7367C42.823 65.8297 43.7357 65.1252 44.7848 64.6994C44.9946 63.829 45.2671 62.975 45.6004 62.1441C45.1602 62.092 44.7165 62.0756 44.2737 62.0951C43.098 62.8881 42.1284 63.9502 41.4453 65.193Z" fill="#455A64"/>
<path d="M54.3205 74.6164C53.2982 74.5843 52.2831 74.4327 51.2961 74.1648C50.5219 74.915 49.6727 75.5837 48.7617 76.1601C48.7617 76.1601 49.4023 77.4552 50.1829 77.9313C51.3277 77.809 52.4424 77.488 53.4769 76.9827C53.904 76.2538 54.1902 75.4511 54.3205 74.6164Z" fill="#455A64"/>
<path opacity="0.1" d="M56.9299 74.0458C55.4352 76.1636 49.6769 77.5008 46.0048 72.7366C42.3328 67.9725 44.4541 62.4977 47.125 60.835C45.6946 61.1843 44.3728 61.882 43.2775 62.866C42.1821 63.85 41.3472 65.0897 40.8471 66.4746C40.347 67.8595 40.1972 69.3466 40.4111 70.8034C40.6251 72.2602 41.1961 73.6414 42.0733 74.8241C42.9504 76.0067 44.1066 76.954 45.4386 77.5815C46.7706 78.209 48.2372 78.4972 49.7076 78.4205C51.178 78.3438 52.6067 77.9045 53.8662 77.1419C55.1257 76.3792 56.177 75.3168 56.9264 74.0493L56.9299 74.0458Z" fill="black"/>
<path d="M46.5554 73.0903C47.014 73.2373 47.9556 73.4158 48.1411 72.8452C48.3266 72.2746 47.5495 72.1696 47.007 71.627C46.4256 71.008 45.8085 70.4236 45.1587 69.8768C44.3291 69.2257 43.2439 69.1347 42.8624 68.4101C42.4528 67.815 40.5241 59.2844 40.0165 56.9635C42.6033 53.9426 44.9522 51.3943 46.8774 49.0909C46.8774 49.0909 49.5833 43.7422 49.4818 40.2872C47.9521 39.7972 46.1878 39.9862 43.3594 42.9966C40.6815 45.8807 38.171 48.916 35.8404 52.0874C33.3901 55.4618 33.1835 55.3673 34.0902 58.7698C35.2331 62.8025 36.6602 66.7493 38.3608 70.5804C39.4109 72.7997 39.7609 73.5593 40.7166 75.1065C41.5882 76.5067 43.475 78.0539 44.5041 78.383C46.0373 78.866 48.1726 78.607 48.2986 77.0633C48.4247 75.5196 45.5858 73.9759 45.1482 72.4112C45.5949 72.6812 46.066 72.9086 46.5554 73.0903Z" fill="#FFA8A7"/>
<path d="M49.8916 40.0214C49.8916 40.0214 47.0632 39.7799 45.726 40.76C44.3888 41.7402 43.6257 42.3913 41.1299 45.0656C40.2198 46.0493 39.0996 47.446 39.0996 47.446C39.0996 47.446 40.4998 51.6465 44.6479 52.3151L48.6104 48.3386C49.5835 47.2884 50.8927 43.942 49.8916 40.0214Z" fill="#F1C7FF"/>
<path d="M93.1882 19.19C93.096 19.1908 93.0053 19.1666 92.9257 19.12L90.3878 17.6533C90.2671 17.5836 90.1791 17.4689 90.1429 17.3344C90.1068 17.1998 90.1257 17.0564 90.1953 16.9357C90.2649 16.815 90.3796 16.7269 90.5142 16.6908C90.6488 16.6547 90.7922 16.6735 90.9129 16.7432L93.4507 18.2099C93.551 18.2676 93.6294 18.3568 93.6738 18.4637C93.7181 18.5705 93.7259 18.689 93.696 18.8008C93.6661 18.9125 93.6001 19.0113 93.5082 19.0817C93.4164 19.152 93.3039 19.1901 93.1882 19.19Z" fill="white"/>
<path d="M94.9233 13.3333H91.7204C91.5811 13.3333 91.4476 13.278 91.3491 13.1796C91.2506 13.0811 91.1953 12.9475 91.1953 12.8083C91.1953 12.669 91.2506 12.5355 91.3491 12.437C91.4476 12.3385 91.5811 12.2832 91.7204 12.2832H94.9233C95.0626 12.2832 95.1961 12.3385 95.2946 12.437C95.3931 12.5355 95.4484 12.669 95.4484 12.8083C95.4484 12.9475 95.3931 13.0811 95.2946 13.1796C95.1961 13.278 95.0626 13.3333 94.9233 13.3333Z" fill="white"/>
<path d="M90.3108 9.13284C90.1951 9.13296 90.0826 9.09488 89.9908 9.0245C89.899 8.95411 89.833 8.85537 89.803 8.74362C89.7731 8.63186 89.7809 8.51335 89.8253 8.4065C89.8696 8.29964 89.948 8.21042 90.0483 8.1527L93.3212 6.26244C93.381 6.22796 93.447 6.20559 93.5154 6.19661C93.5838 6.18763 93.6533 6.19221 93.7199 6.21008C93.7865 6.22796 93.849 6.25879 93.9037 6.30081C93.9584 6.34282 94.0044 6.39521 94.0388 6.45497C94.0733 6.51473 94.0957 6.58069 94.1047 6.6491C94.1136 6.7175 94.1091 6.787 94.0912 6.85364C94.0733 6.92027 94.0425 6.98274 94.0005 7.03746C93.9584 7.09218 93.9061 7.13809 93.8463 7.17257L90.5733 9.06283C90.4936 9.1091 90.403 9.13327 90.3108 9.13284Z" fill="white"/>
<path d="M87.272 6.02746C87.1798 6.02824 87.0891 6.00405 87.0095 5.95745C86.8934 5.88803 86.8086 5.77647 86.7727 5.64605C86.7368 5.51562 86.7527 5.37638 86.817 5.25736L88.6232 2.13143C88.6549 2.06683 88.6996 2.00945 88.7545 1.96284C88.8093 1.91624 88.8731 1.88141 88.942 1.86051C89.0109 1.83961 89.0833 1.8331 89.1548 1.84137C89.2263 1.84964 89.2953 1.87252 89.3576 1.90859C89.4199 1.94466 89.4741 1.99315 89.5169 2.05105C89.5596 2.10894 89.59 2.17501 89.6062 2.24515C89.6223 2.31528 89.6239 2.38799 89.6107 2.45875C89.5976 2.52952 89.5701 2.59683 89.5298 2.6565L87.7271 5.78243C87.6788 5.85905 87.6115 5.92188 87.5318 5.96481C87.4521 6.00775 87.3626 6.02933 87.272 6.02746Z" fill="white"/>
<path d="M72.9163 19.19C72.8006 19.1901 72.6881 19.152 72.5963 19.0817C72.5044 19.0113 72.4384 18.9125 72.4085 18.8008C72.3786 18.689 72.3864 18.5705 72.4307 18.4637C72.4751 18.3568 72.5535 18.2676 72.6537 18.2099L75.1916 16.7432C75.3123 16.6735 75.4557 16.6547 75.5903 16.6908C75.7248 16.7269 75.8396 16.815 75.9092 16.9357C75.9788 17.0564 75.9977 17.1998 75.9616 17.3344C75.9254 17.4689 75.8374 17.5837 75.7167 17.6533L73.1788 19.12C73.0991 19.1663 73.0085 19.1904 72.9163 19.19Z" fill="white"/>
<path d="M74.3765 13.3333H71.1735C71.0343 13.3333 70.9007 13.278 70.8022 13.1796C70.7038 13.0811 70.6484 12.9475 70.6484 12.8083C70.6484 12.669 70.7038 12.5355 70.8022 12.437C70.9007 12.3385 71.0343 12.2832 71.1735 12.2832H74.3765C74.5157 12.2832 74.6493 12.3385 74.7477 12.437C74.8462 12.5355 74.9015 12.669 74.9015 12.8083C74.9015 12.9475 74.8462 13.0811 74.7477 13.1796C74.6493 13.278 74.5157 13.3333 74.3765 13.3333Z" fill="white"/>
<path d="M75.7897 9.13299C75.6975 9.13343 75.6069 9.10926 75.5272 9.06298L72.2472 7.18673C72.1874 7.15225 72.1351 7.10634 72.093 7.05162C72.051 6.9969 72.0202 6.93443 72.0023 6.8678C71.9844 6.80116 71.9799 6.73166 71.9888 6.66326C71.9978 6.59485 72.0202 6.52889 72.0547 6.46913C72.0892 6.40937 72.1351 6.35698 72.1898 6.31497C72.2445 6.27295 72.307 6.24212 72.3736 6.22424C72.4402 6.20637 72.5097 6.20179 72.5781 6.21077C72.6465 6.21975 72.7125 6.24212 72.7723 6.2766L76.0487 8.16686C76.149 8.22458 76.2274 8.3138 76.2717 8.42066C76.3161 8.52751 76.3239 8.64602 76.294 8.75778C76.264 8.86953 76.198 8.96827 76.1062 9.03866C76.0144 9.10904 75.9019 9.14712 75.7862 9.147L75.7897 9.13299Z" fill="white"/>
<path d="M78.8336 6.02745C78.7413 6.02751 78.6507 6.00327 78.5708 5.95719C78.491 5.9111 78.4246 5.84478 78.3785 5.76491L76.5723 2.63898C76.5378 2.57922 76.5154 2.51325 76.5064 2.44485C76.4974 2.37644 76.502 2.30694 76.5199 2.2403C76.556 2.10573 76.6441 1.99101 76.7648 1.92138C76.8855 1.85175 77.0289 1.83291 77.1635 1.86902C77.298 1.90513 77.4128 1.99321 77.4824 2.1139L79.2886 5.23984C79.3529 5.35887 79.3687 5.4981 79.3329 5.62853C79.297 5.75895 79.2122 5.87051 79.0961 5.93994C79.0181 5.99237 78.9274 6.02262 78.8336 6.02745Z" fill="white"/>
<path d="M83.0505 5.33474C82.9112 5.33474 82.7776 5.27942 82.6792 5.18095C82.5807 5.08248 82.5254 4.94893 82.5254 4.80967V0.525073C82.5254 0.385815 82.5807 0.252261 82.6792 0.153791C82.7776 0.0553203 82.9112 0 83.0505 0C83.1897 0 83.3233 0.0553203 83.4217 0.153791C83.5202 0.252261 83.5755 0.385815 83.5755 0.525073V4.80967C83.5755 4.94893 83.5202 5.08248 83.4217 5.18095C83.3233 5.27942 83.1897 5.33474 83.0505 5.33474Z" fill="white"/>
</svg>
