<svg width="172" height="142" viewBox="0 0 172 142" fill="none" xmlns="http://www.w3.org/2000/svg">
<path opacity="0.5" d="M93 173C144.362 173 186 153.524 186 129.5C186 105.476 144.362 86 93 86C41.6375 86 0 105.476 0 129.5C0 153.524 41.6375 173 93 173Z" fill="#F0F0F0"/>
<path d="M111.264 11.7097C123.76 11.9031 134.208 16.6484 142.428 26.1389C142.692 26.4261 142.895 26.7637 143.025 27.1315C143.155 27.4992 143.209 27.8895 143.184 28.2786C143.159 28.6678 143.055 29.0479 142.88 29.396C142.704 29.7441 142.459 30.053 142.161 30.304C141.871 30.5509 141.534 30.7372 141.171 30.852C140.808 30.9667 140.426 31.0075 140.047 30.972C139.668 30.9365 139.3 30.8254 138.964 30.6453C138.629 30.4652 138.333 30.2196 138.094 29.9232C135.16 26.4571 131.593 23.5815 127.583 21.4502C121.419 18.1754 114.413 16.8284 107.474 17.5839C100.535 18.3393 93.9835 21.1623 88.6686 25.6867C87.1573 26.963 85.8126 28.4476 84.45 29.8905C83.2599 31.143 81.5314 31.3423 80.2848 30.2683C79.0383 29.1943 78.9609 27.4003 80.0855 26.1032C86.9699 18.1201 95.6353 13.4045 106.082 11.9567C106.9 11.8436 107.724 11.7573 108.551 11.7187C109.453 11.677 110.36 11.7097 111.264 11.7097Z" fill="white"/>
<path d="M112.298 23.3066C120.203 23.5119 127.638 26.8767 133.484 33.648C134.638 34.9809 134.504 36.7005 133.222 37.8132C132.005 38.8604 130.247 38.7206 129.113 37.4175C126.061 33.8831 122.363 31.2918 117.852 30.075C108.662 27.5937 100.716 29.8548 94.0518 36.6588C93.8049 36.9117 93.5758 37.1825 93.3407 37.4472C92.8389 38.0264 92.1276 38.3825 91.3632 38.4372C90.5988 38.4918 89.844 38.2406 89.2649 37.7388C88.6857 37.237 88.3296 36.5256 88.2749 35.7612C88.2203 34.9969 88.4715 34.2421 88.9733 33.6629C91.5445 30.612 94.7177 28.1245 98.2943 26.3561C102.397 24.3122 106.732 23.3275 112.298 23.3066Z" fill="white"/>
<path d="M125.303 43.088C125.305 43.6727 125.129 44.2441 124.799 44.7269C124.469 45.2097 124.001 45.5812 123.456 45.7923C122.901 46.0108 122.293 46.0502 121.715 45.905C121.137 45.7599 120.619 45.4375 120.234 44.9831C119.029 43.5719 117.519 42.4529 115.819 41.7105C111.059 39.6994 105.837 40.9489 102.306 44.9355C101.47 45.8816 100.426 46.2237 99.2178 45.8578C98.7572 45.7176 98.3389 45.4646 98.001 45.1216C97.663 44.7787 97.4162 44.3567 97.2829 43.894C97.1496 43.4314 97.134 42.9428 97.2376 42.4726C97.3412 42.0024 97.5606 41.5656 97.876 41.2018C103.921 33.9128 115.042 32.8715 122.316 38.9586C123.148 39.651 123.914 40.4189 124.604 41.2524C125.006 41.7403 125.178 42.4156 125.455 43.0077L125.303 43.088Z" fill="white"/>
<path d="M111.252 58.2728C110.101 58.2763 108.976 57.9379 108.018 57.3006C107.061 56.6632 106.314 55.7556 105.873 54.6931C105.432 53.6305 105.317 52.4609 105.542 51.3327C105.767 50.2046 106.322 49.1687 107.137 48.3567C107.952 47.5448 108.99 46.9932 110.119 46.7722C111.248 46.5512 112.417 46.6706 113.478 47.1153C114.539 47.5601 115.444 48.31 116.078 49.27C116.712 50.23 117.046 51.3567 117.038 52.5071C117.035 54.0389 116.424 55.5068 115.339 56.588C114.254 57.6692 112.784 58.2752 111.252 58.2728Z" fill="white"/>
<path d="M38.4189 106.71C40.5023 106.71 42.1913 102.28 42.1913 96.8149C42.1913 91.35 40.5023 86.9198 38.4189 86.9198C36.3355 86.9198 34.6465 91.35 34.6465 96.8149C34.6465 102.28 36.3355 106.71 38.4189 106.71Z" fill="#FFD8E6" stroke="black" stroke-miterlimit="10"/>
<path d="M50.14 90.7181C51.3194 87.0069 50.9655 83.582 49.3495 83.0684C47.7334 82.5549 45.4673 85.1471 44.2879 88.8583C43.1084 92.5696 43.4624 95.9945 45.0784 96.508C46.6945 97.0216 48.9606 94.4294 50.14 90.7181Z" fill="#FFD8E6" stroke="black" stroke-miterlimit="10"/>
<path d="M22.4602 113.095C18.6194 112.443 15.7365 110.56 16.0191 108.891C16.3018 107.222 19.6458 106.392 23.4836 107.04C27.3215 107.689 30.2073 109.575 29.9247 111.244C29.6421 112.913 26.2981 113.743 22.4602 113.095Z" fill="#FFD8E6" stroke="black" stroke-miterlimit="10"/>
<path d="M53.6927 103.946C50.4856 107.127 46.6953 108.507 45.2286 107.026C43.7619 105.544 45.172 101.769 48.3792 98.5882C51.5863 95.4078 55.3766 94.0273 56.8433 95.5089C58.31 96.9905 56.8998 100.766 53.6927 103.946Z" fill="#FFD8E6" stroke="black" stroke-miterlimit="10"/>
<path d="M31.5916 95.2203C34.6947 99.7216 35.6259 104.464 33.6563 105.815C31.6868 107.165 27.5931 104.616 24.4901 100.108C21.3871 95.6011 20.4529 90.8856 22.4254 89.52C24.3979 88.1545 28.4856 90.722 31.5916 95.2203Z" fill="#FFD8E6" stroke="black" stroke-miterlimit="10"/>
<path d="M38.6836 106.216L38.9752 119.821" stroke="black" stroke-miterlimit="10" stroke-linecap="round"/>
<path d="M38.332 93.1348L38.6831 106.216" stroke="black" stroke-miterlimit="10" stroke-linecap="round"/>
<path d="M38.3558 91.0017L38.332 92.0043" stroke="black" stroke-miterlimit="10" stroke-linecap="round"/>
<path d="M33.6406 105.166C35.8051 109.637 37.0716 114.488 37.3684 119.446" stroke="black" stroke-miterlimit="10" stroke-linecap="round"/>
<path d="M27.1602 95.259C29.7487 98.2603 31.9277 101.592 33.6399 105.166" stroke="black" stroke-miterlimit="10" stroke-linecap="round"/>
<path d="M25.123 93.1021C25.123 93.1021 25.5128 93.462 26.1554 94.1433" stroke="black" stroke-miterlimit="10" stroke-linecap="round"/>
<path d="M45.4644 106.57C42.8183 110.28 40.7555 114.372 39.3477 118.706" stroke="black" stroke-miterlimit="10" stroke-linecap="round"/>
<path d="M49.8006 101.596C48.2034 103.12 46.7512 104.789 45.4629 106.582" stroke="black" stroke-miterlimit="10" stroke-linecap="round"/>
<path d="M54.4362 98.0497C53.2567 98.72 52.1491 99.5095 51.1309 100.406" stroke="black" stroke-miterlimit="10" stroke-linecap="round"/>
<path d="M45.3027 95.5833C43.2201 102.161 40.4086 111.878 39.0996 120.315" stroke="black" stroke-miterlimit="10" stroke-linecap="round"/>
<path d="M46.5761 91.683C46.2042 92.7927 45.7728 94.1077 45.3027 95.5833" stroke="black" stroke-miterlimit="10" stroke-linecap="round"/>
<path d="M47.8827 87.9105C47.8827 87.9105 47.5168 88.9191 46.9277 90.6446" stroke="black" stroke-miterlimit="10" stroke-linecap="round"/>
<path d="M29.7305 110.334C32.3426 111.324 34.8893 113.234 36.1299 116.852" stroke="black" stroke-miterlimit="10" stroke-linecap="round"/>
<path d="M24.9141 109.352C26.5616 109.436 28.1872 109.767 29.7367 110.334" stroke="black" stroke-miterlimit="10" stroke-linecap="round"/>
<path d="M21.7812 109.429C21.7812 109.429 22.2454 109.364 23.0129 109.334" stroke="black" stroke-miterlimit="10" stroke-linecap="round"/>
<path d="M55.3196 113.095C59.1604 112.443 62.0433 110.56 61.7606 108.891C61.478 107.222 58.134 106.392 54.2932 107.04C50.4523 107.689 47.5724 109.575 47.8551 111.244C48.1377 112.913 51.4787 113.743 55.3196 113.095Z" fill="#FFD8E6" stroke="black" stroke-miterlimit="10"/>
<path d="M48.1194 110.304C45.4776 111.283 42.8892 113.196 41.6367 116.849" stroke="black" stroke-miterlimit="10" stroke-linecap="round"/>
<path d="M53.2769 109.331C51.5177 109.381 49.7775 109.709 48.1211 110.304" stroke="black" stroke-miterlimit="10" stroke-linecap="round"/>
<path d="M55.9961 109.429C55.9961 109.429 55.6986 109.388 55.166 109.355" stroke="black" stroke-miterlimit="10" stroke-linecap="round"/>
<path d="M48.0747 128.413C49.2364 125.98 49.8459 123.321 49.8597 120.625C49.8615 119.011 49.6208 117.406 49.1457 115.865H29.0519C28.5754 117.406 28.3347 119.011 28.3379 120.625C28.3531 123.321 28.9626 125.98 30.123 128.413H48.0747Z" fill="black"/>
<path d="M28.5362 118.09C28.4797 118.456 28.4351 118.825 28.4023 119.203H49.7962C49.7635 118.825 49.7188 118.456 49.6623 118.09H28.5362Z" fill="#7A7A7A"/>
<path d="M49.5692 123.778C49.6346 123.409 49.6941 123.037 49.7388 122.666H28.4609C28.5056 123.037 28.5621 123.409 28.6305 123.778H49.5692Z" fill="#7A7A7A"/>
<path d="M30.9366 120.687C30.9366 120.858 30.8858 121.026 30.7907 121.168C30.6955 121.31 30.5603 121.421 30.4021 121.487C30.2439 121.552 30.0699 121.57 29.9019 121.536C29.734 121.503 29.5797 121.42 29.4587 121.299C29.3376 121.178 29.2551 121.024 29.2217 120.856C29.1883 120.688 29.2055 120.514 29.271 120.356C29.3365 120.198 29.4475 120.062 29.5898 119.967C29.7322 119.872 29.8996 119.821 30.0708 119.821C30.3002 119.822 30.5199 119.914 30.6821 120.076C30.8443 120.238 30.9358 120.458 30.9366 120.687Z" fill="#8C8C8C"/>
<path d="M35.2647 120.687C35.2647 120.858 35.2139 121.026 35.1188 121.168C35.0237 121.31 34.8885 121.421 34.7303 121.487C34.5721 121.552 34.398 121.57 34.2301 121.536C34.0621 121.503 33.9079 121.42 33.7868 121.299C33.6657 121.178 33.5832 121.024 33.5498 120.856C33.5164 120.688 33.5336 120.514 33.5991 120.356C33.6646 120.198 33.7756 120.062 33.918 119.967C34.0603 119.872 34.2277 119.821 34.399 119.821C34.6286 119.821 34.8488 119.912 35.0111 120.075C35.1735 120.237 35.2647 120.457 35.2647 120.687Z" fill="#8C8C8C"/>
<path d="M39.5928 120.687C39.5928 120.858 39.5421 121.026 39.4469 121.168C39.3518 121.31 39.2166 121.421 39.0584 121.487C38.9002 121.552 38.7261 121.57 38.5582 121.536C38.3902 121.503 38.236 121.42 38.1149 121.299C37.9938 121.178 37.9114 121.024 37.878 120.856C37.8446 120.688 37.8617 120.514 37.9272 120.356C37.9928 120.198 38.1037 120.062 38.2461 119.967C38.3885 119.872 38.5559 119.821 38.7271 119.821C38.9567 119.821 39.1769 119.912 39.3393 120.075C39.5016 120.237 39.5928 120.457 39.5928 120.687Z" fill="#8C8C8C"/>
<path d="M43.0572 121.553C43.5353 121.553 43.9229 121.165 43.9229 120.687C43.9229 120.209 43.5353 119.821 43.0572 119.821C42.579 119.821 42.1914 120.209 42.1914 120.687C42.1914 121.165 42.579 121.553 43.0572 121.553Z" fill="#8C8C8C"/>
<path d="M48.251 120.687C48.251 120.858 48.2003 121.026 48.1051 121.168C48.01 121.31 47.8748 121.421 47.7166 121.487C47.5584 121.552 47.3843 121.57 47.2164 121.536C47.0484 121.503 46.8942 121.42 46.7731 121.299C46.652 121.178 46.5696 121.024 46.5362 120.856C46.5028 120.688 46.5199 120.514 46.5854 120.356C46.651 120.198 46.7619 120.062 46.9043 119.967C47.0467 119.872 47.2141 119.821 47.3853 119.821C47.6149 119.821 47.8351 119.912 47.9975 120.075C48.1598 120.237 48.251 120.457 48.251 120.687Z" fill="#8C8C8C"/>
<path d="M142.624 60.5635C142.324 60.529 142.022 60.6143 141.784 60.8009C141.546 60.9875 141.392 61.2603 141.354 61.5602L135.588 106.109L139.342 106.532L143.641 61.819C143.67 61.5182 143.579 61.2183 143.389 60.9835C143.199 60.7488 142.924 60.598 142.624 60.5635Z" fill="white" stroke="black" stroke-linecap="round" stroke-linejoin="round"/>
<path d="M84.6457 60.5635C84.946 60.529 85.2478 60.6143 85.4856 60.8009C85.7234 60.9875 85.8781 61.2603 85.916 61.5602L91.6877 106.109L87.9331 106.532L83.6282 61.819C83.5997 61.5182 83.6903 61.2183 83.8806 60.9835C84.0708 60.7488 84.3455 60.598 84.6457 60.5635Z" fill="white" stroke="black" stroke-linecap="round" stroke-linejoin="round"/>
<path d="M149.256 105.211H90.5667C89.8126 105.211 89.2012 105.822 89.2012 106.576V127.045C89.2012 127.799 89.8126 128.41 90.5667 128.41H149.256C150.01 128.41 150.622 127.799 150.622 127.045V106.576C150.622 105.822 150.01 105.211 149.256 105.211Z" fill="#455A64" stroke="black" stroke-linecap="round" stroke-linejoin="round"/>
<path d="M150.681 108.073H89.141C88.4558 108.073 87.9004 108.628 87.9004 109.313V124.314C87.9004 124.999 88.4558 125.554 89.141 125.554H150.681C151.366 125.554 151.921 124.999 151.921 124.314V109.313C151.921 108.628 151.366 108.073 150.681 108.073Z" fill="#455A64" stroke="black" stroke-linecap="round" stroke-linejoin="round"/>
<path d="M117.045 105.211H58.3558C57.6016 105.211 56.9902 105.822 56.9902 106.576V127.045C56.9902 127.799 57.6016 128.41 58.3558 128.41H117.045C117.8 128.41 118.411 127.799 118.411 127.045V106.576C118.411 105.822 117.8 105.211 117.045 105.211Z" fill="#455A64" stroke="black" stroke-linecap="round" stroke-linejoin="round"/>
<path d="M118.47 108.073H56.9301C56.2449 108.073 55.6895 108.628 55.6895 109.313V124.314C55.6895 124.999 56.2449 125.554 56.9301 125.554H118.47C119.155 125.554 119.71 124.999 119.71 124.314V109.313C119.71 108.628 119.155 108.073 118.47 108.073Z" fill="#455A64" stroke="black" stroke-linecap="round" stroke-linejoin="round"/>
<path d="M113.385 111.905H62.5647C61.7415 111.905 61.0742 112.572 61.0742 113.395V119.809C61.0742 120.633 61.7415 121.3 62.5647 121.3H113.385C114.208 121.3 114.876 120.633 114.876 119.809V113.395C114.876 112.572 114.208 111.905 113.385 111.905Z" fill="#FFD8E6" stroke="#FFD8E6" stroke-linecap="round" stroke-linejoin="round"/>
<path d="M64.0649 114.181C63.5282 114.395 63.0827 114.79 62.8044 115.296C62.5261 115.803 62.4323 116.391 62.539 116.959C62.6457 117.527 62.9462 118.04 63.3893 118.411C63.8325 118.783 64.3907 118.989 64.9687 118.994C65.5468 118.999 66.1087 118.804 66.5588 118.441C67.0088 118.078 67.319 117.571 67.4363 117.005C67.5537 116.439 67.4709 115.849 67.2022 115.338C66.9335 114.826 66.4955 114.423 65.963 114.198" stroke="#455A64" stroke-width="3" stroke-miterlimit="10" stroke-linecap="round"/>
<path d="M65.0156 113.214V115.061" stroke="#455A64" stroke-width="3" stroke-miterlimit="10" stroke-linecap="round"/>
<path d="M94.1362 119.217C94.1362 119.217 91.7055 119.982 91.1908 120.08C90.6762 120.178 89.1083 119.783 89.0458 120.378C88.9833 120.973 89.9562 121.547 91.4824 122.163C93.0086 122.779 94.6836 123.281 95.8201 123.231C96.9566 123.18 96.7394 120.94 96.8019 120.553C96.8643 120.166 94.1362 119.217 94.1362 119.217Z" fill="#FFD8E6" stroke="black" stroke-linecap="round" stroke-linejoin="round"/>
<path d="M92.2805 121.621C90.3795 120.836 89.4929 120.431 89.1061 120.238C89.0708 120.281 89.05 120.334 89.0466 120.39C88.999 121.011 89.957 121.559 91.4832 122.175C93.0094 122.791 94.6844 123.293 95.8209 123.243C96.2463 123.222 96.4814 122.898 96.6123 122.478C95.1252 122.489 93.6514 122.198 92.2805 121.621Z" fill="#FFD8E6" stroke="black" stroke-linecap="round" stroke-linejoin="round"/>
<path d="M108.907 96.4045L108.271 96.7526V97.6778C108.271 97.6778 94.9928 99.8913 94.8202 101.049C94.6477 102.206 94.1211 119.423 94.1211 119.423C94.1211 119.423 96.2632 121.728 96.7243 121.208C97.1854 120.687 97.3044 119.018 97.3044 119.018L99.506 103.768C99.506 103.768 114.462 105.142 116.72 104.446C118.978 103.75 120.076 100.745 120.132 99.3558C120.189 97.9664 120.192 97.3298 120.192 97.3298L110.002 95.9434L108.907 96.4045Z" fill="#FFD8E6" stroke="black" stroke-linecap="round" stroke-linejoin="round"/>
<path d="M104.394 119.839L104.299 119.997C103.818 120.764 103.27 121.486 102.659 122.154C101.675 123.195 100.056 124.064 100.113 124.409C100.169 124.754 101.27 124.989 105.031 123.832C106.723 123.311 107.982 123.311 108.154 122.731C108.327 122.151 106.941 119.667 106.941 119.667L104.394 119.839Z" fill="#FFD8E6" stroke="black" stroke-linecap="round" stroke-linejoin="round"/>
<path d="M108.154 122.719C108.176 122.439 108.125 122.158 108.006 121.904C106.734 122.509 105.409 122.995 104.049 123.356C102.818 123.696 101.564 123.944 100.297 124.097C100.172 124.219 100.101 124.323 100.113 124.394C100.169 124.742 101.27 124.974 105.03 123.817C106.729 123.314 107.982 123.314 108.154 122.719Z" fill="#FFD8E6" stroke="black" stroke-linecap="round" stroke-linejoin="round"/>
<path d="M112.555 98.8916C112.555 98.8916 111.166 97.6778 111.05 98.371C110.934 99.0642 110.702 99.2397 110.702 99.2397C110.702 99.2397 100.982 100.406 99.8874 101.09C98.7926 101.774 98.4415 102.712 99.0782 104.101C99.7149 105.49 103.996 120.708 103.996 120.708C104.442 120.909 104.908 121.064 105.385 121.169C106.022 121.285 107.352 120.648 107.352 120.648C107.352 120.648 107.191 117.813 106.787 116.888C106.382 115.963 104.725 105.285 104.725 105.285C104.725 105.285 111.749 105.312 114.123 105.312C116.497 105.312 119.098 103.345 119.618 101.724C120.139 100.102 119.916 99.7574 119.916 99.7574" fill="#FFD8E6"/>
<path d="M112.555 98.8916C112.555 98.8916 111.166 97.6778 111.05 98.371C110.934 99.0642 110.702 99.2397 110.702 99.2397C110.702 99.2397 100.982 100.406 99.8874 101.09C98.7926 101.774 98.4415 102.712 99.0782 104.101C99.7149 105.49 103.996 120.708 103.996 120.708C104.442 120.909 104.908 121.064 105.385 121.169C106.022 121.285 107.352 120.648 107.352 120.648C107.352 120.648 107.191 117.813 106.787 116.888C106.382 115.963 104.725 105.285 104.725 105.285C104.725 105.285 111.749 105.312 114.123 105.312C116.497 105.312 119.098 103.345 119.618 101.724C120.139 100.102 119.916 99.7574 119.916 99.7574" stroke="black" stroke-linecap="round" stroke-linejoin="round"/>
<path d="M104.719 105.288L104.383 103.467" stroke="black" stroke-linecap="round" stroke-linejoin="round"/>
<path d="M115.766 101.45C115.952 101.71 116.103 101.993 116.215 102.292" stroke="black" stroke-linecap="round" stroke-linejoin="round"/>
<path d="M113.119 99.442C113.975 99.7954 114.749 100.322 115.392 100.989" stroke="black" stroke-linecap="round" stroke-linejoin="round"/>
<path d="M115.318 99.7693C116.213 100.179 116.955 100.863 117.437 101.721" stroke="black" stroke-linecap="round" stroke-linejoin="round"/>
<path d="M109.05 82.2043C109.05 82.2043 109.05 82.2876 109.035 82.4304C108.984 83.2486 108.077 84.4654 108.618 86.0005C109.847 89.4636 109.597 92.0073 109.487 91.2665C109.66 92.4238 108.618 94.9109 108.618 95.7291C108.618 96.5472 106.476 96.6603 111.338 98.1092C116.199 99.558 117.883 99.4926 119.091 99.0285C120.299 98.5644 121.173 98.1597 121.289 97.178C121.405 96.1962 120.364 94.4587 120.308 92.9533C120.251 91.4479 120.043 86.7384 118.597 83.7306C117.151 80.7228 113.331 78.6372 113.331 78.6372L109.05 82.2043Z" fill="#FFD8E6" stroke="black" stroke-linecap="round" stroke-linejoin="round"/>
<path d="M116.666 93.5633C116.919 93.3699 117.154 93.1735 117.371 92.9683" stroke="black" stroke-linecap="round" stroke-linejoin="round"/>
<path d="M110.568 96.9667C112.361 96.1791 114.09 95.2562 115.742 94.2058" stroke="black" stroke-linecap="round" stroke-linejoin="round"/>
<path d="M112.433 96.6335C111.746 96.9775 111.026 97.2535 110.285 97.4576" stroke="black" stroke-linecap="round" stroke-linejoin="round"/>
<path d="M113.373 96.1248C113.373 96.1248 113.209 96.2259 112.936 96.3747" stroke="black" stroke-linecap="round" stroke-linejoin="round"/>
<path d="M114.174 88.4759L115.736 86.5688" stroke="black" stroke-linecap="round" stroke-linejoin="round"/>
<path d="M108.514 69.3728C108.123 69.7815 107.774 70.2291 107.473 70.7086C107.22 71.2084 107.175 71.5714 106.744 71.8986C106.313 72.2259 105.42 72.0147 105.444 72.5293C105.468 73.044 106.003 73.5349 106.003 73.5349C106.003 73.5349 105.569 76.6766 105.732 77.1764C105.896 77.6763 108.145 77.7715 108.145 77.7715L109.291 81.5022L113.334 78.7622L113.441 77.6763C113.542 77.2359 114.268 75.8734 114.869 74.8499C115.47 73.8265 115.202 71.1311 113.75 69.9708C112.298 68.8105 110.377 68.9295 109.784 68.8878C109.192 68.8462 108.514 69.3728 108.514 69.3728Z" fill="#FFD8E6" stroke="black" stroke-linecap="round" stroke-linejoin="round"/>
<path d="M106.266 74.1418C106.457 74.3326 106.697 74.4657 106.961 74.5257C107.224 74.5857 107.498 74.5702 107.753 74.481" stroke="black" stroke-linecap="round" stroke-linejoin="round"/>
<path d="M107.985 72.2527C107.886 72.4818 107.732 72.6335 107.64 72.5948C107.547 72.5562 107.553 72.336 107.654 72.1069C107.756 71.8779 107.907 71.7261 107.997 71.7648C108.086 71.8035 108.083 72.0236 107.985 72.2527Z" fill="black"/>
<path d="M107.828 71.1163C107.828 71.1163 108.7 70.9437 108.831 71.8065" stroke="black" stroke-linecap="round" stroke-linejoin="round"/>
<path d="M108.131 77.7566L109.532 77.703L108.571 78.8752L108.131 77.7566Z" fill="black" stroke="black" stroke-linecap="round" stroke-linejoin="round"/>
<path d="M111.328 76.3048L110.721 76.1233L110.361 76.6886" stroke="black" stroke-linecap="round" stroke-linejoin="round"/>
<path d="M110.991 67.9924C110.991 67.9924 111.865 66.9868 110.815 66.5049C109.765 66.0229 106.192 66.8946 106.576 68.4625C106.959 70.0303 110.294 70.2297 110.613 70.2475C110.931 70.2654 109.976 70.6105 110.238 71.0865C110.5 71.5625 111.13 71.8005 111.163 72.3152C111.196 72.8299 110.568 73.5201 110.866 73.8206C111.163 74.1211 111.639 73.6719 111.943 73.5558C112.246 73.4398 113.076 74.2758 112.422 75.3409C111.767 76.406 111.327 76.2959 111.327 76.2959C111.25 76.492 111.237 76.7074 111.291 76.9112C111.344 77.1149 111.461 77.2964 111.624 77.4294C112.219 77.9322 113.409 77.7834 113.707 77.2955C114.004 76.8076 114.519 76.3673 115.59 75.3141C116.661 74.2609 117.17 71.6012 116.429 69.7656C115.688 67.9299 112.329 67.1832 110.991 67.9924Z" fill="black" stroke="black" stroke-linecap="round" stroke-linejoin="round"/>
<path d="M113.319 77.7626L107.807 81.8236L108.122 83.5759L114.328 79.0032L113.319 77.7626Z" fill="#FFD8E6" stroke="black" stroke-linecap="round" stroke-linejoin="round"/>
<path d="M99.5564 101.441L109.267 99.3141L106.997 97.9664L97.7832 100.022L99.5564 101.441Z" fill="#FFD8E6" stroke="black" stroke-linecap="round" stroke-linejoin="round"/>
<path d="M95.2332 92.2275L99.556 101.441L97.7829 100.022L93.3887 91.3766L95.2332 92.2275Z" fill="black" stroke="black" stroke-linecap="round" stroke-linejoin="round"/>
<path d="M103.044 97.5231L100.806 98.1002L99.4199 100.108C99.4756 100.162 99.542 100.204 99.6147 100.231C99.6875 100.257 99.7651 100.268 99.8424 100.263C100.074 100.224 100.69 99.683 100.69 99.683L102.312 99.2576C102.312 99.2576 101.464 99.7603 101.464 99.8764C101.464 99.9924 101.619 100.031 102.002 99.9924C102.386 99.9537 103.314 99.0999 103.314 99.0999L103.933 98.3263L103.044 97.5231Z" fill="#FFD8E6" stroke="black" stroke-linecap="round" stroke-linejoin="round"/>
<path d="M109.088 87.4762L107.943 92.7004L103.043 97.5231L104.2 98.603L108.27 96.7525L108.553 96.0177L109.535 91.6413L109.088 87.4762Z" fill="#FFD8E6" stroke="black" stroke-linecap="round" stroke-linejoin="round"/>
<path d="M101.688 96.47C101.688 96.47 100.126 96.702 99.5485 96.702C98.9713 96.702 97.5819 96.8181 97.3499 96.9341C97.1178 97.0501 96.017 97.7433 96.0765 98.2639C96.136 98.7846 97.1178 98.3235 97.1178 98.3235C97.322 98.7916 97.5742 99.2373 97.8705 99.6533C98.3317 100.29 98.5637 100.058 99.489 99.7128C100.414 99.3677 101.804 98.3235 101.804 98.3235L102.616 97.5708L101.688 96.47Z" fill="#FFD8E6" stroke="black" stroke-linecap="round" stroke-linejoin="round"/>
<path d="M115.275 80.2022C115.275 80.2022 112.895 79.8541 112.035 81.0114C111.047 82.4072 110.394 84.0115 110.125 85.7001C109.949 87.2026 108.852 90.2134 108.852 90.2134L101.494 96.3391L102.767 98.2461C102.767 98.2461 111.693 94.081 111.919 93.8013C112.145 93.5216 115.099 85.8727 115.099 85.8727" fill="#FFD8E6"/>
<path d="M115.275 80.2022C115.275 80.2022 112.895 79.8541 112.035 81.0114C111.047 82.4072 110.394 84.0115 110.125 85.7001C109.949 87.2026 108.852 90.2134 108.852 90.2134L101.494 96.3391L102.767 98.2461C102.767 98.2461 111.693 94.081 111.919 93.8013C112.145 93.5216 115.099 85.8727 115.099 85.8727" stroke="black" stroke-linecap="round" stroke-linejoin="round"/>
<path d="M19.1133 128.413H156" stroke="black" stroke-linecap="round" stroke-linejoin="round"/>
</svg>
