<svg width="180" height="112" viewBox="0 0 180 112" fill="none" xmlns="http://www.w3.org/2000/svg">
<path opacity="0.5" d="M109.5 147C169.975 147 219 129.763 219 108.5C219 87.237 169.975 70 109.5 70C49.0248 70 0 87.237 0 108.5C0 129.763 49.0248 147 109.5 147Z" fill="#F0F0F0"/>
<path d="M167.014 76.3587L149.144 76.2705L131.274 76.2422L95.5337 76.1823L59.7937 76.2387L41.9237 76.2705L24.0537 76.3587L41.9237 76.4434L59.7937 76.4751L95.5337 76.5351L131.274 76.4751L149.144 76.4434L167.014 76.3587Z" fill="#263238"/>
<path d="M166.91 76.3516C166.655 70.3898 166.722 64.4185 167.111 58.4639C167.983 44.2322 169.839 25.4341 168.117 21.4853C166.924 18.7399 162.298 14.9817 161.899 14.2795C161.112 12.9032 158.448 4.97394 157.16 3.34009C154.986 0.591128 145.162 0.651118 143.585 2.63432C140.674 6.37135 140.084 12.9173 138.916 14.1842C137.748 15.451 128.997 18.874 127.814 22.1135C126.632 25.3529 131.576 32.6858 131.64 34.6832C131.703 36.6805 122.26 59.1097 121.939 64.0854C121.618 69.061 126.569 76.2246 126.569 76.2246L166.91 76.3516Z" fill="#A6A6A6"/>
<path d="M126.57 76.2281H128.902H128.927C128.927 76.2281 125.881 68.7928 125.881 65.1511C125.881 61.5093 134.622 38.519 134.576 34.7361C134.531 30.9532 129.057 26.0763 129.481 22.8862C129.904 19.6962 138.176 16.7708 139.841 15.1228C141.507 13.4749 142.707 3.96819 144.189 2.8072C145.671 1.64622 154.024 1.70621 155.481 4.21874C156.939 6.73126 158.163 13.4678 159.363 16.0474C160.563 18.627 165.923 20.3349 166.11 24.5942C166.297 28.8535 156.229 56.5231 157.606 63.369C158.982 70.2149 161.639 74.3966 163.029 76.341H163.876C163.876 76.341 159.913 66.6614 159.822 62.508C159.744 59.1944 166.085 41.6879 168.644 34.7361C168.933 28.3842 168.908 23.3274 168.104 21.4853C166.911 18.7434 162.288 14.9887 161.883 14.2865C161.099 12.9067 158.435 4.97391 157.143 3.34712C154.97 0.594628 145.145 0.654618 143.571 2.64135C140.66 6.37838 140.071 12.9244 138.899 14.1912C137.728 15.4581 128.983 18.881 127.801 22.1205C126.619 25.36 131.581 32.6858 131.637 34.6831C131.693 36.6805 122.261 59.1097 121.94 64.0853C121.619 69.061 126.57 76.2281 126.57 76.2281Z" fill="white"/>
<path d="M152.325 5.79974C153.698 6.53727 155.413 13.7361 154.442 14.1348C153.472 14.5336 151.266 14.2372 150.765 13.3338C150.264 12.4304 150.903 5.03046 152.325 5.79974Z" fill="#EBEBEB"/>
<path d="M146.111 5.16094C144.738 5.90199 143.023 13.0973 143.994 13.4996C144.964 13.9019 147.17 13.5984 147.671 12.6985C148.172 11.7987 147.533 4.39871 146.111 5.16094Z" fill="#EBEBEB"/>
<path d="M103.212 83.6387H131.527C133.944 83.6387 130.447 76.761 121.646 74.1108C112.846 71.4607 100.431 81.0591 103.212 83.6387Z" fill="#37474F"/>
<path d="M114.316 83.6387C114.282 82.857 114.145 82.0834 113.907 81.3379C113.676 80.5867 113.355 79.8663 112.951 79.1924C112.549 78.5115 112.046 77.8963 111.458 77.368C110.877 76.8395 110.21 76.4146 109.485 76.1117C109.644 76.2281 109.803 76.3375 109.965 76.4469L110.202 76.6093L110.424 76.7963L110.865 77.1492L111.271 77.555C111.798 78.1026 112.261 78.7088 112.651 79.3617C113.042 80.0171 113.377 80.7041 113.653 81.4155C113.792 81.7755 113.915 82.1389 114.024 82.5059C114.143 82.8835 114.235 83.2611 114.316 83.6387Z" fill="#263238"/>
<path d="M110.963 77.0962C109.291 77.6591 107.709 78.4576 106.262 79.4676C105.532 79.969 104.869 80.562 104.29 81.232C104.005 81.576 103.759 81.9499 103.556 82.3471C103.355 82.7456 103.236 83.1797 103.203 83.6245C103.296 83.2004 103.465 82.7965 103.701 82.4318C103.925 82.0644 104.189 81.7224 104.487 81.4119C105.089 80.7922 105.749 80.2331 106.46 79.7428C107.166 79.2347 107.907 78.783 108.655 78.3313C109.029 78.109 109.41 77.8972 109.795 77.689C110.179 77.4808 110.575 77.2973 110.963 77.0962Z" fill="#263238"/>
<path d="M130.768 1.27928C136.273 4.62108 139.301 11.5729 139.301 11.5729C139.301 11.5729 145.328 17.8648 145.095 22.1206C145.052 23.3223 144.718 24.4957 144.123 25.5404C143.527 26.5851 142.688 27.4701 141.676 28.1196L141.566 25.8188C141.566 25.8188 140.822 28.9947 136.333 31.2814C131.844 33.5681 125.189 33.6245 121.512 32.76C119.332 32.2579 117.32 31.1989 115.672 29.6864L117.672 32.5835C117.672 32.5835 113.007 33.5398 109.073 29.2841C105.138 25.0283 111.313 16.051 111.617 14.3677C111.92 12.6845 110.082 1.37808 122.221 0.467646C122.218 0.478233 126.981 -1.01446 130.768 1.27928Z" fill="#263238"/>
<path d="M143.296 27.435C144.464 26.4928 145.233 24.8872 145.597 23.4545C146.005 21.9524 145.897 20.3567 145.29 18.9235C144.531 17.2014 143.201 15.8498 141.905 14.5265C140.61 13.2032 139.128 11.887 137.816 10.4966C137.741 10.419 137.858 10.3131 137.939 10.3696C139.272 11.329 140.548 12.3646 141.761 13.4714C142.969 14.4625 144.056 15.5924 145 16.8379C145.877 17.9837 146.407 19.3563 146.528 20.7937C146.572 21.9749 146.33 23.149 145.822 24.2167C145.223 25.4941 144.295 26.4469 143.405 27.5162C143.324 27.5832 143.229 27.4879 143.296 27.435Z" fill="#263238"/>
<path d="M106.86 24.4707C107.27 20.0455 110.318 16.5661 111.691 12.4727C112.436 10.2495 112.856 7.88519 114.027 5.83141C114.059 5.77848 114.154 5.83141 114.123 5.88787C113.194 7.70875 112.887 9.70254 112.358 11.6575C111.779 13.6117 111.006 15.5031 110.05 17.3036C108.409 20.6419 106.43 24.5907 107.901 28.3489C108.579 30.0815 110.117 31.8107 112.093 31.9271C112.168 31.9271 112.153 32.0577 112.076 32.0436C111.28 31.928 110.517 31.6516 109.832 31.2312C109.147 30.8107 108.555 30.255 108.092 29.5981C107.075 28.094 106.637 26.2725 106.86 24.4707Z" fill="#263238"/>
<path d="M106.955 25.6282C106.455 24.1098 106.438 22.474 106.905 20.9454C107.392 19.4351 108.43 18.1788 109.492 17.0284C110.716 15.7016 112.033 14.4065 112.587 12.6456C112.611 12.5715 112.721 12.6174 112.7 12.688C111.842 15.5851 109.33 17.4448 107.953 20.0385C106.379 23.0063 107.248 26.5669 109.4 28.9982C110.765 30.4713 112.457 31.6017 114.341 32.2977C114.347 32.2977 114.353 32.3003 114.358 32.3049C114.363 32.3095 114.365 32.3158 114.365 32.3224C114.365 32.3289 114.363 32.3352 114.358 32.3398C114.353 32.3445 114.347 32.3471 114.341 32.3471C111.112 31.1861 108.006 28.9947 106.955 25.6282Z" fill="#263238"/>
<path d="M131.153 35.1561C128.432 47.0059 122.924 62.007 118.668 65.0312C115.238 67.4731 93.5039 74.2943 92.5018 74.4037C90.0139 74.6543 84.5442 55.2069 87.1203 54.4941C90.3668 53.5942 110.086 52.4827 110.965 51.5793C111.843 50.6759 117.489 43.0324 123.848 34.2245C128.235 28.1196 132.84 27.7879 131.153 35.1561Z" fill="#EB9481"/>
<path d="M98.0722 72.7345C97.7441 72.9039 93.0684 75.2541 90.1782 76.0905C88.0221 76.7151 81.769 78.3489 80.8445 76.0446C80.2128 74.4707 83.7769 73.0768 86.2754 72.0358C87.5916 71.4889 89.2149 70.1091 88.8267 69.2622C88.1492 67.7836 84.758 69.2622 82.5313 70.5643C78.219 73.0698 72.4776 77.5761 69.8275 75.3917C68.8359 74.5625 69.9898 73.0592 71.6801 71.5841C68.9382 73.3027 66.0093 74.7142 64.8695 73.8391C64.2166 73.3415 64.1849 72.6569 64.5484 71.877C63.7014 72.1523 62.9533 72.0993 62.4311 71.5489C61.5418 70.6137 61.9758 69.2375 62.9498 67.8259C62.7824 67.8078 62.6218 67.7499 62.4813 67.6573C62.3407 67.5646 62.2243 67.4398 62.1417 67.2931C60.2538 64.4136 69.704 56.149 72.9717 55.3727C82.5877 53.0895 92.8178 53.9223 92.8178 53.9223C96.6113 56.9395 98.0793 72.7275 98.0722 72.7345Z" fill="#EB9481"/>
<path d="M83.932 63.8842C81.6423 64.2421 79.4552 65.0843 77.5166 66.3544C75.0782 67.9635 73.462 69.8479 71.4153 71.7429C71.3623 71.7958 71.44 71.8805 71.4929 71.8311C72.4669 70.9277 76.5038 67.5401 77.5484 66.7673C79.4349 65.3467 81.6205 64.3751 83.9391 63.9265C83.9447 63.9256 83.9497 63.9225 83.953 63.9178C83.9563 63.9132 83.9577 63.9075 83.9567 63.9018C83.9558 63.8962 83.9527 63.8912 83.948 63.8879C83.9434 63.8846 83.9377 63.8833 83.932 63.8842Z" fill="#263238"/>
<path d="M82.1222 59.8015C79.5956 60.5072 77.0054 61.1918 74.6587 62.3881C72.0933 63.6973 70.0713 65.8287 68.1092 67.8825C66.9212 69.1152 65.7626 70.3738 64.6333 71.6583C64.5839 71.7113 64.658 71.7959 64.7074 71.743C66.7118 69.6257 68.7797 67.5661 70.9111 65.564C72.8796 63.6969 75.1978 62.2374 77.7323 61.2694C79.1792 60.7189 80.6648 60.2778 82.1504 59.8579C82.1787 59.8579 82.1681 59.7944 82.1222 59.8015Z" fill="#263238"/>
<path d="M79.4418 56.2338C76.9716 56.7384 74.8543 57.1689 72.67 58.4851C69.7904 60.2284 67.0238 63.1644 66.0358 64.2019C64.9595 65.3523 63.9185 66.5379 62.9022 67.7307C62.8598 67.7801 62.9445 67.8542 62.9868 67.8048C65.3219 65.1759 67.8244 62.7006 70.4786 60.3942C71.7249 59.2742 73.1381 58.3551 74.6673 57.67C76.2168 57.064 77.8153 56.5918 79.4453 56.2585L79.4418 56.2338Z" fill="#263238"/>
<path d="M111.097 49.836L127.683 49.1303C127.683 49.1303 130.697 40.9081 131.805 33.6034C132.913 26.2987 126.691 28.9242 120.533 36.7794C114.376 44.6345 111.097 49.836 111.097 49.836Z" fill="#37474F"/>
<path d="M121.495 76.4787L122.5 59.6391C122.5 59.6391 117.969 54.6281 118.971 50.1112C119.48 47.8175 127.296 30.3957 128.062 29.6793C131.142 26.8104 136.337 27.9537 138.472 29.5664C150.283 38.4943 158.607 57.6523 162.605 76.4998L121.495 76.4787Z" fill="#FFDBDB"/>
<path d="M121.495 76.4787L122.5 59.6391C122.5 59.6391 117.969 54.6281 118.971 50.1112C119.48 47.8175 127.296 30.3957 128.062 29.6793C131.142 26.8104 136.337 27.9537 138.472 29.5664C150.283 38.4943 158.607 57.6523 162.605 76.4998L121.495 76.4787Z" fill="#FFDBDB"/>
<path d="M122.5 59.639L121.495 76.4786H162.605C158.611 57.6453 150.286 38.4872 138.472 29.5452C138.01 29.2054 137.507 28.9244 136.976 28.7088C134.456 27.6502 130.56 27.3291 128.062 29.6581C127.296 30.3639 119.48 47.7963 118.975 50.09C117.969 54.6281 122.5 59.639 122.5 59.639Z" fill="#FFDBDB"/>
<g opacity="0.1">
<path d="M128.87 29.0405H137.646C137.428 28.9235 137.205 28.8175 136.976 28.7229C136.543 28.5413 136.097 28.3903 135.642 28.2712H130.515C129.933 28.4482 129.379 28.7073 128.87 29.0405Z" fill="black"/>
<path d="M127.395 30.8191H140.035C139.725 30.5544 139.414 30.2933 139.096 30.0463H127.804C127.698 30.2404 127.557 30.5015 127.395 30.8191Z" fill="black"/>
<path d="M126.512 32.5941H141.969C141.704 32.3294 141.432 32.0718 141.161 31.8213H126.887L126.512 32.5941Z" fill="black"/>
<path d="M125.669 34.369H143.666C143.43 34.1079 143.193 33.8503 142.96 33.5997H126.022L125.669 34.369Z" fill="black"/>
<path d="M124.847 36.144H145.205C144.993 35.8829 144.778 35.6288 144.559 35.3748H125.2C125.087 35.6253 124.967 35.8829 124.847 36.144Z" fill="black"/>
<path d="M124.035 37.9226H146.602L146.009 37.1498H124.388L124.035 37.9226Z" fill="black"/>
<path d="M123.241 39.6976H147.879C147.699 39.4365 147.526 39.1789 147.335 38.9248H123.586C123.47 39.1824 123.354 39.44 123.241 39.6976Z" fill="black"/>
<path d="M122.457 41.4727H149.068C148.903 41.215 148.733 40.9574 148.564 40.7034H122.803C122.683 40.961 122.567 41.2186 122.457 41.4727Z" fill="black"/>
<path d="M121.686 43.2476H150.178C150.022 42.9899 149.864 42.7323 149.705 42.4783H122.021C121.905 42.7359 121.795 42.9935 121.686 43.2476Z" fill="black"/>
<path d="M120.941 45.0367H151.215C151.067 44.7791 150.922 44.5215 150.77 44.2675H121.255C121.142 44.5145 121.033 44.7721 120.941 45.0367Z" fill="black"/>
<path d="M120.185 46.8011H152.191C152.05 46.54 151.913 46.2824 151.771 46.0283H120.506L120.185 46.8011Z" fill="black"/>
<path d="M119.486 48.5655H153.105C152.978 48.3079 152.848 48.0503 152.717 47.7963H119.783C119.673 48.0821 119.575 48.3397 119.486 48.5655Z" fill="black"/>
<path d="M118.93 50.3512H153.975C153.855 50.0936 153.731 49.836 153.622 49.5819H119.145C119.085 49.7533 119.035 49.9276 118.993 50.1042C118.958 50.1853 118.94 50.27 118.93 50.3512Z" fill="black"/>
<path d="M118.824 51.3568C118.818 51.6136 118.827 51.8705 118.852 52.1261H154.797L154.444 51.3568H118.824Z" fill="black"/>
<path d="M119.018 53.1318C119.071 53.3929 119.138 53.6509 119.219 53.9047H155.566L155.235 53.1318H119.018Z" fill="black"/>
<path d="M119.569 54.9175C119.675 55.1821 119.788 55.4362 119.922 55.6868H156.314C156.212 55.4292 156.106 55.1716 156 54.9175H119.569Z" fill="black"/>
<path d="M120.429 56.6819C120.58 56.9536 120.732 57.2112 120.887 57.4512H157.016C156.917 57.1936 156.818 56.9395 156.716 56.6819H120.429Z" fill="black"/>
<path d="M121.569 58.4463C121.795 58.7604 122 59.0215 122.155 59.2156H157.68C157.588 58.958 157.496 58.7004 157.401 58.4463H121.569Z" fill="black"/>
<path d="M122.42 61.0082H158.318C158.227 60.747 158.138 60.4894 158.043 60.2354H122.465L122.42 61.0082Z" fill="black"/>
<path d="M122.313 62.7832H158.918C158.833 62.5256 158.749 62.268 158.66 62.0139H122.352L122.313 62.7832Z" fill="black"/>
<path d="M122.208 64.5582H159.486C159.409 64.3006 159.328 64.043 159.243 63.7889H122.254L122.208 64.5582Z" fill="black"/>
<path d="M122.101 66.3332H160.029C159.955 66.0756 159.878 65.8216 159.796 65.564H122.147L122.101 66.3332Z" fill="black"/>
<path d="M121.999 68.1117H160.541C160.47 67.8541 160.4 67.5965 160.322 67.3389H122.041L121.999 68.1117Z" fill="black"/>
<path d="M121.889 69.8867H161.027C160.96 69.6291 160.893 69.375 160.819 69.1174H121.935L121.889 69.8867Z" fill="black"/>
<path d="M121.783 71.6617H161.486C161.426 71.4041 161.359 71.1501 161.292 70.8925H121.829L121.783 71.6617Z" fill="black"/>
<path d="M121.674 73.4368H161.902C161.842 73.1792 161.782 72.9251 161.719 72.6675H121.723L121.674 73.4368Z" fill="black"/>
<path d="M121.569 75.2153H162.33C162.274 74.9577 162.217 74.7001 162.157 74.4425H121.614L121.569 75.2153Z" fill="black"/>
<path d="M121.495 76.4786H162.605C162.605 76.3939 162.57 76.3056 162.549 76.2209H121.509L121.495 76.4786Z" fill="black"/>
</g>
<path d="M133.128 27.5408C135.771 27.8937 135.676 29.4288 134.085 32.2095C132.493 34.9902 130.115 36.1441 128.855 36.1441C127.955 36.1441 126.198 34.0868 126.635 31.8213C127.217 28.8042 130.185 27.1668 133.128 27.5408Z" fill="#37474F"/>
<path d="M126.328 30.0992C126.328 30.0992 127.355 35.1066 128.957 35.1066C131.943 35.1066 134.603 29.4605 134.586 28.6771C134.586 28.4795 132.899 23.9943 131.586 20.5114C130.743 18.2706 130.048 16.4462 130.048 16.4462L123.124 23.8638L126.11 29.6722L126.328 30.0992Z" fill="#EB9481"/>
<path d="M123.124 23.8638L126.109 29.6723C127.616 28.6141 128.882 27.25 129.826 25.669C130.77 24.088 131.37 22.3258 131.586 20.4973C130.743 18.2565 130.047 16.4321 130.047 16.4321L129.158 17.3214L123.124 23.8638Z" fill="#263238"/>
<path d="M110.36 18.8332C109.852 16.21 111.306 13.7221 113.608 13.2763C115.91 12.8305 118.187 14.5957 118.695 17.219C119.203 19.8422 117.749 22.3301 115.447 22.7759C113.146 23.2216 110.868 21.4564 110.36 18.8332Z" fill="#FFDBDB"/>
<path d="M120.083 17.1167C120.648 20.035 119.025 22.8016 116.47 23.2992C113.915 23.7967 111.378 21.8312 110.824 18.9128C110.269 15.9945 111.882 13.2279 114.434 12.7303C116.985 12.2328 119.529 14.1983 120.083 17.1167Z" fill="#C7C7C7"/>
<path d="M111.839 16.9261C113.755 28.2184 120.742 28.356 123.177 27.9432C125.389 27.562 132.874 25.9952 132.137 14.5548C131.399 3.1143 125.534 0.439451 120.431 1.03229C115.329 1.62514 109.923 5.6233 111.839 16.9261Z" fill="#EB9481"/>
<path d="M113.106 14.8405C113.369 14.867 113.633 14.8776 113.897 14.8723C114.173 14.924 114.459 14.8818 114.709 14.7523C114.78 14.6966 114.83 14.619 114.852 14.5316C114.875 14.4442 114.868 14.3518 114.832 14.2689C114.737 14.1156 114.602 13.9908 114.442 13.9076C114.281 13.8244 114.102 13.7859 113.922 13.796C113.556 13.7584 113.188 13.8577 112.891 14.0748C112.826 14.1283 112.778 14.1996 112.752 14.2801C112.727 14.3606 112.725 14.4468 112.748 14.5281C112.771 14.6093 112.817 14.6822 112.881 14.7377C112.944 14.7932 113.023 14.8289 113.106 14.8405Z" fill="#263238"/>
<path d="M121.321 13.0338C121.099 13.1855 120.866 13.2914 120.615 13.422C120.392 13.5928 120.117 13.6835 119.835 13.6796C119.747 13.6624 119.668 13.6162 119.609 13.5484C119.55 13.4806 119.515 13.3951 119.511 13.3055C119.526 13.1263 119.589 12.9544 119.693 12.8078C119.797 12.6613 119.939 12.5455 120.104 12.4727C120.417 12.2697 120.794 12.1917 121.162 12.2539C121.245 12.2715 121.321 12.3129 121.38 12.3729C121.44 12.4329 121.48 12.509 121.497 12.5918C121.514 12.6746 121.506 12.7606 121.475 12.8391C121.444 12.9176 121.39 12.9853 121.321 13.0338Z" fill="#263238"/>
<path opacity="0.8" d="M120.866 15.5887C122.327 15.1511 123.093 18.1083 121.738 18.5106C120.383 18.9129 119.642 15.9557 120.866 15.5887Z" fill="#EB9481"/>
<path d="M120.273 16.4109C120.273 16.3826 120.34 16.4355 120.343 16.4673C120.488 17.2331 120.777 18.0906 121.522 18.1929C121.546 18.1929 121.553 18.2353 121.522 18.2353C120.657 18.3023 120.283 17.159 120.273 16.4109Z" fill="#263238"/>
<path d="M120.777 15.4652C121.984 15.1123 122.615 17.5437 121.5 17.8789C120.385 18.2142 119.768 15.7687 120.777 15.4652Z" fill="#263238"/>
<path d="M121.292 15.4723C121.542 15.5534 121.814 15.744 122.079 15.7016C122.343 15.6593 122.541 15.3488 122.672 15.0453C122.672 15.0135 122.71 15.0453 122.721 15.0629C122.848 15.5287 122.791 16.0545 122.312 16.2521C121.832 16.4497 121.433 16.1075 121.196 15.6664C121.147 15.5852 121.189 15.437 121.292 15.4723Z" fill="#263238"/>
<path opacity="0.8" d="M114.8 16.7144C116.077 16.4957 116.497 19.5199 115.311 19.721C114.126 19.9221 113.727 16.8979 114.8 16.7144Z" fill="#EB9481"/>
<path d="M115.773 17.2755C115.773 17.2472 115.724 17.3249 115.734 17.3566C115.96 18.1048 116.087 18.9975 115.477 19.4316C115.459 19.4316 115.477 19.481 115.477 19.4704C116.295 19.1316 116.108 17.946 115.773 17.2755Z" fill="#263238"/>
<path d="M114.892 16.665C113.653 16.8979 114.207 19.3575 115.354 19.1352C116.501 18.9129 115.93 16.4709 114.892 16.665Z" fill="#263238"/>
<path d="M114.414 16.9437C114.248 17.1167 114.111 17.399 113.881 17.466C113.652 17.5331 113.359 17.3249 113.13 17.1131C113.105 17.0919 113.091 17.1131 113.094 17.1484C113.19 17.6213 113.447 18.0765 113.927 18.0659C114.407 18.0553 114.569 17.5825 114.573 17.0884C114.587 16.9896 114.481 16.8732 114.414 16.9437Z" fill="#263238"/>
<path d="M121.726 22.2829C121.603 22.5123 121.497 22.8087 121.236 22.9146C120.956 22.9963 120.663 23.0168 120.375 22.9746C120.369 22.974 120.363 22.9753 120.358 22.9784C120.353 22.9814 120.349 22.9861 120.346 22.9915C120.344 22.997 120.343 23.0031 120.345 23.009C120.346 23.0148 120.349 23.02 120.354 23.024C120.504 23.1346 120.682 23.2033 120.868 23.2232C121.054 23.243 121.242 23.2132 121.412 23.1369C121.551 23.0498 121.662 22.9239 121.73 22.7746C121.799 22.6253 121.822 22.4593 121.797 22.297C121.807 22.2476 121.744 22.2511 121.726 22.2829Z" fill="#263238"/>
<path d="M117.884 20.3349C117.884 20.3349 118.007 21.5029 118.138 22.0393C118.138 22.0887 118.286 22.0781 118.47 22.0393C118.47 22.0393 118.47 22.0393 118.491 22.0393C118.969 22.0105 119.431 21.8504 119.824 21.5764C120.218 21.3025 120.528 20.9254 120.721 20.4866C120.729 20.4735 120.73 20.458 120.727 20.4434C120.723 20.4289 120.713 20.4165 120.7 20.409C120.687 20.4015 120.671 20.3995 120.657 20.4035C120.642 20.4075 120.63 20.4171 120.622 20.4302C120.058 21.0645 119.302 21.498 118.47 21.6653C118.396 21.5276 118.325 19.6538 118.24 19.668C117.835 19.8081 117.451 20.0015 117.097 20.2432C116.769 17.8118 116.836 15.3487 116.472 12.9349C116.472 12.9153 116.464 12.8964 116.451 12.8825C116.437 12.8686 116.418 12.8608 116.398 12.8608C116.379 12.8608 116.36 12.8686 116.346 12.8825C116.332 12.8964 116.324 12.9153 116.324 12.9349C116.074 15.511 116.388 18.3164 116.677 20.836C116.705 21.143 117.693 20.469 117.884 20.3349Z" fill="#263238"/>
<path d="M118.751 21.6654C119.12 21.9958 119.567 22.2255 120.05 22.3323C120.315 22.3801 120.588 22.3456 120.833 22.2335C121.366 21.9829 121.285 21.4642 121.098 21.0443C120.999 20.8211 120.872 20.6113 120.721 20.4197C120.214 21.034 119.524 21.4704 118.751 21.6654Z" fill="#263238"/>
<path d="M120.05 22.3323C120.315 22.3801 120.588 22.3456 120.833 22.2335C121.366 21.983 121.285 21.4642 121.098 21.0443C120.512 21.2208 119.994 21.7466 120.05 22.3323Z" fill="#EB9481"/>
<path d="M131.724 13.602C130.51 13.8949 126.406 11.5623 124.557 5.83857C124.557 5.83857 126.575 10.8672 127.193 11.5059C127.81 12.1446 124.895 10.1896 123.339 5.59156C123.339 5.59156 121.335 8.23112 119.33 9.51561C117.326 10.8001 115.978 11.1883 115.773 11.0754C115.569 10.9624 118.483 8.95806 119.048 7.69474C119.048 7.69474 114.044 12.1834 111.419 13.2068C111.115 13.3268 110.628 8.31934 113.956 4.33882C117.284 0.3583 122.923 0.00541639 125.216 1.16287C125.216 1.16287 127.383 0.809993 130.58 3.20607C133.777 5.60214 133.029 13.2773 131.724 13.602Z" fill="#263238"/>
<path d="M130.468 15.7475C130.468 15.7475 131.988 11.6541 133.785 12.1093C135.581 12.5645 135.066 18.0554 133.4 19.2234C133.197 19.3881 132.962 19.51 132.711 19.5816C132.459 19.6532 132.196 19.6732 131.936 19.6402C131.677 19.6072 131.426 19.522 131.201 19.3897C130.975 19.2575 130.778 19.0809 130.623 18.8706L130.468 15.7475Z" fill="#EB9481"/>
<path d="M133.616 13.6619C133.619 13.6603 133.622 13.6593 133.626 13.6589C133.629 13.6586 133.632 13.6589 133.636 13.6599C133.639 13.6609 133.642 13.6625 133.645 13.6647C133.647 13.6668 133.65 13.6695 133.651 13.6725C133.653 13.6755 133.654 13.6788 133.654 13.6822C133.655 13.6856 133.654 13.6891 133.653 13.6923C133.652 13.6956 133.651 13.6987 133.648 13.7013C133.646 13.704 133.644 13.7062 133.641 13.7078C132.483 14.5688 132.113 15.9451 131.961 17.3143C132.222 16.7355 132.667 16.3368 133.436 16.6261C133.475 16.6261 133.457 16.7038 133.436 16.7038C133.19 16.6913 132.946 16.7551 132.738 16.8865C132.529 17.0179 132.366 17.2104 132.271 17.4378C132.111 17.8191 131.993 18.2166 131.919 18.6235C131.89 18.754 131.664 18.747 131.675 18.6023C131.673 18.5918 131.673 18.581 131.675 18.5705C131.209 16.9296 131.88 14.2901 133.616 13.6619Z" fill="#263238"/>
<path d="M132.233 18.9869C132.255 19.0623 132.299 19.1293 132.359 19.1797C132.42 19.23 132.494 19.2614 132.572 19.2699C132.65 19.2784 132.729 19.2636 132.799 19.2274C132.868 19.1913 132.926 19.1353 132.964 19.0665C133.002 18.9977 133.019 18.9193 133.012 18.841C133.006 18.7626 132.977 18.688 132.928 18.6263C132.879 18.5646 132.813 18.5187 132.739 18.4944C132.664 18.47 132.584 18.4683 132.508 18.4894C132.405 18.5189 132.319 18.5879 132.267 18.6812C132.216 18.7745 132.203 18.8844 132.233 18.9869Z" fill="#FFDBDB"/>
<path d="M133.138 18.006C133.147 18.0381 133.162 18.0682 133.182 18.0945C133.202 18.1208 133.228 18.1428 133.257 18.1593C133.285 18.1757 133.317 18.1862 133.35 18.1902C133.383 18.1941 133.417 18.1915 133.449 18.1824C133.483 18.1759 133.516 18.1623 133.546 18.1424C133.575 18.1224 133.599 18.0966 133.618 18.0666C133.637 18.0366 133.649 18.0031 133.654 17.9681C133.659 17.9332 133.656 17.8975 133.647 17.8636C133.637 17.8296 133.62 17.798 133.598 17.7708C133.575 17.7436 133.548 17.7213 133.516 17.7055C133.484 17.6897 133.45 17.6806 133.415 17.6789C133.379 17.6772 133.344 17.6828 133.311 17.6955C133.279 17.7044 133.25 17.7195 133.224 17.74C133.198 17.7605 133.176 17.7859 133.16 17.8147C133.144 17.8436 133.134 17.8754 133.13 17.9082C133.126 17.941 133.129 17.9742 133.138 18.006Z" fill="#FFDBDB"/>
<path d="M134.247 14.336L135.048 14.3042C135.09 14.3024 135.13 14.284 135.159 14.253C135.188 14.222 135.204 14.1808 135.203 14.1383C135.201 14.0959 135.183 14.0559 135.152 14.0269C135.121 13.9978 135.08 13.9821 135.037 13.9831L134.236 14.0148C134.193 14.0176 134.153 14.0367 134.124 14.0683C134.096 14.0999 134.08 14.1414 134.081 14.1842C134.082 14.2051 134.087 14.2256 134.096 14.2445C134.104 14.2634 134.117 14.2804 134.132 14.2945C134.148 14.3086 134.166 14.3195 134.185 14.3266C134.205 14.3337 134.226 14.3369 134.247 14.336Z" fill="#FFDBDB"/>
<path d="M134.208 13.8066L134.999 13.6619C135.02 13.6581 135.039 13.6502 135.057 13.6387C135.074 13.6272 135.09 13.6123 135.101 13.5949C135.113 13.5775 135.122 13.558 135.126 13.5373C135.13 13.5167 135.13 13.4955 135.126 13.4749C135.123 13.4539 135.115 13.4339 135.104 13.4161C135.092 13.3982 135.077 13.3828 135.06 13.3709C135.042 13.359 135.023 13.3509 135.002 13.3469C134.981 13.3429 134.96 13.3432 134.939 13.3478L134.152 13.4925C134.11 13.5011 134.074 13.5252 134.049 13.56C134.025 13.5948 134.015 13.6376 134.021 13.6795C134.025 13.7002 134.033 13.7199 134.045 13.7376C134.056 13.7552 134.071 13.7703 134.088 13.7822C134.106 13.794 134.125 13.8022 134.146 13.8064C134.167 13.8106 134.188 13.8107 134.208 13.8066Z" fill="#FFDBDB"/>
<path d="M132.119 12.4869C132.119 12.4869 131.653 6.65723 129.497 3.72477C127.094 0.457074 119.207 -0.795658 114.436 3.79888C114.436 3.79888 122.485 -0.00519764 127.253 4.31409C129.261 6.13144 130.214 12.9244 130.214 12.9244L132.119 12.4869Z" fill="#C7C7C7"/>
<path d="M127.143 16.1956C127.545 19.1422 129.966 21.2418 132.549 20.8889C135.132 20.536 136.9 17.8612 136.498 14.9181C136.095 11.9751 133.675 9.87192 131.088 10.2248C128.501 10.5777 126.737 13.2525 127.143 16.1956Z" fill="#C7C7C7"/>
<path d="M128.482 15.8428C128.835 18.4894 131.022 20.3773 133.344 20.0597C135.666 19.7421 137.254 17.339 136.873 14.6924C136.492 12.0457 134.336 10.1578 132.014 10.4754C129.692 10.793 128.122 13.1961 128.482 15.8428Z" fill="#FFDBDB"/>
<path d="M124.359 24.9224L127.902 23.3344L130.711 19.7245L130.157 19.2904L127.454 22.7628L124.073 24.2802L124.359 24.9224Z" fill="#C7C7C7"/>
<path d="M124.734 24.3472C124.381 23.3168 121.466 23.7438 122.017 25.3071C122.567 26.8704 125.097 25.3847 124.734 24.3472Z" fill="#37474F"/>
<path d="M141.873 32.0436C148.712 39.3695 167.408 65.9204 161.811 70.6279C152.611 78.3913 142.43 79.757 136.206 80.5898C133.52 80.9427 127.909 63.4397 129.674 61.1424C131.438 58.8451 143.316 59.2333 143.496 57.4689C143.595 56.4667 139.262 48.1775 136.322 37.5486C132.938 25.2754 138.852 28.8042 141.873 32.0436Z" fill="#EB9481"/>
<path d="M137.088 59.3638C137.088 59.3638 128.87 58.7639 123.478 58.6227C120.468 58.5451 115.298 58.8698 113.061 59.8261C109.715 61.2376 96.6303 69.3539 98.5288 72.5687C100.244 75.4799 110.601 67.0884 110.601 67.0884C110.601 67.0884 99.4004 74.6295 102.132 77.7525C104.863 80.8755 115.28 69.8444 115.28 69.8444C115.28 69.8444 103.931 77.8549 107.238 80.6285C109.733 82.7282 119.755 73.2674 119.755 73.2674C119.755 73.2674 110.061 80.2156 112.538 82.4847C115.273 84.9937 125.069 76.8386 125.069 76.8386C132.331 81.5495 137.72 80.8226 141.489 79.8486C142.399 79.6193 137.088 59.3638 137.088 59.3638Z" fill="#EB9481"/>
<path d="M114.305 64.2336C112.957 65.0734 111.588 65.9098 110.317 66.8661C109.047 67.8224 107.815 68.8211 106.64 69.8903C103.761 72.5122 102.37 74.6048 102.469 74.4778C104.837 71.6547 109.322 68.1541 110.585 67.1978C111.849 66.2415 113.056 65.2287 114.333 64.2724C114.375 64.2548 114.336 64.2124 114.305 64.2336Z" fill="#263238"/>
<path d="M117.838 68.7505C116.162 69.8939 114.457 70.9701 112.834 72.1911C111.211 73.4121 109.792 74.6966 108.246 76.0164C108.13 76.1187 108.222 76.1469 108.345 76.0517C109.926 74.7919 111.482 73.7473 113.077 72.5228C114.672 71.2983 116.222 69.9785 117.852 68.8034C117.891 68.7717 117.863 68.7329 117.838 68.7505Z" fill="#263238"/>
<path d="M121.565 72.0817C118.919 73.7015 116.572 75.8046 114.317 77.9255C114.208 78.0313 114.317 78.056 114.451 77.9537C116.826 75.967 118.686 74.3896 121.622 72.1735C121.668 72.1382 121.622 72.05 121.565 72.0817Z" fill="#263238"/>
<path d="M109.252 61.3329C110.988 60.2743 112.837 59.3462 114.863 58.9933C116.067 58.8169 117.281 58.7179 118.497 58.6969C119.771 58.644 121.049 58.6298 122.322 58.5804C122.358 58.5804 122.354 58.6334 122.322 58.6369C121.264 58.7251 120.177 58.8522 119.101 58.9333C118.024 59.0145 117.029 59.0745 116.002 59.2086C115 59.3319 114.015 59.5687 113.066 59.9143C112.167 60.2577 111.3 60.678 110.473 61.1706C108.736 62.1763 100.514 67.8754 98.7781 70.6984C98.4917 71.137 98.3844 71.6687 98.4782 72.1841C98.5202 72.4122 98.6271 72.6235 98.7861 72.7925C98.945 72.9614 99.1493 73.081 99.3745 73.1369C99.4451 73.1369 99.3745 73.1969 99.3004 73.1863C98.5558 73.0875 98.2418 72.424 98.1394 71.7218C97.7865 68.934 107.406 62.4692 109.252 61.3329Z" fill="#263238"/>
<path d="M155.875 49.3207L139.289 48.7702C139.289 48.7702 136.198 40.5763 135.023 33.2857C133.848 25.9952 139.819 28.2218 146.051 36.0276C152.283 43.8334 155.875 49.3207 155.875 49.3207Z" fill="#37474F"/>
<path d="M98.4787 77.6749H101.566V79.6934H98.4787V77.6749Z" fill="#455A64"/>
<path d="M94.4728 77.5408H97.5605V79.5593H94.4728V77.5408Z" fill="#455A64"/>
<path d="M90.467 77.4067H93.5547V79.4252H90.467V77.4067Z" fill="#455A64"/>
<path d="M86.4631 77.2726H89.5508V79.2911H86.4631V77.2726Z" fill="#455A64"/>
<path d="M82.4533 77.1421H85.541V79.1606H82.4533V77.1421Z" fill="#455A64"/>
<path d="M78.4494 77.0079H81.5371V79.0264H78.4494V77.0079Z" fill="#455A64"/>
<path d="M74.4435 76.8739H77.5312V78.8924H74.4435V76.8739Z" fill="#455A64"/>
<path d="M70.4357 76.7397H73.5234V78.7582H70.4357V76.7397Z" fill="#455A64"/>
<path d="M66.4299 76.6091H69.5176V78.6276H66.4299V76.6091Z" fill="#455A64"/>
<path d="M65.6703 80.8509H102.324V78.3984L65.6703 77.375V80.8509Z" fill="#37474F"/>
<path d="M30.8423 72.8863H91.2559L81.6504 27.9078H21.2368L30.8423 72.8863Z" fill="#455A64"/>
<path d="M28.6079 72.8863H89.0215L79.4125 27.9078H18.9989L28.6079 72.8863Z" fill="#37474F"/>
<path d="M50.1833 50.3166C48.543 48.8009 48.2619 46.4372 49.5554 45.0374C50.849 43.6375 53.2274 43.7315 54.8678 45.2472C56.5081 46.763 56.7892 49.1266 55.4957 50.5265C54.2021 51.9264 51.8237 51.8324 50.1833 50.3166Z" fill="#263238"/>
<path d="M45.6935 84.6338H75.4062V82.3259L45.6935 81.3625V84.6338Z" fill="#455A64"/>
<path d="M37.6165 84.6303H53.5668L63.1758 59.4274H47.2219L37.6165 84.6303Z" fill="#455A64"/>
<path d="M34.9915 84.6303H50.9418L60.5508 59.4274H44.5969L34.9915 84.6303Z" fill="#263238"/>
<path d="M85.0874 31.059C86.7812 30.3921 88.4574 29.6898 90.1301 28.9806C91.8027 28.2713 93.4648 27.5408 95.1339 26.8209C96.8031 26.101 98.4546 25.3423 100.12 24.5695L102.59 23.4262C103.413 23.0309 104.235 22.6498 105.061 22.244C104.214 22.5757 103.377 22.9251 102.534 23.2674L100.018 24.326C98.3452 25.0318 96.6831 25.7658 95.0175 26.4857C93.3519 27.2056 91.6969 27.9643 90.0454 28.723C88.3939 29.4816 86.7106 30.258 85.0874 31.059Z" fill="#263238"/>
<path d="M88.0048 44.6839C89.5504 44.758 91.0995 44.7898 92.6452 44.818C94.1908 44.8463 95.74 44.8463 97.2856 44.8604C98.8312 44.8745 100.38 44.8604 101.926 44.8216L104.248 44.7722C105.021 44.7404 105.794 44.7227 106.566 44.6839C105.794 44.6451 105.021 44.6275 104.248 44.5992L101.926 44.5498C100.38 44.5216 98.8312 44.5216 97.2856 44.5075C95.74 44.4934 94.1908 44.5075 92.6452 44.5498C91.0995 44.5922 89.5327 44.5992 88.0048 44.6839Z" fill="#263238"/>
<path d="M100.023 28.783C98.8166 29.03 97.6238 29.3193 96.4311 29.6122C95.2383 29.9051 94.0491 30.2157 92.8634 30.5333C91.6778 30.8509 90.4956 31.179 89.317 31.5319L87.5526 32.0577C86.9668 32.2483 86.3775 32.4106 85.7881 32.6223C86.3916 32.5023 86.9915 32.3577 87.5914 32.2271L89.3805 31.7931C90.5768 31.5037 91.7624 31.1896 92.9481 30.872C94.1338 30.5544 95.323 30.2157 96.5017 29.8628C97.6803 29.5099 98.8554 29.157 100.023 28.783Z" fill="#263238"/>
<path d="M100.631 12.2186C99.0676 13.4714 97.529 14.7523 95.9975 16.0368C94.466 17.3213 92.9521 18.6305 91.4277 19.9185C89.9032 21.2066 88.4035 22.5405 86.9072 23.8708L84.67 25.8681C83.9289 26.5421 83.1843 27.2091 82.4539 27.8937C83.2373 27.2691 84.0065 26.6304 84.7829 25.9987L87.0872 24.0755C88.6187 22.791 90.1326 21.4818 91.657 20.1938C93.1815 18.9058 94.6777 17.5719 96.174 16.2415C97.6702 14.9111 99.1629 13.5949 100.631 12.2186Z" fill="#263238"/>
<path d="M101.566 48.3468C100.345 48.1245 99.1174 47.941 97.8894 47.7646C96.6613 47.5881 95.4192 47.4117 94.2017 47.2741C92.9843 47.1364 91.7316 46.9812 90.5035 46.8647L88.6509 46.6883C88.0333 46.6424 87.4158 46.5824 86.7947 46.5471C87.4052 46.6636 88.0192 46.7553 88.6297 46.8577L90.4718 47.1329C91.6998 47.3129 92.9419 47.4681 94.1594 47.6234C95.3768 47.7787 96.6296 47.9128 97.8576 48.0328C99.0856 48.1527 100.328 48.2692 101.566 48.3468Z" fill="#263238"/>
<path d="M103.617 35.4384C102.096 35.6395 100.586 35.883 99.0721 36.1265C97.5582 36.37 96.0584 36.6487 94.5481 36.9099C93.0378 37.171 91.538 37.4674 90.0382 37.7709L87.7868 38.2297C87.0387 38.3955 86.2906 38.5473 85.5425 38.7237C86.3047 38.6284 87.0599 38.5084 87.8186 38.399L90.0841 38.0462C91.598 37.8027 93.1013 37.5274 94.6116 37.2663C96.122 37.0052 97.6217 36.7052 99.1215 36.4053C100.621 36.1053 102.121 35.7842 103.617 35.4384Z" fill="#263238"/>
<path d="M89.8848 17.9036C89.246 18.507 88.632 19.1316 88.0251 19.7633C87.4181 20.3949 86.8253 21.0407 86.236 21.6865C85.6466 22.3322 85.0679 22.9921 84.5033 23.6626L83.6599 24.6719C83.3882 25.0247 83.1094 25.3529 82.8447 25.7023C83.1694 25.4059 83.4764 25.0918 83.7905 24.7883L84.708 23.8461C85.3185 23.218 85.9078 22.5687 86.4971 21.9229C87.0864 21.2771 87.6651 20.6172 88.2262 19.9468C88.7873 19.2763 89.3696 18.6023 89.8848 17.9036Z" fill="#263238"/>
</svg>
