<svg width="154" height="104" viewBox="0 0 154 104" fill="none" xmlns="http://www.w3.org/2000/svg">
<path opacity="0.5" d="M94.5 149C146.691 149 189 125.943 189 97.5C189 69.0573 146.691 46 94.5 46C42.3091 46 0 69.0573 0 97.5C0 125.943 42.3091 149 94.5 149Z" fill="#F0F0F0"/>
<path opacity="0.5" d="M51.1302 101.444C61.373 101.444 69.6764 96.651 69.6764 90.7387C69.6764 84.8263 61.373 80.0334 51.1302 80.0334C40.8874 80.0334 32.584 84.8263 32.584 90.7387C32.584 96.651 40.8874 101.444 51.1302 101.444Z" fill="#DA62B2"/>
<path opacity="0.5" d="M116.839 101.444C127.082 101.444 135.385 96.651 135.385 90.7387C135.385 84.8263 127.082 80.0334 116.839 80.0334C106.596 80.0334 98.293 84.8263 98.293 90.7387C98.293 96.651 106.596 101.444 116.839 101.444Z" fill="#DA62B2"/>
<path opacity="0.5" d="M84.1302 98.7857C94.373 98.7857 102.676 93.9928 102.676 88.0805C102.676 82.1681 94.373 77.3752 84.1302 77.3752C73.8874 77.3752 65.584 82.1681 65.584 88.0805C65.584 93.9928 73.8874 98.7857 84.1302 98.7857Z" fill="#DA62B2"/>
<path d="M92.0716 82.2125C87.6468 79.6749 80.4719 79.6749 76.0471 82.2125C73.8267 83.4812 72.7324 85.1624 72.7324 86.8371C72.7324 87.0116 72.7324 87.7538 72.7324 87.9536C72.7641 89.603 73.868 91.2429 76.0439 92.499C80.4687 95.0556 87.6436 95.0556 92.0684 92.499C94.2539 91.2302 95.3577 89.5872 95.3831 87.9314V86.8118C95.3736 85.1465 94.2697 83.4844 92.0716 82.2125Z" fill="#37474F"/>
<path d="M76.0467 91.4619C71.6251 88.9085 71.6251 84.766 76.0467 82.2126C80.4684 79.6592 87.6464 79.675 92.0712 82.2126C96.4961 84.7501 96.4929 88.9085 92.0712 91.4619C87.6496 94.0153 80.4715 94.0184 76.0467 91.4619Z" fill="#455A64"/>
<path d="M85.3609 86.0157V44.8125H82.7472V86.0157C82.7395 86.1422 82.7714 86.2679 82.8385 86.3753C82.9056 86.4828 83.0045 86.5666 83.1215 86.6152C83.4086 86.7607 83.7259 86.8365 84.0477 86.8365C84.3695 86.8365 84.6868 86.7607 84.9739 86.6152C85.0936 86.5691 85.1955 86.4862 85.265 86.3785C85.3346 86.2707 85.3681 86.1437 85.3609 86.0157Z" fill="#37474F"/>
<path d="M95.7713 31.6396C89.3038 27.9063 78.8174 27.9063 72.3499 31.6396C69.1145 33.5079 67.5 35.9534 67.5 38.4021V39.6075C67.5 42.053 69.1145 44.5017 72.3499 46.3668C78.8174 50.1033 89.3038 50.1033 95.7713 46.3668C99.0067 44.5017 100.621 42.053 100.621 39.6075V38.4021C100.621 35.9534 99.0067 33.5079 95.7713 31.6396Z" fill="#455A64"/>
<path d="M95.7713 30.1804C89.3038 26.447 78.8174 26.447 72.3499 30.1804C69.1145 32.0486 67.5 34.4942 67.5 36.9429V38.1451C67.5 40.5938 69.1145 43.0393 72.3499 44.9076C78.8174 48.6409 89.3038 48.6409 95.7713 44.9076C99.0067 43.0393 100.621 40.5938 100.621 38.1451V36.9429C100.621 34.4942 99.0067 32.0486 95.7713 30.1804Z" fill="white"/>
<path opacity="0.4" d="M95.7713 30.1804C89.3038 26.447 78.8174 26.447 72.3499 30.1804C69.1145 32.0486 67.5 34.4942 67.5 36.9429V38.1451C67.5 40.5938 69.1145 43.0393 72.3499 44.9076C78.8174 48.6409 89.3038 48.6409 95.7713 44.9076C99.0067 43.0393 100.621 40.5938 100.621 38.1451V36.9429C100.621 34.4942 99.0067 32.0486 95.7713 30.1804Z" fill="black"/>
<path opacity="0.5" d="M84.0598 46.5063C93.2078 46.5063 100.624 42.2247 100.624 36.943C100.624 31.6613 93.2078 27.3796 84.0598 27.3796C74.9119 27.3796 67.4961 31.6613 67.4961 36.943C67.4961 42.2247 74.9119 46.5063 84.0598 46.5063Z" fill="white"/>
<path d="M81.838 35.151C79.4274 33.7586 75.5227 33.7586 73.1121 35.151V34.9005C71.8433 35.6268 71.2533 36.5911 71.3104 37.5458C71.2533 38.4974 71.8528 39.449 73.1121 40.1881C75.5227 41.5805 79.4274 41.5805 81.838 40.1881C84.2487 38.7956 84.2582 36.5403 81.838 35.151Z" fill="#E0E0E0"/>
<path d="M81.8386 34.9003C84.2493 36.2896 84.2493 38.548 81.8386 39.9373C79.428 41.3266 75.5233 41.3298 73.1127 39.9373C70.702 38.5449 70.702 36.2896 73.1127 34.9003C75.5233 33.511 79.4375 33.5079 81.8386 34.9003Z" fill="white"/>
<path d="M81.8386 34.9003C84.2493 36.2896 84.2493 38.548 81.8386 39.9373C79.428 41.3266 75.5233 41.3298 73.1127 39.9373C70.702 38.5449 70.702 36.2896 73.1127 34.9003C75.5233 33.511 79.4375 33.5079 81.8386 34.9003Z" fill="#FAFAFA"/>
<path d="M74.5426 35.9375C72.8868 36.889 72.8868 38.4433 74.5426 39.4012C76.1983 40.3591 78.8818 40.3528 80.5375 39.4012C82.1933 38.4496 82.1933 36.8954 80.5375 35.9375C78.8818 34.9795 76.1825 34.9827 74.5426 35.9375Z" fill="#E0E0E0"/>
<path d="M74.7304 36.055C73.1888 36.9463 73.1888 38.3927 74.7304 39.284C76.2719 40.1753 78.7746 40.1753 80.3193 39.284C81.864 38.3927 81.864 36.9463 80.3193 36.055C78.7746 35.1636 76.2751 35.1636 74.7304 36.055Z" fill="#EBEBEB"/>
<path opacity="0.15" d="M73.5723 38.8208C73.5723 38.9858 73.5881 39.1634 73.7435 39.1634L81.8319 39.1349C82.1682 39.1349 82.2157 38.9255 82.0571 38.4117C81.8985 37.8978 81.0263 36.3341 79.6846 36.0391L73.5723 38.8208Z" fill="black"/>
<path d="M73.5723 35.7788V38.8841C73.5725 38.9092 73.5781 38.9339 73.5885 38.9566C73.599 38.9794 73.6142 38.9997 73.6331 39.0161C73.6519 39.0326 73.6741 39.0449 73.698 39.0522C73.722 39.0595 73.7472 39.0617 73.7721 39.0586L80.9248 38.088C81.013 38.075 81.0937 38.0307 81.1519 37.9631C81.2102 37.8955 81.2421 37.8092 81.242 37.72V34.7099C81.2411 34.6829 81.2344 34.6565 81.2223 34.6325C81.2103 34.6084 81.1932 34.5872 81.1722 34.5703L77.5054 31.8329C77.4362 31.7799 77.3496 31.7547 77.2627 31.7623C77.1758 31.77 77.0949 31.8099 77.036 31.8742L73.6484 35.5758C73.6 35.6324 73.573 35.7043 73.5723 35.7788Z" fill="#263238"/>
<path d="M79.1463 32.4452C78.6315 32.1483 78.0885 31.9029 77.5255 31.7125C77.4461 31.6865 77.3609 31.6836 77.28 31.7044C77.199 31.7252 77.1257 31.7688 77.0687 31.8299L73.6367 35.5823C73.6317 35.587 73.6285 35.5933 73.6274 35.6001C73.6263 35.6069 73.6274 35.6139 73.6306 35.62C73.6339 35.6261 73.639 35.631 73.6452 35.6339C73.6515 35.6368 73.6585 35.6376 73.6653 35.6362L81.1193 34.6275C81.2462 34.6275 81.2462 34.6973 81.2462 34.6973C81.2456 34.6395 81.2337 34.5824 81.2113 34.5292C80.7596 33.6344 80.037 32.9051 79.1463 32.4452Z" fill="#455A64"/>
<g opacity="0.7">
<path d="M73.766 39.0556L80.7442 38.104V37.2381C80.7452 37.1952 80.7368 37.1525 80.7194 37.1132C80.7021 37.0739 80.6763 37.0389 80.6439 37.0108C80.6115 36.9826 80.5732 36.9619 80.5319 36.9502C80.4906 36.9385 80.4472 36.9361 80.4048 36.9431L73.5725 37.863V38.8812C73.5712 38.9061 73.5756 38.9309 73.5851 38.954C73.5947 38.977 73.6093 38.9976 73.6278 39.0143C73.6463 39.031 73.6683 39.0434 73.6922 39.0505C73.7161 39.0577 73.7413 39.0594 73.766 39.0556Z" fill="white"/>
<path d="M80.4046 36.4705C80.4977 36.4563 80.5828 36.4097 80.6449 36.3389C80.707 36.2681 80.7421 36.1777 80.744 36.0835V35.557C80.745 35.514 80.7366 35.4714 80.7192 35.4321C80.7019 35.3928 80.6761 35.3578 80.6437 35.3296C80.6113 35.3014 80.573 35.2808 80.5317 35.2691C80.4904 35.2574 80.447 35.255 80.4046 35.262L73.5723 36.1818V37.3967L80.4046 36.4705Z" fill="white"/>
</g>
<path opacity="0.2" d="M77.9534 34.5387C78.796 34.5387 79.4791 34.1439 79.4791 33.6569C79.4791 33.1699 78.796 32.7751 77.9534 32.7751C77.1108 32.7751 76.4277 33.1699 76.4277 33.6569C76.4277 34.1439 77.1108 34.5387 77.9534 34.5387Z" fill="black"/>
<path d="M78.3262 32.1313C78.6238 32.2351 78.8985 32.3956 79.135 32.604C79.2705 32.7288 79.3626 32.8937 79.398 33.0745C79.4334 33.2553 79.4101 33.4427 79.3317 33.6095C79.2577 33.7541 79.1456 33.8757 79.0075 33.9612C78.8695 34.0468 78.7106 34.0929 78.5482 34.0948C78.6076 33.7797 78.6012 33.4557 78.5292 33.1432C78.4086 32.6642 78.3262 32.1313 78.3262 32.1313Z" fill="white"/>
<path opacity="0.2" d="M78.3262 32.1313C78.6238 32.2351 78.8985 32.3956 79.135 32.604C79.2705 32.7288 79.3626 32.8937 79.398 33.0745C79.4334 33.2553 79.4101 33.4427 79.3317 33.6095C79.2577 33.7541 79.1456 33.8757 79.0075 33.9612C78.8695 34.0468 78.7106 34.0929 78.5482 34.0948C78.6076 33.7797 78.6012 33.4557 78.5292 33.1432C78.4086 32.6642 78.3262 32.1313 78.3262 32.1313Z" fill="black"/>
<path d="M77.7145 32.106C77.6003 32.2677 77.1974 32.3597 76.9278 32.5342C76.7085 32.6403 76.5382 32.8264 76.452 33.0544C76.4062 33.1874 76.4095 33.3325 76.4613 33.4634C76.513 33.5943 76.6099 33.7023 76.7343 33.768C77.0515 33.9108 77.6479 33.4223 77.7145 33.2447C77.7466 32.8658 77.7466 32.4848 77.7145 32.106Z" fill="#9A4A4D"/>
<path d="M77.7145 32.106C77.6003 32.2677 77.1974 32.3597 76.9278 32.5342C76.7085 32.6403 76.5382 32.8264 76.452 33.0544C76.4062 33.1874 76.4095 33.3325 76.4613 33.4634C76.513 33.5943 76.6099 33.7023 76.7343 33.768C77.0515 33.9108 77.6479 33.4223 77.7145 33.2447C77.7466 32.8658 77.7466 32.4848 77.7145 32.106Z" fill="white"/>
<path opacity="0.3" d="M77.7145 32.106C77.6003 32.2677 77.1974 32.3597 76.9278 32.5342C76.7085 32.6403 76.5382 32.8264 76.452 33.0544C76.4062 33.1874 76.4095 33.3325 76.4613 33.4634C76.513 33.5943 76.6099 33.7023 76.7343 33.768C77.0515 33.9108 77.6479 33.4223 77.7145 33.2447C77.7466 32.8658 77.7466 32.4848 77.7145 32.106Z" fill="black"/>
<path d="M77.8919 31.8079C77.8172 31.8684 77.7592 31.9472 77.7237 32.0367C77.6881 32.1261 77.6762 32.2232 77.6889 32.3185C77.7067 32.5082 77.6646 32.6987 77.5684 32.8631C77.4722 33.0276 77.3269 33.1577 77.1529 33.2352C76.6676 33.4953 76.6105 33.7522 76.8674 33.9775C77.0349 34.1104 77.248 34.172 77.4605 34.1487C77.4605 34.1487 78.1774 33.9838 78.3265 33.4446C78.4756 32.9053 78.1933 32.0458 77.8919 31.8079Z" fill="white"/>
<path opacity="0.2" d="M77.8919 31.8079C77.8172 31.8684 77.7592 31.9472 77.7237 32.0367C77.6881 32.1261 77.6762 32.2232 77.6889 32.3185C77.7067 32.5082 77.6646 32.6987 77.5684 32.8631C77.4722 33.0276 77.3269 33.1577 77.1529 33.2352C76.6676 33.4953 76.6105 33.7522 76.8674 33.9775C77.0349 34.1104 77.248 34.172 77.4605 34.1487C77.4605 34.1487 78.1774 33.9838 78.3265 33.4446C78.4756 32.9053 78.1933 32.0458 77.8919 31.8079Z" fill="black"/>
<path d="M77.9521 34.304C77.4858 34.304 77.2955 34.101 77.5144 33.8346C77.6222 33.7014 77.8157 33.6475 77.9394 33.5174C78.0781 33.3807 78.1655 33.2003 78.1868 33.0067C78.228 32.5278 77.6508 32.033 77.987 31.6143C78.025 31.8426 78.1202 31.9727 78.4564 32.2486C78.6695 32.4222 78.8236 32.6575 78.8975 32.9222C78.9713 33.1869 78.9613 33.468 78.8688 33.7268C78.7785 33.8937 78.6467 34.0345 78.4861 34.1356C78.3255 34.2367 78.1416 34.2947 77.9521 34.304Z" fill="white"/>
<path opacity="0.1" d="M77.9521 34.304C77.4858 34.304 77.2955 34.101 77.5144 33.8346C77.6222 33.7014 77.8157 33.6475 77.9394 33.5174C78.0781 33.3807 78.1655 33.2003 78.1868 33.0067C78.228 32.5278 77.6508 32.033 77.987 31.6143C78.025 31.8426 78.1202 31.9727 78.4564 32.2486C78.6695 32.4222 78.8236 32.6575 78.8975 32.9222C78.9713 33.1869 78.9613 33.468 78.8688 33.7268C78.7785 33.8937 78.6467 34.0345 78.4861 34.1356C78.3255 34.2367 78.1416 34.2947 77.9521 34.304Z" fill="black"/>
<path opacity="0.2" d="M78.9244 33.825C78.9776 33.6523 78.9864 33.469 78.9498 33.2921C78.9135 33.4649 78.8266 33.623 78.7 33.7462C78.5734 33.8694 78.413 33.952 78.2393 33.9836C78.0853 34.0305 77.9239 34.0478 77.7635 34.0343C77.5795 34.0343 77.4748 33.9487 77.4844 33.8789L77.5066 33.844L77.5383 33.8091L77.5541 33.7933L77.5954 33.7616H77.6144L77.7 33.7076L77.8364 33.6188L77.8586 33.5998C77.8717 33.5909 77.8835 33.5803 77.8935 33.5681L77.9221 33.5363C77.9378 33.5192 77.9526 33.5012 77.9665 33.4824L77.9887 33.457C78.001 33.4436 78.0117 33.4287 78.0204 33.4126C78.0331 33.3954 78.0448 33.3774 78.0553 33.3587C78.0816 33.3136 78.1029 33.2657 78.1187 33.216C78.1206 33.2066 78.1206 33.1969 78.1187 33.1874C78.0059 33.408 77.813 33.5771 77.5795 33.66C77.3801 33.7474 77.1588 33.7717 76.9451 33.7298C76.7453 33.7013 76.739 33.5903 76.739 33.5776C76.8386 33.4581 76.9631 33.3618 77.1037 33.2953C77.1818 33.2549 77.2552 33.2059 77.3226 33.1494C77.2396 33.2021 77.15 33.2437 77.0561 33.2731C76.904 33.3181 76.7448 33.3343 76.5867 33.3207C76.4091 33.2826 76.3805 33.1969 76.4091 33.0732C76.4099 33.087 76.4099 33.1007 76.4091 33.1145C76.3633 33.2476 76.3665 33.3926 76.4183 33.5235C76.4701 33.6544 76.5669 33.7624 76.6914 33.8282C76.7167 33.9107 76.7665 33.9837 76.8341 34.0375C77.0016 34.1705 77.2147 34.232 77.4273 34.2088C77.4926 34.2695 77.5706 34.3149 77.6556 34.3417C77.7406 34.3686 77.8306 34.3763 77.9189 34.3642C78.1331 34.3504 78.3394 34.278 78.5152 34.1549C78.6894 34.1548 78.8597 34.1037 79.0052 34.0078C79.1506 33.912 79.2648 33.7757 79.3336 33.6156C79.3985 33.485 79.427 33.3393 79.416 33.1938C79.4101 33.3371 79.3595 33.475 79.2714 33.5882C79.1832 33.7013 79.0619 33.7841 78.9244 33.825Z" fill="black"/>
<path d="M117.804 97.631V56.8623H116.466V97.631C116.461 97.6975 116.477 97.7639 116.511 97.8209C116.546 97.8778 116.598 97.9223 116.659 97.9482C116.806 98.0238 116.97 98.0633 117.135 98.0633C117.301 98.0633 117.464 98.0238 117.611 97.9482C117.672 97.9223 117.724 97.8778 117.759 97.8209C117.794 97.7639 117.81 97.6975 117.804 97.631Z" fill="#37474F"/>
<path d="M127.321 93.0509V53.9729H125.98V93.0509C125.974 93.1171 125.99 93.1832 126.024 93.2401C126.058 93.297 126.109 93.3418 126.17 93.3681C126.318 93.4416 126.481 93.4798 126.646 93.4798C126.811 93.4798 126.974 93.4416 127.121 93.3681C127.184 93.3433 127.237 93.2992 127.273 93.2422C127.309 93.1852 127.326 93.1182 127.321 93.0509Z" fill="#37474F"/>
<path d="M106.897 93.0509V53.9729H108.239V93.0509C108.244 93.1171 108.229 93.1832 108.195 93.2401C108.161 93.297 108.11 93.3418 108.049 93.3681C107.901 93.4416 107.738 93.4798 107.573 93.4798C107.408 93.4798 107.245 93.4416 107.097 93.3681C107.034 93.3433 106.981 93.2992 106.945 93.2422C106.909 93.1852 106.893 93.1182 106.897 93.0509Z" fill="#37474F"/>
<path d="M125.977 44.8155C121.168 42.04 113.375 42.04 108.566 44.8155C106.162 46.2016 104.963 48.0223 104.963 49.8398V52.0601C104.963 53.8808 106.162 55.6983 108.566 57.0876C113.375 59.863 121.168 59.863 125.977 57.0876C128.381 55.6983 129.58 53.8808 129.58 52.0601V49.8398C129.58 48.0223 128.381 46.2016 125.977 44.8155Z" fill="#455A64"/>
<path d="M125.977 43.7307C121.168 40.9553 113.375 40.9553 108.566 43.7307C106.162 45.1169 104.963 46.9375 104.963 48.7551V50.9754C104.963 52.7961 106.162 54.6136 108.566 56.0029C113.375 58.7783 121.168 58.7783 125.977 56.0029C128.381 54.6136 129.58 52.7961 129.58 50.9754V48.7551C129.58 46.9375 128.381 45.1169 125.977 43.7307Z" fill="#FFCDEE"/>
<path opacity="0.4" d="M125.977 43.7307C121.168 40.9553 113.375 40.9553 108.566 43.7307C106.162 45.1169 104.963 46.9375 104.963 48.7551V50.9754C104.963 52.7961 106.162 54.6136 108.566 56.0029C113.375 58.7783 121.168 58.7783 125.977 56.0029C128.381 54.6136 129.58 52.7961 129.58 50.9754V48.7551C129.58 46.9375 128.381 45.1169 125.977 43.7307Z" fill="black"/>
<path opacity="0.5" d="M117.269 55.8633C124.068 55.8633 129.579 52.6808 129.579 48.755C129.579 44.8292 124.068 41.6467 117.269 41.6467C110.47 41.6467 104.959 44.8292 104.959 48.755C104.959 52.6808 110.47 55.8633 117.269 55.8633Z" fill="#FFCDEE"/>
<path d="M117.139 89.0098C114.18 89.0098 111.224 88.3596 108.972 87.0591C106.729 85.7649 105.482 84.0267 105.482 82.1616C105.482 80.2966 106.719 78.5552 108.972 77.261C113.476 74.6601 120.803 74.6601 125.31 77.261C127.549 78.5552 128.799 80.2966 128.799 82.1616C128.799 84.0267 127.562 85.7649 125.31 87.0591C123.058 88.3532 120.099 89.0098 117.139 89.0098ZM109.289 86.5103C113.618 89.0098 120.663 89.0098 124.993 86.5103C127.029 85.3336 128.165 83.7888 128.165 82.1616C128.165 80.5344 127.042 78.9897 124.993 77.8098C120.663 75.3103 113.618 75.3103 109.289 77.8098C107.249 78.9865 106.117 80.5313 106.117 82.1616C106.117 83.792 107.24 85.3336 109.289 86.5103Z" fill="#37474F"/>
<path d="M118.367 42.5285C118.125 42.5285 117.862 42.4143 117.84 42.1669C116.822 30.7702 119.445 20.4583 120.46 18.1714C120.525 18.0563 120.631 17.9696 120.756 17.928C120.881 17.8864 121.018 17.8929 121.139 17.9462C121.197 17.9716 121.249 18.0082 121.292 18.054C121.336 18.0998 121.37 18.1538 121.392 18.2128C121.415 18.2719 121.425 18.3348 121.423 18.3979C121.421 18.4611 121.406 18.5232 121.38 18.5806C120.241 21.1403 117.891 31.56 118.842 42.1511C118.842 42.3573 118.671 42.5095 118.411 42.5349L118.367 42.5285Z" fill="#455A64"/>
<path d="M133.364 28.2231L120.537 20.8167L120.014 21.1338C119.352 23.7177 118.86 26.3423 118.542 28.9907C118.533 29.053 118.544 29.1164 118.571 29.1729C118.599 29.2294 118.643 29.2764 118.697 29.3079L130.399 36.0641L130.922 35.7469C131.604 32.8699 133.364 28.2231 133.364 28.2231Z" fill="#FFCDEE"/>
<path opacity="0.4" d="M133.364 28.2231L120.537 20.8167L120.014 21.1338C119.352 23.7177 118.86 26.3423 118.542 28.9907C118.533 29.053 118.544 29.1164 118.571 29.1729C118.599 29.2294 118.643 29.2764 118.697 29.3079L130.399 36.0641L130.922 35.7469C131.604 32.8699 133.364 28.2231 133.364 28.2231Z" fill="black"/>
<path opacity="0.5" d="M120.021 21.1212L120.545 20.8167L133.363 28.2167L132.842 28.5212L120.021 21.1212Z" fill="#FFCDEE"/>
<path d="M128.675 48.7011C128.412 48.7011 128.199 48.6059 128.199 48.4283C128.199 38.4146 132.177 28.6863 133.395 25.9458C133.419 25.8874 133.455 25.8345 133.501 25.7902C133.546 25.7459 133.599 25.711 133.658 25.6877C133.717 25.6644 133.78 25.6531 133.843 25.6544C133.907 25.6557 133.969 25.6697 134.027 25.6954C134.085 25.7212 134.137 25.7582 134.18 25.8044C134.224 25.8506 134.257 25.9049 134.279 25.9643C134.301 26.0236 134.311 26.0868 134.309 26.1501C134.306 26.2133 134.291 26.2754 134.264 26.3327C133.065 29.032 129.141 38.6017 129.151 48.4283C129.151 48.5235 128.938 48.7011 128.675 48.7011Z" fill="#455A64"/>
<path d="M131.883 20.839C131.633 20.6106 131.331 20.4393 131.084 20.2046C130.733 19.8673 130.509 19.4191 130.45 18.9358C130.386 18.3997 130.526 17.8605 130.491 17.3245C130.462 16.9745 130.359 16.6348 130.188 16.3275C130.018 16.0202 129.785 15.7525 129.504 15.5419C128.886 15.0756 128.109 15.0407 127.455 14.6537C127.049 14.4232 126.723 14.0732 126.523 13.6514C126.325 13.1031 126.273 12.5131 126.37 11.9386C126.511 10.7149 126.493 9.47814 126.317 8.25913C126.065 6.85385 125.446 5.54038 124.521 4.45283C123.759 3.52162 122.786 2.78454 121.683 2.30208C120.58 1.81962 119.379 1.60554 118.177 1.6774L117.521 1.72498C116.449 1.79797 115.405 2.10087 114.46 2.61311L114.117 2.80977C114.097 2.82534 114.076 2.83913 114.054 2.85101C113.933 2.92396 113.816 3.00326 113.699 3.08573C113.581 3.1682 113.467 3.25701 113.353 3.349C112.056 4.39256 111.529 5.80724 111.133 7.47249C110.394 10.1496 110.01 14.0574 111.313 17.4767C112.122 19.5987 113.686 21.3687 115.278 22.6723C119.338 26.0092 126.561 27.7474 130.849 25.0671C132.359 24.1187 133.406 22.2219 131.883 20.839Z" fill="#455A64"/>
<path d="M116.096 1.96924C112.562 2.17541 109.413 3.14919 108.553 5.62963C107.693 8.11007 109.841 11.3391 111.129 11.3391C112.959 11.3359 116.096 1.96924 116.096 1.96924Z" fill="#455A64"/>
<path d="M112.606 87.1511L112.216 87.0877C112.216 85.857 112.311 84.7341 112.02 84.1505L112.606 82.6533V87.1511Z" fill="#263238"/>
<path d="M113.67 81.5781C113.566 82.4187 113.071 83.2719 113.001 84.9308C112.948 85.6372 112.948 86.3465 113.001 87.0529L112.592 87.1512V82.6534L113.67 81.5781Z" fill="#263238"/>
<path d="M103.996 88.0869C104.017 88.3145 104.106 88.5302 104.253 88.7055C104.462 88.8704 105.125 89.4287 107.292 89.3398C109.458 89.251 110.223 88.7372 110.977 88.0711C111.732 87.405 111.961 85.6446 112.088 84.8103C112.335 83.199 113.039 82.3648 113.674 81.5623C113.783 81.2963 113.812 81.0039 113.756 80.7218C113.756 80.7218 111.97 80.5854 111.155 82.5519C110.34 84.5185 109.687 86.8023 107.926 87.3098C106.637 87.6637 105.323 87.9235 103.996 88.0869Z" fill="#37474F"/>
<path d="M105.131 86.2249C104.459 86.7831 103.954 87.0274 103.999 87.5571C104.043 88.0868 104.601 88.3374 105.049 88.4833C106.102 88.8227 107.31 88.7148 108.376 88.5467C109.442 88.3786 110.641 87.9123 111.117 86.8973C111.242 86.5999 111.334 86.2892 111.389 85.9711C111.558 84.9164 111.852 83.8856 112.265 82.9007C112.432 82.4872 112.639 82.091 112.883 81.7176C113.172 81.3211 113.518 80.8897 113.581 80.3854C113.632 79.9667 113.321 79.3672 112.912 78.7201C112.448 77.9939 112.233 77.1367 112.3 76.2777L112.617 72.4714L107.786 73.5213L108.42 77.7971C108.585 78.9168 108.16 80.0967 107.897 81.1688C107.603 82.363 107.167 83.5174 106.597 84.6072C106.462 84.8878 106.289 85.1483 106.083 85.3811C105.786 85.6844 105.468 85.9664 105.131 86.2249Z" fill="#FFA8A7"/>
<path d="M113.501 79.5132C113.237 79.0945 112.917 78.7742 112.698 78.3428C112.483 78.6112 112.308 78.9093 112.178 79.2277C111.61 80.2998 111.471 81.9968 110.909 83.6684C110.491 84.9372 109.818 85.5716 108.905 85.911C108.332 86.1141 107.719 86.1708 107.119 86.0759C105.999 85.8983 106.278 85.0958 106.278 85.0958C106.012 85.4479 104.787 86.3645 104.112 86.815C103.684 87.1004 103.734 87.7221 103.998 88.0837C104.315 88.3597 105.358 89.0353 108.051 88.7023C110.443 88.4041 111.023 87.3161 111.258 86.8245C111.51 86.1036 111.692 85.36 111.801 84.6041C111.95 83.7714 112.25 82.9728 112.686 82.2474C112.735 82.1621 112.789 82.0796 112.847 82C113.012 81.7653 113.206 81.5083 113.425 81.2546C113.596 81.0548 113.742 80.9628 113.783 80.7725C113.821 80.5543 113.816 80.3307 113.768 80.1146C113.719 79.8985 113.629 79.6941 113.501 79.5132Z" fill="#FFCDEE"/>
<path opacity="0.4" d="M113.501 79.5132C113.237 79.0945 112.917 78.7742 112.698 78.3428C112.483 78.6112 112.308 78.9093 112.178 79.2277C111.61 80.2998 111.471 81.9968 110.909 83.6684C110.491 84.9372 109.818 85.5716 108.905 85.911C108.332 86.1141 107.719 86.1708 107.119 86.0759C105.999 85.8983 106.278 85.0958 106.278 85.0958C106.012 85.4479 104.787 86.3645 104.112 86.815C103.684 87.1004 103.734 87.7221 103.998 88.0837C104.315 88.3597 105.358 89.0353 108.051 88.7023C110.443 88.4041 111.023 87.3161 111.258 86.8245C111.51 86.1036 111.692 85.36 111.801 84.6041C111.95 83.7714 112.25 82.9728 112.686 82.2474C112.735 82.1621 112.789 82.0796 112.847 82C113.012 81.7653 113.206 81.5083 113.425 81.2546C113.596 81.0548 113.742 80.9628 113.783 80.7725C113.821 80.5543 113.816 80.3307 113.768 80.1146C113.719 79.8985 113.629 79.6941 113.501 79.5132Z" fill="black"/>
<path d="M105.381 81.9016L104.987 81.8477C104.952 80.6201 105.013 79.4941 104.705 78.92L105.247 77.407L105.381 81.9016Z" fill="#263238"/>
<path d="M106.295 76.3C106.215 77.1406 105.743 78.0097 105.724 79.6718C105.691 80.3786 105.711 81.0868 105.784 81.7906L105.381 81.9017L105.248 77.407L106.295 76.3Z" fill="#263238"/>
<path d="M96.8145 83.0975C96.8416 83.325 96.938 83.5387 97.0904 83.7097C97.3029 83.8683 97.9817 84.3821 100.142 84.2362C102.302 84.0903 103.06 83.5765 103.793 82.8945C104.525 82.2125 104.706 80.4426 104.808 79.6052C105.008 77.9875 105.674 77.1311 106.295 76.3128C106.398 76.0447 106.418 75.7518 106.352 75.4722C106.352 75.4722 104.563 75.3866 103.815 77.3754C103.066 79.3642 102.47 81.667 100.725 82.2316C99.4446 82.6152 98.1375 82.9047 96.8145 83.0975Z" fill="#37474F"/>
<path d="M97.8954 81.1942C97.2388 81.7715 96.7408 82.0284 96.8043 82.555C96.8677 83.0815 97.4387 83.3194 97.8764 83.4494C98.9422 83.7666 100.144 83.6175 101.204 83.4209C102.263 83.2242 103.453 82.7104 103.897 81.6922C104.015 81.391 104.097 81.0769 104.141 80.7565C104.28 79.6979 104.545 78.6597 104.931 77.6639C105.084 77.245 105.279 76.8423 105.511 76.4617C105.79 76.0557 106.127 75.6148 106.171 75.1105C106.212 74.6886 105.882 74.0986 105.457 73.4674V73.4516C104.972 72.741 104.732 71.8909 104.775 71.0314L104.972 67.2029L100.176 68.3924L100.931 72.6459C101.131 73.7624 100.737 74.955 100.506 76.0335C100.248 77.2411 99.8447 78.4127 99.3038 79.5226C99.1787 79.8065 99.0143 80.0713 98.8153 80.3092C98.5298 80.6254 98.2224 80.9211 97.8954 81.1942Z" fill="#FFA8A7"/>
<path d="M106.066 74.2383C105.768 73.8715 105.489 73.4893 105.232 73.0933C105.023 73.3665 104.857 73.669 104.737 73.9909C104.201 75.0757 104.102 76.779 103.601 78.4728C103.221 79.7416 102.567 80.4204 101.666 80.7725C101.1 80.9925 100.487 81.0666 99.8838 80.9882C98.7578 80.8423 99.0115 80.0366 99.0115 80.0366C98.7546 80.3982 97.5619 81.3529 96.899 81.8192C96.4771 82.1142 96.5438 82.7359 96.8197 83.088C97.1369 83.3544 98.209 84.0015 100.889 83.5891C103.271 83.2244 103.82 82.1174 104.042 81.6194C104.273 80.889 104.432 80.138 104.518 79.3768C104.643 78.5409 104.919 77.7347 105.333 76.9979C105.387 76.9059 105.438 76.8203 105.489 76.7441C105.647 76.5062 105.834 76.243 106.047 75.9829C106.212 75.7799 106.342 75.6847 106.389 75.4912C106.421 75.2714 106.408 75.0475 106.352 74.8325C106.297 74.6175 106.2 74.4156 106.066 74.2383Z" fill="#FFCDEE"/>
<path opacity="0.4" d="M106.066 74.2383C105.768 73.8715 105.489 73.4893 105.232 73.0933C105.023 73.3665 104.857 73.669 104.737 73.9909C104.201 75.0757 104.102 76.779 103.601 78.4728C103.221 79.7416 102.567 80.4204 101.666 80.7725C101.1 80.9925 100.487 81.0666 99.8838 80.9882C98.7578 80.8423 99.0115 80.0366 99.0115 80.0366C98.7546 80.3982 97.5619 81.3529 96.899 81.8192C96.4771 82.1142 96.5438 82.7359 96.8197 83.088C97.1369 83.3544 98.209 84.0015 100.889 83.5891C103.271 83.2244 103.82 82.1174 104.042 81.6194C104.273 80.889 104.432 80.138 104.518 79.3768C104.643 78.5409 104.919 77.7347 105.333 76.9979C105.387 76.9059 105.438 76.8203 105.489 76.7441C105.647 76.5062 105.834 76.243 106.047 75.9829C106.212 75.7799 106.342 75.6847 106.389 75.4912C106.421 75.2714 106.408 75.0475 106.352 74.8325C106.297 74.6175 106.2 74.4156 106.066 74.2383Z" fill="black"/>
<path d="M126.317 41.2916C125.991 39.9492 125.492 38.6549 124.832 37.4409C120.236 39.6264 115.618 39.5629 110.987 38.0753C111.152 38.5796 109.889 39.7596 106.546 42.0719C104.123 43.7435 100.342 46.1351 98.4894 47.6069C97.5379 48.3523 96.5704 49.3134 96.9923 52.0095C97.5632 55.6604 100.164 68.4496 100.164 68.4496C103.311 69.5693 104.922 67.7105 104.922 67.7105C104.922 67.7105 105.417 62.8385 105.817 58.9148C106.216 54.9911 105.1 52.8152 105.1 52.8152C105.1 52.8152 114.238 49.545 117.806 48.8091C123.782 47.572 127.103 46.8203 126.317 41.2916Z" fill="#37474F"/>
<path d="M110.65 41.4946C110.65 41.4946 112.046 44.6063 113.889 45.3707L107.424 52.0127L105.115 52.8215L107.25 51.5116L112.208 45.4088C112.208 45.4088 110.631 43.6388 110.65 41.4946Z" fill="#263238"/>
<path d="M104.554 58.5595C104.797 59.8119 105.109 61.0498 105.49 62.2675C105.604 61.1605 105.721 60.0028 105.832 58.918C105.954 57.7874 105.947 56.6468 105.813 55.5177L105.207 54.8484C104.51 55.7682 104.11 56.317 104.554 58.5595Z" fill="#263238"/>
<path d="M126.329 41.3678C126.331 41.3424 126.331 41.317 126.329 41.2916C126.003 39.9492 125.504 38.6549 124.845 37.4409C120.249 39.6264 115.631 39.5629 111 38.0753C110.93 38.6177 111.066 39.6613 111.317 40.8444C111.973 44.2796 113.877 45.3707 113.877 45.3707C111.107 48.089 107.346 51.9302 105.63 54.0396C105.157 54.6264 104.7 55.8349 104.976 57.5287C105.576 61.1764 107.897 74.5365 107.897 74.5365C111.054 75.3834 112.427 74.159 112.427 74.159C112.427 74.159 113.16 68.9254 113.559 65.0017C113.775 62.5472 113.387 60.0772 112.427 57.8078C112.427 57.8078 117.911 54.9245 121.22 52.8089C126.406 49.5006 127.465 45.8624 126.329 41.3678Z" fill="#37474F"/>
<path d="M114.26 19.1166C111.633 19.0342 110.498 19.9921 108.845 23.2401C107.557 25.7777 106.279 28.4611 105.217 30.3103C102.657 30.1169 97.826 29.4508 96.0402 28.7624C95.7069 28.6338 95.431 28.3894 95.2631 28.0741C94.8769 27.3616 94.3529 26.733 93.7215 26.2249C93.2045 25.765 93.0871 25.1655 92.8302 25.1782C92.5733 25.1909 92.2719 25.5969 92.4083 26.1805C92.601 26.6306 92.8335 27.0627 93.103 27.4715C92.6843 27.5571 91.2315 26.9132 90.3212 25.9109C89.1127 24.5787 87.9518 25.2258 88.1009 27.4493C88.1484 28.2454 89.284 30.2659 92.3322 31.7187C93.4887 32.2226 94.6829 32.6351 95.9038 32.9526C99.0757 33.8819 102.219 34.9255 104.509 35.157C106.285 35.3378 107.262 35.4742 108.55 34.0469C112.29 29.8409 113.73 26.0029 115.357 23.2623L114.26 19.1166Z" fill="#FFA8A7"/>
<path d="M114.652 19.088C113.114 18.9897 112.023 19.1863 111.112 19.8588C110.202 20.5312 109.843 21.1751 108.927 22.796C108.01 24.4168 105.159 30.2151 105.159 30.2151L101.717 29.8979C101.889 30.6805 101.889 31.4911 101.717 32.2737C101.605 33.0467 101.291 33.7765 100.807 34.3893C100.807 34.3893 103.002 35.0237 104.477 35.2458C106.557 35.563 107.29 35.7025 108.537 34.2244C109.783 32.7463 114.379 26.9544 114.379 26.9544L114.652 19.088Z" fill="#37474F"/>
<path d="M124.49 36.3465C124.217 35.912 123.881 35.1349 123.998 34.5766C124.176 33.7551 124.632 31.3254 124.632 31.3254L123.776 27.7094C123.604 27.1257 123.47 26.5312 123.376 25.93C122.942 24.3662 122.555 21.5876 123.548 20.0619L121.686 19.6496C119.927 19.235 118.122 19.0537 116.316 19.1103L114.647 19.0881C114.647 19.0881 110.796 23.4241 109.988 25.3685C109.525 26.4882 108.925 28.5119 111.038 30.8972C111.095 32.2516 110.863 34.4719 110.819 35.5504C110.774 36.6288 110.676 37.9484 110.54 38.9443C111.174 40.34 113.461 42.646 118.425 42.4874C123.57 42.3224 126.038 39.7532 126.038 39.7532C125.687 38.5496 125.166 37.4024 124.49 36.3465Z" fill="#FFCDEE"/>
<path opacity="0.1" d="M115.25 30.6719C115.25 30.6719 116.57 32.1912 119.253 31.6234C121.936 31.0557 122.387 29.0098 122.387 29.0098C122.387 29.0098 122.65 31.6234 119.443 32.28C116.236 32.9366 115.25 30.6719 115.25 30.6719Z" fill="black"/>
<path d="M131.067 35.2015C130.579 32.9589 129.567 29.105 128.549 25.1084C127.448 20.7883 126.43 20.7502 123.791 20.2617C121.805 22.6946 123.791 28.3787 123.791 28.3787L126.059 36.2292C124.625 38.7667 123.442 41.4216 121.78 43.4231C121.495 43.7688 120.981 43.7403 120.533 43.8037C119.338 43.9306 118.89 44.1843 117.847 44.5713C117.032 44.8726 116.502 44.7902 116.486 45.0058C116.467 45.2818 116.67 45.8432 117.438 45.9574C117.907 46.0024 118.38 45.981 118.843 45.894C118.12 46.5053 117.315 47.0124 116.451 47.4006C114.399 48.3522 113.73 50.0841 116.569 50.6138C118.281 50.931 120.191 50.5345 122.827 48.0223C123.956 46.9521 124.994 45.7892 125.929 44.5459C128.26 41.3011 131.372 37.0634 131.067 35.2015Z" fill="#FFA8A7"/>
<path d="M123.554 20.0618C124.988 20.3346 126.152 20.5724 126.742 21.0133C127.332 21.4542 127.694 21.7809 128.201 23.2337C128.709 24.6864 130.923 33.6154 131.088 34.3925C131.253 35.1696 131.51 35.8579 130.748 37.3678C129.987 38.8776 127.802 41.9004 127.802 41.9004C127.802 41.9004 126.701 40.2923 124.167 39.6959L125.714 36.2544L122.86 26.8592C122.86 26.8592 121.489 22.4788 123.554 20.0618Z" fill="#37474F"/>
<path d="M124.077 1.5791L123.557 3.57424C123.686 3.61473 123.822 3.62859 123.957 3.61498C124.092 3.60137 124.222 3.56057 124.341 3.49505C124.46 3.42953 124.564 3.34065 124.647 3.23377C124.73 3.1269 124.791 3.00425 124.825 2.87324C124.89 2.60269 124.849 2.31749 124.71 2.07663C124.57 1.83576 124.344 1.65764 124.077 1.5791Z" fill="#455A64"/>
<path d="M125.79 3.39355L123.729 3.46968C123.727 3.60494 123.752 3.73916 123.804 3.8642C123.856 3.98925 123.932 4.1025 124.029 4.19711C124.126 4.29172 124.24 4.36572 124.367 4.41461C124.493 4.46349 124.627 4.48626 124.763 4.48152C125.041 4.46763 125.304 4.3467 125.495 4.14398C125.687 3.94126 125.792 3.67241 125.79 3.39355Z" fill="#455A64"/>
<path d="M113.212 5.18872C112.362 5.69306 111.309 7.83093 111.413 12.3128C111.502 16.1191 112.733 17.0517 113.352 17.3213C113.97 17.5909 115.163 17.426 116.32 17.2357V19.5131C116.32 19.5131 115.258 20.4425 115.369 21.4892C115.48 22.5359 117.684 22.7802 119.175 21.7588C120.666 20.7375 121.101 19.8176 121.101 19.8176V14.2065C121.101 14.2065 121.735 14.8789 122.858 14.1113C123.101 13.9569 123.31 13.7535 123.47 13.5141C123.63 13.2746 123.739 13.0044 123.789 12.7206C123.839 12.4368 123.83 12.1456 123.761 11.8657C123.693 11.5858 123.566 11.3233 123.391 11.0948C122.905 10.5207 121.662 10.4795 121.066 11.3708C121.066 11.3708 119.324 11.4501 116.863 10.102C114.401 8.75396 113.558 6.39405 113.212 5.18872Z" fill="#FFA8A7"/>
<path d="M116.096 11.3581C116.095 11.4513 116.122 11.5425 116.173 11.6205C116.224 11.6985 116.296 11.7599 116.382 11.797C116.467 11.8341 116.562 11.8453 116.653 11.8293C116.745 11.8133 116.83 11.7707 116.898 11.7068C116.966 11.6429 117.013 11.5605 117.035 11.4699C117.056 11.3792 117.05 11.2843 117.018 11.1969C116.986 11.1094 116.929 11.0333 116.854 10.978C116.779 10.9226 116.69 10.8905 116.597 10.8855C116.533 10.8834 116.469 10.894 116.409 10.9166C116.349 10.9393 116.294 10.9736 116.248 11.0175C116.201 11.0614 116.164 11.1141 116.138 11.1726C116.112 11.2311 116.097 11.2941 116.096 11.3581Z" fill="#263238"/>
<path d="M115.78 14.3904L114.406 14.8281C114.431 14.9202 114.474 15.0063 114.533 15.0813C114.592 15.1563 114.665 15.2187 114.749 15.2646C114.832 15.3105 114.924 15.3391 115.019 15.3486C115.114 15.358 115.21 15.3482 115.301 15.3198C115.486 15.2573 115.639 15.1254 115.728 14.952C115.818 14.7785 115.836 14.5772 115.78 14.3904Z" fill="#F28F8F"/>
<path d="M111.951 9.67709L113.089 9.37893C113.073 9.30401 113.042 9.23311 112.998 9.17055C112.954 9.10799 112.898 9.05507 112.832 9.01502C112.767 8.97496 112.694 8.94861 112.619 8.93755C112.543 8.9265 112.466 8.93098 112.392 8.95072C112.241 8.99581 112.113 9.09503 112.032 9.22918C111.95 9.36334 111.921 9.52292 111.951 9.67709Z" fill="#263238"/>
<path d="M116.471 9.40437L117.527 9.92139C117.564 9.85444 117.588 9.78053 117.595 9.70422C117.603 9.62791 117.595 9.55082 117.572 9.47771C117.549 9.40459 117.511 9.337 117.461 9.27911C117.41 9.22122 117.349 9.17425 117.28 9.1411C117.136 9.07701 116.974 9.06845 116.824 9.11709C116.675 9.16573 116.549 9.2681 116.471 9.40437Z" fill="#263238"/>
<path d="M112.068 11.0124C112.067 11.1063 112.094 11.1985 112.145 11.2774C112.195 11.3563 112.268 11.4186 112.354 11.4564C112.44 11.4943 112.535 11.506 112.628 11.4902C112.72 11.4744 112.806 11.4318 112.875 11.3676C112.943 11.3034 112.991 11.2205 113.013 11.1291C113.035 11.0378 113.029 10.9421 112.997 10.8539C112.965 10.7657 112.908 10.6889 112.832 10.6331C112.757 10.5772 112.666 10.5448 112.573 10.5398C112.509 10.5377 112.445 10.5482 112.385 10.5709C112.324 10.5935 112.269 10.6277 112.223 10.6716C112.176 10.7155 112.138 10.7682 112.112 10.8267C112.085 10.8851 112.07 10.9483 112.068 11.0124Z" fill="#263238"/>
<path d="M114.723 10.7397L114.647 13.6167L113.131 13.1472L114.723 10.7397Z" fill="#F28F8F"/>
<path d="M116.321 17.2357C117.545 17.0739 120.057 16.3507 120.444 15.3579C120.286 15.8605 119.978 16.303 119.562 16.6267C118.811 17.2611 116.314 17.9938 116.314 17.9938L116.321 17.2357Z" fill="#F28F8F"/>
<path d="M50.4598 97.6312V56.8625H51.8015V97.6312C51.8069 97.6973 51.7915 97.7635 51.7573 97.8204C51.7232 97.8773 51.6721 97.9221 51.6112 97.9484C51.4638 98.0233 51.3007 98.0624 51.1354 98.0624C50.97 98.0624 50.807 98.0233 50.6596 97.9484C50.5969 97.9236 50.5437 97.8795 50.5078 97.8225C50.4719 97.7654 50.455 97.6985 50.4598 97.6312Z" fill="#37474F"/>
<path d="M40.9442 93.0509V53.9729H42.2828V93.0509C42.2882 93.1171 42.2728 93.1832 42.2386 93.2401C42.2045 93.297 42.1534 93.3418 42.0925 93.3681C41.9448 93.4421 41.7819 93.4806 41.6167 93.4806C41.4515 93.4806 41.2886 93.4421 41.1409 93.3681C41.0788 93.3428 41.0263 93.2985 40.991 93.2415C40.9556 93.1845 40.9393 93.1178 40.9442 93.0509Z" fill="#37474F"/>
<path d="M61.3591 93.0509V53.9729H60.0206V93.0509C60.0152 93.1171 60.0306 93.1832 60.0647 93.2401C60.0989 93.297 60.15 93.3418 60.2109 93.3681C60.3586 93.4421 60.5215 93.4806 60.6867 93.4806C60.8519 93.4806 61.0148 93.4421 61.1625 93.3681C61.2246 93.3428 61.2771 93.2985 61.3124 93.2415C61.3477 93.1845 61.3641 93.1178 61.3591 93.0509Z" fill="#37474F"/>
<path d="M42.2928 44.8157C47.0982 42.0403 54.8948 42.0403 59.7034 44.8157C62.1046 46.2018 63.3067 48.0225 63.3035 49.84V52.0604C63.3035 53.881 62.1045 55.6986 59.7002 57.0879C54.8948 59.8633 47.0982 59.8633 42.2928 57.0879C39.8884 55.6986 38.6895 53.881 38.6895 52.0604V49.84C38.7021 48.0225 39.8884 46.2018 42.2928 44.8157Z" fill="#455A64"/>
<path d="M42.2928 43.731C47.0982 40.9556 54.8948 40.9556 59.7034 43.731C62.1046 45.1171 63.3067 46.9378 63.3035 48.7553V50.9756C63.3035 52.7963 62.1045 54.6138 59.7002 56.0031C54.8948 58.7786 47.0982 58.7786 42.2928 56.0031C39.8884 54.6138 38.6895 52.7963 38.6895 50.9756V48.7553C38.7021 46.9378 39.8884 45.1171 42.2928 43.731Z" fill="#FFCDEE"/>
<path opacity="0.4" d="M42.2928 43.731C47.0982 40.9556 54.8948 40.9556 59.7034 43.731C62.1046 45.1171 63.3067 46.9378 63.3035 48.7553V50.9756C63.3035 52.7963 62.1045 54.6138 59.7002 56.0031C54.8948 58.7786 47.0982 58.7786 42.2928 56.0031C39.8884 54.6138 38.6895 52.7963 38.6895 50.9756V48.7553C38.7021 46.9378 39.8884 45.1171 42.2928 43.731Z" fill="black"/>
<path opacity="0.5" d="M50.9958 55.8635C57.7945 55.8635 63.306 52.681 63.306 48.7552C63.306 44.8294 57.7945 41.647 50.9958 41.647C44.197 41.647 38.6855 44.8294 38.6855 48.7552C38.6855 52.681 44.197 55.8635 50.9958 55.8635Z" fill="#FFCDEE"/>
<path d="M51.1287 89.0101C48.1693 89.0101 45.2099 88.3598 42.9579 87.0593C40.7058 85.7588 39.4688 84.027 39.4688 82.1619C39.4688 80.2968 40.7026 78.5554 42.9579 77.2613C47.462 74.6603 54.7923 74.6603 59.2964 77.2613C61.5389 78.5554 62.7855 80.2968 62.7855 82.1619C62.7855 84.027 61.5516 85.7652 59.2964 87.0593C57.0443 88.3598 54.0849 89.0101 51.1287 89.0101ZM51.1287 75.9354C48.274 75.9354 45.4415 76.5698 43.2751 77.81C41.2387 78.9868 40.1031 80.5315 40.1031 82.1619C40.1031 83.7922 41.226 85.3338 43.2751 86.5106C47.6047 89.0101 54.6495 89.0101 58.9792 86.5106C61.0156 85.3338 62.1511 83.7891 62.1511 82.1619C62.1511 80.5347 61.0283 78.99 58.9792 77.81C56.816 76.5603 53.9708 75.9354 51.1287 75.9354Z" fill="#37474F"/>
<path d="M49.8993 42.5287C50.1436 42.5287 50.4037 42.4145 50.4259 42.1671C51.4441 30.7704 48.8241 20.4585 47.8059 18.1716C47.7419 18.0562 47.637 17.9691 47.5119 17.9274C47.3868 17.8857 47.2506 17.8925 47.1303 17.9464C47.0724 17.9717 47.0202 18.0084 46.9767 18.0542C46.9331 18.1 46.8992 18.154 46.8767 18.213C46.8543 18.2721 46.8438 18.335 46.846 18.3981C46.8481 18.4613 46.8628 18.5233 46.8892 18.5807C48.0247 21.1405 50.3783 31.5602 49.4267 42.1513C49.4267 42.3574 49.5948 42.5097 49.8581 42.5351L49.8993 42.5287Z" fill="#455A64"/>
<path d="M34.8965 28.2233L47.7174 20.8232L48.2407 21.1404C48.9014 23.7247 49.393 26.3492 49.7125 28.9973C49.721 29.0596 49.7107 29.123 49.683 29.1795C49.6554 29.236 49.6115 29.283 49.5571 29.3145L37.8559 36.0707L37.3325 35.7535C36.6664 32.8702 34.8965 28.2233 34.8965 28.2233Z" fill="#FFCDEE"/>
<path opacity="0.4" d="M34.8965 28.2233L47.7174 20.8232L48.2407 21.1404C48.9014 23.7247 49.393 26.3492 49.7125 28.9973C49.721 29.0596 49.7107 29.123 49.683 29.1795C49.6554 29.236 49.6115 29.283 49.5571 29.3145L37.8559 36.0707L37.3325 35.7535C36.6664 32.8702 34.8965 28.2233 34.8965 28.2233Z" fill="black"/>
<path opacity="0.5" d="M48.2466 21.1214L47.7232 20.8169L34.9023 28.217L35.4257 28.5215L48.2466 21.1214Z" fill="#FFCDEE"/>
<path d="M39.5899 48.7013C39.8532 48.7013 40.0657 48.6061 40.0657 48.4285C40.0657 38.4147 36.0913 28.6865 34.8733 25.9459C34.8181 25.839 34.7244 25.7569 34.6111 25.7162C34.4979 25.6755 34.3734 25.6793 34.2628 25.7268C34.1522 25.7742 34.0637 25.8619 34.0151 25.972C33.9665 26.0821 33.9615 26.2065 34.001 26.3202C35.2031 29.0195 39.1236 38.5892 39.1141 48.4158C39.1141 48.5236 39.3361 48.7013 39.5899 48.7013Z" fill="#455A64"/>
<path d="M50.6754 1.46502L50.6342 1.49039C48.7818 2.67986 46.6725 3.0478 45.0136 4.59887C44.2516 5.2853 43.6557 6.13605 43.2711 7.08673C42.8864 8.03742 42.723 9.06314 42.7932 10.0863C42.9835 14.4477 46.5044 16.6871 47.6938 17.9685C47.7509 18.0288 48.1538 17.9875 48.2331 17.9907L49.4384 18.0478C49.7302 18.0478 50.0981 18.2159 50.39 18.1303C50.7579 18.0129 51.0243 17.5276 51.2495 17.239C53.0195 14.8822 55.9408 13.7689 57.8408 11.5295C58.4974 10.7556 59.1381 9.92452 59.3919 8.9444C59.6456 7.96428 59.4268 6.79067 58.6116 6.188C58.8774 5.82806 59.0263 5.39519 59.0382 4.94789C59.0501 4.50059 58.9244 4.06041 58.6782 3.68683C58.4319 3.31325 58.0768 3.02428 57.6611 2.85894C57.2453 2.69361 56.7887 2.65989 56.3532 2.76233C56.7116 1.95667 56.277 0.947996 55.5285 0.481724C55.141 0.268994 54.7129 0.140646 54.2722 0.105112C53.8316 0.0695787 53.3885 0.127663 52.9719 0.275549C52.1563 0.566621 51.3838 0.966742 50.6754 1.46502Z" fill="#263238"/>
<path d="M47.6235 19.3418C46.8559 20.6741 45.0447 21.0737 43.5825 20.23C42.1202 19.3863 41.562 17.6195 42.3327 16.2841C43.1035 14.9487 44.9115 14.5554 46.3738 15.3992C47.836 16.2429 48.3943 17.997 47.6235 19.3418Z" fill="#263238"/>
<path d="M58.6311 62.8861C57.2894 62.5689 56.0079 63.5204 55.8588 63.8567C55.6558 64.3102 55.6051 65.2713 56.0333 66.5052C56.3924 67.7285 56.4619 69.0186 56.2363 70.2735C56.0206 71.3392 55.2181 73.9687 56.1602 75.4342C57.1022 76.8996 59.386 78.3365 60.4422 76.5824C60.7848 76.0083 60.4422 73.8514 60.3598 72.2971C60.1885 69.1982 60.125 66.1309 60.125 66.1309L58.6311 62.8861Z" fill="#263238"/>
<path d="M57.9431 65.2712C58.0123 66.7739 57.9667 68.2797 57.8067 69.7754C57.6068 71.4057 57.8352 72.5191 58.3205 73.3089C58.8566 74.178 60.3632 74.7965 60.3601 73.0932C60.3601 71.9069 60.1253 66.1308 60.1253 66.1308L57.9431 65.2712Z" fill="#FFA8A7"/>
<path opacity="0.15" d="M56.3696 63.3681C56.1983 64.3673 56.544 66.8287 57.6669 69.214C58.7644 71.5517 60.3472 74.6062 60.5533 76.2176C60.6675 75.5007 60.5057 74.1526 60.4074 72.9537C60.4074 72.9283 60.4074 72.9029 60.4074 72.8775C60.4074 72.8522 60.4074 72.738 60.4074 72.6682C60.4074 72.5984 60.4074 72.6047 60.4074 72.5762C60.4074 72.4874 60.4074 72.3986 60.3916 72.3129C60.3376 71.3423 60.2964 70.3781 60.2615 69.509C60.233 68.8143 60.2139 68.1799 60.1981 67.6534C60.1981 67.3901 60.1981 67.1554 60.1759 66.9524C60.1759 66.8509 60.1759 66.7589 60.1759 66.6733C60.1759 66.337 60.1759 66.1467 60.1759 66.1467L58.6819 62.9018C58.5931 62.8796 58.5074 62.867 58.4218 62.8543C57.698 62.7707 56.9686 62.9534 56.3696 63.3681Z" fill="black"/>
<path d="M66.0188 44.5618C62.2728 41.6754 57.7306 38.9539 57.7306 38.9539L52.627 44.2985L57.001 48.7392L63.7255 53.2814C62.9394 54.0581 62.3 54.9704 61.8382 55.9744C61.5845 56.5199 61.1784 57.6206 60.7439 58.8671L62.9928 66.6035C62.9928 66.6035 67.6936 59.9424 70.3516 55.4098C72.461 51.8096 71.9852 50.1761 71.6458 49.6527C70.7386 48.2666 70.1042 47.7083 66.0188 44.5618Z" fill="#37474F"/>
<path d="M62.1747 52.2346C61.8257 51.743 61.4578 51.283 61.0899 50.8199C59.6974 49.1166 56.0719 44.9487 56.0719 44.9487L55.4375 45.3389L58.3461 49.6527L62.1747 52.2346Z" fill="#263238"/>
<path d="M64.2286 64.8335C64.2286 62.0612 64.181 58.1947 64.0795 56.8244C63.9834 55.786 63.6769 54.778 63.1787 53.8618C62.7126 54.4252 62.3095 55.0378 61.9766 55.6888L63.6989 65.6011L64.2286 64.8335Z" fill="#263238"/>
<path d="M60.6446 78.3395C60.3274 78.2856 60.2354 78.847 59.9594 79.5448C59.6358 80.2089 59.5198 80.955 59.6264 81.6859C59.804 82.6216 61.2123 82.9547 61.796 84.2393C62.3796 85.5239 63.1567 87.7855 65.6023 88.7783C68.0478 89.7711 70.1571 89.2636 70.7693 88.588C71.3815 87.9124 71.0865 87.1162 69.6084 85.895C68.0478 84.5977 67.6069 84.2203 67.6069 84.2203L60.6446 78.3395Z" fill="#263238"/>
<path d="M64.5338 74.4351C64.713 75.9871 64.9842 77.5271 65.3459 79.047C65.8216 80.7472 66.7478 82.4378 67.8199 84.0555C68.0547 84.4076 68.6034 85.0768 68.7937 85.3591C68.8405 85.4163 68.874 85.483 68.892 85.5546C68.91 85.6262 68.9119 85.7009 68.8977 85.7733C68.8834 85.8457 68.8534 85.9141 68.8096 85.9735C68.7659 86.033 68.7095 86.0821 68.6446 86.1172C68.0103 86.5803 65.625 86.4059 64.4228 85.2386C63.2207 84.0713 62.2818 81.7907 61.5903 80.8899C61.3313 80.5537 61.0899 80.2043 60.8671 79.8432C60.6468 79.5163 60.5501 79.1216 60.5943 78.7298C60.7093 78.2245 60.7414 77.7039 60.6895 77.1883C60.6069 76.4974 60.483 75.8121 60.3184 75.136L64.5338 74.4351Z" fill="#FFA8A7"/>
<path d="M42.825 38.4622C41.9908 40.9743 41.4325 41.8244 41.9591 44.5649C42.4856 47.3055 45.1944 49.8462 48.5408 52.4186C51.3067 54.547 55.3953 57.6301 56.2391 58.128C57.0828 58.626 57.1082 59.1938 56.7624 60.8844C56.4167 62.5751 56.6482 65.4425 58.0946 69.179C59.6267 73.128 60.4101 75.7798 60.4101 75.7798C61.1341 76.0151 61.9037 76.0743 62.6551 75.9524C63.4065 75.8304 64.1179 75.531 64.7303 75.0788C64.7303 75.0788 63.5218 57.9124 63.0492 55.5842C62.5765 53.256 55.1194 44.9709 55.1194 44.9709C55.1194 44.9709 56.7466 41.4279 57.7394 38.9443L42.825 38.4622Z" fill="#37474F"/>
<path d="M57.7337 42.7031C57.7337 42.7031 56.9788 44.6348 55.4277 45.339L56.0367 46.0273C56.5412 45.6271 56.9538 45.1232 57.2466 44.5497C57.5394 43.9762 57.7055 43.3464 57.7337 42.7031Z" fill="#263238"/>
<path d="M54.0057 19.1166C56.6352 19.0342 57.7708 19.9921 59.4202 23.2401C60.7111 25.7777 61.9894 28.4611 63.0488 30.3103C65.6117 30.1169 70.4394 29.4508 72.2284 28.7624C72.5614 28.6346 72.8365 28.39 73.0023 28.0741C73.3896 27.3614 73.9146 26.7328 74.547 26.2249C75.0609 25.765 75.1814 25.1655 75.4352 25.1782C75.6889 25.1909 75.9966 25.5969 75.8602 26.1805C75.6649 26.6294 75.4326 27.0612 75.1656 27.4715C75.5842 27.5571 77.037 26.9132 77.9442 25.9109C79.1558 24.5787 80.3167 25.2258 80.1804 27.4493C80.1328 28.2454 78.9972 30.2659 75.9458 31.7187C74.7897 32.2235 73.5955 32.6361 72.3743 32.9526C69.2023 33.8819 66.0621 34.9255 63.7689 35.157C61.9957 35.3378 61.0188 35.4742 59.731 34.0469C55.9786 29.8568 54.5354 26.0187 52.9082 23.2782L54.0057 19.1166Z" fill="#FFA8A7"/>
<path d="M54.0059 19.1167C55.2937 18.9899 56.1659 19.1929 57.0002 19.7162C57.8344 20.2396 58.5544 21.3403 58.9033 21.9366C59.0333 22.9865 58.399 25.6572 55.9947 27.1766L54.0059 19.1167Z" fill="#455A64"/>
<path d="M43.7764 36.3466C44.0492 35.912 44.3854 35.1349 44.2649 34.5766C44.0904 33.7551 43.6305 31.3254 43.6305 31.3254L43.0469 28.8386C43.0469 28.8386 44.6741 26.3011 44.8929 24.9562C45.1118 23.6113 45.0928 22.6566 44.4837 20.2459L47.275 19.7447C48.7992 19.3474 50.369 19.1523 51.9441 19.1643L54.0058 19.1167C54.0058 19.1167 57.8121 23.1292 58.3958 24.8928C58.7701 26.0473 59.2237 28.144 57.4918 30.6403C57.4379 31.9947 57.403 34.4815 57.4474 35.5599C57.4918 36.6384 57.5933 37.9579 57.7297 38.9539C57.0953 40.3495 54.8083 42.6555 49.8411 42.4969C44.6994 42.332 42.2285 39.7627 42.2285 39.7627C42.5767 38.5552 43.0981 37.4045 43.7764 36.3466Z" fill="#FFCDEE"/>
<path d="M55.6903 37.9009C55.4304 37.8869 55.1759 37.8211 54.9418 37.7074C54.6246 37.5425 54.3708 37.1491 54.1773 36.4989C54.0124 35.947 53.7872 34.7575 54.1075 34.1961C54.5167 33.4824 55.4302 33.5617 56.0361 33.6156L56.2454 33.6315L56.1788 34.5831L55.9536 34.5672C55.6142 34.5355 55.0433 34.4879 54.9386 34.6687C54.7736 35.0303 55.1003 36.629 55.3922 36.8573C55.6761 36.9606 55.9848 36.975 56.2771 36.8986L56.5214 37.8279C56.2496 37.8937 55.9694 37.9183 55.6903 37.9009Z" fill="#E6E6E6"/>
<path d="M56.1124 32.6196C56.2012 32.3278 56.5152 32.0614 57.064 31.8711C58.5075 31.4483 60.0551 31.5609 61.4222 32.1883C61.9265 32.4484 62.2025 32.756 62.2532 33.0574H62.2691C62.3389 35.0208 61.8345 37.2538 61.0542 38.4496C61.0482 38.4576 61.0429 38.4661 61.0384 38.475V38.4909C60.8858 38.7091 60.6762 38.8814 60.4325 38.9889C59.9018 39.2134 59.3255 39.3095 58.7507 39.2692C58.1758 39.229 57.6185 39.0536 57.1242 38.7573C56.9004 38.6156 56.7178 38.4176 56.5945 38.1832V38.1642V38.1356C55.9887 36.8383 55.7984 34.5577 56.1378 32.626L56.1124 32.6196Z" fill="#F5F5F5"/>
<path d="M57.0549 31.8711C55.8146 32.3088 55.7544 33.1589 56.9216 33.7742C58.2906 34.3984 59.8381 34.511 61.283 34.0914C62.5232 33.6505 62.5803 32.8036 61.4131 32.1883C60.046 31.5609 58.4984 31.4483 57.0549 31.8711Z" fill="#FAFAFA"/>
<path d="M57.4512 32.2295C56.4584 32.5022 56.4172 33.0573 57.3656 33.4665C58.4897 33.8871 59.7118 33.972 60.8833 33.7107C61.8792 33.4348 61.9173 32.8829 60.9689 32.4737C59.8452 32.0514 58.6226 31.9665 57.4512 32.2295Z" fill="#E6E6E6"/>
<path d="M57.4164 32.9813C57.239 33.0274 57.0691 33.099 56.9121 33.1938C57.0542 33.3091 57.2123 33.4032 57.3816 33.4729C58.5056 33.8935 59.7278 33.9784 60.8992 33.7172C61.0771 33.6723 61.2472 33.6006 61.4035 33.5046C61.2615 33.39 61.1033 33.297 60.9341 33.2287C59.8103 32.807 58.5882 32.721 57.4164 32.9813Z" fill="#37474F"/>
<path d="M40.605 40.9521C45.0838 41.4755 56.0174 40.6857 56.0174 40.6857C57.6224 40.5842 59.9886 40.3685 61.0924 39.2203C61.8664 38.4273 62.2851 36.9999 62.3929 36.4195C62.6657 34.9984 60.7404 36.6351 59.1481 36.6986C58.0506 36.6896 56.9682 36.4417 55.9761 35.9722C55.9221 35.5068 55.8946 35.0387 55.8937 34.5702C55.1705 34.5702 54.5995 36.7303 54.0095 37.13C53.2927 37.6121 42.5906 35.563 42.5906 35.563L44.1132 29.3619C44.3172 28.2919 44.6057 27.2398 44.9759 26.2154C45.6293 24.3503 45.5152 22.9452 44.4811 20.2458C44.4811 20.2458 41.4773 20.4711 40.6018 22.2917C39.7264 24.1124 39.2284 26.7324 38.5274 30.2215C37.8264 33.7106 37.3792 38.2528 37.5758 39.0585C37.8391 40.3114 38.8732 40.7491 40.605 40.9521Z" fill="#FFA8A7"/>
<path d="M44.4839 20.2458C42.8979 20.2458 40.8965 20.8168 40.4175 22.2188C40.1013 23.1686 39.8387 24.1355 39.6309 25.1147C40.925 25.3875 42.936 26.5484 44.116 29.3619C44.116 29.3619 44.4522 28.4294 45.0675 26.5865C46.1111 23.2401 45.0199 21.0071 44.4839 20.2458Z" fill="#455A64"/>
<path opacity="0.1" d="M53.016 30.6721C53.016 30.6721 51.6997 32.1914 49.0162 31.6237C46.3328 31.0559 45.8824 29.01 45.8824 29.01C45.8824 29.01 45.6159 31.6237 48.8259 32.2803C51.9851 32.9337 53.016 30.6721 53.016 30.6721Z" fill="black"/>
<path d="M55.0553 5.18872C55.9054 5.69306 56.9585 7.83093 56.8506 12.3128C56.765 16.1191 55.5343 17.0517 54.9158 17.3213C54.2972 17.5909 53.1046 17.426 51.9437 17.2357V19.5131C51.9437 19.5131 53.5455 21.375 53.4472 22.4218C53.3488 23.4685 51.1317 23.7127 49.6409 22.6914C48.6699 21.9915 47.8365 21.1184 47.1826 20.1158V14.2065C47.1826 14.2065 46.5483 14.8789 45.4254 14.1113C45.1808 13.9581 44.971 13.7554 44.8094 13.5162C44.6478 13.277 44.5381 13.0067 44.4873 12.7226C44.4366 12.4384 44.4458 12.1468 44.5145 11.8665C44.5832 11.5862 44.7098 11.3233 44.8862 11.0948C45.3715 10.5207 46.6149 10.4795 47.2112 11.3708C47.2112 11.3708 48.7686 11.2344 51.23 9.88316C53.0759 8.886 54.4514 7.19796 55.0553 5.18872Z" fill="#FFA8A7"/>
<path d="M47.2129 12.7381V10.7397H48.4817V11.4629C48.4825 11.6301 48.4503 11.7958 48.3869 11.9504C48.3235 12.1051 48.2302 12.2457 48.1123 12.3642C47.9944 12.4827 47.8542 12.5767 47.6999 12.6409C47.5455 12.705 47.38 12.7381 47.2129 12.7381Z" fill="#263238"/>
<path d="M52.1864 11.3583C52.1875 11.4523 52.161 11.5446 52.11 11.6236C52.0591 11.7027 51.986 11.7649 51.8999 11.8027C51.8138 11.8405 51.7185 11.8521 51.6258 11.8361C51.5332 11.82 51.4473 11.7771 51.3789 11.7126C51.3105 11.6481 51.2626 11.5648 51.2411 11.4733C51.2197 11.3817 51.2257 11.2859 51.2583 11.1977C51.291 11.1095 51.3489 11.0329 51.4248 10.9774C51.5007 10.922 51.5913 10.89 51.6852 10.8857C51.8143 10.8823 51.9394 10.93 52.0333 11.0186C52.1272 11.1072 52.1823 11.2293 52.1864 11.3583Z" fill="#263238"/>
<path d="M52.4908 14.5046L53.9499 14.9677C53.9237 15.0658 53.878 15.1575 53.8154 15.2374C53.7529 15.3173 53.6748 15.3837 53.5859 15.4326C53.4969 15.4815 53.3991 15.5119 53.2981 15.5219C53.1971 15.532 53.0951 15.5215 52.9983 15.4911C52.8025 15.4243 52.6402 15.2842 52.5456 15.1002C52.4509 14.9163 52.4313 14.7028 52.4908 14.5046Z" fill="#F28F8F"/>
<path d="M56.4203 9.89266L55.4688 9.22021C55.5092 9.15501 55.5625 9.09879 55.6255 9.05501C55.6885 9.01123 55.7598 8.98082 55.835 8.96566C55.9102 8.9505 55.9877 8.95092 56.0627 8.96687C56.1378 8.98283 56.2087 9.014 56.2712 9.05845C56.3982 9.15191 56.4845 9.29057 56.5123 9.4458C56.54 9.60103 56.5071 9.76099 56.4203 9.89266Z" fill="#263238"/>
<path d="M56.1985 11.0124C56.2037 11.0762 56.1961 11.1405 56.1762 11.2014C56.1562 11.2623 56.1244 11.3186 56.0824 11.367C56.0405 11.4154 55.9893 11.455 55.9319 11.4834C55.8745 11.5119 55.812 11.5286 55.7481 11.5326C55.6491 11.542 55.5495 11.5215 55.4623 11.4738C55.375 11.4261 55.304 11.3533 55.2584 11.2649C55.2129 11.1765 55.1948 11.0765 55.2066 10.9777C55.2184 10.879 55.2595 10.786 55.3246 10.7108C55.3897 10.6356 55.4759 10.5817 55.5719 10.5559C55.668 10.5301 55.7695 10.5336 55.8636 10.5661C55.9576 10.5985 56.0397 10.6583 56.0994 10.7379C56.1591 10.8174 56.1936 10.913 56.1985 11.0124Z" fill="#263238"/>
<path d="M53.5469 10.7397L53.623 13.6167L55.136 13.1472L53.5469 10.7397Z" fill="#F28F8F"/>
<path d="M51.9438 17.2357C50.7226 17.0739 48.2073 16.3507 47.8203 15.3579C47.9771 15.8613 48.285 16.3042 48.7021 16.6267C49.4538 17.2611 51.947 17.9938 51.947 17.9938L51.9438 17.2357Z" fill="#F28F8F"/>
</svg>
