<svg width="169" height="129" viewBox="0 0 169 129" fill="none" xmlns="http://www.w3.org/2000/svg">
<path opacity="0.5" d="M153.642 134.206C118.494 155.507 61.5036 155.507 26.3596 134.206C-8.78429 112.905 -8.78877 78.3677 26.3596 57.0667C61.5081 35.7657 118.494 35.7657 153.642 57.0667C188.79 78.3677 188.781 112.905 153.642 134.206Z" fill="#F0F0F0"/>
<path opacity="0.5" d="M91.5243 117.771L32.6136 83.7686C32.5082 83.7329 32.4167 83.665 32.3518 83.5745C32.287 83.4841 32.2521 83.3756 32.2521 83.2643C32.2521 83.153 32.287 83.0445 32.3518 82.954C32.4167 82.8635 32.5082 82.7957 32.6136 82.7599L63.6467 64.8405C63.9174 64.7033 64.2167 64.6318 64.5202 64.6318C64.8238 64.6318 65.123 64.7033 65.3938 64.8405L124.305 98.8474C124.41 98.8831 124.501 98.951 124.566 99.0415C124.631 99.1319 124.666 99.2404 124.666 99.3517C124.666 99.463 124.631 99.5715 124.566 99.662C124.501 99.7525 124.41 99.8203 124.305 99.8561L93.2715 117.771C93.0007 117.909 92.7015 117.98 92.3979 117.98C92.0944 117.98 91.7951 117.909 91.5243 117.771Z" fill="#ECCB55"/>
<path d="M119.687 42.5997C119.928 42.4329 120.126 42.2122 120.266 41.955C120.407 41.6979 120.485 41.4115 120.494 41.1188V30.3333C120.479 30.0356 120.387 29.7468 120.226 29.4956C120.066 29.2444 119.842 29.0394 119.578 28.9009L105.024 22.1786C104.748 22.0632 104.45 22.0079 104.151 22.0162C103.852 22.0246 103.558 22.0964 103.289 22.2271C103.048 22.3938 102.85 22.6146 102.71 22.8717C102.57 23.1288 102.492 23.4152 102.482 23.7079V34.4934C102.498 34.791 102.59 35.0794 102.751 35.3305C102.911 35.5815 103.134 35.7867 103.398 35.9258L117.936 42.6481C118.214 42.7659 118.515 42.8225 118.817 42.8142C119.119 42.8058 119.416 42.7327 119.687 42.5997Z" fill="#455A64"/>
<path d="M117.231 31.2211L120.233 29.4901C120.403 29.7412 120.498 30.0349 120.508 30.3375V41.123C120.498 41.4156 120.42 41.702 120.28 41.9592C120.14 42.2163 119.942 42.4371 119.701 42.6038C119.432 42.7344 119.138 42.8063 118.839 42.8147C118.539 42.823 118.242 42.7676 117.966 42.6522L117.244 42.3173L117.231 31.2211Z" fill="#263238"/>
<path d="M117.938 29.8492L103.412 23.1228C103.315 23.0605 103.203 23.0272 103.089 23.0269C102.974 23.0265 102.862 23.0591 102.765 23.1208C102.669 23.1824 102.592 23.2706 102.544 23.3747C102.496 23.4788 102.48 23.5945 102.496 23.7079V34.4934C102.511 34.791 102.604 35.0794 102.765 35.3305C102.925 35.5815 103.148 35.7867 103.412 35.9258L117.938 42.6481C118.034 42.7104 118.146 42.7437 118.26 42.7441C118.375 42.7445 118.487 42.7119 118.584 42.6502C118.68 42.5885 118.757 42.5004 118.805 42.3962C118.853 42.2921 118.87 42.1765 118.853 42.063V31.2775C118.838 30.9804 118.745 30.6925 118.585 30.4421C118.424 30.1917 118.201 29.9873 117.938 29.8492Z" fill="#37474F"/>
<path d="M114.742 59.5748V84.273C114.747 84.3869 114.78 84.4978 114.837 84.5967C114.894 84.6956 114.973 84.7796 115.069 84.8419L115.952 85.3503C116.053 85.402 116.165 85.429 116.279 85.429C116.393 85.429 116.505 85.402 116.606 85.3503L117.49 84.8419C117.584 84.7789 117.663 84.6947 117.72 84.596C117.777 84.4972 117.81 84.3866 117.816 84.273V59.5748C117.816 59.2805 117.7 58.9983 117.491 58.7902C117.283 58.5821 117.001 58.4652 116.707 58.4652H115.851C115.557 58.4652 115.275 58.5821 115.067 58.7902C114.859 58.9983 114.742 59.2805 114.742 59.5748Z" fill="#263238"/>
<path d="M117.046 58.4652C116.842 58.4652 116.647 58.546 116.504 58.6898C116.36 58.8335 116.279 59.0285 116.279 59.2319V85.205C116.279 85.3907 116.408 85.4633 116.57 85.3745L117.502 84.8338C117.593 84.7742 117.67 84.6938 117.724 84.5992C117.779 84.5045 117.811 84.3983 117.816 84.2891V59.2319C117.815 59.0282 117.734 58.8332 117.589 58.6895C117.445 58.5459 117.249 58.4652 117.046 58.4652Z" fill="#37474F"/>
<path d="M98.1089 68.2461V93.6665C98.116 93.78 98.1496 93.8902 98.2071 93.9883C98.2646 94.0864 98.3443 94.1697 98.4398 94.2314L99.3194 94.7398C99.4213 94.7915 99.534 94.8185 99.6483 94.8185C99.7626 94.8185 99.8752 94.7915 99.9771 94.7398L100.857 94.2314C100.952 94.1695 101.031 94.0861 101.088 93.988C101.144 93.8898 101.177 93.7797 101.184 93.6665V68.2461C101.184 68.1462 101.144 68.0503 101.074 67.9793C101.004 67.9083 100.908 67.8679 100.808 67.8668H98.4882C98.3876 67.8668 98.2912 67.9068 98.22 67.9779C98.1489 68.049 98.1089 68.1455 98.1089 68.2461Z" fill="#263238"/>
<path d="M100.808 67.8668H100.025C99.9247 67.8668 99.8283 67.9068 99.7571 67.9779C99.686 68.049 99.646 68.1455 99.646 68.2461V94.5703C99.646 94.7761 99.7913 94.8608 99.9729 94.7559L100.853 94.2475C100.948 94.1856 101.027 94.1022 101.083 94.0041C101.14 93.906 101.173 93.7958 101.179 93.6826V68.2622C101.182 68.2118 101.174 68.1614 101.156 68.114C101.138 68.0666 101.112 68.0233 101.077 67.9864C101.042 67.9496 101.001 67.92 100.955 67.8995C100.908 67.879 100.859 67.8679 100.808 67.8668Z" fill="#37474F"/>
<path d="M117.816 59.0624V59.4014C117.802 59.7119 117.723 60.0159 117.584 60.2939C117.445 60.5719 117.249 60.8177 117.009 61.0154L100.466 72.5393C100.217 72.7014 99.9294 72.7949 99.6326 72.8105C99.3358 72.8261 99.0401 72.7632 98.7753 72.628L77.9911 60.5917C77.7319 60.4261 77.5161 60.2008 77.3617 59.9348C77.2073 59.6688 77.1187 59.3697 77.1034 59.0624V58.7114C77.1192 58.4138 77.2119 58.1254 77.3724 57.8743C77.533 57.6233 77.7559 57.4181 78.0194 57.279L98.4687 47.7968C98.756 47.6828 99.0643 47.6311 99.3731 47.645C99.6819 47.6589 99.9842 47.7382 100.26 47.8775L116.941 57.517C117.2 57.6856 117.415 57.914 117.567 58.183C117.719 58.4519 117.805 58.7535 117.816 59.0624Z" fill="#37474F"/>
<path d="M116.941 57.5332L100.26 47.8936C99.9845 47.7543 99.6822 47.6751 99.3734 47.6612C99.0646 47.6472 98.7563 47.699 98.4689 47.8129L78.0197 57.2951C77.5153 57.5291 77.4951 57.9447 77.9793 58.2231L98.7756 70.2312C99.04 70.367 99.3355 70.4306 99.6323 70.4157C99.9291 70.4008 100.217 70.308 100.466 70.1465L117.01 58.6307C117.112 58.5758 117.196 58.4929 117.252 58.3918C117.308 58.2906 117.334 58.1754 117.327 58.0599C117.32 57.9444 117.28 57.8334 117.211 57.74C117.143 57.6467 117.049 57.5749 116.941 57.5332Z" fill="#455A64"/>
<path d="M111.206 48.5231C112.953 51.166 113.547 55.3826 111.864 58.6711C111.057 60.2568 103.391 69.0289 97.8263 68.3066C88.2594 67.0558 79.3622 54.3294 79.3622 54.3294L92.2056 47.4014L111.206 48.5231Z" fill="#263238"/>
<path d="M67.7699 78.6039C63.3315 82.1708 60.4787 82.538 59.3328 83.2643C58.1868 83.9906 58.2433 85.996 60.3536 86.9966C62.4639 87.9973 65.014 88.0619 66.8096 86.9966C68.6052 85.9314 70.0658 84.2972 71.7928 83.6194C73.5198 82.9415 74.3429 82.8487 74.8675 81.6664C75.392 80.4842 75.2064 76.538 75.2064 76.538L67.7699 78.6039Z" fill="#263238"/>
<path d="M71.0468 72.2972C70.958 73.9718 70.954 75.4566 69.3844 77.1069C68.8778 77.6388 68.3388 78.1387 67.7704 78.6039C65.1719 80.7344 63.0777 82.3766 62.7065 82.6672C62.3353 82.9577 63.7031 84.5071 65.7811 84.2004C67.8592 83.8938 70.1712 81.5091 71.8336 80.1372C72.568 79.5279 73.2741 78.9832 73.8309 78.5636C74.5781 78.0073 75.095 77.1961 75.2835 76.2838L75.8242 73.7095L71.0468 72.2972Z" fill="#FFA8A7" stroke="#FFA8A7" stroke-miterlimit="10"/>
<path d="M79.1123 85.1405C74.6738 88.7074 71.8252 89.0746 70.6752 89.8009C69.5252 90.5272 69.5857 92.5326 71.696 93.5333C73.8063 94.5339 76.3564 94.5985 78.152 93.5333C79.9476 92.468 81.4082 90.8339 83.1352 90.156C84.8622 89.4781 85.6853 89.3813 86.2139 88.203C86.7425 87.0248 86.5528 83.0746 86.5528 83.0746L79.1123 85.1405Z" fill="#263238"/>
<path d="M82.3925 78.8339C82.3037 80.5084 82.2957 81.9933 80.7261 83.6436C80.2195 84.1754 79.6804 84.6753 79.1121 85.1405C76.5176 87.271 74.4194 88.9133 74.0522 89.2038C73.685 89.4943 75.0448 91.0437 77.1268 90.7371C79.2089 90.4304 81.5169 88.0457 83.1793 86.6738C83.9137 86.0645 84.6198 85.5198 85.1766 85.1002C85.9227 84.5429 86.4393 83.7321 86.6292 82.8204L87.1699 80.2461L82.3925 78.8339Z" fill="#FFA8A7" stroke="#FFA8A7" stroke-miterlimit="10"/>
<path d="M94.2832 86.5003V115.956C94.2763 116.077 94.2409 116.195 94.1799 116.3C94.1189 116.405 94.0341 116.495 93.9322 116.561L92.992 117.102C92.8841 117.157 92.7644 117.186 92.643 117.186C92.5216 117.186 92.4019 117.157 92.294 117.102L91.3538 116.561C91.2519 116.495 91.167 116.405 91.1061 116.3C91.0451 116.195 91.0097 116.077 91.0028 115.956V86.5003C91.0028 86.3933 91.0453 86.2907 91.1209 86.215C91.1966 86.1393 91.2992 86.0968 91.4063 86.0968H93.8797C93.9867 86.0968 94.0893 86.1393 94.165 86.215C94.2407 86.2907 94.2832 86.3933 94.2832 86.5003Z" fill="white"/>
<path d="M91.4077 86.0968H92.243C92.35 86.0968 92.4526 86.1393 92.5283 86.215C92.604 86.2907 92.6465 86.3933 92.6465 86.5003V116.912C92.6465 117.134 92.4891 117.227 92.2954 117.114L91.3553 116.573C91.2534 116.507 91.1685 116.417 91.1075 116.312C91.0466 116.207 91.0112 116.089 91.0042 115.968V86.5003C91.0042 86.3933 91.0468 86.2907 91.1224 86.215C91.1981 86.1393 91.3007 86.0968 91.4077 86.0968Z" fill="white"/>
<path opacity="0.6" d="M91.4077 86.0968H92.243C92.35 86.0968 92.4526 86.1393 92.5283 86.215C92.604 86.2907 92.6465 86.3933 92.6465 86.5003V116.912C92.6465 117.134 92.4891 117.227 92.2954 117.114L91.3553 116.573C91.2534 116.507 91.1685 116.417 91.1075 116.312C91.0466 116.207 91.0112 116.089 91.0042 115.968V86.5003C91.0042 86.3933 91.0468 86.2907 91.1224 86.215C91.1981 86.1393 91.3007 86.0968 91.4077 86.0968Z" fill="white"/>
<path d="M36.918 53.4135V82.8689C36.911 82.9902 36.8757 83.1082 36.8147 83.2134C36.7537 83.3185 36.6688 83.4079 36.5669 83.4741L35.6268 84.0148C35.5188 84.0704 35.3992 84.0994 35.2777 84.0994C35.1563 84.0994 35.0367 84.0704 34.9287 84.0148L33.9886 83.4741C33.8867 83.4079 33.8018 83.3185 33.7408 83.2134C33.6799 83.1082 33.6445 82.9902 33.6375 82.8689V53.4135C33.6375 53.3065 33.68 53.2039 33.7557 53.1282C33.8314 53.0525 33.934 53.01 34.041 53.01H36.5145C36.6215 53.01 36.7241 53.0525 36.7998 53.1282C36.8755 53.2039 36.918 53.3065 36.918 53.4135Z" fill="white"/>
<path d="M34.0406 53.01H34.8758C34.9828 53.01 35.0855 53.0525 35.1611 53.1282C35.2368 53.2039 35.2793 53.3065 35.2793 53.4135V83.8211C35.2793 84.0471 35.1219 84.1359 34.9283 84.0229L33.9881 83.4822C33.8862 83.4159 33.8014 83.3266 33.7404 83.2215C33.6794 83.1163 33.644 82.9983 33.6371 82.8769V53.4135C33.6371 53.3065 33.6796 53.2039 33.7552 53.1282C33.8309 53.0525 33.9335 53.01 34.0406 53.01Z" fill="white"/>
<path opacity="0.6" d="M34.0406 53.01H34.8758C34.9828 53.01 35.0855 53.0525 35.1611 53.1282C35.2368 53.2039 35.2793 53.3065 35.2793 53.4135V83.8211C35.2793 84.0471 35.1219 84.1359 34.9283 84.0229L33.9881 83.4822C33.8862 83.4159 33.8014 83.3266 33.7404 83.2215C33.6794 83.1163 33.644 82.9983 33.6371 82.8769V53.4135C33.6371 53.3065 33.6796 53.2039 33.7552 53.1282C33.8309 53.0525 33.9335 53.01 34.0406 53.01Z" fill="white"/>
<path d="M123.787 69.4808V98.9361C123.78 99.0575 123.745 99.1755 123.684 99.2806C123.623 99.3858 123.538 99.4751 123.436 99.5414L122.496 100.082C122.388 100.138 122.268 100.167 122.147 100.167C122.025 100.167 121.906 100.138 121.798 100.082L120.858 99.5414C120.756 99.4751 120.671 99.3858 120.61 99.2806C120.549 99.1755 120.514 99.0575 120.507 98.9361V69.4808C120.507 69.3738 120.549 69.2711 120.625 69.1954C120.701 69.1198 120.803 69.0773 120.91 69.0773H123.384C123.491 69.0773 123.593 69.1198 123.669 69.1954C123.745 69.2711 123.787 69.3738 123.787 69.4808Z" fill="white"/>
<path d="M120.91 69.0773H121.741C121.848 69.0773 121.951 69.1198 122.026 69.1954C122.102 69.2711 122.145 69.3738 122.145 69.4808V99.8924C122.145 100.114 121.991 100.207 121.798 100.094L120.857 99.5535C120.755 99.4872 120.671 99.3979 120.61 99.2927C120.549 99.1876 120.513 99.0696 120.506 98.9482V69.4929C120.505 69.4389 120.514 69.3851 120.533 69.3347C120.553 69.2844 120.583 69.2385 120.62 69.1997C120.658 69.1609 120.703 69.1301 120.753 69.1091C120.802 69.0881 120.856 69.0772 120.91 69.0773Z" fill="white"/>
<path opacity="0.6" d="M120.91 69.0773H121.741C121.848 69.0773 121.951 69.1198 122.026 69.1954C122.102 69.2711 122.145 69.3738 122.145 69.4808V99.8924C122.145 100.114 121.991 100.207 121.798 100.094L120.857 99.5535C120.755 99.4872 120.671 99.3979 120.61 99.2927C120.549 99.1876 120.513 99.0696 120.506 98.9482V69.4929C120.505 69.4389 120.514 69.3851 120.533 69.3347C120.553 69.2844 120.583 69.2385 120.62 69.1997C120.658 69.1609 120.703 69.1301 120.753 69.1091C120.802 69.0881 120.856 69.0772 120.91 69.0773Z" fill="white"/>
<path d="M125.426 69.2063V68.9279C125.412 68.6857 125.341 68.4502 125.22 68.24C125.099 68.0298 124.93 67.8509 124.728 67.7174L65.4821 33.5129C65.2649 33.4036 65.0252 33.3467 64.782 33.3467C64.5389 33.3467 64.2991 33.4036 64.082 33.5129L32.6979 51.634C32.4946 51.7667 32.3255 51.9455 32.2042 52.1558C32.0829 52.3661 32.0129 52.6021 31.9998 52.8445V53.1229C32.0138 53.3651 32.0843 53.6007 32.2055 53.8108C32.3267 54.021 32.4953 54.1999 32.6979 54.3334L91.9475 88.5379C92.1639 88.6475 92.4031 88.7046 92.6456 88.7046C92.8881 88.7046 93.1273 88.6475 93.3436 88.5379L124.728 70.4168C124.931 70.2841 125.1 70.1053 125.221 69.895C125.343 69.6847 125.413 69.4488 125.426 69.2063Z" fill="white"/>
<path opacity="0.6" d="M125.426 69.2063V68.9279C125.412 68.6857 125.341 68.4502 125.22 68.24C125.099 68.0298 124.93 67.8509 124.728 67.7174L65.4821 33.5129C65.2649 33.4036 65.0252 33.3467 64.782 33.3467C64.5389 33.3467 64.2991 33.4036 64.082 33.5129L32.6979 51.634C32.4946 51.7667 32.3255 51.9455 32.2042 52.1558C32.0829 52.3661 32.0129 52.6021 31.9998 52.8445V53.1229C32.0138 53.3651 32.0843 53.6007 32.2055 53.8108C32.3267 54.021 32.4953 54.1999 32.6979 54.3334L91.9475 88.5379C92.1639 88.6475 92.4031 88.7046 92.6456 88.7046C92.8881 88.7046 93.1273 88.6475 93.3436 88.5379L124.728 70.4168C124.931 70.2841 125.1 70.1053 125.221 69.895C125.343 69.6847 125.413 69.4488 125.426 69.2063Z" fill="white"/>
<path d="M92.6456 49.1969L124.728 67.7175C124.93 67.8509 125.099 68.0299 125.22 68.24C125.341 68.4502 125.412 68.6858 125.426 68.928V69.2064C125.413 69.4488 125.343 69.6847 125.221 69.895C125.1 70.1053 124.931 70.2841 124.728 70.4169L93.3235 88.538C93.1082 88.6503 92.8682 88.7071 92.6254 88.7034L92.6456 49.1969Z" fill="white"/>
<path d="M124.728 68.5244L93.3236 86.6455C93.1072 86.7551 92.868 86.8122 92.6255 86.8122C92.383 86.8122 92.1438 86.7551 91.9275 86.6455L32.6778 52.441C32.5942 52.4116 32.5218 52.357 32.4706 52.2847C32.4194 52.2125 32.3919 52.1261 32.3919 52.0375C32.3919 51.9489 32.4194 51.8625 32.4706 51.7902C32.5218 51.718 32.5942 51.6634 32.6778 51.634L64.0619 33.5129C64.2791 33.4036 64.5188 33.3467 64.7619 33.3467C65.0051 33.3467 65.2448 33.4036 65.462 33.5129L124.728 67.7174C124.811 67.7468 124.884 67.8014 124.935 67.8737C124.986 67.946 125.014 68.0324 125.014 68.1209C125.014 68.2095 124.986 68.2959 124.935 68.3682C124.884 68.4404 124.811 68.495 124.728 68.5244Z" fill="white"/>
<path opacity="0.7" d="M124.728 68.5244L93.3236 86.6455C93.1072 86.7551 92.868 86.8122 92.6255 86.8122C92.383 86.8122 92.1438 86.7551 91.9275 86.6455L32.6778 52.441C32.5942 52.4116 32.5218 52.357 32.4706 52.2847C32.4194 52.2125 32.3919 52.1261 32.3919 52.0375C32.3919 51.9489 32.4194 51.8625 32.4706 51.7902C32.5218 51.718 32.5942 51.6634 32.6778 51.634L64.0619 33.5129C64.2791 33.4036 64.5188 33.3467 64.7619 33.3467C65.0051 33.3467 65.2448 33.4036 65.462 33.5129L124.728 67.7174C124.811 67.7468 124.884 67.8014 124.935 67.8737C124.986 67.946 125.014 68.0324 125.014 68.1209C125.014 68.2095 124.986 68.2959 124.935 68.3682C124.884 68.4404 124.811 68.495 124.728 68.5244Z" fill="white"/>
<path d="M86.084 52.437V52.5782C86.0778 52.6992 86.0432 52.8172 85.9829 52.9223C85.9226 53.0275 85.8383 53.1169 85.737 53.1834L79.8782 56.5647C79.7699 56.6194 79.6504 56.6478 79.5292 56.6478C79.4079 56.6478 79.2884 56.6194 79.1801 56.5647L60.2157 45.5049C60.1135 45.4379 60.0285 45.3479 59.9675 45.2421C59.9065 45.1362 59.8713 45.0175 59.8647 44.8956V44.8673C59.8716 44.746 59.907 44.628 59.968 44.5228C60.029 44.4177 60.1138 44.3284 60.2157 44.2621L66.0584 40.8808C66.1678 40.8279 66.2878 40.8004 66.4094 40.8004C66.531 40.8004 66.651 40.8279 66.7605 40.8808L85.7249 51.8317C85.8285 51.8968 85.9151 51.9857 85.9775 52.0909C86.04 52.1962 86.0765 52.3148 86.084 52.437Z" fill="#37474F"/>
<path d="M86.084 52.437V52.5783C86.0778 52.6993 86.0432 52.8172 85.9829 52.9224C85.9226 53.0276 85.8383 53.117 85.737 53.1835L79.8782 56.5648C79.7718 56.6225 79.6522 56.6517 79.5312 56.6496V50.7222H83.8163L85.737 51.8318C85.8383 51.8983 85.9226 51.9877 85.9829 52.0929C86.0432 52.1981 86.0778 52.316 86.084 52.437Z" fill="#263238"/>
<path d="M60.2128 44.6656L79.1772 55.6206C79.2854 55.6752 79.405 55.7036 79.5262 55.7036C79.6474 55.7036 79.767 55.6752 79.8752 55.6206L85.734 52.2392C85.7758 52.2245 85.812 52.1973 85.8376 52.1611C85.8632 52.125 85.877 52.0818 85.877 52.0375C85.877 51.9932 85.8632 51.95 85.8376 51.9139C85.812 51.8777 85.7758 51.8504 85.734 51.8357L66.7696 40.8848C66.6601 40.8319 66.5401 40.8044 66.4186 40.8044C66.297 40.8044 66.177 40.8319 66.0675 40.8848L60.2249 44.2661C60.0191 44.3751 60.0191 44.5566 60.2128 44.6656Z" fill="#455A64"/>
<path d="M77.1837 50.6818L77.7809 51.0248C77.8091 51.0248 77.8091 51.0651 77.7809 51.0772L77.1393 51.4525C77.1246 51.4586 77.1088 51.4617 77.0929 51.4617C77.077 51.4617 77.0612 51.4586 77.0465 51.4525L76.4493 51.1055C76.4211 51.1055 76.4211 51.0651 76.4493 51.053L77.0909 50.6818C77.1051 50.674 77.1211 50.67 77.1373 50.67C77.1535 50.67 77.1695 50.674 77.1837 50.6818ZM76.1265 51.9811L75.5253 51.6381C75.5011 51.6381 75.5011 51.5977 75.5253 51.5856L76.1709 51.2104C76.2007 51.1985 76.2339 51.1985 76.2637 51.2104L76.8609 51.5574C76.8892 51.5574 76.8892 51.5937 76.8609 51.6098L76.2193 51.9811C76.2067 51.9869 76.1929 51.9899 76.179 51.9899C76.1651 51.9899 76.1513 51.9869 76.1386 51.9811H76.1265ZM74.1938 50.8674L73.181 50.2823C73.1528 50.2823 73.1528 50.242 73.181 50.2299L73.8226 49.8546C73.8373 49.8485 73.853 49.8454 73.869 49.8454C73.8849 49.8454 73.9007 49.8485 73.9154 49.8546L74.9282 50.4397C74.9524 50.4397 74.9524 50.48 74.9282 50.4921L74.2826 50.8674C74.2578 50.8763 74.2307 50.8763 74.2059 50.8674H74.1938ZM75.2509 51.4767L74.6538 51.1337C74.6255 51.1337 74.6255 51.0934 74.6538 51.0772L75.2953 50.706C75.31 50.6999 75.3258 50.6968 75.3417 50.6968C75.3577 50.6968 75.3734 50.6999 75.3881 50.706L75.9894 51.053C76.0136 51.053 76.0136 51.0893 75.9894 51.1055L75.3438 51.4767C75.3311 51.4825 75.3173 51.4855 75.3034 51.4855C75.2895 51.4855 75.2757 51.4825 75.2631 51.4767H75.2509ZM72.9026 50.1209L72.3054 49.778C72.3004 49.7752 72.2962 49.7711 72.2932 49.7661C72.2903 49.7611 72.2888 49.7555 72.2888 49.7497C72.2888 49.7439 72.2903 49.7383 72.2932 49.7333C72.2962 49.7283 72.3004 49.7243 72.3054 49.7215L72.951 49.3502C72.965 49.3443 72.9801 49.3412 72.9954 49.3412C73.0106 49.3412 73.0258 49.3443 73.0398 49.3502L73.641 49.6973C73.6652 49.6973 73.6652 49.7336 73.641 49.7497L72.9954 50.1209C72.9827 50.1267 72.969 50.1297 72.955 50.1297C72.9411 50.1297 72.9274 50.1267 72.9147 50.1209H72.9026ZM72.027 49.6166L71.4298 49.2736C71.4248 49.2708 71.4206 49.2667 71.4176 49.2617C71.4147 49.2568 71.4132 49.2511 71.4132 49.2453C71.4132 49.2396 71.4147 49.2339 71.4176 49.2289C71.4206 49.224 71.4248 49.2199 71.4298 49.2171L72.0754 48.8459C72.0901 48.8398 72.1059 48.8366 72.1218 48.8366C72.1377 48.8366 72.1535 48.8398 72.1682 48.8459L72.7654 49.1929C72.7896 49.1929 72.7896 49.2292 72.7654 49.2453L72.1198 49.6166C72.1071 49.6224 72.0934 49.6254 72.0795 49.6254C72.0655 49.6254 72.0518 49.6224 72.0391 49.6166H72.027ZM74.561 48.1034L75.1581 48.4464C75.1632 48.4492 75.1674 48.4533 75.1703 48.4583C75.1733 48.4632 75.1748 48.4689 75.1748 48.4747C75.1748 48.4804 75.1733 48.4861 75.1703 48.4911C75.1674 48.496 75.1632 48.5001 75.1581 48.5029L74.5125 48.8741C74.4985 48.8801 74.4834 48.8832 74.4682 48.8832C74.4529 48.8832 74.4378 48.8801 74.4238 48.8741L73.8226 48.5271C73.7984 48.5271 73.7984 48.4908 73.8226 48.4747L74.4682 48.1034C74.4838 48.0934 74.502 48.088 74.5206 48.088C74.5392 48.088 74.5574 48.0934 74.5731 48.1034H74.561ZM73.6854 47.5991L74.2826 47.942C74.3108 47.942 74.3108 47.9824 74.2826 47.9945L73.641 48.3697C73.6263 48.3759 73.6105 48.379 73.5946 48.379C73.5787 48.379 73.5629 48.3759 73.5482 48.3697L72.951 48.0227C72.9228 48.0227 72.9228 47.9824 72.951 47.9703L73.5926 47.5991C73.6082 47.589 73.6264 47.5836 73.645 47.5836C73.6636 47.5836 73.6818 47.589 73.6975 47.5991H73.6854ZM72.8098 47.0907L73.411 47.4377C73.4352 47.4377 73.4352 47.478 73.411 47.4901L72.7654 47.8613C72.7512 47.8691 72.7352 47.8732 72.719 47.8732C72.7028 47.8732 72.6868 47.8691 72.6726 47.8613L72.0754 47.5184C72.0512 47.5184 72.0512 47.478 72.0754 47.4659L72.721 47.0907C72.7367 47.0828 72.7539 47.0788 72.7715 47.0788C72.789 47.0788 72.8062 47.0828 72.8219 47.0907H72.8098ZM71.9382 46.5863L72.5354 46.9333C72.5596 46.9333 72.5596 46.9696 72.5354 46.9858L71.8898 47.357C71.8756 47.3647 71.8596 47.3688 71.8434 47.3688C71.8272 47.3688 71.8112 47.3647 71.797 47.357L71.1998 47.014C71.1756 47.014 71.1756 46.9736 71.1998 46.9615L71.8454 46.5863C71.8601 46.5802 71.8759 46.577 71.8918 46.577C71.9078 46.577 71.9235 46.5802 71.9382 46.5863ZM76.3202 50.1855L76.9214 50.5325C76.9456 50.5325 76.9456 50.5729 76.9214 50.585L76.2758 50.9562C76.2616 50.9639 76.2457 50.968 76.2294 50.968C76.2132 50.968 76.1973 50.9639 76.183 50.9562L75.5697 50.589C75.5455 50.589 75.5455 50.5486 75.5697 50.5365L76.2153 50.1613C76.2334 50.1563 76.2525 50.1559 76.2708 50.1601C76.2892 50.1643 76.3061 50.173 76.3202 50.1855ZM75.4487 48.6199L76.7802 49.3785C76.8085 49.3785 76.8085 49.4148 76.7802 49.431L75.2187 50.3348C75.2044 50.3426 75.1885 50.3466 75.1723 50.3466C75.1561 50.3466 75.1401 50.3426 75.1259 50.3348L74.4359 49.9313C74.4076 49.9313 74.4076 49.895 74.4359 49.8788L75.2631 49.3987C75.2873 49.3987 75.2873 49.3624 75.2631 49.3462L74.7103 49.0275C74.686 49.0275 74.686 48.9911 74.7103 48.975L75.3559 48.6038C75.3704 48.5966 75.3866 48.5932 75.4028 48.5939C75.419 48.5946 75.4348 48.5994 75.4487 48.6078V48.6199ZM71.1675 49.1243L70.5663 48.7773C70.5421 48.7773 70.5421 48.741 70.5663 48.7248L71.2119 48.3536C71.2262 48.3458 71.2421 48.3418 71.2583 48.3418C71.2745 48.3418 71.2905 48.3458 71.3047 48.3536L71.9019 48.7006C71.9302 48.7006 71.9302 48.7369 71.9019 48.7531L71.2604 49.1243C71.2451 49.1303 71.2286 49.1323 71.2124 49.1302C71.1962 49.1281 71.1807 49.1219 71.1675 49.1122V49.1243ZM70.292 48.6199L69.6948 48.2729C69.6665 48.2729 69.6665 48.2366 69.6948 48.2205L70.3363 47.8492C70.3506 47.8415 70.3665 47.8374 70.3827 47.8374C70.399 47.8374 70.4149 47.8415 70.4291 47.8492L71.0304 48.1922C71.0354 48.195 71.0396 48.1991 71.0425 48.2041C71.0455 48.209 71.047 48.2147 71.047 48.2205C71.047 48.2262 71.0455 48.2319 71.0425 48.2368C71.0396 48.2418 71.0354 48.2459 71.0304 48.2487L70.3848 48.6199C70.3695 48.6259 70.353 48.6279 70.3368 48.6258C70.3206 48.6237 70.3051 48.6175 70.292 48.6078V48.6199ZM65.7365 43.0637C65.7505 43.0578 65.7656 43.0547 65.7808 43.0547C65.7961 43.0547 65.8112 43.0578 65.8252 43.0637L66.4264 43.4108C66.4507 43.4108 66.4507 43.4511 66.4264 43.4632L65.7808 43.8344C65.7666 43.8422 65.7507 43.8463 65.7344 43.8463C65.7182 43.8463 65.7023 43.8422 65.688 43.8344L65.0909 43.4915C65.0667 43.4915 65.0667 43.4511 65.0909 43.439L65.7365 43.0637ZM63.2953 44.5809L62.6981 44.2339C62.6699 44.2339 62.6699 44.1976 62.6981 44.1814L63.3397 43.8102C63.3539 43.8024 63.3699 43.7984 63.3861 43.7984C63.4023 43.7984 63.4183 43.8024 63.4325 43.8102L64.0337 44.1532C64.0387 44.156 64.0429 44.1601 64.0459 44.165C64.0488 44.17 64.0503 44.1757 64.0503 44.1814C64.0503 44.1872 64.0488 44.1929 64.0459 44.1978C64.0429 44.2028 64.0387 44.2069 64.0337 44.2097L63.3881 44.5809C63.3568 44.589 63.3235 44.5847 63.2953 44.5688V44.5809ZM64.5825 43.4632C64.5972 43.4571 64.6129 43.454 64.6289 43.454C64.6448 43.454 64.6606 43.4571 64.6753 43.4632L65.2765 43.8102C65.3007 43.8102 65.3007 43.8465 65.2765 43.8627L64.6309 44.2339C64.6166 44.2417 64.6007 44.2457 64.5845 44.2457C64.5683 44.2457 64.5523 44.2417 64.5381 44.2339L63.9409 43.8909C63.9126 43.8909 63.9126 43.8506 63.9409 43.8344L64.5825 43.4632ZM67.2092 42.8015L67.8064 43.1444C67.8306 43.1444 67.8306 43.1848 67.8064 43.1969L67.1608 43.5681C67.1466 43.5759 67.1306 43.58 67.1144 43.58C67.0982 43.58 67.0822 43.5759 67.068 43.5681L66.4708 43.2251C66.4466 43.2251 66.4466 43.1848 66.4708 43.1727L67.1164 42.8015C67.1296 42.7918 67.145 42.7856 67.1613 42.7835C67.1775 42.7813 67.194 42.7834 67.2092 42.7894V42.8015ZM66.2408 42.2931C66.2706 42.2812 66.3038 42.2812 66.3336 42.2931L66.9308 42.6401C66.9591 42.6401 66.9591 42.6804 66.9308 42.6925L66.2893 43.0637C66.275 43.0715 66.2591 43.0756 66.2429 43.0756C66.2266 43.0756 66.2107 43.0715 66.1964 43.0637L65.5952 42.7208C65.571 42.7208 65.571 42.6804 65.5952 42.6683L66.2408 42.2931ZM64.1709 45.0853L63.5697 44.7383C63.5455 44.7383 63.5455 44.7019 63.5697 44.6858L64.2153 44.3146C64.2295 44.3068 64.2455 44.3028 64.2617 44.3028C64.2779 44.3028 64.2938 44.3068 64.3081 44.3146L64.9053 44.6616C64.9335 44.6616 64.9335 44.6979 64.9053 44.7141L64.2637 45.0853C64.2485 45.0913 64.232 45.0933 64.2157 45.0912C64.1995 45.0891 64.1841 45.0829 64.1709 45.0732V45.0853ZM68.5448 47.6112L67.9436 47.2642C67.9194 47.2642 67.9194 47.2238 67.9436 47.2117L68.5892 46.8405C68.6034 46.8327 68.6194 46.8286 68.6356 46.8286C68.6518 46.8286 68.6678 46.8327 68.682 46.8405L69.2792 47.1835C69.3034 47.1835 69.3034 47.2238 69.2792 47.2359L68.6336 47.6112C68.6187 47.6153 68.6032 47.6164 68.5879 47.6143C68.5727 47.6122 68.558 47.607 68.5448 47.5991V47.6112ZM65.0465 45.5937L64.4453 45.2467C64.4211 45.2467 64.4211 45.2104 64.4453 45.1942L65.0909 44.823C65.1051 44.8152 65.121 44.8112 65.1373 44.8112C65.1535 44.8112 65.1694 44.8152 65.1837 44.823L65.7808 45.17C65.8051 45.17 65.8051 45.2063 65.7808 45.2225L65.1353 45.5937C65.1204 45.5992 65.1043 45.6006 65.0887 45.5977C65.073 45.5949 65.0585 45.5879 65.0465 45.5775V45.5937ZM69.4164 48.1196L68.8192 47.7726C68.795 47.7726 68.795 47.7363 68.8192 47.7201L69.4648 47.3489C69.4783 47.3411 69.4936 47.337 69.5092 47.337C69.5248 47.337 69.5401 47.3411 69.5536 47.3489L70.1548 47.6919C70.1598 47.6947 70.164 47.6988 70.167 47.7037C70.1699 47.7087 70.1714 47.7144 70.1714 47.7201C70.1714 47.7259 70.1699 47.7315 70.167 47.7365C70.164 47.7415 70.1598 47.7456 70.1548 47.7484L69.5092 48.1196C69.4934 48.1232 69.4771 48.1237 69.4611 48.1209C69.4452 48.1181 69.43 48.1122 69.4164 48.1034V48.1196ZM67.6692 47.1068L67.068 46.7638C67.0438 46.7638 67.0438 46.7235 67.068 46.7114L67.7136 46.3361C67.7434 46.3242 67.7766 46.3242 67.8064 46.3361L68.4036 46.6831C68.4318 46.6831 68.4318 46.7235 68.4036 46.7356L67.762 47.1068C67.7465 47.1122 67.7298 47.1136 67.7135 47.1108C67.6973 47.108 67.682 47.101 67.6692 47.0907V47.1068ZM66.7936 46.6024L66.1964 46.2595C66.1682 46.2595 66.1682 46.2191 66.1964 46.207L66.838 45.8317C66.8527 45.8256 66.8685 45.8225 66.8844 45.8225C66.9003 45.8225 66.9161 45.8256 66.9308 45.8317L67.532 46.1788C67.5562 46.1788 67.5562 46.2151 67.532 46.2312L66.8864 46.6024C66.8709 46.6079 66.8542 46.6092 66.8379 46.6064C66.8217 46.6036 66.8064 46.5967 66.7936 46.5863V46.6024ZM65.918 46.0981L65.3209 45.7551C65.3158 45.7523 65.3116 45.7482 65.3087 45.7432C65.3058 45.7383 65.3042 45.7326 65.3042 45.7268C65.3042 45.7211 65.3058 45.7154 65.3087 45.7104C65.3116 45.7055 65.3158 45.7014 65.3209 45.6986L65.9665 45.3274C65.9812 45.3213 65.9969 45.3181 66.0129 45.3181C66.0288 45.3181 66.0445 45.3213 66.0593 45.3274L66.6564 45.6744C66.6806 45.6744 66.6806 45.7107 66.6564 45.7268L66.0108 46.0981C65.9953 46.1035 65.9786 46.1049 65.9623 46.102C65.9461 46.0992 65.9308 46.0923 65.918 46.0819V46.0981ZM70.1992 45.5937L70.7963 45.9407C70.8246 45.9407 70.8246 45.977 70.7963 45.9931L70.1548 46.3644C70.1405 46.3721 70.1246 46.3762 70.1084 46.3762C70.0921 46.3762 70.0762 46.3721 70.062 46.3644L69.4648 46.0174C69.4365 46.0174 69.4365 45.981 69.4648 45.9649L70.1063 45.5937C70.1192 45.5833 70.1344 45.5764 70.1506 45.5736C70.1669 45.5707 70.1836 45.5721 70.1992 45.5775V45.5937ZM78.0714 53.0987L77.4742 52.7517C77.446 52.7517 77.446 52.7154 77.4742 52.6993L78.1158 52.3281C78.13 52.3203 78.146 52.3162 78.1622 52.3162C78.1784 52.3162 78.1944 52.3203 78.2086 52.3281L78.8058 52.6751C78.834 52.6751 78.834 52.7114 78.8058 52.7275L78.1642 53.0987C78.15 53.1065 78.134 53.1106 78.1178 53.1106C78.1016 53.1106 78.0856 53.1065 78.0714 53.0987ZM77.0102 52.4854L76.413 52.1425C76.3888 52.1425 76.3888 52.1021 76.413 52.09L77.0586 51.7147C77.0733 51.7086 77.0891 51.7055 77.105 51.7055C77.1209 51.7055 77.1367 51.7086 77.1514 51.7147L77.7486 52.0618C77.7728 52.0618 77.7728 52.1021 77.7486 52.1142L77.103 52.4854C77.0888 52.4932 77.0728 52.4973 77.0566 52.4973C77.0404 52.4973 77.0244 52.4932 77.0102 52.4854ZM78.947 53.6031L78.3458 53.2561C78.3216 53.2561 78.3216 53.2198 78.3458 53.2037L78.9914 52.8324C79.0056 52.8247 79.0216 52.8206 79.0378 52.8206C79.054 52.8206 79.0699 52.8247 79.0842 52.8324L79.6814 53.1795C79.7056 53.1795 79.7056 53.2158 79.6814 53.2319L79.0358 53.6031C79.0223 53.6109 79.007 53.615 78.9914 53.615C78.9758 53.615 78.9605 53.6109 78.947 53.6031ZM74.2947 49.0073L74.8959 49.3502C74.9201 49.3502 74.9201 49.3906 74.8959 49.4027L74.2503 49.778C74.2356 49.7841 74.2198 49.7872 74.2039 49.7872C74.1879 49.7872 74.1722 49.7841 74.1575 49.778L73.5603 49.431C73.5361 49.431 73.5361 49.3906 73.5603 49.3785L74.2059 49.0073C74.2194 48.9995 74.2347 48.9954 74.2503 48.9954C74.2659 48.9954 74.2812 48.9995 74.2947 49.0073ZM79.9114 54.1075C79.8971 54.1153 79.8812 54.1193 79.8649 54.1193C79.8487 54.1193 79.8328 54.1153 79.8185 54.1075L79.2214 53.7645C79.2163 53.7617 79.2121 53.7576 79.2092 53.7527C79.2063 53.7477 79.2047 53.742 79.2047 53.7363C79.2047 53.7305 79.2063 53.7248 79.2092 53.7199C79.2121 53.7149 79.2163 53.7108 79.2214 53.708L79.867 53.3368C79.8817 53.3307 79.8975 53.3276 79.9134 53.3276C79.9293 53.3276 79.9451 53.3307 79.9598 53.3368L80.5569 53.6838C80.5812 53.6838 80.5812 53.7201 80.5569 53.7363L79.9114 54.1075ZM71.0747 46.0819L71.6719 46.4289C71.7002 46.4289 71.7002 46.4652 71.6719 46.4814L71.0304 46.8526C71.0161 46.8604 71.0002 46.8644 70.984 46.8644C70.9677 46.8644 70.9518 46.8604 70.9375 46.8526L70.3363 46.5096C70.3313 46.5068 70.3271 46.5027 70.3242 46.4978C70.3212 46.4928 70.3197 46.4871 70.3197 46.4814C70.3197 46.4756 70.3212 46.47 70.3242 46.465C70.3271 46.46 70.3313 46.4559 70.3363 46.4531L70.9819 46.0819C71.0117 46.07 71.0449 46.07 71.0747 46.0819ZM81.7997 52.2756L82.3969 52.6186C82.402 52.6214 82.4062 52.6255 82.4091 52.6304C82.412 52.6354 82.4136 52.6411 82.4136 52.6468C82.4136 52.6526 82.412 52.6583 82.4091 52.6632C82.4062 52.6682 82.402 52.6723 82.3969 52.6751L81.7513 53.0463C81.7373 53.0523 81.7222 53.0554 81.7069 53.0554C81.6917 53.0554 81.6766 53.0523 81.6625 53.0463L81.0613 52.6993C81.0371 52.6993 81.0371 52.663 81.0613 52.6468L81.7069 52.2756C81.7211 52.2678 81.7371 52.2638 81.7533 52.2638C81.7695 52.2638 81.7855 52.2678 81.7997 52.2756ZM80.0042 52.2998L80.6013 52.6468C80.6296 52.6468 80.6296 52.6831 80.6013 52.6993L79.9598 53.0705C79.9455 53.0783 79.9296 53.0823 79.9134 53.0823C79.8972 53.0823 79.8812 53.0783 79.867 53.0705L79.2658 52.7275C79.2415 52.7275 79.2415 52.6872 79.2658 52.6751L79.9114 52.2998C79.9267 52.2934 79.9431 52.2901 79.9598 52.2901C79.9764 52.2901 79.9929 52.2934 80.0082 52.2998H80.0042ZM80.8152 53.5749C80.801 53.5826 80.785 53.5867 80.7688 53.5867C80.7526 53.5867 80.7366 53.5826 80.7224 53.5749L80.1252 53.2319C80.101 53.2319 80.101 53.1916 80.1252 53.1795L80.7708 52.8042C80.7855 52.7981 80.8013 52.7949 80.8172 52.7949C80.8331 52.7949 80.8489 52.7981 80.8636 52.8042L81.4608 53.1512C81.485 53.1512 81.485 53.1916 81.4608 53.2037L80.8152 53.5749ZM81.0008 53.6838L82.5664 52.78C82.5806 52.7722 82.5966 52.7681 82.6128 52.7681C82.629 52.7681 82.6449 52.7722 82.6592 52.78L83.2563 53.123C83.2614 53.1257 83.2656 53.1298 83.2685 53.1348C83.2715 53.1398 83.273 53.1454 83.273 53.1512C83.273 53.157 83.2715 53.1626 83.2685 53.1676C83.2656 53.1726 83.2614 53.1767 83.2563 53.1795L81.6908 54.0833C81.6761 54.0894 81.6603 54.0925 81.6444 54.0925C81.6284 54.0925 81.6127 54.0894 81.598 54.0833L81.0008 53.7363C80.9927 53.7201 80.9927 53.6959 81.0169 53.6838H81.0008ZM78.9833 52.5661L78.3861 52.2232C78.3579 52.2232 78.3579 52.1828 78.3861 52.1667L79.0277 51.7955C79.0424 51.7893 79.0582 51.7862 79.0741 51.7862C79.09 51.7862 79.1058 51.7893 79.1205 51.7955L79.7217 52.1425C79.7459 52.1425 79.7459 52.1788 79.7217 52.1949L79.0761 52.5661C79.0629 52.5726 79.0484 52.5759 79.0337 52.5759C79.0191 52.5759 79.0046 52.5726 78.9914 52.5661H78.9833ZM72.4022 48.7652L71.801 48.4222C71.7768 48.4222 71.7768 48.3819 71.801 48.3697L72.4466 47.9945C72.4764 47.9826 72.5096 47.9826 72.5394 47.9945L73.1366 48.3415C73.1649 48.3415 73.1649 48.3819 73.1366 48.394L72.4951 48.7652C72.4819 48.7716 72.4674 48.7749 72.4527 48.7749C72.438 48.7749 72.4235 48.7716 72.4103 48.7652H72.4022ZM80.8152 51.7712C80.8294 51.7635 80.8454 51.7594 80.8616 51.7594C80.8778 51.7594 80.8938 51.7635 80.908 51.7712L81.5052 52.1142C81.5334 52.1142 81.5334 52.1546 81.5052 52.1667L80.8636 52.5419C80.8489 52.548 80.8331 52.5512 80.8172 52.5512C80.8013 52.5512 80.7855 52.548 80.7708 52.5419L80.1736 52.1949C80.1454 52.1949 80.1454 52.1546 80.1736 52.1425L80.8152 51.7712ZM73.2657 49.2736L72.6686 48.9266C72.6443 48.9266 72.6443 48.8862 72.6686 48.8741L73.3142 48.5029C73.3284 48.4951 73.3443 48.4911 73.3606 48.4911C73.3768 48.4911 73.3927 48.4951 73.407 48.5029L74.0041 48.8459C74.0283 48.8459 74.0283 48.8862 74.0041 48.8983L73.3585 49.2736C73.3337 49.2819 73.3068 49.2819 73.2819 49.2736H73.2657ZM66.5919 43.556C66.6066 43.5499 66.6224 43.5468 66.6383 43.5468C66.6542 43.5468 66.67 43.5499 66.6847 43.556L67.2819 43.903C67.3101 43.903 67.3101 43.9434 67.2819 43.9555L66.6403 44.3267C66.6261 44.3345 66.6101 44.3385 66.5939 44.3385C66.5777 44.3385 66.5617 44.3345 66.5475 44.3267L65.9503 43.9837C65.9221 43.9837 65.9221 43.9434 65.9503 43.9313L66.5919 43.556ZM65.3814 44.7262L64.7802 44.3832C64.7751 44.3804 64.7709 44.3763 64.768 44.3713C64.7651 44.3664 64.7635 44.3607 64.7635 44.3549C64.7635 44.3492 64.7651 44.3435 64.768 44.3385C64.7709 44.3336 64.7751 44.3295 64.7802 44.3267L65.4258 43.9555C65.4405 43.9494 65.4562 43.9462 65.4722 43.9462C65.4881 43.9462 65.5039 43.9494 65.5186 43.9555L66.1158 44.3025C66.144 44.3025 66.144 44.3388 66.1158 44.3549L65.4742 44.7262C65.4545 44.7326 65.4333 44.7326 65.4137 44.7262H65.3814ZM67.5441 44.0644L68.1413 44.4074C68.1696 44.4074 68.1696 44.4477 68.1413 44.4599L67.4997 44.8351C67.485 44.8412 67.4693 44.8444 67.4534 44.8444C67.4374 44.8444 67.4216 44.8412 67.4069 44.8351L66.8057 44.4881C66.7815 44.4881 66.7815 44.4477 66.8057 44.4356L67.4513 44.0644C67.4688 44.0496 67.491 44.0415 67.5139 44.0415C67.5368 44.0415 67.5589 44.0496 67.5764 44.0644H67.5441ZM68.4197 44.5688L69.0169 44.9118C69.022 44.9146 69.0262 44.9187 69.0291 44.9236C69.032 44.9286 69.0336 44.9342 69.0336 44.94C69.0336 44.9458 69.032 44.9514 69.0291 44.9564C69.0262 44.9614 69.022 44.9655 69.0169 44.9683L68.3713 45.3395C68.3566 45.3456 68.3408 45.3487 68.3249 45.3487C68.309 45.3487 68.2932 45.3456 68.2785 45.3395L67.6813 44.9925C67.6571 44.9925 67.6571 44.9562 67.6813 44.94L68.3269 44.5688C68.3444 44.554 68.3666 44.5459 68.3895 44.5459C68.4124 44.5459 68.4345 44.554 68.452 44.5688H68.4197ZM69.2913 45.0732L69.8925 45.4202C69.9167 45.4202 69.9167 45.4565 69.8925 45.4726L69.2469 45.8439C69.2327 45.8516 69.2167 45.8557 69.2005 45.8557C69.1843 45.8557 69.1683 45.8516 69.1541 45.8439L68.5569 45.4968C68.5327 45.4968 68.5327 45.4605 68.5569 45.4444L69.2025 45.0732C69.2189 45.0579 69.2406 45.0493 69.263 45.0493C69.2855 45.0493 69.3071 45.0579 69.3236 45.0732H69.2913ZM66.257 45.2305L65.6558 44.8876C65.6315 44.8876 65.6315 44.8472 65.6558 44.8351L66.3014 44.4599C66.3161 44.4537 66.3318 44.4506 66.3478 44.4506C66.3637 44.4506 66.3795 44.4537 66.3942 44.4599L66.9913 44.8069C67.0155 44.8069 67.0155 44.8472 66.9913 44.8593L66.3457 45.2305C66.3274 45.2367 66.3076 45.2367 66.2893 45.2305H66.257ZM67.1608 45.747L66.5636 45.4C66.5394 45.4 66.5394 45.3597 66.5636 45.3475L67.2092 44.9763C67.2235 44.9686 67.2394 44.9645 67.2556 44.9645C67.2718 44.9645 67.2878 44.9686 67.302 44.9763L67.8992 45.3193C67.9234 45.3193 67.9234 45.3597 67.8992 45.3718L67.2536 45.747C67.2389 45.7531 67.2231 45.7563 67.2072 45.7563C67.1913 45.7563 67.1755 45.7531 67.1608 45.747ZM70.6591 47.7645L70.062 47.4175C70.0378 47.4175 70.0378 47.3812 70.062 47.365L70.7076 46.9938C70.7211 46.986 70.7364 46.9819 70.7519 46.9819C70.7675 46.9819 70.7828 46.986 70.7963 46.9938L71.3975 47.3408C71.4218 47.3408 71.4218 47.3771 71.3975 47.3933L70.7519 47.7645C70.7377 47.7723 70.7218 47.7763 70.7055 47.7763C70.6893 47.7763 70.6734 47.7723 70.6591 47.7645ZM69.7876 47.2601L69.1864 46.9131C69.1622 46.9131 69.1622 46.8768 69.1864 46.8607L69.832 46.4894C69.8462 46.4817 69.8622 46.4776 69.8784 46.4776C69.8946 46.4776 69.9105 46.4817 69.9248 46.4894L70.5219 46.8365C70.5462 46.8365 70.5462 46.8728 70.5219 46.8889L69.8764 47.2601C69.8622 47.2667 69.8465 47.2695 69.8309 47.268C69.8153 47.2666 69.8004 47.2611 69.7876 47.2521V47.2601ZM71.5347 48.2689L70.9375 47.9259C70.9093 47.9259 70.9093 47.8855 70.9375 47.8694L71.5791 47.4982C71.5938 47.4921 71.6096 47.4889 71.6255 47.4889C71.6414 47.4889 71.6572 47.4921 71.6719 47.4982L72.2731 47.8452C72.2973 47.8452 72.2973 47.8815 72.2731 47.8977L71.6275 48.2689C71.6126 48.2754 71.5963 48.2781 71.5801 48.2767C71.5639 48.2753 71.5483 48.2698 71.5347 48.2608V48.2689ZM68.0364 46.2514L67.4392 45.9044C67.411 45.9044 67.411 45.8681 67.4392 45.8519L68.0808 45.4807C68.095 45.4729 68.111 45.4689 68.1272 45.4689C68.1434 45.4689 68.1594 45.4729 68.1736 45.4807L68.7748 45.8237C68.7799 45.8265 68.7841 45.8306 68.787 45.8355C68.7899 45.8405 68.7915 45.8462 68.7915 45.8519C68.7915 45.8577 68.7899 45.8633 68.787 45.8683C68.7841 45.8733 68.7799 45.8774 68.7748 45.8802L68.1292 46.2514C68.0984 46.2607 68.0651 46.2579 68.0364 46.2433V46.2514ZM68.912 46.7558L68.3108 46.4087C68.2866 46.4087 68.2866 46.3724 68.3108 46.3563L68.9564 45.9851C68.9706 45.9773 68.9866 45.9732 69.0028 45.9732C69.019 45.9732 69.0349 45.9773 69.0492 45.9851L69.6464 46.328C69.6746 46.328 69.6746 46.3684 69.6464 46.3845L69.0048 46.7558C68.9896 46.7606 68.9735 46.7624 68.9576 46.761C68.9417 46.7596 68.9262 46.7551 68.912 46.7477V46.7558ZM68.0808 43.3018L68.682 43.6448C68.7062 43.6448 68.7062 43.6851 68.682 43.6972L68.0364 44.0725C68.0217 44.0786 68.0059 44.0817 67.99 44.0817C67.9741 44.0817 67.9583 44.0786 67.9436 44.0725L67.3464 43.7255C67.3222 43.7255 67.3222 43.6851 67.3464 43.673L67.992 43.3018C68.0048 43.2928 68.0197 43.2872 68.0353 43.2858C68.0509 43.2844 68.0666 43.2871 68.0808 43.2937V43.3018ZM63.1581 43.7053L62.5125 44.0806C62.4978 44.0867 62.482 44.0898 62.4661 44.0898C62.4502 44.0898 62.4344 44.0867 62.4197 44.0806L61.8225 43.7336C61.7983 43.7336 61.7983 43.6932 61.8225 43.6811L62.4681 43.3099C62.4824 43.3021 62.4983 43.298 62.5145 43.298C62.5307 43.298 62.5467 43.3021 62.5609 43.3099L63.1581 43.6529C63.1823 43.6529 63.1823 43.6771 63.1581 43.6892V43.7053ZM64.4009 43.3623L63.7553 43.7336C63.7411 43.7413 63.7251 43.7454 63.7089 43.7454C63.6927 43.7454 63.6767 43.7413 63.6625 43.7336L62.7425 43.2009C62.7183 43.2009 62.7183 43.1646 62.7425 43.1485L63.3881 42.7773C63.4023 42.7695 63.4183 42.7654 63.4345 42.7654C63.4507 42.7654 63.4667 42.7695 63.4809 42.7773L64.4009 43.3099C64.4251 43.326 64.4251 43.326 64.4009 43.3462V43.3623ZM62.1776 44.4316L61.532 44.8028C61.5185 44.8106 61.5032 44.8147 61.4876 44.8147C61.472 44.8147 61.4567 44.8106 61.4432 44.8028L60.7048 44.3792C60.6806 44.3792 60.6806 44.3388 60.7048 44.3267L61.3504 43.9555C61.3647 43.9477 61.3806 43.9436 61.3968 43.9436C61.4131 43.9436 61.429 43.9477 61.4432 43.9555L62.1776 44.359C62.2018 44.3792 62.2018 44.3993 62.1776 44.4155V44.4316ZM62.7425 44.7584C62.7567 44.7507 62.7727 44.7466 62.7889 44.7466C62.8051 44.7466 62.8211 44.7507 62.8353 44.7584L63.4325 45.1014C63.4607 45.1014 63.4607 45.1418 63.4325 45.1579L62.7909 45.5291C62.7762 45.5352 62.7604 45.5384 62.7445 45.5384C62.7286 45.5384 62.7128 45.5352 62.6981 45.5291L62.0969 45.1821C62.0727 45.1821 62.0727 45.1458 62.0969 45.1297L62.7425 44.7584ZM65.567 42.9629L64.9214 43.3341C64.9072 43.3419 64.8912 43.3459 64.875 43.3459C64.8588 43.3459 64.8428 43.3419 64.8286 43.3341L63.6786 42.6724C63.6736 42.6696 63.6694 42.6655 63.6664 42.6605C63.6635 42.6555 63.662 42.6499 63.662 42.6441C63.662 42.6383 63.6635 42.6327 63.6664 42.6277C63.6694 42.6227 63.6736 42.6187 63.6786 42.6159L64.3242 42.2446C64.354 42.2327 64.3872 42.2327 64.417 42.2446L65.567 42.9104C65.5751 42.9225 65.5751 42.9225 65.5509 42.9467L65.567 42.9629ZM66.0714 42.1922L65.4298 42.5634C65.4156 42.5712 65.3996 42.5752 65.3834 42.5752C65.3672 42.5752 65.3512 42.5712 65.337 42.5634L64.5986 42.1599C64.5744 42.1599 64.5744 42.1196 64.5986 42.1075L65.2442 41.7322C65.274 41.7203 65.3072 41.7203 65.337 41.7322L66.0552 42.1155C66.0835 42.1357 66.0835 42.1599 66.0552 42.176L66.0714 42.1922ZM69.263 48.511C69.2771 48.505 69.2922 48.5019 69.3074 48.5019C69.3227 48.5019 69.3378 48.505 69.3518 48.511L69.953 48.858C69.9772 48.858 69.9772 48.8943 69.953 48.9104L69.3074 49.2817C69.2932 49.2894 69.2772 49.2935 69.261 49.2935C69.2448 49.2935 69.2288 49.2894 69.2146 49.2817L68.6174 48.9387C68.6124 48.9359 68.6082 48.9318 68.6053 48.9268C68.6023 48.9219 68.6008 48.9162 68.6008 48.9104C68.6008 48.9047 68.6023 48.899 68.6053 48.894C68.6082 48.8891 68.6124 48.885 68.6174 48.8822L69.263 48.511ZM67.5119 47.5022C67.5261 47.4945 67.542 47.4904 67.5583 47.4904C67.5745 47.4904 67.5904 47.4945 67.6047 47.5022L68.2018 47.8492C68.2301 47.8492 68.2301 47.8856 68.2018 47.9017L67.5603 48.2729C67.546 48.2807 67.5301 48.2848 67.5139 48.2848C67.4977 48.2848 67.4817 48.2807 67.4675 48.2729L66.8663 47.9259C66.842 47.9259 66.842 47.8896 66.8663 47.8734L67.5119 47.5022ZM63.6342 45.2628C63.6485 45.255 63.6644 45.251 63.6806 45.251C63.6969 45.251 63.7128 45.255 63.727 45.2628L64.3242 45.6098C64.3484 45.6098 64.3484 45.6461 64.3242 45.6623L63.6786 46.0335C63.6644 46.0413 63.6484 46.0453 63.6322 46.0453C63.616 46.0453 63.6 46.0413 63.5858 46.0335L62.9886 45.6865C62.9644 45.6865 62.9644 45.6502 62.9886 45.634L63.6342 45.2628ZM68.3874 48.0066C68.4017 47.9988 68.4176 47.9948 68.4338 47.9948C68.4501 47.9948 68.466 47.9988 68.4802 48.0066L69.0774 48.3536C69.1016 48.3536 69.1016 48.3899 69.0774 48.4061L68.4318 48.7773C68.4176 48.785 68.4016 48.7891 68.3854 48.7891C68.3692 48.7891 68.3533 48.785 68.339 48.7773L67.7418 48.4303C67.7176 48.4303 67.7176 48.394 67.7418 48.3778L68.3874 48.0066ZM66.6363 46.9979C66.6505 46.9901 66.6665 46.986 66.6827 46.986C66.6989 46.986 66.7148 46.9901 66.7291 46.9979L67.3262 47.3408C67.3545 47.3408 67.3545 47.3812 67.3262 47.3973L66.6847 47.7685C66.67 47.7746 66.6542 47.7778 66.6383 47.7778C66.6224 47.7778 66.6066 47.7746 66.5919 47.7685L65.9947 47.4215C65.9664 47.4215 65.9664 47.3852 65.9947 47.3691L66.6363 46.9979ZM66.5354 42.1559C66.5207 42.162 66.5049 42.1651 66.489 42.1651C66.4731 42.1651 66.4573 42.162 66.4426 42.1559L65.5226 41.6233C65.4944 41.6233 65.4944 41.5869 65.5226 41.5708L66.1642 41.1996C66.1784 41.1918 66.1944 41.1877 66.2106 41.1877C66.2268 41.1877 66.2427 41.1918 66.257 41.1996L67.1608 41.712C67.1891 41.712 67.1891 41.7524 67.1608 41.7685L66.5354 42.1559ZM65.3814 46.2877C65.3961 46.2816 65.4119 46.2784 65.4278 46.2784C65.4437 46.2784 65.4595 46.2816 65.4742 46.2877L66.0714 46.6347C66.0996 46.6347 66.0996 46.671 66.0714 46.6872L65.4298 47.0584C65.4156 47.0661 65.3996 47.0702 65.3834 47.0702C65.3672 47.0702 65.3512 47.0661 65.337 47.0584L64.7398 46.7154C64.7116 46.7154 64.7116 46.6751 64.7398 46.6589L65.3814 46.2877ZM64.5098 45.7833C64.5233 45.7755 64.5386 45.7714 64.5542 45.7714C64.5698 45.7714 64.5851 45.7755 64.5986 45.7833L65.1998 46.1303C65.224 46.1303 65.224 46.1666 65.1998 46.1828L64.5542 46.554C64.54 46.5618 64.524 46.5658 64.5078 46.5658C64.4916 46.5658 64.4756 46.5618 64.4614 46.554L63.8642 46.207C63.84 46.207 63.84 46.1707 63.8642 46.1545L64.5098 45.7833ZM82.7197 51.4767C82.7055 51.4845 82.6895 51.4885 82.6733 51.4885C82.6571 51.4885 82.6411 51.4845 82.6269 51.4767L81.1541 50.6253C81.1299 50.6253 81.1299 50.589 81.1541 50.5729L81.7997 50.2016C81.814 50.1939 81.8299 50.1898 81.8461 50.1898C81.8623 50.1898 81.8783 50.1939 81.8925 50.2016L83.3653 51.053C83.3895 51.053 83.3895 51.0893 83.3653 51.1055L82.7197 51.4767ZM80.7869 50.363C80.7572 50.3749 80.7239 50.3749 80.6941 50.363L80.097 50.016C80.0687 50.016 80.0687 49.9757 80.097 49.9636L80.7385 49.5923C80.7528 49.5846 80.7687 49.5805 80.7849 49.5805C80.8011 49.5805 80.8171 49.5846 80.8313 49.5923L81.4325 49.9353C81.4568 49.9353 81.4568 49.9757 81.4325 49.9878L80.7869 50.363ZM68.9564 43.7981L69.5536 44.1411C69.5818 44.1411 69.5818 44.1814 69.5536 44.1976L68.912 44.5688C68.8973 44.5749 68.8815 44.578 68.8656 44.578C68.8497 44.578 68.8339 44.5749 68.8192 44.5688L68.222 44.2218C68.1938 44.2218 68.1938 44.1855 68.222 44.1693L68.8636 43.7981C68.8778 43.7903 68.8938 43.7863 68.91 43.7863C68.9262 43.7863 68.9421 43.7903 68.9564 43.7981ZM79.0438 49.3502C79.0303 49.358 79.015 49.3621 78.9994 49.3621C78.9839 49.3621 78.9686 49.358 78.9551 49.3502L78.3538 49.0073C78.3488 49.0045 78.3446 49.0004 78.3417 48.9954C78.3387 48.9905 78.3372 48.9848 78.3372 48.979C78.3372 48.9733 78.3387 48.9676 78.3417 48.9626C78.3446 48.9577 78.3488 48.9536 78.3538 48.9508L78.9994 48.5796C79.0292 48.5677 79.0625 48.5677 79.0923 48.5796L79.6894 48.9266C79.7136 48.9266 79.7136 48.9629 79.6894 48.979L79.0438 49.3502ZM83.6034 51.9811C83.5891 51.9888 83.5732 51.9929 83.557 51.9929C83.5407 51.9929 83.5248 51.9888 83.5106 51.9811L82.9134 51.6381C82.8851 51.6381 82.8851 51.5977 82.9134 51.5856L83.5549 51.2104C83.5697 51.2043 83.5854 51.2011 83.6013 51.2011C83.6173 51.2011 83.633 51.2043 83.6477 51.2104L84.2449 51.5574C84.2732 51.5574 84.2732 51.5937 84.2449 51.6098L83.6034 51.9811ZM85.1205 52.1142L83.5549 53.018C83.5415 53.0258 83.5261 53.0299 83.5106 53.0299C83.495 53.0299 83.4797 53.0258 83.4662 53.018L82.865 52.6751C82.8599 52.6723 82.8557 52.6682 82.8528 52.6632C82.8498 52.6583 82.8483 52.6526 82.8483 52.6468C82.8483 52.6411 82.8498 52.6354 82.8528 52.6304C82.8557 52.6255 82.8599 52.6214 82.865 52.6186L84.4305 51.7147C84.4603 51.7028 84.4935 51.7028 84.5233 51.7147L85.1205 52.0618C85.1407 52.0779 85.1407 52.1021 85.1124 52.1142H85.1205ZM75.7755 47.4659C75.7615 47.4719 75.7464 47.475 75.7311 47.475C75.7159 47.475 75.7008 47.4719 75.6867 47.4659L74.9483 47.0382C74.9241 47.0382 74.9241 47.0019 74.9483 46.9858L75.5939 46.6145C75.6082 46.6068 75.6241 46.6027 75.6403 46.6027C75.6565 46.6027 75.6725 46.6068 75.6867 46.6145L76.4211 47.018C76.4453 47.018 76.4453 47.0584 76.4211 47.0705L75.7755 47.4659ZM77.9907 48.741C77.976 48.7471 77.9602 48.7502 77.9443 48.7502C77.9284 48.7502 77.9126 48.7471 77.8979 48.741L76.9779 48.2084C76.9537 48.2084 76.9537 48.172 76.9779 48.1559L77.6235 47.7847C77.6377 47.7769 77.6537 47.7728 77.6699 47.7728C77.6861 47.7728 77.7021 47.7769 77.7163 47.7847L78.6363 48.3133C78.6413 48.3161 78.6456 48.3201 78.6485 48.3251C78.6514 48.3301 78.6529 48.3357 78.6529 48.3415C78.6529 48.3473 78.6514 48.3529 78.6485 48.3579C78.6456 48.3629 78.6413 48.367 78.6363 48.3697L77.9907 48.741ZM73.758 46.2958C73.7438 46.3035 73.7278 46.3076 73.7116 46.3076C73.6954 46.3076 73.6794 46.3035 73.6652 46.2958L68.7102 43.4511C68.686 43.4511 68.686 43.4148 68.7102 43.3986L69.3558 43.0274C69.3701 43.0197 69.386 43.0156 69.4022 43.0156C69.4185 43.0156 69.4344 43.0197 69.4486 43.0274L74.3713 45.8721C74.3996 45.8721 74.3996 45.9084 74.3713 45.9246L73.758 46.2958ZM68.5529 43.2937C68.5388 43.2997 68.5238 43.3028 68.5085 43.3028C68.4932 43.3028 68.4781 43.2997 68.4641 43.2937L67.7257 42.866C67.7015 42.866 67.7015 42.8297 67.7257 42.8136L68.3713 42.4424C68.3855 42.4346 68.4015 42.4305 68.4177 42.4305C68.4339 42.4305 68.4499 42.4346 68.4641 42.4424L69.1985 42.866C69.2267 42.866 69.2267 42.9064 69.1985 42.9185L68.5529 43.2937ZM74.7627 46.8808C74.748 46.8869 74.7322 46.8901 74.7163 46.8901C74.7004 46.8901 74.6846 46.8869 74.6699 46.8808L73.9315 46.4531C73.9073 46.4531 73.9073 46.4168 73.9315 46.4007L74.5771 46.0295C74.5913 46.0217 74.6073 46.0176 74.6235 46.0176C74.6397 46.0176 74.6557 46.0217 74.6699 46.0295L75.4043 46.4531C75.4325 46.4531 75.4325 46.4935 75.4043 46.5096L74.7627 46.8808ZM67.5361 42.7087C67.5214 42.7148 67.5056 42.7179 67.4897 42.7179C67.4737 42.7179 67.458 42.7148 67.4433 42.7087L66.7049 42.281C66.6806 42.281 66.6806 42.2446 66.7049 42.2285L67.3505 41.8573C67.3647 41.8495 67.3806 41.8454 67.3969 41.8454C67.4131 41.8454 67.429 41.8495 67.4433 41.8573L68.1776 42.2608C68.2059 42.2608 68.2059 42.3011 68.1776 42.3173L67.5361 42.7087ZM76.7802 48.051C76.7662 48.057 76.7511 48.0601 76.7358 48.0601C76.7206 48.0601 76.7055 48.057 76.6914 48.051L75.953 47.6233C75.9288 47.6233 75.9288 47.587 75.953 47.5708L76.5986 47.1996C76.6129 47.1918 76.6288 47.1878 76.645 47.1878C76.6613 47.1878 76.6772 47.1918 76.6914 47.1996L77.4258 47.6233C77.45 47.6233 77.45 47.6636 77.4258 47.6757L76.7802 48.051ZM79.9114 49.8546C79.8971 49.8624 79.8812 49.8665 79.8649 49.8665C79.8487 49.8665 79.8328 49.8624 79.8185 49.8546L79.2214 49.5117C79.1972 49.5117 79.1972 49.4713 79.2214 49.4592L79.867 49.0839C79.8817 49.0778 79.8975 49.0747 79.9134 49.0747C79.9293 49.0747 79.9451 49.0778 79.9598 49.0839L80.5569 49.431C80.5812 49.431 80.5812 49.4713 80.5569 49.4834L79.9114 49.8546ZM81.8441 51.2386L82.4453 51.5856C82.4695 51.5856 82.4695 51.6219 82.4453 51.6381L81.7997 52.0093C81.7855 52.0171 81.7695 52.0211 81.7533 52.0211C81.7371 52.0211 81.7211 52.0171 81.7069 52.0093L81.1097 51.6623C81.0815 51.6623 81.0815 51.626 81.1097 51.6098L81.7513 51.2386C81.7655 51.2309 81.7815 51.2268 81.7977 51.2268C81.8139 51.2268 81.8299 51.2309 81.8441 51.2386ZM78.0714 51.1862L78.6686 51.5291C78.6736 51.5319 78.6778 51.536 78.6808 51.541C78.6837 51.546 78.6852 51.5516 78.6852 51.5574C78.6852 51.5631 78.6837 51.5688 78.6808 51.5738C78.6778 51.5787 78.6736 51.5828 78.6686 51.5856L78.023 51.9569C78.0089 51.9628 77.9939 51.9659 77.9786 51.9659C77.9633 51.9659 77.9482 51.9628 77.9342 51.9569L77.333 51.6098C77.3088 51.6098 77.3088 51.5735 77.333 51.5574L77.9786 51.1862C77.9928 51.1784 78.0088 51.1743 78.025 51.1743C78.0412 51.1743 78.0572 51.1784 78.0714 51.1862ZM75.953 47.8371L77.7042 48.8459C77.7284 48.8459 77.7284 48.8862 77.7042 48.8983L77.0586 49.2736C77.0288 49.2855 76.9956 49.2855 76.9658 49.2736L75.2187 48.2608C75.1904 48.2608 75.1904 48.2245 75.2187 48.2084L75.8602 47.8371C75.8745 47.8294 75.8904 47.8253 75.9066 47.8253C75.9228 47.8253 75.9388 47.8294 75.953 47.8371ZM80.8798 50.7342C80.894 50.7265 80.9099 50.7224 80.9261 50.7224C80.9424 50.7224 80.9583 50.7265 80.9726 50.7342L81.5697 51.0772C81.5748 51.08 81.579 51.0841 81.5819 51.0891C81.5848 51.094 81.5864 51.0997 81.5864 51.1055C81.5864 51.1112 81.5848 51.1169 81.5819 51.1219C81.579 51.1268 81.5748 51.1309 81.5697 51.1337L80.9241 51.5049C80.9094 51.511 80.8937 51.5142 80.8777 51.5142C80.8618 51.5142 80.846 51.511 80.8313 51.5049L80.2342 51.1579C80.2099 51.1579 80.2099 51.1216 80.2342 51.1055L80.8798 50.7342ZM80.0485 51.2628L80.6498 51.6098C80.674 51.6098 80.674 51.6502 80.6498 51.6623L80.0042 52.0335C79.9899 52.0413 79.974 52.0454 79.9578 52.0454C79.9415 52.0454 79.9256 52.0413 79.9114 52.0335L79.3142 51.6905C79.29 51.6905 79.29 51.6502 79.3142 51.6381L79.9598 51.2628C79.9738 51.2568 79.9889 51.2537 80.0042 51.2537C80.0194 51.2537 80.0345 51.2568 80.0485 51.2628ZM75.0774 47.3328L75.6787 47.6757C75.6837 47.6785 75.6879 47.6826 75.6908 47.6876C75.6938 47.6926 75.6953 47.6982 75.6953 47.704C75.6953 47.7097 75.6938 47.7154 75.6908 47.7204C75.6879 47.7253 75.6837 47.7294 75.6787 47.7322L75.0331 48.1034C75.0033 48.1153 74.97 48.1153 74.9403 48.1034L74.3592 47.7645C74.335 47.7645 74.335 47.7282 74.3592 47.712L75.0048 47.3408C75.0157 47.3344 75.0277 47.3304 75.0403 47.329C75.0528 47.3276 75.0655 47.3289 75.0774 47.3328ZM78.947 49.6166C78.961 49.6106 78.9761 49.6075 78.9914 49.6075C79.0066 49.6075 79.0217 49.6106 79.0358 49.6166L79.637 49.9636C79.6612 49.9636 79.6612 49.9999 79.637 50.016L78.9914 50.3872C78.9771 50.395 78.9612 50.3991 78.945 50.3991C78.9288 50.3991 78.9128 50.395 78.8986 50.3872L78.3014 50.0443C78.2963 50.0415 78.2921 50.0374 78.2892 50.0324C78.2863 50.0275 78.2847 50.0218 78.2847 50.016C78.2847 50.0103 78.2863 50.0046 78.2892 49.9996C78.2921 49.9947 78.2963 49.9906 78.3014 49.9878L78.947 49.6166ZM70.7076 44.8069L71.3047 45.1539C71.3289 45.1539 71.3289 45.1902 71.3047 45.2063L70.6591 45.5775C70.6449 45.5853 70.629 45.5894 70.6127 45.5894C70.5965 45.5894 70.5806 45.5853 70.5663 45.5775L69.9692 45.2305C69.9449 45.2305 69.9449 45.1942 69.9692 45.1781L70.6148 44.8069C70.629 44.7991 70.6449 44.795 70.6612 44.795C70.6774 44.795 70.6933 44.7991 70.7076 44.8069ZM71.5791 45.3112L72.1803 45.6582C72.2045 45.6582 72.2045 45.6946 72.1803 45.7107L71.5347 46.0819C71.5205 46.0897 71.5045 46.0938 71.4883 46.0938C71.4721 46.0938 71.4562 46.0897 71.4419 46.0819L70.8448 45.7389C70.8397 45.7361 70.8355 45.7321 70.8326 45.7271C70.8296 45.7221 70.8281 45.7165 70.8281 45.7107C70.8281 45.7049 70.8296 45.6993 70.8326 45.6943C70.8355 45.6893 70.8397 45.6852 70.8448 45.6824L71.4904 45.3112C71.5044 45.3052 71.5195 45.3022 71.5347 45.3022C71.55 45.3022 71.5651 45.3052 71.5791 45.3112ZM69.832 44.3025L70.4291 44.6495C70.4574 44.6495 70.4574 44.6858 70.4291 44.702L69.7876 45.0732C69.7734 45.0809 69.7574 45.085 69.7412 45.085C69.725 45.085 69.709 45.0809 69.6948 45.0732L69.0936 44.7262C69.0694 44.7262 69.0694 44.6898 69.0936 44.6737L69.7392 44.3025C69.7534 44.2947 69.7694 44.2906 69.7856 44.2906C69.8018 44.2906 69.8177 44.2947 69.832 44.3025ZM73.3303 46.32L73.9275 46.667C73.9517 46.667 73.9517 46.7073 73.9275 46.7194L73.2819 47.0907C73.2684 47.0985 73.2531 47.1026 73.2375 47.1026C73.2219 47.1026 73.2066 47.0985 73.1931 47.0907L72.5919 46.7477C72.5677 46.7477 72.5677 46.7073 72.5919 46.6952L73.2375 46.32C73.2673 46.3081 73.3005 46.3081 73.3303 46.32ZM72.4547 45.8156L73.0519 46.1626C73.0801 46.1626 73.0801 46.1989 73.0519 46.2151L72.4103 46.5863C72.3961 46.5941 72.3801 46.5981 72.3639 46.5981C72.3477 46.5981 72.3317 46.5941 72.3175 46.5863L71.7203 46.2433C71.6921 46.2433 71.6921 46.203 71.7203 46.1909L72.3619 45.8156C72.3766 45.8095 72.3924 45.8064 72.4083 45.8064C72.4242 45.8064 72.44 45.8095 72.4547 45.8156ZM74.2059 46.8284L74.8031 47.1714C74.8273 47.1714 74.8273 47.2117 74.8031 47.2238L74.1575 47.5991C74.1428 47.6052 74.127 47.6083 74.1111 47.6083C74.0951 47.6083 74.0794 47.6052 74.0647 47.5991L73.4675 47.2521C73.4433 47.2521 73.4433 47.2117 73.4675 47.1996L74.1131 46.8284C74.1273 46.8206 74.1433 46.8165 74.1595 46.8165C74.1757 46.8165 74.1917 46.8206 74.2059 46.8284ZM74.2059 51.3516C74.2194 51.3438 74.2347 51.3397 74.2503 51.3397C74.2659 51.3397 74.2812 51.3438 74.2947 51.3516L74.8959 51.6986C74.9201 51.6986 74.9201 51.7349 74.8959 51.7511L74.2503 52.1223C74.236 52.13 74.2201 52.1341 74.2039 52.1341C74.1877 52.1341 74.1717 52.13 74.1575 52.1223L73.5603 51.7753C73.5361 51.7753 73.5361 51.739 73.5603 51.7228L74.2059 51.3516ZM75.953 52.3604C75.9828 52.3485 76.016 52.3485 76.0458 52.3604L76.643 52.7074C76.6672 52.7074 76.6672 52.7437 76.643 52.7598L75.9974 53.131C75.9839 53.1388 75.9686 53.1429 75.953 53.1429C75.9375 53.1429 75.9221 53.1388 75.9086 53.131L75.3074 52.7881C75.2832 52.7881 75.2832 52.7477 75.3074 52.7356L75.953 52.3604ZM73.1286 50.7464C73.1433 50.7402 73.159 50.7371 73.175 50.7371C73.1909 50.7371 73.2066 50.7402 73.2213 50.7464L73.8185 51.0934C73.8427 51.0934 73.8427 51.1297 73.8185 51.1458L73.1729 51.517C73.1587 51.5248 73.1427 51.5289 73.1265 51.5289C73.1103 51.5289 73.0944 51.5248 73.0801 51.517L72.483 51.1741C72.4779 51.1713 72.4737 51.1672 72.4708 51.1622C72.4678 51.1572 72.4663 51.1516 72.4663 51.1458C72.4663 51.1401 72.4678 51.1344 72.4708 51.1294C72.4737 51.1245 72.4779 51.1204 72.483 51.1176L73.1286 50.7464ZM75.0694 51.8681C75.0841 51.862 75.0999 51.8588 75.1158 51.8588C75.1317 51.8588 75.1475 51.862 75.1622 51.8681L75.7594 52.2151C75.7876 52.2151 75.7876 52.2514 75.7594 52.2675L75.1178 52.6388C75.1036 52.6465 75.0876 52.6506 75.0714 52.6506C75.0552 52.6506 75.0392 52.6465 75.025 52.6388L74.4278 52.2958C74.3996 52.2958 74.3996 52.2554 74.4278 52.2393L75.0694 51.8681ZM71.3774 49.7376C71.3916 49.7298 71.4076 49.7258 71.4238 49.7258C71.44 49.7258 71.4559 49.7298 71.4702 49.7376L72.0674 50.0846C72.0956 50.0846 72.0956 50.1209 72.0674 50.1371L71.4258 50.5083C71.4116 50.5161 71.3956 50.5201 71.3794 50.5201C71.3632 50.5201 71.3472 50.5161 71.333 50.5083L70.7358 50.1613C70.7076 50.1613 70.7076 50.125 70.7358 50.1088L71.3774 49.7376ZM72.253 50.242C72.2672 50.2342 72.2831 50.2301 72.2994 50.2301C72.3156 50.2301 72.3315 50.2342 72.3458 50.242L72.9429 50.589C72.9712 50.589 72.9712 50.6253 72.9429 50.6414L72.3014 51.0127C72.2871 51.0204 72.2712 51.0245 72.255 51.0245C72.2388 51.0245 72.2228 51.0204 72.2086 51.0127L71.6074 50.6657C71.5831 50.6657 71.5831 50.6293 71.6074 50.6132L72.253 50.242ZM80.7264 53.8533C80.7411 53.8472 80.7569 53.844 80.7728 53.844C80.7887 53.844 80.8045 53.8472 80.8192 53.8533L81.4204 54.2003C81.4446 54.2003 81.4446 54.2366 81.4204 54.2527L80.7748 54.624C80.7606 54.6317 80.7447 54.6358 80.7284 54.6358C80.7122 54.6358 80.6963 54.6317 80.682 54.624L80.0849 54.281C80.0566 54.281 80.0566 54.2406 80.0849 54.2285L80.7264 53.8533ZM82.7076 51.7551L83.3048 52.1021C83.333 52.1021 83.333 52.1384 83.3048 52.1546L82.6632 52.5258C82.649 52.5335 82.633 52.5376 82.6168 52.5376C82.6006 52.5376 82.5846 52.5335 82.5704 52.5258L81.9692 52.1788C81.945 52.1788 81.945 52.1425 81.9692 52.1263L82.6148 51.7551C82.6292 51.7431 82.6468 51.7356 82.6654 51.7335C82.6841 51.7313 82.7029 51.7346 82.7197 51.743L82.7076 51.7551ZM70.4897 49.2332C70.5032 49.2254 70.5185 49.2213 70.534 49.2213C70.5496 49.2213 70.5649 49.2254 70.5784 49.2332L71.1796 49.5762C71.1847 49.579 71.1889 49.5831 71.1918 49.5881C71.1948 49.593 71.1963 49.5987 71.1963 49.6045C71.1963 49.6102 71.1948 49.6159 71.1918 49.6208C71.1889 49.6258 71.1847 49.6299 71.1796 49.6327L70.534 50.0039C70.5193 50.01 70.5036 50.0132 70.4877 50.0132C70.4717 50.0132 70.456 50.01 70.4413 50.0039L69.8441 49.6569C69.8199 49.6569 69.8199 49.6206 69.8441 49.6045L70.4897 49.2332Z" fill="#E0E0E0"/>
<path d="M79.3856 54.6239C79.3998 54.6161 79.4158 54.6121 79.432 54.6121C79.4482 54.6121 79.4642 54.6161 79.4784 54.6239L80.0756 54.9709C80.0998 54.9709 80.0998 55.0072 80.0756 55.0234L79.9061 55.1202C79.8919 55.128 79.8759 55.132 79.8597 55.132C79.8435 55.132 79.8275 55.128 79.8133 55.1202L79.2121 54.7772C79.1879 54.7772 79.1879 54.7369 79.2121 54.7248L79.3856 54.6239Z" fill="#E0E0E0"/>
<path d="M78.5115 54.1196C78.5257 54.1119 78.5417 54.1078 78.5579 54.1078C78.5741 54.1078 78.5901 54.1119 78.6043 54.1196L79.2015 54.4666C79.2297 54.4666 79.2297 54.503 79.2015 54.5191L79.032 54.6159C79.0178 54.6237 79.0018 54.6278 78.9856 54.6278C78.9694 54.6278 78.9534 54.6237 78.9392 54.6159L78.342 54.273C78.3138 54.273 78.3138 54.2326 78.342 54.2165L78.5115 54.1196Z" fill="#E0E0E0"/>
<path d="M77.6391 53.6152C77.6526 53.6074 77.6679 53.6033 77.6835 53.6033C77.699 53.6033 77.7144 53.6074 77.7278 53.6152L78.3291 53.9581C78.3341 53.9609 78.3383 53.965 78.3412 53.97C78.3442 53.975 78.3457 53.9806 78.3457 53.9864C78.3457 53.9922 78.3442 53.9978 78.3412 54.0028C78.3383 54.0077 78.3341 54.0118 78.3291 54.0146L78.1556 54.1115C78.1413 54.1192 78.1254 54.1233 78.1092 54.1233C78.0929 54.1233 78.077 54.1192 78.0627 54.1115L77.4656 53.7645C77.4414 53.7645 77.4414 53.7281 77.4656 53.712L77.6391 53.6152Z" fill="#E0E0E0"/>
<path d="M76.7801 53.1108C76.7944 53.1031 76.8103 53.099 76.8265 53.099C76.8428 53.099 76.8587 53.1031 76.873 53.1108L77.4701 53.4538C77.4943 53.4538 77.4943 53.4942 77.4701 53.5063L77.2966 53.6072C77.2831 53.6149 77.2678 53.619 77.2522 53.619C77.2367 53.619 77.2213 53.6149 77.2079 53.6072L76.6066 53.2601C76.5824 53.2601 76.5824 53.2238 76.6066 53.2077L76.7801 53.1108Z" fill="#E0E0E0"/>
<path d="M110.323 65.0786L89.692 53.1834C89.5841 53.1279 89.4644 53.0989 89.343 53.0989C89.2216 53.0989 89.1019 53.1279 88.994 53.1834L76.5824 60.3496C76.4803 60.4156 76.3952 60.5049 76.3342 60.6101C76.2732 60.7152 76.238 60.8334 76.2314 60.9548V61.0799C76.2373 61.2015 76.2723 61.3199 76.3334 61.4252C76.3944 61.5304 76.4798 61.6196 76.5824 61.6851L97.2092 73.5883C97.3172 73.6439 97.4368 73.6729 97.5582 73.6729C97.6797 73.6729 97.7993 73.6439 97.9073 73.5883L110.323 66.4222C110.425 66.3562 110.509 66.2669 110.57 66.1616C110.63 66.0563 110.664 65.9382 110.67 65.817V65.6757C110.663 65.5561 110.627 65.4398 110.567 65.3361C110.507 65.2324 110.423 65.1443 110.323 65.0786Z" fill="#37474F"/>
<path d="M110.674 65.6838V65.825C110.668 65.9461 110.633 66.064 110.573 66.1692C110.512 66.2743 110.428 66.3638 110.327 66.4303L97.9071 73.5883C97.8009 73.6465 97.6812 73.6758 97.5601 73.6731V64.5984H109.488L110.323 65.0786C110.425 65.1446 110.51 65.2338 110.571 65.339C110.632 65.4442 110.667 65.5624 110.674 65.6838Z" fill="#263238"/>
<path d="M110.322 65.0786L89.6911 53.1834C89.5832 53.1279 89.4635 53.0989 89.3421 53.0989C89.2207 53.0989 89.101 53.1279 88.9931 53.1834L76.5815 60.3496C76.3878 60.4585 76.3878 60.6401 76.5815 60.7531L97.1881 72.6522C97.2971 72.7045 97.4164 72.7316 97.5372 72.7316C97.658 72.7316 97.7773 72.7045 97.8862 72.6522L110.302 65.4821C110.516 65.3731 110.516 65.1915 110.322 65.0786Z" fill="#455A64"/>
<path d="M92.9928 56.9683C92.8839 56.9136 92.7637 56.8851 92.6418 56.8851C92.5199 56.8851 92.3997 56.9136 92.2907 56.9683C90.7534 57.8439 84.6848 61.3624 83.1596 62.246C82.9659 62.355 82.9659 62.5365 83.1596 62.6495C85.1771 63.8076 95.2121 69.6018 97.2094 70.7598C97.3176 70.8144 97.4372 70.8429 97.5584 70.8429C97.6796 70.8429 97.7992 70.8144 97.9074 70.7598L107.043 65.4821C107.084 65.4674 107.121 65.4401 107.146 65.4039C107.172 65.3678 107.186 65.3246 107.186 65.2803C107.186 65.236 107.172 65.1928 107.146 65.1567C107.121 65.1206 107.084 65.0933 107.043 65.0786L92.9928 56.9683Z" fill="#E0E0E0"/>
<path d="M86.4638 57.5776C87.0772 57.9327 87.0772 58.5097 86.4638 58.8607C86.1194 59.0358 85.7385 59.127 85.3522 59.127C84.9659 59.127 84.585 59.0358 84.2406 58.8607C83.6272 58.5097 83.6272 57.9327 84.2406 57.5776C84.5855 57.4044 84.9662 57.3142 85.3522 57.3142C85.7382 57.3142 86.1189 57.4044 86.4638 57.5776Z" fill="#E0E0E0"/>
<path d="M83.0097 58.9131L84.0063 59.4942C84.2968 59.6596 84.3493 59.8977 84.1233 60.0308C83.9732 60.0944 83.8102 60.1217 83.6475 60.1105C83.4849 60.0992 83.3272 60.0498 83.1872 59.9662L82.1906 59.3852C81.9 59.2198 81.8516 58.9817 82.0776 58.8486C82.227 58.785 82.3894 58.7577 82.5514 58.7689C82.7134 58.7802 82.8704 58.8296 83.0097 58.9131Z" fill="#E0E0E0"/>
<path d="M81.8485 59.587L82.833 60.168C83.1235 60.3375 83.1719 60.5715 82.946 60.7087C82.796 60.7704 82.6336 60.7963 82.4719 60.7844C82.3101 60.7725 82.1533 60.7231 82.0139 60.6401L81.0173 60.059C80.7267 59.8936 80.6743 59.6556 80.9002 59.5224C81.0522 59.4578 81.2173 59.4299 81.3821 59.4411C81.5469 59.4524 81.7067 59.5023 81.8485 59.587Z" fill="#E0E0E0"/>
<path d="M80.6815 60.273L81.6782 60.854C81.9687 61.0235 82.0211 61.2575 81.7952 61.3947C81.6446 61.4561 81.4819 61.4822 81.3196 61.471C81.1574 61.4598 80.9998 61.4116 80.8591 61.3301L79.8624 60.7451C79.5759 60.5796 79.5235 60.3416 79.7494 60.2084C79.8993 60.1467 80.0614 60.1205 80.223 60.1317C80.3847 60.1429 80.5416 60.1912 80.6815 60.273Z" fill="#E0E0E0"/>
<path d="M89.6918 55.0638L90.6885 55.6489C90.979 55.8144 91.0274 56.0524 90.8015 56.1856C90.6518 56.2482 90.4896 56.2749 90.3278 56.2637C90.1659 56.2525 90.009 56.2036 89.8694 56.121L88.8727 55.54C88.5822 55.3705 88.5298 55.1365 88.7557 54.9993C88.9063 54.9379 89.069 54.9117 89.2313 54.9229C89.3935 54.9341 89.5511 54.9823 89.6918 55.0638Z" fill="#E0E0E0"/>
<path d="M88.539 55.7416L89.5356 56.3226C89.8261 56.4881 89.8786 56.7261 89.6526 56.8593C89.5023 56.9219 89.3394 56.9487 89.1769 56.9375C89.0144 56.9263 88.8568 56.8774 88.7165 56.7947L87.7198 56.2137C87.4293 56.0483 87.3809 55.8102 87.6069 55.673C87.7569 55.6113 87.9192 55.5854 88.081 55.5973C88.2428 55.6092 88.3996 55.6586 88.539 55.7416Z" fill="#E0E0E0"/>
<path d="M87.3754 56.4155L88.3721 56.9965C88.6626 57.1619 88.711 57.4 88.4851 57.5372C88.335 57.5989 88.1727 57.6248 88.0109 57.6129C87.8491 57.601 87.6924 57.5516 87.553 57.4686L86.5563 56.8876C86.2658 56.7221 86.2134 56.4841 86.4393 56.3509C86.5894 56.2873 86.7524 56.26 86.9151 56.2713C87.0777 56.2825 87.2355 56.3319 87.3754 56.4155Z" fill="#E0E0E0"/>
<path d="M66.7688 60.3496L66.8697 60.2931C66.9716 60.2269 67.0564 60.1375 67.1174 60.0324C67.1784 59.9272 67.2138 59.8092 67.2207 59.6879V39.6945C67.2138 39.5732 67.1784 39.4552 67.1174 39.35C67.0564 39.2449 66.9716 39.1556 66.8697 39.0893L39.7707 23.3529C39.6628 23.2973 39.5431 23.2683 39.4217 23.2683C39.3003 23.2683 39.1806 23.2973 39.0727 23.3529L38.9072 23.4497C38.8051 23.5157 38.7201 23.605 38.6591 23.7102C38.5981 23.8154 38.5628 23.9335 38.5562 24.055V44.0644C38.5622 44.186 38.5971 44.3044 38.6582 44.4097C38.7193 44.515 38.8047 44.6041 38.9072 44.6697L66.0707 60.3537C66.179 60.4086 66.2988 60.4369 66.4202 60.4362C66.5417 60.4355 66.6612 60.4058 66.7688 60.3496Z" fill="#E0E0E0"/>
<path d="M59.8656 43.5197L67.0963 39.3314C67.1602 39.4348 67.1963 39.5529 67.2012 39.6744V59.6879C67.1942 59.8093 67.1589 59.9273 67.0979 60.0324C67.0369 60.1376 66.952 60.2269 66.8501 60.2931L66.7493 60.3496C66.6413 60.4052 66.5216 60.4342 66.4002 60.4342C66.2788 60.4342 66.1592 60.4052 66.0512 60.3496L59.8454 56.7666L59.8656 43.5197Z" fill="#37474F"/>
<path d="M38.9073 44.6656L66.0708 60.3496C66.2645 60.4626 66.4219 60.3697 66.4219 60.1478V40.1383C66.4159 40.0168 66.3809 39.8984 66.3199 39.7931C66.2588 39.6878 66.1734 39.5986 66.0708 39.5331L38.9073 23.8491C38.7137 23.7361 38.5563 23.8491 38.5563 24.0509V44.0604C38.5623 44.1819 38.5972 44.3003 38.6583 44.4056C38.7194 44.5109 38.8048 44.6001 38.9073 44.6656Z" fill="#455A64"/>
<path d="M51.6659 52.9817L52.0896 54.5432L52.5697 56.2379L54.8535 54.9185C54.7967 54.8115 54.7115 54.7222 54.6074 54.6602L52.2671 53.3045L51.6659 52.9817Z" fill="#E0E0E0"/>
<path d="M46.8041 54.4867C46.796 54.5998 46.8178 54.7131 46.8674 54.8151C46.917 54.9171 46.9926 55.0043 47.0865 55.0678L51.3273 57.517C51.4363 57.5752 51.5589 57.6031 51.6824 57.5977L52.0859 54.5472L52.2513 53.3368L53.3125 45.4363L48.4705 42.64C48.4024 42.747 48.3558 42.8662 48.3333 42.9911L46.8041 54.4867Z" fill="#37474F"/>
<path d="M48.4754 42.624L53.3174 45.4202L53.959 45.0167C53.9091 44.9044 53.826 44.81 53.7209 44.7464L49.4842 42.3012C49.3786 42.2473 49.2618 42.2192 49.1432 42.2192C49.0247 42.2192 48.9079 42.2473 48.8023 42.3012L48.7377 42.3415C48.6306 42.4152 48.541 42.5117 48.4754 42.624Z" fill="#E0E0E0"/>
<path d="M51.683 57.5978C51.7967 57.5968 51.9087 57.5692 52.0098 57.5171L54.5962 56.0241C54.6981 55.9579 54.783 55.8685 54.844 55.7634C54.9049 55.6583 54.9403 55.5402 54.9473 55.4189V55.2777C54.943 55.1561 54.9068 55.0378 54.8424 54.9347L52.5707 56.238L52.9136 53.6798L52.9661 53.2965L54.0192 45.3435C54.0287 45.235 54.0078 45.126 53.9587 45.0288L53.3171 45.4323L52.2559 53.3328L52.0905 54.5433L51.683 57.5978Z" fill="#263238"/>
<path d="M54.534 38.5204C54.308 38.3872 54.1305 38.5204 54.1305 38.7867V41.5628C54.1352 41.7094 54.1741 41.8529 54.2441 41.9819C54.3142 42.1108 54.4135 42.2215 54.534 42.3052C54.764 42.4383 54.9375 42.3052 54.9375 42.0389V39.2588C54.9329 39.1127 54.8939 38.9697 54.8238 38.8415C54.7537 38.7132 54.6544 38.6032 54.534 38.5204Z" fill="#37474F"/>
<path d="M53.034 37.677C52.808 37.5479 52.6305 37.677 52.6305 37.9474V40.7234C52.6355 40.87 52.6745 41.0134 52.7446 41.1423C52.8146 41.2712 52.9137 41.382 53.034 41.4659C53.26 41.595 53.4375 41.4659 53.4375 41.1955V38.4033C53.4301 38.2595 53.3899 38.1193 53.3199 37.9934C53.25 37.8675 53.1522 37.7593 53.034 37.677Z" fill="#37474F"/>
<path d="M51.5281 36.8055C51.3022 36.6764 51.1246 36.8055 51.1246 37.0718V39.8479C51.1283 39.9947 51.1668 40.1386 51.237 40.2677C51.3071 40.3968 51.4069 40.5073 51.5281 40.5903C51.7541 40.7235 51.9316 40.5903 51.9316 40.324V37.5479C51.9279 37.4011 51.8894 37.2572 51.8193 37.1281C51.7491 36.9991 51.6494 36.8885 51.5281 36.8055Z" fill="#37474F"/>
<path d="M50.0281 35.9461C49.8022 35.8169 49.6246 35.9461 49.6246 36.2164V38.9925C49.629 39.1392 49.6678 39.2828 49.7379 39.4118C49.8079 39.5408 49.9074 39.6514 50.0281 39.7349C50.2541 39.864 50.4316 39.7349 50.4316 39.4686V36.6885C50.4267 36.5419 50.3876 36.3985 50.3176 36.2696C50.2475 36.1407 50.1484 36.03 50.0281 35.9461Z" fill="#37474F"/>
<path d="M92.6611 35.938C92.6611 35.938 83.7841 40.0819 81.7424 40.6791C79.7007 41.2763 78.0787 41.4296 76.2549 41.9784C74.2616 42.5796 70.267 44.476 69.698 45.2063C69.1291 45.9367 70.0249 46.9131 71.6631 47.0705C73.3013 47.2279 76.2226 46.3724 76.731 46.3684C77.2394 46.3644 76.8561 46.5621 76.2549 47.3166C75.6537 48.0712 75.4479 48.9992 75.9401 49.3906C76.2549 49.6408 76.727 48.9387 77.6268 48.5352C78.4015 48.1842 79.3053 47.2521 80.1567 46.2272C81.0081 45.2023 81.6416 44.7464 84.002 44.129C86.6772 43.4269 93.4883 41.7564 93.4883 41.7564L92.6611 35.938Z" fill="#FFA8A7" stroke="#FFA8A7" stroke-miterlimit="10"/>
<path d="M95.9219 20.2096C94.5016 19.9877 92.8028 20.246 92.1088 21.1175C91.4148 21.9891 90.6159 23.3408 91.3462 26.484L95.9219 20.2096Z" fill="#FFA8A7" stroke="#FFA8A7" stroke-miterlimit="10"/>
<path d="M95.9225 20.2096C94.4568 21.6605 93.1883 23.2979 92.1498 25.0798C90.677 27.521 90.3341 28.5257 90.4591 30.7288C90.5842 33.0247 91.5204 34.9252 91.9158 36.7571C92.4242 39.1095 92.3596 43.1122 92.2063 47.4094C92.2063 47.4094 96.3018 52.5096 102.673 52.324C109.044 52.1384 111.207 48.5311 111.207 48.5311L107.39 41.6273L109.29 34.3643L107.366 22.4248L101.624 20.9843L95.9225 20.2096Z" fill="#FFEEB1"/>
<path d="M106.009 28.2312C105.894 31.3368 106.231 34.4426 107.009 37.4511L104.83 44.0725L107.389 41.6193L109.289 34.3563L106.009 28.2312Z" fill="white"/>
<path opacity="0.2" d="M106.009 28.2312C105.894 31.3368 106.231 34.4426 107.009 37.4511L104.83 44.0725L107.389 41.6193L109.289 34.3563L106.009 28.2312Z" fill="black"/>
<path d="M98.0966 17.6757L100.518 17.5425C101.594 17.4827 102.647 17.2115 103.619 16.7443C104.59 16.2771 105.459 15.6231 106.178 14.8197C106.896 14.0164 107.449 13.0793 107.805 12.0621C108.161 11.0449 108.313 9.96752 108.253 8.89152C108.112 6.39788 106.987 4.06207 105.125 2.39751C103.263 0.732938 100.816 -0.124172 98.3226 0.0145594C95.8286 0.156135 93.4928 1.28193 91.8283 3.14461C90.1639 5.0073 89.3069 7.45453 89.4456 9.94868C89.5685 12.1204 90.5488 14.1545 92.1711 15.6035C93.7934 17.0526 95.9249 17.7979 98.0966 17.6757Z" fill="#263238"/>
<path d="M92.2254 4.15846C91.6282 4.56196 90.1192 6.64401 90.559 12.2284C90.9302 16.9574 92.2012 18.0509 92.98 18.3455C93.7587 18.64 95.2436 18.3455 96.676 18.0307L96.8011 20.3387C96.8011 20.3387 95.3283 22.3038 96.1353 23.3367C96.7365 24.0993 98.5079 24.4181 100.005 23.8088C101.221 23.3413 102.226 22.4461 102.829 21.291L102.446 14.4315C102.446 14.4315 103.495 15.6824 105.028 14.5324C106.562 13.3824 106.481 10.7597 105.501 9.87199C104.52 8.9843 102.539 9.39183 102.24 10.7113C101.924 8.70773 100.937 6.871 99.44 5.50211C96.9544 3.14971 93.3794 3.7832 92.2254 4.15846Z" fill="#FFA8A7" stroke="#FFA8A7" stroke-miterlimit="10"/>
<path d="M95.6184 8.62522L96.954 9.14977C97.0234 8.96738 97.0203 8.76531 96.9452 8.58516C96.8702 8.40502 96.7289 8.2605 96.5505 8.18137C96.4604 8.14587 96.364 8.12928 96.2673 8.13262C96.1705 8.13596 96.0755 8.15917 95.9881 8.20079C95.9006 8.24242 95.8227 8.30158 95.7591 8.37459C95.6956 8.4476 95.6477 8.53291 95.6184 8.62522Z" fill="#263238"/>
<path d="M95.4461 10.7516C95.4451 10.9125 95.5077 11.0673 95.6203 11.1822C95.733 11.2971 95.8865 11.3628 96.0474 11.365C96.2086 11.3597 96.3613 11.2911 96.4723 11.174C96.5833 11.0569 96.6438 10.9008 96.6405 10.7395C96.6416 10.5786 96.579 10.4238 96.4663 10.3089C96.3537 10.194 96.2002 10.1283 96.0393 10.1262C95.878 10.1315 95.7253 10.2001 95.6143 10.3172C95.5033 10.4342 95.4429 10.5903 95.4461 10.7516Z" fill="#263238"/>
<path d="M91.9062 8.66547L90.6958 9.50071C90.5865 9.33636 90.5453 9.13608 90.5807 8.94195C90.616 8.74782 90.7252 8.57496 90.8854 8.45968C90.9647 8.40255 91.055 8.36242 91.1506 8.3418C91.2461 8.32117 91.3449 8.32049 91.4407 8.33981C91.5366 8.35912 91.6274 8.39802 91.7075 8.45406C91.7876 8.5101 91.8552 8.58207 91.9062 8.66547Z" fill="#263238"/>
<path d="M95.5108 14.7704L94.155 15.2909C94.1848 15.3819 94.2328 15.4659 94.2959 15.5379C94.359 15.6099 94.4361 15.6684 94.5224 15.7099C94.6087 15.7513 94.7025 15.7749 94.7982 15.7792C94.8938 15.7835 94.9894 15.7683 95.079 15.7347C95.2623 15.6617 95.4098 15.5201 95.4904 15.3401C95.571 15.1601 95.5783 14.9557 95.5108 14.7704Z" fill="#F28F8F" stroke="#F28F8F" stroke-miterlimit="10"/>
<path d="M91.0522 10.562C91.057 10.6791 91.0961 10.7922 91.1647 10.8873C91.2333 10.9823 91.3284 11.0551 91.4381 11.0965C91.5478 11.1378 91.6672 11.146 91.7815 11.12C91.8958 11.094 91.9999 11.0349 92.0809 10.9501C92.1618 10.8653 92.216 10.7585 92.2367 10.6431C92.2574 10.5277 92.2437 10.4088 92.1972 10.3012C92.1508 10.1935 92.0737 10.1019 91.9756 10.0378C91.8774 9.97369 91.7626 9.93987 91.6454 9.94056C91.5655 9.94213 91.4868 9.95948 91.4137 9.99162C91.3406 10.0237 91.2746 10.07 91.2195 10.1278C91.1643 10.1855 91.1212 10.2536 91.0925 10.3282C91.0638 10.4027 91.0501 10.4821 91.0522 10.562Z" fill="#263238"/>
<path d="M93.9205 10.0616L94.0254 13.6487L92.1088 13.1686L93.9205 10.0616Z" fill="#F28F8F" stroke="#F28F8F" stroke-miterlimit="10"/>
<path d="M96.6838 18.0227C97.8943 17.8209 100.251 16.9534 100.719 16.1141C100.719 16.1141 100.719 16.671 99.9803 17.4659C99.2419 18.2607 96.712 18.9467 96.712 18.9467L96.6838 18.0227Z" fill="#F28F8F" stroke="#F28F8F" stroke-miterlimit="10"/>
<path d="M106.353 0.914321C104.444 1.94324 105.409 3.60566 106.51 5.65139C107.612 7.69713 108.427 9.35147 110.335 8.32658C112.244 7.3017 112.901 4.80808 111.8 2.76234C110.698 0.716607 108.253 -0.110564 106.353 0.914321Z" fill="#263238"/>
<path d="M103.628 10.7637L103.479 8.10864L101.91 8.19741L102.144 12.422C102.35 12.4107 102.552 12.3588 102.738 12.2693C102.925 12.1798 103.092 12.0545 103.23 11.9005C103.367 11.7465 103.474 11.5668 103.542 11.3718C103.611 11.1767 103.64 10.9701 103.628 10.7637Z" fill="#263238"/>
<path d="M92.2263 4.15844C92.2263 4.15844 92.771 12.0347 103.561 9.52497C103.561 9.52497 103.363 5.22771 99.6547 3.44425C95.2081 1.30571 92.2263 4.15844 92.2263 4.15844Z" fill="white"/>
<path d="M92.2257 4.1585C95.1653 7.34897 99.2291 9.27308 103.56 9.52502C103.56 9.52502 104.294 5.31654 100.501 3.10133C96.7086 0.886129 92.7906 2.57275 92.2257 4.1585Z" fill="#263238"/>
<path d="M94.4863 63.4565C94.5081 63.4565 94.5294 63.4494 94.5468 63.4363C94.5643 63.4232 94.577 63.4048 94.5831 63.3839L94.8293 62.4356C94.8354 62.41 94.8312 62.3829 94.8177 62.3603C94.8041 62.3377 94.7822 62.3213 94.7566 62.3146C94.7439 62.311 94.7306 62.31 94.7175 62.3118C94.7044 62.3135 94.6917 62.3179 94.6804 62.3247C94.6691 62.3315 94.6592 62.3406 94.6515 62.3513C94.6438 62.3621 94.6384 62.3743 94.6356 62.3872L94.3854 63.3314C94.3792 63.3576 94.3832 63.3852 94.3967 63.4085C94.4103 63.4317 94.4322 63.4489 94.458 63.4565H94.4863Z" fill="#263238"/>
<path d="M96.2559 60.9992L94.9606 62.7988C94.9183 62.8554 94.8595 62.8976 94.7923 62.9195C94.7251 62.9415 94.6528 62.9421 94.5852 62.9213C94.5176 62.9006 94.4581 62.8594 94.4148 62.8036C94.3715 62.7477 94.3465 62.6798 94.3433 62.6092L94.2787 60.3778L96.2559 60.9992Z" fill="#37474F"/>
<path d="M98.0038 48.1236C98.0496 48.0266 98.124 47.9459 98.2171 47.8925C98.3102 47.8392 98.4174 47.8156 98.5243 47.825C99.182 47.8008 100.138 48.3577 99.9325 48.8903L96.2566 60.9952C96.0637 61.1008 95.848 61.1581 95.6281 61.1624C95.4082 61.1666 95.1905 61.1175 94.9937 61.0194C94.6836 60.9005 94.429 60.6703 94.2795 60.3738L98.0038 48.1236Z" fill="#455A64"/>
<path d="M98.9198 47.1552C98.9362 47.0998 98.9634 47.0482 98.9997 47.0033C99.0361 46.9585 99.081 46.9212 99.1317 46.8937C99.1825 46.8661 99.2382 46.8489 99.2956 46.8428C99.3531 46.8368 99.4111 46.8422 99.4665 46.8586C99.5219 46.875 99.5735 46.9022 99.6184 46.9386C99.6632 46.9749 99.7005 47.0198 99.728 47.0706C99.7556 47.1213 99.7728 47.177 99.7789 47.2345C99.7849 47.2919 99.7795 47.35 99.7631 47.4054L99.4685 48.3738C99.4538 48.4096 99.4301 48.441 99.3997 48.465C99.3693 48.4891 99.3333 48.5049 99.295 48.5109C99.1885 48.5303 99.079 48.5243 98.9753 48.4934C98.8715 48.4626 98.7765 48.4078 98.6979 48.3334C98.6677 48.3084 98.645 48.2757 98.6322 48.2387C98.6194 48.2017 98.617 48.1619 98.6252 48.1236L98.9198 47.1552Z" fill="#37474F"/>
<path d="M107.366 22.4087C109.823 22.9413 111.139 24.3576 111.841 27.4242C112.543 30.4908 115.678 44.6455 116.029 46.0456C116.38 47.4458 115.876 48.2487 114.245 49.9313C112.777 51.4444 105.534 56.706 104.965 57.4848C104.396 58.2635 102.274 59.6919 101.136 60.3093C99.998 60.9266 98.6947 61.08 97.3591 61.08C96.4391 61.08 94.9381 60.1479 93.8002 60.0349C92.6624 59.9219 92.3476 58.8647 93.0376 58.4653C93.7276 58.0658 97.5689 56.589 97.5689 56.589L97.8957 55.3785C97.8957 55.3785 98.1903 54.8984 99.7317 54.8661C101.273 54.8338 101.681 55.4108 103.629 53.6314C105.647 51.7834 110.533 45.743 110.533 45.743L106.853 33.2547C106.853 33.2547 104.578 25.2574 107.366 22.4087Z" fill="#FFA8A7" stroke="#FFA8A7" stroke-miterlimit="10"/>
</svg>
