<svg width="180" height="145" viewBox="0 0 180 145" fill="none" xmlns="http://www.w3.org/2000/svg">
<path opacity="0.5" d="M92.5 162C143.586 162 185 147.449 185 129.5C185 111.551 143.586 97 92.5 97C41.4137 97 0 111.551 0 129.5C0 147.449 41.4137 162 92.5 162Z" fill="white"/>
<path d="M36.1543 134.26L53.2609 134.182L70.3675 134.152L104.578 134.097L138.788 134.152L155.894 134.182L173.001 134.26L155.894 134.341L138.788 134.367L104.578 134.423L70.3675 134.367L53.2609 134.338L36.1543 134.26Z" fill="#263238"/>
<path d="M145.188 7.13135H89.0536C88.3008 7.13816 87.5567 7.29325 86.8638 7.58775C86.171 7.88224 85.5429 8.31038 85.0156 8.8477C84.4883 9.38501 84.072 10.021 83.7905 10.7192C83.5091 11.4175 83.368 12.1644 83.3753 12.9172V128.474C83.3622 129.994 83.9529 131.457 85.0175 132.542C86.0821 133.626 87.5337 134.244 89.0536 134.26H145.188C146.709 134.245 148.162 133.628 149.228 132.543C150.294 131.458 150.885 129.995 150.873 128.474V12.9172C150.88 12.1639 150.739 11.4167 150.457 10.7182C150.175 10.0197 149.758 9.38367 149.23 8.84635C148.702 8.30904 148.073 7.88102 147.38 7.58675C146.686 7.29249 145.942 7.13774 145.188 7.13135ZM147.322 124.9C147.322 127.943 145.042 130.403 142.234 130.403H92.0149C89.2002 130.403 86.9197 127.943 86.9197 124.9V17.2956C86.9197 11.1058 89.2002 10.7801 92.0149 10.7801H102.075C102.661 10.7801 103.14 11.4316 103.14 12.2689V12.624C103.14 14.5526 104.196 14.5591 105.489 14.5591H128.753C130.056 14.5591 131.112 14.5591 131.112 12.624V12.2852C131.112 11.4609 131.584 10.7964 132.177 10.7964H142.234C145.045 10.7964 147.322 11.6206 147.322 17.3119V124.9Z" fill="#263238"/>
<path d="M147.324 17.2956V124.9C147.324 127.943 145.044 130.403 142.236 130.403H92.0171C89.2023 130.403 86.9219 127.943 86.9219 124.9V17.2956C86.9219 11.1058 89.2023 10.78 92.0171 10.78H102.077C102.663 10.78 103.142 11.4316 103.142 12.2688V12.6239C103.142 14.5525 104.198 14.5591 105.491 14.5591H128.755C130.058 14.5591 131.114 14.5591 131.114 12.6239V12.2851C131.114 11.4609 131.586 10.7963 132.179 10.7963H142.236C145.047 10.7963 147.324 11.6205 147.324 17.2956Z" fill="#B5E1EC"/>
<path d="M147.324 17.2989V27.0722H86.9219V17.2989C86.9219 11.1091 89.2023 10.7833 92.0171 10.7833H102.077C102.663 10.7833 103.142 11.4349 103.142 12.2721V12.6272C103.142 14.5558 104.198 14.5624 105.491 14.5624H128.755C130.058 14.5624 131.114 14.5624 131.114 12.6272V12.2884C131.114 11.4642 131.586 10.7996 132.179 10.7996H142.236C145.047 10.7996 147.324 11.6238 147.324 17.2989Z" fill="#B5E1EC"/>
<path d="M120.296 12.0735H113.95C113.846 12.0726 113.746 12.0307 113.673 11.9569C113.6 11.883 113.559 11.7832 113.559 11.6793C113.559 11.6279 113.569 11.5771 113.588 11.5297C113.608 11.4822 113.637 11.4391 113.673 11.4028C113.709 11.3665 113.752 11.3377 113.8 11.3181C113.847 11.2984 113.898 11.2883 113.95 11.2883H120.296C120.347 11.2883 120.398 11.2984 120.445 11.3181C120.493 11.3377 120.536 11.3665 120.572 11.4028C120.608 11.4391 120.637 11.4822 120.657 11.5297C120.677 11.5771 120.687 11.6279 120.687 11.6793C120.687 11.7309 120.677 11.7821 120.658 11.8299C120.638 11.8777 120.61 11.9212 120.573 11.9578C120.537 11.9945 120.494 12.0235 120.446 12.0434C120.398 12.0632 120.347 12.0735 120.296 12.0735Z" fill="#B5E1EC"/>
<path d="M96.1031 19.9996H90.8613V23.3226H96.1031V19.9996Z" fill="#B5E1EC"/>
<path d="M96.107 19.9996C95.8953 20.2016 95.6803 20.3971 95.4555 20.5958L94.8039 21.179L94.1524 21.7784L94.1328 21.7979L93.5008 22.3224L93.4715 22.3452L93.4422 22.3224L92.8492 21.7947H92.8297C92.6016 21.5959 92.3736 21.3972 92.1488 21.1952L91.4973 20.6121C91.2855 20.4134 91.0705 20.2179 90.8457 20.0159C91.0705 20.1918 91.292 20.371 91.4973 20.5502C91.7025 20.7294 91.9403 20.9118 92.1488 21.0975C92.3573 21.2832 92.6407 21.508 92.8851 21.7165L93.4324 22.1856L93.9829 21.7165L94.7159 21.0975L95.3675 20.5535L96.107 19.9996Z" fill="#B5E1EC"/>
<path d="M92.9359 21.7751L92.8512 21.8436C92.7209 21.9543 92.584 22.0618 92.4472 22.1693C92.3104 22.2768 92.1214 22.4169 91.939 22.5375C91.7566 22.658 91.5937 22.7753 91.4177 22.8893C91.2418 23.0033 91.0594 23.1141 90.877 23.2151C91.0333 23.075 91.2027 22.9447 91.3656 22.8176C91.5285 22.6906 91.6914 22.57 91.8771 22.4495C92.0628 22.329 92.2224 22.2117 92.3983 22.0977C92.5743 21.9836 92.685 21.9185 92.8316 21.8338C92.8642 21.8134 92.8979 21.7949 92.9326 21.7784L92.9359 21.7751Z" fill="#B5E1EC"/>
<path d="M96.1078 23.2183C95.9221 23.1173 95.7429 23.0065 95.567 22.8925C95.391 22.7785 95.2151 22.6612 95.0425 22.5406C94.8698 22.4201 94.7004 22.2996 94.5342 22.1725C94.3681 22.0455 94.2638 21.964 94.1335 21.8467L94.0488 21.7783L94.1498 21.837C94.2975 21.9217 94.4408 22.0096 94.5798 22.1008C94.759 22.2149 94.9317 22.3321 95.1044 22.4527C95.277 22.5732 95.4464 22.6938 95.6126 22.8208C95.7787 22.9479 95.9318 23.0782 96.1078 23.2183Z" fill="#B5E1EC"/>
<path d="M97.2283 19.9997C97.2283 20.2221 97.1623 20.4395 97.0387 20.6244C96.9151 20.8093 96.7393 20.9534 96.5338 21.0384C96.3282 21.1233 96.102 21.1454 95.8839 21.1018C95.6658 21.0581 95.4656 20.9508 95.3085 20.7933C95.1515 20.6357 95.0447 20.4352 95.0017 20.2169C94.9587 19.9987 94.9814 19.7726 95.067 19.5673C95.1525 19.362 95.2971 19.1867 95.4824 19.0636C95.6676 18.9405 95.8852 18.8751 96.1077 18.8757C96.4052 18.8766 96.6902 18.9954 96.9003 19.2061C97.1104 19.4168 97.2283 19.7022 97.2283 19.9997Z" fill="#455A64"/>
<path d="M96.4742 20.2244C96.4733 20.248 96.4633 20.2704 96.4463 20.2868C96.4293 20.3032 96.4066 20.3124 96.3829 20.3124V20.4362C96.3789 20.457 96.3678 20.4758 96.3515 20.4893C96.3351 20.5028 96.3146 20.5102 96.2933 20.5102C96.2721 20.5102 96.2516 20.5028 96.2352 20.4893C96.2189 20.4758 96.2078 20.457 96.2038 20.4362V20.3124H95.6955C95.6855 20.3132 95.6753 20.3119 95.6658 20.3085C95.6562 20.3051 95.6475 20.2998 95.6402 20.2928C95.6317 20.2849 95.6249 20.2753 95.6203 20.2647C95.6157 20.254 95.6133 20.2425 95.6133 20.2309C95.6133 20.2193 95.6157 20.2078 95.6203 20.1972C95.6249 20.1865 95.6317 20.1769 95.6402 20.169L96.207 19.4132H96.2331H96.2852V20.0648C96.3064 20.0397 96.3366 20.0241 96.3693 20.0213C96.402 20.0186 96.4344 20.0289 96.4595 20.0501C96.4846 20.0713 96.5002 20.1015 96.5029 20.1342C96.5057 20.1669 96.4953 20.1993 96.4742 20.2244ZM96.1875 19.7357L95.8617 20.1364H96.1875V19.7357Z" fill="#B5E1EC"/>
<path d="M100.341 13.1192L100.243 13.217L100.188 13.2724C99.9392 13.0243 99.6024 12.885 99.2512 12.885C98.9 12.885 98.5631 13.0243 98.3146 13.2724L98.2624 13.217C98.2299 13.1844 98.1973 13.1551 98.168 13.1225L98.2918 13.0117C98.3784 12.9404 98.4736 12.8802 98.5752 12.8326C98.6944 12.7724 98.8217 12.7296 98.9531 12.7055C99.015 12.7055 99.0769 12.7055 99.1388 12.6794H99.3049H99.432C99.5503 12.6926 99.6664 12.7211 99.7773 12.7641C99.8584 12.7933 99.9369 12.8293 100.012 12.8717C100.091 12.9178 100.166 12.9701 100.237 13.028L100.338 13.1225L100.341 13.1192Z" fill="#B5E1EC"/>
<path d="M98.6199 13.5786L98.4668 13.4255C98.6314 13.2497 98.8508 13.1348 99.089 13.0997C99.2605 13.0757 99.4353 13.0927 99.599 13.1493C99.7627 13.2059 99.9106 13.3006 100.031 13.4255L99.8774 13.5786C99.7101 13.413 99.484 13.3205 99.2487 13.3212C99.132 13.3203 99.0164 13.3426 98.9084 13.3868C98.8005 13.431 98.7024 13.4962 98.6199 13.5786Z" fill="#B5E1EC"/>
<path d="M99.7254 13.7317C99.6732 13.7806 99.6211 13.8327 99.5723 13.8848C99.5298 13.8416 99.4791 13.8075 99.4231 13.7846C99.3671 13.7616 99.307 13.7503 99.2465 13.7513C99.1859 13.7499 99.1257 13.761 99.0696 13.784C99.0136 13.807 98.9629 13.8413 98.9207 13.8848L98.7676 13.7317C98.83 13.6681 98.9046 13.6175 98.9868 13.583C99.069 13.5485 99.1573 13.5308 99.2465 13.5308C99.3356 13.5308 99.4239 13.5485 99.5061 13.583C99.5884 13.6175 99.6629 13.6681 99.7254 13.7317Z" fill="#B5E1EC"/>
<path d="M99.3856 14.0216C99.3862 14.0496 99.3785 14.0771 99.3634 14.1007C99.3482 14.1242 99.3264 14.1426 99.3006 14.1536C99.2749 14.1647 99.2465 14.1677 99.219 14.1624C99.1915 14.1571 99.1663 14.1437 99.1465 14.1239C99.1267 14.1041 99.1133 14.0789 99.108 14.0514C99.1027 14.0239 99.1058 13.9955 99.1168 13.9698C99.1278 13.944 99.1462 13.9222 99.1697 13.9071C99.1933 13.8919 99.2208 13.8842 99.2488 13.8848C99.2851 13.8848 99.3199 13.8992 99.3455 13.9249C99.3712 13.9505 99.3856 13.9853 99.3856 14.0216Z" fill="#B5E1EC"/>
<path d="M90.8613 13.4124C90.8613 13.3332 90.8848 13.2557 90.9289 13.1898C90.9729 13.1239 91.0355 13.0725 91.1087 13.0422C91.1819 13.0119 91.2625 13.004 91.3402 13.0194C91.4179 13.0349 91.4893 13.073 91.5454 13.1291C91.6014 13.1851 91.6396 13.2565 91.655 13.3343C91.6705 13.412 91.6626 13.4925 91.6322 13.5658C91.6019 13.639 91.5506 13.7016 91.4847 13.7456C91.4188 13.7896 91.3413 13.8131 91.262 13.8131C91.2094 13.8131 91.1573 13.8028 91.1087 13.7826C91.0601 13.7625 91.0159 13.733 90.9787 13.6958C90.9415 13.6586 90.912 13.6144 90.8918 13.5658C90.8717 13.5172 90.8613 13.465 90.8613 13.4124Z" fill="#B5E1EC"/>
<path d="M92.123 13.4124C92.123 13.3332 92.1465 13.2557 92.1906 13.1898C92.2346 13.1239 92.2972 13.0725 92.3704 13.0422C92.4436 13.0119 92.5242 13.004 92.6019 13.0194C92.6797 13.0349 92.7511 13.073 92.8071 13.1291C92.8631 13.1851 92.9013 13.2565 92.9168 13.3343C92.9322 13.412 92.9243 13.4925 92.894 13.5658C92.8636 13.639 92.8123 13.7016 92.7464 13.7456C92.6805 13.7896 92.603 13.8131 92.5238 13.8131C92.4175 13.8131 92.3156 13.7709 92.2404 13.6958C92.1653 13.6206 92.123 13.5187 92.123 13.4124Z" fill="#B5E1EC"/>
<path d="M93.3828 13.4124C93.3828 13.3332 93.4063 13.2557 93.4503 13.1898C93.4944 13.1239 93.557 13.0725 93.6302 13.0422C93.7034 13.0119 93.784 13.004 93.8617 13.0194C93.9394 13.0349 94.0108 13.073 94.0669 13.1291C94.1229 13.1851 94.1611 13.2565 94.1765 13.3343C94.192 13.412 94.1841 13.4925 94.1537 13.5658C94.1234 13.639 94.072 13.7016 94.0061 13.7456C93.9402 13.7896 93.8628 13.8131 93.7835 13.8131C93.6772 13.8131 93.5753 13.7709 93.5002 13.6958C93.425 13.6206 93.3828 13.5187 93.3828 13.4124Z" fill="#B5E1EC"/>
<path d="M94.6445 13.4124C94.6445 13.3332 94.668 13.2557 94.7121 13.1898C94.7561 13.1239 94.8187 13.0725 94.8919 13.0422C94.9651 13.0119 95.0457 13.004 95.1234 13.0194C95.2011 13.0349 95.2725 13.073 95.3286 13.1291C95.3846 13.1851 95.4228 13.2565 95.4382 13.3343C95.4537 13.412 95.4458 13.4925 95.4154 13.5658C95.3851 13.639 95.3338 13.7016 95.2679 13.7456C95.202 13.7896 95.1245 13.8131 95.0452 13.8131C94.9926 13.8131 94.9405 13.8028 94.8919 13.7826C94.8433 13.7625 94.7991 13.733 94.7619 13.6958C94.7247 13.6586 94.6952 13.6144 94.675 13.5658C94.6549 13.5172 94.6445 13.465 94.6445 13.4124Z" fill="#B5E1EC"/>
<path d="M95.9043 13.4124C95.9043 13.3332 95.9278 13.2557 95.9718 13.1898C96.0159 13.1239 96.0784 13.0725 96.1517 13.0422C96.2249 13.0119 96.3054 13.004 96.3832 13.0194C96.4609 13.0349 96.5323 13.073 96.5883 13.1291C96.6444 13.1851 96.6825 13.2565 96.698 13.3343C96.7135 13.412 96.7055 13.4925 96.6752 13.5658C96.6449 13.639 96.5935 13.7016 96.5276 13.7456C96.4617 13.7896 96.3843 13.8131 96.305 13.8131C96.2524 13.8131 96.2003 13.8028 96.1517 13.7826C96.103 13.7625 96.0589 13.733 96.0217 13.6958C95.9845 13.6586 95.9549 13.6144 95.9348 13.5658C95.9147 13.5172 95.9043 13.465 95.9043 13.4124Z" fill="#B5E1EC"/>
<path d="M142.791 14.2887H139.533V12.7771H142.791V14.2887ZM139.699 14.1226H142.631V12.9432H139.699V14.1226Z" fill="#B5E1EC"/>
<path d="M141.904 13.0344H139.803V14.0313H141.904V13.0344Z" fill="#B5E1EC"/>
<path d="M143.085 13.1289H142.795V13.9368H143.085V13.1289Z" fill="#B5E1EC"/>
<path d="M111.926 20.6447C111.925 20.6189 111.93 20.5933 111.94 20.5694C111.949 20.5455 111.964 20.5238 111.982 20.5055C112 20.4873 112.022 20.4729 112.046 20.4632C112.07 20.4536 112.095 20.4488 112.121 20.4492C112.147 20.4488 112.173 20.4536 112.197 20.4632C112.221 20.4728 112.243 20.4871 112.262 20.5053C112.28 20.5235 112.295 20.5452 112.305 20.5692C112.315 20.5931 112.32 20.6188 112.32 20.6447V22.733C112.32 22.7589 112.315 22.7846 112.305 22.8085C112.295 22.8324 112.28 22.8541 112.262 22.8723C112.243 22.8905 112.221 22.9049 112.197 22.9145C112.173 22.9241 112.147 22.9289 112.121 22.9284C112.095 22.9289 112.07 22.9241 112.046 22.9144C112.022 22.9048 112 22.8904 111.982 22.8722C111.964 22.8539 111.949 22.8322 111.94 22.8083C111.93 22.7844 111.925 22.7587 111.926 22.733V20.6447Z" fill="#B5E1EC"/>
<path d="M113.373 22.7329C113.373 22.7842 113.353 22.8335 113.317 22.87C113.281 22.9066 113.232 22.9276 113.181 22.9284C113.155 22.9284 113.13 22.9233 113.107 22.9135C113.083 22.9036 113.062 22.8892 113.044 22.871C113.026 22.8528 113.012 22.8312 113.002 22.8075C112.993 22.7838 112.988 22.7585 112.989 22.7329V20.674C112.986 20.6428 112.992 20.6114 113.005 20.5829C113.018 20.5545 113.038 20.5298 113.064 20.5111C113.106 20.4822 113.157 20.4705 113.207 20.4783C113.258 20.4862 113.303 20.5131 113.334 20.5535L114.478 22.1368V20.674C114.478 20.6236 114.499 20.5756 114.535 20.5402C114.571 20.5049 114.619 20.4851 114.67 20.4851C114.721 20.485 114.769 20.5047 114.806 20.54C114.842 20.5753 114.864 20.6233 114.865 20.674V22.7329C114.865 22.7848 114.845 22.8345 114.808 22.8712C114.771 22.9078 114.722 22.9284 114.67 22.9284C114.642 22.9275 114.614 22.9207 114.589 22.9083C114.564 22.896 114.541 22.8784 114.523 22.8567V22.8372L113.373 21.2637V22.7329Z" fill="#B5E1EC"/>
<path d="M115.715 22.7329V20.6447C115.715 20.5928 115.735 20.5431 115.772 20.5065C115.809 20.4698 115.858 20.4492 115.91 20.4492H116.412C116.59 20.4492 116.761 20.5198 116.888 20.6456C117.014 20.7713 117.086 20.942 117.086 21.1203C117.087 21.2665 117.039 21.4088 116.95 21.5243C117.09 21.6112 117.198 21.7413 117.257 21.8949C117.317 22.0486 117.325 22.2175 117.28 22.3761C117.235 22.5347 117.14 22.6743 117.008 22.774C116.877 22.8736 116.717 22.9278 116.552 22.9284H115.923C115.897 22.9302 115.87 22.9264 115.845 22.9174C115.819 22.9084 115.796 22.8943 115.777 22.876C115.757 22.8576 115.741 22.8355 115.731 22.8109C115.72 22.7863 115.715 22.7597 115.715 22.7329ZM116.109 21.4103H116.412C116.487 21.4086 116.559 21.3772 116.612 21.3229C116.664 21.2686 116.693 21.1958 116.692 21.1203C116.692 21.0837 116.685 21.0474 116.671 21.0136C116.657 20.9798 116.636 20.9491 116.61 20.9234C116.584 20.8976 116.553 20.8773 116.519 20.8635C116.485 20.8498 116.449 20.843 116.412 20.8434H116.109V21.4103ZM116.109 22.5342H116.552C116.643 22.5256 116.728 22.4833 116.79 22.4155C116.851 22.3477 116.886 22.2593 116.886 22.1677C116.886 22.0761 116.851 21.9877 116.79 21.9199C116.728 21.8521 116.643 21.8098 116.552 21.8012H116.109V22.5342Z" fill="#B5E1EC"/>
<path d="M119.775 20.7554C120.005 20.9976 120.133 21.3189 120.133 21.6529C120.133 21.987 120.005 22.3083 119.775 22.5505C119.667 22.668 119.536 22.7622 119.391 22.8272C119.245 22.8922 119.087 22.9266 118.928 22.9284C118.765 22.9272 118.605 22.8931 118.456 22.8282C118.307 22.7632 118.173 22.6687 118.061 22.5505C117.835 22.3064 117.709 21.9858 117.709 21.6529C117.709 21.32 117.835 20.9994 118.061 20.7554C118.173 20.6389 118.308 20.5464 118.457 20.4837C118.606 20.421 118.766 20.3893 118.928 20.3905C119.087 20.39 119.244 20.4221 119.389 20.4849C119.535 20.5477 119.666 20.6397 119.775 20.7554ZM119.729 21.6513C119.729 21.4221 119.643 21.2012 119.488 21.0323C119.418 20.9536 119.331 20.8907 119.235 20.8474C119.138 20.8042 119.034 20.7818 118.928 20.7815C118.82 20.7809 118.713 20.803 118.615 20.8462C118.516 20.8894 118.427 20.9528 118.354 21.0323C118.199 21.2012 118.113 21.4221 118.113 21.6513C118.112 21.8808 118.198 22.1021 118.354 22.2703C118.427 22.3502 118.516 22.4141 118.614 22.4579C118.713 22.5017 118.82 22.5243 118.928 22.5244C119.034 22.5235 119.138 22.5004 119.235 22.4567C119.331 22.4129 119.418 22.3494 119.488 22.2703C119.644 22.1021 119.731 21.8808 119.729 21.6513Z" fill="#B5E1EC"/>
<path d="M122.429 20.7848L121.755 21.6937L122.429 22.6124C122.459 22.6541 122.471 22.7057 122.463 22.7563C122.455 22.8068 122.428 22.8523 122.387 22.8828C122.354 22.9077 122.314 22.9214 122.273 22.9219C122.242 22.921 122.212 22.9133 122.184 22.8992C122.156 22.8851 122.132 22.865 122.113 22.8405L121.517 22.0195L120.918 22.8372C120.899 22.8614 120.876 22.8812 120.849 22.8953C120.822 22.9093 120.792 22.9173 120.761 22.9186C120.72 22.9192 120.68 22.9054 120.647 22.8796C120.606 22.8495 120.578 22.8043 120.569 22.7537C120.561 22.7031 120.572 22.6512 120.602 22.6092L121.276 21.6905L120.602 20.775C120.572 20.7335 120.561 20.6821 120.569 20.632C120.578 20.582 120.606 20.5374 120.647 20.5079C120.667 20.4913 120.69 20.4792 120.715 20.4724C120.74 20.4655 120.766 20.464 120.792 20.468C120.818 20.472 120.842 20.4814 120.864 20.4956C120.885 20.5098 120.904 20.5284 120.918 20.5502L121.517 21.3679L122.11 20.5535C122.124 20.5316 122.143 20.5129 122.165 20.4987C122.187 20.4845 122.212 20.4751 122.237 20.4711C122.263 20.4671 122.29 20.4686 122.315 20.4755C122.34 20.4824 122.364 20.4945 122.384 20.5111C122.405 20.5258 122.423 20.5446 122.437 20.5664C122.451 20.5882 122.461 20.6127 122.465 20.6382C122.469 20.6638 122.468 20.69 122.462 20.7152C122.456 20.7403 122.445 20.764 122.429 20.7848Z" fill="#B5E1EC"/>
<path d="M139.005 22.9088L138.595 23.2346L137.836 22.2312L137.559 21.8631C137.615 21.8408 137.669 21.8113 137.718 21.7751C137.81 21.7034 137.882 21.6091 137.927 21.5015L138.223 21.8891L139.005 22.9088Z" fill="#B5E1EC"/>
<path d="M138.197 20.5436C138.067 20.374 137.891 20.2452 137.69 20.1724C137.489 20.0996 137.271 20.0857 137.063 20.1326C136.854 20.1794 136.663 20.2849 136.513 20.4366C136.362 20.5884 136.258 20.7801 136.213 20.989C136.168 21.198 136.183 21.4155 136.258 21.6159C136.332 21.8164 136.462 21.9914 136.633 22.1202C136.803 22.2491 137.007 22.3265 137.22 22.3432C137.433 22.36 137.647 22.3155 137.836 22.2149C137.891 22.1863 137.943 22.1524 137.992 22.1139C138.082 22.0469 138.16 21.9654 138.223 21.8728C138.361 21.6775 138.433 21.4431 138.429 21.2039C138.424 20.9648 138.343 20.7334 138.197 20.5436ZM137.718 21.7588C137.669 21.7949 137.615 21.8245 137.559 21.8467C137.415 21.9039 137.257 21.9098 137.11 21.8632C136.962 21.8167 136.836 21.7207 136.752 21.5914C136.667 21.4622 136.63 21.3078 136.647 21.1544C136.664 21.0011 136.733 20.8582 136.843 20.7501C136.953 20.6419 137.097 20.5753 137.251 20.5614C137.404 20.5475 137.558 20.5872 137.686 20.6738C137.814 20.7604 137.907 20.8885 137.951 21.0364C137.995 21.1843 137.986 21.3429 137.927 21.4851C137.882 21.5928 137.81 21.687 137.718 21.7588Z" fill="#B5E1EC"/>
<path d="M133.435 20.1722H130.457V23.1499H133.435V20.1722Z" fill="#B5E1EC"/>
<path d="M132.109 20.7261H131.783V22.5993H132.109V20.7261Z" fill="#B5E1EC"/>
<path d="M131.008 21.4982V21.824H132.881V21.4982H131.008Z" fill="#B5E1EC"/>
<path d="M142.79 20.3645C142.79 20.4154 142.775 20.4652 142.747 20.5075C142.718 20.5499 142.678 20.5828 142.631 20.6023C142.584 20.6218 142.532 20.6269 142.483 20.617C142.433 20.607 142.387 20.5825 142.351 20.5465C142.315 20.5105 142.29 20.4647 142.28 20.4148C142.27 20.3648 142.276 20.3131 142.295 20.2661C142.314 20.219 142.347 20.1788 142.39 20.1506C142.432 20.1223 142.482 20.1072 142.533 20.1072C142.567 20.1072 142.6 20.1138 142.631 20.1268C142.662 20.1397 142.691 20.1587 142.715 20.1826C142.739 20.2065 142.758 20.2348 142.771 20.2661C142.783 20.2973 142.79 20.3307 142.79 20.3645Z" fill="#B5E1EC"/>
<path d="M142.79 21.6936C142.79 21.7619 142.763 21.8274 142.715 21.8756C142.666 21.9239 142.601 21.951 142.533 21.951C142.465 21.951 142.399 21.9239 142.351 21.8756C142.303 21.8274 142.275 21.7619 142.275 21.6936C142.275 21.6598 142.282 21.6264 142.295 21.5952C142.308 21.5639 142.327 21.5356 142.351 21.5117C142.375 21.4878 142.403 21.4688 142.434 21.4559C142.465 21.4429 142.499 21.4363 142.533 21.4363C142.567 21.4363 142.6 21.4429 142.631 21.4559C142.662 21.4688 142.691 21.4878 142.715 21.5117C142.739 21.5356 142.758 21.5639 142.771 21.5952C142.783 21.6264 142.79 21.6598 142.79 21.6936Z" fill="#B5E1EC"/>
<path d="M142.79 23.0359C142.79 23.0697 142.783 23.1032 142.771 23.1344C142.758 23.1656 142.739 23.194 142.715 23.2179C142.691 23.2418 142.662 23.2608 142.631 23.2737C142.6 23.2866 142.567 23.2933 142.533 23.2933C142.499 23.2933 142.465 23.2866 142.434 23.2737C142.403 23.2608 142.375 23.2418 142.351 23.2179C142.327 23.194 142.308 23.1656 142.295 23.1344C142.282 23.1032 142.275 23.0697 142.275 23.0359C142.275 22.9677 142.303 22.9022 142.351 22.8539C142.399 22.8057 142.465 22.7786 142.533 22.7786C142.601 22.7786 142.666 22.8057 142.715 22.8539C142.763 22.9022 142.79 22.9677 142.79 23.0359Z" fill="#B5E1EC"/>
<path d="M147.321 27.0592H86.9219V36.3862H147.321V27.0592Z" fill="white"/>
<path d="M96.7592 33.5259C96.57 33.6428 96.3632 33.7286 96.1467 33.78C95.6303 33.904 95.0861 33.8287 94.6227 33.5693C94.1593 33.3098 93.8107 32.8852 93.6465 32.3801C93.4822 31.8751 93.5144 31.3267 93.7365 30.8443C93.9587 30.3619 94.3545 29.9809 94.845 29.7774C95.3356 29.5738 95.8848 29.5627 96.3832 29.7462C96.8816 29.9296 97.2926 30.2942 97.5341 30.7672C97.7756 31.2402 97.83 31.7868 97.6864 32.2981C97.5428 32.8095 97.2117 33.2478 96.7592 33.5259Z" fill="#B5E1EC"/>
<path d="M96.2738 31.467C96.2738 31.5959 96.2356 31.7218 96.164 31.829C96.0924 31.9361 95.9907 32.0196 95.8716 32.0689C95.7525 32.1183 95.6215 32.1312 95.4951 32.106C95.3688 32.0809 95.2527 32.0188 95.1615 31.9277C95.0704 31.8366 95.0084 31.7205 94.9832 31.5941C94.9581 31.4677 94.971 31.3367 95.0203 31.2176C95.0696 31.0986 95.1531 30.9968 95.2603 30.9252C95.3674 30.8536 95.4934 30.8154 95.6223 30.8154C95.7951 30.8154 95.9608 30.8841 96.083 31.0063C96.2052 31.1285 96.2738 31.2942 96.2738 31.467Z" fill="#B5E1EC"/>
<path d="M96.7589 33.2588V33.526C96.5697 33.6429 96.3629 33.7287 96.1465 33.7801C95.8718 33.8488 95.5861 33.8617 95.3063 33.818C95.0265 33.7744 94.7583 33.6751 94.5176 33.526V33.2588C94.5176 32.9633 94.635 32.6799 94.8439 32.471C95.0529 32.262 95.3362 32.1447 95.6317 32.1447C95.9272 32.1447 96.2106 32.262 96.4196 32.471C96.6285 32.6799 96.7459 32.9633 96.7459 33.2588H96.7589Z" fill="#B5E1EC"/>
<path d="M108.929 33.1252H106.127L107.27 31.7243L106.127 30.3235H108.929L110.072 31.7243L108.929 33.1252Z" fill="#B5E1EC"/>
<path d="M101.73 30.3235L102.186 31.2454L103.203 31.392L102.467 32.112L102.643 33.1252L101.73 32.6463L100.821 33.1252L100.994 32.112L100.258 31.392L101.274 31.2454L101.73 30.3235Z" fill="#B5E1EC"/>
<path d="M128.612 31.1543H112.082V32.2945H128.612V31.1543Z" fill="#263238"/>
<path d="M141.906 31.1543H135.426V32.2945H141.906V31.1543Z" fill="#455A64"/>
<path d="M96.7592 42.8693C96.57 42.9862 96.3632 43.072 96.1467 43.1234C95.6303 43.2473 95.0861 43.1721 94.6227 42.9126C94.1593 42.6532 93.8107 42.2286 93.6465 41.7235C93.4822 41.2185 93.5144 40.67 93.7365 40.1876C93.9587 39.7052 94.3545 39.3243 94.845 39.1208C95.3356 38.9172 95.8848 38.9061 96.3832 39.0895C96.8816 39.273 97.2926 39.6376 97.5341 40.1106C97.7756 40.5836 97.83 41.1302 97.6864 41.6415C97.5428 42.1528 97.2117 42.5912 96.7592 42.8693Z" fill="#455A64"/>
<path d="M96.2738 40.8104C96.2738 40.9392 96.2356 41.0652 96.164 41.1724C96.0924 41.2795 95.9907 41.363 95.8716 41.4123C95.7525 41.4616 95.6215 41.4746 95.4951 41.4494C95.3688 41.4243 95.2527 41.3622 95.1615 41.2711C95.0704 41.18 95.0084 41.0639 94.9832 40.9375C94.9581 40.8111 94.971 40.6801 95.0203 40.561C95.0696 40.442 95.1531 40.3402 95.2603 40.2686C95.3674 40.197 95.4934 40.1588 95.6223 40.1588C95.7951 40.1588 95.9608 40.2275 96.083 40.3497C96.2052 40.4718 96.2738 40.6376 96.2738 40.8104Z" fill="#B5E1EC"/>
<path d="M96.7589 42.5858V42.8692C96.5697 42.9861 96.3629 43.0719 96.1465 43.1233C95.8719 43.193 95.586 43.2064 95.3061 43.1627C95.0261 43.119 94.7579 43.0192 94.5176 42.8692V42.6021C94.5176 42.3066 94.635 42.0232 94.8439 41.8142C95.0529 41.6053 95.3362 41.4879 95.6317 41.4879C95.9272 41.4879 96.2106 41.6053 96.4196 41.8142C96.6285 42.0232 96.7459 42.3066 96.7459 42.6021L96.7589 42.5858Z" fill="#B5E1EC"/>
<path d="M108.929 42.4523H106.127L107.27 41.0515L106.127 39.6506H108.929L110.072 41.0515L108.929 42.4523Z" fill="#B5E1EC"/>
<path d="M108.969 42.5434H105.955L107.167 41.0612L105.955 39.5789H108.969L110.177 41.0612L108.969 42.5434ZM106.3 42.3806H108.907L109.982 41.0612L108.907 39.758H106.3L107.375 41.0612L106.3 42.3806Z" fill="white"/>
<path d="M101.73 39.6506L102.186 40.5726L103.203 40.7192L102.467 41.4392L102.643 42.4523L101.73 41.9734L100.821 42.4523L100.994 41.4392L100.258 40.7192L101.274 40.5726L101.73 39.6506Z" fill="#B5E1EC"/>
<path d="M128.612 40.4813H112.082V41.6215H128.612V40.4813Z" fill="#263238"/>
<path d="M141.906 40.4813H135.426V41.6215H141.906V40.4813Z" fill="#455A64"/>
<path d="M147.321 45.7133H86.9219V55.0403H147.321V45.7133Z" fill="white"/>
<path d="M96.7587 52.18C96.5689 52.2966 96.3623 52.3834 96.1462 52.4374C95.6271 52.5648 95.0791 52.4919 94.6114 52.2331C94.1437 51.9744 93.7908 51.5488 93.623 51.0413C93.4552 50.5338 93.4849 49.9817 93.7062 49.4952C93.9275 49.0086 94.3241 48.6234 94.8168 48.4164C95.3096 48.2093 95.8623 48.1956 96.3647 48.3781C96.8671 48.5605 97.2823 48.9256 97.5273 49.4006C97.7724 49.8756 97.8294 50.4256 97.6869 50.9407C97.5445 51.4559 97.213 51.8984 96.7587 52.18Z" fill="#B5E1EC"/>
<path d="M96.2738 50.1374C96.2738 50.2663 96.2356 50.3922 96.164 50.4994C96.0924 50.6065 95.9907 50.69 95.8716 50.7394C95.7525 50.7887 95.6215 50.8016 95.4951 50.7764C95.3688 50.7513 95.2527 50.6892 95.1615 50.5981C95.0704 50.507 95.0084 50.3909 94.9832 50.2645C94.9581 50.1381 94.971 50.0071 95.0203 49.8881C95.0696 49.769 95.1531 49.6672 95.2603 49.5956C95.3674 49.5241 95.4934 49.4858 95.6223 49.4858C95.7951 49.4858 95.9608 49.5545 96.083 49.6767C96.2052 49.7989 96.2738 49.9646 96.2738 50.1374Z" fill="#B5E1EC"/>
<path d="M96.7589 51.9129V52.18C96.5692 52.2966 96.3626 52.3834 96.1465 52.4374C95.8716 52.5063 95.5857 52.5191 95.3058 52.4749C95.0259 52.4307 94.7578 52.3304 94.5176 52.18V51.9129C94.5176 51.6174 94.635 51.334 94.8439 51.125C95.0529 50.9161 95.3362 50.7987 95.6317 50.7987C95.9272 50.7987 96.2106 50.9161 96.4196 51.125C96.6285 51.334 96.7459 51.6174 96.7459 51.9129H96.7589Z" fill="#B5E1EC"/>
<path d="M108.929 51.7794H106.127L107.27 50.3785L106.127 48.9777H108.929L110.072 50.3785L108.929 51.7794Z" fill="#B5E1EC"/>
<path d="M101.73 48.9777L102.186 49.8996L103.203 50.0462L102.467 50.7662L102.643 51.7794L101.73 51.3005L100.821 51.7794L100.994 50.7662L100.258 50.0462L101.274 49.8996L101.73 48.9777Z" fill="#B5E1EC"/>
<path d="M128.612 49.8083H112.082V50.9486H128.612V49.8083Z" fill="#DBDBDB"/>
<path d="M141.906 49.8083H135.426V50.9486H141.906V49.8083Z" fill="#C7C7C7"/>
<path d="M96.7587 61.507C96.5689 61.6237 96.3623 61.7105 96.1462 61.7644C95.6271 61.8918 95.0791 61.8189 94.6114 61.5602C94.1437 61.3014 93.7908 60.8758 93.623 60.3683C93.4552 59.8608 93.4849 59.3088 93.7062 58.8222C93.9275 58.3357 94.3241 57.9504 94.8168 57.7434C95.3096 57.5363 95.8623 57.5226 96.3647 57.7051C96.8671 57.8875 97.2823 58.2527 97.5273 58.7277C97.7724 59.2027 97.8294 59.7526 97.6869 60.2678C97.5445 60.7829 97.213 61.2255 96.7587 61.507Z" fill="#A6A6A6"/>
<path d="M96.2738 59.4644C96.2738 59.5933 96.2356 59.7193 96.164 59.8264C96.0924 59.9336 95.9907 60.0171 95.8716 60.0664C95.7525 60.1157 95.6215 60.1286 95.4951 60.1035C95.3688 60.0783 95.2527 60.0163 95.1615 59.9251C95.0704 59.834 95.0084 59.7179 94.9832 59.5915C94.9581 59.4651 94.971 59.3341 95.0203 59.2151C95.0696 59.096 95.1531 58.9943 95.2603 58.9227C95.3674 58.8511 95.4934 58.8129 95.6223 58.8129C95.7951 58.8129 95.9608 58.8815 96.083 59.0037C96.2052 59.1259 96.2738 59.2916 96.2738 59.4644Z" fill="#B5E1EC"/>
<path d="M96.7589 61.2432V61.5071C96.5692 61.6237 96.3626 61.7105 96.1465 61.7644C95.8716 61.8334 95.5857 61.8462 95.3058 61.8019C95.0259 61.7577 94.7578 61.6574 94.5176 61.5071V61.2432C94.5176 60.9477 94.635 60.6643 94.8439 60.4554C95.0529 60.2464 95.3362 60.129 95.6317 60.129C95.9272 60.129 96.2106 60.2464 96.4196 60.4554C96.6285 60.6643 96.7459 60.9477 96.7459 61.2432H96.7589Z" fill="#B5E1EC"/>
<path d="M108.929 61.1064H106.127L107.27 59.7055L106.127 58.3047H108.929L110.072 59.7055L108.929 61.1064Z" fill="#B5E1EC"/>
<path d="M108.969 61.1877H105.955L107.167 59.7054L105.955 58.2231H108.969L110.177 59.7054L108.969 61.1877ZM106.3 61.0248H108.907L109.982 59.7217L108.907 58.4023H106.3L107.375 59.7217L106.3 61.0248Z" fill="white"/>
<path d="M101.73 58.3047L102.186 59.2266L103.203 59.3765L102.467 60.0932L102.643 61.1064L101.73 60.6275L100.821 61.1064L100.994 60.0932L100.258 59.3765L101.274 59.2266L101.73 58.3047Z" fill="#B5E1EC"/>
<path d="M128.612 59.1354H112.082V60.2756H128.612V59.1354Z" fill="#DBDBDB"/>
<path d="M141.906 59.1354H135.426V60.2756H141.906V59.1354Z" fill="#C7C7C7"/>
<path d="M147.321 64.3706H86.9219V73.6976H147.321V64.3706Z" fill="white"/>
<path d="M96.7587 70.8341C96.5689 70.9507 96.3623 71.0375 96.1462 71.0914C95.6271 71.2189 95.0791 71.1459 94.6114 70.8872C94.1437 70.6284 93.7908 70.2028 93.623 69.6954C93.4552 69.1879 93.4849 68.6358 93.7062 68.1492C93.9275 67.6627 94.3241 67.2775 94.8168 67.0704C95.3096 66.8633 95.8623 66.8497 96.3647 67.0321C96.8671 67.2145 97.2823 67.5797 97.5273 68.0547C97.7724 68.5297 97.8294 69.0796 97.6869 69.5948C97.5445 70.11 97.213 70.5525 96.7587 70.8341Z" fill="#37474F"/>
<path d="M96.2738 68.7914C96.2738 68.9203 96.2356 69.0463 96.164 69.1534C96.0924 69.2606 95.9907 69.3441 95.8716 69.3934C95.7525 69.4427 95.6215 69.4556 95.4951 69.4305C95.3688 69.4053 95.2527 69.3433 95.1615 69.2522C95.0704 69.161 95.0084 69.0449 94.9832 68.9186C94.9581 68.7922 94.971 68.6612 95.0203 68.5421C95.0696 68.423 95.1531 68.3213 95.2603 68.2497C95.3674 68.1781 95.4934 68.1399 95.6223 68.1399C95.7951 68.1399 95.9608 68.2085 96.083 68.3307C96.2052 68.4529 96.2738 68.6186 96.2738 68.7914Z" fill="#B5E1EC"/>
<path d="M96.7589 70.5605V70.8243C96.5692 70.941 96.3626 71.0278 96.1465 71.0817C95.8716 71.1507 95.5857 71.1634 95.3058 71.1192C95.0259 71.075 94.7578 70.9747 94.5176 70.8243V70.5605C94.5176 70.265 94.635 69.9816 94.8439 69.7726C95.0529 69.5637 95.3362 69.4463 95.6317 69.4463C95.9272 69.4463 96.2106 69.5637 96.4196 69.7726C96.6285 69.9816 96.7459 70.265 96.7459 70.5605H96.7589Z" fill="#B5E1EC"/>
<path d="M108.929 70.4334H106.127L107.27 69.0326L106.127 67.6317H108.929L110.072 69.0326L108.929 70.4334Z" fill="#B5E1EC"/>
<path d="M101.73 67.6317L102.186 68.5537L103.203 68.7035L102.467 69.4202L102.643 70.4334L101.73 69.9545L100.821 70.4334L100.994 69.4202L100.258 68.7035L101.274 68.5537L101.73 67.6317Z" fill="#B5E1EC"/>
<path d="M128.612 68.4624H112.082V69.6026H128.612V68.4624Z" fill="#DBDBDB"/>
<path d="M141.906 68.4624H135.426V69.6026H141.906V68.4624Z" fill="#C7C7C7"/>
<path d="M147.326 120.333V124.894C147.339 125.837 147.114 126.767 146.671 127.6C146.227 128.432 145.581 129.138 144.791 129.653H89.4609C88.671 129.139 88.0242 128.432 87.581 127.6C87.1378 126.768 86.9126 125.837 86.9264 124.894V120.333H147.326Z" fill="white"/>
<path d="M96.7587 126.8C96.5689 126.916 96.3623 127.003 96.1462 127.057C95.6271 127.184 95.0791 127.112 94.6114 126.853C94.1437 126.594 93.7908 126.168 93.623 125.661C93.4552 125.153 93.4849 124.601 93.7062 124.115C93.9275 123.628 94.3241 123.243 94.8168 123.036C95.3096 122.829 95.8623 122.815 96.3647 122.998C96.8671 123.18 97.2823 123.545 97.5273 124.02C97.7724 124.495 97.8294 125.045 97.6869 125.56C97.5445 126.076 97.213 126.518 96.7587 126.8Z" fill="#B5E1EC"/>
<path d="M96.2738 124.757C96.2738 124.886 96.2356 125.012 96.164 125.119C96.0924 125.226 95.9907 125.31 95.8716 125.359C95.7525 125.408 95.6215 125.421 95.4951 125.396C95.3688 125.371 95.2527 125.309 95.1615 125.218C95.0704 125.127 95.0084 125.01 94.9832 124.884C94.9581 124.758 94.971 124.627 95.0203 124.508C95.0696 124.389 95.1531 124.287 95.2603 124.215C95.3674 124.144 95.4934 124.105 95.6223 124.105C95.7951 124.105 95.9608 124.174 96.083 124.296C96.2052 124.418 96.2738 124.584 96.2738 124.757Z" fill="#B5E1EC"/>
<path d="M96.7589 126.532V126.8C96.5692 126.916 96.3626 127.003 96.1465 127.057C95.8715 127.125 95.5857 127.137 95.3059 127.093C95.0262 127.049 94.7581 126.949 94.5176 126.8V126.532C94.5176 126.237 94.635 125.953 94.8439 125.745C95.0529 125.536 95.3362 125.418 95.6317 125.418C95.9272 125.418 96.2106 125.536 96.4196 125.745C96.6285 125.953 96.7459 126.237 96.7459 126.532H96.7589Z" fill="#B5E1EC"/>
<path d="M108.929 126.399H106.127L107.27 124.998L106.127 123.597H108.929L110.072 124.998L108.929 126.399Z" fill="#B5E1EC"/>
<path d="M101.73 123.597L102.186 124.519L103.203 124.666L102.467 125.386L102.643 126.399L101.73 125.92L100.821 126.399L100.994 125.386L100.258 124.666L101.274 124.519L101.73 123.597Z" fill="#B5E1EC"/>
<path d="M128.612 124.428H112.082V125.568H128.612V124.428Z" fill="#DBDBDB"/>
<path d="M141.906 124.428H135.426V125.568H141.906V124.428Z" fill="#C7C7C7"/>
<path d="M96.7588 80.1611C96.4741 80.3366 96.1518 80.4422 95.8184 80.4694C95.485 80.4965 95.15 80.4445 94.8405 80.3174C94.5311 80.1903 94.2561 79.9918 94.0381 79.7382C93.82 79.4846 93.665 79.1829 93.5858 78.858C93.4931 78.4779 93.5073 78.0796 93.627 77.7071C93.7466 77.3346 93.9669 77.0025 94.2636 76.7474C94.5602 76.4924 94.9216 76.3243 95.3078 76.2619C95.694 76.1995 96.09 76.2451 96.4519 76.3937C96.8138 76.5424 97.1275 76.7882 97.3584 77.104C97.5892 77.4199 97.7283 77.7934 97.76 78.1833C97.7918 78.5733 97.7151 78.9644 97.5384 79.3134C97.3617 79.6625 97.0919 79.9558 96.7588 80.1611Z" fill="#263238"/>
<path d="M96.2738 78.1185C96.2738 78.2473 96.2356 78.3733 96.164 78.4805C96.0924 78.5876 95.9907 78.6711 95.8716 78.7204C95.7525 78.7697 95.6215 78.7826 95.4951 78.7575C95.3688 78.7324 95.2527 78.6703 95.1615 78.5792C95.0704 78.4881 95.0084 78.372 94.9832 78.2456C94.9581 78.1192 94.971 77.9882 95.0203 77.8691C95.0696 77.7501 95.1531 77.6483 95.2603 77.5767C95.3674 77.5051 95.4934 77.4669 95.6223 77.4669C95.7951 77.4669 95.9608 77.5356 96.083 77.6578C96.2052 77.7799 96.2738 77.9457 96.2738 78.1185Z" fill="#B5E1EC"/>
<path d="M96.7576 79.8972V80.1611C96.4232 80.369 96.0372 80.4791 95.6435 80.4791C95.2497 80.4791 94.8638 80.369 94.5293 80.1611V79.8972C94.5293 79.6018 94.6467 79.3184 94.8556 79.1094C95.0646 78.9005 95.348 78.7831 95.6435 78.7831C95.939 78.7831 96.2223 78.9005 96.4313 79.1094C96.6402 79.3184 96.7576 79.6018 96.7576 79.8972Z" fill="#B5E1EC"/>
<path d="M108.929 79.7604H106.127L107.27 78.3596L106.127 76.9587H108.929L110.072 78.3596L108.929 79.7604Z" fill="#B5E1EC"/>
<path d="M108.969 79.8419H105.955L107.167 78.3596L105.955 76.8773H108.969L110.177 78.3596L108.969 79.8419ZM106.3 79.679H108.907L109.982 78.3596L108.907 77.0402H106.3L107.375 78.3596L106.3 79.679Z" fill="white"/>
<path d="M101.73 76.9587L102.186 77.8807L103.203 78.0305L102.467 78.7473L102.643 79.7604L101.73 79.2815L100.821 79.7604L100.994 78.7473L100.258 78.0305L101.274 77.8807L101.73 76.9587Z" fill="#B5E1EC"/>
<path d="M102.75 79.9102L101.73 79.376L100.711 79.9102L100.906 78.7765L100.082 77.9719L101.222 77.809L101.73 76.7762L102.239 77.809L103.379 77.9719L102.555 78.7765L102.75 79.9102ZM101.73 79.1903L102.532 79.6138L102.379 78.7179L103.03 78.0859L102.131 77.9556L101.73 77.1444L101.32 77.9556L100.424 78.0859L101.076 78.7179L100.923 79.6138L101.73 79.1903Z" fill="white"/>
<path d="M128.612 77.7894H112.082V78.9297H128.612V77.7894Z" fill="#DBDBDB"/>
<path d="M141.906 77.7894H135.426V78.9297H141.906V77.7894Z" fill="#C7C7C7"/>
<path d="M147.321 83.0247H86.9219V92.3517H147.321V83.0247Z" fill="white"/>
<path d="M96.7591 89.4914C96.5692 89.607 96.3626 89.6927 96.1466 89.7455C95.7398 89.8443 95.3128 89.8203 94.9195 89.6765C94.5263 89.5327 94.1846 89.2756 93.9375 88.9376C93.6904 88.5996 93.549 88.196 93.5312 87.7777C93.5134 87.3594 93.62 86.9452 93.8376 86.5875C94.0551 86.2297 94.3738 85.9445 94.7534 85.7679C95.133 85.5913 95.5565 85.5311 95.9702 85.595C96.384 85.659 96.7695 85.8441 97.0781 86.1271C97.3867 86.4101 97.6044 86.7782 97.7038 87.1849C97.8095 87.6198 97.775 88.0771 97.6053 88.4913C97.4357 88.9055 97.1395 89.2555 96.7591 89.4914Z" fill="#B5E1EC"/>
<path d="M96.2738 87.4455C96.2738 87.5744 96.2356 87.7003 96.164 87.8075C96.0924 87.9146 95.9907 87.9982 95.8716 88.0475C95.7525 88.0968 95.6215 88.1097 95.4951 88.0845C95.3688 88.0594 95.2527 87.9973 95.1615 87.9062C95.0704 87.8151 95.0084 87.699 94.9832 87.5726C94.9581 87.4462 94.971 87.3152 95.0203 87.1962C95.0696 87.0771 95.1531 86.9753 95.2603 86.9038C95.3674 86.8322 95.4934 86.7939 95.6223 86.7939C95.7951 86.7939 95.9608 86.8626 96.083 86.9848C96.2052 87.107 96.2738 87.2727 96.2738 87.4455Z" fill="#B5E1EC"/>
<path d="M96.7589 89.2243V89.4914C96.569 89.607 96.3624 89.6927 96.1465 89.7455C95.8716 89.8145 95.5857 89.8272 95.3058 89.783C95.0259 89.7388 94.7578 89.6385 94.5176 89.4882V89.2243C94.5176 88.9288 94.635 88.6454 94.8439 88.4364C95.0529 88.2275 95.3362 88.1101 95.6317 88.1101C95.9272 88.1101 96.2106 88.2275 96.4196 88.4364C96.6285 88.6454 96.7459 88.9288 96.7459 89.2243H96.7589Z" fill="#B5E1EC"/>
<path d="M108.929 89.0907H106.127L107.27 87.6866L106.127 86.2858H108.929L110.072 87.6866L108.929 89.0907Z" fill="#B5E1EC"/>
<path d="M101.73 86.2858L102.186 87.211L103.203 87.3576L102.467 88.0743L102.643 89.0907L101.73 88.6118L100.821 89.0907L100.994 88.0743L100.258 87.3576L101.274 87.211L101.73 86.2858Z" fill="#B5E1EC"/>
<path d="M128.612 87.1198H112.082V88.26H128.612V87.1198Z" fill="#263238"/>
<path d="M141.906 87.1198H135.426V88.26H141.906V87.1198Z" fill="#455A64"/>
<path d="M96.7591 98.8184C96.5698 98.9353 96.3631 99.0211 96.1466 99.0725C95.7398 99.1713 95.3128 99.1473 94.9195 99.0035C94.5263 98.8597 94.1846 98.6026 93.9375 98.2646C93.6904 97.9266 93.549 97.523 93.5312 97.1047C93.5134 96.6864 93.62 96.2722 93.8376 95.9145C94.0551 95.5568 94.3738 95.2716 94.7534 95.0949C95.133 94.9183 95.5565 94.8581 95.9702 94.9221C96.384 94.986 96.7695 95.1711 97.0781 95.4541C97.3867 95.7371 97.6044 96.1052 97.7038 96.5119C97.8095 96.9469 97.775 97.4041 97.6053 97.8183C97.4357 98.2325 97.1395 98.5825 96.7591 98.8184Z" fill="#B5E1EC"/>
<path d="M96.2738 96.7725C96.2738 96.9014 96.2356 97.0274 96.164 97.1345C96.0924 97.2417 95.9907 97.3252 95.8716 97.3745C95.7525 97.4238 95.6215 97.4367 95.4951 97.4116C95.3688 97.3864 95.2527 97.3244 95.1615 97.2332C95.0704 97.1421 95.0084 97.026 94.9832 96.8996C94.9581 96.7733 94.971 96.6423 95.0203 96.5232C95.0696 96.4041 95.1531 96.3024 95.2603 96.2308C95.3674 96.1592 95.4934 96.121 95.6223 96.121C95.7951 96.121 95.9608 96.1896 96.083 96.3118C96.2052 96.434 96.2738 96.5997 96.2738 96.7725Z" fill="#B5E1EC"/>
<path d="M96.7589 98.5513V98.8184C96.5697 98.9354 96.3629 99.0212 96.1465 99.0725C95.8716 99.1415 95.5857 99.1543 95.3058 99.11C95.0259 99.0658 94.7578 98.9655 94.5176 98.8152V98.5513C94.5176 98.2558 94.635 97.9724 94.8439 97.7635C95.0529 97.5545 95.3362 97.4371 95.6317 97.4371C95.9272 97.4371 96.2106 97.5545 96.4196 97.7635C96.6285 97.9724 96.7459 98.2558 96.7459 98.5513H96.7589Z" fill="#B5E1EC"/>
<path d="M108.929 98.4178H106.127L107.27 97.0169L106.127 95.6161H108.929L110.072 97.0169L108.929 98.4178Z" fill="#B5E1EC"/>
<path d="M108.969 98.4993H105.955L107.167 97.017L105.955 95.5347H108.969L110.177 97.017L108.969 98.4993ZM106.3 98.3364H108.907L109.982 97.017L108.907 95.7138H106.3L107.375 97.017L106.3 98.3364Z" fill="white"/>
<path d="M101.73 95.6161L102.186 96.538L103.203 96.6846L102.467 97.4014L102.643 98.4178L101.73 97.9389L100.821 98.4178L100.994 97.4014L100.258 96.6846L101.274 96.538L101.73 95.6161Z" fill="#B5E1EC"/>
<path d="M102.75 98.5774L101.73 98.0431L100.711 98.5774L100.906 97.4436L100.082 96.6227L101.222 96.4565L101.73 95.4238L102.239 96.4565L103.379 96.6227L102.555 97.4241L102.75 98.5774ZM100.434 96.7563L101.085 97.3883L100.932 98.2809L101.734 97.8574L102.535 98.2809L102.382 97.3883L103.034 96.7563L102.134 96.6227L101.734 95.8115L101.32 96.6227L100.434 96.7563Z" fill="white"/>
<path d="M128.612 96.4468H112.082V97.587H128.612V96.4468Z" fill="#DBDBDB"/>
<path d="M141.906 96.4468H135.426V97.587H141.906V96.4468Z" fill="#C7C7C7"/>
<path d="M147.321 101.679H86.9219V111.006H147.321V101.679Z" fill="white"/>
<path d="M96.7592 108.146C96.57 108.262 96.3632 108.348 96.1467 108.4C95.6303 108.524 95.0861 108.448 94.6227 108.189C94.1593 107.929 93.8107 107.505 93.6465 107C93.4822 106.495 93.5144 105.946 93.7365 105.464C93.9587 104.981 94.3545 104.601 94.845 104.397C95.3356 104.193 95.8848 104.182 96.3832 104.366C96.8816 104.549 97.2926 104.914 97.5341 105.387C97.7756 105.86 97.83 106.406 97.6864 106.918C97.5428 107.429 97.2117 107.867 96.7592 108.146Z" fill="#455A64"/>
<path d="M96.2738 106.1C96.2738 106.228 96.2356 106.354 96.164 106.462C96.0924 106.569 95.9907 106.652 95.8716 106.702C95.7525 106.751 95.6215 106.764 95.4951 106.739C95.3688 106.713 95.2527 106.651 95.1615 106.56C95.0704 106.469 95.0084 106.353 94.9832 106.227C94.9581 106.1 94.971 105.969 95.0203 105.85C95.0696 105.731 95.1531 105.629 95.2603 105.558C95.3674 105.486 95.4934 105.448 95.6223 105.448C95.7951 105.448 95.9608 105.517 96.083 105.639C96.2052 105.761 96.2738 105.927 96.2738 106.1Z" fill="#B5E1EC"/>
<path d="M96.7589 107.878V108.145C96.5697 108.262 96.3629 108.348 96.1465 108.4C95.8718 108.468 95.5861 108.481 95.3063 108.438C95.0265 108.394 94.7583 108.295 94.5176 108.145V107.878C94.5176 107.583 94.635 107.299 94.8439 107.09C95.0529 106.882 95.3362 106.764 95.6317 106.764C95.9272 106.764 96.2106 106.882 96.4196 107.09C96.6285 107.299 96.7459 107.583 96.7459 107.878H96.7589Z" fill="#B5E1EC"/>
<path d="M108.929 107.745H106.127L107.27 106.344L106.127 104.943H108.929L110.072 106.344L108.929 107.745Z" fill="#B5E1EC"/>
<path d="M101.73 104.943L102.186 105.865L103.203 106.012L102.467 106.728L102.643 107.745L101.73 107.266L100.821 107.745L100.994 106.728L100.258 106.012L101.274 105.865L101.73 104.943Z" fill="#B5E1EC"/>
<path d="M128.612 105.774H112.082V106.914H128.612V105.774Z" fill="#DBDBDB"/>
<path d="M141.906 105.774H135.426V106.914H141.906V105.774Z" fill="#C7C7C7"/>
<path d="M96.7592 117.473C96.57 117.589 96.3632 117.675 96.1467 117.727C95.6303 117.851 95.0861 117.775 94.6227 117.516C94.1593 117.256 93.8107 116.832 93.6465 116.327C93.4822 115.822 93.5144 115.273 93.7365 114.791C93.9587 114.309 94.3545 113.928 94.845 113.724C95.3356 113.521 95.8848 113.509 96.3832 113.693C96.8816 113.876 97.2926 114.241 97.5341 114.714C97.7756 115.187 97.83 115.733 97.6864 116.245C97.5428 116.756 97.2117 117.194 96.7592 117.473Z" fill="#A6A6A6"/>
<path d="M96.2738 115.43C96.2738 115.559 96.2356 115.685 96.164 115.792C96.0924 115.899 95.9907 115.983 95.8716 116.032C95.7525 116.081 95.6215 116.094 95.4951 116.069C95.3688 116.044 95.2527 115.982 95.1615 115.891C95.0704 115.799 95.0084 115.683 94.9832 115.557C94.9581 115.431 94.971 115.3 95.0203 115.181C95.0696 115.061 95.1531 114.96 95.2603 114.888C95.3674 114.817 95.4934 114.778 95.6223 114.778C95.7951 114.778 95.9608 114.847 96.083 114.969C96.2052 115.091 96.2738 115.257 96.2738 115.43Z" fill="#B5E1EC"/>
<path d="M96.7589 117.205V117.473C96.5697 117.59 96.3629 117.675 96.1465 117.727C95.8719 117.796 95.586 117.81 95.3061 117.766C95.0261 117.722 94.7579 117.623 94.5176 117.473V117.205C94.5176 116.91 94.635 116.627 94.8439 116.418C95.0529 116.209 95.3362 116.091 95.6317 116.091C95.9272 116.091 96.2106 116.209 96.4196 116.418C96.6285 116.627 96.7459 116.91 96.7459 117.205H96.7589Z" fill="#B5E1EC"/>
<path d="M108.929 117.072H106.127L107.27 115.671L106.127 114.27H108.929L110.072 115.671L108.929 117.072Z" fill="#B5E1EC"/>
<path d="M108.969 117.147H105.955L107.167 115.664L105.955 114.182H108.969L110.177 115.664L108.969 117.147ZM106.3 116.984H108.907L109.982 115.681L108.907 114.361H106.3L107.375 115.681L106.3 116.984Z" fill="white"/>
<path d="M101.73 114.27L102.186 115.192L103.203 115.339L102.467 116.059L102.643 117.072L101.73 116.593L100.821 117.072L100.994 116.059L100.258 115.339L101.274 115.192L101.73 114.27Z" fill="#B5E1EC"/>
<path d="M102.75 117.222L101.73 116.684L100.711 117.222L100.906 116.085L100.082 115.283L101.222 115.117L101.73 114.084L102.239 115.117L103.379 115.283L102.555 116.085L102.75 117.222ZM101.73 116.495L102.532 116.915L102.379 116.023L103.03 115.391L102.131 115.261L101.73 114.446L101.33 115.261L100.434 115.391L101.085 116.023L100.932 116.915L101.73 116.495Z" fill="white"/>
<path d="M128.612 115.101H112.082V116.241H128.612V115.101Z" fill="#DBDBDB"/>
<path d="M141.906 115.101H135.426V116.241H141.906V115.101Z" fill="#C7C7C7"/>
<path d="M96.3438 134.322H69.8971C66.7338 123.226 64.1895 114.775 64.1895 114.775H89.2646C89.2646 114.775 92.3628 123.144 96.3438 134.322Z" fill="#37474F"/>
<path d="M73.771 134.322H73.227C71.66 129.093 70.0311 123.897 68.4348 118.662C68.412 118.593 68.5195 118.561 68.5456 118.629C68.8713 119.535 69.1971 120.44 69.5229 121.349C71.0475 125.637 72.4451 129.969 73.771 134.322Z" fill="#263238"/>
<path d="M88.691 114.785C88.6617 115.309 87.2641 120.108 86.5408 127.288C86.277 129.937 85.9772 132.429 85.658 134.322H50.5619C47.0891 123.591 52.2429 114.775 52.2429 114.775C52.2429 114.775 88.6942 114.762 88.691 114.785Z" fill="#37474F"/>
<path d="M81.6779 126.669C81.8017 128.471 81.8441 130.276 81.8212 132.077C81.7641 132.824 81.7576 133.574 81.8017 134.322H81.1925C81.0459 133.178 81.1925 131.755 81.1925 130.631C81.173 125.975 80.58 121.372 79.8633 116.779C79.8627 116.758 79.8693 116.738 79.8821 116.722C79.8948 116.705 79.9128 116.694 79.933 116.69C79.9532 116.685 79.9743 116.688 79.9925 116.698C80.0107 116.708 80.025 116.724 80.0327 116.743C80.9204 119.986 81.4717 123.313 81.6779 126.669Z" fill="#263238"/>
<path d="M86.0308 128.995C85.9982 129.953 85.7376 132.504 84.9851 134.322H84.4606C85.4802 131.836 85.4216 126.985 85.3467 125.852C85.1349 122.529 84.8776 119.408 84.314 115.909C84.2944 115.798 84.4768 115.792 84.4997 115.893C85.4933 120.115 86.1676 124.662 86.0308 128.995Z" fill="#263238"/>
<path d="M52.7289 119.444C51.7125 123.838 52.2077 128.565 53.1785 132.914C53.2795 133.387 53.3935 133.856 53.5043 134.322H52.9765C51.5398 128.259 51.1 121.985 53.6281 116.104C53.6606 116.033 53.7682 116.104 53.7388 116.166C53.3194 117.231 52.9818 118.327 52.7289 119.444Z" fill="#263238"/>
<path d="M110.995 50.6878L105.229 69.0422C104.997 69.5765 105.248 70.0391 105.783 70.0684L115.387 70.6157C115.681 70.6113 115.967 70.5231 116.213 70.3616C116.459 70.2 116.654 69.9718 116.774 69.7035L122.528 51.3622C122.759 50.8247 122.508 50.3653 121.974 50.336L112.396 49.7887C112.101 49.7895 111.812 49.8746 111.564 50.0339C111.316 50.1932 111.119 50.4201 110.995 50.6878Z" fill="#37474F"/>
<path d="M112.134 50.7564L106.381 69.0977C106.15 69.632 106.401 70.0913 106.938 70.1239L116.539 70.6712C116.833 70.6662 117.12 70.5779 117.366 70.4164C117.613 70.255 117.808 70.027 117.93 69.759L123.68 51.4145C123.911 50.8802 123.664 50.4371 123.126 50.3915L113.522 49.8409C113.228 49.8468 112.941 49.9359 112.696 50.098C112.45 50.26 112.256 50.4883 112.134 50.7564Z" fill="#455A64"/>
<path d="M114.719 51.7565C114.706 51.9178 114.646 52.0717 114.545 52.1987C114.445 52.3256 114.31 52.42 114.156 52.4699C114.002 52.5197 113.836 52.5228 113.681 52.4787C113.525 52.4346 113.386 52.3454 113.281 52.2222C113.176 52.0991 113.11 51.9476 113.091 51.7869C113.073 51.6262 113.102 51.4635 113.176 51.3195C113.249 51.1755 113.364 51.0566 113.505 50.9778C113.647 50.899 113.808 50.8639 113.969 50.8769C114.185 50.8944 114.386 50.9968 114.526 51.1617C114.667 51.3266 114.736 51.5406 114.719 51.7565Z" fill="#263238"/>
<path d="M78.4268 77.1118C83.0952 89.0386 94.2987 104.865 99.3417 105.262C101.739 105.455 105.988 106.311 109.32 103.761C116.592 98.1962 123.097 87.0611 124.704 80.5488C125.277 78.2325 114.207 72.4043 112.396 74.1994C108.161 78.4084 102.997 86.8754 102.297 86.7777C99.7294 86.4128 90.1841 77.3301 83.5284 70.9481C75.4491 63.1946 76.56 72.3587 78.4268 77.1118Z" fill="#EB9481"/>
<path d="M125.785 68.4559C124.892 63.6148 123.921 62.5104 125.335 58.031C126.263 55.0989 124.784 53.2322 122.507 55.4931C118.78 59.1875 118.621 65.6737 119.214 67.9379L125.785 68.4559Z" fill="#EB9481"/>
<path d="M124.013 82.5555C124.013 82.5555 126.574 76.0628 126.134 70.8275C125.828 67.1983 124.284 59.3731 114.488 54.6494C112.165 53.5287 108.06 53.5808 111.191 56.7897C113.412 59.0702 115.514 59.8423 116.566 61.4027C116.566 61.4027 111.354 62.0869 110.318 64.4585C109.418 66.5324 108.666 68.6672 108.066 70.8471C108.44 71.0486 108.826 71.226 109.223 71.3781C109.223 71.3781 108.327 73.6292 109.816 77.0043L124.013 82.5555Z" fill="#EB9481"/>
<path d="M125.289 67.3939C123.917 66.0647 120.963 63.2988 117.757 61.8752C114.2 60.2951 106.915 58.2102 105.775 60.849C104.941 62.7841 107.651 63.8266 107.651 63.8266C107.651 63.8266 104.459 63.5985 104.087 65.5109C103.762 67.2538 105.892 67.9347 105.892 67.9347C105.892 67.9347 103.938 68.1301 103.938 69.873C103.938 71.9678 108.039 71.2152 109.87 73.3426C110.274 73.8182 125.289 67.3939 125.289 67.3939Z" fill="#EB9481"/>
<path d="M116.716 65.9149C115.221 64.8756 111.22 63.3901 107.718 63.7778C107.637 63.7778 107.601 63.8494 107.676 63.8559C110.758 64.1858 113.79 64.8881 116.703 65.9474C116.723 65.9572 116.732 65.9246 116.716 65.9149Z" fill="#263238"/>
<path d="M115.003 69.4625C113.621 68.697 109.432 67.3515 105.881 67.863C105.803 67.863 105.77 67.9411 105.845 67.9477C108.934 68.1166 111.995 68.6357 114.967 69.4951C114.971 69.4999 114.977 69.5027 114.984 69.503C114.99 69.5033 114.996 69.5011 115.001 69.4967C115.006 69.4924 115.009 69.4864 115.009 69.48C115.009 69.4736 115.007 69.4673 115.003 69.4625Z" fill="#263238"/>
<path d="M92.9991 78.0827L91.2203 80.2426L90.8522 80.6921L83.7274 89.2992C83.7274 89.2992 77.2802 78.7701 75.9771 72.7822C75.1985 69.1987 75.7589 67.0648 77.3259 66.6772C77.4425 66.6498 77.5613 66.6323 77.6809 66.625C78.6941 66.5371 80.0559 67.0713 81.6848 68.2735C86.2717 71.6616 92.9991 78.0827 92.9991 78.0827Z" fill="#B5E1EC"/>
<path d="M92.6005 77.7275C92.436 78.2674 92.2346 78.7953 91.9978 79.3076L92.9751 78.1348C92.9776 78.1207 92.9776 78.1064 92.9751 78.0924C92.9458 78.0338 92.8122 77.9067 92.6005 77.7275ZM81.6576 68.28C81.0245 68.6825 80.4444 69.163 79.931 69.7101C78.3704 71.3432 77.4978 73.514 77.4941 75.7729C77.4989 76.3795 77.5381 76.9853 77.6114 77.5875C77.7721 77.9588 77.935 78.3302 78.1001 78.7016C78.0708 78.4605 78.0382 78.2227 78.0056 77.9784C77.7785 76.6778 77.7609 75.3492 77.9535 74.043C78.1593 73.0132 78.5512 72.0295 79.11 71.1403C79.7985 70.0291 80.7159 69.0774 81.8009 68.3484C81.7586 68.3223 81.7227 68.293 81.6837 68.2637L81.6576 68.28Z" fill="#B5E1EC"/>
<path d="M82.343 85.7189C82.7275 84.8133 86.6857 79.376 89.9825 75.9228C89.9925 75.9115 90.0065 75.9047 90.0214 75.9038C90.0364 75.9029 90.0511 75.9079 90.0624 75.9179C90.0736 75.9278 90.0804 75.9418 90.0813 75.9568C90.0823 75.9717 90.0772 75.9865 90.0673 75.9977C89.7415 76.4212 83.2259 85.1553 82.4571 85.8167C82.3952 85.872 82.317 85.7841 82.343 85.7189Z" fill="#263238"/>
<path opacity="0.05" d="M88.2884 83.7967L83.7275 89.2959C83.7275 89.2959 77.2804 78.77 75.9773 72.7822C75.0781 68.6513 75.9545 66.4556 78.0948 66.6217L88.2884 83.7967Z" fill="black"/>
<path d="M89.5911 116.231C88.6789 117.209 50.11 121.33 49.8885 121.063C49.2988 120.343 52.8466 81.3632 68.6468 67.0843C71.4322 64.5693 76.3515 65.286 78.6319 66.5793C79.7689 67.2309 81.7496 72.6127 83.688 78.9035C85.154 83.7088 90.1514 115.599 89.5911 116.231Z" fill="#B5E1EC"/>
<path d="M89.5916 116.231C89.3897 116.45 87.3112 116.827 84.2065 117.277L83.8547 117.326C82.2844 117.551 80.4731 117.792 78.5184 118.036L78.0949 118.091C72.5143 118.792 65.8587 119.541 60.4117 120.115L60.2357 120.131C54.3717 120.75 49.9639 121.154 49.889 121.063C49.8141 120.971 49.8141 119.346 50.0715 116.785C50.0715 116.678 50.0943 116.564 50.104 116.459C50.7198 110.54 52.4268 99.786 55.8996 89.3839C55.955 89.2145 56.0137 89.0581 56.069 88.8789C57.1082 85.7778 58.3343 82.7425 59.7406 79.7897C59.7829 79.7017 59.822 79.617 59.8676 79.5291C61.2442 76.6322 62.9028 73.878 64.8194 71.3064C64.8846 71.2217 64.9465 71.1403 65.0149 71.0621C66.1042 69.6321 67.3199 68.303 68.6473 67.0908C69.0196 66.759 69.4322 66.4755 69.8755 66.2471C69.9765 66.1949 70.0808 66.1461 70.185 66.1005C71.5742 65.5173 73.0878 65.2933 74.5863 65.4489L74.9577 65.488C76.2423 65.6137 77.4904 65.9876 78.6325 66.5891C79.0788 66.8465 79.6587 67.8304 80.3135 69.3257C80.3461 69.3908 80.3754 69.4625 80.4047 69.5342C81.382 71.8146 82.5516 75.2158 83.6885 78.9133C84.0892 80.2165 84.7571 83.5394 85.4966 87.6833L85.5455 87.9635C85.8028 89.3936 86.0667 90.9248 86.3306 92.5016C86.3697 92.7263 86.4088 92.9479 86.4446 93.1727C86.9822 96.3914 87.5197 99.7729 87.9986 102.926C88.0149 103.054 88.0344 103.184 88.0572 103.308C88.4612 106.005 88.8195 108.52 89.0965 110.602C89.116 110.768 89.1356 110.928 89.1584 111.09C89.5265 114.081 89.7154 116.078 89.5916 116.231Z" fill="#B5E1EC"/>
<path d="M77.0415 112.452C76.3843 111.534 75.5475 110.758 74.5819 110.172C73.5447 109.569 72.401 109.172 71.2134 109.002C69.9689 108.787 68.6625 108.677 67.4962 108.136C66.3821 107.631 65.6002 106.728 64.8216 105.819C64.6163 105.582 64.4046 105.344 64.1896 105.116C64.4339 104.95 64.6815 104.79 64.9356 104.624C66.3983 103.725 68.0142 103.047 69.3662 101.979C70.5898 101.03 71.4464 99.6863 71.79 98.1767C72.1185 96.689 72.0053 95.1377 71.4642 93.7135C70.8897 92.2764 69.9429 91.0182 68.7211 90.0681C67.4686 89.109 66.0365 88.4107 64.5095 88.0145C62.9824 87.6184 61.3915 87.5323 59.8307 87.7615C58.5247 87.9358 57.2527 88.307 56.0581 88.8627C56.0028 89.0321 55.9441 89.1885 55.8887 89.3676C56.4678 89.0761 57.0691 88.831 57.687 88.6346C60.6675 87.6554 63.9131 87.8834 66.7274 89.2699C68.0847 89.9449 69.2592 90.9373 70.1513 92.1628C71.0097 93.375 71.4933 94.8124 71.5424 96.2969C71.6103 97.764 71.1898 99.2122 70.3468 100.415C69.3694 101.741 67.8806 102.542 66.4668 103.308C65.5937 103.783 64.7466 104.285 63.9224 104.842C63.4458 104.348 62.874 103.956 62.2414 103.689C61.1905 103.305 60.0391 103.298 58.9836 103.669C56.6869 104.441 55.3219 106.666 55.058 109.002C54.9293 110.305 55.0804 111.62 55.5011 112.86C54.5436 113.841 53.473 114.705 52.3117 115.433C51.6145 115.864 50.8658 116.206 50.0834 116.45C50.0834 116.56 50.0606 116.674 50.0508 116.775C50.1909 116.736 50.331 116.694 50.4678 116.645C52.4648 115.971 54.1263 114.674 55.6281 113.218C56.0462 114.348 56.5928 115.427 57.257 116.433C58.1169 117.76 59.1103 118.996 60.2216 120.121L60.3975 120.105C59.755 119.427 59.1535 118.711 58.596 117.961C57.4281 116.463 56.5015 114.791 55.8496 113.006C56.4067 112.452 56.9443 111.876 57.4785 111.306C58.508 110.185 59.5212 109.025 60.619 107.979C61.6426 106.995 62.7465 106.099 63.9192 105.298C64.6196 106.044 65.2223 106.888 65.9846 107.579C66.884 108.326 67.9654 108.822 69.1186 109.015C70.3142 109.266 71.5456 109.367 72.7217 109.729C73.7688 110.059 74.7307 110.615 75.5397 111.358C76.3551 112.084 77.0085 112.973 77.4576 113.968C77.9066 114.963 78.1411 116.042 78.1459 117.134C78.1438 117.455 78.1187 117.777 78.071 118.095L78.4945 118.039C78.7288 116.061 78.2101 114.066 77.0415 112.452ZM62.1241 106.162C60.8893 107.179 59.7318 108.286 58.6611 109.475C57.6838 110.524 56.7423 111.622 55.7291 112.648C55.5505 112.069 55.4262 111.474 55.3577 110.872C55.1036 108.592 55.7975 105.986 57.7587 104.624C58.6546 103.993 59.7327 103.674 60.8275 103.715C61.9005 103.789 62.9069 104.262 63.6488 105.041C63.1308 105.396 62.6193 105.764 62.1241 106.162ZM87.9812 102.904C86.854 103.806 85.7822 104.79 84.5214 105.51C82.7068 106.546 80.2114 107.097 78.5597 105.451C77.8716 104.783 77.457 103.883 77.3967 102.926C77.3365 101.969 77.635 101.024 78.2339 100.275C78.8854 99.3625 79.6901 98.5969 80.3221 97.6685C80.8403 96.8921 81.2925 96.0737 81.6741 95.2219C82.4834 95.4649 83.3503 95.4339 84.1402 95.1339C85.1041 94.7465 85.908 94.0436 86.4207 93.1402C86.3849 92.9154 86.3458 92.6938 86.3067 92.469C86.0512 92.9695 85.7217 93.4286 85.3293 93.8308C84.9672 94.2161 84.5238 94.5157 84.0312 94.7079C83.5386 94.9001 83.0094 94.98 82.482 94.9417C82.2687 94.9201 82.0574 94.882 81.85 94.8277C81.8989 94.7267 81.9445 94.6224 81.9901 94.5019C82.9055 92.4104 83.6711 90.1984 85.1111 88.387C85.2389 88.224 85.3748 88.0674 85.5183 87.9179L85.4694 87.6378C84.1142 89.0451 83.2411 90.876 82.469 92.645C82.166 93.3389 81.8696 94.036 81.547 94.7267C80.8238 94.469 80.1688 94.0501 79.6315 93.5018C77.8625 91.7002 77.7289 88.9181 77.9114 86.5464C78.0286 85.0999 78.2371 83.66 78.3088 82.2135C78.3242 80.7853 78.2152 79.3584 77.983 77.9491C77.7559 76.6485 77.7383 75.3199 77.9309 74.0137C78.1367 72.9839 78.5286 72.0002 79.0874 71.111C79.4477 70.5198 79.8763 69.9731 80.3645 69.4821C80.3351 69.4104 80.3058 69.3388 80.2732 69.2736C80.1495 69.3909 80.0289 69.5114 79.9084 69.6385C78.3389 71.293 77.4734 73.4925 77.4944 75.7729C77.4944 77.2585 77.7908 78.7212 77.9048 80.2002C77.9824 81.724 77.9093 83.2517 77.6866 84.7611C77.3836 87.3967 77.1132 90.2994 78.488 92.6971C79.1369 93.825 80.1588 94.6913 81.3776 95.1469C81.2245 95.4727 81.0682 95.7985 80.8987 96.0982C80.5992 96.6546 80.264 97.1911 79.8953 97.7043C79.5468 98.1799 79.1558 98.623 78.7714 99.0693C78.0645 99.8935 77.3445 100.793 77.1425 101.881C76.9691 102.815 77.1136 103.781 77.553 104.624C77.9772 105.479 78.6888 106.157 79.5631 106.539C80.6214 106.947 81.7879 106.979 82.8664 106.627C84.9058 106.031 86.45 104.595 88.0561 103.298C88.017 103.174 87.9975 103.044 87.9812 102.917V102.904ZM89.1409 111.068C88.1147 110.253 87.0201 109.439 85.6779 109.331C85.0218 109.256 84.3604 109.419 83.8145 109.791C83.3153 110.168 82.9436 110.688 82.7492 111.283C82.3046 112.592 82.3568 114.02 82.8958 115.293C83.2067 116.033 83.6481 116.71 84.1989 117.293L83.847 117.342C83.4813 116.946 83.1631 116.509 82.899 116.039C82.525 115.369 82.2766 114.636 82.166 113.876C81.964 112.557 82.166 111.071 83.0326 110.012C83.9741 108.865 85.5085 108.748 86.8279 109.23C87.6499 109.563 88.4132 110.025 89.0888 110.599C89.0986 110.758 89.1181 110.921 89.1409 111.081V111.068ZM74.6047 65.98C74.722 65.8171 74.8295 65.6542 74.9305 65.4783L74.5591 65.4392C73.8031 66.5992 72.9046 67.6598 71.8845 68.596L71.6825 68.7882C71.4771 68.0682 71.1546 67.3869 70.7279 66.7716C70.5559 66.5312 70.3653 66.3046 70.1578 66.094C70.0536 66.1396 69.9493 66.1885 69.8483 66.2406C70.5311 66.9348 71.0372 67.7828 71.3241 68.7133C71.3567 68.8208 71.386 68.9283 71.4153 69.0391C70.5328 69.9138 69.4999 70.6223 68.366 71.1306C67.2975 71.5638 65.9944 71.6518 64.9877 71.0589C64.9193 71.1371 64.8574 71.2185 64.7923 71.3032C65.6254 71.7813 66.6063 71.9334 67.5451 71.73C69.0404 71.4466 70.3175 70.4595 71.4349 69.4789L71.5098 69.4137C71.9789 71.427 71.803 73.5511 72.119 75.6035C72.4806 77.9393 73.6013 80.3012 73.0247 82.6924C72.835 83.6299 72.3247 84.4719 71.5815 85.0739C71.134 85.3797 70.6193 85.5732 70.0811 85.6378C69.5429 85.7025 68.9971 85.6364 68.4898 85.4453C66.1833 84.7057 64.8379 82.5133 62.9288 81.1645C61.9501 80.5304 60.9165 79.9852 59.8404 79.5356C59.7948 79.6236 59.7557 79.7083 59.7134 79.7963C60.3649 80.1058 61.0165 80.3957 61.6094 80.7247C62.0759 80.9708 62.5225 81.2529 62.9451 81.5685C63.439 81.9567 63.909 82.3745 64.3525 82.8195C65.2353 83.6795 66.1019 84.595 67.177 85.2237C68.1543 85.7938 69.3238 86.1555 70.4575 85.9372C70.9438 85.8297 71.4018 85.6202 71.8011 85.3226C72.2004 85.0249 72.5319 84.6459 72.7738 84.2106C73.2701 83.3301 73.5262 82.3348 73.5166 81.3242C73.5166 80.0211 73.1615 78.7179 72.8455 77.4572C72.6671 76.7866 72.5246 76.1069 72.4187 75.4211C72.334 74.8151 72.2852 74.2092 72.2493 73.6C72.213 72.3934 72.1129 71.1896 71.9496 69.9936C71.904 69.7167 71.8486 69.443 71.7835 69.1694C72.8399 68.2148 73.7862 67.1451 74.6047 65.98Z" fill="#B5E1EC"/>
<path d="M64.893 72.5152C58.5436 85.732 50.044 118.577 48.7963 123.405C47.946 126.682 65.0591 130.002 65.512 127.725C66.0332 125.119 72.5781 86.6767 71.9266 72.8312C71.5715 65.2536 67.0887 67.9543 64.893 72.5152Z" fill="#EB9481"/>
<path d="M65.7244 126.21C65.5224 128.699 64.0955 133.761 62.8967 134.586C61.6978 135.41 55.1203 135.592 51.8202 135.768C48.5201 135.944 47.8099 135.065 47.8033 133.915C47.7968 132.765 54.7326 132.191 54.7326 132.191C54.7326 132.191 45.6109 135.335 43.3011 135.889C40.9913 136.443 35.6974 138.081 34.8308 136.192C34.4138 135.338 35.8375 134.38 35.8375 134.38C35.8375 134.38 33.6189 135.156 33.202 134.055C32.7263 132.8 34.4823 132.005 34.4823 132.005C34.4823 132.005 33.0879 132.364 33.0032 131.325C32.8078 129.008 41.5582 127.415 41.5582 127.415C41.5582 127.415 34.984 131.054 34.668 129.171C34.2314 126.565 47.9043 122.962 49.2824 121.743C50.284 120.816 51.213 119.813 52.0613 118.743L65.7244 126.21Z" fill="#EB9481"/>
<path d="M47.8915 134.488C47.86 134.327 47.8678 134.161 47.9143 134.004C47.9608 133.847 48.0446 133.703 48.1586 133.586C48.3849 133.355 48.6481 133.165 48.9372 133.022C49.534 132.727 50.1567 132.489 50.7974 132.308C52.0843 131.908 53.4037 131.605 54.7068 131.191C53.3304 131.241 51.9662 131.468 50.6476 131.865C49.9746 132.057 49.3319 132.342 48.7385 132.712C48.4316 132.903 48.1676 133.154 47.9632 133.452C47.8632 133.604 47.8041 133.779 47.7916 133.961C47.779 134.142 47.8134 134.324 47.8915 134.488Z" fill="#263238"/>
<path d="M35.8379 134.38C36.7794 134.097 37.7046 133.778 38.6266 133.458C39.5485 133.139 40.4672 132.807 41.3859 132.481L44.1322 131.458C45.0476 131.132 45.9598 130.781 46.885 130.452C45.9157 130.61 44.958 130.834 44.0182 131.119C43.0734 131.387 42.1482 131.712 41.2263 132.045C40.3043 132.377 39.3954 132.742 38.4995 133.136C37.6036 133.53 36.7077 133.918 35.8379 134.38Z" fill="#263238"/>
<path d="M44.5262 128.246C43.6312 128.352 42.745 128.522 41.8743 128.754C41.0005 128.979 40.1393 129.249 39.2942 129.565C38.4478 129.877 37.6201 130.237 36.815 130.644C36.0061 131.042 35.2266 131.497 34.4824 132.005C35.3197 131.68 36.1309 131.295 36.9616 130.969C37.7923 130.644 38.6198 130.318 39.4571 129.992C40.2943 129.666 41.1348 129.383 41.9753 129.086C42.8158 128.79 43.6726 128.526 44.5262 128.246Z" fill="#263238"/>
<path d="M43.048 126.106C41.6031 126.294 40.1891 126.67 38.8422 127.226C37.4836 127.756 36.2009 128.462 35.0273 129.328C36.3728 128.767 37.6792 128.184 39.0149 127.66C40.3506 127.135 41.7025 126.624 43.048 126.106Z" fill="#263238"/>
<path d="M72.2569 87.6996L57.0039 87.7745C57.0039 87.7745 61.1445 75.5155 65.0865 70.4496C69.0284 65.3837 72.1917 66.0516 72.5435 72.0133C72.8954 77.9751 72.2569 87.6996 72.2569 87.6996Z" fill="#B5E1EC"/>
<path d="M72.5422 72.0134C72.5618 72.2838 72.5748 72.5672 72.5846 72.8506C72.5846 72.9777 72.5846 73.1047 72.6041 73.235C72.8191 79.2065 72.2588 87.6996 72.2588 87.6996L68.1149 87.7224H67.7012L57.0059 87.781C57.0059 87.781 58.7618 82.5686 61.0683 77.5581C61.1465 77.392 61.2214 77.2323 61.3061 77.0564C62.4822 74.5414 63.7918 72.1143 65.0819 70.4561C69.0271 65.3838 72.1871 66.0549 72.5422 72.0134Z" fill="#B5E1EC"/>
<path d="M59.8965 87.7615L62.9946 87.742C61.965 87.6214 60.9245 87.628 59.8965 87.7615ZM72.4292 75.408C72.3445 74.8021 72.2956 74.1961 72.2598 73.5869C72.2234 72.3804 72.1234 71.1766 71.9601 69.9806C71.9145 69.7036 71.8591 69.43 71.7939 69.1563C71.8526 69.0977 71.9144 69.0456 71.9763 68.9837C71.9307 68.8664 71.8851 68.7556 71.8363 68.6579C71.7907 68.7068 71.7385 68.7491 71.6929 68.798C71.6047 68.4849 71.4959 68.178 71.3671 67.8793C71.1896 67.6474 70.9682 67.4525 70.7156 67.3059C70.989 67.7503 71.2078 68.2262 71.3671 68.723C71.3997 68.8306 71.429 68.9381 71.4584 69.0488C70.5759 69.9235 69.5429 70.632 68.4091 71.1403C67.2526 71.6127 65.8191 71.6746 64.7864 70.9058C64.7245 70.9905 64.6659 71.0719 64.6072 71.1599C65.038 71.4553 65.5248 71.6592 66.0375 71.7589C66.5503 71.8587 67.078 71.8521 67.5881 71.7398C69.0834 71.4563 70.3605 70.4692 71.4779 69.4886L71.5528 69.4235C72.022 71.4368 71.846 73.5609 72.162 75.6133C72.2826 76.3756 72.4878 77.1444 72.6768 77.9133C72.6768 77.48 72.6768 77.0467 72.6768 76.6101C72.5628 76.1997 72.4846 75.8055 72.4292 75.408ZM71.5919 85.0576C71.1444 85.3634 70.6297 85.5569 70.0916 85.6215C69.5534 85.6862 69.0075 85.6201 68.5003 85.429C66.1938 84.6895 64.8483 82.497 62.9393 81.1482C62.0533 80.5676 61.1166 80.0683 60.1408 79.6562C60.0985 79.7441 60.0626 79.8354 60.0235 79.9266C60.5643 80.1839 61.1084 80.4348 61.6199 80.7117C62.0864 80.9578 62.5329 81.2399 62.9555 81.5555C63.4495 81.9437 63.9195 82.3614 64.3629 82.8064C65.2458 83.6665 66.1123 84.5819 67.1874 85.2107C68.1647 85.7808 69.3343 86.1424 70.468 85.9242C71.2409 85.7604 71.9323 85.3318 72.4227 84.7123C72.4227 84.52 72.4422 84.3181 72.4487 84.1096C72.2262 84.4773 71.9354 84.7991 71.5919 85.0576Z" fill="#B5E1EC"/>
<path d="M58.9682 84.2432C59.9455 83.9434 66.9856 83.4776 71.9765 83.8099C71.9921 83.8099 72.007 83.8161 72.018 83.8271C72.029 83.838 72.0352 83.853 72.0352 83.8685C72.0352 83.8841 72.029 83.899 72.018 83.91C72.007 83.921 71.9921 83.9272 71.9765 83.9272C71.426 83.9597 60.0107 84.5787 58.9682 84.4028C58.8672 84.3995 58.8835 84.279 58.9682 84.2432Z" fill="#263238"/>
<path d="M73.2234 78.4541C73.2234 78.4437 73.2193 78.4337 73.2119 78.4264C73.2046 78.4191 73.1947 78.415 73.1843 78.415C73.1739 78.415 73.164 78.4191 73.1567 78.4264C73.1493 78.4337 73.1452 78.4437 73.1452 78.4541C73.0058 78.9728 72.897 79.4993 72.8194 80.0308C72.7966 80.1514 72.7803 80.2752 72.7575 80.3957C72.7152 79.0926 72.6533 77.8253 72.5849 76.5483C72.5849 76.4896 72.4871 76.4896 72.4904 76.5483C72.5295 80.9756 72.4122 85.0185 72.1418 87.5791L70.8191 87.6899C70.8007 87.6936 70.7842 87.7036 70.7723 87.7181C70.7604 87.7327 70.7539 87.7509 70.7539 87.7697C70.7539 87.7885 70.7604 87.8067 70.7723 87.8212C70.7842 87.8358 70.8007 87.8458 70.8191 87.8495L72.5002 87.9081C72.5718 87.9081 72.852 84.2203 72.7836 81.3144C72.8748 80.8941 72.9725 80.4771 73.041 80.0536C73.1425 79.5259 73.2035 78.9911 73.2234 78.4541Z" fill="#263238"/>
<path d="M59.0649 87.7779C58.3775 87.8202 57.6901 87.8561 57.006 87.8756H56.8691L56.9115 87.742C57.1786 86.9015 57.4523 86.0643 57.752 85.2368C58.0517 84.4093 58.3547 83.5786 58.6805 82.7609C59.0062 81.9432 59.332 81.132 59.7132 80.3241C60.0943 79.5161 60.4592 78.7245 60.886 77.9524L59.9087 80.4153L58.9704 82.8782L58.0322 85.3443L57.0972 87.8267L57.006 87.6964C57.6901 87.6997 58.3775 87.7355 59.0649 87.7779Z" fill="#263238"/>
<path d="M77.6925 73.3327C75.3729 74.0983 70.9945 70.8373 69.1343 68.0486C69.0072 67.8564 69.1343 59.751 69.004 58.1449C68.9746 57.8192 79.3214 59.7152 79.3214 59.7152C79.3214 59.7152 78.621 63.175 78.8816 65.9767C78.9076 66.2112 79.9338 72.5932 77.6925 73.3327Z" fill="#EB9481"/>
<path d="M79.3256 59.712C79.3256 59.7608 79.2768 59.9628 79.2246 60.2886C79.1334 60.8424 78.9966 61.7383 78.9151 62.7547C78.8146 63.8228 78.807 64.8975 78.8923 65.9669C78.8956 66.0413 78.9043 66.1153 78.9184 66.1884V66.2243C78.9412 66.3546 78.9607 66.5305 78.9836 66.739C78.6619 66.811 78.3351 66.8579 78.0062 66.8791C72.4973 67.2309 70.0605 60.647 69.3242 58.0994L69.5001 58.1157C69.7705 58.1352 70.1289 58.1776 70.5589 58.2329L70.8847 58.2785C71.5721 58.3763 72.3931 58.5066 73.2466 58.6434C73.5268 58.689 73.8069 58.7314 74.0936 58.7835C74.7061 58.891 75.3251 58.9953 75.8984 59.0897C76.146 59.1386 76.3904 59.181 76.6184 59.22C76.8464 59.2591 77.1234 59.308 77.3547 59.3471L77.6804 59.4057L77.8401 59.4383L78.6969 59.5914L79.1074 59.6631C79.1656 59.6727 79.2233 59.6858 79.28 59.7022C79.2963 59.7022 79.3028 59.7022 79.3093 59.7022L79.3256 59.712Z" fill="#263238"/>
<path d="M67.0251 46.3356C66.0478 49.9615 68.2826 60.2659 70.9117 62.4942C74.7298 65.7226 80.8055 65.8432 83.5128 61.3018C86.119 56.9006 82.9817 43.5176 80.0595 41.5108C75.7527 38.556 68.4716 40.9798 67.0251 46.3356Z" fill="#EB9481"/>
<path d="M68.5202 56.4216C70.3609 55.8287 69.5464 51.0398 69.5464 51.0398C69.5464 51.0398 71.7422 49.7367 71.7128 45.254C71.7128 45.254 74.0845 49.2513 81.7566 46.8991C81.7498 45.4674 81.2941 44.0739 80.4535 42.9149C81.4694 44.1261 82.3846 45.4183 83.19 46.7786C83.19 46.7786 83.897 39.9372 77.9222 38.6341C75.544 38.1161 72.2113 38.9045 67.5461 42.348C67.5461 42.348 66.0182 39.4584 65.5003 39.9666C64.9823 40.4748 66.6307 43.1331 66.6307 43.1331C66.6307 43.1331 64.259 42.8399 63.9658 43.3775C63.7117 43.8401 65.9791 44.029 65.9791 44.029C65.9791 44.029 62.7214 45.7394 64.0245 49.5998C65.194 53.1313 67.608 56.7181 68.5202 56.4216Z" fill="#263238"/>
<path d="M66.5916 43.8466C65.5943 43.991 64.6843 44.4949 64.0327 45.2635C63.3811 46.0321 63.0329 47.0124 63.0536 48.0198C63.0894 49.1698 63.5879 50.3296 64.1352 51.3264C64.7516 52.3847 65.5016 53.3592 66.3668 54.2259C66.4124 54.2747 66.4841 54.1933 66.4352 54.1444C65.6718 53.321 65.04 52.3848 64.562 51.3688C64.0504 50.4218 63.694 49.3989 63.5064 48.339C63.3809 47.3524 63.6307 46.3547 64.2064 45.5436C64.7821 44.7326 65.6416 44.1676 66.6144 43.9606C66.6278 43.956 66.6392 43.9467 66.6463 43.9343C66.6534 43.922 66.6558 43.9075 66.653 43.8936C66.6502 43.8796 66.6424 43.8672 66.6311 43.8585C66.6198 43.8499 66.6058 43.8456 66.5916 43.8466Z" fill="#263238"/>
<path d="M73.2472 38.3442C71.9657 38.8844 70.7608 39.5909 69.6636 40.4455C68.5814 41.2074 67.6381 42.1495 66.8749 43.2309C66.8391 43.2862 66.9108 43.3514 66.9564 43.2993C68.6667 41.4651 70.895 40.0773 73.1462 38.9827C75.2409 37.9565 77.8569 37.4907 79.8637 38.9827C79.8666 38.9868 79.8705 38.9902 79.8749 38.9926C79.8794 38.995 79.8843 38.9964 79.8894 38.9965C79.8944 38.9967 79.8994 38.9956 79.904 38.9935C79.9086 38.9914 79.9126 38.9882 79.9158 38.9843C79.9189 38.9804 79.9211 38.9757 79.9222 38.9708C79.9233 38.9658 79.9232 38.9607 79.9219 38.9558C79.9206 38.9509 79.9183 38.9464 79.915 38.9426C79.9116 38.9388 79.9075 38.9358 79.9028 38.9338C78.0524 37.331 75.3875 37.4776 73.2472 38.3442Z" fill="#263238"/>
<path d="M69.6426 54.7765C69.6426 54.7765 67.2449 51.4568 65.7333 52.3169C64.2216 53.1769 66.059 58.0115 67.8573 58.65C68.0824 58.7477 68.3249 58.799 68.5702 58.8007C68.8156 58.8024 69.0587 58.7544 69.2851 58.6598C69.5115 58.5652 69.7164 58.4258 69.8875 58.25C70.0587 58.0742 70.1926 57.8656 70.2811 57.6368L69.6426 54.7765Z" fill="#EB9481"/>
<path d="M66.2947 53.6884C66.2654 53.6884 66.2621 53.7274 66.2947 53.7372C67.5555 54.2259 68.2331 55.3661 68.712 56.5748C68.3341 56.1187 67.8226 55.8711 67.2069 56.3239C67.1743 56.3467 67.2069 56.3988 67.2395 56.3891C67.4589 56.3156 67.6957 56.3118 67.9174 56.3783C68.139 56.4448 68.3347 56.5783 68.4774 56.7604C68.7126 57.0645 68.9156 57.392 69.0834 57.7378C69.142 57.8485 69.344 57.7866 69.3016 57.6563C69.3011 57.6477 69.3011 57.6389 69.3016 57.6303C69.2919 56.0405 68.0148 53.8252 66.2947 53.6884Z" fill="#263238"/>
<path d="M77.7679 52.2517C77.7679 52.2289 77.7223 52.294 77.7256 52.3234C77.8722 53.0075 77.9211 53.8187 77.3379 54.1575C77.3344 54.159 77.3315 54.1615 77.3294 54.1647C77.3273 54.1679 77.3262 54.1716 77.3262 54.1754C77.3262 54.1792 77.3273 54.1829 77.3294 54.1861C77.3315 54.1893 77.3344 54.1918 77.3379 54.1933C78.0905 53.9457 78.0155 52.8805 77.7679 52.2517Z" fill="#263238"/>
<path d="M77.0261 51.6424C75.9054 51.7565 76.2116 53.9946 77.2508 53.8903C78.2901 53.7861 77.9676 51.548 77.0261 51.6424Z" fill="#263238"/>
<path d="M81.7134 51.4437C81.7134 51.4177 81.772 51.4698 81.7753 51.4991C81.8502 52.193 82.0522 52.9781 82.7103 53.128C82.7298 53.128 82.7331 53.1671 82.7103 53.1671C81.9284 53.1606 81.671 52.1148 81.7134 51.4437Z" fill="#263238"/>
<path d="M82.234 50.6358C83.3384 50.398 83.7326 52.6231 82.7096 52.8413C81.6867 53.0596 81.3088 50.8345 82.234 50.6358Z" fill="#263238"/>
<path d="M75.9774 51.0137C76.2596 50.8864 76.5348 50.744 76.8016 50.5869C77.1136 50.4793 77.3807 50.2706 77.5607 49.994C77.6001 49.8967 77.6064 49.7892 77.5788 49.688C77.5511 49.5867 77.4909 49.4974 77.4076 49.4337C77.2215 49.3332 77.012 49.2842 76.8007 49.2916C76.5894 49.2991 76.3839 49.3627 76.2054 49.476C75.81 49.6485 75.4929 49.9621 75.3161 50.3556C75.2813 50.4478 75.2739 50.5482 75.2948 50.6445C75.3158 50.7408 75.364 50.829 75.4339 50.8985C75.5038 50.968 75.5922 51.0159 75.6886 51.0363C75.7851 51.0568 75.8853 51.0489 75.9774 51.0137Z" fill="#263238"/>
<path d="M82.7763 49.4109C82.4672 49.3904 82.1595 49.3534 81.8544 49.3001C81.5246 49.3067 81.2019 49.2048 80.9357 49.0102C80.864 48.9329 80.8199 48.8341 80.8105 48.7291C80.8011 48.6242 80.8268 48.519 80.8835 48.4303C81.0219 48.2712 81.2002 48.1519 81.4001 48.0849C81.6 48.0179 81.8142 48.0055 82.0205 48.0491C82.4529 48.0704 82.8614 48.2542 83.164 48.5638C83.2299 48.6375 83.2729 48.7288 83.2877 48.8266C83.3025 48.9244 83.2885 49.0243 83.2474 49.1142C83.2062 49.2041 83.1397 49.2801 83.0561 49.3328C82.9724 49.3855 82.8752 49.4126 82.7763 49.4109Z" fill="#263238"/>
<path d="M77.8985 58.4187C78.0875 58.5588 78.2829 58.7445 78.5501 58.7445C78.8071 58.7046 79.0526 58.6102 79.27 58.4675C79.2929 58.4675 79.3189 58.4675 79.3059 58.5001C79.2253 58.6497 79.106 58.775 78.9604 58.8626C78.8148 58.9503 78.6483 58.9973 78.4784 58.9986C78.3319 58.9807 78.1939 58.9199 78.082 58.8236C77.97 58.7273 77.8892 58.6 77.8497 58.4578C77.8203 58.4187 77.8627 58.3991 77.8985 58.4187Z" fill="#263238"/>
<path d="M78.342 56.2424C78.5557 56.4926 78.8188 56.6958 79.1149 56.8393C79.4109 56.9829 79.7334 57.0636 80.0622 57.0764C80.3489 57.091 80.6363 57.0647 80.9157 56.9982C80.9698 56.9891 81.0231 56.976 81.0753 56.9592L81.2252 56.9135C81.2609 56.9015 81.2917 56.8781 81.3129 56.8469C81.334 56.8158 81.3444 56.7785 81.3425 56.7409L81.3262 56.6692V56.6073C81.2643 56.073 81.1014 55.2684 81.1014 55.2684C81.3099 55.34 82.3654 55.6495 82.3133 55.3726C81.8572 53.0922 81.3522 50.5381 80.4173 48.3553C80.4125 48.3385 80.4012 48.3242 80.386 48.3157C80.3707 48.3071 80.3527 48.305 80.3358 48.3097C80.319 48.3145 80.3047 48.3257 80.2961 48.341C80.2876 48.3563 80.2854 48.3743 80.2902 48.3912C80.642 50.6097 81.3783 52.7501 81.766 54.9719C81.3904 54.8542 80.9997 54.7916 80.6062 54.7862C80.5345 54.8188 80.9483 56.3369 80.958 56.578C80.9588 56.5867 80.9588 56.5954 80.958 56.6041C80.0784 56.8419 79.365 56.6627 78.4105 56.1805C78.342 56.1382 78.2932 56.1936 78.342 56.2424Z" fill="#263238"/>
<path d="M80.5639 56.7702C80.324 57.1915 79.9795 57.5438 79.5638 57.7931C79.3332 57.9228 79.0675 57.9763 78.8047 57.9463C78.2313 57.8779 78.1532 57.3729 78.189 56.9233C78.2133 56.6845 78.2658 56.4494 78.3454 56.2229C79.0076 56.6373 79.785 56.8291 80.5639 56.7702Z" fill="#263238"/>
<path d="M79.5638 57.7932C79.3332 57.9228 79.0675 57.9764 78.8047 57.9463C78.2313 57.8779 78.1532 57.3729 78.189 56.9233C78.7917 56.9038 79.4335 57.223 79.5638 57.7932Z" fill="#FF9ABB"/>
</svg>
